%TF.GenerationSoftware,KiCad,Pcbnew,8.0.0*%
%TF.CreationDate,2025-02-11T16:30:35+08:00*%
%TF.ProjectId,XIAO ESP32 C6,5849414f-2045-4535-9033-322043362e6b,rev?*%
%TF.SameCoordinates,Original*%
%TF.FileFunction,Legend,Top*%
%TF.FilePolarity,Positive*%
%FSLAX46Y46*%
G04 Gerber Fmt 4.6, Leading zero omitted, Abs format (unit mm)*
G04 Created by KiCad (PCBNEW 8.0.0) date 2025-02-11 16:30:35*
%MOMM*%
%LPD*%
G01*
G04 APERTURE LIST*
%ADD10C,0.152400*%
%ADD11C,0.508000*%
%ADD12C,0.106680*%
%ADD13C,0.150000*%
%ADD14C,0.304800*%
%ADD15C,0.100000*%
%ADD16C,0.076200*%
%ADD17C,0.254000*%
%ADD18C,0.127000*%
%ADD19C,0.203200*%
%ADD20C,0.080000*%
%ADD21C,0.000000*%
%ADD22C,0.300000*%
%TA.AperFunction,Profile*%
%ADD23C,0.076200*%
%TD*%
%TA.AperFunction,Profile*%
%ADD24C,0.025400*%
%TD*%
G04 APERTURE END LIST*
D10*
X132765800Y-68402200D02*
X133654800Y-68402200D01*
X132765800Y-81737200D02*
X132765800Y-80784700D01*
X133654800Y-79832200D02*
X132765800Y-80784700D01*
X144830800Y-77927200D02*
X144830800Y-79832200D01*
X144830800Y-76022200D02*
X135623300Y-76022200D01*
X132765800Y-72212200D02*
X133654800Y-72212200D01*
X133654800Y-72212200D02*
X132765800Y-73164700D01*
X145846800Y-81737200D02*
X146735800Y-80784700D01*
X233730800Y-81737200D02*
X261035800Y-81737200D01*
X181660800Y-62687200D02*
X181660800Y-64592200D01*
X134670800Y-70307200D02*
X134670800Y-72212200D01*
X132765800Y-70307200D02*
X132765800Y-69354700D01*
X134670800Y-79832200D02*
X132765800Y-81737200D01*
X261035800Y-64592200D02*
X261035800Y-62687200D01*
X261035800Y-74117200D02*
X261035800Y-76022200D01*
X181660800Y-72212200D02*
X181660800Y-81737200D01*
X146735800Y-76022200D02*
X145783300Y-76022200D01*
X181660800Y-62687200D02*
X172135800Y-62687200D01*
X146735800Y-79832200D02*
X145783300Y-79832200D01*
X146735800Y-72212200D02*
X146735800Y-73164700D01*
X146735800Y-76974700D02*
X146735800Y-77927200D01*
X149275800Y-68402200D02*
X261035800Y-68402200D01*
X172135800Y-62687200D02*
X163880800Y-62687200D01*
X133654800Y-79832200D02*
X134670800Y-79832200D01*
X135623300Y-72212200D02*
X133718300Y-74117200D01*
X144830800Y-74117200D02*
X146735800Y-72212200D01*
X136575800Y-72212200D02*
X134670800Y-74117200D01*
X146735800Y-68402200D02*
X145783300Y-68402200D01*
X143878300Y-77927200D02*
X145783300Y-76022200D01*
X206933800Y-74117200D02*
X233730800Y-74117200D01*
X146735800Y-80784700D02*
X146735800Y-81737200D01*
X143878300Y-81737200D02*
X145783300Y-79832200D01*
X181660800Y-74117200D02*
X206933800Y-74117200D01*
X233730800Y-72212200D02*
X233730800Y-81737200D01*
X132765800Y-70307200D02*
X133718300Y-70307200D01*
X132765800Y-80784700D02*
X132765800Y-79832200D01*
X143878300Y-70307200D02*
X134670800Y-70307200D01*
X145846800Y-74117200D02*
X144830800Y-74117200D01*
X142925800Y-81737200D02*
X144830800Y-79832200D01*
X144830800Y-70307200D02*
X144830800Y-72212200D01*
X144830800Y-79832200D02*
X135623300Y-79832200D01*
X135623300Y-68402200D02*
X133718300Y-70307200D01*
X149275800Y-74117200D02*
X156260800Y-74117200D01*
X156260800Y-74117200D02*
X163880800Y-74117200D01*
X144830800Y-70307200D02*
X143878300Y-70307200D01*
X172135800Y-81737200D02*
X181660800Y-81737200D01*
X156260800Y-81737200D02*
X163880800Y-81737200D01*
X132765800Y-76022200D02*
X133654800Y-76022200D01*
X146735800Y-69354700D02*
X146735800Y-70307200D01*
X145846800Y-81737200D02*
X144830800Y-81737200D01*
X133718300Y-81737200D02*
X134670800Y-81737200D01*
X135623300Y-76022200D02*
X133718300Y-77927200D01*
X172135800Y-70307200D02*
X172135800Y-81737200D01*
X133654800Y-76022200D02*
X134670800Y-76022200D01*
X181660800Y-81737200D02*
X206933800Y-81737200D01*
X143878300Y-74117200D02*
X145783300Y-72212200D01*
X149275800Y-81737200D02*
X156260800Y-81737200D01*
X133654800Y-76022200D02*
X132765800Y-76974700D01*
X145783300Y-79832200D02*
X144830800Y-79832200D01*
X132765800Y-74117200D02*
X133718300Y-74117200D01*
X145846800Y-70307200D02*
X146735800Y-70307200D01*
X149275800Y-70307200D02*
X261035800Y-70307200D01*
X261035800Y-62687200D02*
X181660800Y-62687200D01*
X135623300Y-79832200D02*
X133718300Y-81737200D01*
X145846800Y-77927200D02*
X146735800Y-76974700D01*
X144830800Y-81737200D02*
X143878300Y-81737200D01*
X132765800Y-69354700D02*
X132765800Y-68402200D01*
X144830800Y-77927200D02*
X143878300Y-77927200D01*
X144830800Y-81737200D02*
X146735800Y-79832200D01*
X261035800Y-76022200D02*
X261035800Y-81737200D01*
X261035800Y-72212200D02*
X261035800Y-74117200D01*
X181660800Y-64592200D02*
X206933800Y-64592200D01*
X143878300Y-77927200D02*
X134670800Y-77927200D01*
X143878300Y-74117200D02*
X134670800Y-74117200D01*
D11*
X111963200Y-66649600D02*
X111963200Y-79095600D01*
D10*
X144830800Y-68402200D02*
X135623300Y-68402200D01*
X132765800Y-77927200D02*
X132765800Y-76974700D01*
X181660800Y-64592200D02*
X181660800Y-74117200D01*
X163880800Y-74117200D02*
X172135800Y-74117200D01*
X145846800Y-77927200D02*
X146735800Y-77927200D01*
X261035800Y-68402200D02*
X261035800Y-64592200D01*
X145846800Y-81737200D02*
X146735800Y-81737200D01*
X172135800Y-62687200D02*
X172135800Y-74117200D01*
X145846800Y-70307200D02*
X144830800Y-70307200D01*
X163880800Y-62687200D02*
X163880800Y-74117200D01*
X134670800Y-68402200D02*
X132765800Y-70307200D01*
X145846800Y-74117200D02*
X146735800Y-73164700D01*
X149275800Y-68402200D02*
X149275800Y-74117200D01*
X156260800Y-62687200D02*
X149275800Y-62687200D01*
X233730800Y-64592200D02*
X233730800Y-74117200D01*
X133718300Y-70307200D02*
X134670800Y-70307200D01*
X149275800Y-77927200D02*
X261035800Y-77927200D01*
X144830800Y-70307200D02*
X146735800Y-68402200D01*
X233730800Y-64592200D02*
X261035800Y-64592200D01*
X133654800Y-72212200D02*
X134670800Y-72212200D01*
X146735800Y-76022200D02*
X146735800Y-76974700D01*
X133718300Y-77927200D02*
X134670800Y-77927200D01*
X206933800Y-64592200D02*
X233730800Y-64592200D01*
X132765800Y-79832200D02*
X133654800Y-79832200D01*
X132765800Y-76974700D02*
X132765800Y-76022200D01*
X133654800Y-68402200D02*
X132765800Y-69354700D01*
X146735800Y-79832200D02*
X146735800Y-80784700D01*
X145846800Y-70307200D02*
X146735800Y-69354700D01*
X144830800Y-74117200D02*
X144830800Y-76022200D01*
X143878300Y-70307200D02*
X145783300Y-68402200D01*
X136575800Y-68402200D02*
X134670800Y-70307200D01*
X149275800Y-62687200D02*
X149275800Y-68402200D01*
X142925800Y-74117200D02*
X144830800Y-72212200D01*
X142925800Y-70307200D02*
X144830800Y-68402200D01*
X146735800Y-68402200D02*
X146735800Y-69354700D01*
X133654800Y-68402200D02*
X134670800Y-68402200D01*
X134670800Y-79832200D02*
X135623300Y-79832200D01*
X144830800Y-74117200D02*
X143878300Y-74117200D01*
X149275800Y-72212200D02*
X261035800Y-72212200D01*
X133718300Y-74117200D02*
X134670800Y-74117200D01*
X149275800Y-76022200D02*
X261035800Y-76022200D01*
X132765800Y-81737200D02*
X133718300Y-81737200D01*
X145846800Y-77927200D02*
X144830800Y-77927200D01*
X261035800Y-68402200D02*
X261035800Y-72212200D01*
X163880800Y-62687200D02*
X156260800Y-62687200D01*
X149275800Y-79832200D02*
X261035800Y-79832200D01*
X132765800Y-74117200D02*
X132765800Y-73164700D01*
X134670800Y-72212200D02*
X132765800Y-74117200D01*
X134670800Y-77927200D02*
X134670800Y-79832200D01*
X145783300Y-68402200D02*
X144830800Y-68402200D01*
X163880800Y-70307200D02*
X163880800Y-81737200D01*
X145783300Y-72212200D02*
X144830800Y-72212200D01*
X163880800Y-81737200D02*
X172135800Y-81737200D01*
X134670800Y-72212200D02*
X135623300Y-72212200D01*
X149275800Y-76022200D02*
X149275800Y-81737200D01*
X206933800Y-72212200D02*
X206933800Y-81737200D01*
X134670800Y-68402200D02*
X135623300Y-68402200D01*
X146735800Y-73164700D02*
X146735800Y-74117200D01*
X143878300Y-81737200D02*
X134670800Y-81737200D01*
X172135800Y-74117200D02*
X181660800Y-74117200D01*
X146735800Y-72212200D02*
X145783300Y-72212200D01*
X134670800Y-76022200D02*
X135623300Y-76022200D01*
D11*
X109550200Y-79095600D02*
X105105200Y-79095600D01*
D10*
X136575800Y-76022200D02*
X134670800Y-77927200D01*
X144830800Y-77927200D02*
X146735800Y-76022200D01*
X145846800Y-74117200D02*
X146735800Y-74117200D01*
X206933800Y-64592200D02*
X206933800Y-74117200D01*
D11*
X101676200Y-79095600D02*
X101676200Y-66649600D01*
D10*
X144830800Y-72212200D02*
X135623300Y-72212200D01*
X156260800Y-62687200D02*
X156260800Y-74117200D01*
X134670800Y-76022200D02*
X132765800Y-77927200D01*
X145783300Y-76022200D02*
X144830800Y-76022200D01*
X132765800Y-77927200D02*
X133718300Y-77927200D01*
X142925800Y-77927200D02*
X144830800Y-76022200D01*
X149275800Y-74117200D02*
X149275800Y-76022200D01*
X206933800Y-81737200D02*
X233730800Y-81737200D01*
X134670800Y-74117200D02*
X134670800Y-76022200D01*
X156260800Y-70307200D02*
X156260800Y-81737200D01*
X132765800Y-73164700D02*
X132765800Y-72212200D01*
X233730800Y-74117200D02*
X261035800Y-74117200D01*
X136575800Y-79832200D02*
X134670800Y-81737200D01*
D12*
X151809784Y-66014911D02*
X151437250Y-66014911D01*
X151437250Y-66014911D02*
X151437250Y-65232591D01*
X152033304Y-65791391D02*
X152405837Y-65791391D01*
X151958797Y-66014911D02*
X152219571Y-65232591D01*
X152219571Y-65232591D02*
X152480344Y-66014911D01*
X152890131Y-65642378D02*
X152890131Y-66014911D01*
X152629357Y-65232591D02*
X152890131Y-65642378D01*
X152890131Y-65642378D02*
X153150904Y-65232591D01*
X153411677Y-65605124D02*
X153672451Y-65605124D01*
X153784211Y-66014911D02*
X153411677Y-66014911D01*
X153411677Y-66014911D02*
X153411677Y-65232591D01*
X153411677Y-65232591D02*
X153784211Y-65232591D01*
X154566530Y-66014911D02*
X154305757Y-65642378D01*
X154119490Y-66014911D02*
X154119490Y-65232591D01*
X154119490Y-65232591D02*
X154417517Y-65232591D01*
X154417517Y-65232591D02*
X154492024Y-65269844D01*
X154492024Y-65269844D02*
X154529277Y-65307098D01*
X154529277Y-65307098D02*
X154566530Y-65381604D01*
X154566530Y-65381604D02*
X154566530Y-65493364D01*
X154566530Y-65493364D02*
X154529277Y-65567871D01*
X154529277Y-65567871D02*
X154492024Y-65605124D01*
X154492024Y-65605124D02*
X154417517Y-65642378D01*
X154417517Y-65642378D02*
X154119490Y-65642378D01*
X166198037Y-69697911D02*
X165750997Y-69697911D01*
X165974517Y-69697911D02*
X165974517Y-68915591D01*
X165974517Y-68915591D02*
X165900010Y-69027351D01*
X165900010Y-69027351D02*
X165825504Y-69101858D01*
X165825504Y-69101858D02*
X165750997Y-69139111D01*
X167278384Y-68915591D02*
X167427397Y-68915591D01*
X167427397Y-68915591D02*
X167501904Y-68952844D01*
X167501904Y-68952844D02*
X167576410Y-69027351D01*
X167576410Y-69027351D02*
X167613664Y-69176364D01*
X167613664Y-69176364D02*
X167613664Y-69437138D01*
X167613664Y-69437138D02*
X167576410Y-69586151D01*
X167576410Y-69586151D02*
X167501904Y-69660658D01*
X167501904Y-69660658D02*
X167427397Y-69697911D01*
X167427397Y-69697911D02*
X167278384Y-69697911D01*
X167278384Y-69697911D02*
X167203877Y-69660658D01*
X167203877Y-69660658D02*
X167129370Y-69586151D01*
X167129370Y-69586151D02*
X167092117Y-69437138D01*
X167092117Y-69437138D02*
X167092117Y-69176364D01*
X167092117Y-69176364D02*
X167129370Y-69027351D01*
X167129370Y-69027351D02*
X167203877Y-68952844D01*
X167203877Y-68952844D02*
X167278384Y-68915591D01*
X167874437Y-68915591D02*
X168395983Y-68915591D01*
X168395983Y-68915591D02*
X167874437Y-69697911D01*
X167874437Y-69697911D02*
X168395983Y-69697911D01*
D13*
X116001254Y-67187341D02*
X116364111Y-66933341D01*
X116001254Y-66751912D02*
X116763254Y-66751912D01*
X116763254Y-66751912D02*
X116763254Y-67042198D01*
X116763254Y-67042198D02*
X116726968Y-67114769D01*
X116726968Y-67114769D02*
X116690682Y-67151055D01*
X116690682Y-67151055D02*
X116618111Y-67187341D01*
X116618111Y-67187341D02*
X116509254Y-67187341D01*
X116509254Y-67187341D02*
X116436682Y-67151055D01*
X116436682Y-67151055D02*
X116400397Y-67114769D01*
X116400397Y-67114769D02*
X116364111Y-67042198D01*
X116364111Y-67042198D02*
X116364111Y-66751912D01*
D12*
X174998290Y-81127911D02*
X174737517Y-80755378D01*
X174551250Y-81127911D02*
X174551250Y-80345591D01*
X174551250Y-80345591D02*
X174849277Y-80345591D01*
X174849277Y-80345591D02*
X174923784Y-80382844D01*
X174923784Y-80382844D02*
X174961037Y-80420098D01*
X174961037Y-80420098D02*
X174998290Y-80494604D01*
X174998290Y-80494604D02*
X174998290Y-80606364D01*
X174998290Y-80606364D02*
X174961037Y-80680871D01*
X174961037Y-80680871D02*
X174923784Y-80718124D01*
X174923784Y-80718124D02*
X174849277Y-80755378D01*
X174849277Y-80755378D02*
X174551250Y-80755378D01*
X175482584Y-80345591D02*
X175631597Y-80345591D01*
X175631597Y-80345591D02*
X175706104Y-80382844D01*
X175706104Y-80382844D02*
X175780610Y-80457351D01*
X175780610Y-80457351D02*
X175817864Y-80606364D01*
X175817864Y-80606364D02*
X175817864Y-80867138D01*
X175817864Y-80867138D02*
X175780610Y-81016151D01*
X175780610Y-81016151D02*
X175706104Y-81090658D01*
X175706104Y-81090658D02*
X175631597Y-81127911D01*
X175631597Y-81127911D02*
X175482584Y-81127911D01*
X175482584Y-81127911D02*
X175408077Y-81090658D01*
X175408077Y-81090658D02*
X175333570Y-81016151D01*
X175333570Y-81016151D02*
X175296317Y-80867138D01*
X175296317Y-80867138D02*
X175296317Y-80606364D01*
X175296317Y-80606364D02*
X175333570Y-80457351D01*
X175333570Y-80457351D02*
X175408077Y-80382844D01*
X175408077Y-80382844D02*
X175482584Y-80345591D01*
X176153143Y-80345591D02*
X176153143Y-80978898D01*
X176153143Y-80978898D02*
X176190397Y-81053404D01*
X176190397Y-81053404D02*
X176227650Y-81090658D01*
X176227650Y-81090658D02*
X176302157Y-81127911D01*
X176302157Y-81127911D02*
X176451170Y-81127911D01*
X176451170Y-81127911D02*
X176525677Y-81090658D01*
X176525677Y-81090658D02*
X176562930Y-81053404D01*
X176562930Y-81053404D02*
X176600183Y-80978898D01*
X176600183Y-80978898D02*
X176600183Y-80345591D01*
X176860956Y-80345591D02*
X177307996Y-80345591D01*
X177084476Y-81127911D02*
X177084476Y-80345591D01*
X177568769Y-81127911D02*
X177568769Y-80345591D01*
X177941302Y-81127911D02*
X177941302Y-80345591D01*
X177941302Y-80345591D02*
X178388342Y-81127911D01*
X178388342Y-81127911D02*
X178388342Y-80345591D01*
X179170662Y-80382844D02*
X179096155Y-80345591D01*
X179096155Y-80345591D02*
X178984395Y-80345591D01*
X178984395Y-80345591D02*
X178872635Y-80382844D01*
X178872635Y-80382844D02*
X178798129Y-80457351D01*
X178798129Y-80457351D02*
X178760875Y-80531858D01*
X178760875Y-80531858D02*
X178723622Y-80680871D01*
X178723622Y-80680871D02*
X178723622Y-80792631D01*
X178723622Y-80792631D02*
X178760875Y-80941644D01*
X178760875Y-80941644D02*
X178798129Y-81016151D01*
X178798129Y-81016151D02*
X178872635Y-81090658D01*
X178872635Y-81090658D02*
X178984395Y-81127911D01*
X178984395Y-81127911D02*
X179058902Y-81127911D01*
X179058902Y-81127911D02*
X179170662Y-81090658D01*
X179170662Y-81090658D02*
X179207915Y-81053404D01*
X179207915Y-81053404D02*
X179207915Y-80792631D01*
X179207915Y-80792631D02*
X179058902Y-80792631D01*
X151325490Y-76535591D02*
X151772530Y-76535591D01*
X151549010Y-77317911D02*
X151549010Y-76535591D01*
X152182317Y-76535591D02*
X152331330Y-76535591D01*
X152331330Y-76535591D02*
X152405837Y-76572844D01*
X152405837Y-76572844D02*
X152480343Y-76647351D01*
X152480343Y-76647351D02*
X152517597Y-76796364D01*
X152517597Y-76796364D02*
X152517597Y-77057138D01*
X152517597Y-77057138D02*
X152480343Y-77206151D01*
X152480343Y-77206151D02*
X152405837Y-77280658D01*
X152405837Y-77280658D02*
X152331330Y-77317911D01*
X152331330Y-77317911D02*
X152182317Y-77317911D01*
X152182317Y-77317911D02*
X152107810Y-77280658D01*
X152107810Y-77280658D02*
X152033303Y-77206151D01*
X152033303Y-77206151D02*
X151996050Y-77057138D01*
X151996050Y-77057138D02*
X151996050Y-76796364D01*
X151996050Y-76796364D02*
X152033303Y-76647351D01*
X152033303Y-76647351D02*
X152107810Y-76572844D01*
X152107810Y-76572844D02*
X152182317Y-76535591D01*
X152852876Y-77317911D02*
X152852876Y-76535591D01*
X152852876Y-76535591D02*
X153150903Y-76535591D01*
X153150903Y-76535591D02*
X153225410Y-76572844D01*
X153225410Y-76572844D02*
X153262663Y-76610098D01*
X153262663Y-76610098D02*
X153299916Y-76684604D01*
X153299916Y-76684604D02*
X153299916Y-76796364D01*
X153299916Y-76796364D02*
X153262663Y-76870871D01*
X153262663Y-76870871D02*
X153225410Y-76908124D01*
X153225410Y-76908124D02*
X153150903Y-76945378D01*
X153150903Y-76945378D02*
X152852876Y-76945378D01*
X158234290Y-75338404D02*
X158197037Y-75375658D01*
X158197037Y-75375658D02*
X158085277Y-75412911D01*
X158085277Y-75412911D02*
X158010770Y-75412911D01*
X158010770Y-75412911D02*
X157899010Y-75375658D01*
X157899010Y-75375658D02*
X157824504Y-75301151D01*
X157824504Y-75301151D02*
X157787250Y-75226644D01*
X157787250Y-75226644D02*
X157749997Y-75077631D01*
X157749997Y-75077631D02*
X157749997Y-74965871D01*
X157749997Y-74965871D02*
X157787250Y-74816858D01*
X157787250Y-74816858D02*
X157824504Y-74742351D01*
X157824504Y-74742351D02*
X157899010Y-74667844D01*
X157899010Y-74667844D02*
X158010770Y-74630591D01*
X158010770Y-74630591D02*
X158085277Y-74630591D01*
X158085277Y-74630591D02*
X158197037Y-74667844D01*
X158197037Y-74667844D02*
X158234290Y-74705098D01*
X158718584Y-74630591D02*
X158867597Y-74630591D01*
X158867597Y-74630591D02*
X158942104Y-74667844D01*
X158942104Y-74667844D02*
X159016610Y-74742351D01*
X159016610Y-74742351D02*
X159053864Y-74891364D01*
X159053864Y-74891364D02*
X159053864Y-75152138D01*
X159053864Y-75152138D02*
X159016610Y-75301151D01*
X159016610Y-75301151D02*
X158942104Y-75375658D01*
X158942104Y-75375658D02*
X158867597Y-75412911D01*
X158867597Y-75412911D02*
X158718584Y-75412911D01*
X158718584Y-75412911D02*
X158644077Y-75375658D01*
X158644077Y-75375658D02*
X158569570Y-75301151D01*
X158569570Y-75301151D02*
X158532317Y-75152138D01*
X158532317Y-75152138D02*
X158532317Y-74891364D01*
X158532317Y-74891364D02*
X158569570Y-74742351D01*
X158569570Y-74742351D02*
X158644077Y-74667844D01*
X158644077Y-74667844D02*
X158718584Y-74630591D01*
X159836183Y-75412911D02*
X159575410Y-75040378D01*
X159389143Y-75412911D02*
X159389143Y-74630591D01*
X159389143Y-74630591D02*
X159687170Y-74630591D01*
X159687170Y-74630591D02*
X159761677Y-74667844D01*
X159761677Y-74667844D02*
X159798930Y-74705098D01*
X159798930Y-74705098D02*
X159836183Y-74779604D01*
X159836183Y-74779604D02*
X159836183Y-74891364D01*
X159836183Y-74891364D02*
X159798930Y-74965871D01*
X159798930Y-74965871D02*
X159761677Y-75003124D01*
X159761677Y-75003124D02*
X159687170Y-75040378D01*
X159687170Y-75040378D02*
X159389143Y-75040378D01*
X160171463Y-75003124D02*
X160432237Y-75003124D01*
X160543997Y-75412911D02*
X160171463Y-75412911D01*
X160171463Y-75412911D02*
X160171463Y-74630591D01*
X160171463Y-74630591D02*
X160543997Y-74630591D01*
X151063024Y-80718124D02*
X151174784Y-80755378D01*
X151174784Y-80755378D02*
X151212037Y-80792631D01*
X151212037Y-80792631D02*
X151249290Y-80867138D01*
X151249290Y-80867138D02*
X151249290Y-80978898D01*
X151249290Y-80978898D02*
X151212037Y-81053404D01*
X151212037Y-81053404D02*
X151174784Y-81090658D01*
X151174784Y-81090658D02*
X151100277Y-81127911D01*
X151100277Y-81127911D02*
X150802250Y-81127911D01*
X150802250Y-81127911D02*
X150802250Y-80345591D01*
X150802250Y-80345591D02*
X151063024Y-80345591D01*
X151063024Y-80345591D02*
X151137530Y-80382844D01*
X151137530Y-80382844D02*
X151174784Y-80420098D01*
X151174784Y-80420098D02*
X151212037Y-80494604D01*
X151212037Y-80494604D02*
X151212037Y-80569111D01*
X151212037Y-80569111D02*
X151174784Y-80643618D01*
X151174784Y-80643618D02*
X151137530Y-80680871D01*
X151137530Y-80680871D02*
X151063024Y-80718124D01*
X151063024Y-80718124D02*
X150802250Y-80718124D01*
X151733584Y-80345591D02*
X151882597Y-80345591D01*
X151882597Y-80345591D02*
X151957104Y-80382844D01*
X151957104Y-80382844D02*
X152031610Y-80457351D01*
X152031610Y-80457351D02*
X152068864Y-80606364D01*
X152068864Y-80606364D02*
X152068864Y-80867138D01*
X152068864Y-80867138D02*
X152031610Y-81016151D01*
X152031610Y-81016151D02*
X151957104Y-81090658D01*
X151957104Y-81090658D02*
X151882597Y-81127911D01*
X151882597Y-81127911D02*
X151733584Y-81127911D01*
X151733584Y-81127911D02*
X151659077Y-81090658D01*
X151659077Y-81090658D02*
X151584570Y-81016151D01*
X151584570Y-81016151D02*
X151547317Y-80867138D01*
X151547317Y-80867138D02*
X151547317Y-80606364D01*
X151547317Y-80606364D02*
X151584570Y-80457351D01*
X151584570Y-80457351D02*
X151659077Y-80382844D01*
X151659077Y-80382844D02*
X151733584Y-80345591D01*
X152292383Y-80345591D02*
X152739423Y-80345591D01*
X152515903Y-81127911D02*
X152515903Y-80345591D01*
X152888436Y-80345591D02*
X153335476Y-80345591D01*
X153111956Y-81127911D02*
X153111956Y-80345591D01*
X153745263Y-80345591D02*
X153894276Y-80345591D01*
X153894276Y-80345591D02*
X153968783Y-80382844D01*
X153968783Y-80382844D02*
X154043289Y-80457351D01*
X154043289Y-80457351D02*
X154080543Y-80606364D01*
X154080543Y-80606364D02*
X154080543Y-80867138D01*
X154080543Y-80867138D02*
X154043289Y-81016151D01*
X154043289Y-81016151D02*
X153968783Y-81090658D01*
X153968783Y-81090658D02*
X153894276Y-81127911D01*
X153894276Y-81127911D02*
X153745263Y-81127911D01*
X153745263Y-81127911D02*
X153670756Y-81090658D01*
X153670756Y-81090658D02*
X153596249Y-81016151D01*
X153596249Y-81016151D02*
X153558996Y-80867138D01*
X153558996Y-80867138D02*
X153558996Y-80606364D01*
X153558996Y-80606364D02*
X153596249Y-80457351D01*
X153596249Y-80457351D02*
X153670756Y-80382844D01*
X153670756Y-80382844D02*
X153745263Y-80345591D01*
X154415822Y-81127911D02*
X154415822Y-80345591D01*
X154415822Y-80345591D02*
X154676596Y-80904391D01*
X154676596Y-80904391D02*
X154937369Y-80345591D01*
X154937369Y-80345591D02*
X154937369Y-81127911D01*
X138803290Y-75338404D02*
X138766037Y-75375658D01*
X138766037Y-75375658D02*
X138654277Y-75412911D01*
X138654277Y-75412911D02*
X138579770Y-75412911D01*
X138579770Y-75412911D02*
X138468010Y-75375658D01*
X138468010Y-75375658D02*
X138393504Y-75301151D01*
X138393504Y-75301151D02*
X138356250Y-75226644D01*
X138356250Y-75226644D02*
X138318997Y-75077631D01*
X138318997Y-75077631D02*
X138318997Y-74965871D01*
X138318997Y-74965871D02*
X138356250Y-74816858D01*
X138356250Y-74816858D02*
X138393504Y-74742351D01*
X138393504Y-74742351D02*
X138468010Y-74667844D01*
X138468010Y-74667844D02*
X138579770Y-74630591D01*
X138579770Y-74630591D02*
X138654277Y-74630591D01*
X138654277Y-74630591D02*
X138766037Y-74667844D01*
X138766037Y-74667844D02*
X138803290Y-74705098D01*
X139287584Y-74630591D02*
X139436597Y-74630591D01*
X139436597Y-74630591D02*
X139511104Y-74667844D01*
X139511104Y-74667844D02*
X139585610Y-74742351D01*
X139585610Y-74742351D02*
X139622864Y-74891364D01*
X139622864Y-74891364D02*
X139622864Y-75152138D01*
X139622864Y-75152138D02*
X139585610Y-75301151D01*
X139585610Y-75301151D02*
X139511104Y-75375658D01*
X139511104Y-75375658D02*
X139436597Y-75412911D01*
X139436597Y-75412911D02*
X139287584Y-75412911D01*
X139287584Y-75412911D02*
X139213077Y-75375658D01*
X139213077Y-75375658D02*
X139138570Y-75301151D01*
X139138570Y-75301151D02*
X139101317Y-75152138D01*
X139101317Y-75152138D02*
X139101317Y-74891364D01*
X139101317Y-74891364D02*
X139138570Y-74742351D01*
X139138570Y-74742351D02*
X139213077Y-74667844D01*
X139213077Y-74667844D02*
X139287584Y-74630591D01*
X140405183Y-75412911D02*
X140144410Y-75040378D01*
X139958143Y-75412911D02*
X139958143Y-74630591D01*
X139958143Y-74630591D02*
X140256170Y-74630591D01*
X140256170Y-74630591D02*
X140330677Y-74667844D01*
X140330677Y-74667844D02*
X140367930Y-74705098D01*
X140367930Y-74705098D02*
X140405183Y-74779604D01*
X140405183Y-74779604D02*
X140405183Y-74891364D01*
X140405183Y-74891364D02*
X140367930Y-74965871D01*
X140367930Y-74965871D02*
X140330677Y-75003124D01*
X140330677Y-75003124D02*
X140256170Y-75040378D01*
X140256170Y-75040378D02*
X139958143Y-75040378D01*
X140740463Y-75003124D02*
X141001237Y-75003124D01*
X141112997Y-75412911D02*
X140740463Y-75412911D01*
X140740463Y-75412911D02*
X140740463Y-74630591D01*
X140740463Y-74630591D02*
X141112997Y-74630591D01*
X174998290Y-77317911D02*
X174737517Y-76945378D01*
X174551250Y-77317911D02*
X174551250Y-76535591D01*
X174551250Y-76535591D02*
X174849277Y-76535591D01*
X174849277Y-76535591D02*
X174923784Y-76572844D01*
X174923784Y-76572844D02*
X174961037Y-76610098D01*
X174961037Y-76610098D02*
X174998290Y-76684604D01*
X174998290Y-76684604D02*
X174998290Y-76796364D01*
X174998290Y-76796364D02*
X174961037Y-76870871D01*
X174961037Y-76870871D02*
X174923784Y-76908124D01*
X174923784Y-76908124D02*
X174849277Y-76945378D01*
X174849277Y-76945378D02*
X174551250Y-76945378D01*
X175482584Y-76535591D02*
X175631597Y-76535591D01*
X175631597Y-76535591D02*
X175706104Y-76572844D01*
X175706104Y-76572844D02*
X175780610Y-76647351D01*
X175780610Y-76647351D02*
X175817864Y-76796364D01*
X175817864Y-76796364D02*
X175817864Y-77057138D01*
X175817864Y-77057138D02*
X175780610Y-77206151D01*
X175780610Y-77206151D02*
X175706104Y-77280658D01*
X175706104Y-77280658D02*
X175631597Y-77317911D01*
X175631597Y-77317911D02*
X175482584Y-77317911D01*
X175482584Y-77317911D02*
X175408077Y-77280658D01*
X175408077Y-77280658D02*
X175333570Y-77206151D01*
X175333570Y-77206151D02*
X175296317Y-77057138D01*
X175296317Y-77057138D02*
X175296317Y-76796364D01*
X175296317Y-76796364D02*
X175333570Y-76647351D01*
X175333570Y-76647351D02*
X175408077Y-76572844D01*
X175408077Y-76572844D02*
X175482584Y-76535591D01*
X176153143Y-76535591D02*
X176153143Y-77168898D01*
X176153143Y-77168898D02*
X176190397Y-77243404D01*
X176190397Y-77243404D02*
X176227650Y-77280658D01*
X176227650Y-77280658D02*
X176302157Y-77317911D01*
X176302157Y-77317911D02*
X176451170Y-77317911D01*
X176451170Y-77317911D02*
X176525677Y-77280658D01*
X176525677Y-77280658D02*
X176562930Y-77243404D01*
X176562930Y-77243404D02*
X176600183Y-77168898D01*
X176600183Y-77168898D02*
X176600183Y-76535591D01*
X176860956Y-76535591D02*
X177307996Y-76535591D01*
X177084476Y-77317911D02*
X177084476Y-76535591D01*
X177568769Y-77317911D02*
X177568769Y-76535591D01*
X177941302Y-77317911D02*
X177941302Y-76535591D01*
X177941302Y-76535591D02*
X178388342Y-77317911D01*
X178388342Y-77317911D02*
X178388342Y-76535591D01*
X179170662Y-76572844D02*
X179096155Y-76535591D01*
X179096155Y-76535591D02*
X178984395Y-76535591D01*
X178984395Y-76535591D02*
X178872635Y-76572844D01*
X178872635Y-76572844D02*
X178798129Y-76647351D01*
X178798129Y-76647351D02*
X178760875Y-76721858D01*
X178760875Y-76721858D02*
X178723622Y-76870871D01*
X178723622Y-76870871D02*
X178723622Y-76982631D01*
X178723622Y-76982631D02*
X178760875Y-77131644D01*
X178760875Y-77131644D02*
X178798129Y-77206151D01*
X178798129Y-77206151D02*
X178872635Y-77280658D01*
X178872635Y-77280658D02*
X178984395Y-77317911D01*
X178984395Y-77317911D02*
X179058902Y-77317911D01*
X179058902Y-77317911D02*
X179170662Y-77280658D01*
X179170662Y-77280658D02*
X179207915Y-77243404D01*
X179207915Y-77243404D02*
X179207915Y-76982631D01*
X179207915Y-76982631D02*
X179058902Y-76982631D01*
X166198037Y-81127911D02*
X165750997Y-81127911D01*
X165974517Y-81127911D02*
X165974517Y-80345591D01*
X165974517Y-80345591D02*
X165900010Y-80457351D01*
X165900010Y-80457351D02*
X165825504Y-80531858D01*
X165825504Y-80531858D02*
X165750997Y-80569111D01*
X167278384Y-80345591D02*
X167427397Y-80345591D01*
X167427397Y-80345591D02*
X167501904Y-80382844D01*
X167501904Y-80382844D02*
X167576410Y-80457351D01*
X167576410Y-80457351D02*
X167613664Y-80606364D01*
X167613664Y-80606364D02*
X167613664Y-80867138D01*
X167613664Y-80867138D02*
X167576410Y-81016151D01*
X167576410Y-81016151D02*
X167501904Y-81090658D01*
X167501904Y-81090658D02*
X167427397Y-81127911D01*
X167427397Y-81127911D02*
X167278384Y-81127911D01*
X167278384Y-81127911D02*
X167203877Y-81090658D01*
X167203877Y-81090658D02*
X167129370Y-81016151D01*
X167129370Y-81016151D02*
X167092117Y-80867138D01*
X167092117Y-80867138D02*
X167092117Y-80606364D01*
X167092117Y-80606364D02*
X167129370Y-80457351D01*
X167129370Y-80457351D02*
X167203877Y-80382844D01*
X167203877Y-80382844D02*
X167278384Y-80345591D01*
X167874437Y-80345591D02*
X168395983Y-80345591D01*
X168395983Y-80345591D02*
X167874437Y-81127911D01*
X167874437Y-81127911D02*
X168395983Y-81127911D01*
X192002744Y-68915591D02*
X192189010Y-69697911D01*
X192189010Y-69697911D02*
X192338024Y-69139111D01*
X192338024Y-69139111D02*
X192487037Y-69697911D01*
X192487037Y-69697911D02*
X192673304Y-68915591D01*
X192971330Y-69623404D02*
X193008584Y-69660658D01*
X193008584Y-69660658D02*
X192971330Y-69697911D01*
X192971330Y-69697911D02*
X192934077Y-69660658D01*
X192934077Y-69660658D02*
X192971330Y-69623404D01*
X192971330Y-69623404D02*
X192971330Y-69697911D01*
X192971330Y-69213618D02*
X193008584Y-69250871D01*
X193008584Y-69250871D02*
X192971330Y-69288124D01*
X192971330Y-69288124D02*
X192934077Y-69250871D01*
X192934077Y-69250871D02*
X192971330Y-69213618D01*
X192971330Y-69213618D02*
X192971330Y-69288124D01*
X193679143Y-68915591D02*
X193530130Y-68915591D01*
X193530130Y-68915591D02*
X193455623Y-68952844D01*
X193455623Y-68952844D02*
X193418370Y-68990098D01*
X193418370Y-68990098D02*
X193343863Y-69101858D01*
X193343863Y-69101858D02*
X193306610Y-69250871D01*
X193306610Y-69250871D02*
X193306610Y-69548898D01*
X193306610Y-69548898D02*
X193343863Y-69623404D01*
X193343863Y-69623404D02*
X193381117Y-69660658D01*
X193381117Y-69660658D02*
X193455623Y-69697911D01*
X193455623Y-69697911D02*
X193604637Y-69697911D01*
X193604637Y-69697911D02*
X193679143Y-69660658D01*
X193679143Y-69660658D02*
X193716397Y-69623404D01*
X193716397Y-69623404D02*
X193753650Y-69548898D01*
X193753650Y-69548898D02*
X193753650Y-69362631D01*
X193753650Y-69362631D02*
X193716397Y-69288124D01*
X193716397Y-69288124D02*
X193679143Y-69250871D01*
X193679143Y-69250871D02*
X193604637Y-69213618D01*
X193604637Y-69213618D02*
X193455623Y-69213618D01*
X193455623Y-69213618D02*
X193381117Y-69250871D01*
X193381117Y-69250871D02*
X193343863Y-69288124D01*
X193343863Y-69288124D02*
X193306610Y-69362631D01*
X194088930Y-69623404D02*
X194126184Y-69660658D01*
X194126184Y-69660658D02*
X194088930Y-69697911D01*
X194088930Y-69697911D02*
X194051677Y-69660658D01*
X194051677Y-69660658D02*
X194088930Y-69623404D01*
X194088930Y-69623404D02*
X194088930Y-69697911D01*
X194871250Y-69697911D02*
X194424210Y-69697911D01*
X194647730Y-69697911D02*
X194647730Y-68915591D01*
X194647730Y-68915591D02*
X194573223Y-69027351D01*
X194573223Y-69027351D02*
X194498717Y-69101858D01*
X194498717Y-69101858D02*
X194424210Y-69139111D01*
X195541810Y-68915591D02*
X195392797Y-68915591D01*
X195392797Y-68915591D02*
X195318290Y-68952844D01*
X195318290Y-68952844D02*
X195281037Y-68990098D01*
X195281037Y-68990098D02*
X195206530Y-69101858D01*
X195206530Y-69101858D02*
X195169277Y-69250871D01*
X195169277Y-69250871D02*
X195169277Y-69548898D01*
X195169277Y-69548898D02*
X195206530Y-69623404D01*
X195206530Y-69623404D02*
X195243784Y-69660658D01*
X195243784Y-69660658D02*
X195318290Y-69697911D01*
X195318290Y-69697911D02*
X195467304Y-69697911D01*
X195467304Y-69697911D02*
X195541810Y-69660658D01*
X195541810Y-69660658D02*
X195579064Y-69623404D01*
X195579064Y-69623404D02*
X195616317Y-69548898D01*
X195616317Y-69548898D02*
X195616317Y-69362631D01*
X195616317Y-69362631D02*
X195579064Y-69288124D01*
X195579064Y-69288124D02*
X195541810Y-69250871D01*
X195541810Y-69250871D02*
X195467304Y-69213618D01*
X195467304Y-69213618D02*
X195318290Y-69213618D01*
X195318290Y-69213618D02*
X195243784Y-69250871D01*
X195243784Y-69250871D02*
X195206530Y-69288124D01*
X195206530Y-69288124D02*
X195169277Y-69362631D01*
X157914250Y-71602911D02*
X157914250Y-70820591D01*
X157914250Y-70820591D02*
X158212277Y-70820591D01*
X158212277Y-70820591D02*
X158286784Y-70857844D01*
X158286784Y-70857844D02*
X158324037Y-70895098D01*
X158324037Y-70895098D02*
X158361290Y-70969604D01*
X158361290Y-70969604D02*
X158361290Y-71081364D01*
X158361290Y-71081364D02*
X158324037Y-71155871D01*
X158324037Y-71155871D02*
X158286784Y-71193124D01*
X158286784Y-71193124D02*
X158212277Y-71230378D01*
X158212277Y-71230378D02*
X157914250Y-71230378D01*
X158696570Y-71602911D02*
X158696570Y-70820591D01*
X158696570Y-70820591D02*
X158994597Y-70820591D01*
X158994597Y-70820591D02*
X159069104Y-70857844D01*
X159069104Y-70857844D02*
X159106357Y-70895098D01*
X159106357Y-70895098D02*
X159143610Y-70969604D01*
X159143610Y-70969604D02*
X159143610Y-71081364D01*
X159143610Y-71081364D02*
X159106357Y-71155871D01*
X159106357Y-71155871D02*
X159069104Y-71193124D01*
X159069104Y-71193124D02*
X158994597Y-71230378D01*
X158994597Y-71230378D02*
X158696570Y-71230378D01*
X137204784Y-77317911D02*
X136832250Y-77317911D01*
X136832250Y-77317911D02*
X136832250Y-76535591D01*
X137391051Y-76535591D02*
X137875344Y-76535591D01*
X137875344Y-76535591D02*
X137614571Y-76833618D01*
X137614571Y-76833618D02*
X137726331Y-76833618D01*
X137726331Y-76833618D02*
X137800837Y-76870871D01*
X137800837Y-76870871D02*
X137838091Y-76908124D01*
X137838091Y-76908124D02*
X137875344Y-76982631D01*
X137875344Y-76982631D02*
X137875344Y-77168898D01*
X137875344Y-77168898D02*
X137838091Y-77243404D01*
X137838091Y-77243404D02*
X137800837Y-77280658D01*
X137800837Y-77280658D02*
X137726331Y-77317911D01*
X137726331Y-77317911D02*
X137502811Y-77317911D01*
X137502811Y-77317911D02*
X137428304Y-77280658D01*
X137428304Y-77280658D02*
X137391051Y-77243404D01*
X138806677Y-77317911D02*
X138806677Y-76535591D01*
X139179210Y-77317911D02*
X139179210Y-76535591D01*
X139179210Y-76535591D02*
X139626250Y-77317911D01*
X139626250Y-77317911D02*
X139626250Y-76535591D01*
X139998783Y-77317911D02*
X139998783Y-76535591D01*
X139998783Y-76535591D02*
X140445823Y-77317911D01*
X140445823Y-77317911D02*
X140445823Y-76535591D01*
X140818356Y-76908124D02*
X141079130Y-76908124D01*
X141190890Y-77317911D02*
X140818356Y-77317911D01*
X140818356Y-77317911D02*
X140818356Y-76535591D01*
X140818356Y-76535591D02*
X141190890Y-76535591D01*
X141973209Y-77317911D02*
X141712436Y-76945378D01*
X141526169Y-77317911D02*
X141526169Y-76535591D01*
X141526169Y-76535591D02*
X141824196Y-76535591D01*
X141824196Y-76535591D02*
X141898703Y-76572844D01*
X141898703Y-76572844D02*
X141935956Y-76610098D01*
X141935956Y-76610098D02*
X141973209Y-76684604D01*
X141973209Y-76684604D02*
X141973209Y-76796364D01*
X141973209Y-76796364D02*
X141935956Y-76870871D01*
X141935956Y-76870871D02*
X141898703Y-76908124D01*
X141898703Y-76908124D02*
X141824196Y-76945378D01*
X141824196Y-76945378D02*
X141526169Y-76945378D01*
X158361290Y-73433404D02*
X158324037Y-73470658D01*
X158324037Y-73470658D02*
X158212277Y-73507911D01*
X158212277Y-73507911D02*
X158137770Y-73507911D01*
X158137770Y-73507911D02*
X158026010Y-73470658D01*
X158026010Y-73470658D02*
X157951504Y-73396151D01*
X157951504Y-73396151D02*
X157914250Y-73321644D01*
X157914250Y-73321644D02*
X157876997Y-73172631D01*
X157876997Y-73172631D02*
X157876997Y-73060871D01*
X157876997Y-73060871D02*
X157914250Y-72911858D01*
X157914250Y-72911858D02*
X157951504Y-72837351D01*
X157951504Y-72837351D02*
X158026010Y-72762844D01*
X158026010Y-72762844D02*
X158137770Y-72725591D01*
X158137770Y-72725591D02*
X158212277Y-72725591D01*
X158212277Y-72725591D02*
X158324037Y-72762844D01*
X158324037Y-72762844D02*
X158361290Y-72800098D01*
X158845584Y-72725591D02*
X158994597Y-72725591D01*
X158994597Y-72725591D02*
X159069104Y-72762844D01*
X159069104Y-72762844D02*
X159143610Y-72837351D01*
X159143610Y-72837351D02*
X159180864Y-72986364D01*
X159180864Y-72986364D02*
X159180864Y-73247138D01*
X159180864Y-73247138D02*
X159143610Y-73396151D01*
X159143610Y-73396151D02*
X159069104Y-73470658D01*
X159069104Y-73470658D02*
X158994597Y-73507911D01*
X158994597Y-73507911D02*
X158845584Y-73507911D01*
X158845584Y-73507911D02*
X158771077Y-73470658D01*
X158771077Y-73470658D02*
X158696570Y-73396151D01*
X158696570Y-73396151D02*
X158659317Y-73247138D01*
X158659317Y-73247138D02*
X158659317Y-72986364D01*
X158659317Y-72986364D02*
X158696570Y-72837351D01*
X158696570Y-72837351D02*
X158771077Y-72762844D01*
X158771077Y-72762844D02*
X158845584Y-72725591D01*
X159516143Y-73507911D02*
X159516143Y-72725591D01*
X159516143Y-72725591D02*
X159814170Y-72725591D01*
X159814170Y-72725591D02*
X159888677Y-72762844D01*
X159888677Y-72762844D02*
X159925930Y-72800098D01*
X159925930Y-72800098D02*
X159963183Y-72874604D01*
X159963183Y-72874604D02*
X159963183Y-72986364D01*
X159963183Y-72986364D02*
X159925930Y-73060871D01*
X159925930Y-73060871D02*
X159888677Y-73098124D01*
X159888677Y-73098124D02*
X159814170Y-73135378D01*
X159814170Y-73135378D02*
X159516143Y-73135378D01*
X160298463Y-73507911D02*
X160298463Y-72725591D01*
X160298463Y-72725591D02*
X160596490Y-72725591D01*
X160596490Y-72725591D02*
X160670997Y-72762844D01*
X160670997Y-72762844D02*
X160708250Y-72800098D01*
X160708250Y-72800098D02*
X160745503Y-72874604D01*
X160745503Y-72874604D02*
X160745503Y-72986364D01*
X160745503Y-72986364D02*
X160708250Y-73060871D01*
X160708250Y-73060871D02*
X160670997Y-73098124D01*
X160670997Y-73098124D02*
X160596490Y-73135378D01*
X160596490Y-73135378D02*
X160298463Y-73135378D01*
X161080783Y-73098124D02*
X161341557Y-73098124D01*
X161453317Y-73507911D02*
X161080783Y-73507911D01*
X161080783Y-73507911D02*
X161080783Y-72725591D01*
X161080783Y-72725591D02*
X161453317Y-72725591D01*
X162235636Y-73507911D02*
X161974863Y-73135378D01*
X161788596Y-73507911D02*
X161788596Y-72725591D01*
X161788596Y-72725591D02*
X162086623Y-72725591D01*
X162086623Y-72725591D02*
X162161130Y-72762844D01*
X162161130Y-72762844D02*
X162198383Y-72800098D01*
X162198383Y-72800098D02*
X162235636Y-72874604D01*
X162235636Y-72874604D02*
X162235636Y-72986364D01*
X162235636Y-72986364D02*
X162198383Y-73060871D01*
X162198383Y-73060871D02*
X162161130Y-73098124D01*
X162161130Y-73098124D02*
X162086623Y-73135378D01*
X162086623Y-73135378D02*
X161788596Y-73135378D01*
X138371490Y-68915591D02*
X138818530Y-68915591D01*
X138595010Y-69697911D02*
X138595010Y-68915591D01*
X139228317Y-68915591D02*
X139377330Y-68915591D01*
X139377330Y-68915591D02*
X139451837Y-68952844D01*
X139451837Y-68952844D02*
X139526343Y-69027351D01*
X139526343Y-69027351D02*
X139563597Y-69176364D01*
X139563597Y-69176364D02*
X139563597Y-69437138D01*
X139563597Y-69437138D02*
X139526343Y-69586151D01*
X139526343Y-69586151D02*
X139451837Y-69660658D01*
X139451837Y-69660658D02*
X139377330Y-69697911D01*
X139377330Y-69697911D02*
X139228317Y-69697911D01*
X139228317Y-69697911D02*
X139153810Y-69660658D01*
X139153810Y-69660658D02*
X139079303Y-69586151D01*
X139079303Y-69586151D02*
X139042050Y-69437138D01*
X139042050Y-69437138D02*
X139042050Y-69176364D01*
X139042050Y-69176364D02*
X139079303Y-69027351D01*
X139079303Y-69027351D02*
X139153810Y-68952844D01*
X139153810Y-68952844D02*
X139228317Y-68915591D01*
X139898876Y-69697911D02*
X139898876Y-68915591D01*
X139898876Y-68915591D02*
X140196903Y-68915591D01*
X140196903Y-68915591D02*
X140271410Y-68952844D01*
X140271410Y-68952844D02*
X140308663Y-68990098D01*
X140308663Y-68990098D02*
X140345916Y-69064604D01*
X140345916Y-69064604D02*
X140345916Y-69176364D01*
X140345916Y-69176364D02*
X140308663Y-69250871D01*
X140308663Y-69250871D02*
X140271410Y-69288124D01*
X140271410Y-69288124D02*
X140196903Y-69325378D01*
X140196903Y-69325378D02*
X139898876Y-69325378D01*
X151325490Y-68915591D02*
X151772530Y-68915591D01*
X151549010Y-69697911D02*
X151549010Y-68915591D01*
X152182317Y-68915591D02*
X152331330Y-68915591D01*
X152331330Y-68915591D02*
X152405837Y-68952844D01*
X152405837Y-68952844D02*
X152480343Y-69027351D01*
X152480343Y-69027351D02*
X152517597Y-69176364D01*
X152517597Y-69176364D02*
X152517597Y-69437138D01*
X152517597Y-69437138D02*
X152480343Y-69586151D01*
X152480343Y-69586151D02*
X152405837Y-69660658D01*
X152405837Y-69660658D02*
X152331330Y-69697911D01*
X152331330Y-69697911D02*
X152182317Y-69697911D01*
X152182317Y-69697911D02*
X152107810Y-69660658D01*
X152107810Y-69660658D02*
X152033303Y-69586151D01*
X152033303Y-69586151D02*
X151996050Y-69437138D01*
X151996050Y-69437138D02*
X151996050Y-69176364D01*
X151996050Y-69176364D02*
X152033303Y-69027351D01*
X152033303Y-69027351D02*
X152107810Y-68952844D01*
X152107810Y-68952844D02*
X152182317Y-68915591D01*
X152852876Y-69697911D02*
X152852876Y-68915591D01*
X152852876Y-68915591D02*
X153150903Y-68915591D01*
X153150903Y-68915591D02*
X153225410Y-68952844D01*
X153225410Y-68952844D02*
X153262663Y-68990098D01*
X153262663Y-68990098D02*
X153299916Y-69064604D01*
X153299916Y-69064604D02*
X153299916Y-69176364D01*
X153299916Y-69176364D02*
X153262663Y-69250871D01*
X153262663Y-69250871D02*
X153225410Y-69288124D01*
X153225410Y-69288124D02*
X153150903Y-69325378D01*
X153150903Y-69325378D02*
X152852876Y-69325378D01*
X173653784Y-66014911D02*
X173281250Y-66014911D01*
X173281250Y-66014911D02*
X173281250Y-65232591D01*
X173877304Y-65791391D02*
X174249837Y-65791391D01*
X173802797Y-66014911D02*
X174063571Y-65232591D01*
X174063571Y-65232591D02*
X174324344Y-66014911D01*
X174734131Y-65642378D02*
X174734131Y-66014911D01*
X174473357Y-65232591D02*
X174734131Y-65642378D01*
X174734131Y-65642378D02*
X174994904Y-65232591D01*
X175255677Y-65605124D02*
X175516451Y-65605124D01*
X175628211Y-66014911D02*
X175255677Y-66014911D01*
X175255677Y-66014911D02*
X175255677Y-65232591D01*
X175255677Y-65232591D02*
X175628211Y-65232591D01*
X176410530Y-66014911D02*
X176149757Y-65642378D01*
X175963490Y-66014911D02*
X175963490Y-65232591D01*
X175963490Y-65232591D02*
X176261517Y-65232591D01*
X176261517Y-65232591D02*
X176336024Y-65269844D01*
X176336024Y-65269844D02*
X176373277Y-65307098D01*
X176373277Y-65307098D02*
X176410530Y-65381604D01*
X176410530Y-65381604D02*
X176410530Y-65493364D01*
X176410530Y-65493364D02*
X176373277Y-65567871D01*
X176373277Y-65567871D02*
X176336024Y-65605124D01*
X176336024Y-65605124D02*
X176261517Y-65642378D01*
X176261517Y-65642378D02*
X175963490Y-65642378D01*
X177230103Y-65232591D02*
X177677143Y-65232591D01*
X177453623Y-66014911D02*
X177453623Y-65232591D01*
X178086930Y-65642378D02*
X178086930Y-66014911D01*
X177826156Y-65232591D02*
X178086930Y-65642378D01*
X178086930Y-65642378D02*
X178347703Y-65232591D01*
X178608476Y-66014911D02*
X178608476Y-65232591D01*
X178608476Y-65232591D02*
X178906503Y-65232591D01*
X178906503Y-65232591D02*
X178981010Y-65269844D01*
X178981010Y-65269844D02*
X179018263Y-65307098D01*
X179018263Y-65307098D02*
X179055516Y-65381604D01*
X179055516Y-65381604D02*
X179055516Y-65493364D01*
X179055516Y-65493364D02*
X179018263Y-65567871D01*
X179018263Y-65567871D02*
X178981010Y-65605124D01*
X178981010Y-65605124D02*
X178906503Y-65642378D01*
X178906503Y-65642378D02*
X178608476Y-65642378D01*
X179390796Y-65605124D02*
X179651570Y-65605124D01*
X179763330Y-66014911D02*
X179390796Y-66014911D01*
X179390796Y-66014911D02*
X179390796Y-65232591D01*
X179390796Y-65232591D02*
X179763330Y-65232591D01*
X158361290Y-69623404D02*
X158324037Y-69660658D01*
X158324037Y-69660658D02*
X158212277Y-69697911D01*
X158212277Y-69697911D02*
X158137770Y-69697911D01*
X158137770Y-69697911D02*
X158026010Y-69660658D01*
X158026010Y-69660658D02*
X157951504Y-69586151D01*
X157951504Y-69586151D02*
X157914250Y-69511644D01*
X157914250Y-69511644D02*
X157876997Y-69362631D01*
X157876997Y-69362631D02*
X157876997Y-69250871D01*
X157876997Y-69250871D02*
X157914250Y-69101858D01*
X157914250Y-69101858D02*
X157951504Y-69027351D01*
X157951504Y-69027351D02*
X158026010Y-68952844D01*
X158026010Y-68952844D02*
X158137770Y-68915591D01*
X158137770Y-68915591D02*
X158212277Y-68915591D01*
X158212277Y-68915591D02*
X158324037Y-68952844D01*
X158324037Y-68952844D02*
X158361290Y-68990098D01*
X158845584Y-68915591D02*
X158994597Y-68915591D01*
X158994597Y-68915591D02*
X159069104Y-68952844D01*
X159069104Y-68952844D02*
X159143610Y-69027351D01*
X159143610Y-69027351D02*
X159180864Y-69176364D01*
X159180864Y-69176364D02*
X159180864Y-69437138D01*
X159180864Y-69437138D02*
X159143610Y-69586151D01*
X159143610Y-69586151D02*
X159069104Y-69660658D01*
X159069104Y-69660658D02*
X158994597Y-69697911D01*
X158994597Y-69697911D02*
X158845584Y-69697911D01*
X158845584Y-69697911D02*
X158771077Y-69660658D01*
X158771077Y-69660658D02*
X158696570Y-69586151D01*
X158696570Y-69586151D02*
X158659317Y-69437138D01*
X158659317Y-69437138D02*
X158659317Y-69176364D01*
X158659317Y-69176364D02*
X158696570Y-69027351D01*
X158696570Y-69027351D02*
X158771077Y-68952844D01*
X158771077Y-68952844D02*
X158845584Y-68915591D01*
X159516143Y-69697911D02*
X159516143Y-68915591D01*
X159516143Y-68915591D02*
X159814170Y-68915591D01*
X159814170Y-68915591D02*
X159888677Y-68952844D01*
X159888677Y-68952844D02*
X159925930Y-68990098D01*
X159925930Y-68990098D02*
X159963183Y-69064604D01*
X159963183Y-69064604D02*
X159963183Y-69176364D01*
X159963183Y-69176364D02*
X159925930Y-69250871D01*
X159925930Y-69250871D02*
X159888677Y-69288124D01*
X159888677Y-69288124D02*
X159814170Y-69325378D01*
X159814170Y-69325378D02*
X159516143Y-69325378D01*
X160298463Y-69697911D02*
X160298463Y-68915591D01*
X160298463Y-68915591D02*
X160596490Y-68915591D01*
X160596490Y-68915591D02*
X160670997Y-68952844D01*
X160670997Y-68952844D02*
X160708250Y-68990098D01*
X160708250Y-68990098D02*
X160745503Y-69064604D01*
X160745503Y-69064604D02*
X160745503Y-69176364D01*
X160745503Y-69176364D02*
X160708250Y-69250871D01*
X160708250Y-69250871D02*
X160670997Y-69288124D01*
X160670997Y-69288124D02*
X160596490Y-69325378D01*
X160596490Y-69325378D02*
X160298463Y-69325378D01*
X161080783Y-69288124D02*
X161341557Y-69288124D01*
X161453317Y-69697911D02*
X161080783Y-69697911D01*
X161080783Y-69697911D02*
X161080783Y-68915591D01*
X161080783Y-68915591D02*
X161453317Y-68915591D01*
X162235636Y-69697911D02*
X161974863Y-69325378D01*
X161788596Y-69697911D02*
X161788596Y-68915591D01*
X161788596Y-68915591D02*
X162086623Y-68915591D01*
X162086623Y-68915591D02*
X162161130Y-68952844D01*
X162161130Y-68952844D02*
X162198383Y-68990098D01*
X162198383Y-68990098D02*
X162235636Y-69064604D01*
X162235636Y-69064604D02*
X162235636Y-69176364D01*
X162235636Y-69176364D02*
X162198383Y-69250871D01*
X162198383Y-69250871D02*
X162161130Y-69288124D01*
X162161130Y-69288124D02*
X162086623Y-69325378D01*
X162086623Y-69325378D02*
X161788596Y-69325378D01*
X158361290Y-81053404D02*
X158324037Y-81090658D01*
X158324037Y-81090658D02*
X158212277Y-81127911D01*
X158212277Y-81127911D02*
X158137770Y-81127911D01*
X158137770Y-81127911D02*
X158026010Y-81090658D01*
X158026010Y-81090658D02*
X157951504Y-81016151D01*
X157951504Y-81016151D02*
X157914250Y-80941644D01*
X157914250Y-80941644D02*
X157876997Y-80792631D01*
X157876997Y-80792631D02*
X157876997Y-80680871D01*
X157876997Y-80680871D02*
X157914250Y-80531858D01*
X157914250Y-80531858D02*
X157951504Y-80457351D01*
X157951504Y-80457351D02*
X158026010Y-80382844D01*
X158026010Y-80382844D02*
X158137770Y-80345591D01*
X158137770Y-80345591D02*
X158212277Y-80345591D01*
X158212277Y-80345591D02*
X158324037Y-80382844D01*
X158324037Y-80382844D02*
X158361290Y-80420098D01*
X158845584Y-80345591D02*
X158994597Y-80345591D01*
X158994597Y-80345591D02*
X159069104Y-80382844D01*
X159069104Y-80382844D02*
X159143610Y-80457351D01*
X159143610Y-80457351D02*
X159180864Y-80606364D01*
X159180864Y-80606364D02*
X159180864Y-80867138D01*
X159180864Y-80867138D02*
X159143610Y-81016151D01*
X159143610Y-81016151D02*
X159069104Y-81090658D01*
X159069104Y-81090658D02*
X158994597Y-81127911D01*
X158994597Y-81127911D02*
X158845584Y-81127911D01*
X158845584Y-81127911D02*
X158771077Y-81090658D01*
X158771077Y-81090658D02*
X158696570Y-81016151D01*
X158696570Y-81016151D02*
X158659317Y-80867138D01*
X158659317Y-80867138D02*
X158659317Y-80606364D01*
X158659317Y-80606364D02*
X158696570Y-80457351D01*
X158696570Y-80457351D02*
X158771077Y-80382844D01*
X158771077Y-80382844D02*
X158845584Y-80345591D01*
X159516143Y-81127911D02*
X159516143Y-80345591D01*
X159516143Y-80345591D02*
X159814170Y-80345591D01*
X159814170Y-80345591D02*
X159888677Y-80382844D01*
X159888677Y-80382844D02*
X159925930Y-80420098D01*
X159925930Y-80420098D02*
X159963183Y-80494604D01*
X159963183Y-80494604D02*
X159963183Y-80606364D01*
X159963183Y-80606364D02*
X159925930Y-80680871D01*
X159925930Y-80680871D02*
X159888677Y-80718124D01*
X159888677Y-80718124D02*
X159814170Y-80755378D01*
X159814170Y-80755378D02*
X159516143Y-80755378D01*
X160298463Y-81127911D02*
X160298463Y-80345591D01*
X160298463Y-80345591D02*
X160596490Y-80345591D01*
X160596490Y-80345591D02*
X160670997Y-80382844D01*
X160670997Y-80382844D02*
X160708250Y-80420098D01*
X160708250Y-80420098D02*
X160745503Y-80494604D01*
X160745503Y-80494604D02*
X160745503Y-80606364D01*
X160745503Y-80606364D02*
X160708250Y-80680871D01*
X160708250Y-80680871D02*
X160670997Y-80718124D01*
X160670997Y-80718124D02*
X160596490Y-80755378D01*
X160596490Y-80755378D02*
X160298463Y-80755378D01*
X161080783Y-80718124D02*
X161341557Y-80718124D01*
X161453317Y-81127911D02*
X161080783Y-81127911D01*
X161080783Y-81127911D02*
X161080783Y-80345591D01*
X161080783Y-80345591D02*
X161453317Y-80345591D01*
X162235636Y-81127911D02*
X161974863Y-80755378D01*
X161788596Y-81127911D02*
X161788596Y-80345591D01*
X161788596Y-80345591D02*
X162086623Y-80345591D01*
X162086623Y-80345591D02*
X162161130Y-80382844D01*
X162161130Y-80382844D02*
X162198383Y-80420098D01*
X162198383Y-80420098D02*
X162235636Y-80494604D01*
X162235636Y-80494604D02*
X162235636Y-80606364D01*
X162235636Y-80606364D02*
X162198383Y-80680871D01*
X162198383Y-80680871D02*
X162161130Y-80718124D01*
X162161130Y-80718124D02*
X162086623Y-80755378D01*
X162086623Y-80755378D02*
X161788596Y-80755378D01*
X151063024Y-73098124D02*
X151174784Y-73135378D01*
X151174784Y-73135378D02*
X151212037Y-73172631D01*
X151212037Y-73172631D02*
X151249290Y-73247138D01*
X151249290Y-73247138D02*
X151249290Y-73358898D01*
X151249290Y-73358898D02*
X151212037Y-73433404D01*
X151212037Y-73433404D02*
X151174784Y-73470658D01*
X151174784Y-73470658D02*
X151100277Y-73507911D01*
X151100277Y-73507911D02*
X150802250Y-73507911D01*
X150802250Y-73507911D02*
X150802250Y-72725591D01*
X150802250Y-72725591D02*
X151063024Y-72725591D01*
X151063024Y-72725591D02*
X151137530Y-72762844D01*
X151137530Y-72762844D02*
X151174784Y-72800098D01*
X151174784Y-72800098D02*
X151212037Y-72874604D01*
X151212037Y-72874604D02*
X151212037Y-72949111D01*
X151212037Y-72949111D02*
X151174784Y-73023618D01*
X151174784Y-73023618D02*
X151137530Y-73060871D01*
X151137530Y-73060871D02*
X151063024Y-73098124D01*
X151063024Y-73098124D02*
X150802250Y-73098124D01*
X151733584Y-72725591D02*
X151882597Y-72725591D01*
X151882597Y-72725591D02*
X151957104Y-72762844D01*
X151957104Y-72762844D02*
X152031610Y-72837351D01*
X152031610Y-72837351D02*
X152068864Y-72986364D01*
X152068864Y-72986364D02*
X152068864Y-73247138D01*
X152068864Y-73247138D02*
X152031610Y-73396151D01*
X152031610Y-73396151D02*
X151957104Y-73470658D01*
X151957104Y-73470658D02*
X151882597Y-73507911D01*
X151882597Y-73507911D02*
X151733584Y-73507911D01*
X151733584Y-73507911D02*
X151659077Y-73470658D01*
X151659077Y-73470658D02*
X151584570Y-73396151D01*
X151584570Y-73396151D02*
X151547317Y-73247138D01*
X151547317Y-73247138D02*
X151547317Y-72986364D01*
X151547317Y-72986364D02*
X151584570Y-72837351D01*
X151584570Y-72837351D02*
X151659077Y-72762844D01*
X151659077Y-72762844D02*
X151733584Y-72725591D01*
X152292383Y-72725591D02*
X152739423Y-72725591D01*
X152515903Y-73507911D02*
X152515903Y-72725591D01*
X152888436Y-72725591D02*
X153335476Y-72725591D01*
X153111956Y-73507911D02*
X153111956Y-72725591D01*
X153745263Y-72725591D02*
X153894276Y-72725591D01*
X153894276Y-72725591D02*
X153968783Y-72762844D01*
X153968783Y-72762844D02*
X154043289Y-72837351D01*
X154043289Y-72837351D02*
X154080543Y-72986364D01*
X154080543Y-72986364D02*
X154080543Y-73247138D01*
X154080543Y-73247138D02*
X154043289Y-73396151D01*
X154043289Y-73396151D02*
X153968783Y-73470658D01*
X153968783Y-73470658D02*
X153894276Y-73507911D01*
X153894276Y-73507911D02*
X153745263Y-73507911D01*
X153745263Y-73507911D02*
X153670756Y-73470658D01*
X153670756Y-73470658D02*
X153596249Y-73396151D01*
X153596249Y-73396151D02*
X153558996Y-73247138D01*
X153558996Y-73247138D02*
X153558996Y-72986364D01*
X153558996Y-72986364D02*
X153596249Y-72837351D01*
X153596249Y-72837351D02*
X153670756Y-72762844D01*
X153670756Y-72762844D02*
X153745263Y-72725591D01*
X154415822Y-73507911D02*
X154415822Y-72725591D01*
X154415822Y-72725591D02*
X154676596Y-73284391D01*
X154676596Y-73284391D02*
X154937369Y-72725591D01*
X154937369Y-72725591D02*
X154937369Y-73507911D01*
X214302250Y-63982911D02*
X214302250Y-63200591D01*
X214674783Y-63982911D02*
X214674783Y-63200591D01*
X214674783Y-63200591D02*
X214935557Y-63759391D01*
X214935557Y-63759391D02*
X215196330Y-63200591D01*
X215196330Y-63200591D02*
X215196330Y-63982911D01*
X215568863Y-63982911D02*
X215568863Y-63200591D01*
X215568863Y-63200591D02*
X215866890Y-63200591D01*
X215866890Y-63200591D02*
X215941397Y-63237844D01*
X215941397Y-63237844D02*
X215978650Y-63275098D01*
X215978650Y-63275098D02*
X216015903Y-63349604D01*
X216015903Y-63349604D02*
X216015903Y-63461364D01*
X216015903Y-63461364D02*
X215978650Y-63535871D01*
X215978650Y-63535871D02*
X215941397Y-63573124D01*
X215941397Y-63573124D02*
X215866890Y-63610378D01*
X215866890Y-63610378D02*
X215568863Y-63610378D01*
X216351183Y-63573124D02*
X216611957Y-63573124D01*
X216723717Y-63982911D02*
X216351183Y-63982911D01*
X216351183Y-63982911D02*
X216351183Y-63200591D01*
X216351183Y-63200591D02*
X216723717Y-63200591D01*
X217058996Y-63982911D02*
X217058996Y-63200591D01*
X217058996Y-63200591D02*
X217245263Y-63200591D01*
X217245263Y-63200591D02*
X217357023Y-63237844D01*
X217357023Y-63237844D02*
X217431530Y-63312351D01*
X217431530Y-63312351D02*
X217468783Y-63386858D01*
X217468783Y-63386858D02*
X217506036Y-63535871D01*
X217506036Y-63535871D02*
X217506036Y-63647631D01*
X217506036Y-63647631D02*
X217468783Y-63796644D01*
X217468783Y-63796644D02*
X217431530Y-63871151D01*
X217431530Y-63871151D02*
X217357023Y-63945658D01*
X217357023Y-63945658D02*
X217245263Y-63982911D01*
X217245263Y-63982911D02*
X217058996Y-63982911D01*
X217804063Y-63759391D02*
X218176596Y-63759391D01*
X217729556Y-63982911D02*
X217990330Y-63200591D01*
X217990330Y-63200591D02*
X218251103Y-63982911D01*
X218511876Y-63982911D02*
X218511876Y-63200591D01*
X218511876Y-63200591D02*
X218958916Y-63982911D01*
X218958916Y-63982911D02*
X218958916Y-63200591D01*
X219778489Y-63908404D02*
X219741236Y-63945658D01*
X219741236Y-63945658D02*
X219629476Y-63982911D01*
X219629476Y-63982911D02*
X219554969Y-63982911D01*
X219554969Y-63982911D02*
X219443209Y-63945658D01*
X219443209Y-63945658D02*
X219368703Y-63871151D01*
X219368703Y-63871151D02*
X219331449Y-63796644D01*
X219331449Y-63796644D02*
X219294196Y-63647631D01*
X219294196Y-63647631D02*
X219294196Y-63535871D01*
X219294196Y-63535871D02*
X219331449Y-63386858D01*
X219331449Y-63386858D02*
X219368703Y-63312351D01*
X219368703Y-63312351D02*
X219443209Y-63237844D01*
X219443209Y-63237844D02*
X219554969Y-63200591D01*
X219554969Y-63200591D02*
X219629476Y-63200591D01*
X219629476Y-63200591D02*
X219741236Y-63237844D01*
X219741236Y-63237844D02*
X219778489Y-63275098D01*
X220113769Y-63573124D02*
X220374543Y-63573124D01*
X220486303Y-63982911D02*
X220113769Y-63982911D01*
X220113769Y-63982911D02*
X220113769Y-63200591D01*
X220113769Y-63200591D02*
X220486303Y-63200591D01*
X188639784Y-67792911D02*
X188267250Y-67792911D01*
X188267250Y-67792911D02*
X188267250Y-67010591D01*
X188900557Y-67792911D02*
X188900557Y-67271364D01*
X188900557Y-67010591D02*
X188863304Y-67047844D01*
X188863304Y-67047844D02*
X188900557Y-67085098D01*
X188900557Y-67085098D02*
X188937811Y-67047844D01*
X188937811Y-67047844D02*
X188900557Y-67010591D01*
X188900557Y-67010591D02*
X188900557Y-67085098D01*
X189273090Y-67271364D02*
X189273090Y-67792911D01*
X189273090Y-67345871D02*
X189310344Y-67308618D01*
X189310344Y-67308618D02*
X189384850Y-67271364D01*
X189384850Y-67271364D02*
X189496610Y-67271364D01*
X189496610Y-67271364D02*
X189571117Y-67308618D01*
X189571117Y-67308618D02*
X189608370Y-67383124D01*
X189608370Y-67383124D02*
X189608370Y-67792911D01*
X190278930Y-67755658D02*
X190204423Y-67792911D01*
X190204423Y-67792911D02*
X190055410Y-67792911D01*
X190055410Y-67792911D02*
X189980903Y-67755658D01*
X189980903Y-67755658D02*
X189943650Y-67681151D01*
X189943650Y-67681151D02*
X189943650Y-67383124D01*
X189943650Y-67383124D02*
X189980903Y-67308618D01*
X189980903Y-67308618D02*
X190055410Y-67271364D01*
X190055410Y-67271364D02*
X190204423Y-67271364D01*
X190204423Y-67271364D02*
X190278930Y-67308618D01*
X190278930Y-67308618D02*
X190316183Y-67383124D01*
X190316183Y-67383124D02*
X190316183Y-67457631D01*
X190316183Y-67457631D02*
X189943650Y-67532138D01*
X191173010Y-67271364D02*
X191322023Y-67792911D01*
X191322023Y-67792911D02*
X191471036Y-67420378D01*
X191471036Y-67420378D02*
X191620050Y-67792911D01*
X191620050Y-67792911D02*
X191769063Y-67271364D01*
X192067089Y-67792911D02*
X192067089Y-67271364D01*
X192067089Y-67010591D02*
X192029836Y-67047844D01*
X192029836Y-67047844D02*
X192067089Y-67085098D01*
X192067089Y-67085098D02*
X192104343Y-67047844D01*
X192104343Y-67047844D02*
X192067089Y-67010591D01*
X192067089Y-67010591D02*
X192067089Y-67085098D01*
X192774902Y-67792911D02*
X192774902Y-67010591D01*
X192774902Y-67755658D02*
X192700396Y-67792911D01*
X192700396Y-67792911D02*
X192551382Y-67792911D01*
X192551382Y-67792911D02*
X192476876Y-67755658D01*
X192476876Y-67755658D02*
X192439622Y-67718404D01*
X192439622Y-67718404D02*
X192402369Y-67643898D01*
X192402369Y-67643898D02*
X192402369Y-67420378D01*
X192402369Y-67420378D02*
X192439622Y-67345871D01*
X192439622Y-67345871D02*
X192476876Y-67308618D01*
X192476876Y-67308618D02*
X192551382Y-67271364D01*
X192551382Y-67271364D02*
X192700396Y-67271364D01*
X192700396Y-67271364D02*
X192774902Y-67308618D01*
X193035675Y-67271364D02*
X193333702Y-67271364D01*
X193147435Y-67010591D02*
X193147435Y-67681151D01*
X193147435Y-67681151D02*
X193184689Y-67755658D01*
X193184689Y-67755658D02*
X193259195Y-67792911D01*
X193259195Y-67792911D02*
X193333702Y-67792911D01*
X193594475Y-67792911D02*
X193594475Y-67010591D01*
X193929755Y-67792911D02*
X193929755Y-67383124D01*
X193929755Y-67383124D02*
X193892502Y-67308618D01*
X193892502Y-67308618D02*
X193817995Y-67271364D01*
X193817995Y-67271364D02*
X193706235Y-67271364D01*
X193706235Y-67271364D02*
X193631729Y-67308618D01*
X193631729Y-67308618D02*
X193594475Y-67345871D01*
X194525808Y-68090938D02*
X194488555Y-68053684D01*
X194488555Y-68053684D02*
X194414048Y-67941924D01*
X194414048Y-67941924D02*
X194376795Y-67867418D01*
X194376795Y-67867418D02*
X194339542Y-67755658D01*
X194339542Y-67755658D02*
X194302288Y-67569391D01*
X194302288Y-67569391D02*
X194302288Y-67420378D01*
X194302288Y-67420378D02*
X194339542Y-67234111D01*
X194339542Y-67234111D02*
X194376795Y-67122351D01*
X194376795Y-67122351D02*
X194414048Y-67047844D01*
X194414048Y-67047844D02*
X194488555Y-66936084D01*
X194488555Y-66936084D02*
X194525808Y-66898831D01*
X194823835Y-67792911D02*
X194823835Y-67271364D01*
X194823835Y-67345871D02*
X194861089Y-67308618D01*
X194861089Y-67308618D02*
X194935595Y-67271364D01*
X194935595Y-67271364D02*
X195047355Y-67271364D01*
X195047355Y-67271364D02*
X195121862Y-67308618D01*
X195121862Y-67308618D02*
X195159115Y-67383124D01*
X195159115Y-67383124D02*
X195159115Y-67792911D01*
X195159115Y-67383124D02*
X195196369Y-67308618D01*
X195196369Y-67308618D02*
X195270875Y-67271364D01*
X195270875Y-67271364D02*
X195382635Y-67271364D01*
X195382635Y-67271364D02*
X195457142Y-67308618D01*
X195457142Y-67308618D02*
X195494395Y-67383124D01*
X195494395Y-67383124D02*
X195494395Y-67792911D01*
X195866928Y-67792911D02*
X195866928Y-67271364D01*
X195866928Y-67010591D02*
X195829675Y-67047844D01*
X195829675Y-67047844D02*
X195866928Y-67085098D01*
X195866928Y-67085098D02*
X195904182Y-67047844D01*
X195904182Y-67047844D02*
X195866928Y-67010591D01*
X195866928Y-67010591D02*
X195866928Y-67085098D01*
X196351221Y-67792911D02*
X196276715Y-67755658D01*
X196276715Y-67755658D02*
X196239461Y-67681151D01*
X196239461Y-67681151D02*
X196239461Y-67010591D01*
X196574742Y-68090938D02*
X196611995Y-68053684D01*
X196611995Y-68053684D02*
X196686502Y-67941924D01*
X196686502Y-67941924D02*
X196723755Y-67867418D01*
X196723755Y-67867418D02*
X196761008Y-67755658D01*
X196761008Y-67755658D02*
X196798262Y-67569391D01*
X196798262Y-67569391D02*
X196798262Y-67420378D01*
X196798262Y-67420378D02*
X196761008Y-67234111D01*
X196761008Y-67234111D02*
X196723755Y-67122351D01*
X196723755Y-67122351D02*
X196686502Y-67047844D01*
X196686502Y-67047844D02*
X196611995Y-66936084D01*
X196611995Y-66936084D02*
X196574742Y-66898831D01*
X165713744Y-78440591D02*
X166198037Y-78440591D01*
X166198037Y-78440591D02*
X165937264Y-78738618D01*
X165937264Y-78738618D02*
X166049024Y-78738618D01*
X166049024Y-78738618D02*
X166123530Y-78775871D01*
X166123530Y-78775871D02*
X166160784Y-78813124D01*
X166160784Y-78813124D02*
X166198037Y-78887631D01*
X166198037Y-78887631D02*
X166198037Y-79073898D01*
X166198037Y-79073898D02*
X166160784Y-79148404D01*
X166160784Y-79148404D02*
X166123530Y-79185658D01*
X166123530Y-79185658D02*
X166049024Y-79222911D01*
X166049024Y-79222911D02*
X165825504Y-79222911D01*
X165825504Y-79222911D02*
X165750997Y-79185658D01*
X165750997Y-79185658D02*
X165713744Y-79148404D01*
X166533317Y-79148404D02*
X166570571Y-79185658D01*
X166570571Y-79185658D02*
X166533317Y-79222911D01*
X166533317Y-79222911D02*
X166496064Y-79185658D01*
X166496064Y-79185658D02*
X166533317Y-79148404D01*
X166533317Y-79148404D02*
X166533317Y-79222911D01*
X166943104Y-79222911D02*
X167092117Y-79222911D01*
X167092117Y-79222911D02*
X167166624Y-79185658D01*
X167166624Y-79185658D02*
X167203877Y-79148404D01*
X167203877Y-79148404D02*
X167278384Y-79036644D01*
X167278384Y-79036644D02*
X167315637Y-78887631D01*
X167315637Y-78887631D02*
X167315637Y-78589604D01*
X167315637Y-78589604D02*
X167278384Y-78515098D01*
X167278384Y-78515098D02*
X167241130Y-78477844D01*
X167241130Y-78477844D02*
X167166624Y-78440591D01*
X167166624Y-78440591D02*
X167017610Y-78440591D01*
X167017610Y-78440591D02*
X166943104Y-78477844D01*
X166943104Y-78477844D02*
X166905850Y-78515098D01*
X166905850Y-78515098D02*
X166868597Y-78589604D01*
X166868597Y-78589604D02*
X166868597Y-78775871D01*
X166868597Y-78775871D02*
X166905850Y-78850378D01*
X166905850Y-78850378D02*
X166943104Y-78887631D01*
X166943104Y-78887631D02*
X167017610Y-78924884D01*
X167017610Y-78924884D02*
X167166624Y-78924884D01*
X167166624Y-78924884D02*
X167241130Y-78887631D01*
X167241130Y-78887631D02*
X167278384Y-78850378D01*
X167278384Y-78850378D02*
X167315637Y-78775871D01*
X168060704Y-79222911D02*
X167613664Y-79222911D01*
X167837184Y-79222911D02*
X167837184Y-78440591D01*
X167837184Y-78440591D02*
X167762677Y-78552351D01*
X167762677Y-78552351D02*
X167688171Y-78626858D01*
X167688171Y-78626858D02*
X167613664Y-78664111D01*
X168395984Y-79222911D02*
X168395984Y-78701364D01*
X168395984Y-78775871D02*
X168433238Y-78738618D01*
X168433238Y-78738618D02*
X168507744Y-78701364D01*
X168507744Y-78701364D02*
X168619504Y-78701364D01*
X168619504Y-78701364D02*
X168694011Y-78738618D01*
X168694011Y-78738618D02*
X168731264Y-78813124D01*
X168731264Y-78813124D02*
X168731264Y-79222911D01*
X168731264Y-78813124D02*
X168768518Y-78738618D01*
X168768518Y-78738618D02*
X168843024Y-78701364D01*
X168843024Y-78701364D02*
X168954784Y-78701364D01*
X168954784Y-78701364D02*
X169029291Y-78738618D01*
X169029291Y-78738618D02*
X169066544Y-78813124D01*
X169066544Y-78813124D02*
X169066544Y-79222911D01*
X169439077Y-79222911D02*
X169439077Y-78701364D01*
X169439077Y-78440591D02*
X169401824Y-78477844D01*
X169401824Y-78477844D02*
X169439077Y-78515098D01*
X169439077Y-78515098D02*
X169476331Y-78477844D01*
X169476331Y-78477844D02*
X169439077Y-78440591D01*
X169439077Y-78440591D02*
X169439077Y-78515098D01*
X169923370Y-79222911D02*
X169848864Y-79185658D01*
X169848864Y-79185658D02*
X169811610Y-79111151D01*
X169811610Y-79111151D02*
X169811610Y-78440591D01*
X158361290Y-77243404D02*
X158324037Y-77280658D01*
X158324037Y-77280658D02*
X158212277Y-77317911D01*
X158212277Y-77317911D02*
X158137770Y-77317911D01*
X158137770Y-77317911D02*
X158026010Y-77280658D01*
X158026010Y-77280658D02*
X157951504Y-77206151D01*
X157951504Y-77206151D02*
X157914250Y-77131644D01*
X157914250Y-77131644D02*
X157876997Y-76982631D01*
X157876997Y-76982631D02*
X157876997Y-76870871D01*
X157876997Y-76870871D02*
X157914250Y-76721858D01*
X157914250Y-76721858D02*
X157951504Y-76647351D01*
X157951504Y-76647351D02*
X158026010Y-76572844D01*
X158026010Y-76572844D02*
X158137770Y-76535591D01*
X158137770Y-76535591D02*
X158212277Y-76535591D01*
X158212277Y-76535591D02*
X158324037Y-76572844D01*
X158324037Y-76572844D02*
X158361290Y-76610098D01*
X158845584Y-76535591D02*
X158994597Y-76535591D01*
X158994597Y-76535591D02*
X159069104Y-76572844D01*
X159069104Y-76572844D02*
X159143610Y-76647351D01*
X159143610Y-76647351D02*
X159180864Y-76796364D01*
X159180864Y-76796364D02*
X159180864Y-77057138D01*
X159180864Y-77057138D02*
X159143610Y-77206151D01*
X159143610Y-77206151D02*
X159069104Y-77280658D01*
X159069104Y-77280658D02*
X158994597Y-77317911D01*
X158994597Y-77317911D02*
X158845584Y-77317911D01*
X158845584Y-77317911D02*
X158771077Y-77280658D01*
X158771077Y-77280658D02*
X158696570Y-77206151D01*
X158696570Y-77206151D02*
X158659317Y-77057138D01*
X158659317Y-77057138D02*
X158659317Y-76796364D01*
X158659317Y-76796364D02*
X158696570Y-76647351D01*
X158696570Y-76647351D02*
X158771077Y-76572844D01*
X158771077Y-76572844D02*
X158845584Y-76535591D01*
X159516143Y-77317911D02*
X159516143Y-76535591D01*
X159516143Y-76535591D02*
X159814170Y-76535591D01*
X159814170Y-76535591D02*
X159888677Y-76572844D01*
X159888677Y-76572844D02*
X159925930Y-76610098D01*
X159925930Y-76610098D02*
X159963183Y-76684604D01*
X159963183Y-76684604D02*
X159963183Y-76796364D01*
X159963183Y-76796364D02*
X159925930Y-76870871D01*
X159925930Y-76870871D02*
X159888677Y-76908124D01*
X159888677Y-76908124D02*
X159814170Y-76945378D01*
X159814170Y-76945378D02*
X159516143Y-76945378D01*
X160298463Y-77317911D02*
X160298463Y-76535591D01*
X160298463Y-76535591D02*
X160596490Y-76535591D01*
X160596490Y-76535591D02*
X160670997Y-76572844D01*
X160670997Y-76572844D02*
X160708250Y-76610098D01*
X160708250Y-76610098D02*
X160745503Y-76684604D01*
X160745503Y-76684604D02*
X160745503Y-76796364D01*
X160745503Y-76796364D02*
X160708250Y-76870871D01*
X160708250Y-76870871D02*
X160670997Y-76908124D01*
X160670997Y-76908124D02*
X160596490Y-76945378D01*
X160596490Y-76945378D02*
X160298463Y-76945378D01*
X161080783Y-76908124D02*
X161341557Y-76908124D01*
X161453317Y-77317911D02*
X161080783Y-77317911D01*
X161080783Y-77317911D02*
X161080783Y-76535591D01*
X161080783Y-76535591D02*
X161453317Y-76535591D01*
X162235636Y-77317911D02*
X161974863Y-76945378D01*
X161788596Y-77317911D02*
X161788596Y-76535591D01*
X161788596Y-76535591D02*
X162086623Y-76535591D01*
X162086623Y-76535591D02*
X162161130Y-76572844D01*
X162161130Y-76572844D02*
X162198383Y-76610098D01*
X162198383Y-76610098D02*
X162235636Y-76684604D01*
X162235636Y-76684604D02*
X162235636Y-76796364D01*
X162235636Y-76796364D02*
X162198383Y-76870871D01*
X162198383Y-76870871D02*
X162161130Y-76908124D01*
X162161130Y-76908124D02*
X162086623Y-76945378D01*
X162086623Y-76945378D02*
X161788596Y-76945378D01*
X137204784Y-73507911D02*
X136832250Y-73507911D01*
X136832250Y-73507911D02*
X136832250Y-72725591D01*
X137428304Y-72800098D02*
X137465557Y-72762844D01*
X137465557Y-72762844D02*
X137540064Y-72725591D01*
X137540064Y-72725591D02*
X137726331Y-72725591D01*
X137726331Y-72725591D02*
X137800837Y-72762844D01*
X137800837Y-72762844D02*
X137838091Y-72800098D01*
X137838091Y-72800098D02*
X137875344Y-72874604D01*
X137875344Y-72874604D02*
X137875344Y-72949111D01*
X137875344Y-72949111D02*
X137838091Y-73060871D01*
X137838091Y-73060871D02*
X137391051Y-73507911D01*
X137391051Y-73507911D02*
X137875344Y-73507911D01*
X138806677Y-73507911D02*
X138806677Y-72725591D01*
X139179210Y-73507911D02*
X139179210Y-72725591D01*
X139179210Y-72725591D02*
X139626250Y-73507911D01*
X139626250Y-73507911D02*
X139626250Y-72725591D01*
X139998783Y-73507911D02*
X139998783Y-72725591D01*
X139998783Y-72725591D02*
X140445823Y-73507911D01*
X140445823Y-73507911D02*
X140445823Y-72725591D01*
X140818356Y-73098124D02*
X141079130Y-73098124D01*
X141190890Y-73507911D02*
X140818356Y-73507911D01*
X140818356Y-73507911D02*
X140818356Y-72725591D01*
X140818356Y-72725591D02*
X141190890Y-72725591D01*
X141973209Y-73507911D02*
X141712436Y-73135378D01*
X141526169Y-73507911D02*
X141526169Y-72725591D01*
X141526169Y-72725591D02*
X141824196Y-72725591D01*
X141824196Y-72725591D02*
X141898703Y-72762844D01*
X141898703Y-72762844D02*
X141935956Y-72800098D01*
X141935956Y-72800098D02*
X141973209Y-72874604D01*
X141973209Y-72874604D02*
X141973209Y-72986364D01*
X141973209Y-72986364D02*
X141935956Y-73060871D01*
X141935956Y-73060871D02*
X141898703Y-73098124D01*
X141898703Y-73098124D02*
X141824196Y-73135378D01*
X141824196Y-73135378D02*
X141526169Y-73135378D01*
X213404784Y-67792911D02*
X213032250Y-67792911D01*
X213032250Y-67792911D02*
X213032250Y-67010591D01*
X213665557Y-67792911D02*
X213665557Y-67271364D01*
X213665557Y-67010591D02*
X213628304Y-67047844D01*
X213628304Y-67047844D02*
X213665557Y-67085098D01*
X213665557Y-67085098D02*
X213702811Y-67047844D01*
X213702811Y-67047844D02*
X213665557Y-67010591D01*
X213665557Y-67010591D02*
X213665557Y-67085098D01*
X214038090Y-67271364D02*
X214038090Y-67792911D01*
X214038090Y-67345871D02*
X214075344Y-67308618D01*
X214075344Y-67308618D02*
X214149850Y-67271364D01*
X214149850Y-67271364D02*
X214261610Y-67271364D01*
X214261610Y-67271364D02*
X214336117Y-67308618D01*
X214336117Y-67308618D02*
X214373370Y-67383124D01*
X214373370Y-67383124D02*
X214373370Y-67792911D01*
X215043930Y-67755658D02*
X214969423Y-67792911D01*
X214969423Y-67792911D02*
X214820410Y-67792911D01*
X214820410Y-67792911D02*
X214745903Y-67755658D01*
X214745903Y-67755658D02*
X214708650Y-67681151D01*
X214708650Y-67681151D02*
X214708650Y-67383124D01*
X214708650Y-67383124D02*
X214745903Y-67308618D01*
X214745903Y-67308618D02*
X214820410Y-67271364D01*
X214820410Y-67271364D02*
X214969423Y-67271364D01*
X214969423Y-67271364D02*
X215043930Y-67308618D01*
X215043930Y-67308618D02*
X215081183Y-67383124D01*
X215081183Y-67383124D02*
X215081183Y-67457631D01*
X215081183Y-67457631D02*
X214708650Y-67532138D01*
X215938010Y-67271364D02*
X216087023Y-67792911D01*
X216087023Y-67792911D02*
X216236036Y-67420378D01*
X216236036Y-67420378D02*
X216385050Y-67792911D01*
X216385050Y-67792911D02*
X216534063Y-67271364D01*
X216832089Y-67792911D02*
X216832089Y-67271364D01*
X216832089Y-67010591D02*
X216794836Y-67047844D01*
X216794836Y-67047844D02*
X216832089Y-67085098D01*
X216832089Y-67085098D02*
X216869343Y-67047844D01*
X216869343Y-67047844D02*
X216832089Y-67010591D01*
X216832089Y-67010591D02*
X216832089Y-67085098D01*
X217539902Y-67792911D02*
X217539902Y-67010591D01*
X217539902Y-67755658D02*
X217465396Y-67792911D01*
X217465396Y-67792911D02*
X217316382Y-67792911D01*
X217316382Y-67792911D02*
X217241876Y-67755658D01*
X217241876Y-67755658D02*
X217204622Y-67718404D01*
X217204622Y-67718404D02*
X217167369Y-67643898D01*
X217167369Y-67643898D02*
X217167369Y-67420378D01*
X217167369Y-67420378D02*
X217204622Y-67345871D01*
X217204622Y-67345871D02*
X217241876Y-67308618D01*
X217241876Y-67308618D02*
X217316382Y-67271364D01*
X217316382Y-67271364D02*
X217465396Y-67271364D01*
X217465396Y-67271364D02*
X217539902Y-67308618D01*
X217800675Y-67271364D02*
X218098702Y-67271364D01*
X217912435Y-67010591D02*
X217912435Y-67681151D01*
X217912435Y-67681151D02*
X217949689Y-67755658D01*
X217949689Y-67755658D02*
X218024195Y-67792911D01*
X218024195Y-67792911D02*
X218098702Y-67792911D01*
X218359475Y-67792911D02*
X218359475Y-67010591D01*
X218694755Y-67792911D02*
X218694755Y-67383124D01*
X218694755Y-67383124D02*
X218657502Y-67308618D01*
X218657502Y-67308618D02*
X218582995Y-67271364D01*
X218582995Y-67271364D02*
X218471235Y-67271364D01*
X218471235Y-67271364D02*
X218396729Y-67308618D01*
X218396729Y-67308618D02*
X218359475Y-67345871D01*
X219626088Y-66973338D02*
X218955528Y-67979178D01*
X219849608Y-67755658D02*
X219961368Y-67792911D01*
X219961368Y-67792911D02*
X220147635Y-67792911D01*
X220147635Y-67792911D02*
X220222141Y-67755658D01*
X220222141Y-67755658D02*
X220259395Y-67718404D01*
X220259395Y-67718404D02*
X220296648Y-67643898D01*
X220296648Y-67643898D02*
X220296648Y-67569391D01*
X220296648Y-67569391D02*
X220259395Y-67494884D01*
X220259395Y-67494884D02*
X220222141Y-67457631D01*
X220222141Y-67457631D02*
X220147635Y-67420378D01*
X220147635Y-67420378D02*
X219998621Y-67383124D01*
X219998621Y-67383124D02*
X219924115Y-67345871D01*
X219924115Y-67345871D02*
X219886861Y-67308618D01*
X219886861Y-67308618D02*
X219849608Y-67234111D01*
X219849608Y-67234111D02*
X219849608Y-67159604D01*
X219849608Y-67159604D02*
X219886861Y-67085098D01*
X219886861Y-67085098D02*
X219924115Y-67047844D01*
X219924115Y-67047844D02*
X219998621Y-67010591D01*
X219998621Y-67010591D02*
X220184888Y-67010591D01*
X220184888Y-67010591D02*
X220296648Y-67047844D01*
X220631928Y-67271364D02*
X220631928Y-68053684D01*
X220631928Y-67308618D02*
X220706435Y-67271364D01*
X220706435Y-67271364D02*
X220855448Y-67271364D01*
X220855448Y-67271364D02*
X220929955Y-67308618D01*
X220929955Y-67308618D02*
X220967208Y-67345871D01*
X220967208Y-67345871D02*
X221004462Y-67420378D01*
X221004462Y-67420378D02*
X221004462Y-67643898D01*
X221004462Y-67643898D02*
X220967208Y-67718404D01*
X220967208Y-67718404D02*
X220929955Y-67755658D01*
X220929955Y-67755658D02*
X220855448Y-67792911D01*
X220855448Y-67792911D02*
X220706435Y-67792911D01*
X220706435Y-67792911D02*
X220631928Y-67755658D01*
X221675021Y-67792911D02*
X221675021Y-67383124D01*
X221675021Y-67383124D02*
X221637768Y-67308618D01*
X221637768Y-67308618D02*
X221563261Y-67271364D01*
X221563261Y-67271364D02*
X221414248Y-67271364D01*
X221414248Y-67271364D02*
X221339741Y-67308618D01*
X221675021Y-67755658D02*
X221600515Y-67792911D01*
X221600515Y-67792911D02*
X221414248Y-67792911D01*
X221414248Y-67792911D02*
X221339741Y-67755658D01*
X221339741Y-67755658D02*
X221302488Y-67681151D01*
X221302488Y-67681151D02*
X221302488Y-67606644D01*
X221302488Y-67606644D02*
X221339741Y-67532138D01*
X221339741Y-67532138D02*
X221414248Y-67494884D01*
X221414248Y-67494884D02*
X221600515Y-67494884D01*
X221600515Y-67494884D02*
X221675021Y-67457631D01*
X222382834Y-67755658D02*
X222308328Y-67792911D01*
X222308328Y-67792911D02*
X222159314Y-67792911D01*
X222159314Y-67792911D02*
X222084808Y-67755658D01*
X222084808Y-67755658D02*
X222047554Y-67718404D01*
X222047554Y-67718404D02*
X222010301Y-67643898D01*
X222010301Y-67643898D02*
X222010301Y-67420378D01*
X222010301Y-67420378D02*
X222047554Y-67345871D01*
X222047554Y-67345871D02*
X222084808Y-67308618D01*
X222084808Y-67308618D02*
X222159314Y-67271364D01*
X222159314Y-67271364D02*
X222308328Y-67271364D01*
X222308328Y-67271364D02*
X222382834Y-67308618D01*
X223016141Y-67755658D02*
X222941634Y-67792911D01*
X222941634Y-67792911D02*
X222792621Y-67792911D01*
X222792621Y-67792911D02*
X222718114Y-67755658D01*
X222718114Y-67755658D02*
X222680861Y-67681151D01*
X222680861Y-67681151D02*
X222680861Y-67383124D01*
X222680861Y-67383124D02*
X222718114Y-67308618D01*
X222718114Y-67308618D02*
X222792621Y-67271364D01*
X222792621Y-67271364D02*
X222941634Y-67271364D01*
X222941634Y-67271364D02*
X223016141Y-67308618D01*
X223016141Y-67308618D02*
X223053394Y-67383124D01*
X223053394Y-67383124D02*
X223053394Y-67457631D01*
X223053394Y-67457631D02*
X222680861Y-67532138D01*
X223612194Y-68090938D02*
X223574941Y-68053684D01*
X223574941Y-68053684D02*
X223500434Y-67941924D01*
X223500434Y-67941924D02*
X223463181Y-67867418D01*
X223463181Y-67867418D02*
X223425928Y-67755658D01*
X223425928Y-67755658D02*
X223388674Y-67569391D01*
X223388674Y-67569391D02*
X223388674Y-67420378D01*
X223388674Y-67420378D02*
X223425928Y-67234111D01*
X223425928Y-67234111D02*
X223463181Y-67122351D01*
X223463181Y-67122351D02*
X223500434Y-67047844D01*
X223500434Y-67047844D02*
X223574941Y-66936084D01*
X223574941Y-66936084D02*
X223612194Y-66898831D01*
X223910221Y-67792911D02*
X223910221Y-67271364D01*
X223910221Y-67345871D02*
X223947475Y-67308618D01*
X223947475Y-67308618D02*
X224021981Y-67271364D01*
X224021981Y-67271364D02*
X224133741Y-67271364D01*
X224133741Y-67271364D02*
X224208248Y-67308618D01*
X224208248Y-67308618D02*
X224245501Y-67383124D01*
X224245501Y-67383124D02*
X224245501Y-67792911D01*
X224245501Y-67383124D02*
X224282755Y-67308618D01*
X224282755Y-67308618D02*
X224357261Y-67271364D01*
X224357261Y-67271364D02*
X224469021Y-67271364D01*
X224469021Y-67271364D02*
X224543528Y-67308618D01*
X224543528Y-67308618D02*
X224580781Y-67383124D01*
X224580781Y-67383124D02*
X224580781Y-67792911D01*
X224953314Y-67792911D02*
X224953314Y-67271364D01*
X224953314Y-67010591D02*
X224916061Y-67047844D01*
X224916061Y-67047844D02*
X224953314Y-67085098D01*
X224953314Y-67085098D02*
X224990568Y-67047844D01*
X224990568Y-67047844D02*
X224953314Y-67010591D01*
X224953314Y-67010591D02*
X224953314Y-67085098D01*
X225437607Y-67792911D02*
X225363101Y-67755658D01*
X225363101Y-67755658D02*
X225325847Y-67681151D01*
X225325847Y-67681151D02*
X225325847Y-67010591D01*
X225661128Y-68090938D02*
X225698381Y-68053684D01*
X225698381Y-68053684D02*
X225772888Y-67941924D01*
X225772888Y-67941924D02*
X225810141Y-67867418D01*
X225810141Y-67867418D02*
X225847394Y-67755658D01*
X225847394Y-67755658D02*
X225884648Y-67569391D01*
X225884648Y-67569391D02*
X225884648Y-67420378D01*
X225884648Y-67420378D02*
X225847394Y-67234111D01*
X225847394Y-67234111D02*
X225810141Y-67122351D01*
X225810141Y-67122351D02*
X225772888Y-67047844D01*
X225772888Y-67047844D02*
X225698381Y-66936084D01*
X225698381Y-66936084D02*
X225661128Y-66898831D01*
X216767744Y-68915591D02*
X216954010Y-69697911D01*
X216954010Y-69697911D02*
X217103024Y-69139111D01*
X217103024Y-69139111D02*
X217252037Y-69697911D01*
X217252037Y-69697911D02*
X217438304Y-68915591D01*
X217736330Y-69623404D02*
X217773584Y-69660658D01*
X217773584Y-69660658D02*
X217736330Y-69697911D01*
X217736330Y-69697911D02*
X217699077Y-69660658D01*
X217699077Y-69660658D02*
X217736330Y-69623404D01*
X217736330Y-69623404D02*
X217736330Y-69697911D01*
X217736330Y-69213618D02*
X217773584Y-69250871D01*
X217773584Y-69250871D02*
X217736330Y-69288124D01*
X217736330Y-69288124D02*
X217699077Y-69250871D01*
X217699077Y-69250871D02*
X217736330Y-69213618D01*
X217736330Y-69213618D02*
X217736330Y-69288124D01*
X218481397Y-68915591D02*
X218108863Y-68915591D01*
X218108863Y-68915591D02*
X218071610Y-69288124D01*
X218071610Y-69288124D02*
X218108863Y-69250871D01*
X218108863Y-69250871D02*
X218183370Y-69213618D01*
X218183370Y-69213618D02*
X218369637Y-69213618D01*
X218369637Y-69213618D02*
X218444143Y-69250871D01*
X218444143Y-69250871D02*
X218481397Y-69288124D01*
X218481397Y-69288124D02*
X218518650Y-69362631D01*
X218518650Y-69362631D02*
X218518650Y-69548898D01*
X218518650Y-69548898D02*
X218481397Y-69623404D01*
X218481397Y-69623404D02*
X218444143Y-69660658D01*
X218444143Y-69660658D02*
X218369637Y-69697911D01*
X218369637Y-69697911D02*
X218183370Y-69697911D01*
X218183370Y-69697911D02*
X218108863Y-69660658D01*
X218108863Y-69660658D02*
X218071610Y-69623404D01*
X218853930Y-69623404D02*
X218891184Y-69660658D01*
X218891184Y-69660658D02*
X218853930Y-69697911D01*
X218853930Y-69697911D02*
X218816677Y-69660658D01*
X218816677Y-69660658D02*
X218853930Y-69623404D01*
X218853930Y-69623404D02*
X218853930Y-69697911D01*
X219598997Y-68915591D02*
X219226463Y-68915591D01*
X219226463Y-68915591D02*
X219189210Y-69288124D01*
X219189210Y-69288124D02*
X219226463Y-69250871D01*
X219226463Y-69250871D02*
X219300970Y-69213618D01*
X219300970Y-69213618D02*
X219487237Y-69213618D01*
X219487237Y-69213618D02*
X219561743Y-69250871D01*
X219561743Y-69250871D02*
X219598997Y-69288124D01*
X219598997Y-69288124D02*
X219636250Y-69362631D01*
X219636250Y-69362631D02*
X219636250Y-69548898D01*
X219636250Y-69548898D02*
X219598997Y-69623404D01*
X219598997Y-69623404D02*
X219561743Y-69660658D01*
X219561743Y-69660658D02*
X219487237Y-69697911D01*
X219487237Y-69697911D02*
X219300970Y-69697911D01*
X219300970Y-69697911D02*
X219226463Y-69660658D01*
X219226463Y-69660658D02*
X219189210Y-69623404D01*
X220008784Y-69697911D02*
X220157797Y-69697911D01*
X220157797Y-69697911D02*
X220232304Y-69660658D01*
X220232304Y-69660658D02*
X220269557Y-69623404D01*
X220269557Y-69623404D02*
X220344064Y-69511644D01*
X220344064Y-69511644D02*
X220381317Y-69362631D01*
X220381317Y-69362631D02*
X220381317Y-69064604D01*
X220381317Y-69064604D02*
X220344064Y-68990098D01*
X220344064Y-68990098D02*
X220306810Y-68952844D01*
X220306810Y-68952844D02*
X220232304Y-68915591D01*
X220232304Y-68915591D02*
X220083290Y-68915591D01*
X220083290Y-68915591D02*
X220008784Y-68952844D01*
X220008784Y-68952844D02*
X219971530Y-68990098D01*
X219971530Y-68990098D02*
X219934277Y-69064604D01*
X219934277Y-69064604D02*
X219934277Y-69250871D01*
X219934277Y-69250871D02*
X219971530Y-69325378D01*
X219971530Y-69325378D02*
X220008784Y-69362631D01*
X220008784Y-69362631D02*
X220083290Y-69399884D01*
X220083290Y-69399884D02*
X220232304Y-69399884D01*
X220232304Y-69399884D02*
X220306810Y-69362631D01*
X220306810Y-69362631D02*
X220344064Y-69325378D01*
X220344064Y-69325378D02*
X220381317Y-69250871D01*
X221275397Y-68878338D02*
X220604837Y-69884178D01*
X221498917Y-69660658D02*
X221610677Y-69697911D01*
X221610677Y-69697911D02*
X221796944Y-69697911D01*
X221796944Y-69697911D02*
X221871450Y-69660658D01*
X221871450Y-69660658D02*
X221908704Y-69623404D01*
X221908704Y-69623404D02*
X221945957Y-69548898D01*
X221945957Y-69548898D02*
X221945957Y-69474391D01*
X221945957Y-69474391D02*
X221908704Y-69399884D01*
X221908704Y-69399884D02*
X221871450Y-69362631D01*
X221871450Y-69362631D02*
X221796944Y-69325378D01*
X221796944Y-69325378D02*
X221647930Y-69288124D01*
X221647930Y-69288124D02*
X221573424Y-69250871D01*
X221573424Y-69250871D02*
X221536170Y-69213618D01*
X221536170Y-69213618D02*
X221498917Y-69139111D01*
X221498917Y-69139111D02*
X221498917Y-69064604D01*
X221498917Y-69064604D02*
X221536170Y-68990098D01*
X221536170Y-68990098D02*
X221573424Y-68952844D01*
X221573424Y-68952844D02*
X221647930Y-68915591D01*
X221647930Y-68915591D02*
X221834197Y-68915591D01*
X221834197Y-68915591D02*
X221945957Y-68952844D01*
X222281237Y-69623404D02*
X222318491Y-69660658D01*
X222318491Y-69660658D02*
X222281237Y-69697911D01*
X222281237Y-69697911D02*
X222243984Y-69660658D01*
X222243984Y-69660658D02*
X222281237Y-69623404D01*
X222281237Y-69623404D02*
X222281237Y-69697911D01*
X222281237Y-69213618D02*
X222318491Y-69250871D01*
X222318491Y-69250871D02*
X222281237Y-69288124D01*
X222281237Y-69288124D02*
X222243984Y-69250871D01*
X222243984Y-69250871D02*
X222281237Y-69213618D01*
X222281237Y-69213618D02*
X222281237Y-69288124D01*
X222989050Y-68915591D02*
X222840037Y-68915591D01*
X222840037Y-68915591D02*
X222765530Y-68952844D01*
X222765530Y-68952844D02*
X222728277Y-68990098D01*
X222728277Y-68990098D02*
X222653770Y-69101858D01*
X222653770Y-69101858D02*
X222616517Y-69250871D01*
X222616517Y-69250871D02*
X222616517Y-69548898D01*
X222616517Y-69548898D02*
X222653770Y-69623404D01*
X222653770Y-69623404D02*
X222691024Y-69660658D01*
X222691024Y-69660658D02*
X222765530Y-69697911D01*
X222765530Y-69697911D02*
X222914544Y-69697911D01*
X222914544Y-69697911D02*
X222989050Y-69660658D01*
X222989050Y-69660658D02*
X223026304Y-69623404D01*
X223026304Y-69623404D02*
X223063557Y-69548898D01*
X223063557Y-69548898D02*
X223063557Y-69362631D01*
X223063557Y-69362631D02*
X223026304Y-69288124D01*
X223026304Y-69288124D02*
X222989050Y-69250871D01*
X222989050Y-69250871D02*
X222914544Y-69213618D01*
X222914544Y-69213618D02*
X222765530Y-69213618D01*
X222765530Y-69213618D02*
X222691024Y-69250871D01*
X222691024Y-69250871D02*
X222653770Y-69288124D01*
X222653770Y-69288124D02*
X222616517Y-69362631D01*
D14*
X165042897Y-61127804D02*
X163978516Y-61127804D01*
X163978516Y-61127804D02*
X163978516Y-58892604D01*
X165681526Y-60489175D02*
X166745907Y-60489175D01*
X165468650Y-61127804D02*
X166213716Y-58892604D01*
X166213716Y-58892604D02*
X166958783Y-61127804D01*
X168129602Y-60063423D02*
X168129602Y-61127804D01*
X167384536Y-58892604D02*
X168129602Y-60063423D01*
X168129602Y-60063423D02*
X168874669Y-58892604D01*
X169619736Y-59956985D02*
X170364803Y-59956985D01*
X170684117Y-61127804D02*
X169619736Y-61127804D01*
X169619736Y-61127804D02*
X169619736Y-58892604D01*
X169619736Y-58892604D02*
X170684117Y-58892604D01*
X172919317Y-61127804D02*
X172174250Y-60063423D01*
X171642060Y-61127804D02*
X171642060Y-58892604D01*
X171642060Y-58892604D02*
X172493565Y-58892604D01*
X172493565Y-58892604D02*
X172706441Y-58999042D01*
X172706441Y-58999042D02*
X172812879Y-59105480D01*
X172812879Y-59105480D02*
X172919317Y-59318356D01*
X172919317Y-59318356D02*
X172919317Y-59637670D01*
X172919317Y-59637670D02*
X172812879Y-59850546D01*
X172812879Y-59850546D02*
X172706441Y-59956985D01*
X172706441Y-59956985D02*
X172493565Y-60063423D01*
X172493565Y-60063423D02*
X171642060Y-60063423D01*
X173770822Y-61021366D02*
X174090136Y-61127804D01*
X174090136Y-61127804D02*
X174622327Y-61127804D01*
X174622327Y-61127804D02*
X174835203Y-61021366D01*
X174835203Y-61021366D02*
X174941641Y-60914927D01*
X174941641Y-60914927D02*
X175048079Y-60702051D01*
X175048079Y-60702051D02*
X175048079Y-60489175D01*
X175048079Y-60489175D02*
X174941641Y-60276299D01*
X174941641Y-60276299D02*
X174835203Y-60169861D01*
X174835203Y-60169861D02*
X174622327Y-60063423D01*
X174622327Y-60063423D02*
X174196574Y-59956985D01*
X174196574Y-59956985D02*
X173983698Y-59850546D01*
X173983698Y-59850546D02*
X173877260Y-59744108D01*
X173877260Y-59744108D02*
X173770822Y-59531232D01*
X173770822Y-59531232D02*
X173770822Y-59318356D01*
X173770822Y-59318356D02*
X173877260Y-59105480D01*
X173877260Y-59105480D02*
X173983698Y-58999042D01*
X173983698Y-58999042D02*
X174196574Y-58892604D01*
X174196574Y-58892604D02*
X174728765Y-58892604D01*
X174728765Y-58892604D02*
X175048079Y-58999042D01*
X178773413Y-61127804D02*
X177709032Y-61127804D01*
X177709032Y-61127804D02*
X177709032Y-58892604D01*
X179412042Y-60489175D02*
X180476423Y-60489175D01*
X179199166Y-61127804D02*
X179944232Y-58892604D01*
X179944232Y-58892604D02*
X180689299Y-61127804D01*
X181434366Y-61127804D02*
X181434366Y-58892604D01*
X181434366Y-58892604D02*
X182179433Y-60489175D01*
X182179433Y-60489175D02*
X182924499Y-58892604D01*
X182924499Y-58892604D02*
X182924499Y-61127804D01*
X183988880Y-61127804D02*
X183988880Y-58892604D01*
X185053261Y-61127804D02*
X185053261Y-58892604D01*
X185053261Y-58892604D02*
X186330518Y-61127804D01*
X186330518Y-61127804D02*
X186330518Y-58892604D01*
X187288461Y-60489175D02*
X188352842Y-60489175D01*
X187075585Y-61127804D02*
X187820651Y-58892604D01*
X187820651Y-58892604D02*
X188565718Y-61127804D01*
X188991471Y-58892604D02*
X190268728Y-58892604D01*
X189630099Y-61127804D02*
X189630099Y-58892604D01*
X191013795Y-61127804D02*
X191013795Y-58892604D01*
X192503928Y-58892604D02*
X192929681Y-58892604D01*
X192929681Y-58892604D02*
X193142557Y-58999042D01*
X193142557Y-58999042D02*
X193355433Y-59211918D01*
X193355433Y-59211918D02*
X193461871Y-59637670D01*
X193461871Y-59637670D02*
X193461871Y-60382737D01*
X193461871Y-60382737D02*
X193355433Y-60808489D01*
X193355433Y-60808489D02*
X193142557Y-61021366D01*
X193142557Y-61021366D02*
X192929681Y-61127804D01*
X192929681Y-61127804D02*
X192503928Y-61127804D01*
X192503928Y-61127804D02*
X192291052Y-61021366D01*
X192291052Y-61021366D02*
X192078176Y-60808489D01*
X192078176Y-60808489D02*
X191971738Y-60382737D01*
X191971738Y-60382737D02*
X191971738Y-59637670D01*
X191971738Y-59637670D02*
X192078176Y-59211918D01*
X192078176Y-59211918D02*
X192291052Y-58999042D01*
X192291052Y-58999042D02*
X192503928Y-58892604D01*
X194419814Y-61127804D02*
X194419814Y-58892604D01*
X194419814Y-58892604D02*
X195697071Y-61127804D01*
X195697071Y-61127804D02*
X195697071Y-58892604D01*
X200273910Y-61127804D02*
X200167472Y-61127804D01*
X200167472Y-61127804D02*
X199954595Y-61021366D01*
X199954595Y-61021366D02*
X199635281Y-60702051D01*
X199635281Y-60702051D02*
X199103091Y-60063423D01*
X199103091Y-60063423D02*
X198890214Y-59744108D01*
X198890214Y-59744108D02*
X198783776Y-59424794D01*
X198783776Y-59424794D02*
X198783776Y-59211918D01*
X198783776Y-59211918D02*
X198890214Y-58999042D01*
X198890214Y-58999042D02*
X199103091Y-58892604D01*
X199103091Y-58892604D02*
X199209529Y-58892604D01*
X199209529Y-58892604D02*
X199422405Y-58999042D01*
X199422405Y-58999042D02*
X199528843Y-59211918D01*
X199528843Y-59211918D02*
X199528843Y-59318356D01*
X199528843Y-59318356D02*
X199422405Y-59531232D01*
X199422405Y-59531232D02*
X199315967Y-59637670D01*
X199315967Y-59637670D02*
X198677338Y-60063423D01*
X198677338Y-60063423D02*
X198570900Y-60169861D01*
X198570900Y-60169861D02*
X198464462Y-60382737D01*
X198464462Y-60382737D02*
X198464462Y-60702051D01*
X198464462Y-60702051D02*
X198570900Y-60914927D01*
X198570900Y-60914927D02*
X198677338Y-61021366D01*
X198677338Y-61021366D02*
X198890214Y-61127804D01*
X198890214Y-61127804D02*
X199209529Y-61127804D01*
X199209529Y-61127804D02*
X199422405Y-61021366D01*
X199422405Y-61021366D02*
X199528843Y-60914927D01*
X199528843Y-60914927D02*
X199848157Y-60489175D01*
X199848157Y-60489175D02*
X199954595Y-60169861D01*
X199954595Y-60169861D02*
X199954595Y-59956985D01*
X202934862Y-61127804D02*
X202934862Y-58892604D01*
X203999243Y-61127804D02*
X203999243Y-58892604D01*
X203999243Y-58892604D02*
X204744310Y-60489175D01*
X204744310Y-60489175D02*
X205489376Y-58892604D01*
X205489376Y-58892604D02*
X205489376Y-61127804D01*
X206553757Y-61127804D02*
X206553757Y-58892604D01*
X206553757Y-58892604D02*
X207405262Y-58892604D01*
X207405262Y-58892604D02*
X207618138Y-58999042D01*
X207618138Y-58999042D02*
X207724576Y-59105480D01*
X207724576Y-59105480D02*
X207831014Y-59318356D01*
X207831014Y-59318356D02*
X207831014Y-59637670D01*
X207831014Y-59637670D02*
X207724576Y-59850546D01*
X207724576Y-59850546D02*
X207618138Y-59956985D01*
X207618138Y-59956985D02*
X207405262Y-60063423D01*
X207405262Y-60063423D02*
X206553757Y-60063423D01*
X208788957Y-59956985D02*
X209534024Y-59956985D01*
X209853338Y-61127804D02*
X208788957Y-61127804D01*
X208788957Y-61127804D02*
X208788957Y-58892604D01*
X208788957Y-58892604D02*
X209853338Y-58892604D01*
X210811281Y-61127804D02*
X210811281Y-58892604D01*
X210811281Y-58892604D02*
X211343471Y-58892604D01*
X211343471Y-58892604D02*
X211662786Y-58999042D01*
X211662786Y-58999042D02*
X211875662Y-59211918D01*
X211875662Y-59211918D02*
X211982100Y-59424794D01*
X211982100Y-59424794D02*
X212088538Y-59850546D01*
X212088538Y-59850546D02*
X212088538Y-60169861D01*
X212088538Y-60169861D02*
X211982100Y-60595613D01*
X211982100Y-60595613D02*
X211875662Y-60808489D01*
X211875662Y-60808489D02*
X211662786Y-61021366D01*
X211662786Y-61021366D02*
X211343471Y-61127804D01*
X211343471Y-61127804D02*
X210811281Y-61127804D01*
X212940043Y-60489175D02*
X214004424Y-60489175D01*
X212727167Y-61127804D02*
X213472233Y-58892604D01*
X213472233Y-58892604D02*
X214217300Y-61127804D01*
X214962367Y-61127804D02*
X214962367Y-58892604D01*
X214962367Y-58892604D02*
X216239624Y-61127804D01*
X216239624Y-61127804D02*
X216239624Y-58892604D01*
X218581262Y-60914927D02*
X218474824Y-61021366D01*
X218474824Y-61021366D02*
X218155510Y-61127804D01*
X218155510Y-61127804D02*
X217942634Y-61127804D01*
X217942634Y-61127804D02*
X217623319Y-61021366D01*
X217623319Y-61021366D02*
X217410443Y-60808489D01*
X217410443Y-60808489D02*
X217304005Y-60595613D01*
X217304005Y-60595613D02*
X217197567Y-60169861D01*
X217197567Y-60169861D02*
X217197567Y-59850546D01*
X217197567Y-59850546D02*
X217304005Y-59424794D01*
X217304005Y-59424794D02*
X217410443Y-59211918D01*
X217410443Y-59211918D02*
X217623319Y-58999042D01*
X217623319Y-58999042D02*
X217942634Y-58892604D01*
X217942634Y-58892604D02*
X218155510Y-58892604D01*
X218155510Y-58892604D02*
X218474824Y-58999042D01*
X218474824Y-58999042D02*
X218581262Y-59105480D01*
X219539205Y-59956985D02*
X220284272Y-59956985D01*
X220603586Y-61127804D02*
X219539205Y-61127804D01*
X219539205Y-61127804D02*
X219539205Y-58892604D01*
X219539205Y-58892604D02*
X220603586Y-58892604D01*
X224541796Y-60914927D02*
X224435358Y-61021366D01*
X224435358Y-61021366D02*
X224116044Y-61127804D01*
X224116044Y-61127804D02*
X223903168Y-61127804D01*
X223903168Y-61127804D02*
X223583853Y-61021366D01*
X223583853Y-61021366D02*
X223370977Y-60808489D01*
X223370977Y-60808489D02*
X223264539Y-60595613D01*
X223264539Y-60595613D02*
X223158101Y-60169861D01*
X223158101Y-60169861D02*
X223158101Y-59850546D01*
X223158101Y-59850546D02*
X223264539Y-59424794D01*
X223264539Y-59424794D02*
X223370977Y-59211918D01*
X223370977Y-59211918D02*
X223583853Y-58999042D01*
X223583853Y-58999042D02*
X223903168Y-58892604D01*
X223903168Y-58892604D02*
X224116044Y-58892604D01*
X224116044Y-58892604D02*
X224435358Y-58999042D01*
X224435358Y-58999042D02*
X224541796Y-59105480D01*
X225925491Y-58892604D02*
X226351244Y-58892604D01*
X226351244Y-58892604D02*
X226564120Y-58999042D01*
X226564120Y-58999042D02*
X226776996Y-59211918D01*
X226776996Y-59211918D02*
X226883434Y-59637670D01*
X226883434Y-59637670D02*
X226883434Y-60382737D01*
X226883434Y-60382737D02*
X226776996Y-60808489D01*
X226776996Y-60808489D02*
X226564120Y-61021366D01*
X226564120Y-61021366D02*
X226351244Y-61127804D01*
X226351244Y-61127804D02*
X225925491Y-61127804D01*
X225925491Y-61127804D02*
X225712615Y-61021366D01*
X225712615Y-61021366D02*
X225499739Y-60808489D01*
X225499739Y-60808489D02*
X225393301Y-60382737D01*
X225393301Y-60382737D02*
X225393301Y-59637670D01*
X225393301Y-59637670D02*
X225499739Y-59211918D01*
X225499739Y-59211918D02*
X225712615Y-58999042D01*
X225712615Y-58999042D02*
X225925491Y-58892604D01*
X227841377Y-61127804D02*
X227841377Y-58892604D01*
X227841377Y-58892604D02*
X229118634Y-61127804D01*
X229118634Y-61127804D02*
X229118634Y-58892604D01*
X229863701Y-58892604D02*
X231140958Y-58892604D01*
X230502329Y-61127804D02*
X230502329Y-58892604D01*
X233163282Y-61127804D02*
X232418215Y-60063423D01*
X231886025Y-61127804D02*
X231886025Y-58892604D01*
X231886025Y-58892604D02*
X232737530Y-58892604D01*
X232737530Y-58892604D02*
X232950406Y-58999042D01*
X232950406Y-58999042D02*
X233056844Y-59105480D01*
X233056844Y-59105480D02*
X233163282Y-59318356D01*
X233163282Y-59318356D02*
X233163282Y-59637670D01*
X233163282Y-59637670D02*
X233056844Y-59850546D01*
X233056844Y-59850546D02*
X232950406Y-59956985D01*
X232950406Y-59956985D02*
X232737530Y-60063423D01*
X232737530Y-60063423D02*
X231886025Y-60063423D01*
X234546977Y-58892604D02*
X234972730Y-58892604D01*
X234972730Y-58892604D02*
X235185606Y-58999042D01*
X235185606Y-58999042D02*
X235398482Y-59211918D01*
X235398482Y-59211918D02*
X235504920Y-59637670D01*
X235504920Y-59637670D02*
X235504920Y-60382737D01*
X235504920Y-60382737D02*
X235398482Y-60808489D01*
X235398482Y-60808489D02*
X235185606Y-61021366D01*
X235185606Y-61021366D02*
X234972730Y-61127804D01*
X234972730Y-61127804D02*
X234546977Y-61127804D01*
X234546977Y-61127804D02*
X234334101Y-61021366D01*
X234334101Y-61021366D02*
X234121225Y-60808489D01*
X234121225Y-60808489D02*
X234014787Y-60382737D01*
X234014787Y-60382737D02*
X234014787Y-59637670D01*
X234014787Y-59637670D02*
X234121225Y-59211918D01*
X234121225Y-59211918D02*
X234334101Y-58999042D01*
X234334101Y-58999042D02*
X234546977Y-58892604D01*
X237527244Y-61127804D02*
X236462863Y-61127804D01*
X236462863Y-61127804D02*
X236462863Y-58892604D01*
D12*
X165713744Y-74630591D02*
X166198037Y-74630591D01*
X166198037Y-74630591D02*
X165937264Y-74928618D01*
X165937264Y-74928618D02*
X166049024Y-74928618D01*
X166049024Y-74928618D02*
X166123530Y-74965871D01*
X166123530Y-74965871D02*
X166160784Y-75003124D01*
X166160784Y-75003124D02*
X166198037Y-75077631D01*
X166198037Y-75077631D02*
X166198037Y-75263898D01*
X166198037Y-75263898D02*
X166160784Y-75338404D01*
X166160784Y-75338404D02*
X166123530Y-75375658D01*
X166123530Y-75375658D02*
X166049024Y-75412911D01*
X166049024Y-75412911D02*
X165825504Y-75412911D01*
X165825504Y-75412911D02*
X165750997Y-75375658D01*
X165750997Y-75375658D02*
X165713744Y-75338404D01*
X166868597Y-74891364D02*
X166868597Y-75412911D01*
X166682331Y-74593338D02*
X166496064Y-75152138D01*
X166496064Y-75152138D02*
X166980357Y-75152138D01*
X167278384Y-75338404D02*
X167315638Y-75375658D01*
X167315638Y-75375658D02*
X167278384Y-75412911D01*
X167278384Y-75412911D02*
X167241131Y-75375658D01*
X167241131Y-75375658D02*
X167278384Y-75338404D01*
X167278384Y-75338404D02*
X167278384Y-75412911D01*
X167799931Y-74630591D02*
X167874437Y-74630591D01*
X167874437Y-74630591D02*
X167948944Y-74667844D01*
X167948944Y-74667844D02*
X167986197Y-74705098D01*
X167986197Y-74705098D02*
X168023451Y-74779604D01*
X168023451Y-74779604D02*
X168060704Y-74928618D01*
X168060704Y-74928618D02*
X168060704Y-75114884D01*
X168060704Y-75114884D02*
X168023451Y-75263898D01*
X168023451Y-75263898D02*
X167986197Y-75338404D01*
X167986197Y-75338404D02*
X167948944Y-75375658D01*
X167948944Y-75375658D02*
X167874437Y-75412911D01*
X167874437Y-75412911D02*
X167799931Y-75412911D01*
X167799931Y-75412911D02*
X167725424Y-75375658D01*
X167725424Y-75375658D02*
X167688171Y-75338404D01*
X167688171Y-75338404D02*
X167650917Y-75263898D01*
X167650917Y-75263898D02*
X167613664Y-75114884D01*
X167613664Y-75114884D02*
X167613664Y-74928618D01*
X167613664Y-74928618D02*
X167650917Y-74779604D01*
X167650917Y-74779604D02*
X167688171Y-74705098D01*
X167688171Y-74705098D02*
X167725424Y-74667844D01*
X167725424Y-74667844D02*
X167799931Y-74630591D01*
X168731264Y-74630591D02*
X168582251Y-74630591D01*
X168582251Y-74630591D02*
X168507744Y-74667844D01*
X168507744Y-74667844D02*
X168470491Y-74705098D01*
X168470491Y-74705098D02*
X168395984Y-74816858D01*
X168395984Y-74816858D02*
X168358731Y-74965871D01*
X168358731Y-74965871D02*
X168358731Y-75263898D01*
X168358731Y-75263898D02*
X168395984Y-75338404D01*
X168395984Y-75338404D02*
X168433238Y-75375658D01*
X168433238Y-75375658D02*
X168507744Y-75412911D01*
X168507744Y-75412911D02*
X168656758Y-75412911D01*
X168656758Y-75412911D02*
X168731264Y-75375658D01*
X168731264Y-75375658D02*
X168768518Y-75338404D01*
X168768518Y-75338404D02*
X168805771Y-75263898D01*
X168805771Y-75263898D02*
X168805771Y-75077631D01*
X168805771Y-75077631D02*
X168768518Y-75003124D01*
X168768518Y-75003124D02*
X168731264Y-74965871D01*
X168731264Y-74965871D02*
X168656758Y-74928618D01*
X168656758Y-74928618D02*
X168507744Y-74928618D01*
X168507744Y-74928618D02*
X168433238Y-74965871D01*
X168433238Y-74965871D02*
X168395984Y-75003124D01*
X168395984Y-75003124D02*
X168358731Y-75077631D01*
X169141051Y-75412911D02*
X169141051Y-74891364D01*
X169141051Y-74965871D02*
X169178305Y-74928618D01*
X169178305Y-74928618D02*
X169252811Y-74891364D01*
X169252811Y-74891364D02*
X169364571Y-74891364D01*
X169364571Y-74891364D02*
X169439078Y-74928618D01*
X169439078Y-74928618D02*
X169476331Y-75003124D01*
X169476331Y-75003124D02*
X169476331Y-75412911D01*
X169476331Y-75003124D02*
X169513585Y-74928618D01*
X169513585Y-74928618D02*
X169588091Y-74891364D01*
X169588091Y-74891364D02*
X169699851Y-74891364D01*
X169699851Y-74891364D02*
X169774358Y-74928618D01*
X169774358Y-74928618D02*
X169811611Y-75003124D01*
X169811611Y-75003124D02*
X169811611Y-75412911D01*
X170184144Y-75412911D02*
X170184144Y-74891364D01*
X170184144Y-74630591D02*
X170146891Y-74667844D01*
X170146891Y-74667844D02*
X170184144Y-74705098D01*
X170184144Y-74705098D02*
X170221398Y-74667844D01*
X170221398Y-74667844D02*
X170184144Y-74630591D01*
X170184144Y-74630591D02*
X170184144Y-74705098D01*
X170668437Y-75412911D02*
X170593931Y-75375658D01*
X170593931Y-75375658D02*
X170556677Y-75301151D01*
X170556677Y-75301151D02*
X170556677Y-74630591D01*
X165713744Y-70820591D02*
X166198037Y-70820591D01*
X166198037Y-70820591D02*
X165937264Y-71118618D01*
X165937264Y-71118618D02*
X166049024Y-71118618D01*
X166049024Y-71118618D02*
X166123530Y-71155871D01*
X166123530Y-71155871D02*
X166160784Y-71193124D01*
X166160784Y-71193124D02*
X166198037Y-71267631D01*
X166198037Y-71267631D02*
X166198037Y-71453898D01*
X166198037Y-71453898D02*
X166160784Y-71528404D01*
X166160784Y-71528404D02*
X166123530Y-71565658D01*
X166123530Y-71565658D02*
X166049024Y-71602911D01*
X166049024Y-71602911D02*
X165825504Y-71602911D01*
X165825504Y-71602911D02*
X165750997Y-71565658D01*
X165750997Y-71565658D02*
X165713744Y-71528404D01*
X166533317Y-71528404D02*
X166570571Y-71565658D01*
X166570571Y-71565658D02*
X166533317Y-71602911D01*
X166533317Y-71602911D02*
X166496064Y-71565658D01*
X166496064Y-71565658D02*
X166533317Y-71528404D01*
X166533317Y-71528404D02*
X166533317Y-71602911D01*
X166943104Y-71602911D02*
X167092117Y-71602911D01*
X167092117Y-71602911D02*
X167166624Y-71565658D01*
X167166624Y-71565658D02*
X167203877Y-71528404D01*
X167203877Y-71528404D02*
X167278384Y-71416644D01*
X167278384Y-71416644D02*
X167315637Y-71267631D01*
X167315637Y-71267631D02*
X167315637Y-70969604D01*
X167315637Y-70969604D02*
X167278384Y-70895098D01*
X167278384Y-70895098D02*
X167241130Y-70857844D01*
X167241130Y-70857844D02*
X167166624Y-70820591D01*
X167166624Y-70820591D02*
X167017610Y-70820591D01*
X167017610Y-70820591D02*
X166943104Y-70857844D01*
X166943104Y-70857844D02*
X166905850Y-70895098D01*
X166905850Y-70895098D02*
X166868597Y-70969604D01*
X166868597Y-70969604D02*
X166868597Y-71155871D01*
X166868597Y-71155871D02*
X166905850Y-71230378D01*
X166905850Y-71230378D02*
X166943104Y-71267631D01*
X166943104Y-71267631D02*
X167017610Y-71304884D01*
X167017610Y-71304884D02*
X167166624Y-71304884D01*
X167166624Y-71304884D02*
X167241130Y-71267631D01*
X167241130Y-71267631D02*
X167278384Y-71230378D01*
X167278384Y-71230378D02*
X167315637Y-71155871D01*
X168060704Y-71602911D02*
X167613664Y-71602911D01*
X167837184Y-71602911D02*
X167837184Y-70820591D01*
X167837184Y-70820591D02*
X167762677Y-70932351D01*
X167762677Y-70932351D02*
X167688171Y-71006858D01*
X167688171Y-71006858D02*
X167613664Y-71044111D01*
X168395984Y-71602911D02*
X168395984Y-71081364D01*
X168395984Y-71155871D02*
X168433238Y-71118618D01*
X168433238Y-71118618D02*
X168507744Y-71081364D01*
X168507744Y-71081364D02*
X168619504Y-71081364D01*
X168619504Y-71081364D02*
X168694011Y-71118618D01*
X168694011Y-71118618D02*
X168731264Y-71193124D01*
X168731264Y-71193124D02*
X168731264Y-71602911D01*
X168731264Y-71193124D02*
X168768518Y-71118618D01*
X168768518Y-71118618D02*
X168843024Y-71081364D01*
X168843024Y-71081364D02*
X168954784Y-71081364D01*
X168954784Y-71081364D02*
X169029291Y-71118618D01*
X169029291Y-71118618D02*
X169066544Y-71193124D01*
X169066544Y-71193124D02*
X169066544Y-71602911D01*
X169439077Y-71602911D02*
X169439077Y-71081364D01*
X169439077Y-70820591D02*
X169401824Y-70857844D01*
X169401824Y-70857844D02*
X169439077Y-70895098D01*
X169439077Y-70895098D02*
X169476331Y-70857844D01*
X169476331Y-70857844D02*
X169439077Y-70820591D01*
X169439077Y-70820591D02*
X169439077Y-70895098D01*
X169923370Y-71602911D02*
X169848864Y-71565658D01*
X169848864Y-71565658D02*
X169811610Y-71491151D01*
X169811610Y-71491151D02*
X169811610Y-70820591D01*
X188229997Y-65977658D02*
X188341757Y-66014911D01*
X188341757Y-66014911D02*
X188528024Y-66014911D01*
X188528024Y-66014911D02*
X188602530Y-65977658D01*
X188602530Y-65977658D02*
X188639784Y-65940404D01*
X188639784Y-65940404D02*
X188677037Y-65865898D01*
X188677037Y-65865898D02*
X188677037Y-65791391D01*
X188677037Y-65791391D02*
X188639784Y-65716884D01*
X188639784Y-65716884D02*
X188602530Y-65679631D01*
X188602530Y-65679631D02*
X188528024Y-65642378D01*
X188528024Y-65642378D02*
X188379010Y-65605124D01*
X188379010Y-65605124D02*
X188304504Y-65567871D01*
X188304504Y-65567871D02*
X188267250Y-65530618D01*
X188267250Y-65530618D02*
X188229997Y-65456111D01*
X188229997Y-65456111D02*
X188229997Y-65381604D01*
X188229997Y-65381604D02*
X188267250Y-65307098D01*
X188267250Y-65307098D02*
X188304504Y-65269844D01*
X188304504Y-65269844D02*
X188379010Y-65232591D01*
X188379010Y-65232591D02*
X188565277Y-65232591D01*
X188565277Y-65232591D02*
X188677037Y-65269844D01*
X189012317Y-66014911D02*
X189012317Y-65232591D01*
X189384850Y-66014911D02*
X189384850Y-65232591D01*
X189384850Y-65232591D02*
X189831890Y-66014911D01*
X189831890Y-66014911D02*
X189831890Y-65232591D01*
X190614210Y-65269844D02*
X190539703Y-65232591D01*
X190539703Y-65232591D02*
X190427943Y-65232591D01*
X190427943Y-65232591D02*
X190316183Y-65269844D01*
X190316183Y-65269844D02*
X190241677Y-65344351D01*
X190241677Y-65344351D02*
X190204423Y-65418858D01*
X190204423Y-65418858D02*
X190167170Y-65567871D01*
X190167170Y-65567871D02*
X190167170Y-65679631D01*
X190167170Y-65679631D02*
X190204423Y-65828644D01*
X190204423Y-65828644D02*
X190241677Y-65903151D01*
X190241677Y-65903151D02*
X190316183Y-65977658D01*
X190316183Y-65977658D02*
X190427943Y-66014911D01*
X190427943Y-66014911D02*
X190502450Y-66014911D01*
X190502450Y-66014911D02*
X190614210Y-65977658D01*
X190614210Y-65977658D02*
X190651463Y-65940404D01*
X190651463Y-65940404D02*
X190651463Y-65679631D01*
X190651463Y-65679631D02*
X190502450Y-65679631D01*
X191359277Y-66014911D02*
X190986743Y-66014911D01*
X190986743Y-66014911D02*
X190986743Y-65232591D01*
X191620050Y-65605124D02*
X191880824Y-65605124D01*
X191992584Y-66014911D02*
X191620050Y-66014911D01*
X191620050Y-66014911D02*
X191620050Y-65232591D01*
X191620050Y-65232591D02*
X191992584Y-65232591D01*
X193296450Y-65232591D02*
X192923916Y-65232591D01*
X192923916Y-65232591D02*
X192886663Y-65605124D01*
X192886663Y-65605124D02*
X192923916Y-65567871D01*
X192923916Y-65567871D02*
X192998423Y-65530618D01*
X192998423Y-65530618D02*
X193184690Y-65530618D01*
X193184690Y-65530618D02*
X193259196Y-65567871D01*
X193259196Y-65567871D02*
X193296450Y-65605124D01*
X193296450Y-65605124D02*
X193333703Y-65679631D01*
X193333703Y-65679631D02*
X193333703Y-65865898D01*
X193333703Y-65865898D02*
X193296450Y-65940404D01*
X193296450Y-65940404D02*
X193259196Y-65977658D01*
X193259196Y-65977658D02*
X193184690Y-66014911D01*
X193184690Y-66014911D02*
X192998423Y-66014911D01*
X192998423Y-66014911D02*
X192923916Y-65977658D01*
X192923916Y-65977658D02*
X192886663Y-65940404D01*
X193817997Y-65232591D02*
X193892503Y-65232591D01*
X193892503Y-65232591D02*
X193967010Y-65269844D01*
X193967010Y-65269844D02*
X194004263Y-65307098D01*
X194004263Y-65307098D02*
X194041517Y-65381604D01*
X194041517Y-65381604D02*
X194078770Y-65530618D01*
X194078770Y-65530618D02*
X194078770Y-65716884D01*
X194078770Y-65716884D02*
X194041517Y-65865898D01*
X194041517Y-65865898D02*
X194004263Y-65940404D01*
X194004263Y-65940404D02*
X193967010Y-65977658D01*
X193967010Y-65977658D02*
X193892503Y-66014911D01*
X193892503Y-66014911D02*
X193817997Y-66014911D01*
X193817997Y-66014911D02*
X193743490Y-65977658D01*
X193743490Y-65977658D02*
X193706237Y-65940404D01*
X193706237Y-65940404D02*
X193668983Y-65865898D01*
X193668983Y-65865898D02*
X193631730Y-65716884D01*
X193631730Y-65716884D02*
X193631730Y-65530618D01*
X193631730Y-65530618D02*
X193668983Y-65381604D01*
X193668983Y-65381604D02*
X193706237Y-65307098D01*
X193706237Y-65307098D02*
X193743490Y-65269844D01*
X193743490Y-65269844D02*
X193817997Y-65232591D01*
X194525810Y-66014911D02*
X194451304Y-65977658D01*
X194451304Y-65977658D02*
X194414050Y-65940404D01*
X194414050Y-65940404D02*
X194376797Y-65865898D01*
X194376797Y-65865898D02*
X194376797Y-65642378D01*
X194376797Y-65642378D02*
X194414050Y-65567871D01*
X194414050Y-65567871D02*
X194451304Y-65530618D01*
X194451304Y-65530618D02*
X194525810Y-65493364D01*
X194525810Y-65493364D02*
X194637570Y-65493364D01*
X194637570Y-65493364D02*
X194712077Y-65530618D01*
X194712077Y-65530618D02*
X194749330Y-65567871D01*
X194749330Y-65567871D02*
X194786584Y-65642378D01*
X194786584Y-65642378D02*
X194786584Y-65865898D01*
X194786584Y-65865898D02*
X194749330Y-65940404D01*
X194749330Y-65940404D02*
X194712077Y-65977658D01*
X194712077Y-65977658D02*
X194637570Y-66014911D01*
X194637570Y-66014911D02*
X194525810Y-66014911D01*
X195121863Y-66014911D02*
X195121863Y-65232591D01*
X195457143Y-66014911D02*
X195457143Y-65605124D01*
X195457143Y-65605124D02*
X195419890Y-65530618D01*
X195419890Y-65530618D02*
X195345383Y-65493364D01*
X195345383Y-65493364D02*
X195233623Y-65493364D01*
X195233623Y-65493364D02*
X195159117Y-65530618D01*
X195159117Y-65530618D02*
X195121863Y-65567871D01*
X195829676Y-66014911D02*
X195829676Y-65493364D01*
X195829676Y-65567871D02*
X195866930Y-65530618D01*
X195866930Y-65530618D02*
X195941436Y-65493364D01*
X195941436Y-65493364D02*
X196053196Y-65493364D01*
X196053196Y-65493364D02*
X196127703Y-65530618D01*
X196127703Y-65530618D02*
X196164956Y-65605124D01*
X196164956Y-65605124D02*
X196164956Y-66014911D01*
X196164956Y-65605124D02*
X196202210Y-65530618D01*
X196202210Y-65530618D02*
X196276716Y-65493364D01*
X196276716Y-65493364D02*
X196388476Y-65493364D01*
X196388476Y-65493364D02*
X196462983Y-65530618D01*
X196462983Y-65530618D02*
X196500236Y-65605124D01*
X196500236Y-65605124D02*
X196500236Y-66014911D01*
X196872769Y-65716884D02*
X197468823Y-65716884D01*
X197170796Y-66014911D02*
X197170796Y-65418858D01*
X198400156Y-65195338D02*
X197729596Y-66201178D01*
X198660929Y-65716884D02*
X199256983Y-65716884D01*
X200039303Y-66014911D02*
X199592263Y-66014911D01*
X199815783Y-66014911D02*
X199815783Y-65232591D01*
X199815783Y-65232591D02*
X199741276Y-65344351D01*
X199741276Y-65344351D02*
X199666770Y-65418858D01*
X199666770Y-65418858D02*
X199592263Y-65456111D01*
X200523597Y-65232591D02*
X200598103Y-65232591D01*
X200598103Y-65232591D02*
X200672610Y-65269844D01*
X200672610Y-65269844D02*
X200709863Y-65307098D01*
X200709863Y-65307098D02*
X200747117Y-65381604D01*
X200747117Y-65381604D02*
X200784370Y-65530618D01*
X200784370Y-65530618D02*
X200784370Y-65716884D01*
X200784370Y-65716884D02*
X200747117Y-65865898D01*
X200747117Y-65865898D02*
X200709863Y-65940404D01*
X200709863Y-65940404D02*
X200672610Y-65977658D01*
X200672610Y-65977658D02*
X200598103Y-66014911D01*
X200598103Y-66014911D02*
X200523597Y-66014911D01*
X200523597Y-66014911D02*
X200449090Y-65977658D01*
X200449090Y-65977658D02*
X200411837Y-65940404D01*
X200411837Y-65940404D02*
X200374583Y-65865898D01*
X200374583Y-65865898D02*
X200337330Y-65716884D01*
X200337330Y-65716884D02*
X200337330Y-65530618D01*
X200337330Y-65530618D02*
X200374583Y-65381604D01*
X200374583Y-65381604D02*
X200411837Y-65307098D01*
X200411837Y-65307098D02*
X200449090Y-65269844D01*
X200449090Y-65269844D02*
X200523597Y-65232591D01*
X201082397Y-66014911D02*
X201678450Y-65232591D01*
X201194157Y-65232591D02*
X201268664Y-65269844D01*
X201268664Y-65269844D02*
X201305917Y-65344351D01*
X201305917Y-65344351D02*
X201268664Y-65418858D01*
X201268664Y-65418858D02*
X201194157Y-65456111D01*
X201194157Y-65456111D02*
X201119650Y-65418858D01*
X201119650Y-65418858D02*
X201082397Y-65344351D01*
X201082397Y-65344351D02*
X201119650Y-65269844D01*
X201119650Y-65269844D02*
X201194157Y-65232591D01*
X201641197Y-65977658D02*
X201678450Y-65903151D01*
X201678450Y-65903151D02*
X201641197Y-65828644D01*
X201641197Y-65828644D02*
X201566690Y-65791391D01*
X201566690Y-65791391D02*
X201492184Y-65828644D01*
X201492184Y-65828644D02*
X201454930Y-65903151D01*
X201454930Y-65903151D02*
X201492184Y-65977658D01*
X201492184Y-65977658D02*
X201566690Y-66014911D01*
X201566690Y-66014911D02*
X201641197Y-65977658D01*
X174998290Y-73507911D02*
X174737517Y-73135378D01*
X174551250Y-73507911D02*
X174551250Y-72725591D01*
X174551250Y-72725591D02*
X174849277Y-72725591D01*
X174849277Y-72725591D02*
X174923784Y-72762844D01*
X174923784Y-72762844D02*
X174961037Y-72800098D01*
X174961037Y-72800098D02*
X174998290Y-72874604D01*
X174998290Y-72874604D02*
X174998290Y-72986364D01*
X174998290Y-72986364D02*
X174961037Y-73060871D01*
X174961037Y-73060871D02*
X174923784Y-73098124D01*
X174923784Y-73098124D02*
X174849277Y-73135378D01*
X174849277Y-73135378D02*
X174551250Y-73135378D01*
X175482584Y-72725591D02*
X175631597Y-72725591D01*
X175631597Y-72725591D02*
X175706104Y-72762844D01*
X175706104Y-72762844D02*
X175780610Y-72837351D01*
X175780610Y-72837351D02*
X175817864Y-72986364D01*
X175817864Y-72986364D02*
X175817864Y-73247138D01*
X175817864Y-73247138D02*
X175780610Y-73396151D01*
X175780610Y-73396151D02*
X175706104Y-73470658D01*
X175706104Y-73470658D02*
X175631597Y-73507911D01*
X175631597Y-73507911D02*
X175482584Y-73507911D01*
X175482584Y-73507911D02*
X175408077Y-73470658D01*
X175408077Y-73470658D02*
X175333570Y-73396151D01*
X175333570Y-73396151D02*
X175296317Y-73247138D01*
X175296317Y-73247138D02*
X175296317Y-72986364D01*
X175296317Y-72986364D02*
X175333570Y-72837351D01*
X175333570Y-72837351D02*
X175408077Y-72762844D01*
X175408077Y-72762844D02*
X175482584Y-72725591D01*
X176153143Y-72725591D02*
X176153143Y-73358898D01*
X176153143Y-73358898D02*
X176190397Y-73433404D01*
X176190397Y-73433404D02*
X176227650Y-73470658D01*
X176227650Y-73470658D02*
X176302157Y-73507911D01*
X176302157Y-73507911D02*
X176451170Y-73507911D01*
X176451170Y-73507911D02*
X176525677Y-73470658D01*
X176525677Y-73470658D02*
X176562930Y-73433404D01*
X176562930Y-73433404D02*
X176600183Y-73358898D01*
X176600183Y-73358898D02*
X176600183Y-72725591D01*
X176860956Y-72725591D02*
X177307996Y-72725591D01*
X177084476Y-73507911D02*
X177084476Y-72725591D01*
X177568769Y-73507911D02*
X177568769Y-72725591D01*
X177941302Y-73507911D02*
X177941302Y-72725591D01*
X177941302Y-72725591D02*
X178388342Y-73507911D01*
X178388342Y-73507911D02*
X178388342Y-72725591D01*
X179170662Y-72762844D02*
X179096155Y-72725591D01*
X179096155Y-72725591D02*
X178984395Y-72725591D01*
X178984395Y-72725591D02*
X178872635Y-72762844D01*
X178872635Y-72762844D02*
X178798129Y-72837351D01*
X178798129Y-72837351D02*
X178760875Y-72911858D01*
X178760875Y-72911858D02*
X178723622Y-73060871D01*
X178723622Y-73060871D02*
X178723622Y-73172631D01*
X178723622Y-73172631D02*
X178760875Y-73321644D01*
X178760875Y-73321644D02*
X178798129Y-73396151D01*
X178798129Y-73396151D02*
X178872635Y-73470658D01*
X178872635Y-73470658D02*
X178984395Y-73507911D01*
X178984395Y-73507911D02*
X179058902Y-73507911D01*
X179058902Y-73507911D02*
X179170662Y-73470658D01*
X179170662Y-73470658D02*
X179207915Y-73433404D01*
X179207915Y-73433404D02*
X179207915Y-73172631D01*
X179207915Y-73172631D02*
X179058902Y-73172631D01*
X244401944Y-68916391D02*
X244588210Y-69698711D01*
X244588210Y-69698711D02*
X244737224Y-69139911D01*
X244737224Y-69139911D02*
X244886237Y-69698711D01*
X244886237Y-69698711D02*
X245072504Y-68916391D01*
X245370530Y-69624204D02*
X245407784Y-69661458D01*
X245407784Y-69661458D02*
X245370530Y-69698711D01*
X245370530Y-69698711D02*
X245333277Y-69661458D01*
X245333277Y-69661458D02*
X245370530Y-69624204D01*
X245370530Y-69624204D02*
X245370530Y-69698711D01*
X245370530Y-69214418D02*
X245407784Y-69251671D01*
X245407784Y-69251671D02*
X245370530Y-69288924D01*
X245370530Y-69288924D02*
X245333277Y-69251671D01*
X245333277Y-69251671D02*
X245370530Y-69214418D01*
X245370530Y-69214418D02*
X245370530Y-69288924D01*
X246152850Y-69698711D02*
X245705810Y-69698711D01*
X245929330Y-69698711D02*
X245929330Y-68916391D01*
X245929330Y-68916391D02*
X245854823Y-69028151D01*
X245854823Y-69028151D02*
X245780317Y-69102658D01*
X245780317Y-69102658D02*
X245705810Y-69139911D01*
X246897917Y-69698711D02*
X246450877Y-69698711D01*
X246674397Y-69698711D02*
X246674397Y-68916391D01*
X246674397Y-68916391D02*
X246599890Y-69028151D01*
X246599890Y-69028151D02*
X246525384Y-69102658D01*
X246525384Y-69102658D02*
X246450877Y-69139911D01*
X247233197Y-69624204D02*
X247270451Y-69661458D01*
X247270451Y-69661458D02*
X247233197Y-69698711D01*
X247233197Y-69698711D02*
X247195944Y-69661458D01*
X247195944Y-69661458D02*
X247233197Y-69624204D01*
X247233197Y-69624204D02*
X247233197Y-69698711D01*
X247642984Y-69698711D02*
X247791997Y-69698711D01*
X247791997Y-69698711D02*
X247866504Y-69661458D01*
X247866504Y-69661458D02*
X247903757Y-69624204D01*
X247903757Y-69624204D02*
X247978264Y-69512444D01*
X247978264Y-69512444D02*
X248015517Y-69363431D01*
X248015517Y-69363431D02*
X248015517Y-69065404D01*
X248015517Y-69065404D02*
X247978264Y-68990898D01*
X247978264Y-68990898D02*
X247941010Y-68953644D01*
X247941010Y-68953644D02*
X247866504Y-68916391D01*
X247866504Y-68916391D02*
X247717490Y-68916391D01*
X247717490Y-68916391D02*
X247642984Y-68953644D01*
X247642984Y-68953644D02*
X247605730Y-68990898D01*
X247605730Y-68990898D02*
X247568477Y-69065404D01*
X247568477Y-69065404D02*
X247568477Y-69251671D01*
X247568477Y-69251671D02*
X247605730Y-69326178D01*
X247605730Y-69326178D02*
X247642984Y-69363431D01*
X247642984Y-69363431D02*
X247717490Y-69400684D01*
X247717490Y-69400684D02*
X247866504Y-69400684D01*
X247866504Y-69400684D02*
X247941010Y-69363431D01*
X247941010Y-69363431D02*
X247978264Y-69326178D01*
X247978264Y-69326178D02*
X248015517Y-69251671D01*
X248946850Y-69698711D02*
X248946850Y-69177164D01*
X248946850Y-69326178D02*
X248984104Y-69251671D01*
X248984104Y-69251671D02*
X249021357Y-69214418D01*
X249021357Y-69214418D02*
X249095864Y-69177164D01*
X249095864Y-69177164D02*
X249170370Y-69177164D01*
X249729170Y-69661458D02*
X249654663Y-69698711D01*
X249654663Y-69698711D02*
X249505650Y-69698711D01*
X249505650Y-69698711D02*
X249431143Y-69661458D01*
X249431143Y-69661458D02*
X249393890Y-69586951D01*
X249393890Y-69586951D02*
X249393890Y-69288924D01*
X249393890Y-69288924D02*
X249431143Y-69214418D01*
X249431143Y-69214418D02*
X249505650Y-69177164D01*
X249505650Y-69177164D02*
X249654663Y-69177164D01*
X249654663Y-69177164D02*
X249729170Y-69214418D01*
X249729170Y-69214418D02*
X249766423Y-69288924D01*
X249766423Y-69288924D02*
X249766423Y-69363431D01*
X249766423Y-69363431D02*
X249393890Y-69437938D01*
X249989943Y-69177164D02*
X250287970Y-69177164D01*
X250101703Y-69698711D02*
X250101703Y-69028151D01*
X250101703Y-69028151D02*
X250138957Y-68953644D01*
X250138957Y-68953644D02*
X250213463Y-68916391D01*
X250213463Y-68916391D02*
X250287970Y-68916391D01*
X250548743Y-69624204D02*
X250585997Y-69661458D01*
X250585997Y-69661458D02*
X250548743Y-69698711D01*
X250548743Y-69698711D02*
X250511490Y-69661458D01*
X250511490Y-69661458D02*
X250548743Y-69624204D01*
X250548743Y-69624204D02*
X250548743Y-69698711D01*
X250548743Y-69214418D02*
X250585997Y-69251671D01*
X250585997Y-69251671D02*
X250548743Y-69288924D01*
X250548743Y-69288924D02*
X250511490Y-69251671D01*
X250511490Y-69251671D02*
X250548743Y-69214418D01*
X250548743Y-69214418D02*
X250548743Y-69288924D01*
X251293810Y-69698711D02*
X250921276Y-69698711D01*
X250921276Y-69698711D02*
X250921276Y-68916391D01*
X251480077Y-68916391D02*
X251964370Y-68916391D01*
X251964370Y-68916391D02*
X251703597Y-69214418D01*
X251703597Y-69214418D02*
X251815357Y-69214418D01*
X251815357Y-69214418D02*
X251889863Y-69251671D01*
X251889863Y-69251671D02*
X251927117Y-69288924D01*
X251927117Y-69288924D02*
X251964370Y-69363431D01*
X251964370Y-69363431D02*
X251964370Y-69549698D01*
X251964370Y-69549698D02*
X251927117Y-69624204D01*
X251927117Y-69624204D02*
X251889863Y-69661458D01*
X251889863Y-69661458D02*
X251815357Y-69698711D01*
X251815357Y-69698711D02*
X251591837Y-69698711D01*
X251591837Y-69698711D02*
X251517330Y-69661458D01*
X251517330Y-69661458D02*
X251480077Y-69624204D01*
X138356250Y-79222911D02*
X138356250Y-78440591D01*
X138356250Y-78440591D02*
X138654277Y-78440591D01*
X138654277Y-78440591D02*
X138728784Y-78477844D01*
X138728784Y-78477844D02*
X138766037Y-78515098D01*
X138766037Y-78515098D02*
X138803290Y-78589604D01*
X138803290Y-78589604D02*
X138803290Y-78701364D01*
X138803290Y-78701364D02*
X138766037Y-78775871D01*
X138766037Y-78775871D02*
X138728784Y-78813124D01*
X138728784Y-78813124D02*
X138654277Y-78850378D01*
X138654277Y-78850378D02*
X138356250Y-78850378D01*
X139138570Y-79222911D02*
X139138570Y-78440591D01*
X139138570Y-78440591D02*
X139436597Y-78440591D01*
X139436597Y-78440591D02*
X139511104Y-78477844D01*
X139511104Y-78477844D02*
X139548357Y-78515098D01*
X139548357Y-78515098D02*
X139585610Y-78589604D01*
X139585610Y-78589604D02*
X139585610Y-78701364D01*
X139585610Y-78701364D02*
X139548357Y-78775871D01*
X139548357Y-78775871D02*
X139511104Y-78813124D01*
X139511104Y-78813124D02*
X139436597Y-78850378D01*
X139436597Y-78850378D02*
X139138570Y-78850378D01*
X165937264Y-76535591D02*
X166011770Y-76535591D01*
X166011770Y-76535591D02*
X166086277Y-76572844D01*
X166086277Y-76572844D02*
X166123530Y-76610098D01*
X166123530Y-76610098D02*
X166160784Y-76684604D01*
X166160784Y-76684604D02*
X166198037Y-76833618D01*
X166198037Y-76833618D02*
X166198037Y-77019884D01*
X166198037Y-77019884D02*
X166160784Y-77168898D01*
X166160784Y-77168898D02*
X166123530Y-77243404D01*
X166123530Y-77243404D02*
X166086277Y-77280658D01*
X166086277Y-77280658D02*
X166011770Y-77317911D01*
X166011770Y-77317911D02*
X165937264Y-77317911D01*
X165937264Y-77317911D02*
X165862757Y-77280658D01*
X165862757Y-77280658D02*
X165825504Y-77243404D01*
X165825504Y-77243404D02*
X165788250Y-77168898D01*
X165788250Y-77168898D02*
X165750997Y-77019884D01*
X165750997Y-77019884D02*
X165750997Y-76833618D01*
X165750997Y-76833618D02*
X165788250Y-76684604D01*
X165788250Y-76684604D02*
X165825504Y-76610098D01*
X165825504Y-76610098D02*
X165862757Y-76572844D01*
X165862757Y-76572844D02*
X165937264Y-76535591D01*
X166533317Y-77243404D02*
X166570571Y-77280658D01*
X166570571Y-77280658D02*
X166533317Y-77317911D01*
X166533317Y-77317911D02*
X166496064Y-77280658D01*
X166496064Y-77280658D02*
X166533317Y-77243404D01*
X166533317Y-77243404D02*
X166533317Y-77317911D01*
X167278384Y-76535591D02*
X166905850Y-76535591D01*
X166905850Y-76535591D02*
X166868597Y-76908124D01*
X166868597Y-76908124D02*
X166905850Y-76870871D01*
X166905850Y-76870871D02*
X166980357Y-76833618D01*
X166980357Y-76833618D02*
X167166624Y-76833618D01*
X167166624Y-76833618D02*
X167241130Y-76870871D01*
X167241130Y-76870871D02*
X167278384Y-76908124D01*
X167278384Y-76908124D02*
X167315637Y-76982631D01*
X167315637Y-76982631D02*
X167315637Y-77168898D01*
X167315637Y-77168898D02*
X167278384Y-77243404D01*
X167278384Y-77243404D02*
X167241130Y-77280658D01*
X167241130Y-77280658D02*
X167166624Y-77317911D01*
X167166624Y-77317911D02*
X166980357Y-77317911D01*
X166980357Y-77317911D02*
X166905850Y-77280658D01*
X166905850Y-77280658D02*
X166868597Y-77243404D01*
X168395984Y-76535591D02*
X168544997Y-76535591D01*
X168544997Y-76535591D02*
X168619504Y-76572844D01*
X168619504Y-76572844D02*
X168694010Y-76647351D01*
X168694010Y-76647351D02*
X168731264Y-76796364D01*
X168731264Y-76796364D02*
X168731264Y-77057138D01*
X168731264Y-77057138D02*
X168694010Y-77206151D01*
X168694010Y-77206151D02*
X168619504Y-77280658D01*
X168619504Y-77280658D02*
X168544997Y-77317911D01*
X168544997Y-77317911D02*
X168395984Y-77317911D01*
X168395984Y-77317911D02*
X168321477Y-77280658D01*
X168321477Y-77280658D02*
X168246970Y-77206151D01*
X168246970Y-77206151D02*
X168209717Y-77057138D01*
X168209717Y-77057138D02*
X168209717Y-76796364D01*
X168209717Y-76796364D02*
X168246970Y-76647351D01*
X168246970Y-76647351D02*
X168321477Y-76572844D01*
X168321477Y-76572844D02*
X168395984Y-76535591D01*
X168992037Y-76535591D02*
X169513583Y-76535591D01*
X169513583Y-76535591D02*
X168992037Y-77317911D01*
X168992037Y-77317911D02*
X169513583Y-77317911D01*
X157533250Y-66014911D02*
X157533250Y-65232591D01*
X157533250Y-65232591D02*
X157794024Y-65791391D01*
X157794024Y-65791391D02*
X158054797Y-65232591D01*
X158054797Y-65232591D02*
X158054797Y-66014911D01*
X158390077Y-65791391D02*
X158762610Y-65791391D01*
X158315570Y-66014911D02*
X158576344Y-65232591D01*
X158576344Y-65232591D02*
X158837117Y-66014911D01*
X158986130Y-65232591D02*
X159433170Y-65232591D01*
X159209650Y-66014911D02*
X159209650Y-65232591D01*
X159693943Y-65605124D02*
X159954717Y-65605124D01*
X160066477Y-66014911D02*
X159693943Y-66014911D01*
X159693943Y-66014911D02*
X159693943Y-65232591D01*
X159693943Y-65232591D02*
X160066477Y-65232591D01*
X160848796Y-66014911D02*
X160588023Y-65642378D01*
X160401756Y-66014911D02*
X160401756Y-65232591D01*
X160401756Y-65232591D02*
X160699783Y-65232591D01*
X160699783Y-65232591D02*
X160774290Y-65269844D01*
X160774290Y-65269844D02*
X160811543Y-65307098D01*
X160811543Y-65307098D02*
X160848796Y-65381604D01*
X160848796Y-65381604D02*
X160848796Y-65493364D01*
X160848796Y-65493364D02*
X160811543Y-65567871D01*
X160811543Y-65567871D02*
X160774290Y-65605124D01*
X160774290Y-65605124D02*
X160699783Y-65642378D01*
X160699783Y-65642378D02*
X160401756Y-65642378D01*
X161184076Y-66014911D02*
X161184076Y-65232591D01*
X161519356Y-65791391D02*
X161891889Y-65791391D01*
X161444849Y-66014911D02*
X161705623Y-65232591D01*
X161705623Y-65232591D02*
X161966396Y-66014911D01*
X162599703Y-66014911D02*
X162227169Y-66014911D01*
X162227169Y-66014911D02*
X162227169Y-65232591D01*
X239439784Y-67792911D02*
X239067250Y-67792911D01*
X239067250Y-67792911D02*
X239067250Y-67010591D01*
X239700557Y-67792911D02*
X239700557Y-67271364D01*
X239700557Y-67010591D02*
X239663304Y-67047844D01*
X239663304Y-67047844D02*
X239700557Y-67085098D01*
X239700557Y-67085098D02*
X239737811Y-67047844D01*
X239737811Y-67047844D02*
X239700557Y-67010591D01*
X239700557Y-67010591D02*
X239700557Y-67085098D01*
X240073090Y-67271364D02*
X240073090Y-67792911D01*
X240073090Y-67345871D02*
X240110344Y-67308618D01*
X240110344Y-67308618D02*
X240184850Y-67271364D01*
X240184850Y-67271364D02*
X240296610Y-67271364D01*
X240296610Y-67271364D02*
X240371117Y-67308618D01*
X240371117Y-67308618D02*
X240408370Y-67383124D01*
X240408370Y-67383124D02*
X240408370Y-67792911D01*
X241078930Y-67755658D02*
X241004423Y-67792911D01*
X241004423Y-67792911D02*
X240855410Y-67792911D01*
X240855410Y-67792911D02*
X240780903Y-67755658D01*
X240780903Y-67755658D02*
X240743650Y-67681151D01*
X240743650Y-67681151D02*
X240743650Y-67383124D01*
X240743650Y-67383124D02*
X240780903Y-67308618D01*
X240780903Y-67308618D02*
X240855410Y-67271364D01*
X240855410Y-67271364D02*
X241004423Y-67271364D01*
X241004423Y-67271364D02*
X241078930Y-67308618D01*
X241078930Y-67308618D02*
X241116183Y-67383124D01*
X241116183Y-67383124D02*
X241116183Y-67457631D01*
X241116183Y-67457631D02*
X240743650Y-67532138D01*
X241973010Y-67271364D02*
X242122023Y-67792911D01*
X242122023Y-67792911D02*
X242271036Y-67420378D01*
X242271036Y-67420378D02*
X242420050Y-67792911D01*
X242420050Y-67792911D02*
X242569063Y-67271364D01*
X242867089Y-67792911D02*
X242867089Y-67271364D01*
X242867089Y-67010591D02*
X242829836Y-67047844D01*
X242829836Y-67047844D02*
X242867089Y-67085098D01*
X242867089Y-67085098D02*
X242904343Y-67047844D01*
X242904343Y-67047844D02*
X242867089Y-67010591D01*
X242867089Y-67010591D02*
X242867089Y-67085098D01*
X243574902Y-67792911D02*
X243574902Y-67010591D01*
X243574902Y-67755658D02*
X243500396Y-67792911D01*
X243500396Y-67792911D02*
X243351382Y-67792911D01*
X243351382Y-67792911D02*
X243276876Y-67755658D01*
X243276876Y-67755658D02*
X243239622Y-67718404D01*
X243239622Y-67718404D02*
X243202369Y-67643898D01*
X243202369Y-67643898D02*
X243202369Y-67420378D01*
X243202369Y-67420378D02*
X243239622Y-67345871D01*
X243239622Y-67345871D02*
X243276876Y-67308618D01*
X243276876Y-67308618D02*
X243351382Y-67271364D01*
X243351382Y-67271364D02*
X243500396Y-67271364D01*
X243500396Y-67271364D02*
X243574902Y-67308618D01*
X243835675Y-67271364D02*
X244133702Y-67271364D01*
X243947435Y-67010591D02*
X243947435Y-67681151D01*
X243947435Y-67681151D02*
X243984689Y-67755658D01*
X243984689Y-67755658D02*
X244059195Y-67792911D01*
X244059195Y-67792911D02*
X244133702Y-67792911D01*
X244394475Y-67792911D02*
X244394475Y-67010591D01*
X244729755Y-67792911D02*
X244729755Y-67383124D01*
X244729755Y-67383124D02*
X244692502Y-67308618D01*
X244692502Y-67308618D02*
X244617995Y-67271364D01*
X244617995Y-67271364D02*
X244506235Y-67271364D01*
X244506235Y-67271364D02*
X244431729Y-67308618D01*
X244431729Y-67308618D02*
X244394475Y-67345871D01*
X245661088Y-66973338D02*
X244990528Y-67979178D01*
X245884608Y-67755658D02*
X245996368Y-67792911D01*
X245996368Y-67792911D02*
X246182635Y-67792911D01*
X246182635Y-67792911D02*
X246257141Y-67755658D01*
X246257141Y-67755658D02*
X246294395Y-67718404D01*
X246294395Y-67718404D02*
X246331648Y-67643898D01*
X246331648Y-67643898D02*
X246331648Y-67569391D01*
X246331648Y-67569391D02*
X246294395Y-67494884D01*
X246294395Y-67494884D02*
X246257141Y-67457631D01*
X246257141Y-67457631D02*
X246182635Y-67420378D01*
X246182635Y-67420378D02*
X246033621Y-67383124D01*
X246033621Y-67383124D02*
X245959115Y-67345871D01*
X245959115Y-67345871D02*
X245921861Y-67308618D01*
X245921861Y-67308618D02*
X245884608Y-67234111D01*
X245884608Y-67234111D02*
X245884608Y-67159604D01*
X245884608Y-67159604D02*
X245921861Y-67085098D01*
X245921861Y-67085098D02*
X245959115Y-67047844D01*
X245959115Y-67047844D02*
X246033621Y-67010591D01*
X246033621Y-67010591D02*
X246219888Y-67010591D01*
X246219888Y-67010591D02*
X246331648Y-67047844D01*
X246666928Y-67271364D02*
X246666928Y-68053684D01*
X246666928Y-67308618D02*
X246741435Y-67271364D01*
X246741435Y-67271364D02*
X246890448Y-67271364D01*
X246890448Y-67271364D02*
X246964955Y-67308618D01*
X246964955Y-67308618D02*
X247002208Y-67345871D01*
X247002208Y-67345871D02*
X247039462Y-67420378D01*
X247039462Y-67420378D02*
X247039462Y-67643898D01*
X247039462Y-67643898D02*
X247002208Y-67718404D01*
X247002208Y-67718404D02*
X246964955Y-67755658D01*
X246964955Y-67755658D02*
X246890448Y-67792911D01*
X246890448Y-67792911D02*
X246741435Y-67792911D01*
X246741435Y-67792911D02*
X246666928Y-67755658D01*
X247710021Y-67792911D02*
X247710021Y-67383124D01*
X247710021Y-67383124D02*
X247672768Y-67308618D01*
X247672768Y-67308618D02*
X247598261Y-67271364D01*
X247598261Y-67271364D02*
X247449248Y-67271364D01*
X247449248Y-67271364D02*
X247374741Y-67308618D01*
X247710021Y-67755658D02*
X247635515Y-67792911D01*
X247635515Y-67792911D02*
X247449248Y-67792911D01*
X247449248Y-67792911D02*
X247374741Y-67755658D01*
X247374741Y-67755658D02*
X247337488Y-67681151D01*
X247337488Y-67681151D02*
X247337488Y-67606644D01*
X247337488Y-67606644D02*
X247374741Y-67532138D01*
X247374741Y-67532138D02*
X247449248Y-67494884D01*
X247449248Y-67494884D02*
X247635515Y-67494884D01*
X247635515Y-67494884D02*
X247710021Y-67457631D01*
X248417834Y-67755658D02*
X248343328Y-67792911D01*
X248343328Y-67792911D02*
X248194314Y-67792911D01*
X248194314Y-67792911D02*
X248119808Y-67755658D01*
X248119808Y-67755658D02*
X248082554Y-67718404D01*
X248082554Y-67718404D02*
X248045301Y-67643898D01*
X248045301Y-67643898D02*
X248045301Y-67420378D01*
X248045301Y-67420378D02*
X248082554Y-67345871D01*
X248082554Y-67345871D02*
X248119808Y-67308618D01*
X248119808Y-67308618D02*
X248194314Y-67271364D01*
X248194314Y-67271364D02*
X248343328Y-67271364D01*
X248343328Y-67271364D02*
X248417834Y-67308618D01*
X249051141Y-67755658D02*
X248976634Y-67792911D01*
X248976634Y-67792911D02*
X248827621Y-67792911D01*
X248827621Y-67792911D02*
X248753114Y-67755658D01*
X248753114Y-67755658D02*
X248715861Y-67681151D01*
X248715861Y-67681151D02*
X248715861Y-67383124D01*
X248715861Y-67383124D02*
X248753114Y-67308618D01*
X248753114Y-67308618D02*
X248827621Y-67271364D01*
X248827621Y-67271364D02*
X248976634Y-67271364D01*
X248976634Y-67271364D02*
X249051141Y-67308618D01*
X249051141Y-67308618D02*
X249088394Y-67383124D01*
X249088394Y-67383124D02*
X249088394Y-67457631D01*
X249088394Y-67457631D02*
X248715861Y-67532138D01*
X249647194Y-68090938D02*
X249609941Y-68053684D01*
X249609941Y-68053684D02*
X249535434Y-67941924D01*
X249535434Y-67941924D02*
X249498181Y-67867418D01*
X249498181Y-67867418D02*
X249460928Y-67755658D01*
X249460928Y-67755658D02*
X249423674Y-67569391D01*
X249423674Y-67569391D02*
X249423674Y-67420378D01*
X249423674Y-67420378D02*
X249460928Y-67234111D01*
X249460928Y-67234111D02*
X249498181Y-67122351D01*
X249498181Y-67122351D02*
X249535434Y-67047844D01*
X249535434Y-67047844D02*
X249609941Y-66936084D01*
X249609941Y-66936084D02*
X249647194Y-66898831D01*
X249945221Y-67792911D02*
X249945221Y-67271364D01*
X249945221Y-67345871D02*
X249982475Y-67308618D01*
X249982475Y-67308618D02*
X250056981Y-67271364D01*
X250056981Y-67271364D02*
X250168741Y-67271364D01*
X250168741Y-67271364D02*
X250243248Y-67308618D01*
X250243248Y-67308618D02*
X250280501Y-67383124D01*
X250280501Y-67383124D02*
X250280501Y-67792911D01*
X250280501Y-67383124D02*
X250317755Y-67308618D01*
X250317755Y-67308618D02*
X250392261Y-67271364D01*
X250392261Y-67271364D02*
X250504021Y-67271364D01*
X250504021Y-67271364D02*
X250578528Y-67308618D01*
X250578528Y-67308618D02*
X250615781Y-67383124D01*
X250615781Y-67383124D02*
X250615781Y-67792911D01*
X250988314Y-67792911D02*
X250988314Y-67271364D01*
X250988314Y-67010591D02*
X250951061Y-67047844D01*
X250951061Y-67047844D02*
X250988314Y-67085098D01*
X250988314Y-67085098D02*
X251025568Y-67047844D01*
X251025568Y-67047844D02*
X250988314Y-67010591D01*
X250988314Y-67010591D02*
X250988314Y-67085098D01*
X251472607Y-67792911D02*
X251398101Y-67755658D01*
X251398101Y-67755658D02*
X251360847Y-67681151D01*
X251360847Y-67681151D02*
X251360847Y-67010591D01*
X251696128Y-68090938D02*
X251733381Y-68053684D01*
X251733381Y-68053684D02*
X251807888Y-67941924D01*
X251807888Y-67941924D02*
X251845141Y-67867418D01*
X251845141Y-67867418D02*
X251882394Y-67755658D01*
X251882394Y-67755658D02*
X251919648Y-67569391D01*
X251919648Y-67569391D02*
X251919648Y-67420378D01*
X251919648Y-67420378D02*
X251882394Y-67234111D01*
X251882394Y-67234111D02*
X251845141Y-67122351D01*
X251845141Y-67122351D02*
X251807888Y-67047844D01*
X251807888Y-67047844D02*
X251733381Y-66936084D01*
X251733381Y-66936084D02*
X251696128Y-66898831D01*
X138356250Y-71602911D02*
X138356250Y-70820591D01*
X138356250Y-70820591D02*
X138654277Y-70820591D01*
X138654277Y-70820591D02*
X138728784Y-70857844D01*
X138728784Y-70857844D02*
X138766037Y-70895098D01*
X138766037Y-70895098D02*
X138803290Y-70969604D01*
X138803290Y-70969604D02*
X138803290Y-71081364D01*
X138803290Y-71081364D02*
X138766037Y-71155871D01*
X138766037Y-71155871D02*
X138728784Y-71193124D01*
X138728784Y-71193124D02*
X138654277Y-71230378D01*
X138654277Y-71230378D02*
X138356250Y-71230378D01*
X139138570Y-71602911D02*
X139138570Y-70820591D01*
X139138570Y-70820591D02*
X139436597Y-70820591D01*
X139436597Y-70820591D02*
X139511104Y-70857844D01*
X139511104Y-70857844D02*
X139548357Y-70895098D01*
X139548357Y-70895098D02*
X139585610Y-70969604D01*
X139585610Y-70969604D02*
X139585610Y-71081364D01*
X139585610Y-71081364D02*
X139548357Y-71155871D01*
X139548357Y-71155871D02*
X139511104Y-71193124D01*
X139511104Y-71193124D02*
X139436597Y-71230378D01*
X139436597Y-71230378D02*
X139138570Y-71230378D01*
X174998290Y-69697911D02*
X174737517Y-69325378D01*
X174551250Y-69697911D02*
X174551250Y-68915591D01*
X174551250Y-68915591D02*
X174849277Y-68915591D01*
X174849277Y-68915591D02*
X174923784Y-68952844D01*
X174923784Y-68952844D02*
X174961037Y-68990098D01*
X174961037Y-68990098D02*
X174998290Y-69064604D01*
X174998290Y-69064604D02*
X174998290Y-69176364D01*
X174998290Y-69176364D02*
X174961037Y-69250871D01*
X174961037Y-69250871D02*
X174923784Y-69288124D01*
X174923784Y-69288124D02*
X174849277Y-69325378D01*
X174849277Y-69325378D02*
X174551250Y-69325378D01*
X175482584Y-68915591D02*
X175631597Y-68915591D01*
X175631597Y-68915591D02*
X175706104Y-68952844D01*
X175706104Y-68952844D02*
X175780610Y-69027351D01*
X175780610Y-69027351D02*
X175817864Y-69176364D01*
X175817864Y-69176364D02*
X175817864Y-69437138D01*
X175817864Y-69437138D02*
X175780610Y-69586151D01*
X175780610Y-69586151D02*
X175706104Y-69660658D01*
X175706104Y-69660658D02*
X175631597Y-69697911D01*
X175631597Y-69697911D02*
X175482584Y-69697911D01*
X175482584Y-69697911D02*
X175408077Y-69660658D01*
X175408077Y-69660658D02*
X175333570Y-69586151D01*
X175333570Y-69586151D02*
X175296317Y-69437138D01*
X175296317Y-69437138D02*
X175296317Y-69176364D01*
X175296317Y-69176364D02*
X175333570Y-69027351D01*
X175333570Y-69027351D02*
X175408077Y-68952844D01*
X175408077Y-68952844D02*
X175482584Y-68915591D01*
X176153143Y-68915591D02*
X176153143Y-69548898D01*
X176153143Y-69548898D02*
X176190397Y-69623404D01*
X176190397Y-69623404D02*
X176227650Y-69660658D01*
X176227650Y-69660658D02*
X176302157Y-69697911D01*
X176302157Y-69697911D02*
X176451170Y-69697911D01*
X176451170Y-69697911D02*
X176525677Y-69660658D01*
X176525677Y-69660658D02*
X176562930Y-69623404D01*
X176562930Y-69623404D02*
X176600183Y-69548898D01*
X176600183Y-69548898D02*
X176600183Y-68915591D01*
X176860956Y-68915591D02*
X177307996Y-68915591D01*
X177084476Y-69697911D02*
X177084476Y-68915591D01*
X177568769Y-69697911D02*
X177568769Y-68915591D01*
X177941302Y-69697911D02*
X177941302Y-68915591D01*
X177941302Y-68915591D02*
X178388342Y-69697911D01*
X178388342Y-69697911D02*
X178388342Y-68915591D01*
X179170662Y-68952844D02*
X179096155Y-68915591D01*
X179096155Y-68915591D02*
X178984395Y-68915591D01*
X178984395Y-68915591D02*
X178872635Y-68952844D01*
X178872635Y-68952844D02*
X178798129Y-69027351D01*
X178798129Y-69027351D02*
X178760875Y-69101858D01*
X178760875Y-69101858D02*
X178723622Y-69250871D01*
X178723622Y-69250871D02*
X178723622Y-69362631D01*
X178723622Y-69362631D02*
X178760875Y-69511644D01*
X178760875Y-69511644D02*
X178798129Y-69586151D01*
X178798129Y-69586151D02*
X178872635Y-69660658D01*
X178872635Y-69660658D02*
X178984395Y-69697911D01*
X178984395Y-69697911D02*
X179058902Y-69697911D01*
X179058902Y-69697911D02*
X179170662Y-69660658D01*
X179170662Y-69660658D02*
X179207915Y-69623404D01*
X179207915Y-69623404D02*
X179207915Y-69362631D01*
X179207915Y-69362631D02*
X179058902Y-69362631D01*
X216767744Y-80345591D02*
X216954010Y-81127911D01*
X216954010Y-81127911D02*
X217103024Y-80569111D01*
X217103024Y-80569111D02*
X217252037Y-81127911D01*
X217252037Y-81127911D02*
X217438304Y-80345591D01*
X217736330Y-81053404D02*
X217773584Y-81090658D01*
X217773584Y-81090658D02*
X217736330Y-81127911D01*
X217736330Y-81127911D02*
X217699077Y-81090658D01*
X217699077Y-81090658D02*
X217736330Y-81053404D01*
X217736330Y-81053404D02*
X217736330Y-81127911D01*
X217736330Y-80643618D02*
X217773584Y-80680871D01*
X217773584Y-80680871D02*
X217736330Y-80718124D01*
X217736330Y-80718124D02*
X217699077Y-80680871D01*
X217699077Y-80680871D02*
X217736330Y-80643618D01*
X217736330Y-80643618D02*
X217736330Y-80718124D01*
X218481397Y-80345591D02*
X218108863Y-80345591D01*
X218108863Y-80345591D02*
X218071610Y-80718124D01*
X218071610Y-80718124D02*
X218108863Y-80680871D01*
X218108863Y-80680871D02*
X218183370Y-80643618D01*
X218183370Y-80643618D02*
X218369637Y-80643618D01*
X218369637Y-80643618D02*
X218444143Y-80680871D01*
X218444143Y-80680871D02*
X218481397Y-80718124D01*
X218481397Y-80718124D02*
X218518650Y-80792631D01*
X218518650Y-80792631D02*
X218518650Y-80978898D01*
X218518650Y-80978898D02*
X218481397Y-81053404D01*
X218481397Y-81053404D02*
X218444143Y-81090658D01*
X218444143Y-81090658D02*
X218369637Y-81127911D01*
X218369637Y-81127911D02*
X218183370Y-81127911D01*
X218183370Y-81127911D02*
X218108863Y-81090658D01*
X218108863Y-81090658D02*
X218071610Y-81053404D01*
X218853930Y-81053404D02*
X218891184Y-81090658D01*
X218891184Y-81090658D02*
X218853930Y-81127911D01*
X218853930Y-81127911D02*
X218816677Y-81090658D01*
X218816677Y-81090658D02*
X218853930Y-81053404D01*
X218853930Y-81053404D02*
X218853930Y-81127911D01*
X219598997Y-80345591D02*
X219226463Y-80345591D01*
X219226463Y-80345591D02*
X219189210Y-80718124D01*
X219189210Y-80718124D02*
X219226463Y-80680871D01*
X219226463Y-80680871D02*
X219300970Y-80643618D01*
X219300970Y-80643618D02*
X219487237Y-80643618D01*
X219487237Y-80643618D02*
X219561743Y-80680871D01*
X219561743Y-80680871D02*
X219598997Y-80718124D01*
X219598997Y-80718124D02*
X219636250Y-80792631D01*
X219636250Y-80792631D02*
X219636250Y-80978898D01*
X219636250Y-80978898D02*
X219598997Y-81053404D01*
X219598997Y-81053404D02*
X219561743Y-81090658D01*
X219561743Y-81090658D02*
X219487237Y-81127911D01*
X219487237Y-81127911D02*
X219300970Y-81127911D01*
X219300970Y-81127911D02*
X219226463Y-81090658D01*
X219226463Y-81090658D02*
X219189210Y-81053404D01*
X220008784Y-81127911D02*
X220157797Y-81127911D01*
X220157797Y-81127911D02*
X220232304Y-81090658D01*
X220232304Y-81090658D02*
X220269557Y-81053404D01*
X220269557Y-81053404D02*
X220344064Y-80941644D01*
X220344064Y-80941644D02*
X220381317Y-80792631D01*
X220381317Y-80792631D02*
X220381317Y-80494604D01*
X220381317Y-80494604D02*
X220344064Y-80420098D01*
X220344064Y-80420098D02*
X220306810Y-80382844D01*
X220306810Y-80382844D02*
X220232304Y-80345591D01*
X220232304Y-80345591D02*
X220083290Y-80345591D01*
X220083290Y-80345591D02*
X220008784Y-80382844D01*
X220008784Y-80382844D02*
X219971530Y-80420098D01*
X219971530Y-80420098D02*
X219934277Y-80494604D01*
X219934277Y-80494604D02*
X219934277Y-80680871D01*
X219934277Y-80680871D02*
X219971530Y-80755378D01*
X219971530Y-80755378D02*
X220008784Y-80792631D01*
X220008784Y-80792631D02*
X220083290Y-80829884D01*
X220083290Y-80829884D02*
X220232304Y-80829884D01*
X220232304Y-80829884D02*
X220306810Y-80792631D01*
X220306810Y-80792631D02*
X220344064Y-80755378D01*
X220344064Y-80755378D02*
X220381317Y-80680871D01*
X221275397Y-80308338D02*
X220604837Y-81314178D01*
X221498917Y-81090658D02*
X221610677Y-81127911D01*
X221610677Y-81127911D02*
X221796944Y-81127911D01*
X221796944Y-81127911D02*
X221871450Y-81090658D01*
X221871450Y-81090658D02*
X221908704Y-81053404D01*
X221908704Y-81053404D02*
X221945957Y-80978898D01*
X221945957Y-80978898D02*
X221945957Y-80904391D01*
X221945957Y-80904391D02*
X221908704Y-80829884D01*
X221908704Y-80829884D02*
X221871450Y-80792631D01*
X221871450Y-80792631D02*
X221796944Y-80755378D01*
X221796944Y-80755378D02*
X221647930Y-80718124D01*
X221647930Y-80718124D02*
X221573424Y-80680871D01*
X221573424Y-80680871D02*
X221536170Y-80643618D01*
X221536170Y-80643618D02*
X221498917Y-80569111D01*
X221498917Y-80569111D02*
X221498917Y-80494604D01*
X221498917Y-80494604D02*
X221536170Y-80420098D01*
X221536170Y-80420098D02*
X221573424Y-80382844D01*
X221573424Y-80382844D02*
X221647930Y-80345591D01*
X221647930Y-80345591D02*
X221834197Y-80345591D01*
X221834197Y-80345591D02*
X221945957Y-80382844D01*
X222281237Y-81053404D02*
X222318491Y-81090658D01*
X222318491Y-81090658D02*
X222281237Y-81127911D01*
X222281237Y-81127911D02*
X222243984Y-81090658D01*
X222243984Y-81090658D02*
X222281237Y-81053404D01*
X222281237Y-81053404D02*
X222281237Y-81127911D01*
X222281237Y-80643618D02*
X222318491Y-80680871D01*
X222318491Y-80680871D02*
X222281237Y-80718124D01*
X222281237Y-80718124D02*
X222243984Y-80680871D01*
X222243984Y-80680871D02*
X222281237Y-80643618D01*
X222281237Y-80643618D02*
X222281237Y-80718124D01*
X222989050Y-80345591D02*
X222840037Y-80345591D01*
X222840037Y-80345591D02*
X222765530Y-80382844D01*
X222765530Y-80382844D02*
X222728277Y-80420098D01*
X222728277Y-80420098D02*
X222653770Y-80531858D01*
X222653770Y-80531858D02*
X222616517Y-80680871D01*
X222616517Y-80680871D02*
X222616517Y-80978898D01*
X222616517Y-80978898D02*
X222653770Y-81053404D01*
X222653770Y-81053404D02*
X222691024Y-81090658D01*
X222691024Y-81090658D02*
X222765530Y-81127911D01*
X222765530Y-81127911D02*
X222914544Y-81127911D01*
X222914544Y-81127911D02*
X222989050Y-81090658D01*
X222989050Y-81090658D02*
X223026304Y-81053404D01*
X223026304Y-81053404D02*
X223063557Y-80978898D01*
X223063557Y-80978898D02*
X223063557Y-80792631D01*
X223063557Y-80792631D02*
X223026304Y-80718124D01*
X223026304Y-80718124D02*
X222989050Y-80680871D01*
X222989050Y-80680871D02*
X222914544Y-80643618D01*
X222914544Y-80643618D02*
X222765530Y-80643618D01*
X222765530Y-80643618D02*
X222691024Y-80680871D01*
X222691024Y-80680871D02*
X222653770Y-80718124D01*
X222653770Y-80718124D02*
X222616517Y-80792631D01*
D13*
X116349597Y-78766112D02*
X116313311Y-78874969D01*
X116313311Y-78874969D02*
X116277025Y-78911255D01*
X116277025Y-78911255D02*
X116204454Y-78947541D01*
X116204454Y-78947541D02*
X116095597Y-78947541D01*
X116095597Y-78947541D02*
X116023025Y-78911255D01*
X116023025Y-78911255D02*
X115986740Y-78874969D01*
X115986740Y-78874969D02*
X115950454Y-78802398D01*
X115950454Y-78802398D02*
X115950454Y-78512112D01*
X115950454Y-78512112D02*
X116712454Y-78512112D01*
X116712454Y-78512112D02*
X116712454Y-78766112D01*
X116712454Y-78766112D02*
X116676168Y-78838684D01*
X116676168Y-78838684D02*
X116639882Y-78874969D01*
X116639882Y-78874969D02*
X116567311Y-78911255D01*
X116567311Y-78911255D02*
X116494740Y-78911255D01*
X116494740Y-78911255D02*
X116422168Y-78874969D01*
X116422168Y-78874969D02*
X116385882Y-78838684D01*
X116385882Y-78838684D02*
X116349597Y-78766112D01*
X116349597Y-78766112D02*
X116349597Y-78512112D01*
D12*
X239029997Y-65977658D02*
X239141757Y-66014911D01*
X239141757Y-66014911D02*
X239328024Y-66014911D01*
X239328024Y-66014911D02*
X239402530Y-65977658D01*
X239402530Y-65977658D02*
X239439784Y-65940404D01*
X239439784Y-65940404D02*
X239477037Y-65865898D01*
X239477037Y-65865898D02*
X239477037Y-65791391D01*
X239477037Y-65791391D02*
X239439784Y-65716884D01*
X239439784Y-65716884D02*
X239402530Y-65679631D01*
X239402530Y-65679631D02*
X239328024Y-65642378D01*
X239328024Y-65642378D02*
X239179010Y-65605124D01*
X239179010Y-65605124D02*
X239104504Y-65567871D01*
X239104504Y-65567871D02*
X239067250Y-65530618D01*
X239067250Y-65530618D02*
X239029997Y-65456111D01*
X239029997Y-65456111D02*
X239029997Y-65381604D01*
X239029997Y-65381604D02*
X239067250Y-65307098D01*
X239067250Y-65307098D02*
X239104504Y-65269844D01*
X239104504Y-65269844D02*
X239179010Y-65232591D01*
X239179010Y-65232591D02*
X239365277Y-65232591D01*
X239365277Y-65232591D02*
X239477037Y-65269844D01*
X239812317Y-66014911D02*
X239812317Y-65232591D01*
X240184850Y-66014911D02*
X240184850Y-65232591D01*
X240184850Y-65232591D02*
X240631890Y-66014911D01*
X240631890Y-66014911D02*
X240631890Y-65232591D01*
X241414210Y-65269844D02*
X241339703Y-65232591D01*
X241339703Y-65232591D02*
X241227943Y-65232591D01*
X241227943Y-65232591D02*
X241116183Y-65269844D01*
X241116183Y-65269844D02*
X241041677Y-65344351D01*
X241041677Y-65344351D02*
X241004423Y-65418858D01*
X241004423Y-65418858D02*
X240967170Y-65567871D01*
X240967170Y-65567871D02*
X240967170Y-65679631D01*
X240967170Y-65679631D02*
X241004423Y-65828644D01*
X241004423Y-65828644D02*
X241041677Y-65903151D01*
X241041677Y-65903151D02*
X241116183Y-65977658D01*
X241116183Y-65977658D02*
X241227943Y-66014911D01*
X241227943Y-66014911D02*
X241302450Y-66014911D01*
X241302450Y-66014911D02*
X241414210Y-65977658D01*
X241414210Y-65977658D02*
X241451463Y-65940404D01*
X241451463Y-65940404D02*
X241451463Y-65679631D01*
X241451463Y-65679631D02*
X241302450Y-65679631D01*
X242159277Y-66014911D02*
X241786743Y-66014911D01*
X241786743Y-66014911D02*
X241786743Y-65232591D01*
X242420050Y-65605124D02*
X242680824Y-65605124D01*
X242792584Y-66014911D02*
X242420050Y-66014911D01*
X242420050Y-66014911D02*
X242420050Y-65232591D01*
X242420050Y-65232591D02*
X242792584Y-65232591D01*
X244133703Y-66014911D02*
X243686663Y-66014911D01*
X243910183Y-66014911D02*
X243910183Y-65232591D01*
X243910183Y-65232591D02*
X243835676Y-65344351D01*
X243835676Y-65344351D02*
X243761170Y-65418858D01*
X243761170Y-65418858D02*
X243686663Y-65456111D01*
X244617997Y-65232591D02*
X244692503Y-65232591D01*
X244692503Y-65232591D02*
X244767010Y-65269844D01*
X244767010Y-65269844D02*
X244804263Y-65307098D01*
X244804263Y-65307098D02*
X244841517Y-65381604D01*
X244841517Y-65381604D02*
X244878770Y-65530618D01*
X244878770Y-65530618D02*
X244878770Y-65716884D01*
X244878770Y-65716884D02*
X244841517Y-65865898D01*
X244841517Y-65865898D02*
X244804263Y-65940404D01*
X244804263Y-65940404D02*
X244767010Y-65977658D01*
X244767010Y-65977658D02*
X244692503Y-66014911D01*
X244692503Y-66014911D02*
X244617997Y-66014911D01*
X244617997Y-66014911D02*
X244543490Y-65977658D01*
X244543490Y-65977658D02*
X244506237Y-65940404D01*
X244506237Y-65940404D02*
X244468983Y-65865898D01*
X244468983Y-65865898D02*
X244431730Y-65716884D01*
X244431730Y-65716884D02*
X244431730Y-65530618D01*
X244431730Y-65530618D02*
X244468983Y-65381604D01*
X244468983Y-65381604D02*
X244506237Y-65307098D01*
X244506237Y-65307098D02*
X244543490Y-65269844D01*
X244543490Y-65269844D02*
X244617997Y-65232591D01*
X245363064Y-65232591D02*
X245437570Y-65232591D01*
X245437570Y-65232591D02*
X245512077Y-65269844D01*
X245512077Y-65269844D02*
X245549330Y-65307098D01*
X245549330Y-65307098D02*
X245586584Y-65381604D01*
X245586584Y-65381604D02*
X245623837Y-65530618D01*
X245623837Y-65530618D02*
X245623837Y-65716884D01*
X245623837Y-65716884D02*
X245586584Y-65865898D01*
X245586584Y-65865898D02*
X245549330Y-65940404D01*
X245549330Y-65940404D02*
X245512077Y-65977658D01*
X245512077Y-65977658D02*
X245437570Y-66014911D01*
X245437570Y-66014911D02*
X245363064Y-66014911D01*
X245363064Y-66014911D02*
X245288557Y-65977658D01*
X245288557Y-65977658D02*
X245251304Y-65940404D01*
X245251304Y-65940404D02*
X245214050Y-65865898D01*
X245214050Y-65865898D02*
X245176797Y-65716884D01*
X245176797Y-65716884D02*
X245176797Y-65530618D01*
X245176797Y-65530618D02*
X245214050Y-65381604D01*
X245214050Y-65381604D02*
X245251304Y-65307098D01*
X245251304Y-65307098D02*
X245288557Y-65269844D01*
X245288557Y-65269844D02*
X245363064Y-65232591D01*
X246070877Y-66014911D02*
X245996371Y-65977658D01*
X245996371Y-65977658D02*
X245959117Y-65940404D01*
X245959117Y-65940404D02*
X245921864Y-65865898D01*
X245921864Y-65865898D02*
X245921864Y-65642378D01*
X245921864Y-65642378D02*
X245959117Y-65567871D01*
X245959117Y-65567871D02*
X245996371Y-65530618D01*
X245996371Y-65530618D02*
X246070877Y-65493364D01*
X246070877Y-65493364D02*
X246182637Y-65493364D01*
X246182637Y-65493364D02*
X246257144Y-65530618D01*
X246257144Y-65530618D02*
X246294397Y-65567871D01*
X246294397Y-65567871D02*
X246331651Y-65642378D01*
X246331651Y-65642378D02*
X246331651Y-65865898D01*
X246331651Y-65865898D02*
X246294397Y-65940404D01*
X246294397Y-65940404D02*
X246257144Y-65977658D01*
X246257144Y-65977658D02*
X246182637Y-66014911D01*
X246182637Y-66014911D02*
X246070877Y-66014911D01*
X246666930Y-66014911D02*
X246666930Y-65232591D01*
X247002210Y-66014911D02*
X247002210Y-65605124D01*
X247002210Y-65605124D02*
X246964957Y-65530618D01*
X246964957Y-65530618D02*
X246890450Y-65493364D01*
X246890450Y-65493364D02*
X246778690Y-65493364D01*
X246778690Y-65493364D02*
X246704184Y-65530618D01*
X246704184Y-65530618D02*
X246666930Y-65567871D01*
X247374743Y-66014911D02*
X247374743Y-65493364D01*
X247374743Y-65567871D02*
X247411997Y-65530618D01*
X247411997Y-65530618D02*
X247486503Y-65493364D01*
X247486503Y-65493364D02*
X247598263Y-65493364D01*
X247598263Y-65493364D02*
X247672770Y-65530618D01*
X247672770Y-65530618D02*
X247710023Y-65605124D01*
X247710023Y-65605124D02*
X247710023Y-66014911D01*
X247710023Y-65605124D02*
X247747277Y-65530618D01*
X247747277Y-65530618D02*
X247821783Y-65493364D01*
X247821783Y-65493364D02*
X247933543Y-65493364D01*
X247933543Y-65493364D02*
X248008050Y-65530618D01*
X248008050Y-65530618D02*
X248045303Y-65605124D01*
X248045303Y-65605124D02*
X248045303Y-66014911D01*
X248417836Y-65716884D02*
X249013890Y-65716884D01*
X248715863Y-66014911D02*
X248715863Y-65418858D01*
X249945223Y-65195338D02*
X249274663Y-66201178D01*
X250205996Y-65716884D02*
X250802050Y-65716884D01*
X251584370Y-66014911D02*
X251137330Y-66014911D01*
X251360850Y-66014911D02*
X251360850Y-65232591D01*
X251360850Y-65232591D02*
X251286343Y-65344351D01*
X251286343Y-65344351D02*
X251211837Y-65418858D01*
X251211837Y-65418858D02*
X251137330Y-65456111D01*
X252068664Y-65232591D02*
X252143170Y-65232591D01*
X252143170Y-65232591D02*
X252217677Y-65269844D01*
X252217677Y-65269844D02*
X252254930Y-65307098D01*
X252254930Y-65307098D02*
X252292184Y-65381604D01*
X252292184Y-65381604D02*
X252329437Y-65530618D01*
X252329437Y-65530618D02*
X252329437Y-65716884D01*
X252329437Y-65716884D02*
X252292184Y-65865898D01*
X252292184Y-65865898D02*
X252254930Y-65940404D01*
X252254930Y-65940404D02*
X252217677Y-65977658D01*
X252217677Y-65977658D02*
X252143170Y-66014911D01*
X252143170Y-66014911D02*
X252068664Y-66014911D01*
X252068664Y-66014911D02*
X251994157Y-65977658D01*
X251994157Y-65977658D02*
X251956904Y-65940404D01*
X251956904Y-65940404D02*
X251919650Y-65865898D01*
X251919650Y-65865898D02*
X251882397Y-65716884D01*
X251882397Y-65716884D02*
X251882397Y-65530618D01*
X251882397Y-65530618D02*
X251919650Y-65381604D01*
X251919650Y-65381604D02*
X251956904Y-65307098D01*
X251956904Y-65307098D02*
X251994157Y-65269844D01*
X251994157Y-65269844D02*
X252068664Y-65232591D01*
X252627464Y-66014911D02*
X253223517Y-65232591D01*
X252739224Y-65232591D02*
X252813731Y-65269844D01*
X252813731Y-65269844D02*
X252850984Y-65344351D01*
X252850984Y-65344351D02*
X252813731Y-65418858D01*
X252813731Y-65418858D02*
X252739224Y-65456111D01*
X252739224Y-65456111D02*
X252664717Y-65418858D01*
X252664717Y-65418858D02*
X252627464Y-65344351D01*
X252627464Y-65344351D02*
X252664717Y-65269844D01*
X252664717Y-65269844D02*
X252739224Y-65232591D01*
X253186264Y-65977658D02*
X253223517Y-65903151D01*
X253223517Y-65903151D02*
X253186264Y-65828644D01*
X253186264Y-65828644D02*
X253111757Y-65791391D01*
X253111757Y-65791391D02*
X253037251Y-65828644D01*
X253037251Y-65828644D02*
X252999997Y-65903151D01*
X252999997Y-65903151D02*
X253037251Y-65977658D01*
X253037251Y-65977658D02*
X253111757Y-66014911D01*
X253111757Y-66014911D02*
X253186264Y-65977658D01*
X133992530Y-65249873D02*
X133992530Y-65771420D01*
X133806264Y-64951847D02*
X133619997Y-65510647D01*
X133619997Y-65510647D02*
X134104290Y-65510647D01*
X135370904Y-65771420D02*
X134998370Y-65771420D01*
X134998370Y-65771420D02*
X134998370Y-64989100D01*
X135594424Y-65547900D02*
X135966957Y-65547900D01*
X135519917Y-65771420D02*
X135780691Y-64989100D01*
X135780691Y-64989100D02*
X136041464Y-65771420D01*
X136451251Y-65398887D02*
X136451251Y-65771420D01*
X136190477Y-64989100D02*
X136451251Y-65398887D01*
X136451251Y-65398887D02*
X136712024Y-64989100D01*
X136972797Y-65361633D02*
X137233571Y-65361633D01*
X137345331Y-65771420D02*
X136972797Y-65771420D01*
X136972797Y-65771420D02*
X136972797Y-64989100D01*
X136972797Y-64989100D02*
X137345331Y-64989100D01*
X138127650Y-65771420D02*
X137866877Y-65398887D01*
X137680610Y-65771420D02*
X137680610Y-64989100D01*
X137680610Y-64989100D02*
X137978637Y-64989100D01*
X137978637Y-64989100D02*
X138053144Y-65026353D01*
X138053144Y-65026353D02*
X138090397Y-65063607D01*
X138090397Y-65063607D02*
X138127650Y-65138113D01*
X138127650Y-65138113D02*
X138127650Y-65249873D01*
X138127650Y-65249873D02*
X138090397Y-65324380D01*
X138090397Y-65324380D02*
X138053144Y-65361633D01*
X138053144Y-65361633D02*
X137978637Y-65398887D01*
X137978637Y-65398887D02*
X137680610Y-65398887D01*
X138425677Y-65249873D02*
X138984477Y-65249873D01*
X138649197Y-64914593D02*
X138425677Y-65920433D01*
X138909970Y-65585153D02*
X138351170Y-65585153D01*
X138686450Y-65920433D02*
X138909970Y-64914593D01*
X139245250Y-65473393D02*
X139841304Y-65473393D01*
X140809890Y-65473393D02*
X141405944Y-65473393D01*
X142188264Y-65771420D02*
X141741224Y-65771420D01*
X141964744Y-65771420D02*
X141964744Y-64989100D01*
X141964744Y-64989100D02*
X141890237Y-65100860D01*
X141890237Y-65100860D02*
X141815731Y-65175367D01*
X141815731Y-65175367D02*
X141741224Y-65212620D01*
X142523544Y-65696913D02*
X142560798Y-65734167D01*
X142560798Y-65734167D02*
X142523544Y-65771420D01*
X142523544Y-65771420D02*
X142486291Y-65734167D01*
X142486291Y-65734167D02*
X142523544Y-65696913D01*
X142523544Y-65696913D02*
X142523544Y-65771420D01*
X142858824Y-65063607D02*
X142896077Y-65026353D01*
X142896077Y-65026353D02*
X142970584Y-64989100D01*
X142970584Y-64989100D02*
X143156851Y-64989100D01*
X143156851Y-64989100D02*
X143231357Y-65026353D01*
X143231357Y-65026353D02*
X143268611Y-65063607D01*
X143268611Y-65063607D02*
X143305864Y-65138113D01*
X143305864Y-65138113D02*
X143305864Y-65212620D01*
X143305864Y-65212620D02*
X143268611Y-65324380D01*
X143268611Y-65324380D02*
X142821571Y-65771420D01*
X142821571Y-65771420D02*
X143305864Y-65771420D01*
X143641144Y-65771420D02*
X143641144Y-64989100D01*
X143641144Y-64989100D02*
X143901918Y-65547900D01*
X143901918Y-65547900D02*
X144162691Y-64989100D01*
X144162691Y-64989100D02*
X144162691Y-65771420D01*
X144535224Y-65771420D02*
X144535224Y-64989100D01*
X144535224Y-64989100D02*
X144795998Y-65547900D01*
X144795998Y-65547900D02*
X145056771Y-64989100D01*
X145056771Y-64989100D02*
X145056771Y-65771420D01*
X134029784Y-67030911D02*
X133657250Y-67030911D01*
X133657250Y-67030911D02*
X133657250Y-66248591D01*
X134253304Y-66807391D02*
X134625837Y-66807391D01*
X134178797Y-67030911D02*
X134439571Y-66248591D01*
X134439571Y-66248591D02*
X134700344Y-67030911D01*
X135110131Y-66658378D02*
X135110131Y-67030911D01*
X134849357Y-66248591D02*
X135110131Y-66658378D01*
X135110131Y-66658378D02*
X135370904Y-66248591D01*
X135631677Y-66621124D02*
X135892451Y-66621124D01*
X136004211Y-67030911D02*
X135631677Y-67030911D01*
X135631677Y-67030911D02*
X135631677Y-66248591D01*
X135631677Y-66248591D02*
X136004211Y-66248591D01*
X136786530Y-67030911D02*
X136525757Y-66658378D01*
X136339490Y-67030911D02*
X136339490Y-66248591D01*
X136339490Y-66248591D02*
X136637517Y-66248591D01*
X136637517Y-66248591D02*
X136712024Y-66285844D01*
X136712024Y-66285844D02*
X136749277Y-66323098D01*
X136749277Y-66323098D02*
X136786530Y-66397604D01*
X136786530Y-66397604D02*
X136786530Y-66509364D01*
X136786530Y-66509364D02*
X136749277Y-66583871D01*
X136749277Y-66583871D02*
X136712024Y-66621124D01*
X136712024Y-66621124D02*
X136637517Y-66658378D01*
X136637517Y-66658378D02*
X136339490Y-66658378D01*
X137084557Y-66993658D02*
X137196317Y-67030911D01*
X137196317Y-67030911D02*
X137382584Y-67030911D01*
X137382584Y-67030911D02*
X137457090Y-66993658D01*
X137457090Y-66993658D02*
X137494344Y-66956404D01*
X137494344Y-66956404D02*
X137531597Y-66881898D01*
X137531597Y-66881898D02*
X137531597Y-66807391D01*
X137531597Y-66807391D02*
X137494344Y-66732884D01*
X137494344Y-66732884D02*
X137457090Y-66695631D01*
X137457090Y-66695631D02*
X137382584Y-66658378D01*
X137382584Y-66658378D02*
X137233570Y-66621124D01*
X137233570Y-66621124D02*
X137159064Y-66583871D01*
X137159064Y-66583871D02*
X137121810Y-66546618D01*
X137121810Y-66546618D02*
X137084557Y-66472111D01*
X137084557Y-66472111D02*
X137084557Y-66397604D01*
X137084557Y-66397604D02*
X137121810Y-66323098D01*
X137121810Y-66323098D02*
X137159064Y-66285844D01*
X137159064Y-66285844D02*
X137233570Y-66248591D01*
X137233570Y-66248591D02*
X137419837Y-66248591D01*
X137419837Y-66248591D02*
X137531597Y-66285844D01*
X138425677Y-66993658D02*
X138537437Y-67030911D01*
X138537437Y-67030911D02*
X138723704Y-67030911D01*
X138723704Y-67030911D02*
X138798210Y-66993658D01*
X138798210Y-66993658D02*
X138835464Y-66956404D01*
X138835464Y-66956404D02*
X138872717Y-66881898D01*
X138872717Y-66881898D02*
X138872717Y-66807391D01*
X138872717Y-66807391D02*
X138835464Y-66732884D01*
X138835464Y-66732884D02*
X138798210Y-66695631D01*
X138798210Y-66695631D02*
X138723704Y-66658378D01*
X138723704Y-66658378D02*
X138574690Y-66621124D01*
X138574690Y-66621124D02*
X138500184Y-66583871D01*
X138500184Y-66583871D02*
X138462930Y-66546618D01*
X138462930Y-66546618D02*
X138425677Y-66472111D01*
X138425677Y-66472111D02*
X138425677Y-66397604D01*
X138425677Y-66397604D02*
X138462930Y-66323098D01*
X138462930Y-66323098D02*
X138500184Y-66285844D01*
X138500184Y-66285844D02*
X138574690Y-66248591D01*
X138574690Y-66248591D02*
X138760957Y-66248591D01*
X138760957Y-66248591D02*
X138872717Y-66285844D01*
X139096237Y-66248591D02*
X139543277Y-66248591D01*
X139319757Y-67030911D02*
X139319757Y-66248591D01*
X139766797Y-66807391D02*
X140139330Y-66807391D01*
X139692290Y-67030911D02*
X139953064Y-66248591D01*
X139953064Y-66248591D02*
X140213837Y-67030911D01*
X140921650Y-66956404D02*
X140884397Y-66993658D01*
X140884397Y-66993658D02*
X140772637Y-67030911D01*
X140772637Y-67030911D02*
X140698130Y-67030911D01*
X140698130Y-67030911D02*
X140586370Y-66993658D01*
X140586370Y-66993658D02*
X140511864Y-66919151D01*
X140511864Y-66919151D02*
X140474610Y-66844644D01*
X140474610Y-66844644D02*
X140437357Y-66695631D01*
X140437357Y-66695631D02*
X140437357Y-66583871D01*
X140437357Y-66583871D02*
X140474610Y-66434858D01*
X140474610Y-66434858D02*
X140511864Y-66360351D01*
X140511864Y-66360351D02*
X140586370Y-66285844D01*
X140586370Y-66285844D02*
X140698130Y-66248591D01*
X140698130Y-66248591D02*
X140772637Y-66248591D01*
X140772637Y-66248591D02*
X140884397Y-66285844D01*
X140884397Y-66285844D02*
X140921650Y-66323098D01*
X141256930Y-67030911D02*
X141256930Y-66248591D01*
X141703970Y-67030911D02*
X141368690Y-66583871D01*
X141703970Y-66248591D02*
X141256930Y-66695631D01*
X142039250Y-66248591D02*
X142039250Y-66881898D01*
X142039250Y-66881898D02*
X142076504Y-66956404D01*
X142076504Y-66956404D02*
X142113757Y-66993658D01*
X142113757Y-66993658D02*
X142188264Y-67030911D01*
X142188264Y-67030911D02*
X142337277Y-67030911D01*
X142337277Y-67030911D02*
X142411784Y-66993658D01*
X142411784Y-66993658D02*
X142449037Y-66956404D01*
X142449037Y-66956404D02*
X142486290Y-66881898D01*
X142486290Y-66881898D02*
X142486290Y-66248591D01*
X142858823Y-67030911D02*
X142858823Y-66248591D01*
X142858823Y-66248591D02*
X143156850Y-66248591D01*
X143156850Y-66248591D02*
X143231357Y-66285844D01*
X143231357Y-66285844D02*
X143268610Y-66323098D01*
X143268610Y-66323098D02*
X143305863Y-66397604D01*
X143305863Y-66397604D02*
X143305863Y-66509364D01*
X143305863Y-66509364D02*
X143268610Y-66583871D01*
X143268610Y-66583871D02*
X143231357Y-66621124D01*
X143231357Y-66621124D02*
X143156850Y-66658378D01*
X143156850Y-66658378D02*
X142858823Y-66658378D01*
X165937264Y-72725591D02*
X166011770Y-72725591D01*
X166011770Y-72725591D02*
X166086277Y-72762844D01*
X166086277Y-72762844D02*
X166123530Y-72800098D01*
X166123530Y-72800098D02*
X166160784Y-72874604D01*
X166160784Y-72874604D02*
X166198037Y-73023618D01*
X166198037Y-73023618D02*
X166198037Y-73209884D01*
X166198037Y-73209884D02*
X166160784Y-73358898D01*
X166160784Y-73358898D02*
X166123530Y-73433404D01*
X166123530Y-73433404D02*
X166086277Y-73470658D01*
X166086277Y-73470658D02*
X166011770Y-73507911D01*
X166011770Y-73507911D02*
X165937264Y-73507911D01*
X165937264Y-73507911D02*
X165862757Y-73470658D01*
X165862757Y-73470658D02*
X165825504Y-73433404D01*
X165825504Y-73433404D02*
X165788250Y-73358898D01*
X165788250Y-73358898D02*
X165750997Y-73209884D01*
X165750997Y-73209884D02*
X165750997Y-73023618D01*
X165750997Y-73023618D02*
X165788250Y-72874604D01*
X165788250Y-72874604D02*
X165825504Y-72800098D01*
X165825504Y-72800098D02*
X165862757Y-72762844D01*
X165862757Y-72762844D02*
X165937264Y-72725591D01*
X166533317Y-73433404D02*
X166570571Y-73470658D01*
X166570571Y-73470658D02*
X166533317Y-73507911D01*
X166533317Y-73507911D02*
X166496064Y-73470658D01*
X166496064Y-73470658D02*
X166533317Y-73433404D01*
X166533317Y-73433404D02*
X166533317Y-73507911D01*
X167278384Y-72725591D02*
X166905850Y-72725591D01*
X166905850Y-72725591D02*
X166868597Y-73098124D01*
X166868597Y-73098124D02*
X166905850Y-73060871D01*
X166905850Y-73060871D02*
X166980357Y-73023618D01*
X166980357Y-73023618D02*
X167166624Y-73023618D01*
X167166624Y-73023618D02*
X167241130Y-73060871D01*
X167241130Y-73060871D02*
X167278384Y-73098124D01*
X167278384Y-73098124D02*
X167315637Y-73172631D01*
X167315637Y-73172631D02*
X167315637Y-73358898D01*
X167315637Y-73358898D02*
X167278384Y-73433404D01*
X167278384Y-73433404D02*
X167241130Y-73470658D01*
X167241130Y-73470658D02*
X167166624Y-73507911D01*
X167166624Y-73507911D02*
X166980357Y-73507911D01*
X166980357Y-73507911D02*
X166905850Y-73470658D01*
X166905850Y-73470658D02*
X166868597Y-73433404D01*
X168395984Y-72725591D02*
X168544997Y-72725591D01*
X168544997Y-72725591D02*
X168619504Y-72762844D01*
X168619504Y-72762844D02*
X168694010Y-72837351D01*
X168694010Y-72837351D02*
X168731264Y-72986364D01*
X168731264Y-72986364D02*
X168731264Y-73247138D01*
X168731264Y-73247138D02*
X168694010Y-73396151D01*
X168694010Y-73396151D02*
X168619504Y-73470658D01*
X168619504Y-73470658D02*
X168544997Y-73507911D01*
X168544997Y-73507911D02*
X168395984Y-73507911D01*
X168395984Y-73507911D02*
X168321477Y-73470658D01*
X168321477Y-73470658D02*
X168246970Y-73396151D01*
X168246970Y-73396151D02*
X168209717Y-73247138D01*
X168209717Y-73247138D02*
X168209717Y-72986364D01*
X168209717Y-72986364D02*
X168246970Y-72837351D01*
X168246970Y-72837351D02*
X168321477Y-72762844D01*
X168321477Y-72762844D02*
X168395984Y-72725591D01*
X168992037Y-72725591D02*
X169513583Y-72725591D01*
X169513583Y-72725591D02*
X168992037Y-73507911D01*
X168992037Y-73507911D02*
X169513583Y-73507911D01*
X137474024Y-80718124D02*
X137585784Y-80755378D01*
X137585784Y-80755378D02*
X137623037Y-80792631D01*
X137623037Y-80792631D02*
X137660290Y-80867138D01*
X137660290Y-80867138D02*
X137660290Y-80978898D01*
X137660290Y-80978898D02*
X137623037Y-81053404D01*
X137623037Y-81053404D02*
X137585784Y-81090658D01*
X137585784Y-81090658D02*
X137511277Y-81127911D01*
X137511277Y-81127911D02*
X137213250Y-81127911D01*
X137213250Y-81127911D02*
X137213250Y-80345591D01*
X137213250Y-80345591D02*
X137474024Y-80345591D01*
X137474024Y-80345591D02*
X137548530Y-80382844D01*
X137548530Y-80382844D02*
X137585784Y-80420098D01*
X137585784Y-80420098D02*
X137623037Y-80494604D01*
X137623037Y-80494604D02*
X137623037Y-80569111D01*
X137623037Y-80569111D02*
X137585784Y-80643618D01*
X137585784Y-80643618D02*
X137548530Y-80680871D01*
X137548530Y-80680871D02*
X137474024Y-80718124D01*
X137474024Y-80718124D02*
X137213250Y-80718124D01*
X138144584Y-80345591D02*
X138293597Y-80345591D01*
X138293597Y-80345591D02*
X138368104Y-80382844D01*
X138368104Y-80382844D02*
X138442610Y-80457351D01*
X138442610Y-80457351D02*
X138479864Y-80606364D01*
X138479864Y-80606364D02*
X138479864Y-80867138D01*
X138479864Y-80867138D02*
X138442610Y-81016151D01*
X138442610Y-81016151D02*
X138368104Y-81090658D01*
X138368104Y-81090658D02*
X138293597Y-81127911D01*
X138293597Y-81127911D02*
X138144584Y-81127911D01*
X138144584Y-81127911D02*
X138070077Y-81090658D01*
X138070077Y-81090658D02*
X137995570Y-81016151D01*
X137995570Y-81016151D02*
X137958317Y-80867138D01*
X137958317Y-80867138D02*
X137958317Y-80606364D01*
X137958317Y-80606364D02*
X137995570Y-80457351D01*
X137995570Y-80457351D02*
X138070077Y-80382844D01*
X138070077Y-80382844D02*
X138144584Y-80345591D01*
X138703383Y-80345591D02*
X139150423Y-80345591D01*
X138926903Y-81127911D02*
X138926903Y-80345591D01*
X139299436Y-80345591D02*
X139746476Y-80345591D01*
X139522956Y-81127911D02*
X139522956Y-80345591D01*
X140156263Y-80345591D02*
X140305276Y-80345591D01*
X140305276Y-80345591D02*
X140379783Y-80382844D01*
X140379783Y-80382844D02*
X140454289Y-80457351D01*
X140454289Y-80457351D02*
X140491543Y-80606364D01*
X140491543Y-80606364D02*
X140491543Y-80867138D01*
X140491543Y-80867138D02*
X140454289Y-81016151D01*
X140454289Y-81016151D02*
X140379783Y-81090658D01*
X140379783Y-81090658D02*
X140305276Y-81127911D01*
X140305276Y-81127911D02*
X140156263Y-81127911D01*
X140156263Y-81127911D02*
X140081756Y-81090658D01*
X140081756Y-81090658D02*
X140007249Y-81016151D01*
X140007249Y-81016151D02*
X139969996Y-80867138D01*
X139969996Y-80867138D02*
X139969996Y-80606364D01*
X139969996Y-80606364D02*
X140007249Y-80457351D01*
X140007249Y-80457351D02*
X140081756Y-80382844D01*
X140081756Y-80382844D02*
X140156263Y-80345591D01*
X140826822Y-81127911D02*
X140826822Y-80345591D01*
X140826822Y-80345591D02*
X141087596Y-80904391D01*
X141087596Y-80904391D02*
X141348369Y-80345591D01*
X141348369Y-80345591D02*
X141348369Y-81127911D01*
X213032250Y-66014911D02*
X213032250Y-65232591D01*
X213032250Y-65232591D02*
X213218517Y-65232591D01*
X213218517Y-65232591D02*
X213330277Y-65269844D01*
X213330277Y-65269844D02*
X213404784Y-65344351D01*
X213404784Y-65344351D02*
X213442037Y-65418858D01*
X213442037Y-65418858D02*
X213479290Y-65567871D01*
X213479290Y-65567871D02*
X213479290Y-65679631D01*
X213479290Y-65679631D02*
X213442037Y-65828644D01*
X213442037Y-65828644D02*
X213404784Y-65903151D01*
X213404784Y-65903151D02*
X213330277Y-65977658D01*
X213330277Y-65977658D02*
X213218517Y-66014911D01*
X213218517Y-66014911D02*
X213032250Y-66014911D01*
X213814570Y-66014911D02*
X213814570Y-65232591D01*
X214447877Y-65605124D02*
X214187103Y-65605124D01*
X214187103Y-66014911D02*
X214187103Y-65232591D01*
X214187103Y-65232591D02*
X214559637Y-65232591D01*
X215118437Y-65605124D02*
X214857663Y-65605124D01*
X214857663Y-66014911D02*
X214857663Y-65232591D01*
X214857663Y-65232591D02*
X215230197Y-65232591D01*
X215528223Y-65605124D02*
X215788997Y-65605124D01*
X215900757Y-66014911D02*
X215528223Y-66014911D01*
X215528223Y-66014911D02*
X215528223Y-65232591D01*
X215528223Y-65232591D02*
X215900757Y-65232591D01*
X216683076Y-66014911D02*
X216422303Y-65642378D01*
X216236036Y-66014911D02*
X216236036Y-65232591D01*
X216236036Y-65232591D02*
X216534063Y-65232591D01*
X216534063Y-65232591D02*
X216608570Y-65269844D01*
X216608570Y-65269844D02*
X216645823Y-65307098D01*
X216645823Y-65307098D02*
X216683076Y-65381604D01*
X216683076Y-65381604D02*
X216683076Y-65493364D01*
X216683076Y-65493364D02*
X216645823Y-65567871D01*
X216645823Y-65567871D02*
X216608570Y-65605124D01*
X216608570Y-65605124D02*
X216534063Y-65642378D01*
X216534063Y-65642378D02*
X216236036Y-65642378D01*
X217018356Y-65605124D02*
X217279130Y-65605124D01*
X217390890Y-66014911D02*
X217018356Y-66014911D01*
X217018356Y-66014911D02*
X217018356Y-65232591D01*
X217018356Y-65232591D02*
X217390890Y-65232591D01*
X217726169Y-66014911D02*
X217726169Y-65232591D01*
X217726169Y-65232591D02*
X218173209Y-66014911D01*
X218173209Y-66014911D02*
X218173209Y-65232591D01*
X218992782Y-65940404D02*
X218955529Y-65977658D01*
X218955529Y-65977658D02*
X218843769Y-66014911D01*
X218843769Y-66014911D02*
X218769262Y-66014911D01*
X218769262Y-66014911D02*
X218657502Y-65977658D01*
X218657502Y-65977658D02*
X218582996Y-65903151D01*
X218582996Y-65903151D02*
X218545742Y-65828644D01*
X218545742Y-65828644D02*
X218508489Y-65679631D01*
X218508489Y-65679631D02*
X218508489Y-65567871D01*
X218508489Y-65567871D02*
X218545742Y-65418858D01*
X218545742Y-65418858D02*
X218582996Y-65344351D01*
X218582996Y-65344351D02*
X218657502Y-65269844D01*
X218657502Y-65269844D02*
X218769262Y-65232591D01*
X218769262Y-65232591D02*
X218843769Y-65232591D01*
X218843769Y-65232591D02*
X218955529Y-65269844D01*
X218955529Y-65269844D02*
X218992782Y-65307098D01*
X219328062Y-65605124D02*
X219588836Y-65605124D01*
X219700596Y-66014911D02*
X219328062Y-66014911D01*
X219328062Y-66014911D02*
X219328062Y-65232591D01*
X219328062Y-65232591D02*
X219700596Y-65232591D01*
X220669182Y-66014911D02*
X220818195Y-66014911D01*
X220818195Y-66014911D02*
X220892702Y-65977658D01*
X220892702Y-65977658D02*
X220929955Y-65940404D01*
X220929955Y-65940404D02*
X221004462Y-65828644D01*
X221004462Y-65828644D02*
X221041715Y-65679631D01*
X221041715Y-65679631D02*
X221041715Y-65381604D01*
X221041715Y-65381604D02*
X221004462Y-65307098D01*
X221004462Y-65307098D02*
X220967208Y-65269844D01*
X220967208Y-65269844D02*
X220892702Y-65232591D01*
X220892702Y-65232591D02*
X220743688Y-65232591D01*
X220743688Y-65232591D02*
X220669182Y-65269844D01*
X220669182Y-65269844D02*
X220631928Y-65307098D01*
X220631928Y-65307098D02*
X220594675Y-65381604D01*
X220594675Y-65381604D02*
X220594675Y-65567871D01*
X220594675Y-65567871D02*
X220631928Y-65642378D01*
X220631928Y-65642378D02*
X220669182Y-65679631D01*
X220669182Y-65679631D02*
X220743688Y-65716884D01*
X220743688Y-65716884D02*
X220892702Y-65716884D01*
X220892702Y-65716884D02*
X220967208Y-65679631D01*
X220967208Y-65679631D02*
X221004462Y-65642378D01*
X221004462Y-65642378D02*
X221041715Y-65567871D01*
X221526009Y-65232591D02*
X221600515Y-65232591D01*
X221600515Y-65232591D02*
X221675022Y-65269844D01*
X221675022Y-65269844D02*
X221712275Y-65307098D01*
X221712275Y-65307098D02*
X221749529Y-65381604D01*
X221749529Y-65381604D02*
X221786782Y-65530618D01*
X221786782Y-65530618D02*
X221786782Y-65716884D01*
X221786782Y-65716884D02*
X221749529Y-65865898D01*
X221749529Y-65865898D02*
X221712275Y-65940404D01*
X221712275Y-65940404D02*
X221675022Y-65977658D01*
X221675022Y-65977658D02*
X221600515Y-66014911D01*
X221600515Y-66014911D02*
X221526009Y-66014911D01*
X221526009Y-66014911D02*
X221451502Y-65977658D01*
X221451502Y-65977658D02*
X221414249Y-65940404D01*
X221414249Y-65940404D02*
X221376995Y-65865898D01*
X221376995Y-65865898D02*
X221339742Y-65716884D01*
X221339742Y-65716884D02*
X221339742Y-65530618D01*
X221339742Y-65530618D02*
X221376995Y-65381604D01*
X221376995Y-65381604D02*
X221414249Y-65307098D01*
X221414249Y-65307098D02*
X221451502Y-65269844D01*
X221451502Y-65269844D02*
X221526009Y-65232591D01*
X222233822Y-66014911D02*
X222159316Y-65977658D01*
X222159316Y-65977658D02*
X222122062Y-65940404D01*
X222122062Y-65940404D02*
X222084809Y-65865898D01*
X222084809Y-65865898D02*
X222084809Y-65642378D01*
X222084809Y-65642378D02*
X222122062Y-65567871D01*
X222122062Y-65567871D02*
X222159316Y-65530618D01*
X222159316Y-65530618D02*
X222233822Y-65493364D01*
X222233822Y-65493364D02*
X222345582Y-65493364D01*
X222345582Y-65493364D02*
X222420089Y-65530618D01*
X222420089Y-65530618D02*
X222457342Y-65567871D01*
X222457342Y-65567871D02*
X222494596Y-65642378D01*
X222494596Y-65642378D02*
X222494596Y-65865898D01*
X222494596Y-65865898D02*
X222457342Y-65940404D01*
X222457342Y-65940404D02*
X222420089Y-65977658D01*
X222420089Y-65977658D02*
X222345582Y-66014911D01*
X222345582Y-66014911D02*
X222233822Y-66014911D01*
X222829875Y-66014911D02*
X222829875Y-65232591D01*
X223165155Y-66014911D02*
X223165155Y-65605124D01*
X223165155Y-65605124D02*
X223127902Y-65530618D01*
X223127902Y-65530618D02*
X223053395Y-65493364D01*
X223053395Y-65493364D02*
X222941635Y-65493364D01*
X222941635Y-65493364D02*
X222867129Y-65530618D01*
X222867129Y-65530618D02*
X222829875Y-65567871D01*
X223537688Y-66014911D02*
X223537688Y-65493364D01*
X223537688Y-65567871D02*
X223574942Y-65530618D01*
X223574942Y-65530618D02*
X223649448Y-65493364D01*
X223649448Y-65493364D02*
X223761208Y-65493364D01*
X223761208Y-65493364D02*
X223835715Y-65530618D01*
X223835715Y-65530618D02*
X223872968Y-65605124D01*
X223872968Y-65605124D02*
X223872968Y-66014911D01*
X223872968Y-65605124D02*
X223910222Y-65530618D01*
X223910222Y-65530618D02*
X223984728Y-65493364D01*
X223984728Y-65493364D02*
X224096488Y-65493364D01*
X224096488Y-65493364D02*
X224170995Y-65530618D01*
X224170995Y-65530618D02*
X224208248Y-65605124D01*
X224208248Y-65605124D02*
X224208248Y-66014911D01*
X224580781Y-65716884D02*
X225176835Y-65716884D01*
X224878808Y-66014911D02*
X224878808Y-65418858D01*
X226108168Y-65195338D02*
X225437608Y-66201178D01*
X226368941Y-65716884D02*
X226964995Y-65716884D01*
X227747315Y-66014911D02*
X227300275Y-66014911D01*
X227523795Y-66014911D02*
X227523795Y-65232591D01*
X227523795Y-65232591D02*
X227449288Y-65344351D01*
X227449288Y-65344351D02*
X227374782Y-65418858D01*
X227374782Y-65418858D02*
X227300275Y-65456111D01*
X228231609Y-65232591D02*
X228306115Y-65232591D01*
X228306115Y-65232591D02*
X228380622Y-65269844D01*
X228380622Y-65269844D02*
X228417875Y-65307098D01*
X228417875Y-65307098D02*
X228455129Y-65381604D01*
X228455129Y-65381604D02*
X228492382Y-65530618D01*
X228492382Y-65530618D02*
X228492382Y-65716884D01*
X228492382Y-65716884D02*
X228455129Y-65865898D01*
X228455129Y-65865898D02*
X228417875Y-65940404D01*
X228417875Y-65940404D02*
X228380622Y-65977658D01*
X228380622Y-65977658D02*
X228306115Y-66014911D01*
X228306115Y-66014911D02*
X228231609Y-66014911D01*
X228231609Y-66014911D02*
X228157102Y-65977658D01*
X228157102Y-65977658D02*
X228119849Y-65940404D01*
X228119849Y-65940404D02*
X228082595Y-65865898D01*
X228082595Y-65865898D02*
X228045342Y-65716884D01*
X228045342Y-65716884D02*
X228045342Y-65530618D01*
X228045342Y-65530618D02*
X228082595Y-65381604D01*
X228082595Y-65381604D02*
X228119849Y-65307098D01*
X228119849Y-65307098D02*
X228157102Y-65269844D01*
X228157102Y-65269844D02*
X228231609Y-65232591D01*
X228790409Y-66014911D02*
X229386462Y-65232591D01*
X228902169Y-65232591D02*
X228976676Y-65269844D01*
X228976676Y-65269844D02*
X229013929Y-65344351D01*
X229013929Y-65344351D02*
X228976676Y-65418858D01*
X228976676Y-65418858D02*
X228902169Y-65456111D01*
X228902169Y-65456111D02*
X228827662Y-65418858D01*
X228827662Y-65418858D02*
X228790409Y-65344351D01*
X228790409Y-65344351D02*
X228827662Y-65269844D01*
X228827662Y-65269844D02*
X228902169Y-65232591D01*
X229349209Y-65977658D02*
X229386462Y-65903151D01*
X229386462Y-65903151D02*
X229349209Y-65828644D01*
X229349209Y-65828644D02*
X229274702Y-65791391D01*
X229274702Y-65791391D02*
X229200196Y-65828644D01*
X229200196Y-65828644D02*
X229162942Y-65903151D01*
X229162942Y-65903151D02*
X229200196Y-65977658D01*
X229200196Y-65977658D02*
X229274702Y-66014911D01*
X229274702Y-66014911D02*
X229349209Y-65977658D01*
X157914250Y-79222911D02*
X157914250Y-78440591D01*
X157914250Y-78440591D02*
X158212277Y-78440591D01*
X158212277Y-78440591D02*
X158286784Y-78477844D01*
X158286784Y-78477844D02*
X158324037Y-78515098D01*
X158324037Y-78515098D02*
X158361290Y-78589604D01*
X158361290Y-78589604D02*
X158361290Y-78701364D01*
X158361290Y-78701364D02*
X158324037Y-78775871D01*
X158324037Y-78775871D02*
X158286784Y-78813124D01*
X158286784Y-78813124D02*
X158212277Y-78850378D01*
X158212277Y-78850378D02*
X157914250Y-78850378D01*
X158696570Y-79222911D02*
X158696570Y-78440591D01*
X158696570Y-78440591D02*
X158994597Y-78440591D01*
X158994597Y-78440591D02*
X159069104Y-78477844D01*
X159069104Y-78477844D02*
X159106357Y-78515098D01*
X159106357Y-78515098D02*
X159143610Y-78589604D01*
X159143610Y-78589604D02*
X159143610Y-78701364D01*
X159143610Y-78701364D02*
X159106357Y-78775871D01*
X159106357Y-78775871D02*
X159069104Y-78813124D01*
X159069104Y-78813124D02*
X158994597Y-78850378D01*
X158994597Y-78850378D02*
X158696570Y-78850378D01*
X164914490Y-65232591D02*
X165361530Y-65232591D01*
X165138010Y-66014911D02*
X165138010Y-65232591D01*
X165622303Y-66014911D02*
X165622303Y-65232591D01*
X165622303Y-65605124D02*
X166069343Y-65605124D01*
X166069343Y-66014911D02*
X166069343Y-65232591D01*
X166441876Y-66014911D02*
X166441876Y-65232591D01*
X167261449Y-65940404D02*
X167224196Y-65977658D01*
X167224196Y-65977658D02*
X167112436Y-66014911D01*
X167112436Y-66014911D02*
X167037929Y-66014911D01*
X167037929Y-66014911D02*
X166926169Y-65977658D01*
X166926169Y-65977658D02*
X166851663Y-65903151D01*
X166851663Y-65903151D02*
X166814409Y-65828644D01*
X166814409Y-65828644D02*
X166777156Y-65679631D01*
X166777156Y-65679631D02*
X166777156Y-65567871D01*
X166777156Y-65567871D02*
X166814409Y-65418858D01*
X166814409Y-65418858D02*
X166851663Y-65344351D01*
X166851663Y-65344351D02*
X166926169Y-65269844D01*
X166926169Y-65269844D02*
X167037929Y-65232591D01*
X167037929Y-65232591D02*
X167112436Y-65232591D01*
X167112436Y-65232591D02*
X167224196Y-65269844D01*
X167224196Y-65269844D02*
X167261449Y-65307098D01*
X167596729Y-66014911D02*
X167596729Y-65232591D01*
X168043769Y-66014911D02*
X167708489Y-65567871D01*
X168043769Y-65232591D02*
X167596729Y-65679631D01*
X168379049Y-66014911D02*
X168379049Y-65232591D01*
X168379049Y-65232591D02*
X168826089Y-66014911D01*
X168826089Y-66014911D02*
X168826089Y-65232591D01*
X169198622Y-65605124D02*
X169459396Y-65605124D01*
X169571156Y-66014911D02*
X169198622Y-66014911D01*
X169198622Y-66014911D02*
X169198622Y-65232591D01*
X169198622Y-65232591D02*
X169571156Y-65232591D01*
X169869182Y-65977658D02*
X169980942Y-66014911D01*
X169980942Y-66014911D02*
X170167209Y-66014911D01*
X170167209Y-66014911D02*
X170241715Y-65977658D01*
X170241715Y-65977658D02*
X170278969Y-65940404D01*
X170278969Y-65940404D02*
X170316222Y-65865898D01*
X170316222Y-65865898D02*
X170316222Y-65791391D01*
X170316222Y-65791391D02*
X170278969Y-65716884D01*
X170278969Y-65716884D02*
X170241715Y-65679631D01*
X170241715Y-65679631D02*
X170167209Y-65642378D01*
X170167209Y-65642378D02*
X170018195Y-65605124D01*
X170018195Y-65605124D02*
X169943689Y-65567871D01*
X169943689Y-65567871D02*
X169906435Y-65530618D01*
X169906435Y-65530618D02*
X169869182Y-65456111D01*
X169869182Y-65456111D02*
X169869182Y-65381604D01*
X169869182Y-65381604D02*
X169906435Y-65307098D01*
X169906435Y-65307098D02*
X169943689Y-65269844D01*
X169943689Y-65269844D02*
X170018195Y-65232591D01*
X170018195Y-65232591D02*
X170204462Y-65232591D01*
X170204462Y-65232591D02*
X170316222Y-65269844D01*
X170614249Y-65977658D02*
X170726009Y-66014911D01*
X170726009Y-66014911D02*
X170912276Y-66014911D01*
X170912276Y-66014911D02*
X170986782Y-65977658D01*
X170986782Y-65977658D02*
X171024036Y-65940404D01*
X171024036Y-65940404D02*
X171061289Y-65865898D01*
X171061289Y-65865898D02*
X171061289Y-65791391D01*
X171061289Y-65791391D02*
X171024036Y-65716884D01*
X171024036Y-65716884D02*
X170986782Y-65679631D01*
X170986782Y-65679631D02*
X170912276Y-65642378D01*
X170912276Y-65642378D02*
X170763262Y-65605124D01*
X170763262Y-65605124D02*
X170688756Y-65567871D01*
X170688756Y-65567871D02*
X170651502Y-65530618D01*
X170651502Y-65530618D02*
X170614249Y-65456111D01*
X170614249Y-65456111D02*
X170614249Y-65381604D01*
X170614249Y-65381604D02*
X170651502Y-65307098D01*
X170651502Y-65307098D02*
X170688756Y-65269844D01*
X170688756Y-65269844D02*
X170763262Y-65232591D01*
X170763262Y-65232591D02*
X170949529Y-65232591D01*
X170949529Y-65232591D02*
X171061289Y-65269844D01*
D15*
%TO.C,ANT1*%
X98136200Y-74000000D02*
X98136200Y-78000000D01*
X98136200Y-75180000D02*
X100136200Y-75180000D01*
X100136200Y-74000000D02*
X98136200Y-74000000D01*
X100136200Y-74000000D02*
X100136200Y-78000000D01*
D16*
%TO.C,C1*%
X104445500Y-70172000D02*
X104445500Y-68748000D01*
X104572500Y-68621000D02*
X105107500Y-68621000D01*
X105107500Y-70299000D02*
X104572500Y-70299000D01*
X105234500Y-68748000D02*
X105234500Y-70172000D01*
X104445500Y-68748000D02*
G75*
G02*
X104572500Y-68621000I127000J0D01*
G01*
X104572500Y-70299000D02*
G75*
G02*
X104445500Y-70172000I-1J126999D01*
G01*
X105107500Y-68621000D02*
G75*
G02*
X105234500Y-68748000I0J-127000D01*
G01*
X105234500Y-70172000D02*
G75*
G02*
X105107500Y-70299000I-126999J-1D01*
G01*
D15*
%TO.C,K2*%
X117056000Y-78151200D02*
X117056000Y-80751200D01*
X118656000Y-80751200D02*
X118656000Y-78341700D01*
D17*
X118999000Y-77927200D02*
G75*
G02*
X118745000Y-77927200I-127000J0D01*
G01*
X118745000Y-77927200D02*
G75*
G02*
X118999000Y-77927200I127000J0D01*
G01*
D15*
%TO.C,K1*%
X117056000Y-64994000D02*
X117056000Y-67403500D01*
X118656000Y-67594000D02*
X118656000Y-64994000D01*
D17*
X116967000Y-67818000D02*
G75*
G02*
X116713000Y-67818000I-127000J0D01*
G01*
X116713000Y-67818000D02*
G75*
G02*
X116967000Y-67818000I127000J0D01*
G01*
D18*
%TO.C,X1*%
X106936400Y-71777200D02*
X106936400Y-71377200D01*
X108736400Y-71777200D02*
X108736400Y-71377200D01*
D17*
X109106400Y-72212200D02*
G75*
G02*
X108852400Y-72212200I-127000J0D01*
G01*
X108852400Y-72212200D02*
G75*
G02*
X109106400Y-72212200I127000J0D01*
G01*
D18*
%TO.C,CHG1*%
X113639600Y-66560700D02*
X115417600Y-66560700D01*
X113639600Y-67449700D02*
X113639600Y-66560700D01*
X115417600Y-66560700D02*
X115671600Y-66814700D01*
X115417600Y-67449700D02*
X113639600Y-67449700D01*
D19*
X115531900Y-67132200D02*
X115531900Y-66878200D01*
D18*
X115671600Y-66814700D02*
X115671600Y-67195700D01*
X115671600Y-67195700D02*
X115417600Y-67449700D01*
D16*
%TO.C,C13*%
X102675500Y-78552000D02*
X102675500Y-77128000D01*
X102802500Y-77001000D02*
X103337500Y-77001000D01*
X103337500Y-78679000D02*
X102802500Y-78679000D01*
X103464500Y-77128000D02*
X103464500Y-78552000D01*
X102675500Y-77128000D02*
G75*
G02*
X102802500Y-77001000I126999J1D01*
G01*
X102802500Y-78679000D02*
G75*
G02*
X102675500Y-78552000I0J127000D01*
G01*
X103337500Y-77001000D02*
G75*
G02*
X103464500Y-77128000I1J-126999D01*
G01*
X103464500Y-78552000D02*
G75*
G02*
X103337500Y-78679000I-127000J0D01*
G01*
D18*
%TO.C,D4*%
X113639600Y-78244700D02*
X115417600Y-78244700D01*
X113639600Y-79133700D02*
X113639600Y-78244700D01*
X115417600Y-78244700D02*
X115671600Y-78498700D01*
X115417600Y-79133700D02*
X113639600Y-79133700D01*
D19*
X115531900Y-78816200D02*
X115531900Y-78562200D01*
D18*
X115671600Y-78498700D02*
X115671600Y-78879700D01*
X115671600Y-78879700D02*
X115417600Y-79133700D01*
D20*
%TO.C,Q3*%
X102610000Y-72510000D02*
X103210000Y-72510000D01*
X102610000Y-73510000D02*
X102610000Y-72510000D01*
X103210000Y-72510000D02*
X103210000Y-73510000D01*
X103210000Y-73510000D02*
X102610000Y-73510000D01*
D18*
%TO.C,D3*%
X109328000Y-70494600D02*
X109537500Y-70332600D01*
X109328000Y-71694600D02*
X109328000Y-70494600D01*
X109537500Y-70332600D02*
X109918500Y-70332600D01*
X109918500Y-70332600D02*
X110128000Y-70494600D01*
X110128000Y-70494600D02*
X110128000Y-71694600D01*
X110128000Y-71694600D02*
X109328000Y-71694600D01*
D20*
%TO.C,Q2*%
X108034200Y-69092800D02*
X109034200Y-69092800D01*
X108034200Y-69692800D02*
X108034200Y-69092800D01*
X109034200Y-69092800D02*
X109034200Y-69692800D01*
X109034200Y-69692800D02*
X108034200Y-69692800D01*
D15*
%TO.C,U1*%
X105950000Y-68980000D02*
X106790000Y-68980000D01*
X105950000Y-70180000D02*
X105950000Y-68980000D01*
X106790000Y-68980000D02*
X106790000Y-70180000D01*
X106790000Y-70180000D02*
X105950000Y-70180000D01*
D17*
X105811200Y-68691000D02*
G75*
G02*
X105557200Y-68691000I-127000J0D01*
G01*
X105557200Y-68691000D02*
G75*
G02*
X105811200Y-68691000I127000J0D01*
G01*
D16*
%TO.C,C4*%
X103161800Y-67933100D02*
X103161800Y-67398100D01*
X103288800Y-67271100D02*
X104712800Y-67271100D01*
X104712800Y-68060100D02*
X103288800Y-68060100D01*
X104839800Y-67398100D02*
X104839800Y-67933100D01*
X103161800Y-67398100D02*
G75*
G02*
X103288800Y-67271100I127000J0D01*
G01*
X103288800Y-68060100D02*
G75*
G02*
X103161800Y-67933100I0J127000D01*
G01*
X104712800Y-67271100D02*
G75*
G02*
X104839800Y-67398100I1J-126999D01*
G01*
X104839800Y-67933100D02*
G75*
G02*
X104712800Y-68060100I-126999J-1D01*
G01*
%TO.C,D2*%
X110806700Y-70765200D02*
X110806700Y-69341200D01*
X110933700Y-69214200D02*
X111468700Y-69214200D01*
X111468700Y-70892200D02*
X110933700Y-70892200D01*
X111595700Y-69341200D02*
X111595700Y-70765200D01*
X110806700Y-69341200D02*
G75*
G02*
X110933700Y-69214200I126999J1D01*
G01*
X110933700Y-70892200D02*
G75*
G02*
X110806700Y-70765200I0J127000D01*
G01*
X111468700Y-69214200D02*
G75*
G02*
X111595700Y-69341200I1J-126999D01*
G01*
X111595700Y-70765200D02*
G75*
G02*
X111468700Y-70892200I-127000J0D01*
G01*
D15*
%TO.C,U5*%
X102312893Y-71097990D02*
X102836152Y-71621249D01*
X103210919Y-70157538D02*
X103762462Y-70709081D01*
X102958451Y-70016117D02*
G75*
G02*
X102812849Y-70016117I-72801J0D01*
G01*
X102812849Y-70016117D02*
G75*
G02*
X102958451Y-70016117I72801J0D01*
G01*
D18*
%TO.C,USB1*%
X115036400Y-68380000D02*
X116671400Y-68380000D01*
X116671400Y-77380000D02*
X114909400Y-77380000D01*
X119100400Y-68380000D02*
X120481400Y-68380000D01*
X120481400Y-68380000D02*
X120481400Y-77380000D01*
X120481400Y-77380000D02*
X119100400Y-77380000D01*
%TO.C,ANT2*%
X98120200Y-67280000D02*
X98299700Y-67280000D01*
X98120200Y-69880000D02*
X98120200Y-67280000D01*
X98299700Y-69880000D02*
X98120200Y-69880000D01*
X100607700Y-67280000D02*
X100787200Y-67280000D01*
X100787200Y-67280000D02*
X100787200Y-67818000D01*
X100787200Y-69880000D02*
X100607700Y-69880000D01*
X100787200Y-69880000D02*
X100787200Y-69342000D01*
D21*
G36*
X98374200Y-69088000D02*
G01*
X97739200Y-69088000D01*
X97739200Y-68072000D01*
X98374200Y-68072000D01*
X98374200Y-69088000D01*
G37*
G36*
X101168200Y-68046600D02*
G01*
X100406200Y-68046600D01*
X100406200Y-67564000D01*
X101168200Y-67564000D01*
X101168200Y-68046600D01*
G37*
G36*
X101168200Y-69596000D02*
G01*
X100406200Y-69596000D01*
X100406200Y-69113400D01*
X101168200Y-69113400D01*
X101168200Y-69596000D01*
G37*
D15*
%TO.C,U4*%
X104335000Y-78307400D02*
X104335000Y-77857400D01*
X104785000Y-73307400D02*
X104335000Y-73757400D01*
X104785000Y-78307400D02*
X104335000Y-78307400D01*
X108885000Y-73307400D02*
X109335000Y-73307400D01*
X109335000Y-73307400D02*
X109335000Y-73757400D01*
X109335000Y-77857400D02*
X109335000Y-78307400D01*
X109335000Y-78307400D02*
X108885000Y-78307400D01*
D22*
X104235000Y-73007400D02*
G75*
G02*
X103935000Y-73007400I-150000J0D01*
G01*
X103935000Y-73007400D02*
G75*
G02*
X104235000Y-73007400I150000J0D01*
G01*
D18*
%TO.C,D1*%
X108921600Y-67218000D02*
X109131100Y-67056000D01*
X108921600Y-68418000D02*
X108921600Y-67218000D01*
X109131100Y-67056000D02*
X109512100Y-67056000D01*
X109512100Y-67056000D02*
X109721600Y-67218000D01*
X109721600Y-67218000D02*
X109721600Y-68418000D01*
X109721600Y-68418000D02*
X108921600Y-68418000D01*
D15*
%TO.C,U3*%
X109427400Y-69110600D02*
X110587400Y-69110600D01*
X109427400Y-70030600D02*
X109427400Y-69110600D01*
X110587400Y-69110600D02*
X110587400Y-70030600D01*
X110587400Y-70030600D02*
X109427400Y-70030600D01*
D17*
X111023400Y-68808600D02*
G75*
G02*
X110769400Y-68808600I-127000J0D01*
G01*
X110769400Y-68808600D02*
G75*
G02*
X111023400Y-68808600I127000J0D01*
G01*
D18*
%TO.C,L1*%
X105073000Y-67145000D02*
X107867000Y-67145000D01*
X105073000Y-68415000D02*
X105073000Y-67145000D01*
X107867000Y-67145000D02*
X107867000Y-68415000D01*
X107867000Y-68415000D02*
X105073000Y-68415000D01*
D20*
%TO.C,Q1*%
X109910600Y-67318000D02*
X110510600Y-67318000D01*
X109910600Y-68318000D02*
X109910600Y-67318000D01*
X110510600Y-67318000D02*
X110510600Y-68318000D01*
X110510600Y-68318000D02*
X109910600Y-68318000D01*
%TD*%
D23*
X103708200Y-79095600D02*
G75*
G02*
X103454200Y-79349600I-254000J0D01*
G01*
X102438200Y-79095600D02*
G75*
G02*
X102692200Y-78841600I254000J0D01*
G01*
X102692200Y-66395600D02*
X103454200Y-66395600D01*
X102692200Y-79349600D02*
G75*
G02*
X102438200Y-79095600I0J254000D01*
G01*
X103454200Y-66395600D02*
G75*
G02*
X103708200Y-66649600I0J-254000D01*
G01*
X103454200Y-66903600D02*
X102692200Y-66903600D01*
X102438200Y-66649600D02*
G75*
G02*
X102692200Y-66395600I254000J0D01*
G01*
X102692200Y-78841600D02*
X103454200Y-78841600D01*
X103454200Y-78841600D02*
G75*
G02*
X103708200Y-79095600I0J-254000D01*
G01*
X103454200Y-79349600D02*
X102692200Y-79349600D01*
X103708200Y-66649600D02*
G75*
G02*
X103454200Y-66903600I-254000J0D01*
G01*
X102692200Y-66903600D02*
G75*
G02*
X102438200Y-66649600I0J254000D01*
G01*
D24*
%TO.C,U2*%
X97983700Y-65891000D02*
X97983700Y-79861000D01*
X99888700Y-63986000D02*
X117033700Y-63986000D01*
X99888700Y-81766000D02*
X117033700Y-81766000D01*
X118938700Y-79861000D02*
X118938700Y-65891000D01*
X97983700Y-65891000D02*
G75*
G02*
X99888700Y-63986000I1905001J-1D01*
G01*
X99888700Y-81766000D02*
G75*
G02*
X97983700Y-79861000I1J1905001D01*
G01*
X117033700Y-63986000D02*
G75*
G02*
X118938700Y-65891000I0J-1905000D01*
G01*
X118938700Y-79861000D02*
G75*
G02*
X117033700Y-81766000I-1905000J0D01*
G01*
%TD*%
M02*
