%TF.GenerationSoftware,KiCad,Pcbnew,8.0.0*%
%TF.CreationDate,2025-02-11T16:30:34+08:00*%
%TF.ProjectId,XIAO ESP32 C6,5849414f-2045-4535-9033-322043362e6b,rev?*%
%TF.SameCoordinates,Original*%
%TF.FileFunction,Copper,L4,Bot*%
%TF.FilePolarity,Positive*%
%FSLAX46Y46*%
G04 Gerber Fmt 4.6, Leading zero omitted, Abs format (unit mm)*
G04 Created by KiCad (PCBNEW 8.0.0) date 2025-02-11 16:30:34*
%MOMM*%
%LPD*%
G01*
G04 APERTURE LIST*
G04 Aperture macros list*
%AMRoundRect*
0 Rectangle with rounded corners*
0 $1 Rounding radius*
0 $2 $3 $4 $5 $6 $7 $8 $9 X,Y pos of 4 corners*
0 Add a 4 corners polygon primitive as box body*
4,1,4,$2,$3,$4,$5,$6,$7,$8,$9,$2,$3,0*
0 Add four circle primitives for the rounded corners*
1,1,$1+$1,$2,$3*
1,1,$1+$1,$4,$5*
1,1,$1+$1,$6,$7*
1,1,$1+$1,$8,$9*
0 Add four rect primitives between the rounded corners*
20,1,$1+$1,$2,$3,$4,$5,0*
20,1,$1+$1,$4,$5,$6,$7,0*
20,1,$1+$1,$6,$7,$8,$9,0*
20,1,$1+$1,$8,$9,$2,$3,0*%
%AMOutline5P*
0 Free polygon, 5 corners , with rotation*
0 The origin of the aperture is its center*
0 number of corners: always 5*
0 $1 to $10 corner X, Y*
0 $11 Rotation angle, in degrees counterclockwise*
0 create outline with 5 corners*
4,1,5,$1,$2,$3,$4,$5,$6,$7,$8,$9,$10,$1,$2,$11*%
%AMOutline6P*
0 Free polygon, 6 corners , with rotation*
0 The origin of the aperture is its center*
0 number of corners: always 6*
0 $1 to $12 corner X, Y*
0 $13 Rotation angle, in degrees counterclockwise*
0 create outline with 6 corners*
4,1,6,$1,$2,$3,$4,$5,$6,$7,$8,$9,$10,$11,$12,$1,$2,$13*%
%AMOutline7P*
0 Free polygon, 7 corners , with rotation*
0 The origin of the aperture is its center*
0 number of corners: always 7*
0 $1 to $14 corner X, Y*
0 $15 Rotation angle, in degrees counterclockwise*
0 create outline with 7 corners*
4,1,7,$1,$2,$3,$4,$5,$6,$7,$8,$9,$10,$11,$12,$13,$14,$1,$2,$15*%
%AMOutline8P*
0 Free polygon, 8 corners , with rotation*
0 The origin of the aperture is its center*
0 number of corners: always 8*
0 $1 to $16 corner X, Y*
0 $17 Rotation angle, in degrees counterclockwise*
0 create outline with 8 corners*
4,1,8,$1,$2,$3,$4,$5,$6,$7,$8,$9,$10,$11,$12,$13,$14,$15,$16,$1,$2,$17*%
%AMFreePoly0*
4,1,22,0.813000,-0.662500,0.812944,-0.662500,0.813000,-0.663000,0.792616,-0.843910,0.732488,-1.015747,0.635629,-1.169897,0.506897,-1.298629,0.352747,-1.395488,0.180910,-1.455616,0.000000,-1.476000,-0.180910,-1.455616,-0.352747,-1.395488,-0.506897,-1.298629,-0.635629,-1.169897,-0.732488,-1.015747,-0.792616,-0.843910,-0.813000,-0.663000,-0.812944,-0.662500,-0.813000,-0.662500,-0.813000,0.662500,
0.813000,0.662500,0.813000,-0.662500,0.813000,-0.662500,$1*%
%AMFreePoly1*
4,1,22,0.813000,-0.604000,0.812944,-0.604000,0.813000,-0.604500,0.792616,-0.785410,0.732488,-0.957247,0.635629,-1.111397,0.506897,-1.240129,0.352747,-1.336988,0.180910,-1.397116,0.000000,-1.417500,-0.180910,-1.397116,-0.352747,-1.336988,-0.506897,-1.240129,-0.635629,-1.111397,-0.732488,-0.957247,-0.792616,-0.785410,-0.813000,-0.604500,-0.812944,-0.604000,-0.813000,-0.604000,-0.813000,0.604000,
0.813000,0.604000,0.813000,-0.604000,0.813000,-0.604000,$1*%
G04 Aperture macros list end*
%TA.AperFunction,ComponentPad*%
%ADD10O,2.000000X1.000000*%
%TD*%
%TA.AperFunction,ComponentPad*%
%ADD11O,2.200000X1.100000*%
%TD*%
%TA.AperFunction,ComponentPad*%
%ADD12C,1.270000*%
%TD*%
%TA.AperFunction,SMDPad,CuDef*%
%ADD13FreePoly0,0.000000*%
%TD*%
%TA.AperFunction,ComponentPad*%
%ADD14Outline8P,-0.750000X0.310660X-0.310660X0.750000X0.310660X0.750000X0.750000X0.310660X0.750000X-0.310660X0.310660X-0.750000X-0.310660X-0.750000X-0.750000X-0.310660X270.000000*%
%TD*%
%TA.AperFunction,SMDPad,CuDef*%
%ADD15FreePoly1,0.000000*%
%TD*%
%TA.AperFunction,ComponentPad*%
%ADD16C,1.400000*%
%TD*%
%TA.AperFunction,ComponentPad*%
%ADD17C,1.500000*%
%TD*%
%TA.AperFunction,ComponentPad*%
%ADD18C,1.524000*%
%TD*%
%TA.AperFunction,SMDPad,CuDef*%
%ADD19FreePoly0,180.000000*%
%TD*%
%TA.AperFunction,SMDPad,CuDef*%
%ADD20FreePoly1,180.000000*%
%TD*%
%TA.AperFunction,SMDPad,CuDef*%
%ADD21RoundRect,0.571500X0.000000X0.000000X0.000000X0.000000X0.000000X0.000000X0.000000X0.000000X0*%
%TD*%
%TA.AperFunction,SMDPad,CuDef*%
%ADD22RoundRect,0.254000X-0.762000X-0.254000X0.762000X-0.254000X0.762000X0.254000X-0.762000X0.254000X0*%
%TD*%
%TA.AperFunction,SMDPad,CuDef*%
%ADD23RoundRect,0.254000X0.762000X0.254000X-0.762000X0.254000X-0.762000X-0.254000X0.762000X-0.254000X0*%
%TD*%
%TA.AperFunction,ViaPad*%
%ADD24C,0.406400*%
%TD*%
%TA.AperFunction,Conductor*%
%ADD25C,0.254000*%
%TD*%
%TA.AperFunction,Conductor*%
%ADD26C,0.508000*%
%TD*%
%TA.AperFunction,Conductor*%
%ADD27C,0.381000*%
%TD*%
%TA.AperFunction,Conductor*%
%ADD28C,0.141986*%
%TD*%
%TA.AperFunction,Conductor*%
%ADD29C,0.349250*%
%TD*%
%TA.AperFunction,Conductor*%
%ADD30C,0.355600*%
%TD*%
%TA.AperFunction,Conductor*%
%ADD31C,0.101600*%
%TD*%
%TA.AperFunction,Profile*%
%ADD32C,0.076200*%
%TD*%
%TA.AperFunction,Profile*%
%ADD33C,0.025400*%
%TD*%
G04 APERTURE END LIST*
D10*
%TO.P,USB1,S1,S1*%
%TO.N,GND*%
X117881400Y-77180000D03*
%TO.P,USB1,S2,S2*%
X117881400Y-68580000D03*
D11*
%TO.P,USB1,S3,S3*%
X113681400Y-77180000D03*
%TO.P,USB1,S4,S4*%
X113681400Y-68580000D03*
%TD*%
D12*
%TO.P,U2,1,PA02_A0_D0*%
%TO.N,GPIO0{slash}XTAL_32K_P{slash}ADC1_CH0*%
X116017700Y-63986000D03*
D13*
X116017700Y-64598000D03*
D14*
X116017700Y-65256000D03*
D12*
%TO.P,U2,2,PA4_A1_D1*%
%TO.N,GPIO1{slash}XTAL_32K_N{slash}ADC1_CH1*%
X113477700Y-63986000D03*
D15*
X113477700Y-64539000D03*
D16*
X113477700Y-65256000D03*
D12*
%TO.P,U2,3,PA10_A2_D2*%
%TO.N,GPIO2{slash}ADC1_CH2*%
X110937700Y-63986000D03*
D13*
X110937700Y-64598000D03*
D17*
X110937700Y-65256000D03*
D12*
%TO.P,U2,4,PA11_A3_D3*%
%TO.N,GPIO21{slash}SDIO_D1*%
X108397700Y-63986000D03*
D13*
X108397700Y-64598000D03*
D17*
X108397700Y-65256000D03*
D12*
%TO.P,U2,5,PA8_A4_D4_SDA*%
%TO.N,GPIO22{slash}SDIO_D2*%
X105857700Y-63986000D03*
D13*
X105857700Y-64598000D03*
D17*
X105857700Y-65256000D03*
D12*
%TO.P,U2,6,PA9_A5_D5_SCL*%
%TO.N,GPIO23{slash}SDIO_D3*%
X103317700Y-63986000D03*
D15*
X103317700Y-64539000D03*
D16*
X103317700Y-65256000D03*
D12*
%TO.P,U2,7,PB08_A6_D6_TX*%
%TO.N,D6{slash}TX*%
X100777700Y-63986000D03*
D13*
X100777700Y-64598000D03*
D17*
X100777700Y-65256000D03*
D18*
%TO.P,U2,8,PB09_A7_D7_RX*%
%TO.N,D7{slash}RX*%
X100777700Y-80496000D03*
D19*
X100777700Y-81154000D03*
D12*
X100777700Y-81766000D03*
D16*
%TO.P,U2,9,PA7_A8_D8_SCK*%
%TO.N,GPIO19{slash}SDIO_CLK*%
X103317700Y-80496000D03*
D20*
X103317700Y-81213000D03*
D12*
X103317700Y-81766000D03*
D17*
%TO.P,U2,10,PA5_A9_D9_MISO*%
%TO.N,GPIO20{slash}SDIO_D0*%
X105857700Y-80496000D03*
D19*
X105857700Y-81154000D03*
D12*
X105857700Y-81766000D03*
D17*
%TO.P,U2,11,PA6_A10_D10_MOSI*%
%TO.N,GPIO18{slash}SDIO_CMD*%
X108397700Y-80496000D03*
D19*
X108397700Y-81154000D03*
D12*
X108397700Y-81766000D03*
D17*
%TO.P,U2,12,3V3*%
%TO.N,+3V3*%
X110937700Y-80496000D03*
D19*
X110937700Y-81154000D03*
D12*
X110937700Y-81766000D03*
D16*
%TO.P,U2,13,GND*%
%TO.N,GND*%
X113477700Y-80496000D03*
D20*
X113477700Y-81213000D03*
D12*
X113477700Y-81766000D03*
D17*
%TO.P,U2,14,5V*%
%TO.N,VBUS*%
X116017700Y-80496000D03*
D19*
X116017700Y-81154000D03*
D12*
X116017700Y-81766000D03*
%TD*%
D21*
%TO.P,TP4,1,T*%
%TO.N,GPIO4{slash}MTMS*%
X111963200Y-71602600D03*
%TD*%
%TO.P,TP6,1,T*%
%TO.N,GPIO6{slash}MTCK*%
X111963200Y-74142600D03*
%TD*%
D22*
%TO.P,TP9,1,T*%
%TO.N,VBAT*%
X102870000Y-71094600D03*
%TD*%
D21*
%TO.P,TP1,1,T*%
%TO.N,+3V3*%
X109480000Y-74050000D03*
%TD*%
%TO.P,TP7,1,T*%
%TO.N,GPIO7{slash}MTDO*%
X117043200Y-74142600D03*
%TD*%
D23*
%TO.P,TP10,1,T*%
%TO.N,GND*%
X102870000Y-73634600D03*
%TD*%
D21*
%TO.P,TP2,1,T*%
%TO.N,BOOT*%
X109423200Y-71602600D03*
%TD*%
%TO.P,TP5,1,T*%
%TO.N,GPIO5{slash}MTDI*%
X117043200Y-71602600D03*
%TD*%
%TO.P,TP8,1,T*%
%TO.N,EN*%
X114503200Y-71602600D03*
%TD*%
%TO.P,TP3,1,T*%
%TO.N,GND*%
X114503200Y-74142600D03*
%TD*%
D24*
%TO.N,GND*%
X110921800Y-71501000D03*
X117170200Y-75615800D03*
X102158800Y-66040000D03*
X101676200Y-67437000D03*
X103050000Y-68090000D03*
X101117400Y-67691000D03*
X99288600Y-66522600D03*
X117703600Y-72898000D03*
X112242600Y-80873600D03*
X102260000Y-78020000D03*
X102234238Y-69620000D03*
X101232919Y-70275946D03*
X112344200Y-78689200D03*
X98552000Y-65659000D03*
X108102400Y-70713600D03*
X101650800Y-76682600D03*
X114757200Y-81000600D03*
X106603800Y-76301600D03*
X107391200Y-75717400D03*
X102340000Y-70220000D03*
X101676200Y-71755000D03*
X112217200Y-68402200D03*
X99263200Y-65659000D03*
X111506000Y-76073000D03*
X102720000Y-75690000D03*
X110388400Y-72059800D03*
X101727000Y-79121000D03*
X107391200Y-76835000D03*
X101625400Y-67995800D03*
X103590000Y-68210000D03*
X114757200Y-80238600D03*
X115214400Y-68148200D03*
X98610000Y-71500000D03*
X111633000Y-69570600D03*
X112242600Y-80060800D03*
X99187000Y-70510400D03*
X101676200Y-74574400D03*
X101690000Y-69930000D03*
X106603800Y-75717400D03*
X109855000Y-68910200D03*
X113487200Y-67691000D03*
X115138200Y-69291200D03*
X103620000Y-69010000D03*
X102710000Y-75070000D03*
X104292400Y-66268600D03*
X116535200Y-67437000D03*
X109499400Y-69824600D03*
X98577400Y-70459600D03*
X102184200Y-72948800D03*
X107945300Y-68750000D03*
X111836200Y-75057000D03*
X99840000Y-70820000D03*
X102209600Y-67792600D03*
X101117400Y-67030600D03*
X102082600Y-80289400D03*
X108127800Y-76301600D03*
X110921800Y-71983600D03*
X117754400Y-69799200D03*
X101540000Y-70680000D03*
X118160800Y-67030600D03*
X107365800Y-76276200D03*
X101676200Y-75666600D03*
X101676200Y-73583800D03*
X101676200Y-77724000D03*
X100787200Y-66548000D03*
X117525800Y-78638400D03*
X101750000Y-69070000D03*
X100620000Y-70474332D03*
X102020000Y-72170000D03*
X106959400Y-72098237D03*
X98552000Y-66522600D03*
X107950000Y-69723000D03*
X106603800Y-76860400D03*
X103620000Y-69860000D03*
X100050600Y-66522600D03*
X102270000Y-69030000D03*
X118237000Y-79527400D03*
X108127800Y-76835000D03*
X105359200Y-71805800D03*
X112776000Y-78841600D03*
X101676200Y-72542400D03*
X102710000Y-76270000D03*
X101070000Y-69840000D03*
X117779800Y-75996800D03*
X116484400Y-69189600D03*
%TO.N,+5V*%
X106570000Y-70280000D03*
X105252500Y-69580000D03*
X108220000Y-67330000D03*
X104930000Y-69902500D03*
X108670000Y-67330000D03*
%TO.N,VBUS*%
X110896400Y-67259200D03*
X109448600Y-68173600D03*
%TO.N,+3V3*%
X104210000Y-71650000D03*
X105085000Y-72674600D03*
X103630000Y-75120000D03*
X109931200Y-76047600D03*
X102660000Y-74470000D03*
X103530000Y-75540000D03*
X110845600Y-68249800D03*
X104419400Y-67487800D03*
X109350000Y-73220000D03*
X104775000Y-67259200D03*
X103520000Y-75970000D03*
X106502200Y-72796400D03*
X110566200Y-78028800D03*
%TO.N,ESP_USB_DN*%
X108813600Y-78257400D03*
X110577335Y-72530822D03*
%TO.N,ESP_USB_DP*%
X110820300Y-73175000D03*
X109855000Y-77571600D03*
%TO.N,VBAT*%
X110591600Y-69240400D03*
X112547400Y-67665600D03*
X110109000Y-66040000D03*
%TO.N,GPIO14*%
X105003600Y-79654400D03*
X102480000Y-76910000D03*
X108762800Y-77063600D03*
X105220000Y-70795237D03*
%TO.N,EN*%
X104978200Y-75565000D03*
X117449600Y-65633600D03*
X111455200Y-69037200D03*
%TO.N,BOOT*%
X111150000Y-77150000D03*
X114833400Y-79425800D03*
X117500400Y-80187800D03*
%TO.N,Net-(CHG1--)*%
X114985800Y-67005200D03*
X110007400Y-70002400D03*
%TO.N,/03 Power/USB_DP*%
X113792000Y-72130000D03*
X113919000Y-73126600D03*
%TO.N,D6{slash}TX*%
X111429800Y-75514200D03*
X109499400Y-65760600D03*
%TO.N,GPIO19{slash}SDIO_CLK*%
X110251431Y-74587724D03*
X104607307Y-79971434D03*
%TO.N,GPIO3{slash}ADC1_CH3*%
X103780000Y-78400000D03*
X102230666Y-74903275D03*
%TO.N,GPIO4{slash}MTMS*%
X105740200Y-77622400D03*
%TO.N,GPIO5{slash}MTDI*%
X109474000Y-80162400D03*
%TO.N,GPIO6{slash}MTCK*%
X106578400Y-77673200D03*
%TO.N,GPIO7{slash}MTDO*%
X109728000Y-80695800D03*
%TO.N,GPIO0{slash}XTAL_32K_P{slash}ADC1_CH0*%
X104952800Y-76428600D03*
%TO.N,GPIO1{slash}XTAL_32K_N{slash}ADC1_CH1*%
X103832011Y-77142536D03*
%TO.N,GPIO2{slash}ADC1_CH2*%
X103784400Y-77647800D03*
%TO.N,GPIO23{slash}SDIO_D3*%
X107111800Y-72821800D03*
%TO.N,GPIO22{slash}SDIO_D2*%
X107594400Y-73939400D03*
%TO.N,GPIO21{slash}SDIO_D1*%
X108077000Y-72821800D03*
%TO.N,D7{slash}RX*%
X108737400Y-75057000D03*
%TO.N,GPIO20{slash}SDIO_D0*%
X108813600Y-73355200D03*
%TO.N,GPIO18{slash}SDIO_CMD*%
X110058200Y-75057000D03*
X109499400Y-78917800D03*
%TD*%
D25*
%TO.N,+5V*%
X106570000Y-70280000D02*
X105307500Y-70280000D01*
D26*
X107770000Y-67330000D02*
X107502500Y-67330000D01*
X107502500Y-67330000D02*
X105252500Y-69580000D01*
X108220000Y-67330000D02*
X107770000Y-67330000D01*
D25*
X105307500Y-70280000D02*
X104930000Y-69902500D01*
D26*
X108670000Y-67330000D02*
X107770000Y-67330000D01*
D27*
%TO.N,VBUS*%
X110363000Y-67259200D02*
X110896400Y-67259200D01*
X109448600Y-68173600D02*
X110363000Y-67259200D01*
D25*
%TO.N,+3V3*%
X109480000Y-74050000D02*
X109480000Y-73590000D01*
X109350000Y-73920000D02*
X109480000Y-74050000D01*
X109350000Y-73220000D02*
X109350000Y-73920000D01*
D28*
%TO.N,ESP_USB_DN*%
X112338993Y-76870571D02*
X112338993Y-78089771D01*
X113405793Y-75803771D02*
X112338993Y-76870571D01*
X110577335Y-72530822D02*
X110797320Y-72750807D01*
X112338993Y-78089771D02*
X111516171Y-78912593D01*
X111043918Y-72743444D02*
X112753408Y-72743444D01*
X111516171Y-78912593D02*
X110073429Y-78912593D01*
X111036555Y-72750807D02*
X111043918Y-72743444D01*
X109418236Y-78257400D02*
X108813600Y-78257400D01*
X110073429Y-78912593D02*
X109418236Y-78257400D01*
X113405793Y-73395829D02*
X113405793Y-75803771D01*
X112753408Y-72743444D02*
X113405793Y-73395829D01*
X110797320Y-72750807D02*
X111036555Y-72750807D01*
%TO.N,ESP_USB_DP*%
X110195371Y-78618207D02*
X109423200Y-77846036D01*
X109524800Y-77571600D02*
X109855000Y-77571600D01*
X112329019Y-76140928D02*
X112329018Y-76140930D01*
X109423200Y-77673200D02*
X109524800Y-77571600D01*
X112044607Y-76748629D02*
X112044607Y-77967829D01*
X111156574Y-73037830D02*
X112631466Y-73037830D01*
X110820300Y-73175000D02*
X110950107Y-73045193D01*
X110950107Y-73045193D02*
X111149211Y-73045193D01*
X113111407Y-73517771D02*
X113111407Y-75681829D01*
X111394229Y-78618207D02*
X110195371Y-78618207D01*
X112329018Y-76464218D02*
X112044607Y-76748629D01*
X112631466Y-73037830D02*
X113111407Y-73517771D01*
X112329018Y-75817640D02*
X112329020Y-75817639D01*
X112044607Y-77967829D02*
X111394229Y-78618207D01*
X113111407Y-75681829D02*
X112975597Y-75817641D01*
X111149211Y-73045193D02*
X111156574Y-73037830D01*
X109423200Y-77846036D02*
X109423200Y-77673200D01*
X112329020Y-75817639D02*
G75*
G03*
X112329003Y-76140944I161680J-161661D01*
G01*
X112329018Y-76140930D02*
G75*
G02*
X112329044Y-76464244I-161618J-161670D01*
G01*
X112652308Y-75817640D02*
G75*
G03*
X112329018Y-75817640I-161645J-161640D01*
G01*
X112975596Y-75817640D02*
G75*
G02*
X112652356Y-75817592I-161596J161640D01*
G01*
D29*
%TO.N,VBAT*%
X102870000Y-71094600D02*
X102984600Y-70980000D01*
D30*
X109524800Y-66624200D02*
X107195800Y-66624200D01*
D29*
X102984600Y-70980000D02*
X103550000Y-70980000D01*
D26*
X103435400Y-71094600D02*
X103550000Y-70980000D01*
D30*
X112144300Y-67665600D02*
X110591600Y-69218300D01*
X104210000Y-70320000D02*
X103550000Y-70980000D01*
X112547400Y-67665600D02*
X112144300Y-67665600D01*
X110591600Y-69218300D02*
X110591600Y-69240400D01*
X104210000Y-69610000D02*
X104210000Y-70320000D01*
X110109000Y-66040000D02*
X109524800Y-66624200D01*
X107195800Y-66624200D02*
X104210000Y-69610000D01*
D31*
%TO.N,GPIO14*%
X103180000Y-77000000D02*
X102570000Y-77000000D01*
X104038400Y-76141600D02*
X103180000Y-77000000D01*
X105220000Y-70795237D02*
X105714800Y-71290037D01*
X105714800Y-71290037D02*
X105714800Y-73375184D01*
X105003600Y-79654400D02*
X106095800Y-78562200D01*
X104038400Y-75051584D02*
X104038400Y-76141600D01*
X108534200Y-77292200D02*
X108762800Y-77063600D01*
X105714800Y-73375184D02*
X104038400Y-75051584D01*
X106095800Y-78562200D02*
X106095800Y-77647800D01*
X106451400Y-77292200D02*
X108534200Y-77292200D01*
X102570000Y-77000000D02*
X102480000Y-76910000D01*
X106095800Y-77647800D02*
X106451400Y-77292200D01*
%TO.N,EN*%
X115798600Y-67284600D02*
X115798600Y-70307200D01*
X104978200Y-75285600D02*
X104978200Y-75565000D01*
X108458000Y-72948800D02*
X108153200Y-73253600D01*
X107396305Y-73634600D02*
X106629200Y-73634600D01*
X107777305Y-73253600D02*
X107396305Y-73634600D01*
X111937800Y-69037200D02*
X114503200Y-71602600D01*
X106629200Y-73634600D02*
X104978200Y-75285600D01*
X115798600Y-70307200D02*
X114503200Y-71602600D01*
X111455200Y-69037200D02*
X111937800Y-69037200D01*
X111353600Y-69138800D02*
X111353600Y-69159095D01*
X108153200Y-73253600D02*
X107777305Y-73253600D01*
X110002295Y-70510400D02*
X109093000Y-70510400D01*
X111455200Y-69037200D02*
X111353600Y-69138800D01*
X111353600Y-69159095D02*
X110002295Y-70510400D01*
X117449600Y-65633600D02*
X115798600Y-67284600D01*
X109093000Y-70510400D02*
X108458000Y-71145400D01*
X108458000Y-71145400D02*
X108458000Y-72948800D01*
%TO.N,BOOT*%
X117500400Y-79857600D02*
X117500400Y-80187800D01*
X111226600Y-74137495D02*
X109423200Y-72334095D01*
X111226600Y-74945408D02*
X111226600Y-74137495D01*
X116179600Y-79019400D02*
X116662200Y-79019400D01*
X114833400Y-79425800D02*
X115239800Y-79019400D01*
X111140000Y-77150000D02*
X111084400Y-77150000D01*
X110540800Y-75631208D02*
X111226600Y-74945408D01*
X115519200Y-79019400D02*
X116179600Y-79019400D01*
X110540800Y-76606400D02*
X110540800Y-75631208D01*
X116662200Y-79019400D02*
X117500400Y-79857600D01*
X109423200Y-72334095D02*
X109423200Y-71602600D01*
X115239800Y-79019400D02*
X115519200Y-79019400D01*
X111084400Y-77150000D02*
X110540800Y-76606400D01*
%TO.N,Net-(CHG1--)*%
X110007400Y-70002400D02*
X110007400Y-69291200D01*
X110236000Y-68224400D02*
X110617000Y-67843400D01*
X114782600Y-67208400D02*
X114985800Y-67005200D01*
X110007400Y-69291200D02*
X110236000Y-69062600D01*
X111252000Y-67843400D02*
X111887000Y-67208400D01*
X111887000Y-67208400D02*
X114782600Y-67208400D01*
X110617000Y-67843400D02*
X111252000Y-67843400D01*
X110236000Y-69062600D02*
X110236000Y-68224400D01*
D28*
%TO.N,/03 Power/USB_DP*%
X113919000Y-72257000D02*
X113919000Y-73126600D01*
X113792000Y-72130000D02*
X113919000Y-72257000D01*
D31*
%TO.N,D6{slash}TX*%
X102438200Y-67360800D02*
X100777700Y-65700300D01*
X105053356Y-66218844D02*
X103911400Y-67360800D01*
X109499400Y-65760600D02*
X109041156Y-66218844D01*
X103911400Y-67360800D02*
X102438200Y-67360800D01*
X109041156Y-66218844D02*
X105053356Y-66218844D01*
X100777700Y-65700300D02*
X100777700Y-65256000D01*
%TO.N,GPIO19{slash}SDIO_CLK*%
X104607307Y-79971434D02*
X104378592Y-79742719D01*
X104378592Y-79742719D02*
X104378592Y-79009408D01*
X106255904Y-74861504D02*
X107769601Y-74861504D01*
X105752900Y-75364508D02*
X106255904Y-74861504D01*
X107769601Y-74861504D02*
X108511197Y-75603100D01*
X104378592Y-78155800D02*
X105752900Y-76781492D01*
X104378592Y-78495992D02*
X104378592Y-78155800D01*
X105752900Y-76781492D02*
X105752900Y-75364508D01*
X104597200Y-78638400D02*
X104521000Y-78562200D01*
X104521000Y-78917800D02*
X104597200Y-78841600D01*
X104521000Y-78562200D02*
X104444800Y-78562200D01*
X104470200Y-78917800D02*
X104521000Y-78917800D01*
X104378592Y-79009408D02*
X104470200Y-78917800D01*
X108511197Y-75603100D02*
X109004100Y-75603100D01*
X110019476Y-74587724D02*
X110251431Y-74587724D01*
X104444800Y-78562200D02*
X104378592Y-78495992D01*
X104597200Y-78841600D02*
X104597200Y-78638400D01*
X109004100Y-75603100D02*
X110019476Y-74587724D01*
%TO.N,GPIO4{slash}MTMS*%
X109220000Y-70739000D02*
X111099600Y-70739000D01*
X110109000Y-73294097D02*
X110109000Y-73289303D01*
X109128611Y-72313800D02*
X108712000Y-71897189D01*
X111036100Y-74866500D02*
X111036100Y-74221197D01*
X111036100Y-74221197D02*
X110109000Y-73294097D01*
X108353381Y-75984100D02*
X109308900Y-75984100D01*
X110286800Y-75615800D02*
X111036100Y-74866500D01*
X111099600Y-70739000D02*
X111963200Y-71602600D01*
X106413300Y-75272900D02*
X107642181Y-75272900D01*
X110109000Y-73289303D02*
X109133497Y-72313800D01*
X106133900Y-75552300D02*
X106413300Y-75272900D01*
X108712000Y-71897189D02*
X108712000Y-71247000D01*
X107642181Y-75272900D02*
X108353381Y-75984100D01*
X106133900Y-77228700D02*
X106133900Y-75552300D01*
X109133497Y-72313800D02*
X109128611Y-72313800D01*
X109677200Y-75615800D02*
X110286800Y-75615800D01*
X108712000Y-71247000D02*
X109220000Y-70739000D01*
X109308900Y-75984100D02*
X109677200Y-75615800D01*
X105740200Y-77622400D02*
X106133900Y-77228700D01*
%TO.N,GPIO5{slash}MTDI*%
X113792000Y-79298800D02*
X115938300Y-77152500D01*
X115938300Y-72707500D02*
X117043200Y-71602600D01*
X115938300Y-77152500D02*
X115938300Y-72707500D01*
X109474000Y-80162400D02*
X109474000Y-80070792D01*
X109474000Y-80070792D02*
X110245992Y-79298800D01*
X110245992Y-79298800D02*
X113792000Y-79298800D01*
%TO.N,GPIO6{slash}MTCK*%
X111261400Y-77698600D02*
X110708452Y-77698600D01*
X110820200Y-76020200D02*
X111570000Y-76770000D01*
X111417100Y-74688700D02*
X111417100Y-75024316D01*
X111417100Y-75024316D02*
X110820200Y-75621216D01*
X111570000Y-77390000D02*
X111261400Y-77698600D01*
X111963200Y-74142600D02*
X111417100Y-74688700D01*
X109194600Y-77165200D02*
X108788200Y-77571600D01*
X111570000Y-76770000D02*
X111570000Y-77390000D01*
X108788200Y-77571600D02*
X106680000Y-77571600D01*
X106680000Y-77571600D02*
X106578400Y-77673200D01*
X110820200Y-75621216D02*
X110820200Y-76020200D01*
X110708452Y-77698600D02*
X110175052Y-77165200D01*
X110175052Y-77165200D02*
X109194600Y-77165200D01*
%TO.N,GPIO7{slash}MTDO*%
X113969800Y-79502000D02*
X116128800Y-77343000D01*
X116128800Y-75057000D02*
X117043200Y-74142600D01*
X109728000Y-80695800D02*
X109931200Y-80492600D01*
X109931200Y-79883000D02*
X110312200Y-79502000D01*
X110312200Y-79502000D02*
X113969800Y-79502000D01*
X109931200Y-80492600D02*
X109931200Y-79883000D01*
X116128800Y-77343000D02*
X116128800Y-75057000D01*
%TO.N,GPIO0{slash}XTAL_32K_P{slash}ADC1_CH0*%
X104952800Y-76377800D02*
X104952800Y-76428600D01*
X116017700Y-65256000D02*
X114573300Y-66700400D01*
X104622600Y-76047600D02*
X104952800Y-76377800D01*
X109143800Y-70175094D02*
X107721400Y-71597494D01*
X107327700Y-73418700D02*
X106520005Y-73418700D01*
X112039400Y-66700400D02*
X111125000Y-67614800D01*
X107721400Y-71597494D02*
X107721400Y-73025000D01*
X110510295Y-67614800D02*
X109143800Y-68981295D01*
X109143800Y-68981295D02*
X109143800Y-70175094D01*
X107721400Y-73025000D02*
X107327700Y-73418700D01*
X114573300Y-66700400D02*
X112039400Y-66700400D01*
X111125000Y-67614800D02*
X110510295Y-67614800D01*
X106520005Y-73418700D02*
X104622600Y-75316105D01*
X104622600Y-75316105D02*
X104622600Y-76047600D01*
%TO.N,GPIO1{slash}XTAL_32K_N{slash}ADC1_CH1*%
X107530900Y-70726300D02*
X107899200Y-70358000D01*
X104419400Y-76555147D02*
X104419400Y-75209400D01*
X108953300Y-68166005D02*
X110799905Y-66319400D01*
X108953300Y-69761100D02*
X108953300Y-68166005D01*
X110799905Y-66319400D02*
X112414300Y-66319400D01*
X107899200Y-70358000D02*
X108356400Y-70358000D01*
X107530900Y-72910700D02*
X107530900Y-70726300D01*
X106400600Y-73228200D02*
X107213400Y-73228200D01*
X108356400Y-70358000D02*
X108953300Y-69761100D01*
X112414300Y-66319400D02*
X113477700Y-65256000D01*
X103832011Y-77142536D02*
X104419400Y-76555147D01*
X107213400Y-73228200D02*
X107530900Y-72910700D01*
X104419400Y-75209400D02*
X106400600Y-73228200D01*
%TO.N,GPIO2{slash}ADC1_CH2*%
X108762800Y-68087097D02*
X108762800Y-69672200D01*
X103476411Y-77339811D02*
X103784400Y-77647800D01*
X110937700Y-65256000D02*
X110937700Y-65912197D01*
X108762800Y-69672200D02*
X108267500Y-70167500D01*
X110937700Y-65912197D02*
X108762800Y-68087097D01*
X105943400Y-73415992D02*
X104228900Y-75130492D01*
X107820292Y-70167500D02*
X105943400Y-72044392D01*
X103476411Y-76993589D02*
X103476411Y-77339811D01*
X108267500Y-70167500D02*
X107820292Y-70167500D01*
X104228900Y-76241100D02*
X103476411Y-76993589D01*
X105943400Y-72044392D02*
X105943400Y-73415992D01*
X104228900Y-75130492D02*
X104228900Y-76241100D01*
%TO.N,D7{slash}RX*%
X102991447Y-78010000D02*
X102561447Y-78440000D01*
X102561447Y-78440000D02*
X101430000Y-78440000D01*
X108026200Y-74345800D02*
X106197400Y-74345800D01*
X103925095Y-78010000D02*
X102991447Y-78010000D01*
X106197400Y-74345800D02*
X105359200Y-75184000D01*
X105359200Y-75184000D02*
X105359200Y-76575895D01*
X105359200Y-76575895D02*
X103925095Y-78010000D01*
X100777700Y-79092300D02*
X100777700Y-80496000D01*
X108737400Y-75057000D02*
X108026200Y-74345800D01*
X101430000Y-78440000D02*
X100777700Y-79092300D01*
%TO.N,GPIO20{slash}SDIO_D0*%
X109093000Y-74856353D02*
X109093000Y-75204295D01*
X105562400Y-75285600D02*
X105562400Y-76698008D01*
X104188092Y-80083492D02*
X104600600Y-80496000D01*
X105562400Y-76698008D02*
X104188092Y-78072316D01*
X108712000Y-74475353D02*
X109093000Y-74856353D01*
X108813600Y-73355200D02*
X108712000Y-73456800D01*
X109093000Y-75204295D02*
X108884695Y-75412600D01*
X104188092Y-78072316D02*
X104188092Y-80083492D01*
X108712000Y-73456800D02*
X108712000Y-74475353D01*
X108590105Y-75412600D02*
X107802705Y-74625200D01*
X107802705Y-74625200D02*
X106222800Y-74625200D01*
X108884695Y-75412600D02*
X108590105Y-75412600D01*
X104600600Y-80496000D02*
X105857700Y-80496000D01*
X106222800Y-74625200D02*
X105562400Y-75285600D01*
%TO.N,GPIO18{slash}SDIO_CMD*%
X109494710Y-78917800D02*
X109499400Y-78917800D01*
X108397700Y-80496000D02*
X108397700Y-79054300D01*
X108839000Y-79070200D02*
X108839000Y-79273400D01*
X109296200Y-78917800D02*
X109494710Y-78917800D01*
X108534200Y-78917800D02*
X108686600Y-78917800D01*
X108397700Y-79054300D02*
X108534200Y-78917800D01*
X109143800Y-79273400D02*
X109143800Y-79070200D01*
X108686600Y-78917800D02*
G75*
G02*
X108839000Y-79070200I0J-152400D01*
G01*
X109143800Y-79070200D02*
G75*
G02*
X109296200Y-78917800I152400J0D01*
G01*
X108991400Y-79425800D02*
G75*
G03*
X109143800Y-79273400I0J152400D01*
G01*
X108839000Y-79273400D02*
G75*
G03*
X108991400Y-79425800I152400J0D01*
G01*
%TD*%
%TA.AperFunction,Conductor*%
%TO.N,GND*%
G36*
X103373632Y-78230985D02*
G01*
X103419387Y-78283789D01*
X103429331Y-78352947D01*
X103429066Y-78354698D01*
X103421891Y-78399998D01*
X103421891Y-78400003D01*
X103439416Y-78510658D01*
X103439416Y-78510659D01*
X103490285Y-78610493D01*
X103509711Y-78629919D01*
X103543196Y-78691242D01*
X103538212Y-78760934D01*
X103496340Y-78816867D01*
X103430876Y-78841284D01*
X103422030Y-78841600D01*
X102738612Y-78841600D01*
X102671573Y-78821915D01*
X102629608Y-78773485D01*
X102630969Y-78782947D01*
X102601944Y-78846503D01*
X102555685Y-78879859D01*
X102552650Y-78881116D01*
X102549702Y-78882338D01*
X102478939Y-78953101D01*
X102449153Y-79025011D01*
X102440640Y-79045562D01*
X102438200Y-79095600D01*
X102440640Y-79145638D01*
X102478938Y-79238097D01*
X102549703Y-79308862D01*
X102642162Y-79347160D01*
X102692200Y-79349600D01*
X103454184Y-79349600D01*
X103454200Y-79349600D01*
X103504238Y-79347160D01*
X103596697Y-79308862D01*
X103667462Y-79238097D01*
X103705760Y-79145638D01*
X103708200Y-79095600D01*
X103705760Y-79045562D01*
X103667462Y-78953103D01*
X103667456Y-78953097D01*
X103665928Y-78950809D01*
X103664122Y-78945042D01*
X103662788Y-78941821D01*
X103663076Y-78941701D01*
X103645050Y-78884131D01*
X103663534Y-78816751D01*
X103715512Y-78770061D01*
X103770241Y-78761191D01*
X103770241Y-78758109D01*
X103780001Y-78758109D01*
X103792987Y-78756052D01*
X103843395Y-78748068D01*
X103912686Y-78757022D01*
X103966139Y-78802018D01*
X103986779Y-78868769D01*
X103986792Y-78870541D01*
X103986792Y-79660737D01*
X103967107Y-79727776D01*
X103914303Y-79773531D01*
X103845145Y-79783475D01*
X103796821Y-79765732D01*
X103755412Y-79739713D01*
X103724033Y-79724602D01*
X103551107Y-79664093D01*
X103551108Y-79664093D01*
X103517162Y-79656346D01*
X103517159Y-79656345D01*
X103335115Y-79635834D01*
X103335111Y-79635834D01*
X103300289Y-79635834D01*
X103300285Y-79635834D01*
X103118240Y-79656345D01*
X103118237Y-79656346D01*
X103084292Y-79664093D01*
X102911366Y-79724602D01*
X102879986Y-79739714D01*
X102879984Y-79739715D01*
X102724859Y-79837186D01*
X102697644Y-79858890D01*
X102568090Y-79988444D01*
X102546386Y-80015659D01*
X102448915Y-80170784D01*
X102448914Y-80170786D01*
X102433802Y-80202166D01*
X102373293Y-80375092D01*
X102365546Y-80409037D01*
X102365545Y-80409040D01*
X102345034Y-80591084D01*
X102345034Y-80625912D01*
X102348420Y-80655961D01*
X102349200Y-80669846D01*
X102349200Y-81410000D01*
X102329515Y-81477039D01*
X102276711Y-81522794D01*
X102225200Y-81534000D01*
X101985536Y-81534000D01*
X101918497Y-81514315D01*
X101897855Y-81497681D01*
X101782519Y-81382345D01*
X101749034Y-81321022D01*
X101746200Y-81294664D01*
X101746200Y-80552346D01*
X101746980Y-80538461D01*
X101750366Y-80508412D01*
X101750366Y-80473585D01*
X101750365Y-80473584D01*
X101743092Y-80409037D01*
X101733704Y-80325711D01*
X101729854Y-80291540D01*
X101729853Y-80291537D01*
X101722106Y-80257592D01*
X101703125Y-80203348D01*
X101661596Y-80084663D01*
X101646488Y-80053290D01*
X101549017Y-79898165D01*
X101549015Y-79898163D01*
X101549013Y-79898159D01*
X101527309Y-79870944D01*
X101460186Y-79803821D01*
X101426701Y-79742498D01*
X101423868Y-79716368D01*
X101422226Y-78784029D01*
X101441792Y-78716961D01*
X101458539Y-78696141D01*
X101477067Y-78677614D01*
X101538392Y-78644132D01*
X101564744Y-78641300D01*
X102508231Y-78641300D01*
X102575270Y-78660985D01*
X102617234Y-78709414D01*
X102615874Y-78699953D01*
X102644899Y-78636397D01*
X102669720Y-78614499D01*
X102675471Y-78610655D01*
X102675474Y-78610654D01*
X103038509Y-78247619D01*
X103099832Y-78214134D01*
X103126190Y-78211300D01*
X103306593Y-78211300D01*
X103373632Y-78230985D01*
G37*
%TD.AperFunction*%
%TA.AperFunction,Conductor*%
G36*
X116594496Y-79240385D02*
G01*
X116615138Y-79257019D01*
X117189085Y-79830966D01*
X117222570Y-79892289D01*
X117217586Y-79961981D01*
X117211889Y-79974941D01*
X117159817Y-80077137D01*
X117159816Y-80077140D01*
X117155518Y-80104281D01*
X117125588Y-80167416D01*
X117066276Y-80204346D01*
X116996413Y-80203348D01*
X116938181Y-80164737D01*
X116916003Y-80125836D01*
X116901598Y-80084669D01*
X116901597Y-80084666D01*
X116901596Y-80084663D01*
X116886488Y-80053290D01*
X116789017Y-79898165D01*
X116789015Y-79898163D01*
X116789013Y-79898159D01*
X116767309Y-79870944D01*
X116637755Y-79741390D01*
X116610540Y-79719686D01*
X116455415Y-79622215D01*
X116455413Y-79622214D01*
X116455410Y-79622212D01*
X116424037Y-79607104D01*
X116424033Y-79607102D01*
X116251107Y-79546593D01*
X116251108Y-79546593D01*
X116217162Y-79538846D01*
X116217159Y-79538845D01*
X116035115Y-79518334D01*
X116035111Y-79518334D01*
X116000289Y-79518334D01*
X116000285Y-79518334D01*
X115818240Y-79538845D01*
X115818237Y-79538846D01*
X115784292Y-79546593D01*
X115611366Y-79607102D01*
X115579986Y-79622214D01*
X115579984Y-79622215D01*
X115424859Y-79719686D01*
X115397644Y-79741390D01*
X115268090Y-79870944D01*
X115246386Y-79898159D01*
X115148915Y-80053284D01*
X115148914Y-80053286D01*
X115133802Y-80084666D01*
X115073293Y-80257592D01*
X115065546Y-80291537D01*
X115065545Y-80291540D01*
X115045034Y-80473584D01*
X115045034Y-80508412D01*
X115048420Y-80538461D01*
X115049200Y-80552346D01*
X115049200Y-81410000D01*
X115029515Y-81477039D01*
X114976711Y-81522794D01*
X114925200Y-81534000D01*
X114718062Y-81534000D01*
X114651023Y-81514315D01*
X114630381Y-81497681D01*
X114595700Y-81463000D01*
X114134252Y-81463000D01*
X114063252Y-81534000D01*
X113740675Y-81534000D01*
X113692605Y-81485930D01*
X113612795Y-81439852D01*
X113523778Y-81416000D01*
X113431622Y-81416000D01*
X113342605Y-81439852D01*
X113262795Y-81485930D01*
X113214725Y-81534000D01*
X112892147Y-81534000D01*
X112821147Y-81463000D01*
X112359700Y-81463000D01*
X112325019Y-81497681D01*
X112263696Y-81531166D01*
X112237338Y-81534000D01*
X112030200Y-81534000D01*
X111963161Y-81514315D01*
X111917406Y-81461511D01*
X111906200Y-81410000D01*
X111906200Y-80552346D01*
X111906980Y-80538461D01*
X111910366Y-80508412D01*
X111910366Y-80473585D01*
X111910365Y-80473584D01*
X111903092Y-80409037D01*
X111893704Y-80325711D01*
X111889854Y-80291540D01*
X111889853Y-80291537D01*
X111882106Y-80257592D01*
X111863125Y-80203348D01*
X111821596Y-80084663D01*
X111806488Y-80053290D01*
X111726011Y-79925211D01*
X111707166Y-79895219D01*
X111708118Y-79894620D01*
X111686909Y-79832970D01*
X111703507Y-79765100D01*
X111754164Y-79716979D01*
X111810779Y-79703300D01*
X112507982Y-79703300D01*
X112575021Y-79722985D01*
X112620776Y-79775789D01*
X112630720Y-79844947D01*
X112604930Y-79904612D01*
X112579800Y-79936123D01*
X112579799Y-79936125D01*
X112482323Y-80091257D01*
X112452698Y-80152774D01*
X112452695Y-80152782D01*
X112392188Y-80325699D01*
X112392184Y-80325711D01*
X112376987Y-80392296D01*
X112376985Y-80392308D01*
X112356474Y-80574345D01*
X112356474Y-80642650D01*
X112358920Y-80664356D01*
X112359700Y-80678242D01*
X112359700Y-80963000D01*
X112657147Y-80963000D01*
X112657147Y-80962999D01*
X112994737Y-80625408D01*
X113011775Y-80688993D01*
X113077601Y-80803007D01*
X113170693Y-80896099D01*
X113284707Y-80961925D01*
X113411874Y-80996000D01*
X113543526Y-80996000D01*
X113670693Y-80961925D01*
X113784707Y-80896099D01*
X113877799Y-80803007D01*
X113943625Y-80688993D01*
X113960662Y-80625409D01*
X114298253Y-80963000D01*
X114595700Y-80963000D01*
X114595700Y-80678242D01*
X114596480Y-80664356D01*
X114598926Y-80642650D01*
X114598926Y-80574346D01*
X114598925Y-80574345D01*
X114578414Y-80392308D01*
X114578412Y-80392296D01*
X114563215Y-80325711D01*
X114563211Y-80325699D01*
X114502704Y-80152782D01*
X114502701Y-80152774D01*
X114473076Y-80091257D01*
X114381592Y-79945660D01*
X113960662Y-80366589D01*
X113943625Y-80303007D01*
X113877799Y-80188993D01*
X113784707Y-80095901D01*
X113670693Y-80030075D01*
X113607109Y-80013037D01*
X113880528Y-79739619D01*
X113941851Y-79706134D01*
X113968209Y-79703300D01*
X114009839Y-79703300D01*
X114009841Y-79703300D01*
X114083827Y-79672654D01*
X114283436Y-79473044D01*
X114344757Y-79439561D01*
X114414448Y-79444545D01*
X114470382Y-79486416D01*
X114487874Y-79527804D01*
X114489801Y-79527178D01*
X114492816Y-79536459D01*
X114543685Y-79636293D01*
X114622906Y-79715514D01*
X114622908Y-79715515D01*
X114622909Y-79715516D01*
X114722738Y-79766382D01*
X114722739Y-79766382D01*
X114722741Y-79766383D01*
X114833397Y-79783909D01*
X114833400Y-79783909D01*
X114833403Y-79783909D01*
X114944058Y-79766383D01*
X114944059Y-79766383D01*
X114944060Y-79766382D01*
X114944062Y-79766382D01*
X115043891Y-79715516D01*
X115123116Y-79636291D01*
X115173982Y-79536462D01*
X115173982Y-79536460D01*
X115173983Y-79536459D01*
X115173983Y-79536458D01*
X115191509Y-79425803D01*
X115191509Y-79425798D01*
X115191354Y-79424820D01*
X115191509Y-79423620D01*
X115191509Y-79416040D01*
X115192488Y-79416040D01*
X115200305Y-79355526D01*
X115226143Y-79317738D01*
X115286865Y-79257017D01*
X115348189Y-79223533D01*
X115374545Y-79220700D01*
X115479159Y-79220700D01*
X116139559Y-79220700D01*
X116527457Y-79220700D01*
X116594496Y-79240385D01*
G37*
%TD.AperFunction*%
%TA.AperFunction,Conductor*%
G36*
X117647051Y-64281685D02*
G01*
X117667693Y-64298319D01*
X118611055Y-65241681D01*
X118644540Y-65303004D01*
X118647374Y-65329362D01*
X118647374Y-80288838D01*
X118627689Y-80355877D01*
X118611055Y-80376519D01*
X117489893Y-81497681D01*
X117428570Y-81531166D01*
X117402212Y-81534000D01*
X117110200Y-81534000D01*
X117043161Y-81514315D01*
X116997406Y-81461511D01*
X116986200Y-81410000D01*
X116986200Y-80552346D01*
X116986980Y-80538461D01*
X116990366Y-80508412D01*
X116990366Y-80476682D01*
X117010051Y-80409643D01*
X117062855Y-80363888D01*
X117132013Y-80353944D01*
X117195569Y-80382969D01*
X117203529Y-80391644D01*
X117203783Y-80391391D01*
X117289906Y-80477514D01*
X117289908Y-80477515D01*
X117289909Y-80477516D01*
X117389738Y-80528382D01*
X117389739Y-80528382D01*
X117389741Y-80528383D01*
X117500397Y-80545909D01*
X117500400Y-80545909D01*
X117500403Y-80545909D01*
X117611058Y-80528383D01*
X117611059Y-80528383D01*
X117611060Y-80528382D01*
X117611062Y-80528382D01*
X117710891Y-80477516D01*
X117790116Y-80398291D01*
X117840982Y-80298462D01*
X117840982Y-80298460D01*
X117840983Y-80298459D01*
X117840983Y-80298458D01*
X117858509Y-80187803D01*
X117858509Y-80187796D01*
X117840983Y-80077141D01*
X117840983Y-80077140D01*
X117817002Y-80030075D01*
X117790116Y-79977309D01*
X117790115Y-79977308D01*
X117790114Y-79977306D01*
X117738019Y-79925211D01*
X117704534Y-79863888D01*
X117701700Y-79837530D01*
X117701700Y-79817560D01*
X117701699Y-79817557D01*
X117671054Y-79743573D01*
X117614427Y-79686946D01*
X116776227Y-78848746D01*
X116758212Y-78841284D01*
X116702242Y-78818100D01*
X116702241Y-78818100D01*
X116219641Y-78818100D01*
X115559241Y-78818100D01*
X115279841Y-78818100D01*
X115237743Y-78818100D01*
X115170704Y-78798415D01*
X115124949Y-78745611D01*
X115115005Y-78676453D01*
X115144030Y-78612897D01*
X115150062Y-78606419D01*
X115723751Y-78032730D01*
X116299454Y-77457027D01*
X116330100Y-77383041D01*
X116330100Y-77302959D01*
X116330100Y-75191742D01*
X116349785Y-75124703D01*
X116366415Y-75104065D01*
X116631644Y-74838835D01*
X116692967Y-74805351D01*
X116758328Y-74808811D01*
X116895146Y-74854146D01*
X116896205Y-74854497D01*
X116995092Y-74864600D01*
X116995096Y-74864600D01*
X117091304Y-74864600D01*
X117091308Y-74864600D01*
X117190195Y-74854497D01*
X117350408Y-74801409D01*
X117494058Y-74712804D01*
X117613404Y-74593458D01*
X117702009Y-74449808D01*
X117755097Y-74289595D01*
X117765200Y-74190708D01*
X117765200Y-74094492D01*
X117755097Y-73995605D01*
X117746336Y-73969165D01*
X117702010Y-73835394D01*
X117702009Y-73835391D01*
X117613406Y-73691745D01*
X117613403Y-73691741D01*
X117494058Y-73572396D01*
X117494054Y-73572393D01*
X117350408Y-73483790D01*
X117350405Y-73483789D01*
X117190197Y-73430703D01*
X117091315Y-73420600D01*
X117091308Y-73420600D01*
X116995092Y-73420600D01*
X116995084Y-73420600D01*
X116896203Y-73430703D01*
X116896201Y-73430703D01*
X116735994Y-73483789D01*
X116735991Y-73483790D01*
X116592345Y-73572393D01*
X116592341Y-73572396D01*
X116472996Y-73691741D01*
X116472993Y-73691745D01*
X116384391Y-73835391D01*
X116381306Y-73844701D01*
X116341533Y-73902145D01*
X116277017Y-73928968D01*
X116208241Y-73916653D01*
X116157041Y-73869109D01*
X116139600Y-73805696D01*
X116139600Y-72842242D01*
X116159285Y-72775203D01*
X116175915Y-72754565D01*
X116631644Y-72298835D01*
X116692967Y-72265351D01*
X116758328Y-72268811D01*
X116869940Y-72305794D01*
X116896205Y-72314497D01*
X116995092Y-72324600D01*
X116995096Y-72324600D01*
X117091304Y-72324600D01*
X117091308Y-72324600D01*
X117190195Y-72314497D01*
X117350408Y-72261409D01*
X117494058Y-72172804D01*
X117613404Y-72053458D01*
X117702009Y-71909808D01*
X117755097Y-71749595D01*
X117765200Y-71650708D01*
X117765200Y-71554492D01*
X117755097Y-71455605D01*
X117755095Y-71455598D01*
X117702010Y-71295394D01*
X117702009Y-71295391D01*
X117613406Y-71151745D01*
X117613403Y-71151741D01*
X117494058Y-71032396D01*
X117494054Y-71032393D01*
X117350408Y-70943790D01*
X117350405Y-70943789D01*
X117190197Y-70890703D01*
X117091315Y-70880600D01*
X117091308Y-70880600D01*
X116995092Y-70880600D01*
X116995084Y-70880600D01*
X116896203Y-70890703D01*
X116896201Y-70890703D01*
X116735994Y-70943789D01*
X116735991Y-70943790D01*
X116592345Y-71032393D01*
X116592341Y-71032396D01*
X116472996Y-71151741D01*
X116472993Y-71151745D01*
X116384390Y-71295391D01*
X116384389Y-71295394D01*
X116331303Y-71455601D01*
X116331303Y-71455603D01*
X116321200Y-71554484D01*
X116321200Y-71650715D01*
X116331303Y-71749596D01*
X116331303Y-71749598D01*
X116376988Y-71887470D01*
X116379389Y-71957299D01*
X116346963Y-72014154D01*
X115824273Y-72536846D01*
X115767647Y-72593471D01*
X115767646Y-72593472D01*
X115737000Y-72667457D01*
X115737000Y-77017757D01*
X115717315Y-77084796D01*
X115700681Y-77105438D01*
X115255324Y-77550794D01*
X115194001Y-77584279D01*
X115124309Y-77579295D01*
X115068376Y-77537423D01*
X115043959Y-77471959D01*
X115048210Y-77434042D01*
X115047547Y-77433911D01*
X115081399Y-77263722D01*
X115081400Y-77263720D01*
X115081400Y-77096279D01*
X115081399Y-77096277D01*
X115048736Y-76932071D01*
X115048734Y-76932063D01*
X114984659Y-76777372D01*
X114984659Y-76777371D01*
X114891641Y-76638160D01*
X114891635Y-76638152D01*
X114773244Y-76519761D01*
X114726454Y-76488498D01*
X114726453Y-76488498D01*
X114234952Y-76979998D01*
X114223014Y-76968060D01*
X114131128Y-76930000D01*
X113577847Y-76930000D01*
X113681400Y-76826447D01*
X114223736Y-76284111D01*
X114285059Y-76250626D01*
X114295235Y-76248852D01*
X114296384Y-76248700D01*
X114296397Y-76248700D01*
X114421961Y-76215055D01*
X114534539Y-76150058D01*
X114626458Y-76058139D01*
X114691455Y-75945561D01*
X114725100Y-75819997D01*
X114725100Y-75690003D01*
X114691455Y-75564439D01*
X114688814Y-75559865D01*
X114626460Y-75451864D01*
X114626455Y-75451858D01*
X114534541Y-75359944D01*
X114534535Y-75359939D01*
X114421964Y-75294946D01*
X114421965Y-75294946D01*
X114411668Y-75292187D01*
X114296397Y-75261300D01*
X114166403Y-75261300D01*
X114051131Y-75292187D01*
X114040835Y-75294946D01*
X113928264Y-75359939D01*
X113928258Y-75359944D01*
X113838967Y-75449236D01*
X113777644Y-75482721D01*
X113707952Y-75477737D01*
X113652019Y-75435865D01*
X113627602Y-75370401D01*
X113627286Y-75361555D01*
X113627286Y-73577280D01*
X113646971Y-73510241D01*
X113699775Y-73464486D01*
X113768933Y-73454542D01*
X113807585Y-73466798D01*
X113808338Y-73467182D01*
X113808342Y-73467182D01*
X113808343Y-73467183D01*
X113808341Y-73467183D01*
X113918997Y-73484709D01*
X113919000Y-73484709D01*
X113919003Y-73484709D01*
X114029658Y-73467183D01*
X114029659Y-73467183D01*
X114029660Y-73467182D01*
X114029662Y-73467182D01*
X114129491Y-73416316D01*
X114208716Y-73337091D01*
X114259582Y-73237262D01*
X114259582Y-73237260D01*
X114259583Y-73237259D01*
X114259583Y-73237258D01*
X114277109Y-73126603D01*
X114277109Y-73126596D01*
X114259583Y-73015941D01*
X114259583Y-73015940D01*
X114230055Y-72957989D01*
X114208716Y-72916109D01*
X114208715Y-72916108D01*
X114208714Y-72916106D01*
X114176812Y-72884204D01*
X114143327Y-72822881D01*
X114140493Y-72796523D01*
X114140493Y-72414737D01*
X114160178Y-72347698D01*
X114212982Y-72301943D01*
X114282140Y-72291999D01*
X114303486Y-72297028D01*
X114356205Y-72314497D01*
X114455092Y-72324600D01*
X114455096Y-72324600D01*
X114551304Y-72324600D01*
X114551308Y-72324600D01*
X114650195Y-72314497D01*
X114810408Y-72261409D01*
X114954058Y-72172804D01*
X115073404Y-72053458D01*
X115162009Y-71909808D01*
X115215097Y-71749595D01*
X115225200Y-71650708D01*
X115225200Y-71554492D01*
X115215097Y-71455605D01*
X115215095Y-71455598D01*
X115169411Y-71317728D01*
X115167010Y-71247900D01*
X115199434Y-71191046D01*
X115969254Y-70421228D01*
X115999900Y-70347242D01*
X115999900Y-70267159D01*
X115999900Y-67419342D01*
X116019585Y-67352303D01*
X116036214Y-67331666D01*
X117341536Y-66026343D01*
X117402857Y-65992860D01*
X117439841Y-65991803D01*
X117439841Y-65991709D01*
X117443152Y-65991709D01*
X117448613Y-65991553D01*
X117449598Y-65991709D01*
X117449600Y-65991709D01*
X117449603Y-65991709D01*
X117560258Y-65974183D01*
X117560259Y-65974183D01*
X117560260Y-65974182D01*
X117560262Y-65974182D01*
X117660091Y-65923316D01*
X117739316Y-65844091D01*
X117790182Y-65744262D01*
X117790182Y-65744260D01*
X117790183Y-65744259D01*
X117790183Y-65744258D01*
X117807709Y-65633603D01*
X117807709Y-65633596D01*
X117790183Y-65522941D01*
X117790183Y-65522940D01*
X117790182Y-65522938D01*
X117739316Y-65423109D01*
X117739315Y-65423108D01*
X117739314Y-65423106D01*
X117660093Y-65343885D01*
X117560258Y-65293016D01*
X117449603Y-65275491D01*
X117449597Y-65275491D01*
X117338941Y-65293016D01*
X117338940Y-65293016D01*
X117239106Y-65343885D01*
X117201044Y-65381947D01*
X117139721Y-65415432D01*
X117070029Y-65410446D01*
X117014096Y-65368574D01*
X116989680Y-65303110D01*
X116990145Y-65280370D01*
X116990366Y-65278415D01*
X116990366Y-65278411D01*
X116990366Y-65243589D01*
X116986979Y-65213535D01*
X116986200Y-65199653D01*
X116986200Y-64386000D01*
X117005885Y-64318961D01*
X117058689Y-64273206D01*
X117110200Y-64262000D01*
X117580012Y-64262000D01*
X117647051Y-64281685D01*
G37*
%TD.AperFunction*%
%TA.AperFunction,Conductor*%
G36*
X113139786Y-77391940D02*
G01*
X113231672Y-77430000D01*
X114131128Y-77430000D01*
X114223014Y-77391940D01*
X114234953Y-77380000D01*
X114742854Y-77887902D01*
X114776339Y-77949225D01*
X114771355Y-78018917D01*
X114742854Y-78063264D01*
X113744938Y-79061181D01*
X113683615Y-79094666D01*
X113657257Y-79097500D01*
X111943864Y-79097500D01*
X111876825Y-79077815D01*
X111831070Y-79025011D01*
X111821126Y-78955853D01*
X111850151Y-78892297D01*
X111856183Y-78885819D01*
X112081017Y-78660985D01*
X112526766Y-78215237D01*
X112555139Y-78146738D01*
X112558154Y-78139459D01*
X112560485Y-78133832D01*
X112560486Y-78133827D01*
X112560486Y-78029999D01*
X113184952Y-78029999D01*
X113184953Y-78030000D01*
X114177847Y-78030000D01*
X114177847Y-78029999D01*
X113681400Y-77533553D01*
X113184952Y-78029999D01*
X112560486Y-78029999D01*
X112560486Y-77991359D01*
X112580171Y-77924320D01*
X112605303Y-77902542D01*
X113127845Y-77379999D01*
X113139786Y-77391940D01*
G37*
%TD.AperFunction*%
%TA.AperFunction,Conductor*%
G36*
X99752239Y-64281685D02*
G01*
X99797994Y-64334489D01*
X99809200Y-64386000D01*
X99809200Y-65199653D01*
X99808420Y-65213538D01*
X99805034Y-65243586D01*
X99805034Y-65278415D01*
X99825545Y-65460459D01*
X99825546Y-65460462D01*
X99833293Y-65494407D01*
X99893802Y-65667333D01*
X99893804Y-65667337D01*
X99908912Y-65698710D01*
X99908914Y-65698713D01*
X99908915Y-65698715D01*
X100006386Y-65853840D01*
X100028090Y-65881055D01*
X100157644Y-66010609D01*
X100184859Y-66032313D01*
X100184863Y-66032315D01*
X100184865Y-66032317D01*
X100339990Y-66129788D01*
X100371363Y-66144896D01*
X100544288Y-66205405D01*
X100544292Y-66205406D01*
X100544291Y-66205406D01*
X100554860Y-66207818D01*
X100578235Y-66213153D01*
X100578238Y-66213153D01*
X100578240Y-66213154D01*
X100669262Y-66223409D01*
X100760284Y-66233665D01*
X100760285Y-66233666D01*
X100760289Y-66233666D01*
X100795115Y-66233666D01*
X100795115Y-66233665D01*
X100943625Y-66216932D01*
X101012447Y-66228986D01*
X101045190Y-66252471D01*
X102267546Y-67474827D01*
X102324173Y-67531454D01*
X102398159Y-67562100D01*
X102398161Y-67562100D01*
X103951437Y-67562100D01*
X103951441Y-67562100D01*
X103951444Y-67562098D01*
X103958208Y-67560753D01*
X104027800Y-67566979D01*
X104082978Y-67609840D01*
X104092888Y-67626075D01*
X104129685Y-67698293D01*
X104208906Y-67777514D01*
X104208908Y-67777515D01*
X104208909Y-67777516D01*
X104308738Y-67828382D01*
X104308739Y-67828382D01*
X104308741Y-67828383D01*
X104419397Y-67845909D01*
X104419400Y-67845909D01*
X104419403Y-67845909D01*
X104530058Y-67828383D01*
X104530059Y-67828383D01*
X104530060Y-67828382D01*
X104530062Y-67828382D01*
X104629891Y-67777516D01*
X104709116Y-67698291D01*
X104719533Y-67677845D01*
X104767503Y-67627051D01*
X104810614Y-67611668D01*
X104885662Y-67599782D01*
X104985491Y-67548916D01*
X105064716Y-67469691D01*
X105115582Y-67369862D01*
X105115582Y-67369860D01*
X105115583Y-67369859D01*
X105115583Y-67369858D01*
X105133109Y-67259203D01*
X105133109Y-67259196D01*
X105115583Y-67148541D01*
X105115583Y-67148540D01*
X105107817Y-67133299D01*
X105064716Y-67048709D01*
X105064715Y-67048708D01*
X105064714Y-67048706D01*
X104985493Y-66969485D01*
X104952158Y-66952500D01*
X104885662Y-66918618D01*
X104885661Y-66918617D01*
X104876967Y-66914188D01*
X104878313Y-66911545D01*
X104833690Y-66881021D01*
X104806503Y-66816658D01*
X104818429Y-66747814D01*
X104842009Y-66714870D01*
X105100420Y-66456460D01*
X105161741Y-66422978D01*
X105188099Y-66420144D01*
X106636208Y-66420144D01*
X106703247Y-66439829D01*
X106749002Y-66492633D01*
X106758946Y-66561791D01*
X106729921Y-66625347D01*
X106723889Y-66631825D01*
X103947295Y-69408417D01*
X103947293Y-69408419D01*
X103925609Y-69445978D01*
X103923887Y-69448963D01*
X103916445Y-69461853D01*
X103916443Y-69461856D01*
X103904074Y-69483278D01*
X103904073Y-69483280D01*
X103904073Y-69483281D01*
X103881700Y-69566778D01*
X103881700Y-69566780D01*
X103881700Y-70132651D01*
X103862015Y-70199690D01*
X103845381Y-70220332D01*
X103665932Y-70399781D01*
X103604609Y-70433266D01*
X103578251Y-70436100D01*
X102076161Y-70436100D01*
X101981447Y-70451100D01*
X101918216Y-70483319D01*
X101867277Y-70509274D01*
X101867276Y-70509275D01*
X101867271Y-70509278D01*
X101776678Y-70599871D01*
X101776675Y-70599876D01*
X101718500Y-70714047D01*
X101703500Y-70808760D01*
X101703500Y-71380439D01*
X101718500Y-71475152D01*
X101718502Y-71475155D01*
X101776674Y-71589323D01*
X101776676Y-71589325D01*
X101776678Y-71589328D01*
X101867271Y-71679921D01*
X101867273Y-71679922D01*
X101867277Y-71679926D01*
X101981445Y-71738098D01*
X101981446Y-71738098D01*
X101981448Y-71738099D01*
X101981447Y-71738099D01*
X102076161Y-71753100D01*
X102076166Y-71753100D01*
X103663839Y-71753100D01*
X103761519Y-71737629D01*
X103830812Y-71746584D01*
X103884264Y-71791580D01*
X103891402Y-71803807D01*
X103920285Y-71860493D01*
X103999506Y-71939714D01*
X103999508Y-71939715D01*
X103999509Y-71939716D01*
X104099338Y-71990582D01*
X104099339Y-71990582D01*
X104099341Y-71990583D01*
X104209997Y-72008109D01*
X104210000Y-72008109D01*
X104210003Y-72008109D01*
X104320658Y-71990583D01*
X104320659Y-71990583D01*
X104320660Y-71990582D01*
X104320662Y-71990582D01*
X104420491Y-71939716D01*
X104499716Y-71860491D01*
X104550582Y-71760662D01*
X104550582Y-71760660D01*
X104550583Y-71760659D01*
X104550583Y-71760658D01*
X104568109Y-71650003D01*
X104568109Y-71649996D01*
X104550583Y-71539341D01*
X104550583Y-71539340D01*
X104545852Y-71530055D01*
X104499716Y-71439509D01*
X104499715Y-71439508D01*
X104499714Y-71439506D01*
X104420493Y-71360285D01*
X104320658Y-71309416D01*
X104210003Y-71291891D01*
X104210001Y-71291891D01*
X104210000Y-71291891D01*
X104179896Y-71296658D01*
X104110603Y-71287703D01*
X104057152Y-71242706D01*
X104036513Y-71175955D01*
X104036500Y-71174185D01*
X104036500Y-71009149D01*
X104056185Y-70942110D01*
X104072819Y-70921468D01*
X104229784Y-70764503D01*
X104472706Y-70521581D01*
X104515927Y-70446719D01*
X104522757Y-70421228D01*
X104538300Y-70363222D01*
X104538300Y-70302235D01*
X104557985Y-70235196D01*
X104610789Y-70189441D01*
X104679947Y-70179497D01*
X104718595Y-70191750D01*
X104719508Y-70192215D01*
X104719509Y-70192216D01*
X104819338Y-70243082D01*
X104849406Y-70247844D01*
X104912540Y-70277771D01*
X104917675Y-70282620D01*
X104987362Y-70352307D01*
X105020846Y-70413627D01*
X105015862Y-70483319D01*
X104987362Y-70527667D01*
X104930284Y-70584745D01*
X104879416Y-70684577D01*
X104879416Y-70684578D01*
X104861891Y-70795233D01*
X104861891Y-70795240D01*
X104879416Y-70905895D01*
X104879416Y-70905896D01*
X104930285Y-71005730D01*
X105009506Y-71084951D01*
X105009508Y-71084952D01*
X105009509Y-71084953D01*
X105109338Y-71135819D01*
X105109339Y-71135819D01*
X105109341Y-71135820D01*
X105219997Y-71153346D01*
X105220000Y-71153346D01*
X105220002Y-71153346D01*
X105220980Y-71153191D01*
X105222180Y-71153346D01*
X105229760Y-71153346D01*
X105229760Y-71154325D01*
X105290274Y-71162142D01*
X105328064Y-71187982D01*
X105477181Y-71337099D01*
X105510666Y-71398422D01*
X105513500Y-71424780D01*
X105513500Y-72303530D01*
X105493815Y-72370569D01*
X105441011Y-72416324D01*
X105371853Y-72426268D01*
X105308297Y-72397243D01*
X105301819Y-72391211D01*
X105295493Y-72384885D01*
X105195658Y-72334016D01*
X105085003Y-72316491D01*
X105084997Y-72316491D01*
X104974341Y-72334016D01*
X104974340Y-72334016D01*
X104874506Y-72384885D01*
X104795285Y-72464106D01*
X104744416Y-72563940D01*
X104744416Y-72563941D01*
X104726891Y-72674596D01*
X104726891Y-72674603D01*
X104744416Y-72785258D01*
X104744416Y-72785259D01*
X104795285Y-72885093D01*
X104874506Y-72964314D01*
X104874508Y-72964315D01*
X104874509Y-72964316D01*
X104974338Y-73015182D01*
X104974339Y-73015182D01*
X104974341Y-73015183D01*
X105084997Y-73032709D01*
X105085000Y-73032709D01*
X105085003Y-73032709D01*
X105195658Y-73015183D01*
X105195659Y-73015183D01*
X105195660Y-73015182D01*
X105195662Y-73015182D01*
X105295491Y-72964316D01*
X105295493Y-72964314D01*
X105301819Y-72957989D01*
X105363142Y-72924504D01*
X105432834Y-72929488D01*
X105488767Y-72971360D01*
X105513184Y-73036824D01*
X105513500Y-73045670D01*
X105513500Y-73240441D01*
X105493815Y-73307480D01*
X105477181Y-73328122D01*
X103993295Y-74812007D01*
X103931972Y-74845492D01*
X103862280Y-74840508D01*
X103849682Y-74833741D01*
X103849187Y-74834715D01*
X103809715Y-74814603D01*
X103740662Y-74779418D01*
X103740661Y-74779417D01*
X103740658Y-74779416D01*
X103630003Y-74761891D01*
X103629997Y-74761891D01*
X103519341Y-74779416D01*
X103519340Y-74779416D01*
X103419506Y-74830285D01*
X103340285Y-74909506D01*
X103289416Y-75009340D01*
X103289416Y-75009341D01*
X103271891Y-75119996D01*
X103271891Y-75119998D01*
X103286331Y-75211176D01*
X103277375Y-75280469D01*
X103251543Y-75318248D01*
X103240286Y-75329506D01*
X103240284Y-75329508D01*
X103189417Y-75429338D01*
X103189416Y-75429341D01*
X103171891Y-75539996D01*
X103171891Y-75540003D01*
X103189416Y-75650658D01*
X103189417Y-75650662D01*
X103208897Y-75688893D01*
X103221793Y-75757562D01*
X103208897Y-75801481D01*
X103179417Y-75859337D01*
X103179416Y-75859341D01*
X103161891Y-75969996D01*
X103161891Y-75970003D01*
X103179416Y-76080658D01*
X103179416Y-76080659D01*
X103230285Y-76180493D01*
X103309506Y-76259714D01*
X103309508Y-76259715D01*
X103309509Y-76259716D01*
X103373464Y-76292303D01*
X103424259Y-76340277D01*
X103441054Y-76408097D01*
X103418517Y-76474232D01*
X103404850Y-76490468D01*
X103132936Y-76762382D01*
X103071616Y-76795866D01*
X103045257Y-76798700D01*
X102896244Y-76798700D01*
X102829205Y-76779015D01*
X102785759Y-76730995D01*
X102782815Y-76725217D01*
X102769716Y-76699509D01*
X102769715Y-76699508D01*
X102769714Y-76699506D01*
X102690493Y-76620285D01*
X102590658Y-76569416D01*
X102480003Y-76551891D01*
X102479997Y-76551891D01*
X102369341Y-76569416D01*
X102369340Y-76569416D01*
X102269506Y-76620285D01*
X102190285Y-76699506D01*
X102139416Y-76799340D01*
X102139416Y-76799341D01*
X102121891Y-76909996D01*
X102121891Y-76910003D01*
X102139416Y-77020658D01*
X102139416Y-77020659D01*
X102190285Y-77120493D01*
X102269506Y-77199714D01*
X102269508Y-77199715D01*
X102269509Y-77199716D01*
X102369338Y-77250582D01*
X102369339Y-77250582D01*
X102369341Y-77250583D01*
X102479997Y-77268109D01*
X102480000Y-77268109D01*
X102480003Y-77268109D01*
X102590658Y-77250583D01*
X102590660Y-77250582D01*
X102590662Y-77250582D01*
X102660856Y-77214815D01*
X102717151Y-77201300D01*
X103151111Y-77201300D01*
X103218150Y-77220985D01*
X103263905Y-77273789D01*
X103275111Y-77325300D01*
X103275111Y-77379853D01*
X103305757Y-77453838D01*
X103391654Y-77539735D01*
X103425139Y-77601058D01*
X103426197Y-77638042D01*
X103426291Y-77638042D01*
X103426291Y-77641316D01*
X103426448Y-77646803D01*
X103426291Y-77647794D01*
X103426291Y-77647800D01*
X103429063Y-77665301D01*
X103420109Y-77734594D01*
X103375113Y-77788047D01*
X103308362Y-77808687D01*
X103306590Y-77808700D01*
X102951404Y-77808700D01*
X102877419Y-77839346D01*
X102877418Y-77839347D01*
X102514385Y-78202381D01*
X102453062Y-78235866D01*
X102426704Y-78238700D01*
X101545048Y-78238700D01*
X101478009Y-78219015D01*
X101432254Y-78166211D01*
X101421048Y-78114918D01*
X101420955Y-78061970D01*
X101415393Y-74903278D01*
X101872557Y-74903278D01*
X101890082Y-75013933D01*
X101890082Y-75013934D01*
X101940951Y-75113768D01*
X102020172Y-75192989D01*
X102020174Y-75192990D01*
X102020175Y-75192991D01*
X102120004Y-75243857D01*
X102120005Y-75243857D01*
X102120007Y-75243858D01*
X102230663Y-75261384D01*
X102230666Y-75261384D01*
X102230669Y-75261384D01*
X102341324Y-75243858D01*
X102341325Y-75243858D01*
X102341326Y-75243857D01*
X102341328Y-75243857D01*
X102441157Y-75192991D01*
X102520382Y-75113766D01*
X102571248Y-75013937D01*
X102585060Y-74926726D01*
X102614988Y-74863595D01*
X102674299Y-74826663D01*
X102688136Y-74823653D01*
X102770658Y-74810583D01*
X102770659Y-74810583D01*
X102770660Y-74810582D01*
X102770662Y-74810582D01*
X102870491Y-74759716D01*
X102949716Y-74680491D01*
X103000582Y-74580662D01*
X103000582Y-74580660D01*
X103000583Y-74580659D01*
X103000583Y-74580658D01*
X103005882Y-74547203D01*
X103035811Y-74484068D01*
X103095122Y-74447136D01*
X103128355Y-74442600D01*
X103324446Y-74442600D01*
X103324446Y-74442599D01*
X102870001Y-73988153D01*
X102779143Y-74079010D01*
X102717820Y-74112494D01*
X102672067Y-74113802D01*
X102663807Y-74112494D01*
X102660000Y-74111891D01*
X102659999Y-74111891D01*
X102659997Y-74111891D01*
X102549341Y-74129416D01*
X102549340Y-74129416D01*
X102449506Y-74180285D01*
X102370285Y-74259506D01*
X102319416Y-74359340D01*
X102305605Y-74446546D01*
X102275676Y-74509681D01*
X102216364Y-74546612D01*
X102202531Y-74549621D01*
X102120006Y-74562692D01*
X102020172Y-74613560D01*
X101940951Y-74692781D01*
X101890082Y-74792615D01*
X101890082Y-74792616D01*
X101872557Y-74903271D01*
X101872557Y-74903278D01*
X101415393Y-74903278D01*
X101414260Y-74259575D01*
X101433826Y-74192506D01*
X101486549Y-74146659D01*
X101555690Y-74136593D01*
X101619297Y-74165506D01*
X101637063Y-74184437D01*
X101712579Y-74284020D01*
X101800416Y-74350629D01*
X101800418Y-74350628D01*
X102516446Y-73634601D01*
X103223553Y-73634601D01*
X103939581Y-74350629D01*
X104027419Y-74284020D01*
X104027423Y-74284015D01*
X104119438Y-74162676D01*
X104175308Y-74020999D01*
X104186000Y-73931968D01*
X104186000Y-73337231D01*
X104175308Y-73248200D01*
X104119438Y-73106523D01*
X104027420Y-72985179D01*
X103939582Y-72918569D01*
X103939581Y-72918570D01*
X103223553Y-73634599D01*
X103223553Y-73634601D01*
X102516446Y-73634601D01*
X102516447Y-73634600D01*
X102516447Y-73634599D01*
X101800418Y-72918570D01*
X101800416Y-72918569D01*
X101712581Y-72985179D01*
X101712574Y-72985185D01*
X101634867Y-73087657D01*
X101578674Y-73129180D01*
X101508953Y-73133731D01*
X101447839Y-73099865D01*
X101414736Y-73038335D01*
X101412065Y-73012960D01*
X101411737Y-72826600D01*
X102415553Y-72826600D01*
X102870000Y-73281046D01*
X103324446Y-72826600D01*
X102415553Y-72826600D01*
X101411737Y-72826600D01*
X101410000Y-71840000D01*
X101409999Y-71840000D01*
X98424036Y-71840000D01*
X98356997Y-71820315D01*
X98311242Y-71767511D01*
X98300036Y-71715964D01*
X98300054Y-71654927D01*
X98301958Y-65176937D01*
X98321662Y-65109907D01*
X98338272Y-65089301D01*
X99129255Y-64298319D01*
X99190578Y-64264834D01*
X99216936Y-64262000D01*
X99685200Y-64262000D01*
X99752239Y-64281685D01*
G37*
%TD.AperFunction*%
%TA.AperFunction,Conductor*%
G36*
X107574477Y-75493885D02*
G01*
X107595118Y-75510518D01*
X108239354Y-76154754D01*
X108313340Y-76185400D01*
X108313342Y-76185400D01*
X109348939Y-76185400D01*
X109348941Y-76185400D01*
X109422927Y-76154754D01*
X109422930Y-76154750D01*
X109430667Y-76149582D01*
X109497344Y-76128703D01*
X109564725Y-76147187D01*
X109610043Y-76196387D01*
X109641484Y-76258092D01*
X109720706Y-76337314D01*
X109720708Y-76337315D01*
X109720709Y-76337316D01*
X109820538Y-76388182D01*
X109820539Y-76388182D01*
X109820541Y-76388183D01*
X109931197Y-76405709D01*
X109931200Y-76405709D01*
X109931203Y-76405709D01*
X110041858Y-76388183D01*
X110041859Y-76388183D01*
X110041860Y-76388182D01*
X110041862Y-76388182D01*
X110141691Y-76337316D01*
X110141693Y-76337314D01*
X110142612Y-76336647D01*
X110143919Y-76336180D01*
X110150387Y-76332885D01*
X110150812Y-76333720D01*
X110208418Y-76313165D01*
X110276472Y-76328989D01*
X110325168Y-76379093D01*
X110339500Y-76436963D01*
X110339500Y-76646442D01*
X110370146Y-76720427D01*
X110761927Y-77112208D01*
X110795412Y-77173531D01*
X110796718Y-77180486D01*
X110797558Y-77185788D01*
X110788607Y-77255081D01*
X110743613Y-77308535D01*
X110676862Y-77329178D01*
X110609548Y-77310456D01*
X110587405Y-77292872D01*
X110289079Y-76994546D01*
X110215094Y-76963900D01*
X110215093Y-76963900D01*
X109234641Y-76963900D01*
X109184955Y-76963900D01*
X109117916Y-76944215D01*
X109074471Y-76896196D01*
X109052515Y-76853107D01*
X108973293Y-76773885D01*
X108873458Y-76723016D01*
X108762803Y-76705491D01*
X108762797Y-76705491D01*
X108652141Y-76723016D01*
X108652140Y-76723016D01*
X108552306Y-76773885D01*
X108473085Y-76853106D01*
X108433906Y-76930000D01*
X108422218Y-76952938D01*
X108416934Y-76986298D01*
X108387006Y-77049432D01*
X108327694Y-77086364D01*
X108294461Y-77090900D01*
X106459200Y-77090900D01*
X106392161Y-77071215D01*
X106346406Y-77018411D01*
X106335200Y-76966900D01*
X106335200Y-75687044D01*
X106354885Y-75620005D01*
X106371519Y-75599362D01*
X106460364Y-75510518D01*
X106521688Y-75477034D01*
X106548045Y-75474200D01*
X107507438Y-75474200D01*
X107574477Y-75493885D01*
G37*
%TD.AperFunction*%
%TA.AperFunction,Conductor*%
G36*
X112821271Y-74298789D02*
G01*
X112872471Y-74346332D01*
X112889914Y-74409747D01*
X112889914Y-75475293D01*
X112870229Y-75542332D01*
X112817425Y-75588087D01*
X112748267Y-75598031D01*
X112703914Y-75582680D01*
X112664396Y-75559864D01*
X112635776Y-75552195D01*
X112549920Y-75529190D01*
X112431406Y-75529190D01*
X112316931Y-75559864D01*
X112316930Y-75559864D01*
X112316928Y-75559865D01*
X112214294Y-75619122D01*
X112212037Y-75621380D01*
X112199296Y-75630583D01*
X112200201Y-75631749D01*
X112190557Y-75639233D01*
X112169733Y-75663244D01*
X112163744Y-75669674D01*
X112132751Y-75700670D01*
X112132589Y-75700867D01*
X112130515Y-75702940D01*
X112130512Y-75702944D01*
X112071267Y-75805564D01*
X112040596Y-75920023D01*
X112040595Y-75920029D01*
X112040591Y-76013956D01*
X112040590Y-76038526D01*
X112071249Y-76152989D01*
X112089956Y-76185400D01*
X112117288Y-76232755D01*
X112133752Y-76300658D01*
X112110891Y-76366681D01*
X112097574Y-76382422D01*
X111870020Y-76609976D01*
X111808697Y-76643461D01*
X111739005Y-76638477D01*
X111694658Y-76609976D01*
X111098638Y-76013956D01*
X111065153Y-75952633D01*
X111070137Y-75882941D01*
X111112009Y-75827008D01*
X111177473Y-75802591D01*
X111242614Y-75815790D01*
X111264629Y-75827008D01*
X111319138Y-75854782D01*
X111319141Y-75854783D01*
X111429797Y-75872309D01*
X111429800Y-75872309D01*
X111429803Y-75872309D01*
X111540458Y-75854783D01*
X111540459Y-75854783D01*
X111540460Y-75854782D01*
X111540462Y-75854782D01*
X111640291Y-75803916D01*
X111719516Y-75724691D01*
X111770382Y-75624862D01*
X111770382Y-75624860D01*
X111770383Y-75624859D01*
X111770383Y-75624858D01*
X111787909Y-75514203D01*
X111787909Y-75514196D01*
X111770383Y-75403541D01*
X111770383Y-75403540D01*
X111767347Y-75397582D01*
X111719516Y-75303709D01*
X111719515Y-75303708D01*
X111719514Y-75303706D01*
X111636498Y-75220690D01*
X111603013Y-75159367D01*
X111607997Y-75089675D01*
X111609593Y-75085617D01*
X111618400Y-75064357D01*
X111618400Y-74984275D01*
X111618400Y-74960671D01*
X111638085Y-74893632D01*
X111690889Y-74847877D01*
X111760047Y-74837933D01*
X111781397Y-74842963D01*
X111816205Y-74854497D01*
X111915092Y-74864600D01*
X111915096Y-74864600D01*
X112011304Y-74864600D01*
X112011308Y-74864600D01*
X112110195Y-74854497D01*
X112270408Y-74801409D01*
X112414058Y-74712804D01*
X112533404Y-74593458D01*
X112622009Y-74449808D01*
X112635284Y-74409747D01*
X112648208Y-74370744D01*
X112687979Y-74313299D01*
X112752495Y-74286475D01*
X112821271Y-74298789D01*
G37*
%TD.AperFunction*%
%TA.AperFunction,Conductor*%
G36*
X111847596Y-69247524D02*
G01*
X111891944Y-69276025D01*
X113806963Y-71191045D01*
X113840448Y-71252368D01*
X113836988Y-71317728D01*
X113791304Y-71455598D01*
X113791303Y-71455603D01*
X113781200Y-71554484D01*
X113781200Y-71650704D01*
X113781201Y-71650728D01*
X113781630Y-71654927D01*
X113768858Y-71723620D01*
X113720976Y-71774503D01*
X113690320Y-71785472D01*
X113690622Y-71786401D01*
X113681340Y-71789416D01*
X113581506Y-71840285D01*
X113502285Y-71919506D01*
X113451416Y-72019340D01*
X113451416Y-72019341D01*
X113433891Y-72129996D01*
X113433891Y-72130003D01*
X113451416Y-72240658D01*
X113451416Y-72240659D01*
X113502285Y-72340493D01*
X113581507Y-72419715D01*
X113581509Y-72419716D01*
X113629801Y-72444322D01*
X113680598Y-72492296D01*
X113697507Y-72554807D01*
X113697507Y-72796523D01*
X113677822Y-72863562D01*
X113661188Y-72884204D01*
X113629284Y-72916108D01*
X113629282Y-72916109D01*
X113575134Y-73022381D01*
X113527160Y-73073177D01*
X113459339Y-73089972D01*
X113393204Y-73067434D01*
X113376969Y-73053767D01*
X112878873Y-72555671D01*
X112876075Y-72554512D01*
X112829922Y-72535395D01*
X112829920Y-72535393D01*
X112797468Y-72521951D01*
X112797466Y-72521951D01*
X112252569Y-72521951D01*
X112185530Y-72502266D01*
X112139775Y-72449462D01*
X112129831Y-72380304D01*
X112158856Y-72316748D01*
X112213566Y-72280245D01*
X112255292Y-72266417D01*
X112270408Y-72261409D01*
X112414058Y-72172804D01*
X112533404Y-72053458D01*
X112622009Y-71909808D01*
X112675097Y-71749595D01*
X112685200Y-71650708D01*
X112685200Y-71554492D01*
X112675097Y-71455605D01*
X112675095Y-71455598D01*
X112622010Y-71295394D01*
X112622009Y-71295391D01*
X112533406Y-71151745D01*
X112533403Y-71151741D01*
X112414058Y-71032396D01*
X112414054Y-71032393D01*
X112270408Y-70943790D01*
X112270405Y-70943789D01*
X112110197Y-70890703D01*
X112011315Y-70880600D01*
X112011308Y-70880600D01*
X111915092Y-70880600D01*
X111915084Y-70880600D01*
X111816205Y-70890702D01*
X111678327Y-70936389D01*
X111608499Y-70938789D01*
X111551644Y-70906363D01*
X111213627Y-70568346D01*
X111139642Y-70537700D01*
X111139641Y-70537700D01*
X110559038Y-70537700D01*
X110491999Y-70518015D01*
X110446244Y-70465211D01*
X110436300Y-70396053D01*
X110465325Y-70332497D01*
X110471357Y-70326019D01*
X111365747Y-69431628D01*
X111427070Y-69398143D01*
X111453428Y-69395309D01*
X111455203Y-69395309D01*
X111565858Y-69377783D01*
X111565859Y-69377783D01*
X111565860Y-69377782D01*
X111565862Y-69377782D01*
X111665691Y-69326916D01*
X111716581Y-69276026D01*
X111777904Y-69242540D01*
X111847596Y-69247524D01*
G37*
%TD.AperFunction*%
%TA.AperFunction,Conductor*%
G36*
X111031896Y-70959985D02*
G01*
X111052538Y-70976619D01*
X111266963Y-71191044D01*
X111300448Y-71252367D01*
X111296989Y-71317727D01*
X111251302Y-71455605D01*
X111241200Y-71554484D01*
X111241200Y-71650715D01*
X111251303Y-71749596D01*
X111251303Y-71749598D01*
X111304389Y-71909805D01*
X111304390Y-71909808D01*
X111392993Y-72053454D01*
X111392996Y-72053458D01*
X111512341Y-72172803D01*
X111512345Y-72172806D01*
X111655991Y-72261409D01*
X111655995Y-72261410D01*
X111712834Y-72280245D01*
X111770279Y-72320017D01*
X111797103Y-72384533D01*
X111784788Y-72453309D01*
X111737246Y-72504509D01*
X111673831Y-72521951D01*
X111039945Y-72521951D01*
X110972906Y-72502266D01*
X110927151Y-72449462D01*
X110921101Y-72429389D01*
X110920934Y-72429444D01*
X110917918Y-72420162D01*
X110913486Y-72411464D01*
X110867051Y-72320331D01*
X110867050Y-72320330D01*
X110867049Y-72320328D01*
X110787828Y-72241107D01*
X110687993Y-72190238D01*
X110577338Y-72172713D01*
X110577332Y-72172713D01*
X110466676Y-72190238D01*
X110466675Y-72190238D01*
X110366841Y-72241107D01*
X110287620Y-72320328D01*
X110236751Y-72420162D01*
X110236751Y-72420163D01*
X110219226Y-72530818D01*
X110219226Y-72540581D01*
X110217072Y-72540581D01*
X110209775Y-72597014D01*
X110164776Y-72650464D01*
X110098023Y-72671099D01*
X110030711Y-72652370D01*
X110008579Y-72634793D01*
X109782409Y-72408623D01*
X109748924Y-72347300D01*
X109753908Y-72277608D01*
X109795780Y-72221675D01*
X109804975Y-72215414D01*
X109874058Y-72172804D01*
X109993404Y-72053458D01*
X110082009Y-71909808D01*
X110135097Y-71749595D01*
X110145200Y-71650708D01*
X110145200Y-71554492D01*
X110135097Y-71455605D01*
X110135095Y-71455598D01*
X110082010Y-71295394D01*
X110082009Y-71295391D01*
X109993406Y-71151745D01*
X109988926Y-71146079D01*
X109989969Y-71145253D01*
X109960158Y-71090658D01*
X109965142Y-71020966D01*
X110007014Y-70965033D01*
X110072478Y-70940616D01*
X110081324Y-70940300D01*
X110964857Y-70940300D01*
X111031896Y-70959985D01*
G37*
%TD.AperFunction*%
%TA.AperFunction,Conductor*%
G36*
X107248934Y-71126053D02*
G01*
X107304867Y-71167925D01*
X107329284Y-71233389D01*
X107329600Y-71242235D01*
X107329600Y-72353001D01*
X107309915Y-72420040D01*
X107257111Y-72465795D01*
X107187953Y-72475739D01*
X107186203Y-72475475D01*
X107155308Y-72470582D01*
X107111800Y-72463691D01*
X107111798Y-72463691D01*
X107111797Y-72463691D01*
X107001141Y-72481216D01*
X107001140Y-72481216D01*
X106901305Y-72532086D01*
X106893413Y-72537820D01*
X106891237Y-72534825D01*
X106846058Y-72559496D01*
X106776366Y-72554512D01*
X106732019Y-72526011D01*
X106712693Y-72506685D01*
X106612858Y-72455816D01*
X106502203Y-72438291D01*
X106502197Y-72438291D01*
X106391541Y-72455816D01*
X106391537Y-72455817D01*
X106324994Y-72489723D01*
X106256325Y-72502619D01*
X106191585Y-72476342D01*
X106151328Y-72419235D01*
X106144700Y-72379238D01*
X106144700Y-72179135D01*
X106164385Y-72112096D01*
X106181019Y-72091454D01*
X107117919Y-71154554D01*
X107179242Y-71121069D01*
X107248934Y-71126053D01*
G37*
%TD.AperFunction*%
%TA.AperFunction,Conductor*%
G36*
X108598393Y-67754185D02*
G01*
X108644148Y-67806989D01*
X108654092Y-67876147D01*
X108625067Y-67939703D01*
X108619035Y-67946181D01*
X108592147Y-67973068D01*
X108592146Y-67973069D01*
X108561500Y-68047054D01*
X108561500Y-69537457D01*
X108541815Y-69604496D01*
X108525181Y-69625138D01*
X108220438Y-69929881D01*
X108159115Y-69963366D01*
X108132757Y-69966200D01*
X107780249Y-69966200D01*
X107706264Y-69996846D01*
X107706263Y-69996847D01*
X106127781Y-71575330D01*
X106066458Y-71608815D01*
X105996766Y-71603831D01*
X105940833Y-71561959D01*
X105916416Y-71496495D01*
X105916100Y-71487649D01*
X105916100Y-71249997D01*
X105916099Y-71249994D01*
X105909221Y-71233389D01*
X105885454Y-71176010D01*
X105828827Y-71119383D01*
X105612745Y-70903301D01*
X105579260Y-70841978D01*
X105578205Y-70804997D01*
X105578109Y-70804997D01*
X105578109Y-70801648D01*
X105577954Y-70796217D01*
X105578109Y-70795238D01*
X105578109Y-70795233D01*
X105563168Y-70700897D01*
X105572123Y-70631604D01*
X105617119Y-70578152D01*
X105683871Y-70557513D01*
X105685641Y-70557500D01*
X106305764Y-70557500D01*
X106362057Y-70571014D01*
X106459338Y-70620582D01*
X106459339Y-70620582D01*
X106459341Y-70620583D01*
X106569997Y-70638109D01*
X106570000Y-70638109D01*
X106570003Y-70638109D01*
X106680658Y-70620583D01*
X106680659Y-70620583D01*
X106680660Y-70620582D01*
X106680662Y-70620582D01*
X106780491Y-70569716D01*
X106859716Y-70490491D01*
X106910582Y-70390662D01*
X106910582Y-70390660D01*
X106910583Y-70390659D01*
X106910583Y-70390658D01*
X106928109Y-70280003D01*
X106928109Y-70279996D01*
X106910583Y-70169341D01*
X106910583Y-70169340D01*
X106891889Y-70132651D01*
X106859716Y-70069509D01*
X106859715Y-70069508D01*
X106859714Y-70069506D01*
X106780493Y-69990285D01*
X106680658Y-69939416D01*
X106570003Y-69921891D01*
X106569997Y-69921891D01*
X106459341Y-69939416D01*
X106424961Y-69956934D01*
X106362057Y-69988985D01*
X106305764Y-70002500D01*
X105701411Y-70002500D01*
X105634372Y-69982815D01*
X105588617Y-69930011D01*
X105578673Y-69860853D01*
X105607698Y-69797297D01*
X105613730Y-69790819D01*
X106588335Y-68816215D01*
X107633731Y-67770819D01*
X107695054Y-67737334D01*
X107721412Y-67734500D01*
X108531354Y-67734500D01*
X108598393Y-67754185D01*
G37*
%TD.AperFunction*%
%TA.AperFunction,Conductor*%
G36*
X108242589Y-70578985D02*
G01*
X108288344Y-70631789D01*
X108298288Y-70700947D01*
X108269263Y-70764503D01*
X108263231Y-70770981D01*
X107943881Y-71090331D01*
X107882558Y-71123816D01*
X107812866Y-71118832D01*
X107756933Y-71076960D01*
X107732516Y-71011496D01*
X107732200Y-71002650D01*
X107732200Y-70861043D01*
X107751885Y-70794004D01*
X107768519Y-70773362D01*
X107946262Y-70595619D01*
X108007585Y-70562134D01*
X108033943Y-70559300D01*
X108175550Y-70559300D01*
X108242589Y-70578985D01*
G37*
%TD.AperFunction*%
%TA.AperFunction,Conductor*%
G36*
X115548104Y-66112789D02*
G01*
X115570741Y-66123976D01*
X115579990Y-66129788D01*
X115611363Y-66144896D01*
X115784288Y-66205405D01*
X115784292Y-66205406D01*
X115784291Y-66205406D01*
X115794860Y-66207818D01*
X115818235Y-66213153D01*
X115818238Y-66213153D01*
X115818240Y-66213154D01*
X115909262Y-66223409D01*
X116000284Y-66233665D01*
X116000285Y-66233666D01*
X116000289Y-66233666D01*
X116035115Y-66233666D01*
X116035115Y-66233665D01*
X116149626Y-66220762D01*
X116217159Y-66213154D01*
X116217160Y-66213153D01*
X116217165Y-66213153D01*
X116251112Y-66205405D01*
X116264401Y-66200754D01*
X116334178Y-66197189D01*
X116394807Y-66231914D01*
X116427038Y-66293906D01*
X116420637Y-66363482D01*
X116393042Y-66405475D01*
X115684573Y-67113946D01*
X115627947Y-67170571D01*
X115627946Y-67170572D01*
X115597300Y-67244557D01*
X115597300Y-70172455D01*
X115577615Y-70239494D01*
X115560981Y-70260136D01*
X114914753Y-70906363D01*
X114853430Y-70939848D01*
X114788069Y-70936388D01*
X114650197Y-70890703D01*
X114551315Y-70880600D01*
X114551308Y-70880600D01*
X114455092Y-70880600D01*
X114455084Y-70880600D01*
X114356203Y-70890703D01*
X114356198Y-70890704D01*
X114218328Y-70936388D01*
X114148500Y-70938789D01*
X114091645Y-70906363D01*
X113782904Y-70597622D01*
X113749419Y-70536299D01*
X113753246Y-70482773D01*
X113702991Y-70487573D01*
X113640889Y-70455557D01*
X113638777Y-70453495D01*
X113142216Y-69956934D01*
X112634243Y-69448962D01*
X112623889Y-69429999D01*
X113184952Y-69429999D01*
X113184953Y-69430000D01*
X113808841Y-69430000D01*
X113875880Y-69449685D01*
X113921635Y-69502489D01*
X113931579Y-69571647D01*
X113902554Y-69635203D01*
X113896522Y-69641681D01*
X113836344Y-69701858D01*
X113836339Y-69701864D01*
X113771346Y-69814435D01*
X113771345Y-69814439D01*
X113737700Y-69940003D01*
X113737700Y-70069997D01*
X113765154Y-70172455D01*
X113771346Y-70195564D01*
X113833845Y-70303814D01*
X113850318Y-70371714D01*
X113842845Y-70393303D01*
X113861739Y-70386257D01*
X113930012Y-70401109D01*
X113932520Y-70402517D01*
X114040839Y-70465055D01*
X114166403Y-70498700D01*
X114166406Y-70498700D01*
X114296394Y-70498700D01*
X114296397Y-70498700D01*
X114421961Y-70465055D01*
X114534539Y-70400058D01*
X114626458Y-70308139D01*
X114691455Y-70195561D01*
X114725100Y-70069997D01*
X114725100Y-69940003D01*
X114691455Y-69814439D01*
X114678447Y-69791909D01*
X114626460Y-69701864D01*
X114626455Y-69701858D01*
X114534541Y-69609944D01*
X114534535Y-69609939D01*
X114421964Y-69544946D01*
X114421965Y-69544946D01*
X114296390Y-69511298D01*
X114295222Y-69511145D01*
X114294310Y-69510741D01*
X114288546Y-69509197D01*
X114288786Y-69508297D01*
X114231327Y-69482873D01*
X114223736Y-69475888D01*
X113681400Y-68933553D01*
X113184952Y-69429999D01*
X112623889Y-69429999D01*
X112600759Y-69387640D01*
X112605743Y-69317948D01*
X112634244Y-69273601D01*
X113127845Y-68779999D01*
X113139786Y-68791940D01*
X113231672Y-68830000D01*
X114131128Y-68830000D01*
X114223014Y-68791940D01*
X114234953Y-68780000D01*
X114726452Y-69271500D01*
X114726455Y-69271501D01*
X114773238Y-69240242D01*
X114891639Y-69121842D01*
X114891641Y-69121839D01*
X114984659Y-68982628D01*
X114984659Y-68982627D01*
X115048734Y-68827936D01*
X115048736Y-68827928D01*
X115081399Y-68663722D01*
X115081400Y-68663720D01*
X115081400Y-68496279D01*
X115081399Y-68496277D01*
X115048736Y-68332071D01*
X115048734Y-68332063D01*
X114984659Y-68177372D01*
X114984659Y-68177371D01*
X114891641Y-68038160D01*
X114891635Y-68038152D01*
X114773244Y-67919761D01*
X114726454Y-67888498D01*
X114726453Y-67888498D01*
X114234952Y-68379998D01*
X114223014Y-68368060D01*
X114131128Y-68330000D01*
X113577847Y-68330000D01*
X113681400Y-68226447D01*
X114177847Y-67730000D01*
X113047677Y-67730000D01*
X113046221Y-67730290D01*
X113045443Y-67730220D01*
X113041619Y-67730597D01*
X113041547Y-67729871D01*
X112976630Y-67724058D01*
X112921455Y-67681191D01*
X112899565Y-67628068D01*
X112887691Y-67553097D01*
X112896646Y-67483804D01*
X112941642Y-67430352D01*
X113008394Y-67409713D01*
X113010164Y-67409700D01*
X114822639Y-67409700D01*
X114822641Y-67409700D01*
X114896627Y-67379054D01*
X114896627Y-67379053D01*
X114907911Y-67374380D01*
X114908878Y-67376716D01*
X114959077Y-67360994D01*
X114980697Y-67362500D01*
X114985800Y-67363309D01*
X114985800Y-67363308D01*
X114985801Y-67363309D01*
X114985803Y-67363309D01*
X115096458Y-67345783D01*
X115096459Y-67345783D01*
X115096460Y-67345782D01*
X115096462Y-67345782D01*
X115196291Y-67294916D01*
X115275516Y-67215691D01*
X115326382Y-67115862D01*
X115326382Y-67115860D01*
X115326383Y-67115859D01*
X115326383Y-67115858D01*
X115343909Y-67005203D01*
X115343909Y-67005196D01*
X115326383Y-66894541D01*
X115326383Y-66894540D01*
X115319495Y-66881021D01*
X115275516Y-66794709D01*
X115275515Y-66794708D01*
X115275514Y-66794706D01*
X115196292Y-66715484D01*
X115114249Y-66673680D01*
X115063454Y-66625705D01*
X115046659Y-66557884D01*
X115069197Y-66491749D01*
X115082858Y-66475521D01*
X115417091Y-66141288D01*
X115478412Y-66107805D01*
X115548104Y-66112789D01*
G37*
%TD.AperFunction*%
%TA.AperFunction,Conductor*%
G36*
X109954034Y-68558256D02*
G01*
X110009967Y-68600128D01*
X110034384Y-68665592D01*
X110034700Y-68674438D01*
X110034700Y-68927857D01*
X110015015Y-68994896D01*
X109998381Y-69015538D01*
X109836747Y-69177171D01*
X109836746Y-69177172D01*
X109806100Y-69251157D01*
X109806100Y-69652130D01*
X109786415Y-69719169D01*
X109769781Y-69739811D01*
X109717685Y-69791906D01*
X109666816Y-69891740D01*
X109666816Y-69891741D01*
X109649291Y-70002396D01*
X109649291Y-70002403D01*
X109666816Y-70113058D01*
X109666817Y-70113061D01*
X109674839Y-70128804D01*
X109687736Y-70197474D01*
X109661460Y-70262214D01*
X109604354Y-70302472D01*
X109564355Y-70309100D01*
X109469100Y-70309100D01*
X109402061Y-70289415D01*
X109356306Y-70236611D01*
X109345100Y-70185100D01*
X109345100Y-69116038D01*
X109364785Y-69048999D01*
X109381419Y-69028357D01*
X109823019Y-68586757D01*
X109884342Y-68553272D01*
X109954034Y-68558256D01*
G37*
%TD.AperFunction*%
%TA.AperFunction,Conductor*%
G36*
X112267280Y-68109419D02*
G01*
X112323213Y-68151291D01*
X112347630Y-68216755D01*
X112338508Y-68273052D01*
X112314065Y-68332064D01*
X112314063Y-68332071D01*
X112281400Y-68496277D01*
X112281400Y-68663722D01*
X112309018Y-68802567D01*
X112302791Y-68872158D01*
X112259928Y-68927336D01*
X112194038Y-68950580D01*
X112126041Y-68934512D01*
X112099720Y-68914439D01*
X112051827Y-68866546D01*
X111977842Y-68835900D01*
X111977841Y-68835900D01*
X111805469Y-68835900D01*
X111738430Y-68816215D01*
X111717788Y-68799581D01*
X111683877Y-68765670D01*
X111650392Y-68704347D01*
X111655376Y-68634655D01*
X111683875Y-68590310D01*
X112136267Y-68137918D01*
X112197588Y-68104435D01*
X112267280Y-68109419D01*
G37*
%TD.AperFunction*%
%TA.AperFunction,Conductor*%
G36*
X102292239Y-64281685D02*
G01*
X102337994Y-64334489D01*
X102349200Y-64386000D01*
X102349200Y-65082153D01*
X102348420Y-65096038D01*
X102345034Y-65126086D01*
X102345034Y-65160915D01*
X102365545Y-65342959D01*
X102365546Y-65342962D01*
X102373293Y-65376907D01*
X102433802Y-65549833D01*
X102433804Y-65549837D01*
X102448912Y-65581210D01*
X102448914Y-65581213D01*
X102448915Y-65581215D01*
X102546386Y-65736340D01*
X102568090Y-65763555D01*
X102697644Y-65893109D01*
X102724859Y-65914813D01*
X102724863Y-65914815D01*
X102724865Y-65914817D01*
X102879990Y-66012288D01*
X102911363Y-66027396D01*
X103084288Y-66087905D01*
X103084292Y-66087906D01*
X103084291Y-66087906D01*
X103098158Y-66091070D01*
X103118235Y-66095653D01*
X103118238Y-66095653D01*
X103118240Y-66095654D01*
X103209262Y-66105909D01*
X103300284Y-66116165D01*
X103300285Y-66116166D01*
X103300289Y-66116166D01*
X103335115Y-66116166D01*
X103335115Y-66116165D01*
X103453114Y-66102870D01*
X103517159Y-66095654D01*
X103517160Y-66095653D01*
X103517165Y-66095653D01*
X103551112Y-66087905D01*
X103724037Y-66027396D01*
X103755410Y-66012288D01*
X103910535Y-65914817D01*
X103937759Y-65893106D01*
X104067306Y-65763559D01*
X104089017Y-65736335D01*
X104186488Y-65581210D01*
X104201596Y-65549837D01*
X104262105Y-65376912D01*
X104269853Y-65342965D01*
X104290366Y-65160911D01*
X104290366Y-65126089D01*
X104286979Y-65096035D01*
X104286200Y-65082153D01*
X104286200Y-64386000D01*
X104305885Y-64318961D01*
X104358689Y-64273206D01*
X104410200Y-64262000D01*
X104765200Y-64262000D01*
X104832239Y-64281685D01*
X104877994Y-64334489D01*
X104889200Y-64386000D01*
X104889200Y-65199653D01*
X104888420Y-65213538D01*
X104885034Y-65243586D01*
X104885034Y-65278415D01*
X104905545Y-65460459D01*
X104905546Y-65460462D01*
X104913293Y-65494407D01*
X104973802Y-65667333D01*
X104973804Y-65667337D01*
X104988912Y-65698710D01*
X104988914Y-65698713D01*
X104988915Y-65698715D01*
X105074788Y-65835382D01*
X105093788Y-65902619D01*
X105073420Y-65969454D01*
X105020152Y-66014668D01*
X105017248Y-66015915D01*
X105013315Y-66017544D01*
X104945556Y-66045611D01*
X104939327Y-66048191D01*
X103864338Y-67123181D01*
X103803015Y-67156666D01*
X103776657Y-67159500D01*
X102572943Y-67159500D01*
X102505904Y-67139815D01*
X102485262Y-67123181D01*
X102436105Y-67074024D01*
X102402620Y-67012701D01*
X102407604Y-66943009D01*
X102431300Y-66911354D01*
X102386122Y-66938161D01*
X102316297Y-66935668D01*
X102267775Y-66905694D01*
X102011681Y-66649600D01*
X102438200Y-66649600D01*
X102440640Y-66699637D01*
X102440641Y-66699641D01*
X102470017Y-66770560D01*
X102477486Y-66840029D01*
X102454959Y-66885030D01*
X102514940Y-66862659D01*
X102571236Y-66871781D01*
X102642162Y-66901160D01*
X102692200Y-66903600D01*
X103454184Y-66903600D01*
X103454200Y-66903600D01*
X103504238Y-66901160D01*
X103596697Y-66862862D01*
X103667462Y-66792097D01*
X103705760Y-66699638D01*
X103708200Y-66649600D01*
X103705760Y-66599562D01*
X103667462Y-66507103D01*
X103596697Y-66436338D01*
X103504238Y-66398040D01*
X103454200Y-66395600D01*
X103454194Y-66395600D01*
X102692205Y-66395600D01*
X102692200Y-66395600D01*
X102642162Y-66398040D01*
X102642161Y-66398040D01*
X102549701Y-66436339D01*
X102478939Y-66507101D01*
X102440640Y-66599561D01*
X102440640Y-66599562D01*
X102438200Y-66649600D01*
X102011681Y-66649600D01*
X101472904Y-66110823D01*
X101439419Y-66049500D01*
X101444403Y-65979808D01*
X101472904Y-65935461D01*
X101495468Y-65912897D01*
X101527306Y-65881059D01*
X101549017Y-65853835D01*
X101646488Y-65698710D01*
X101661596Y-65667337D01*
X101722105Y-65494412D01*
X101729853Y-65460465D01*
X101733205Y-65430721D01*
X101740207Y-65368574D01*
X101750366Y-65278411D01*
X101750366Y-65243589D01*
X101746979Y-65213535D01*
X101746200Y-65199653D01*
X101746200Y-64386000D01*
X101765885Y-64318961D01*
X101818689Y-64273206D01*
X101870200Y-64262000D01*
X102225200Y-64262000D01*
X102292239Y-64281685D01*
G37*
%TD.AperFunction*%
%TD*%
D32*
X103708200Y-79095600D02*
G75*
G02*
X103454200Y-79349600I-254000J0D01*
G01*
X102438200Y-79095600D02*
G75*
G02*
X102692200Y-78841600I254000J0D01*
G01*
X102692200Y-66395600D02*
X103454200Y-66395600D01*
X102692200Y-79349600D02*
G75*
G02*
X102438200Y-79095600I0J254000D01*
G01*
X103454200Y-66395600D02*
G75*
G02*
X103708200Y-66649600I0J-254000D01*
G01*
X103454200Y-66903600D02*
X102692200Y-66903600D01*
X102438200Y-66649600D02*
G75*
G02*
X102692200Y-66395600I254000J0D01*
G01*
X102692200Y-78841600D02*
X103454200Y-78841600D01*
X103454200Y-78841600D02*
G75*
G02*
X103708200Y-79095600I0J-254000D01*
G01*
X103454200Y-79349600D02*
X102692200Y-79349600D01*
X103708200Y-66649600D02*
G75*
G02*
X103454200Y-66903600I-254000J0D01*
G01*
X102692200Y-66903600D02*
G75*
G02*
X102438200Y-66649600I0J254000D01*
G01*
D33*
%TO.C,U2*%
X97983700Y-65891000D02*
X97983700Y-79861000D01*
X99888700Y-63986000D02*
X117033700Y-63986000D01*
X99888700Y-81766000D02*
X117033700Y-81766000D01*
X118938700Y-79861000D02*
X118938700Y-65891000D01*
X97983700Y-65891000D02*
G75*
G02*
X99888700Y-63986000I1905001J-1D01*
G01*
X99888700Y-81766000D02*
G75*
G02*
X97983700Y-79861000I1J1905001D01*
G01*
X117033700Y-63986000D02*
G75*
G02*
X118938700Y-65891000I0J-1905000D01*
G01*
X118938700Y-79861000D02*
G75*
G02*
X117033700Y-81766000I-1905000J0D01*
G01*
%TD*%
M02*
