%TF.GenerationSoftware,KiCad,Pcbnew,8.0.0*%
%TF.CreationDate,2025-02-11T16:30:35+08:00*%
%TF.ProjectId,XIAO ESP32 C6,5849414f-2045-4535-9033-322043362e6b,rev?*%
%TF.SameCoordinates,Original*%
%TF.FileFunction,Legend,Bot*%
%TF.FilePolarity,Positive*%
%FSLAX46Y46*%
G04 Gerber Fmt 4.6, Leading zero omitted, Abs format (unit mm)*
G04 Created by KiCad (PCBNEW 8.0.0) date 2025-02-11 16:30:35*
%MOMM*%
%LPD*%
G01*
G04 APERTURE LIST*
%ADD10C,0.150000*%
%ADD11C,0.097790*%
%ADD12C,0.010000*%
%TA.AperFunction,Profile*%
%ADD13C,0.076200*%
%TD*%
%TA.AperFunction,Profile*%
%ADD14C,0.025400*%
%TD*%
G04 APERTURE END LIST*
D10*
X103251000Y-69799200D02*
X102489000Y-69799200D01*
X102870000Y-69418200D02*
X102870000Y-70180200D01*
X102870000Y-74599800D02*
X102870000Y-75361800D01*
X101319887Y-79324745D02*
X101319887Y-78562745D01*
X101319887Y-78562745D02*
X101138458Y-78562745D01*
X101138458Y-78562745D02*
X101029601Y-78599031D01*
X101029601Y-78599031D02*
X100957030Y-78671602D01*
X100957030Y-78671602D02*
X100920744Y-78744174D01*
X100920744Y-78744174D02*
X100884458Y-78889317D01*
X100884458Y-78889317D02*
X100884458Y-78998174D01*
X100884458Y-78998174D02*
X100920744Y-79143317D01*
X100920744Y-79143317D02*
X100957030Y-79215888D01*
X100957030Y-79215888D02*
X101029601Y-79288460D01*
X101029601Y-79288460D02*
X101138458Y-79324745D01*
X101138458Y-79324745D02*
X101319887Y-79324745D01*
X100630458Y-78562745D02*
X100122458Y-78562745D01*
X100122458Y-78562745D02*
X100449030Y-79324745D01*
X108069197Y-71982887D02*
X108032911Y-71874030D01*
X108032911Y-71874030D02*
X107996625Y-71837744D01*
X107996625Y-71837744D02*
X107924054Y-71801458D01*
X107924054Y-71801458D02*
X107815197Y-71801458D01*
X107815197Y-71801458D02*
X107742625Y-71837744D01*
X107742625Y-71837744D02*
X107706340Y-71874030D01*
X107706340Y-71874030D02*
X107670054Y-71946601D01*
X107670054Y-71946601D02*
X107670054Y-72236887D01*
X107670054Y-72236887D02*
X108432054Y-72236887D01*
X108432054Y-72236887D02*
X108432054Y-71982887D01*
X108432054Y-71982887D02*
X108395768Y-71910316D01*
X108395768Y-71910316D02*
X108359482Y-71874030D01*
X108359482Y-71874030D02*
X108286911Y-71837744D01*
X108286911Y-71837744D02*
X108214340Y-71837744D01*
X108214340Y-71837744D02*
X108141768Y-71874030D01*
X108141768Y-71874030D02*
X108105482Y-71910316D01*
X108105482Y-71910316D02*
X108069197Y-71982887D01*
X108069197Y-71982887D02*
X108069197Y-72236887D01*
X108432054Y-71329744D02*
X108432054Y-71184601D01*
X108432054Y-71184601D02*
X108395768Y-71112030D01*
X108395768Y-71112030D02*
X108323197Y-71039458D01*
X108323197Y-71039458D02*
X108178054Y-71003173D01*
X108178054Y-71003173D02*
X107924054Y-71003173D01*
X107924054Y-71003173D02*
X107778911Y-71039458D01*
X107778911Y-71039458D02*
X107706340Y-71112030D01*
X107706340Y-71112030D02*
X107670054Y-71184601D01*
X107670054Y-71184601D02*
X107670054Y-71329744D01*
X107670054Y-71329744D02*
X107706340Y-71402316D01*
X107706340Y-71402316D02*
X107778911Y-71474887D01*
X107778911Y-71474887D02*
X107924054Y-71511173D01*
X107924054Y-71511173D02*
X108178054Y-71511173D01*
X108178054Y-71511173D02*
X108323197Y-71474887D01*
X108323197Y-71474887D02*
X108395768Y-71402316D01*
X108395768Y-71402316D02*
X108432054Y-71329744D01*
X108432054Y-70531458D02*
X108432054Y-70386315D01*
X108432054Y-70386315D02*
X108395768Y-70313744D01*
X108395768Y-70313744D02*
X108323197Y-70241172D01*
X108323197Y-70241172D02*
X108178054Y-70204887D01*
X108178054Y-70204887D02*
X107924054Y-70204887D01*
X107924054Y-70204887D02*
X107778911Y-70241172D01*
X107778911Y-70241172D02*
X107706340Y-70313744D01*
X107706340Y-70313744D02*
X107670054Y-70386315D01*
X107670054Y-70386315D02*
X107670054Y-70531458D01*
X107670054Y-70531458D02*
X107706340Y-70604030D01*
X107706340Y-70604030D02*
X107778911Y-70676601D01*
X107778911Y-70676601D02*
X107924054Y-70712887D01*
X107924054Y-70712887D02*
X108178054Y-70712887D01*
X108178054Y-70712887D02*
X108323197Y-70676601D01*
X108323197Y-70676601D02*
X108395768Y-70604030D01*
X108395768Y-70604030D02*
X108432054Y-70531458D01*
X108432054Y-69987172D02*
X108432054Y-69551744D01*
X107670054Y-69769458D02*
X108432054Y-69769458D01*
X109295487Y-79273945D02*
X109295487Y-78511945D01*
X109295487Y-78511945D02*
X109114058Y-78511945D01*
X109114058Y-78511945D02*
X109005201Y-78548231D01*
X109005201Y-78548231D02*
X108932630Y-78620802D01*
X108932630Y-78620802D02*
X108896344Y-78693374D01*
X108896344Y-78693374D02*
X108860058Y-78838517D01*
X108860058Y-78838517D02*
X108860058Y-78947374D01*
X108860058Y-78947374D02*
X108896344Y-79092517D01*
X108896344Y-79092517D02*
X108932630Y-79165088D01*
X108932630Y-79165088D02*
X109005201Y-79237660D01*
X109005201Y-79237660D02*
X109114058Y-79273945D01*
X109114058Y-79273945D02*
X109295487Y-79273945D01*
X108134344Y-79273945D02*
X108569773Y-79273945D01*
X108352058Y-79273945D02*
X108352058Y-78511945D01*
X108352058Y-78511945D02*
X108424630Y-78620802D01*
X108424630Y-78620802D02*
X108497201Y-78693374D01*
X108497201Y-78693374D02*
X108569773Y-78729660D01*
X107662630Y-78511945D02*
X107590059Y-78511945D01*
X107590059Y-78511945D02*
X107517487Y-78548231D01*
X107517487Y-78548231D02*
X107481202Y-78584517D01*
X107481202Y-78584517D02*
X107444916Y-78657088D01*
X107444916Y-78657088D02*
X107408630Y-78802231D01*
X107408630Y-78802231D02*
X107408630Y-78983660D01*
X107408630Y-78983660D02*
X107444916Y-79128802D01*
X107444916Y-79128802D02*
X107481202Y-79201374D01*
X107481202Y-79201374D02*
X107517487Y-79237660D01*
X107517487Y-79237660D02*
X107590059Y-79273945D01*
X107590059Y-79273945D02*
X107662630Y-79273945D01*
X107662630Y-79273945D02*
X107735202Y-79237660D01*
X107735202Y-79237660D02*
X107771487Y-79201374D01*
X107771487Y-79201374D02*
X107807773Y-79128802D01*
X107807773Y-79128802D02*
X107844059Y-78983660D01*
X107844059Y-78983660D02*
X107844059Y-78802231D01*
X107844059Y-78802231D02*
X107807773Y-78657088D01*
X107807773Y-78657088D02*
X107771487Y-78584517D01*
X107771487Y-78584517D02*
X107735202Y-78548231D01*
X107735202Y-78548231D02*
X107662630Y-78511945D01*
X114077944Y-78573631D02*
X114150516Y-78537345D01*
X114150516Y-78537345D02*
X114259373Y-78537345D01*
X114259373Y-78537345D02*
X114368230Y-78573631D01*
X114368230Y-78573631D02*
X114440801Y-78646202D01*
X114440801Y-78646202D02*
X114477087Y-78718774D01*
X114477087Y-78718774D02*
X114513373Y-78863917D01*
X114513373Y-78863917D02*
X114513373Y-78972774D01*
X114513373Y-78972774D02*
X114477087Y-79117917D01*
X114477087Y-79117917D02*
X114440801Y-79190488D01*
X114440801Y-79190488D02*
X114368230Y-79263060D01*
X114368230Y-79263060D02*
X114259373Y-79299345D01*
X114259373Y-79299345D02*
X114186801Y-79299345D01*
X114186801Y-79299345D02*
X114077944Y-79263060D01*
X114077944Y-79263060D02*
X114041658Y-79226774D01*
X114041658Y-79226774D02*
X114041658Y-78972774D01*
X114041658Y-78972774D02*
X114186801Y-78972774D01*
X113715087Y-79299345D02*
X113715087Y-78537345D01*
X113715087Y-78537345D02*
X113279658Y-79299345D01*
X113279658Y-79299345D02*
X113279658Y-78537345D01*
X112916801Y-79299345D02*
X112916801Y-78537345D01*
X112916801Y-78537345D02*
X112735372Y-78537345D01*
X112735372Y-78537345D02*
X112626515Y-78573631D01*
X112626515Y-78573631D02*
X112553944Y-78646202D01*
X112553944Y-78646202D02*
X112517658Y-78718774D01*
X112517658Y-78718774D02*
X112481372Y-78863917D01*
X112481372Y-78863917D02*
X112481372Y-78972774D01*
X112481372Y-78972774D02*
X112517658Y-79117917D01*
X112517658Y-79117917D02*
X112553944Y-79190488D01*
X112553944Y-79190488D02*
X112626515Y-79263060D01*
X112626515Y-79263060D02*
X112735372Y-79299345D01*
X112735372Y-79299345D02*
X112916801Y-79299345D01*
X118167344Y-78537345D02*
X117913344Y-79299345D01*
X117913344Y-79299345D02*
X117659344Y-78537345D01*
X117151344Y-78900202D02*
X117042487Y-78936488D01*
X117042487Y-78936488D02*
X117006201Y-78972774D01*
X117006201Y-78972774D02*
X116969915Y-79045345D01*
X116969915Y-79045345D02*
X116969915Y-79154202D01*
X116969915Y-79154202D02*
X117006201Y-79226774D01*
X117006201Y-79226774D02*
X117042487Y-79263060D01*
X117042487Y-79263060D02*
X117115058Y-79299345D01*
X117115058Y-79299345D02*
X117405344Y-79299345D01*
X117405344Y-79299345D02*
X117405344Y-78537345D01*
X117405344Y-78537345D02*
X117151344Y-78537345D01*
X117151344Y-78537345D02*
X117078773Y-78573631D01*
X117078773Y-78573631D02*
X117042487Y-78609917D01*
X117042487Y-78609917D02*
X117006201Y-78682488D01*
X117006201Y-78682488D02*
X117006201Y-78755060D01*
X117006201Y-78755060D02*
X117042487Y-78827631D01*
X117042487Y-78827631D02*
X117078773Y-78863917D01*
X117078773Y-78863917D02*
X117151344Y-78900202D01*
X117151344Y-78900202D02*
X117405344Y-78900202D01*
X116643344Y-78537345D02*
X116643344Y-79154202D01*
X116643344Y-79154202D02*
X116607058Y-79226774D01*
X116607058Y-79226774D02*
X116570773Y-79263060D01*
X116570773Y-79263060D02*
X116498201Y-79299345D01*
X116498201Y-79299345D02*
X116353058Y-79299345D01*
X116353058Y-79299345D02*
X116280487Y-79263060D01*
X116280487Y-79263060D02*
X116244201Y-79226774D01*
X116244201Y-79226774D02*
X116207915Y-79154202D01*
X116207915Y-79154202D02*
X116207915Y-78537345D01*
X115881344Y-79263060D02*
X115772487Y-79299345D01*
X115772487Y-79299345D02*
X115591058Y-79299345D01*
X115591058Y-79299345D02*
X115518487Y-79263060D01*
X115518487Y-79263060D02*
X115482201Y-79226774D01*
X115482201Y-79226774D02*
X115445915Y-79154202D01*
X115445915Y-79154202D02*
X115445915Y-79081631D01*
X115445915Y-79081631D02*
X115482201Y-79009060D01*
X115482201Y-79009060D02*
X115518487Y-78972774D01*
X115518487Y-78972774D02*
X115591058Y-78936488D01*
X115591058Y-78936488D02*
X115736201Y-78900202D01*
X115736201Y-78900202D02*
X115808772Y-78863917D01*
X115808772Y-78863917D02*
X115845058Y-78827631D01*
X115845058Y-78827631D02*
X115881344Y-78755060D01*
X115881344Y-78755060D02*
X115881344Y-78682488D01*
X115881344Y-78682488D02*
X115845058Y-78609917D01*
X115845058Y-78609917D02*
X115808772Y-78573631D01*
X115808772Y-78573631D02*
X115736201Y-78537345D01*
X115736201Y-78537345D02*
X115554772Y-78537345D01*
X115554772Y-78537345D02*
X115445915Y-78573631D01*
X103834487Y-78511945D02*
X103834487Y-77749945D01*
X103834487Y-77749945D02*
X103653058Y-77749945D01*
X103653058Y-77749945D02*
X103544201Y-77786231D01*
X103544201Y-77786231D02*
X103471630Y-77858802D01*
X103471630Y-77858802D02*
X103435344Y-77931374D01*
X103435344Y-77931374D02*
X103399058Y-78076517D01*
X103399058Y-78076517D02*
X103399058Y-78185374D01*
X103399058Y-78185374D02*
X103435344Y-78330517D01*
X103435344Y-78330517D02*
X103471630Y-78403088D01*
X103471630Y-78403088D02*
X103544201Y-78475660D01*
X103544201Y-78475660D02*
X103653058Y-78511945D01*
X103653058Y-78511945D02*
X103834487Y-78511945D01*
X102963630Y-78076517D02*
X103036201Y-78040231D01*
X103036201Y-78040231D02*
X103072487Y-78003945D01*
X103072487Y-78003945D02*
X103108773Y-77931374D01*
X103108773Y-77931374D02*
X103108773Y-77895088D01*
X103108773Y-77895088D02*
X103072487Y-77822517D01*
X103072487Y-77822517D02*
X103036201Y-77786231D01*
X103036201Y-77786231D02*
X102963630Y-77749945D01*
X102963630Y-77749945D02*
X102818487Y-77749945D01*
X102818487Y-77749945D02*
X102745916Y-77786231D01*
X102745916Y-77786231D02*
X102709630Y-77822517D01*
X102709630Y-77822517D02*
X102673344Y-77895088D01*
X102673344Y-77895088D02*
X102673344Y-77931374D01*
X102673344Y-77931374D02*
X102709630Y-78003945D01*
X102709630Y-78003945D02*
X102745916Y-78040231D01*
X102745916Y-78040231D02*
X102818487Y-78076517D01*
X102818487Y-78076517D02*
X102963630Y-78076517D01*
X102963630Y-78076517D02*
X103036201Y-78112802D01*
X103036201Y-78112802D02*
X103072487Y-78149088D01*
X103072487Y-78149088D02*
X103108773Y-78221660D01*
X103108773Y-78221660D02*
X103108773Y-78366802D01*
X103108773Y-78366802D02*
X103072487Y-78439374D01*
X103072487Y-78439374D02*
X103036201Y-78475660D01*
X103036201Y-78475660D02*
X102963630Y-78511945D01*
X102963630Y-78511945D02*
X102818487Y-78511945D01*
X102818487Y-78511945D02*
X102745916Y-78475660D01*
X102745916Y-78475660D02*
X102709630Y-78439374D01*
X102709630Y-78439374D02*
X102673344Y-78366802D01*
X102673344Y-78366802D02*
X102673344Y-78221660D01*
X102673344Y-78221660D02*
X102709630Y-78149088D01*
X102709630Y-78149088D02*
X102745916Y-78112802D01*
X102745916Y-78112802D02*
X102818487Y-78076517D01*
X100030339Y-78089773D02*
X99014339Y-77412439D01*
X100030339Y-77412439D02*
X99014339Y-78089773D01*
X99014339Y-77025392D02*
X100030339Y-77025392D01*
X99304624Y-76589963D02*
X99304624Y-76106153D01*
X99014339Y-76686725D02*
X100030339Y-76348058D01*
X100030339Y-76348058D02*
X99014339Y-76009391D01*
X100030339Y-75477201D02*
X100030339Y-75283677D01*
X100030339Y-75283677D02*
X99981958Y-75186915D01*
X99981958Y-75186915D02*
X99885196Y-75090153D01*
X99885196Y-75090153D02*
X99691672Y-75041772D01*
X99691672Y-75041772D02*
X99353005Y-75041772D01*
X99353005Y-75041772D02*
X99159481Y-75090153D01*
X99159481Y-75090153D02*
X99062720Y-75186915D01*
X99062720Y-75186915D02*
X99014339Y-75283677D01*
X99014339Y-75283677D02*
X99014339Y-75477201D01*
X99014339Y-75477201D02*
X99062720Y-75573963D01*
X99062720Y-75573963D02*
X99159481Y-75670725D01*
X99159481Y-75670725D02*
X99353005Y-75719106D01*
X99353005Y-75719106D02*
X99691672Y-75719106D01*
X99691672Y-75719106D02*
X99885196Y-75670725D01*
X99885196Y-75670725D02*
X99981958Y-75573963D01*
X99981958Y-75573963D02*
X100030339Y-75477201D01*
X99546529Y-73832249D02*
X99546529Y-73493582D01*
X99014339Y-73348439D02*
X99014339Y-73832249D01*
X99014339Y-73832249D02*
X100030339Y-73832249D01*
X100030339Y-73832249D02*
X100030339Y-73348439D01*
X99062720Y-72961392D02*
X99014339Y-72816249D01*
X99014339Y-72816249D02*
X99014339Y-72574344D01*
X99014339Y-72574344D02*
X99062720Y-72477582D01*
X99062720Y-72477582D02*
X99111100Y-72429201D01*
X99111100Y-72429201D02*
X99207862Y-72380820D01*
X99207862Y-72380820D02*
X99304624Y-72380820D01*
X99304624Y-72380820D02*
X99401386Y-72429201D01*
X99401386Y-72429201D02*
X99449767Y-72477582D01*
X99449767Y-72477582D02*
X99498148Y-72574344D01*
X99498148Y-72574344D02*
X99546529Y-72767868D01*
X99546529Y-72767868D02*
X99594910Y-72864630D01*
X99594910Y-72864630D02*
X99643291Y-72913011D01*
X99643291Y-72913011D02*
X99740053Y-72961392D01*
X99740053Y-72961392D02*
X99836815Y-72961392D01*
X99836815Y-72961392D02*
X99933577Y-72913011D01*
X99933577Y-72913011D02*
X99981958Y-72864630D01*
X99981958Y-72864630D02*
X100030339Y-72767868D01*
X100030339Y-72767868D02*
X100030339Y-72525963D01*
X100030339Y-72525963D02*
X99981958Y-72380820D01*
X99014339Y-71945392D02*
X100030339Y-71945392D01*
X100030339Y-71945392D02*
X100030339Y-71558344D01*
X100030339Y-71558344D02*
X99981958Y-71461582D01*
X99981958Y-71461582D02*
X99933577Y-71413201D01*
X99933577Y-71413201D02*
X99836815Y-71364820D01*
X99836815Y-71364820D02*
X99691672Y-71364820D01*
X99691672Y-71364820D02*
X99594910Y-71413201D01*
X99594910Y-71413201D02*
X99546529Y-71461582D01*
X99546529Y-71461582D02*
X99498148Y-71558344D01*
X99498148Y-71558344D02*
X99498148Y-71945392D01*
X100030339Y-71026154D02*
X100030339Y-70397201D01*
X100030339Y-70397201D02*
X99643291Y-70735868D01*
X99643291Y-70735868D02*
X99643291Y-70590725D01*
X99643291Y-70590725D02*
X99594910Y-70493963D01*
X99594910Y-70493963D02*
X99546529Y-70445582D01*
X99546529Y-70445582D02*
X99449767Y-70397201D01*
X99449767Y-70397201D02*
X99207862Y-70397201D01*
X99207862Y-70397201D02*
X99111100Y-70445582D01*
X99111100Y-70445582D02*
X99062720Y-70493963D01*
X99062720Y-70493963D02*
X99014339Y-70590725D01*
X99014339Y-70590725D02*
X99014339Y-70881011D01*
X99014339Y-70881011D02*
X99062720Y-70977773D01*
X99062720Y-70977773D02*
X99111100Y-71026154D01*
X99933577Y-70010154D02*
X99981958Y-69961773D01*
X99981958Y-69961773D02*
X100030339Y-69865011D01*
X100030339Y-69865011D02*
X100030339Y-69623106D01*
X100030339Y-69623106D02*
X99981958Y-69526344D01*
X99981958Y-69526344D02*
X99933577Y-69477963D01*
X99933577Y-69477963D02*
X99836815Y-69429582D01*
X99836815Y-69429582D02*
X99740053Y-69429582D01*
X99740053Y-69429582D02*
X99594910Y-69477963D01*
X99594910Y-69477963D02*
X99014339Y-70058535D01*
X99014339Y-70058535D02*
X99014339Y-69429582D01*
X99111100Y-68413582D02*
X99062720Y-68461963D01*
X99062720Y-68461963D02*
X99014339Y-68607106D01*
X99014339Y-68607106D02*
X99014339Y-68703868D01*
X99014339Y-68703868D02*
X99062720Y-68849011D01*
X99062720Y-68849011D02*
X99159481Y-68945773D01*
X99159481Y-68945773D02*
X99256243Y-68994154D01*
X99256243Y-68994154D02*
X99449767Y-69042535D01*
X99449767Y-69042535D02*
X99594910Y-69042535D01*
X99594910Y-69042535D02*
X99788434Y-68994154D01*
X99788434Y-68994154D02*
X99885196Y-68945773D01*
X99885196Y-68945773D02*
X99981958Y-68849011D01*
X99981958Y-68849011D02*
X100030339Y-68703868D01*
X100030339Y-68703868D02*
X100030339Y-68607106D01*
X100030339Y-68607106D02*
X99981958Y-68461963D01*
X99981958Y-68461963D02*
X99933577Y-68413582D01*
X100030339Y-67542725D02*
X100030339Y-67736249D01*
X100030339Y-67736249D02*
X99981958Y-67833011D01*
X99981958Y-67833011D02*
X99933577Y-67881392D01*
X99933577Y-67881392D02*
X99788434Y-67978154D01*
X99788434Y-67978154D02*
X99594910Y-68026535D01*
X99594910Y-68026535D02*
X99207862Y-68026535D01*
X99207862Y-68026535D02*
X99111100Y-67978154D01*
X99111100Y-67978154D02*
X99062720Y-67929773D01*
X99062720Y-67929773D02*
X99014339Y-67833011D01*
X99014339Y-67833011D02*
X99014339Y-67639487D01*
X99014339Y-67639487D02*
X99062720Y-67542725D01*
X99062720Y-67542725D02*
X99111100Y-67494344D01*
X99111100Y-67494344D02*
X99207862Y-67445963D01*
X99207862Y-67445963D02*
X99449767Y-67445963D01*
X99449767Y-67445963D02*
X99546529Y-67494344D01*
X99546529Y-67494344D02*
X99594910Y-67542725D01*
X99594910Y-67542725D02*
X99643291Y-67639487D01*
X99643291Y-67639487D02*
X99643291Y-67833011D01*
X99643291Y-67833011D02*
X99594910Y-67929773D01*
X99594910Y-67929773D02*
X99546529Y-67978154D01*
X99546529Y-67978154D02*
X99449767Y-68026535D01*
X110337054Y-72338487D02*
X111099054Y-72338487D01*
X111099054Y-72338487D02*
X110554768Y-72084487D01*
X110554768Y-72084487D02*
X111099054Y-71830487D01*
X111099054Y-71830487D02*
X110337054Y-71830487D01*
X111099054Y-71576487D02*
X111099054Y-71141059D01*
X110337054Y-71358773D02*
X111099054Y-71358773D01*
X110337054Y-70887059D02*
X111099054Y-70887059D01*
X111099054Y-70887059D02*
X110554768Y-70633059D01*
X110554768Y-70633059D02*
X111099054Y-70379059D01*
X111099054Y-70379059D02*
X110337054Y-70379059D01*
X110373340Y-70052488D02*
X110337054Y-69943631D01*
X110337054Y-69943631D02*
X110337054Y-69762202D01*
X110337054Y-69762202D02*
X110373340Y-69689631D01*
X110373340Y-69689631D02*
X110409625Y-69653345D01*
X110409625Y-69653345D02*
X110482197Y-69617059D01*
X110482197Y-69617059D02*
X110554768Y-69617059D01*
X110554768Y-69617059D02*
X110627340Y-69653345D01*
X110627340Y-69653345D02*
X110663625Y-69689631D01*
X110663625Y-69689631D02*
X110699911Y-69762202D01*
X110699911Y-69762202D02*
X110736197Y-69907345D01*
X110736197Y-69907345D02*
X110772482Y-69979916D01*
X110772482Y-69979916D02*
X110808768Y-70016202D01*
X110808768Y-70016202D02*
X110881340Y-70052488D01*
X110881340Y-70052488D02*
X110953911Y-70052488D01*
X110953911Y-70052488D02*
X111026482Y-70016202D01*
X111026482Y-70016202D02*
X111062768Y-69979916D01*
X111062768Y-69979916D02*
X111099054Y-69907345D01*
X111099054Y-69907345D02*
X111099054Y-69725916D01*
X111099054Y-69725916D02*
X111062768Y-69617059D01*
X113225397Y-72109887D02*
X113225397Y-71855887D01*
X112826254Y-71747030D02*
X112826254Y-72109887D01*
X112826254Y-72109887D02*
X113588254Y-72109887D01*
X113588254Y-72109887D02*
X113588254Y-71747030D01*
X112826254Y-71420458D02*
X113588254Y-71420458D01*
X113588254Y-71420458D02*
X112826254Y-70985029D01*
X112826254Y-70985029D02*
X113588254Y-70985029D01*
X116559887Y-67107345D02*
X116559887Y-66345345D01*
X116559887Y-66345345D02*
X116378458Y-66345345D01*
X116378458Y-66345345D02*
X116269601Y-66381631D01*
X116269601Y-66381631D02*
X116197030Y-66454202D01*
X116197030Y-66454202D02*
X116160744Y-66526774D01*
X116160744Y-66526774D02*
X116124458Y-66671917D01*
X116124458Y-66671917D02*
X116124458Y-66780774D01*
X116124458Y-66780774D02*
X116160744Y-66925917D01*
X116160744Y-66925917D02*
X116197030Y-66998488D01*
X116197030Y-66998488D02*
X116269601Y-67071060D01*
X116269601Y-67071060D02*
X116378458Y-67107345D01*
X116378458Y-67107345D02*
X116559887Y-67107345D01*
X115652744Y-66345345D02*
X115580173Y-66345345D01*
X115580173Y-66345345D02*
X115507601Y-66381631D01*
X115507601Y-66381631D02*
X115471316Y-66417917D01*
X115471316Y-66417917D02*
X115435030Y-66490488D01*
X115435030Y-66490488D02*
X115398744Y-66635631D01*
X115398744Y-66635631D02*
X115398744Y-66817060D01*
X115398744Y-66817060D02*
X115435030Y-66962202D01*
X115435030Y-66962202D02*
X115471316Y-67034774D01*
X115471316Y-67034774D02*
X115507601Y-67071060D01*
X115507601Y-67071060D02*
X115580173Y-67107345D01*
X115580173Y-67107345D02*
X115652744Y-67107345D01*
X115652744Y-67107345D02*
X115725316Y-67071060D01*
X115725316Y-67071060D02*
X115761601Y-67034774D01*
X115761601Y-67034774D02*
X115797887Y-66962202D01*
X115797887Y-66962202D02*
X115834173Y-66817060D01*
X115834173Y-66817060D02*
X115834173Y-66635631D01*
X115834173Y-66635631D02*
X115797887Y-66490488D01*
X115797887Y-66490488D02*
X115761601Y-66417917D01*
X115761601Y-66417917D02*
X115725316Y-66381631D01*
X115725316Y-66381631D02*
X115652744Y-66345345D01*
X106298287Y-67056545D02*
X106298287Y-66294545D01*
X106298287Y-66294545D02*
X106116858Y-66294545D01*
X106116858Y-66294545D02*
X106008001Y-66330831D01*
X106008001Y-66330831D02*
X105935430Y-66403402D01*
X105935430Y-66403402D02*
X105899144Y-66475974D01*
X105899144Y-66475974D02*
X105862858Y-66621117D01*
X105862858Y-66621117D02*
X105862858Y-66729974D01*
X105862858Y-66729974D02*
X105899144Y-66875117D01*
X105899144Y-66875117D02*
X105935430Y-66947688D01*
X105935430Y-66947688D02*
X106008001Y-67020260D01*
X106008001Y-67020260D02*
X106116858Y-67056545D01*
X106116858Y-67056545D02*
X106298287Y-67056545D01*
X105209716Y-66548545D02*
X105209716Y-67056545D01*
X105391144Y-66258260D02*
X105572573Y-66802545D01*
X105572573Y-66802545D02*
X105100858Y-66802545D01*
X101319887Y-67081945D02*
X101319887Y-66319945D01*
X101319887Y-66319945D02*
X101138458Y-66319945D01*
X101138458Y-66319945D02*
X101029601Y-66356231D01*
X101029601Y-66356231D02*
X100957030Y-66428802D01*
X100957030Y-66428802D02*
X100920744Y-66501374D01*
X100920744Y-66501374D02*
X100884458Y-66646517D01*
X100884458Y-66646517D02*
X100884458Y-66755374D01*
X100884458Y-66755374D02*
X100920744Y-66900517D01*
X100920744Y-66900517D02*
X100957030Y-66973088D01*
X100957030Y-66973088D02*
X101029601Y-67045660D01*
X101029601Y-67045660D02*
X101138458Y-67081945D01*
X101138458Y-67081945D02*
X101319887Y-67081945D01*
X100231316Y-66319945D02*
X100376458Y-66319945D01*
X100376458Y-66319945D02*
X100449030Y-66356231D01*
X100449030Y-66356231D02*
X100485316Y-66392517D01*
X100485316Y-66392517D02*
X100557887Y-66501374D01*
X100557887Y-66501374D02*
X100594173Y-66646517D01*
X100594173Y-66646517D02*
X100594173Y-66936802D01*
X100594173Y-66936802D02*
X100557887Y-67009374D01*
X100557887Y-67009374D02*
X100521601Y-67045660D01*
X100521601Y-67045660D02*
X100449030Y-67081945D01*
X100449030Y-67081945D02*
X100303887Y-67081945D01*
X100303887Y-67081945D02*
X100231316Y-67045660D01*
X100231316Y-67045660D02*
X100195030Y-67009374D01*
X100195030Y-67009374D02*
X100158744Y-66936802D01*
X100158744Y-66936802D02*
X100158744Y-66755374D01*
X100158744Y-66755374D02*
X100195030Y-66682802D01*
X100195030Y-66682802D02*
X100231316Y-66646517D01*
X100231316Y-66646517D02*
X100303887Y-66610231D01*
X100303887Y-66610231D02*
X100449030Y-66610231D01*
X100449030Y-66610231D02*
X100521601Y-66646517D01*
X100521601Y-66646517D02*
X100557887Y-66682802D01*
X100557887Y-66682802D02*
X100594173Y-66755374D01*
X115366254Y-72313087D02*
X116128254Y-72313087D01*
X116128254Y-72313087D02*
X115583968Y-72059087D01*
X115583968Y-72059087D02*
X116128254Y-71805087D01*
X116128254Y-71805087D02*
X115366254Y-71805087D01*
X116128254Y-71551087D02*
X116128254Y-71115659D01*
X115366254Y-71333373D02*
X116128254Y-71333373D01*
X115366254Y-70861659D02*
X116128254Y-70861659D01*
X116128254Y-70861659D02*
X116128254Y-70680230D01*
X116128254Y-70680230D02*
X116091968Y-70571373D01*
X116091968Y-70571373D02*
X116019397Y-70498802D01*
X116019397Y-70498802D02*
X115946825Y-70462516D01*
X115946825Y-70462516D02*
X115801682Y-70426230D01*
X115801682Y-70426230D02*
X115692825Y-70426230D01*
X115692825Y-70426230D02*
X115547682Y-70462516D01*
X115547682Y-70462516D02*
X115475111Y-70498802D01*
X115475111Y-70498802D02*
X115402540Y-70571373D01*
X115402540Y-70571373D02*
X115366254Y-70680230D01*
X115366254Y-70680230D02*
X115366254Y-70861659D01*
X115366254Y-70099659D02*
X116128254Y-70099659D01*
X113994487Y-67132745D02*
X113994487Y-66370745D01*
X113994487Y-66370745D02*
X113813058Y-66370745D01*
X113813058Y-66370745D02*
X113704201Y-66407031D01*
X113704201Y-66407031D02*
X113631630Y-66479602D01*
X113631630Y-66479602D02*
X113595344Y-66552174D01*
X113595344Y-66552174D02*
X113559058Y-66697317D01*
X113559058Y-66697317D02*
X113559058Y-66806174D01*
X113559058Y-66806174D02*
X113595344Y-66951317D01*
X113595344Y-66951317D02*
X113631630Y-67023888D01*
X113631630Y-67023888D02*
X113704201Y-67096460D01*
X113704201Y-67096460D02*
X113813058Y-67132745D01*
X113813058Y-67132745D02*
X113994487Y-67132745D01*
X112833344Y-67132745D02*
X113268773Y-67132745D01*
X113051058Y-67132745D02*
X113051058Y-66370745D01*
X113051058Y-66370745D02*
X113123630Y-66479602D01*
X113123630Y-66479602D02*
X113196201Y-66552174D01*
X113196201Y-66552174D02*
X113268773Y-66588460D01*
X115417054Y-75742087D02*
X116179054Y-75742087D01*
X116179054Y-75742087D02*
X115634768Y-75488087D01*
X115634768Y-75488087D02*
X116179054Y-75234087D01*
X116179054Y-75234087D02*
X115417054Y-75234087D01*
X116179054Y-74980087D02*
X116179054Y-74544659D01*
X115417054Y-74762373D02*
X116179054Y-74762373D01*
X115417054Y-74290659D02*
X116179054Y-74290659D01*
X116179054Y-74290659D02*
X116179054Y-74109230D01*
X116179054Y-74109230D02*
X116142768Y-74000373D01*
X116142768Y-74000373D02*
X116070197Y-73927802D01*
X116070197Y-73927802D02*
X115997625Y-73891516D01*
X115997625Y-73891516D02*
X115852482Y-73855230D01*
X115852482Y-73855230D02*
X115743625Y-73855230D01*
X115743625Y-73855230D02*
X115598482Y-73891516D01*
X115598482Y-73891516D02*
X115525911Y-73927802D01*
X115525911Y-73927802D02*
X115453340Y-74000373D01*
X115453340Y-74000373D02*
X115417054Y-74109230D01*
X115417054Y-74109230D02*
X115417054Y-74290659D01*
X116179054Y-73383516D02*
X116179054Y-73238373D01*
X116179054Y-73238373D02*
X116142768Y-73165802D01*
X116142768Y-73165802D02*
X116070197Y-73093230D01*
X116070197Y-73093230D02*
X115925054Y-73056945D01*
X115925054Y-73056945D02*
X115671054Y-73056945D01*
X115671054Y-73056945D02*
X115525911Y-73093230D01*
X115525911Y-73093230D02*
X115453340Y-73165802D01*
X115453340Y-73165802D02*
X115417054Y-73238373D01*
X115417054Y-73238373D02*
X115417054Y-73383516D01*
X115417054Y-73383516D02*
X115453340Y-73456088D01*
X115453340Y-73456088D02*
X115525911Y-73528659D01*
X115525911Y-73528659D02*
X115671054Y-73564945D01*
X115671054Y-73564945D02*
X115925054Y-73564945D01*
X115925054Y-73564945D02*
X116070197Y-73528659D01*
X116070197Y-73528659D02*
X116142768Y-73456088D01*
X116142768Y-73456088D02*
X116179054Y-73383516D01*
X113602768Y-74758744D02*
X113639054Y-74831316D01*
X113639054Y-74831316D02*
X113639054Y-74940173D01*
X113639054Y-74940173D02*
X113602768Y-75049030D01*
X113602768Y-75049030D02*
X113530197Y-75121601D01*
X113530197Y-75121601D02*
X113457625Y-75157887D01*
X113457625Y-75157887D02*
X113312482Y-75194173D01*
X113312482Y-75194173D02*
X113203625Y-75194173D01*
X113203625Y-75194173D02*
X113058482Y-75157887D01*
X113058482Y-75157887D02*
X112985911Y-75121601D01*
X112985911Y-75121601D02*
X112913340Y-75049030D01*
X112913340Y-75049030D02*
X112877054Y-74940173D01*
X112877054Y-74940173D02*
X112877054Y-74867601D01*
X112877054Y-74867601D02*
X112913340Y-74758744D01*
X112913340Y-74758744D02*
X112949625Y-74722458D01*
X112949625Y-74722458D02*
X113203625Y-74722458D01*
X113203625Y-74722458D02*
X113203625Y-74867601D01*
X112877054Y-74395887D02*
X113639054Y-74395887D01*
X113639054Y-74395887D02*
X112877054Y-73960458D01*
X112877054Y-73960458D02*
X113639054Y-73960458D01*
X112877054Y-73597601D02*
X113639054Y-73597601D01*
X113639054Y-73597601D02*
X113639054Y-73416172D01*
X113639054Y-73416172D02*
X113602768Y-73307315D01*
X113602768Y-73307315D02*
X113530197Y-73234744D01*
X113530197Y-73234744D02*
X113457625Y-73198458D01*
X113457625Y-73198458D02*
X113312482Y-73162172D01*
X113312482Y-73162172D02*
X113203625Y-73162172D01*
X113203625Y-73162172D02*
X113058482Y-73198458D01*
X113058482Y-73198458D02*
X112985911Y-73234744D01*
X112985911Y-73234744D02*
X112913340Y-73307315D01*
X112913340Y-73307315D02*
X112877054Y-73416172D01*
X112877054Y-73416172D02*
X112877054Y-73597601D01*
X111857258Y-78537345D02*
X111385544Y-78537345D01*
X111385544Y-78537345D02*
X111639544Y-78827631D01*
X111639544Y-78827631D02*
X111530687Y-78827631D01*
X111530687Y-78827631D02*
X111458116Y-78863917D01*
X111458116Y-78863917D02*
X111421830Y-78900202D01*
X111421830Y-78900202D02*
X111385544Y-78972774D01*
X111385544Y-78972774D02*
X111385544Y-79154202D01*
X111385544Y-79154202D02*
X111421830Y-79226774D01*
X111421830Y-79226774D02*
X111458116Y-79263060D01*
X111458116Y-79263060D02*
X111530687Y-79299345D01*
X111530687Y-79299345D02*
X111748401Y-79299345D01*
X111748401Y-79299345D02*
X111820973Y-79263060D01*
X111820973Y-79263060D02*
X111857258Y-79226774D01*
X111167830Y-78537345D02*
X110913830Y-79299345D01*
X110913830Y-79299345D02*
X110659830Y-78537345D01*
X110478401Y-78537345D02*
X110006687Y-78537345D01*
X110006687Y-78537345D02*
X110260687Y-78827631D01*
X110260687Y-78827631D02*
X110151830Y-78827631D01*
X110151830Y-78827631D02*
X110079259Y-78863917D01*
X110079259Y-78863917D02*
X110042973Y-78900202D01*
X110042973Y-78900202D02*
X110006687Y-78972774D01*
X110006687Y-78972774D02*
X110006687Y-79154202D01*
X110006687Y-79154202D02*
X110042973Y-79226774D01*
X110042973Y-79226774D02*
X110079259Y-79263060D01*
X110079259Y-79263060D02*
X110151830Y-79299345D01*
X110151830Y-79299345D02*
X110369544Y-79299345D01*
X110369544Y-79299345D02*
X110442116Y-79263060D01*
X110442116Y-79263060D02*
X110478401Y-79226774D01*
X100970197Y-72965887D02*
X100933911Y-72857030D01*
X100933911Y-72857030D02*
X100897625Y-72820744D01*
X100897625Y-72820744D02*
X100825054Y-72784458D01*
X100825054Y-72784458D02*
X100716197Y-72784458D01*
X100716197Y-72784458D02*
X100643625Y-72820744D01*
X100643625Y-72820744D02*
X100607340Y-72857030D01*
X100607340Y-72857030D02*
X100571054Y-72929601D01*
X100571054Y-72929601D02*
X100571054Y-73219887D01*
X100571054Y-73219887D02*
X101333054Y-73219887D01*
X101333054Y-73219887D02*
X101333054Y-72965887D01*
X101333054Y-72965887D02*
X101296768Y-72893316D01*
X101296768Y-72893316D02*
X101260482Y-72857030D01*
X101260482Y-72857030D02*
X101187911Y-72820744D01*
X101187911Y-72820744D02*
X101115340Y-72820744D01*
X101115340Y-72820744D02*
X101042768Y-72857030D01*
X101042768Y-72857030D02*
X101006482Y-72893316D01*
X101006482Y-72893316D02*
X100970197Y-72965887D01*
X100970197Y-72965887D02*
X100970197Y-73219887D01*
X100788768Y-72494173D02*
X100788768Y-72131316D01*
X100571054Y-72566744D02*
X101333054Y-72312744D01*
X101333054Y-72312744D02*
X100571054Y-72058744D01*
X101333054Y-71913601D02*
X101333054Y-71478173D01*
X100571054Y-71695887D02*
X101333054Y-71695887D01*
X103885287Y-67996345D02*
X103885287Y-67234345D01*
X103885287Y-67234345D02*
X103703858Y-67234345D01*
X103703858Y-67234345D02*
X103595001Y-67270631D01*
X103595001Y-67270631D02*
X103522430Y-67343202D01*
X103522430Y-67343202D02*
X103486144Y-67415774D01*
X103486144Y-67415774D02*
X103449858Y-67560917D01*
X103449858Y-67560917D02*
X103449858Y-67669774D01*
X103449858Y-67669774D02*
X103486144Y-67814917D01*
X103486144Y-67814917D02*
X103522430Y-67887488D01*
X103522430Y-67887488D02*
X103595001Y-67960060D01*
X103595001Y-67960060D02*
X103703858Y-67996345D01*
X103703858Y-67996345D02*
X103885287Y-67996345D01*
X102760430Y-67234345D02*
X103123287Y-67234345D01*
X103123287Y-67234345D02*
X103159573Y-67597202D01*
X103159573Y-67597202D02*
X103123287Y-67560917D01*
X103123287Y-67560917D02*
X103050716Y-67524631D01*
X103050716Y-67524631D02*
X102869287Y-67524631D01*
X102869287Y-67524631D02*
X102796716Y-67560917D01*
X102796716Y-67560917D02*
X102760430Y-67597202D01*
X102760430Y-67597202D02*
X102724144Y-67669774D01*
X102724144Y-67669774D02*
X102724144Y-67851202D01*
X102724144Y-67851202D02*
X102760430Y-67923774D01*
X102760430Y-67923774D02*
X102796716Y-67960060D01*
X102796716Y-67960060D02*
X102869287Y-67996345D01*
X102869287Y-67996345D02*
X103050716Y-67996345D01*
X103050716Y-67996345D02*
X103123287Y-67960060D01*
X103123287Y-67960060D02*
X103159573Y-67923774D01*
X110311654Y-75767487D02*
X111073654Y-75767487D01*
X111073654Y-75767487D02*
X110529368Y-75513487D01*
X110529368Y-75513487D02*
X111073654Y-75259487D01*
X111073654Y-75259487D02*
X110311654Y-75259487D01*
X111073654Y-75005487D02*
X111073654Y-74570059D01*
X110311654Y-74787773D02*
X111073654Y-74787773D01*
X110384225Y-73880630D02*
X110347940Y-73916916D01*
X110347940Y-73916916D02*
X110311654Y-74025773D01*
X110311654Y-74025773D02*
X110311654Y-74098345D01*
X110311654Y-74098345D02*
X110347940Y-74207202D01*
X110347940Y-74207202D02*
X110420511Y-74279773D01*
X110420511Y-74279773D02*
X110493082Y-74316059D01*
X110493082Y-74316059D02*
X110638225Y-74352345D01*
X110638225Y-74352345D02*
X110747082Y-74352345D01*
X110747082Y-74352345D02*
X110892225Y-74316059D01*
X110892225Y-74316059D02*
X110964797Y-74279773D01*
X110964797Y-74279773D02*
X111037368Y-74207202D01*
X111037368Y-74207202D02*
X111073654Y-74098345D01*
X111073654Y-74098345D02*
X111073654Y-74025773D01*
X111073654Y-74025773D02*
X111037368Y-73916916D01*
X111037368Y-73916916D02*
X111001082Y-73880630D01*
X110311654Y-73554059D02*
X111073654Y-73554059D01*
X110311654Y-73118630D02*
X110747082Y-73445202D01*
X111073654Y-73118630D02*
X110638225Y-73554059D01*
X108432054Y-75052658D02*
X108432054Y-74580944D01*
X108432054Y-74580944D02*
X108141768Y-74834944D01*
X108141768Y-74834944D02*
X108141768Y-74726087D01*
X108141768Y-74726087D02*
X108105482Y-74653516D01*
X108105482Y-74653516D02*
X108069197Y-74617230D01*
X108069197Y-74617230D02*
X107996625Y-74580944D01*
X107996625Y-74580944D02*
X107815197Y-74580944D01*
X107815197Y-74580944D02*
X107742625Y-74617230D01*
X107742625Y-74617230D02*
X107706340Y-74653516D01*
X107706340Y-74653516D02*
X107670054Y-74726087D01*
X107670054Y-74726087D02*
X107670054Y-74943801D01*
X107670054Y-74943801D02*
X107706340Y-75016373D01*
X107706340Y-75016373D02*
X107742625Y-75052658D01*
X108432054Y-74363230D02*
X107670054Y-74109230D01*
X107670054Y-74109230D02*
X108432054Y-73855230D01*
X108432054Y-73673801D02*
X108432054Y-73202087D01*
X108432054Y-73202087D02*
X108141768Y-73456087D01*
X108141768Y-73456087D02*
X108141768Y-73347230D01*
X108141768Y-73347230D02*
X108105482Y-73274659D01*
X108105482Y-73274659D02*
X108069197Y-73238373D01*
X108069197Y-73238373D02*
X107996625Y-73202087D01*
X107996625Y-73202087D02*
X107815197Y-73202087D01*
X107815197Y-73202087D02*
X107742625Y-73238373D01*
X107742625Y-73238373D02*
X107706340Y-73274659D01*
X107706340Y-73274659D02*
X107670054Y-73347230D01*
X107670054Y-73347230D02*
X107670054Y-73564944D01*
X107670054Y-73564944D02*
X107706340Y-73637516D01*
X107706340Y-73637516D02*
X107742625Y-73673801D01*
X108914487Y-67081945D02*
X108914487Y-66319945D01*
X108914487Y-66319945D02*
X108733058Y-66319945D01*
X108733058Y-66319945D02*
X108624201Y-66356231D01*
X108624201Y-66356231D02*
X108551630Y-66428802D01*
X108551630Y-66428802D02*
X108515344Y-66501374D01*
X108515344Y-66501374D02*
X108479058Y-66646517D01*
X108479058Y-66646517D02*
X108479058Y-66755374D01*
X108479058Y-66755374D02*
X108515344Y-66900517D01*
X108515344Y-66900517D02*
X108551630Y-66973088D01*
X108551630Y-66973088D02*
X108624201Y-67045660D01*
X108624201Y-67045660D02*
X108733058Y-67081945D01*
X108733058Y-67081945D02*
X108914487Y-67081945D01*
X108225058Y-66319945D02*
X107753344Y-66319945D01*
X107753344Y-66319945D02*
X108007344Y-66610231D01*
X108007344Y-66610231D02*
X107898487Y-66610231D01*
X107898487Y-66610231D02*
X107825916Y-66646517D01*
X107825916Y-66646517D02*
X107789630Y-66682802D01*
X107789630Y-66682802D02*
X107753344Y-66755374D01*
X107753344Y-66755374D02*
X107753344Y-66936802D01*
X107753344Y-66936802D02*
X107789630Y-67009374D01*
X107789630Y-67009374D02*
X107825916Y-67045660D01*
X107825916Y-67045660D02*
X107898487Y-67081945D01*
X107898487Y-67081945D02*
X108116201Y-67081945D01*
X108116201Y-67081945D02*
X108188773Y-67045660D01*
X108188773Y-67045660D02*
X108225058Y-67009374D01*
X106399887Y-79324745D02*
X106399887Y-78562745D01*
X106399887Y-78562745D02*
X106218458Y-78562745D01*
X106218458Y-78562745D02*
X106109601Y-78599031D01*
X106109601Y-78599031D02*
X106037030Y-78671602D01*
X106037030Y-78671602D02*
X106000744Y-78744174D01*
X106000744Y-78744174D02*
X105964458Y-78889317D01*
X105964458Y-78889317D02*
X105964458Y-78998174D01*
X105964458Y-78998174D02*
X106000744Y-79143317D01*
X106000744Y-79143317D02*
X106037030Y-79215888D01*
X106037030Y-79215888D02*
X106109601Y-79288460D01*
X106109601Y-79288460D02*
X106218458Y-79324745D01*
X106218458Y-79324745D02*
X106399887Y-79324745D01*
X105601601Y-79324745D02*
X105456458Y-79324745D01*
X105456458Y-79324745D02*
X105383887Y-79288460D01*
X105383887Y-79288460D02*
X105347601Y-79252174D01*
X105347601Y-79252174D02*
X105275030Y-79143317D01*
X105275030Y-79143317D02*
X105238744Y-78998174D01*
X105238744Y-78998174D02*
X105238744Y-78707888D01*
X105238744Y-78707888D02*
X105275030Y-78635317D01*
X105275030Y-78635317D02*
X105311316Y-78599031D01*
X105311316Y-78599031D02*
X105383887Y-78562745D01*
X105383887Y-78562745D02*
X105529030Y-78562745D01*
X105529030Y-78562745D02*
X105601601Y-78599031D01*
X105601601Y-78599031D02*
X105637887Y-78635317D01*
X105637887Y-78635317D02*
X105674173Y-78707888D01*
X105674173Y-78707888D02*
X105674173Y-78889317D01*
X105674173Y-78889317D02*
X105637887Y-78961888D01*
X105637887Y-78961888D02*
X105601601Y-78998174D01*
X105601601Y-78998174D02*
X105529030Y-79034460D01*
X105529030Y-79034460D02*
X105383887Y-79034460D01*
X105383887Y-79034460D02*
X105311316Y-78998174D01*
X105311316Y-78998174D02*
X105275030Y-78961888D01*
X105275030Y-78961888D02*
X105238744Y-78889317D01*
X111429087Y-67107345D02*
X111429087Y-66345345D01*
X111429087Y-66345345D02*
X111247658Y-66345345D01*
X111247658Y-66345345D02*
X111138801Y-66381631D01*
X111138801Y-66381631D02*
X111066230Y-66454202D01*
X111066230Y-66454202D02*
X111029944Y-66526774D01*
X111029944Y-66526774D02*
X110993658Y-66671917D01*
X110993658Y-66671917D02*
X110993658Y-66780774D01*
X110993658Y-66780774D02*
X111029944Y-66925917D01*
X111029944Y-66925917D02*
X111066230Y-66998488D01*
X111066230Y-66998488D02*
X111138801Y-67071060D01*
X111138801Y-67071060D02*
X111247658Y-67107345D01*
X111247658Y-67107345D02*
X111429087Y-67107345D01*
X110703373Y-66417917D02*
X110667087Y-66381631D01*
X110667087Y-66381631D02*
X110594516Y-66345345D01*
X110594516Y-66345345D02*
X110413087Y-66345345D01*
X110413087Y-66345345D02*
X110340516Y-66381631D01*
X110340516Y-66381631D02*
X110304230Y-66417917D01*
X110304230Y-66417917D02*
X110267944Y-66490488D01*
X110267944Y-66490488D02*
X110267944Y-66563060D01*
X110267944Y-66563060D02*
X110304230Y-66671917D01*
X110304230Y-66671917D02*
X110739658Y-67107345D01*
X110739658Y-67107345D02*
X110267944Y-67107345D01*
D11*
X111245311Y-72521875D02*
X110793191Y-72521875D01*
X111019251Y-73313085D02*
X111019251Y-72521875D01*
X110529454Y-73313085D02*
X110529454Y-72521875D01*
X110529454Y-72521875D02*
X110228041Y-72521875D01*
X110228041Y-72521875D02*
X110152688Y-72559552D01*
X110152688Y-72559552D02*
X110115011Y-72597229D01*
X110115011Y-72597229D02*
X110077334Y-72672582D01*
X110077334Y-72672582D02*
X110077334Y-72785612D01*
X110077334Y-72785612D02*
X110115011Y-72860965D01*
X110115011Y-72860965D02*
X110152688Y-72898642D01*
X110152688Y-72898642D02*
X110228041Y-72936319D01*
X110228041Y-72936319D02*
X110529454Y-72936319D01*
X109323801Y-73313085D02*
X109775921Y-73313085D01*
X109549861Y-73313085D02*
X109549861Y-72521875D01*
X109549861Y-72521875D02*
X109625214Y-72634905D01*
X109625214Y-72634905D02*
X109700568Y-72710259D01*
X109700568Y-72710259D02*
X109775921Y-72747935D01*
D12*
%TO.C,REF\u002A\u002A*%
X105083190Y-69304850D02*
X105086009Y-69302041D01*
X105083190Y-69322532D02*
X105103690Y-69302041D01*
X105083190Y-69340200D02*
X105121359Y-69302041D01*
X105083190Y-69357882D02*
X105139040Y-69302041D01*
X105083190Y-69375560D02*
X105156718Y-69302041D01*
X105083190Y-69393241D02*
X105174400Y-69302041D01*
X105083190Y-69410910D02*
X105192068Y-69302041D01*
X105083190Y-69428591D02*
X105209750Y-69302041D01*
X105083190Y-69446269D02*
X105227431Y-69302041D01*
X105083190Y-69463950D02*
X105245109Y-69302041D01*
X105083190Y-69481619D02*
X105262781Y-69302041D01*
X105083190Y-72751991D02*
X105090809Y-72744382D01*
X105083190Y-72769669D02*
X105108490Y-72744382D01*
X105083190Y-72787350D02*
X105126168Y-72744382D01*
X105083190Y-72805032D02*
X105143840Y-72744382D01*
X105083190Y-72822700D02*
X105161518Y-72744382D01*
X105083190Y-72840382D02*
X105179200Y-72744382D01*
X105083190Y-72858060D02*
X105196881Y-72744382D01*
X105083190Y-72875741D02*
X105214559Y-72744382D01*
X105083190Y-72893419D02*
X105232231Y-72744382D01*
X105083190Y-72911091D02*
X105249909Y-72744382D01*
X105083190Y-72928769D02*
X105267590Y-72744382D01*
X105083218Y-69799800D02*
X105580981Y-69302041D01*
X105083231Y-71231682D02*
X105088281Y-71226632D01*
X105083250Y-73229241D02*
X105568109Y-72744382D01*
X105083281Y-73246882D02*
X105585790Y-72744382D01*
X105083331Y-69782010D02*
X105563300Y-69302041D01*
X105083531Y-68966441D02*
X105085731Y-68966441D01*
X105083531Y-68968632D02*
X105083531Y-68966441D01*
X105083531Y-68968632D02*
X105085731Y-68966441D01*
X105083531Y-68986310D02*
X105083531Y-68968632D01*
X105083531Y-68986310D02*
X105103400Y-68966441D01*
X105083531Y-69003991D02*
X105083531Y-68986310D01*
X105083531Y-69003991D02*
X105121081Y-68966441D01*
X105083531Y-69021669D02*
X105083531Y-69003991D01*
X105083531Y-69021669D02*
X105138759Y-68966441D01*
X105083531Y-69039341D02*
X105083531Y-69021669D01*
X105083531Y-69039341D02*
X105156440Y-68966441D01*
X105083531Y-69057019D02*
X105083531Y-69039341D01*
X105083531Y-69057019D02*
X105174109Y-68966441D01*
X105083531Y-69074700D02*
X105083531Y-69057019D01*
X105083531Y-69074700D02*
X105191790Y-68966441D01*
X105083531Y-69092382D02*
X105083531Y-69074700D01*
X105083531Y-69092382D02*
X105209468Y-68966441D01*
X105083531Y-69110050D02*
X105083531Y-69092382D01*
X105083531Y-69110050D02*
X105227150Y-68966441D01*
X105083531Y-69127732D02*
X105083531Y-69110050D01*
X105083531Y-69127732D02*
X105244818Y-68966441D01*
X105083531Y-69145410D02*
X105083531Y-69127732D01*
X105083531Y-69145410D02*
X105262500Y-68966441D01*
X105083531Y-69158210D02*
X105083531Y-69145410D01*
X105083540Y-68402950D02*
X105549740Y-67936750D01*
X105083568Y-76234119D02*
X105320740Y-75996950D01*
X105083568Y-77153360D02*
X105444518Y-76792400D01*
X105083590Y-75244150D02*
X105321368Y-75006369D01*
X105083600Y-70736341D02*
X105462318Y-70357610D01*
X105083600Y-72009132D02*
X105447118Y-71645600D01*
X105083618Y-74254169D02*
X105322000Y-74015791D01*
X105083650Y-69817050D02*
X105598659Y-69302041D01*
X105083650Y-70753960D02*
X105480190Y-70357419D01*
X105083650Y-71991400D02*
X105434290Y-71640760D01*
X105083659Y-74236450D02*
X105317300Y-74002810D01*
X105083668Y-71248919D02*
X105105959Y-71226632D01*
X105083709Y-75226350D02*
X105316668Y-74993391D01*
X105083709Y-77135541D02*
X105431531Y-76787719D01*
X105083781Y-76216241D02*
X105316040Y-75983969D01*
X105083790Y-68420369D02*
X105566790Y-67937369D01*
X105083800Y-73211010D02*
X105550431Y-72744382D01*
X105083850Y-68384960D02*
X105532031Y-67936769D01*
X105083850Y-73263991D02*
X105603459Y-72744382D01*
X105083859Y-77170750D02*
X105456790Y-76797810D01*
X105083950Y-76251410D02*
X105325440Y-76009919D01*
X105083968Y-72026432D02*
X105459250Y-71651160D01*
X105084050Y-75261369D02*
X105326068Y-75019341D01*
X105084068Y-69763600D02*
X105545631Y-69302041D01*
X105084150Y-71973219D02*
X105420690Y-71636682D01*
X105084150Y-74271310D02*
X105326700Y-74028760D01*
X105084250Y-70718000D02*
X105443768Y-70358491D01*
X105084300Y-74218132D02*
X105312600Y-73989841D01*
X105084309Y-77117260D02*
X105417768Y-76783800D01*
X105084381Y-70770910D02*
X105497868Y-70357419D01*
X105084440Y-75207950D02*
X105311968Y-74980419D01*
X105084550Y-77187741D02*
X105468368Y-76803910D01*
X105084559Y-68437282D02*
X105583250Y-67938582D01*
X105084590Y-69833791D02*
X105616340Y-69302041D01*
X105084590Y-76197750D02*
X105311340Y-75971000D01*
X105084650Y-71265619D02*
X105123631Y-71226632D01*
X105084731Y-72043350D02*
X105470690Y-71657391D01*
X105084800Y-68366319D02*
X105513490Y-67937641D01*
X105084909Y-76268141D02*
X105330150Y-76022900D01*
X105084931Y-73280591D02*
X105621140Y-72744382D01*
X105085040Y-73192091D02*
X105532750Y-72744382D01*
X105085068Y-75278019D02*
X105330781Y-75032319D01*
X105085159Y-71954532D02*
X105406290Y-71633400D01*
X105085250Y-74287891D02*
X105331409Y-74041741D01*
X105085450Y-77098450D02*
X105403200Y-76780691D01*
X105085518Y-69744469D02*
X105527950Y-69302041D01*
X105085600Y-77204360D02*
X105280100Y-77009860D01*
X105085618Y-74199141D02*
X105307900Y-73976860D01*
X105085718Y-70698860D02*
X105424400Y-70360182D01*
X105085731Y-68966441D02*
X105103400Y-68966441D01*
X105085731Y-70787241D02*
X105515550Y-70357419D01*
X105085831Y-68453691D02*
X105599181Y-67940341D01*
X105085850Y-75188860D02*
X105307268Y-74967441D01*
X105085859Y-72059900D02*
X105272618Y-71873141D01*
X105086018Y-69850032D02*
X105634018Y-69302041D01*
X105086100Y-76178560D02*
X105306631Y-75958019D01*
X105086159Y-71281791D02*
X105141309Y-71226632D01*
X105086390Y-76284341D02*
X105334850Y-76035869D01*
X105086490Y-73296700D02*
X105638818Y-72744382D01*
X105086531Y-68346919D02*
X105493968Y-67939482D01*
X105086618Y-75294150D02*
X105335481Y-75045291D01*
X105086781Y-71935232D02*
X105391040Y-71630969D01*
X105086809Y-69495691D02*
X105280459Y-69302041D01*
X105086868Y-74303950D02*
X105336109Y-74054710D01*
X105086990Y-77220650D02*
X105261018Y-77046619D01*
X105087109Y-73172341D02*
X105515081Y-72744382D01*
X105087200Y-77079019D02*
X105387768Y-76778450D01*
X105087318Y-72076119D02*
X105259218Y-71904210D01*
X105087581Y-68469610D02*
X105614590Y-67942600D01*
X105087650Y-70802991D02*
X105533218Y-70357419D01*
X105087718Y-74179360D02*
X105303190Y-73963891D01*
X105087840Y-69724469D02*
X105510268Y-69302041D01*
X105087931Y-69865800D02*
X105339568Y-69614160D01*
X105088068Y-75168960D02*
X105302559Y-74954469D01*
X105088168Y-70678732D02*
X105404059Y-70362841D01*
X105088190Y-71297432D02*
X105158990Y-71226632D01*
X105088359Y-76300041D02*
X105315968Y-76072432D01*
X105088409Y-69158210D02*
X105083531Y-69158210D01*
X105088409Y-69158210D02*
X105280181Y-68966441D01*
X105088431Y-76158550D02*
X105301931Y-75945050D01*
X105088531Y-73312350D02*
X105317918Y-73082960D01*
X105088659Y-75309791D02*
X105310331Y-75088119D01*
X105088700Y-77236610D02*
X105254250Y-77071060D01*
X105088968Y-74319532D02*
X105305931Y-74102569D01*
X105089090Y-72092019D02*
X105253300Y-71927810D01*
X105089109Y-71915219D02*
X105374900Y-71629441D01*
X105089168Y-68326600D02*
X105473318Y-67942450D01*
X105089700Y-77058841D02*
X105371431Y-76777110D01*
X105089800Y-68485069D02*
X105305118Y-68269750D01*
X105090109Y-70818210D02*
X105550900Y-70357419D01*
X105090181Y-73151600D02*
X105497400Y-72744382D01*
X105090290Y-69881110D02*
X105297418Y-69673991D01*
X105090718Y-77252282D02*
X105250518Y-77092482D01*
X105090731Y-71312569D02*
X105176668Y-71226632D01*
X105090750Y-74158650D02*
X105298490Y-73950910D01*
X105090800Y-76315282D02*
X105291659Y-76114410D01*
X105091009Y-73327541D02*
X105292690Y-73125860D01*
X105091159Y-75324960D02*
X105289790Y-75126341D01*
X105091168Y-72107619D02*
X105249968Y-71948832D01*
X105091218Y-69703410D02*
X105492590Y-69302041D01*
X105091240Y-75148110D02*
X105297859Y-74941491D01*
X105091531Y-74334650D02*
X105288050Y-74138132D01*
X105091609Y-72938032D02*
X105285268Y-72744382D01*
X105091750Y-76137550D02*
X105297231Y-75932069D01*
X105091831Y-70657391D02*
X105382500Y-70366719D01*
X105092318Y-71894341D02*
X105357790Y-71628869D01*
X105092450Y-68500091D02*
X105287550Y-68304991D01*
X105092968Y-68305119D02*
X105451318Y-67946769D01*
X105093018Y-77267650D02*
X105248390Y-77112282D01*
X105093068Y-70832932D02*
X105568581Y-70357419D01*
X105093100Y-69895991D02*
X105283550Y-69705532D01*
X105093109Y-77037750D02*
X105354118Y-76776741D01*
X105093531Y-72122941D02*
X105248100Y-71968369D01*
X105093681Y-76330069D02*
X105280500Y-76143260D01*
X105093781Y-71327200D02*
X105194340Y-71226632D01*
X105093931Y-73342300D02*
X105281059Y-73155160D01*
X105094100Y-75339710D02*
X105279390Y-75154410D01*
X105094509Y-73129591D02*
X105479718Y-72744382D01*
X105094518Y-74349332D02*
X105278359Y-74165500D01*
X105094940Y-74136782D02*
X105293790Y-73937941D01*
X105095540Y-68514682D02*
X105278409Y-68331819D01*
X105095600Y-75126069D02*
X105293159Y-74928519D01*
X105095600Y-77282750D02*
X105247318Y-77131032D01*
X105095950Y-69681000D02*
X105474918Y-69302041D01*
X105096159Y-72137982D02*
X105247200Y-71986950D01*
X105096290Y-76115332D02*
X105292531Y-75919100D01*
X105096318Y-69910441D02*
X105275990Y-69730769D01*
X105096490Y-70847182D02*
X105296959Y-70646719D01*
X105096618Y-71872369D02*
X105339568Y-71629410D01*
X105096968Y-76344460D02*
X105273818Y-76167610D01*
X105097059Y-70634491D02*
X105359381Y-70372169D01*
X105097268Y-73356641D02*
X105274559Y-73179350D01*
X105097318Y-71341332D02*
X105212018Y-71226632D01*
X105097450Y-75354041D02*
X105273159Y-75178319D01*
X105097668Y-77015510D02*
X105335618Y-76777560D01*
X105097931Y-74363610D02*
X105272550Y-74188991D01*
X105098240Y-68282182D02*
X105427700Y-67952719D01*
X105098440Y-77297591D02*
X105247009Y-77149019D01*
X105099040Y-68528860D02*
X105273181Y-68354719D01*
X105099059Y-72152760D02*
X105247018Y-72004810D01*
X105099959Y-69924482D02*
X105271668Y-69752769D01*
X105100359Y-70861000D02*
X105285309Y-70676050D01*
X105100481Y-73105941D02*
X105462040Y-72744382D01*
X105100581Y-74113469D02*
X105289090Y-73924960D01*
X105100659Y-76358450D02*
X105269981Y-76189132D01*
X105101009Y-73370569D02*
X105270881Y-73200700D01*
X105101181Y-75367982D02*
X105269631Y-75199532D01*
X105101359Y-71354969D02*
X105229700Y-71226632D01*
X105101468Y-75102532D02*
X105288459Y-74915541D01*
X105101540Y-77312160D02*
X105247340Y-77166360D01*
X105101709Y-74377500D02*
X105269331Y-74209891D01*
X105102218Y-72167291D02*
X105247490Y-72022010D01*
X105102359Y-71848941D02*
X105319840Y-71631460D01*
X105102390Y-76091550D02*
X105287831Y-75906119D01*
X105102468Y-69656800D02*
X105457240Y-69302041D01*
X105102940Y-68542641D02*
X105270318Y-68375260D01*
X105103400Y-68966441D02*
X105121081Y-68966441D01*
X105103781Y-76991719D02*
X105315509Y-76779991D01*
X105103990Y-69938132D02*
X105269409Y-69772700D01*
X105104418Y-70609441D02*
X105334109Y-70379750D01*
X105104481Y-69495691D02*
X105298140Y-69302041D01*
X105104640Y-70874391D02*
X105279690Y-70699341D01*
X105104718Y-76372069D02*
X105268240Y-76208550D01*
X105104900Y-77326482D02*
X105248290Y-77183091D01*
X105105150Y-73384110D02*
X105269068Y-73220191D01*
X105105300Y-75381541D02*
X105268140Y-75218700D01*
X105105500Y-68257232D02*
X105402040Y-67960700D01*
X105105631Y-72181560D02*
X105248550Y-72038632D01*
X105105868Y-74391019D02*
X105268068Y-74228810D01*
X105105881Y-71368119D02*
X105247381Y-71226632D01*
X105106090Y-69158210D02*
X105088409Y-69158210D01*
X105106090Y-69158210D02*
X105297859Y-68966441D01*
X105107231Y-68556032D02*
X105269090Y-68394169D01*
X105108140Y-74088219D02*
X105284381Y-73911982D01*
X105108400Y-69951400D02*
X105268609Y-69791182D01*
X105108500Y-77340560D02*
X105249759Y-77199300D01*
X105108759Y-73079982D02*
X105444368Y-72744382D01*
X105109140Y-76385319D02*
X105268140Y-76226319D01*
X105109281Y-72195582D02*
X105250131Y-72054732D01*
X105109290Y-72938032D02*
X105302940Y-72744382D01*
X105109318Y-70887391D02*
X105276900Y-70719810D01*
X105109340Y-75076982D02*
X105283750Y-74902560D01*
X105109659Y-73397282D02*
X105268600Y-73238341D01*
X105109759Y-75394750D02*
X105268218Y-75236300D01*
X105110159Y-71823469D02*
X105298000Y-71635632D01*
X105110390Y-74404182D02*
X105268309Y-74246260D01*
X105110590Y-76065669D02*
X105283118Y-75893141D01*
X105110890Y-71380791D02*
X105265050Y-71226632D01*
X105111540Y-69630050D02*
X105439559Y-69302041D01*
X105111881Y-68569050D02*
X105269050Y-68411891D01*
X105112118Y-76965710D02*
X105293109Y-76784719D01*
X105112350Y-77354382D02*
X105251700Y-77215032D01*
X105113181Y-69964300D02*
X105268909Y-69808560D01*
X105113181Y-72209350D02*
X105252159Y-72070369D01*
X105113909Y-76398241D02*
X105269109Y-76243032D01*
X105114381Y-70900010D02*
X105275859Y-70738532D01*
X105114540Y-73410082D02*
X105269150Y-73255469D01*
X105114568Y-75407619D02*
X105269309Y-75252882D01*
X105115040Y-70581150D02*
X105305600Y-70390591D01*
X105115240Y-74417000D02*
X105269518Y-74262719D01*
X105115700Y-68229360D02*
X105373731Y-67971332D01*
X105116381Y-71392982D02*
X105275531Y-71233832D01*
X105116450Y-77367969D02*
X105254068Y-77230350D01*
X105116900Y-68581710D02*
X105269959Y-68428660D01*
X105117331Y-72222891D02*
X105254609Y-72085610D01*
X105118309Y-69976832D02*
X105270118Y-69825032D01*
X105118459Y-74060241D02*
X105279681Y-73899010D01*
X105119000Y-76410819D02*
X105270950Y-76258869D01*
X105119709Y-75420160D02*
X105271259Y-75268610D01*
X105119768Y-73422519D02*
X105270590Y-73271700D01*
X105119809Y-70912250D02*
X105276100Y-70755969D01*
X105120118Y-75048519D02*
X105279050Y-74889591D01*
X105120431Y-74429500D02*
X105271581Y-74278341D01*
X105120559Y-73050510D02*
X105426690Y-72744382D01*
X105120790Y-77381310D02*
X105256809Y-77245282D01*
X105121081Y-68966441D02*
X105138759Y-68966441D01*
X105121209Y-71794732D02*
X105272831Y-71643119D01*
X105121718Y-72236169D02*
X105257431Y-72100460D01*
X105121868Y-76036719D02*
X105278418Y-75880169D01*
X105122159Y-69495691D02*
X105315818Y-69302041D01*
X105122268Y-68594019D02*
X105271740Y-68444550D01*
X105122350Y-71404691D02*
X105276140Y-71250900D01*
X105123768Y-69158210D02*
X105106090Y-69158210D01*
X105123768Y-69158210D02*
X105315531Y-68966441D01*
X105123800Y-69989032D02*
X105272168Y-69840650D01*
X105124131Y-76936019D02*
X105266968Y-76793182D01*
X105124418Y-76423082D02*
X105273581Y-76273919D01*
X105124681Y-69599241D02*
X105421881Y-69302041D01*
X105125168Y-75432382D02*
X105273981Y-75283569D01*
X105125350Y-73434619D02*
X105272868Y-73287100D01*
X105125368Y-77394400D02*
X105259918Y-77259860D01*
X105125600Y-70924150D02*
X105277518Y-70772232D01*
X105125931Y-74441669D02*
X105274400Y-74293200D01*
X105126359Y-72249210D02*
X105260600Y-72114969D01*
X105126968Y-72938032D02*
X105320618Y-72744382D01*
X105127990Y-68605982D02*
X105274331Y-68459641D01*
X105128790Y-71415932D02*
X105277540Y-71267182D01*
X105129618Y-70000891D02*
X105275018Y-69855491D01*
X105130140Y-76435032D02*
X105276900Y-76288282D01*
X105130209Y-77407241D02*
X105263350Y-77274100D01*
X105130800Y-68196591D02*
X105341268Y-67986110D01*
X105130931Y-75444291D02*
X105277400Y-75297832D01*
X105131240Y-72262000D02*
X105264100Y-72129141D01*
X105131240Y-73446410D02*
X105275918Y-73301732D01*
X105131581Y-70546941D02*
X105271159Y-70407350D01*
X105131718Y-70935700D02*
X105279968Y-70787450D01*
X105131731Y-74453550D02*
X105277900Y-74307369D01*
X105133190Y-74027832D02*
X105274981Y-73886032D01*
X105133968Y-68617682D02*
X105277668Y-68473982D01*
X105135300Y-77419832D02*
X105267100Y-77288032D01*
X105135668Y-70012510D02*
X105278600Y-69869582D01*
X105135681Y-75015291D02*
X105274350Y-74876610D01*
X105135709Y-71426682D02*
X105279900Y-71282500D01*
X105136168Y-76446691D02*
X105280868Y-76301991D01*
X105136390Y-72274541D02*
X105267909Y-72143010D01*
X105137000Y-75455910D02*
X105281450Y-75311460D01*
X105137359Y-73457969D02*
X105279700Y-73315632D01*
X105137831Y-74465119D02*
X105282040Y-74320919D01*
X105138181Y-70946919D02*
X105283359Y-70801741D01*
X105138340Y-76002569D02*
X105273718Y-75867191D01*
X105138440Y-73014941D02*
X105409009Y-72744382D01*
X105138759Y-68966441D02*
X105156440Y-68966441D01*
X105138918Y-71759350D02*
X105240940Y-71657332D01*
X105139840Y-69495691D02*
X105333490Y-69302041D01*
X105140181Y-68629141D02*
X105281718Y-68487610D01*
X105140650Y-77432150D02*
X105271150Y-77301660D01*
X105141440Y-69158210D02*
X105123768Y-69158210D01*
X105141440Y-69158210D02*
X105333209Y-68966441D01*
X105141790Y-72286810D02*
X105272018Y-72156582D01*
X105141968Y-70023891D02*
X105282868Y-69882991D01*
X105142481Y-76458050D02*
X105285431Y-76315110D01*
X105143109Y-71436960D02*
X105283418Y-71296650D01*
X105143350Y-75467232D02*
X105286081Y-75324500D01*
X105143718Y-73469291D02*
X105284150Y-73328860D01*
X105144218Y-74476410D02*
X105286750Y-74333891D01*
X105144390Y-76898082D02*
X105232518Y-76809950D01*
X105144640Y-72938032D02*
X105338300Y-72744382D01*
X105144868Y-69561369D02*
X105404209Y-69302041D01*
X105144968Y-70957810D02*
X105287590Y-70815191D01*
X105146268Y-77444210D02*
X105275490Y-77315000D01*
X105146640Y-68640369D02*
X105286418Y-68500582D01*
X105147468Y-72298810D02*
X105276418Y-72169860D01*
X105148500Y-70035041D02*
X105287790Y-69895741D01*
X105149081Y-76469132D02*
X105290540Y-76327669D01*
X105149990Y-75478269D02*
X105291259Y-75337000D01*
X105150318Y-73480369D02*
X105289240Y-73341450D01*
X105150900Y-74487410D02*
X105292000Y-74346310D01*
X105150990Y-71446760D02*
X105288381Y-71309369D01*
X105152068Y-70968382D02*
X105292600Y-70827850D01*
X105152168Y-77455991D02*
X105280100Y-77328060D01*
X105153331Y-68651350D02*
X105291750Y-68512932D01*
X105153431Y-72310532D02*
X105281100Y-72182860D01*
X105153840Y-68155869D02*
X105300790Y-68008919D01*
X105155268Y-70045950D02*
X105293300Y-69907910D01*
X105155959Y-76479932D02*
X105296168Y-76339719D01*
X105156440Y-68966441D02*
X105174109Y-68966441D01*
X105156900Y-75489041D02*
X105296959Y-75348982D01*
X105157150Y-73491210D02*
X105294881Y-73353482D01*
X105157209Y-73986119D02*
X105270281Y-73873060D01*
X105157518Y-69495691D02*
X105351168Y-69302041D01*
X105157850Y-74498141D02*
X105297759Y-74358232D01*
X105158359Y-77467469D02*
X105285000Y-77340841D01*
X105159118Y-69158210D02*
X105141440Y-69158210D01*
X105159118Y-69158210D02*
X105350890Y-68966441D01*
X105159359Y-71456069D02*
X105295109Y-71320319D01*
X105159490Y-70978641D02*
X105298350Y-70839782D01*
X105159690Y-72321950D02*
X105286040Y-72195591D01*
X105160259Y-68662100D02*
X105297568Y-68524791D01*
X105161968Y-74971319D02*
X105269650Y-74863641D01*
X105162281Y-70056610D02*
X105299281Y-69919619D01*
X105162318Y-72938032D02*
X105355981Y-72744382D01*
X105163100Y-76490460D02*
X105302290Y-76351282D01*
X105164081Y-75499532D02*
X105303150Y-75360469D01*
X105164231Y-73501810D02*
X105300981Y-73365060D01*
X105164859Y-77478650D02*
X105290159Y-77353360D01*
X105165068Y-74508600D02*
X105304009Y-74369650D01*
X105166250Y-72333060D02*
X105291259Y-72208050D01*
X105167209Y-70988600D02*
X105304800Y-70851010D01*
X105167431Y-68672610D02*
X105303850Y-68536182D01*
X105167459Y-75955769D02*
X105263031Y-75860210D01*
X105168209Y-71464900D02*
X105303990Y-71329110D01*
X105168831Y-72966882D02*
X105391331Y-72744382D01*
X105169531Y-70067041D02*
X105305709Y-69930860D01*
X105170518Y-76500732D02*
X105308881Y-76362360D01*
X105171531Y-75509760D02*
X105309800Y-75371491D01*
X105171540Y-73512169D02*
X105307540Y-73376182D01*
X105171690Y-77489500D02*
X105295581Y-77365610D01*
X105172550Y-74518800D02*
X105310731Y-74380610D01*
X105173150Y-72343841D02*
X105296740Y-72220250D01*
X105174109Y-68966441D02*
X105191790Y-68966441D01*
X105174840Y-68682882D02*
X105310590Y-68547132D01*
X105175200Y-69495691D02*
X105368850Y-69302041D01*
X105175240Y-70998241D02*
X105311909Y-70861582D01*
X105176800Y-69158210D02*
X105159118Y-69158210D01*
X105176800Y-69158210D02*
X105368568Y-68966441D01*
X105177018Y-70077232D02*
X105312590Y-69941660D01*
X105177540Y-71473241D02*
X105315368Y-71335410D01*
X105178190Y-76510732D02*
X105315931Y-76372991D01*
X105178881Y-77499991D02*
X105301268Y-77377600D01*
X105179100Y-73522291D02*
X105314540Y-73386860D01*
X105179240Y-75519732D02*
X105316909Y-75382060D01*
X105180000Y-72938032D02*
X105373650Y-72744382D01*
X105180290Y-74528732D02*
X105317900Y-74391119D01*
X105180409Y-72354250D02*
X105302490Y-72232182D01*
X105182490Y-68692900D02*
X105317759Y-68557632D01*
X105183531Y-69505041D02*
X105386531Y-69302041D01*
X105183568Y-71007591D02*
X105319668Y-70871491D01*
X105184759Y-70087169D02*
X105319918Y-69952010D01*
X105186118Y-76520482D02*
X105323431Y-76383169D01*
X105186900Y-73532169D02*
X105321981Y-73397091D01*
X105187209Y-75529441D02*
X105324459Y-75392182D01*
X105187381Y-71481082D02*
X105329381Y-71339082D01*
X105188290Y-74538410D02*
X105325509Y-74401191D01*
X105189240Y-77507310D02*
X105307231Y-77389319D01*
X105190390Y-68702682D02*
X105325381Y-68567691D01*
X105191790Y-68966441D02*
X105209468Y-68966441D01*
X105192200Y-71016641D02*
X105328068Y-70880782D01*
X105192731Y-70096869D02*
X105327681Y-69961919D01*
X105194309Y-76529969D02*
X105331359Y-76392919D01*
X105194481Y-69158210D02*
X105176800Y-69158210D01*
X105194481Y-69158210D02*
X105386250Y-68966441D01*
X105194950Y-73541800D02*
X105329868Y-73406882D01*
X105194968Y-72357382D02*
X105308500Y-72243850D01*
X105195431Y-75538900D02*
X105332450Y-75401869D01*
X105196550Y-74547832D02*
X105333559Y-74410819D01*
X105197718Y-71488419D02*
X105345618Y-71340519D01*
X105198531Y-68712219D02*
X105333431Y-68577310D01*
X105200959Y-70106319D02*
X105335868Y-69971410D01*
X105201131Y-71025391D02*
X105337090Y-70889432D01*
X105202750Y-76539200D02*
X105339718Y-76402232D01*
X105203240Y-73551191D02*
X105338181Y-73416250D01*
X105203900Y-75548100D02*
X105340881Y-75411119D01*
X105205059Y-74557000D02*
X105342040Y-74420010D01*
X105206918Y-68721510D02*
X105341909Y-68586510D01*
X105208568Y-71495250D02*
X105363109Y-71340710D01*
X105209431Y-70115532D02*
X105344490Y-69980469D01*
X105209468Y-68966441D02*
X105227150Y-68966441D01*
X105210359Y-71033841D02*
X105346740Y-70897460D01*
X105211440Y-76548191D02*
X105348531Y-76411100D01*
X105211768Y-73560332D02*
X105346909Y-73425191D01*
X105212150Y-69158210D02*
X105194481Y-69158210D01*
X105212150Y-69158210D02*
X105403918Y-68966441D01*
X105212631Y-75557060D02*
X105349750Y-75419932D01*
X105213818Y-74565919D02*
X105350968Y-74428760D01*
X105215550Y-68730550D02*
X105350809Y-68595291D01*
X105216881Y-77497350D02*
X105313459Y-77400769D01*
X105218150Y-70124491D02*
X105353518Y-69989110D01*
X105219890Y-71041991D02*
X105357018Y-70904860D01*
X105219940Y-71501560D02*
X105380781Y-71340710D01*
X105220381Y-76556932D02*
X105357790Y-76419510D01*
X105220559Y-73569219D02*
X105356040Y-73433750D01*
X105221600Y-75565760D02*
X105359068Y-75428291D01*
X105222600Y-72347419D02*
X105314781Y-72255241D01*
X105222818Y-74574591D02*
X105360359Y-74437050D01*
X105224440Y-68739341D02*
X105360068Y-68603710D01*
X105227118Y-70133200D02*
X105362900Y-69997419D01*
X105227150Y-68966441D02*
X105244818Y-68966441D01*
X105229568Y-76565410D02*
X105367518Y-76427460D01*
X105229600Y-73577860D02*
X105365518Y-73441941D01*
X105229718Y-71049841D02*
X105367940Y-70911619D01*
X105229831Y-69158210D02*
X105212150Y-69158210D01*
X105229831Y-69158210D02*
X105421600Y-68966441D01*
X105230818Y-75574210D02*
X105368868Y-75436169D01*
X105231831Y-71507341D02*
X105398459Y-71340710D01*
X105232081Y-74583010D02*
X105370218Y-74444869D01*
X105233568Y-68747882D02*
X105369709Y-68611750D01*
X105236340Y-70141650D02*
X105372668Y-70005319D01*
X105238890Y-73586250D02*
X105375400Y-73449741D01*
X105239009Y-76573650D02*
X105377750Y-76434910D01*
X105239850Y-71057382D02*
X105379518Y-70917710D01*
X105240290Y-75582419D02*
X105379159Y-75443550D01*
X105241581Y-74591182D02*
X105380590Y-74452182D01*
X105242950Y-68756182D02*
X105379750Y-68619382D01*
X105244268Y-71512582D02*
X105416140Y-71340710D01*
X105244509Y-77487391D02*
X105319959Y-77411950D01*
X105244818Y-68966441D02*
X105262500Y-68966441D01*
X105245790Y-70149882D02*
X105382859Y-70012810D01*
X105247509Y-69158210D02*
X105229831Y-69158210D01*
X105247509Y-69158210D02*
X105439281Y-68966441D01*
X105248400Y-73594410D02*
X105385700Y-73457119D01*
X105248700Y-76581641D02*
X105388518Y-76441819D01*
X105250018Y-75590382D02*
X105390009Y-75450382D01*
X105250231Y-72337469D02*
X105321340Y-72266360D01*
X105250290Y-71064619D02*
X105391781Y-70923119D01*
X105251340Y-74599100D02*
X105391509Y-74458932D01*
X105252559Y-68764250D02*
X105390218Y-68626600D01*
X105255481Y-70157869D02*
X105393459Y-70019891D01*
X105257268Y-71517260D02*
X105433818Y-71340710D01*
X105258150Y-73602341D02*
X105396418Y-73464069D01*
X105258640Y-76589382D02*
X105399900Y-76448119D01*
X105259990Y-75598082D02*
X105401481Y-75456591D01*
X105261040Y-71071550D02*
X105404768Y-70927819D01*
X105261340Y-74606782D02*
X105403068Y-74465060D01*
X105262400Y-68772091D02*
X105401109Y-68633382D01*
X105262500Y-68966441D02*
X105280181Y-68966441D01*
X105265190Y-69158210D02*
X105247509Y-69158210D01*
X105265190Y-69158210D02*
X105456959Y-68966441D01*
X105265400Y-70165632D02*
X105404500Y-70026532D01*
X105268140Y-73610041D02*
X105407581Y-73470591D01*
X105268831Y-76596869D02*
X105411981Y-76453710D01*
X105270209Y-75605532D02*
X105413668Y-75462082D01*
X105270831Y-71521369D02*
X105451490Y-71340710D01*
X105271600Y-74614191D02*
X105415359Y-74470432D01*
X105272100Y-71078160D02*
X105418518Y-70931741D01*
X105272140Y-77477441D02*
X105326740Y-77422841D01*
X105272481Y-68779691D02*
X105412440Y-68639719D01*
X105275559Y-70173150D02*
X105415981Y-70032719D01*
X105277859Y-72327519D02*
X105328181Y-72277200D01*
X105278359Y-73617491D02*
X105419190Y-73476660D01*
X105279268Y-76604100D02*
X105424940Y-76458432D01*
X105280181Y-68966441D02*
X105297859Y-68966441D01*
X105280690Y-75612732D02*
X105426759Y-75466660D01*
X105282118Y-74621360D02*
X105428600Y-74474869D01*
X105282800Y-68787041D02*
X105424240Y-68645610D01*
X105282859Y-69158210D02*
X105265190Y-69158210D01*
X105282859Y-69158210D02*
X105474631Y-68966441D01*
X105283500Y-71084450D02*
X105433090Y-70934850D01*
X105284981Y-71524900D02*
X105469168Y-71340710D01*
X105285959Y-70180419D02*
X105427931Y-70038450D01*
X105288831Y-73624700D02*
X105431259Y-73482260D01*
X105289981Y-76611069D02*
X105439081Y-76461969D01*
X105291431Y-75619669D02*
X105441090Y-75470010D01*
X105292890Y-74628260D02*
X105443140Y-74478019D01*
X105293368Y-68794150D02*
X105436500Y-68651032D01*
X105295218Y-71090400D02*
X105448559Y-70937060D01*
X105296040Y-76993919D02*
X105479309Y-76810650D01*
X105296609Y-70187450D02*
X105440350Y-70043710D01*
X105297859Y-68966441D02*
X105315531Y-68966441D01*
X105299550Y-73631660D02*
X105443831Y-73487369D01*
X105299740Y-71527819D02*
X105486850Y-71340710D01*
X105299781Y-77467482D02*
X105333800Y-77433460D01*
X105300540Y-69158210D02*
X105282859Y-69158210D01*
X105300540Y-69158210D02*
X105492309Y-68966441D01*
X105300940Y-76617791D02*
X105455040Y-76463691D01*
X105302440Y-75626350D02*
X105626368Y-75302410D01*
X105303931Y-74634900D02*
X105626368Y-74312460D01*
X105304190Y-68801010D02*
X105449290Y-68655910D01*
X105305490Y-72317560D02*
X105335300Y-72287750D01*
X105306031Y-71839732D02*
X105481500Y-71664260D01*
X105307281Y-71096019D02*
X105465009Y-70938282D01*
X105307518Y-70194219D02*
X105453331Y-70048410D01*
X105310518Y-73638360D02*
X105456959Y-73491932D01*
X105312181Y-76624232D02*
X105626368Y-76310032D01*
X105313709Y-75632750D02*
X105626368Y-75320082D01*
X105315131Y-71530110D02*
X105504531Y-71340710D01*
X105315240Y-74641269D02*
X105626368Y-74330132D01*
X105315268Y-68807610D02*
X105462631Y-68660250D01*
X105315531Y-68966441D02*
X105333209Y-68966441D01*
X105318218Y-69158210D02*
X105300540Y-69158210D01*
X105318218Y-69158210D02*
X105509990Y-68966441D01*
X105318681Y-70200732D02*
X105466868Y-70052541D01*
X105319700Y-71101282D02*
X105482490Y-70938491D01*
X105321759Y-73644800D02*
X105470659Y-73495900D01*
X105323690Y-76630400D02*
X105626368Y-76327710D01*
X105325250Y-75638882D02*
X105626368Y-75337760D01*
X105326609Y-68813950D02*
X105476581Y-68663982D01*
X105326818Y-74647369D02*
X105626368Y-74347810D01*
X105327159Y-76980469D02*
X105489631Y-76818010D01*
X105327409Y-77457519D02*
X105341159Y-77443769D01*
X105330109Y-70206982D02*
X105481040Y-70056050D01*
X105331159Y-71531750D02*
X105522200Y-71340710D01*
X105331450Y-71831982D02*
X105491690Y-71671750D01*
X105332468Y-71106182D02*
X105500159Y-70938491D01*
X105333140Y-72307591D02*
X105342731Y-72298010D01*
X105333209Y-68966441D02*
X105350890Y-68966441D01*
X105333259Y-73650982D02*
X105485000Y-73499232D01*
X105335481Y-76636291D02*
X105626368Y-76345391D01*
X105335900Y-69158210D02*
X105318218Y-69158210D01*
X105335900Y-69158210D02*
X105527668Y-68966441D01*
X105337081Y-75644741D02*
X105626368Y-75355441D01*
X105338218Y-68820019D02*
X105491200Y-68667041D01*
X105338690Y-74653182D02*
X105626368Y-74365491D01*
X105341809Y-70212960D02*
X105495900Y-70058869D01*
X105345040Y-73656882D02*
X105500068Y-73501850D01*
X105345631Y-71110700D02*
X105517840Y-70938491D01*
X105345900Y-76979419D02*
X105499359Y-76825950D01*
X105347550Y-76641891D02*
X105626368Y-76363069D01*
X105347881Y-71532710D02*
X105539881Y-71340710D01*
X105349190Y-75650300D02*
X105626368Y-75373119D01*
X105349281Y-71831832D02*
X105501309Y-71679800D01*
X105350100Y-68825810D02*
X105506568Y-68669350D01*
X105350840Y-74658700D02*
X105626368Y-74383169D01*
X105350890Y-68966441D02*
X105368568Y-68966441D01*
X105353581Y-69158210D02*
X105335900Y-69158210D01*
X105353581Y-69158210D02*
X105545340Y-68966441D01*
X105353790Y-70218660D02*
X105511531Y-70060910D01*
X105354159Y-69599569D02*
X105651690Y-69302041D01*
X105357090Y-73662500D02*
X105515931Y-73503660D01*
X105359181Y-71114832D02*
X105535518Y-70938491D01*
X105359931Y-76647191D02*
X105626368Y-76380741D01*
X105360990Y-76982010D02*
X105508550Y-76834450D01*
X105361609Y-75655560D02*
X105626368Y-75390791D01*
X105362259Y-68831332D02*
X105522781Y-68670810D01*
X105363300Y-74663919D02*
X105626368Y-74400841D01*
X105363759Y-71835032D02*
X105510381Y-71688410D01*
X105365300Y-71532982D02*
X105557559Y-71340710D01*
X105366040Y-70224082D02*
X105528059Y-70062069D01*
X105368568Y-68966441D02*
X105386250Y-68966441D01*
X105369431Y-73667841D02*
X105532709Y-73504560D01*
X105371190Y-70572491D02*
X105586259Y-70357419D01*
X105371250Y-69158210D02*
X105353581Y-69158210D01*
X105371250Y-69158210D02*
X105563018Y-68966441D01*
X105372609Y-76652182D02*
X105626368Y-76398419D01*
X105373140Y-71118541D02*
X105553200Y-70938491D01*
X105373481Y-76987200D02*
X105517209Y-76843460D01*
X105374340Y-75660510D02*
X105626368Y-75408469D01*
X105374709Y-68836550D02*
X105539959Y-68671310D01*
X105375809Y-71840660D02*
X105518940Y-71697532D01*
X105376068Y-74668832D02*
X105626368Y-74418519D01*
X105378590Y-70229210D02*
X105545590Y-70062210D01*
X105380350Y-73020532D02*
X105656500Y-72744382D01*
X105382050Y-73672900D02*
X105550559Y-73504391D01*
X105382968Y-71532982D02*
X105575240Y-71340710D01*
X105384018Y-76994332D02*
X105525381Y-76852969D01*
X105385618Y-76656850D02*
X105626368Y-76416100D01*
X105386009Y-71848141D02*
X105527009Y-71707141D01*
X105386250Y-68966441D02*
X105403918Y-68966441D01*
X105387390Y-75665132D02*
X105626368Y-75426150D01*
X105387450Y-68841500D02*
X105558300Y-68670641D01*
X105387540Y-71121819D02*
X105570868Y-70938491D01*
X105388931Y-69158210D02*
X105371250Y-69158210D01*
X105388931Y-69158210D02*
X105580700Y-68966441D01*
X105389168Y-74673410D02*
X105626368Y-74436200D01*
X105391418Y-70234060D02*
X105564390Y-70061091D01*
X105393059Y-77002969D02*
X105533081Y-76862950D01*
X105394768Y-71857050D02*
X105534618Y-71717210D01*
X105394959Y-73677669D02*
X105569768Y-73502860D01*
X105398959Y-76661191D02*
X105626368Y-76433782D01*
X105400468Y-68846150D02*
X105578140Y-68668482D01*
X105400650Y-71532982D02*
X105592918Y-71340710D01*
X105400718Y-68174150D02*
X105629531Y-67945341D01*
X105400781Y-75669419D02*
X105626368Y-75443832D01*
X105400881Y-70560469D02*
X105603940Y-70357419D01*
X105400900Y-77012810D02*
X105540331Y-76873369D01*
X105402390Y-71124650D02*
X105588550Y-70938491D01*
X105402400Y-71867110D02*
X105541781Y-71727719D01*
X105402600Y-74677650D02*
X105626368Y-74453882D01*
X105403918Y-68966441D02*
X105421600Y-68966441D01*
X105404540Y-70238619D02*
X105584831Y-70058319D01*
X105406609Y-69158210D02*
X105388931Y-69158210D01*
X105406609Y-69158210D02*
X105598381Y-68966441D01*
X105407781Y-77023600D02*
X105547168Y-76884210D01*
X105408159Y-73682141D02*
X105590740Y-73499560D01*
X105409100Y-71878082D02*
X105548540Y-71738641D01*
X105412659Y-76665160D02*
X105626368Y-76451450D01*
X105413609Y-69557800D02*
X105669368Y-69302041D01*
X105413809Y-68850491D02*
X105599981Y-68664319D01*
X105413890Y-77035169D02*
X105553618Y-76895441D01*
X105414531Y-75673350D02*
X105626368Y-75461510D01*
X105415068Y-71889791D02*
X105554909Y-71749950D01*
X105416400Y-74681532D02*
X105626659Y-74471269D01*
X105417740Y-71126982D02*
X105606231Y-70938491D01*
X105417981Y-70242850D02*
X105607481Y-70053350D01*
X105418331Y-71532982D02*
X105610590Y-71340710D01*
X105419359Y-77047382D02*
X105559690Y-76907041D01*
X105420418Y-71902110D02*
X105560909Y-71761632D01*
X105421600Y-68966441D02*
X105439281Y-68966441D01*
X105421700Y-73686282D02*
X105614140Y-73493841D01*
X105423109Y-72995441D02*
X105674168Y-72744382D01*
X105424290Y-69158210D02*
X105406609Y-69158210D01*
X105424290Y-69158210D02*
X105616059Y-68966441D01*
X105424309Y-77060100D02*
X105565418Y-76918991D01*
X105424540Y-70554491D02*
X105621609Y-70357419D01*
X105425290Y-71914932D02*
X105566568Y-71773641D01*
X105426740Y-76668769D02*
X105641409Y-76454091D01*
X105427468Y-68854500D02*
X105624618Y-68657360D01*
X105428659Y-75676900D02*
X105644531Y-75461019D01*
X105428850Y-77073241D02*
X105570831Y-76931269D01*
X105429740Y-71928150D02*
X105571909Y-71785982D01*
X105430581Y-74685032D02*
X105647809Y-74467800D01*
X105431768Y-70246741D02*
X105633350Y-70045169D01*
X105433040Y-77086732D02*
X105575931Y-76943841D01*
X105433609Y-71128791D02*
X105623909Y-70938491D01*
X105433881Y-71941691D02*
X105576950Y-71798619D01*
X105435581Y-73690069D02*
X105641200Y-73484460D01*
X105435950Y-68156600D02*
X105644018Y-67948519D01*
X105436009Y-71532982D02*
X105628268Y-71340710D01*
X105436968Y-77100482D02*
X105580750Y-76956700D01*
X105437750Y-71955491D02*
X105581718Y-71811532D01*
X105439281Y-68966441D02*
X105456959Y-68966441D01*
X105440681Y-77114450D02*
X105585309Y-76969810D01*
X105441209Y-76671969D02*
X105669109Y-76444069D01*
X105441431Y-71969500D02*
X105586231Y-71824691D01*
X105441509Y-68858150D02*
X105653868Y-68645791D01*
X105441959Y-69158210D02*
X105424290Y-69158210D01*
X105441959Y-69158210D02*
X105633731Y-68966441D01*
X105443190Y-75680050D02*
X105673890Y-75449350D01*
X105444231Y-77128569D02*
X105589640Y-76983160D01*
X105444959Y-71983650D02*
X105590509Y-71838091D01*
X105445168Y-74688119D02*
X105679068Y-74454219D01*
X105445268Y-69543810D02*
X105687050Y-69302041D01*
X105445381Y-70551332D02*
X105639290Y-70357419D01*
X105445931Y-70250260D02*
X105665081Y-70031110D01*
X105447681Y-77142810D02*
X105593750Y-76996732D01*
X105448381Y-71997900D02*
X105594581Y-71851700D01*
X105449850Y-73693491D02*
X105675700Y-73467641D01*
X105450040Y-71130041D02*
X105641590Y-70938491D01*
X105451050Y-77157110D02*
X105597668Y-77010482D01*
X105451740Y-72012219D02*
X105598468Y-71865491D01*
X105452690Y-72983532D02*
X105691850Y-72744382D01*
X105453681Y-71532982D02*
X105645950Y-71340710D01*
X105454390Y-77171450D02*
X105601431Y-77024410D01*
X105455081Y-72026560D02*
X105602190Y-71879450D01*
X105455931Y-68861410D02*
X105694840Y-68622491D01*
X105456118Y-76674750D02*
X105987340Y-76143519D01*
X105456818Y-73810260D02*
X105461100Y-73805982D01*
X105456818Y-73827941D02*
X105481859Y-73802891D01*
X105456818Y-73845619D02*
X105501400Y-73801041D01*
X105456818Y-73863291D02*
X105520068Y-73800050D01*
X105456818Y-73880969D02*
X105538031Y-73799760D01*
X105456818Y-73898650D02*
X105555331Y-73800141D01*
X105456818Y-73916332D02*
X105572018Y-73801132D01*
X105456818Y-73934010D02*
X105588159Y-73802660D01*
X105456818Y-73951682D02*
X105603831Y-73804669D01*
X105456818Y-73969360D02*
X105619059Y-73807119D01*
X105456818Y-73987041D02*
X105633890Y-73809969D01*
X105456818Y-74004719D02*
X105648340Y-73813200D01*
X105456818Y-74022391D02*
X105662440Y-73816769D01*
X105456818Y-74040069D02*
X105676200Y-73820691D01*
X105456818Y-74057750D02*
X105689650Y-73824919D01*
X105456818Y-74075432D02*
X105702790Y-73829450D01*
X105456818Y-74093100D02*
X105715640Y-73834291D01*
X105456818Y-74110782D02*
X105728200Y-73839400D01*
X105456818Y-74128460D02*
X105740481Y-73844800D01*
X105456818Y-74146141D02*
X105752490Y-73850460D01*
X105456818Y-74163810D02*
X105764231Y-73856400D01*
X105456818Y-74181491D02*
X105626368Y-74011941D01*
X105456818Y-74199169D02*
X105626368Y-74029610D01*
X105456818Y-74216850D02*
X105626368Y-74047291D01*
X105456818Y-74234532D02*
X105626368Y-74064969D01*
X105456818Y-74252200D02*
X105626368Y-74082650D01*
X105456818Y-74269882D02*
X105626368Y-74100319D01*
X105456818Y-74287560D02*
X105626368Y-74118000D01*
X105456818Y-74305241D02*
X105626368Y-74135682D01*
X105456818Y-74322910D02*
X105626368Y-74153360D01*
X105456818Y-74340591D02*
X105626368Y-74171041D01*
X105456818Y-74358269D02*
X105626368Y-74188710D01*
X105456818Y-74375950D02*
X105626368Y-74206391D01*
X105456818Y-74393619D02*
X105626368Y-74224069D01*
X105456818Y-74411300D02*
X105626368Y-74241750D01*
X105456818Y-74428982D02*
X105626368Y-74259419D01*
X105456818Y-74446660D02*
X105626368Y-74277100D01*
X105456818Y-74464341D02*
X105626368Y-74294782D01*
X105456818Y-74800210D02*
X105458159Y-74798869D01*
X105456818Y-74817891D02*
X105479159Y-74795541D01*
X105456818Y-74835569D02*
X105498831Y-74793550D01*
X105456818Y-74853241D02*
X105517609Y-74792460D01*
X105456818Y-74870919D02*
X105535659Y-74792082D01*
X105456818Y-74888600D02*
X105553050Y-74792369D01*
X105456818Y-74906282D02*
X105569809Y-74793282D01*
X105456818Y-74923950D02*
X105586031Y-74794741D01*
X105456818Y-74941632D02*
X105601759Y-74796691D01*
X105456818Y-74959310D02*
X105617040Y-74799091D01*
X105456818Y-74976991D02*
X105631918Y-74801882D01*
X105456818Y-74994669D02*
X105646418Y-74805060D01*
X105456818Y-75012341D02*
X105660568Y-74808600D01*
X105456818Y-75030019D02*
X105674368Y-74812460D01*
X105456818Y-75047700D02*
X105687859Y-74816650D01*
X105456818Y-75065382D02*
X105701040Y-74821150D01*
X105456818Y-75083050D02*
X105713931Y-74825941D01*
X105456818Y-75100732D02*
X105726531Y-74831019D01*
X105456818Y-75118410D02*
X105738850Y-74836382D01*
X105456818Y-75136091D02*
X105750900Y-74842010D01*
X105456818Y-75153760D02*
X105762668Y-74847910D01*
X105456818Y-75171441D02*
X105626368Y-75001891D01*
X105456818Y-75189119D02*
X105626368Y-75019560D01*
X105456818Y-75206800D02*
X105626368Y-75037241D01*
X105456818Y-75224482D02*
X105626368Y-75054919D01*
X105456818Y-75242150D02*
X105626368Y-75072600D01*
X105456818Y-75259832D02*
X105626368Y-75090269D01*
X105456818Y-75277510D02*
X105626368Y-75107950D01*
X105456818Y-75295191D02*
X105626368Y-75125632D01*
X105456818Y-75312860D02*
X105626368Y-75143310D01*
X105456818Y-75330541D02*
X105626368Y-75160982D01*
X105456818Y-75348219D02*
X105626368Y-75178660D01*
X105456818Y-75365900D02*
X105626368Y-75196341D01*
X105456818Y-75383569D02*
X105626368Y-75214019D01*
X105456818Y-75401250D02*
X105626368Y-75231700D01*
X105456818Y-75418932D02*
X105626368Y-75249369D01*
X105456818Y-75436610D02*
X105626368Y-75267050D01*
X105456818Y-75454282D02*
X105626368Y-75284732D01*
X105456818Y-75807841D02*
X105476440Y-75788210D01*
X105456818Y-75825519D02*
X105496250Y-75786082D01*
X105456818Y-75843191D02*
X105515131Y-75784882D01*
X105456818Y-75860869D02*
X105533268Y-75784419D01*
X105456818Y-75878550D02*
X105550750Y-75784610D01*
X105456818Y-75896232D02*
X105567600Y-75785450D01*
X105456818Y-75913900D02*
X105583881Y-75786841D01*
X105456818Y-75931582D02*
X105599668Y-75788732D01*
X105456818Y-75949260D02*
X105615018Y-75791060D01*
X105456818Y-75966941D02*
X105629950Y-75793810D01*
X105456818Y-75984610D02*
X105644500Y-75796941D01*
X105456818Y-76002291D02*
X105658690Y-75800419D01*
X105456818Y-76019969D02*
X105672540Y-75804250D01*
X105456818Y-76037650D02*
X105686068Y-75808391D01*
X105456818Y-76055332D02*
X105699290Y-75812850D01*
X105456818Y-76073000D02*
X105712218Y-75817600D01*
X105456818Y-76090682D02*
X105724859Y-75822641D01*
X105456818Y-76108360D02*
X105737209Y-75827960D01*
X105456818Y-76126041D02*
X105749300Y-75833560D01*
X105456818Y-76143710D02*
X105761109Y-75839419D01*
X105456818Y-76161391D02*
X105626368Y-75991841D01*
X105456818Y-76179069D02*
X105626368Y-76009510D01*
X105456818Y-76196750D02*
X105626368Y-76027191D01*
X105456818Y-76214419D02*
X105626368Y-76044869D01*
X105456818Y-76232100D02*
X105626368Y-76062550D01*
X105456818Y-76249782D02*
X105626368Y-76080219D01*
X105456818Y-76267460D02*
X105626368Y-76097900D01*
X105456818Y-76285141D02*
X105626368Y-76115582D01*
X105456818Y-76302810D02*
X105626368Y-76133260D01*
X105456818Y-76320491D02*
X105626368Y-76150932D01*
X105456818Y-76338169D02*
X105626368Y-76168610D01*
X105456818Y-76355850D02*
X105626368Y-76186291D01*
X105456818Y-76373519D02*
X105626368Y-76203969D01*
X105456818Y-76391200D02*
X105626368Y-76221641D01*
X105456818Y-76408882D02*
X105626368Y-76239319D01*
X105456818Y-76426560D02*
X105626368Y-76257000D01*
X105456818Y-76444232D02*
X105626368Y-76274682D01*
X105456818Y-76461910D02*
X105626368Y-76292360D01*
X105456959Y-68966441D02*
X105474631Y-68966441D01*
X105457731Y-77185791D02*
X105605040Y-77038482D01*
X105458150Y-75682760D02*
X105987668Y-75153241D01*
X105458418Y-72040891D02*
X105605768Y-71893541D01*
X105459640Y-69158210D02*
X105441959Y-69158210D01*
X105459640Y-69158210D02*
X105651409Y-68966441D01*
X105460190Y-74690769D02*
X105988000Y-74162960D01*
X105460490Y-70253382D02*
X105721759Y-69992110D01*
X105461100Y-77200091D02*
X105608531Y-77052660D01*
X105461809Y-72055182D02*
X105609240Y-71907750D01*
X105463218Y-68147010D02*
X105658100Y-67952119D01*
X105464459Y-70549919D02*
X105656968Y-70357419D01*
X105464518Y-73696491D02*
X105989431Y-73171582D01*
X105464540Y-77214332D02*
X105611931Y-77066941D01*
X105465259Y-72069410D02*
X105612618Y-71922050D01*
X105467068Y-71130682D02*
X105659259Y-70938491D01*
X105468059Y-77228482D02*
X105615259Y-77081291D01*
X105468809Y-72083541D02*
X105615950Y-71936400D01*
X105470768Y-68864241D02*
X105990540Y-68344469D01*
X105471031Y-69535732D02*
X105704731Y-69302041D01*
X105471359Y-71532982D02*
X105663631Y-71340710D01*
X105471481Y-76677060D02*
X105989631Y-76158910D01*
X105471709Y-77242519D02*
X105618559Y-77095669D01*
X105472481Y-72097541D02*
X105619240Y-71950782D01*
X105473581Y-75685010D02*
X105989900Y-75168691D01*
X105474631Y-68966441D02*
X105492309Y-68966441D01*
X105475481Y-70256060D02*
X105990790Y-69740760D01*
X105475490Y-77256410D02*
X105621850Y-77110050D01*
X105475690Y-74692960D02*
X105990168Y-74178469D01*
X105476300Y-72111400D02*
X105622540Y-71965169D01*
X105477318Y-69158210D02*
X105459640Y-69158210D01*
X105477318Y-69158210D02*
X105669090Y-68966441D01*
X105477418Y-72976491D02*
X105709531Y-72744382D01*
X105479450Y-77270132D02*
X105625168Y-77124410D01*
X105479640Y-73699050D02*
X105991231Y-73187460D01*
X105480290Y-72125091D02*
X105625868Y-71979510D01*
X105482368Y-70549691D02*
X105674650Y-70357419D01*
X105483590Y-77283669D02*
X105628559Y-77138691D01*
X105484468Y-72138582D02*
X105629281Y-71993782D01*
X105484681Y-71130750D02*
X105676940Y-70938491D01*
X105486081Y-68866610D02*
X105992150Y-68360532D01*
X105486659Y-68141241D02*
X105671790Y-67956119D01*
X105487350Y-76678869D02*
X105991450Y-76174760D01*
X105487940Y-77296991D02*
X105632059Y-77152869D01*
X105488868Y-72151860D02*
X105632809Y-72007932D01*
X105489040Y-71532982D02*
X105681300Y-71340710D01*
X105489518Y-75686750D02*
X105991659Y-75184610D01*
X105490950Y-70258269D02*
X105992240Y-69756982D01*
X105491700Y-74694619D02*
X105991859Y-74194460D01*
X105492309Y-68966441D02*
X105509990Y-68966441D01*
X105492531Y-77310082D02*
X105635718Y-77166900D01*
X105493509Y-72164900D02*
X105636500Y-72021910D01*
X105493559Y-69530882D02*
X105722400Y-69302041D01*
X105495000Y-69158210D02*
X105477318Y-69158210D01*
X105495000Y-69158210D02*
X105686768Y-68966441D01*
X105495250Y-73701119D02*
X105992550Y-73203819D01*
X105497381Y-77322919D02*
X105639581Y-77180710D01*
X105498409Y-72177669D02*
X105640409Y-72035682D01*
X105499281Y-72972300D02*
X105727209Y-72744382D01*
X105500050Y-70549691D02*
X105692318Y-70357419D01*
X105501890Y-68868469D02*
X105993268Y-68377100D01*
X105502350Y-71130750D02*
X105694618Y-70938491D01*
X105502500Y-77335469D02*
X105643709Y-77194260D01*
X105503600Y-72190169D02*
X105644600Y-72049160D01*
X105503768Y-76680132D02*
X105992781Y-76191119D01*
X105506009Y-75687932D02*
X105992909Y-75201032D01*
X105506718Y-71532982D02*
X105813059Y-71226632D01*
X105506950Y-70259950D02*
X105993181Y-69773719D01*
X105507668Y-68137910D02*
X105685100Y-67960482D01*
X105507918Y-77347719D02*
X105648168Y-77207469D01*
X105508268Y-74695719D02*
X105993040Y-74210950D01*
X105509090Y-72202360D02*
X105649150Y-72062300D01*
X105509990Y-68966441D02*
X105527668Y-68966441D01*
X105511390Y-73702650D02*
X105993340Y-73220700D01*
X105512668Y-69158210D02*
X105495000Y-69158210D01*
X105512668Y-69158210D02*
X105704440Y-68966441D01*
X105513668Y-77359650D02*
X105653059Y-77220269D01*
X105513931Y-69528182D02*
X105740081Y-69302041D01*
X105514909Y-72214219D02*
X105654131Y-72074991D01*
X105517731Y-70549691D02*
X105710000Y-70357419D01*
X105518259Y-68869782D02*
X105993850Y-68394191D01*
X105519190Y-72970082D02*
X105744890Y-72744382D01*
X105519759Y-77371241D02*
X105658450Y-77232550D01*
X105520031Y-71130750D02*
X105712300Y-70938491D01*
X105520800Y-76680769D02*
X105993568Y-76208000D01*
X105521068Y-72225732D02*
X105659650Y-72087150D01*
X105523140Y-75688491D02*
X105993640Y-75217991D01*
X105523518Y-70261060D02*
X105993581Y-69791000D01*
X105524400Y-71532982D02*
X105830740Y-71226632D01*
X105525481Y-74696191D02*
X105993690Y-74227982D01*
X105526218Y-77382460D02*
X105664481Y-77244200D01*
X105526959Y-68136300D02*
X105698068Y-67965191D01*
X105527609Y-72236869D02*
X105665818Y-72098660D01*
X105527668Y-68966441D02*
X105545340Y-68966441D01*
X105528131Y-73703591D02*
X105993590Y-73238141D01*
X105530350Y-69158210D02*
X105512668Y-69158210D01*
X105530350Y-69158210D02*
X105722118Y-68966441D01*
X105532750Y-69527041D02*
X105757759Y-69302041D01*
X105533068Y-77393291D02*
X105671290Y-77255069D01*
X105534540Y-72247619D02*
X105672809Y-72109350D01*
X105535250Y-68870469D02*
X105993868Y-68411850D01*
X105535409Y-70549691D02*
X105727681Y-70357419D01*
X105537650Y-72969291D02*
X105762559Y-72744382D01*
X105537709Y-71130750D02*
X105729968Y-70938491D01*
X105538500Y-76680750D02*
X105993809Y-76225441D01*
X105540331Y-77403700D02*
X105679050Y-77264982D01*
X105540731Y-70261532D02*
X105993400Y-69808850D01*
X105540918Y-75688382D02*
X105993800Y-75235500D01*
X105541890Y-72257941D02*
X105680809Y-72119032D01*
X105542068Y-71532982D02*
X105848418Y-71226632D01*
X105543350Y-74696000D02*
X105993781Y-74245582D01*
X105544940Y-68135991D02*
X105710700Y-67970241D01*
X105545340Y-68966441D02*
X105563018Y-68966441D01*
X105545518Y-73703882D02*
X105993250Y-73256150D01*
X105548031Y-69158210D02*
X105530350Y-69158210D01*
X105548031Y-69158210D02*
X105739800Y-68966441D01*
X105548031Y-77413682D02*
X105688031Y-77273691D01*
X105549681Y-72267832D02*
X105690059Y-72127450D01*
X105550350Y-69527119D02*
X105775440Y-69302041D01*
X105552918Y-68870482D02*
X105993290Y-68430110D01*
X105553081Y-70549691D02*
X105745359Y-70357419D01*
X105554950Y-72969669D02*
X105780240Y-72744382D01*
X105555390Y-71130750D02*
X105747650Y-70938491D01*
X105556190Y-77423200D02*
X105698531Y-77280860D01*
X105556818Y-76680110D02*
X105993400Y-76243532D01*
X105557940Y-72277241D02*
X105700940Y-72134250D01*
X105558640Y-70261291D02*
X105992600Y-69827332D01*
X105559318Y-75687650D02*
X105993290Y-75253691D01*
X105559750Y-71532982D02*
X105866090Y-71226632D01*
X105561831Y-68136782D02*
X105723009Y-67975600D01*
X105561840Y-74695191D02*
X105993159Y-74263869D01*
X105563018Y-68966441D02*
X105580700Y-68966441D01*
X105563640Y-73703441D02*
X105992259Y-73274819D01*
X105564840Y-77432232D02*
X105711018Y-77286050D01*
X105565709Y-69158210D02*
X105548031Y-69158210D01*
X105565709Y-69158210D02*
X105757481Y-68966441D01*
X105566700Y-72286169D02*
X105713918Y-72138950D01*
X105566909Y-69528241D02*
X105793109Y-69302041D01*
X105570759Y-70549691D02*
X105763031Y-70357419D01*
X105571250Y-72971050D02*
X105797918Y-72744382D01*
X105571350Y-68869732D02*
X105992009Y-68449069D01*
X105573068Y-71130750D02*
X105765331Y-70938491D01*
X105574009Y-77440741D02*
X105726190Y-77288550D01*
X105575831Y-76678782D02*
X105992209Y-76262400D01*
X105575981Y-72294569D02*
X105729768Y-72140782D01*
X105577340Y-70260269D02*
X105991059Y-69846550D01*
X105577431Y-71532982D02*
X105883768Y-71226632D01*
X105577768Y-68138519D02*
X105735031Y-67981260D01*
X105578440Y-75686219D02*
X105991981Y-75272669D01*
X105580700Y-68966441D02*
X105598381Y-68966441D01*
X105581059Y-74693641D02*
X105991740Y-74282960D01*
X105582550Y-69530269D02*
X105810790Y-69302041D01*
X105582581Y-73702182D02*
X105990490Y-73294269D01*
X105583390Y-69158210D02*
X105565709Y-69158210D01*
X105583390Y-69158210D02*
X105775150Y-68966441D01*
X105583718Y-77448710D02*
X105744990Y-77287432D01*
X105585800Y-72302419D02*
X105749540Y-72138682D01*
X105586659Y-72973310D02*
X105815600Y-72744382D01*
X105588440Y-70549691D02*
X105780709Y-70357419D01*
X105590650Y-68868110D02*
X105989890Y-68468860D01*
X105590740Y-71130750D02*
X105783009Y-70938491D01*
X105592868Y-68141100D02*
X105746768Y-67987200D01*
X105594000Y-77456100D02*
X105772581Y-77277519D01*
X105595109Y-71532982D02*
X105887190Y-71240891D01*
X105595650Y-76676632D02*
X105990118Y-76282160D01*
X105596209Y-72309691D02*
X105991631Y-71914269D01*
X105596968Y-70258319D02*
X105988631Y-69866660D01*
X105597390Y-69533110D02*
X105828468Y-69302041D01*
X105598381Y-68966441D02*
X105616059Y-68966441D01*
X105598381Y-75683950D02*
X105989768Y-75292569D01*
X105601059Y-69158210D02*
X105583390Y-69158210D01*
X105601059Y-69158210D02*
X105792831Y-68966441D01*
X105601131Y-74691260D02*
X105989390Y-74302991D01*
X105601300Y-72976350D02*
X105833268Y-72744382D01*
X105602490Y-73699950D02*
X105987790Y-73314650D01*
X105604890Y-77462891D02*
X105992590Y-77075191D01*
X105606118Y-70549691D02*
X105798390Y-70357419D01*
X105607218Y-68144419D02*
X105758240Y-67993410D01*
X105607218Y-72316360D02*
X105992809Y-71930769D01*
X105608418Y-71130750D02*
X105800681Y-70938491D01*
X105610990Y-68865441D02*
X105986759Y-68489669D01*
X105611518Y-69536660D02*
X105846150Y-69302041D01*
X105612781Y-71532982D02*
X105887190Y-71258569D01*
X105615250Y-72980082D02*
X105850950Y-72744382D01*
X105616059Y-68966441D02*
X105633731Y-68966441D01*
X105616409Y-77469050D02*
X105993468Y-77091991D01*
X105616440Y-76673519D02*
X105986990Y-76302969D01*
X105617709Y-70255250D02*
X105985100Y-69887869D01*
X105618740Y-69158210D02*
X105601059Y-69158210D01*
X105618740Y-69158210D02*
X105810509Y-68966441D01*
X105618881Y-72322369D02*
X105993600Y-71947650D01*
X105619309Y-75680700D02*
X105986481Y-75313541D01*
X105620918Y-68148410D02*
X105769440Y-67999882D01*
X105622200Y-74687860D02*
X105985940Y-74324119D01*
X105623581Y-73696541D02*
X105983909Y-73336200D01*
X105623790Y-70549691D02*
X105816068Y-70357419D01*
X105625009Y-69540850D02*
X105863818Y-69302041D01*
X105626100Y-71130750D02*
X105818359Y-70938491D01*
X105628581Y-72984432D02*
X105868631Y-72744382D01*
X105628600Y-77474532D02*
X105993950Y-77109182D01*
X105630459Y-71532982D02*
X105887190Y-71276241D01*
X105631218Y-72327710D02*
X105994000Y-71964932D01*
X105632618Y-68861491D02*
X105982340Y-68511769D01*
X105633731Y-68966441D02*
X105651409Y-68966441D01*
X105634018Y-68152982D02*
X105780368Y-68006632D01*
X105636418Y-69158210D02*
X105618740Y-69158210D01*
X105636418Y-69158210D02*
X105828190Y-68966441D01*
X105637040Y-75981169D02*
X105772659Y-75845550D01*
X105637931Y-69545610D02*
X105881500Y-69302041D01*
X105638400Y-76669241D02*
X105982590Y-76325041D01*
X105639000Y-74989260D02*
X105774190Y-74854069D01*
X105639831Y-70250810D02*
X105980181Y-69910469D01*
X105640918Y-73997391D02*
X105775709Y-73862600D01*
X105641350Y-72989332D02*
X105886309Y-72744382D01*
X105641450Y-75676241D02*
X105981900Y-75335791D01*
X105641468Y-70549691D02*
X105833750Y-70357419D01*
X105641509Y-77479310D02*
X105994009Y-77126810D01*
X105643781Y-71130750D02*
X105836040Y-70938491D01*
X105644268Y-72332341D02*
X105993959Y-71982650D01*
X105644518Y-74683219D02*
X105981159Y-74346569D01*
X105646131Y-73691660D02*
X105978540Y-73359250D01*
X105646618Y-68158060D02*
X105791040Y-68013641D01*
X105648140Y-71532982D02*
X105887190Y-71293919D01*
X105650368Y-69550841D02*
X105899181Y-69302041D01*
X105650781Y-75985110D02*
X105783950Y-75851941D01*
X105651409Y-68966441D02*
X105669090Y-68966441D01*
X105652500Y-74993441D02*
X105785440Y-74860500D01*
X105653681Y-72994682D02*
X105903981Y-72744382D01*
X105654100Y-69158210D02*
X105636418Y-69158210D01*
X105654100Y-69158210D02*
X105845859Y-68966441D01*
X105654200Y-74001791D02*
X105786931Y-73869060D01*
X105655150Y-77483332D02*
X105993618Y-77144869D01*
X105655850Y-68855932D02*
X105976250Y-68535541D01*
X105658081Y-72336210D02*
X105993481Y-72000810D01*
X105658740Y-68163619D02*
X105801450Y-68020910D01*
X105659150Y-70549691D02*
X105851418Y-70357419D01*
X105661450Y-71130750D02*
X105853718Y-70938491D01*
X105661840Y-76663482D02*
X105976640Y-76348682D01*
X105662340Y-69556550D02*
X105916859Y-69302041D01*
X105663131Y-75990441D02*
X105794981Y-75858591D01*
X105663700Y-70244619D02*
X105973400Y-69934919D01*
X105664709Y-74998900D02*
X105796440Y-74867182D01*
X105665109Y-75670250D02*
X105975700Y-75359669D01*
X105665509Y-73000519D02*
X105921659Y-72744382D01*
X105665818Y-71532982D02*
X105887190Y-71311600D01*
X105666281Y-74007391D02*
X105797890Y-73875769D01*
X105668431Y-74676991D02*
X105974718Y-74370700D01*
X105669090Y-68966441D02*
X105686768Y-68966441D01*
X105669590Y-77486569D02*
X105992731Y-77163441D01*
X105670390Y-68169641D02*
X105811600Y-68028441D01*
X105670568Y-73684900D02*
X105971150Y-73384319D01*
X105671768Y-69158210D02*
X105654100Y-69158210D01*
X105671768Y-69158210D02*
X105863540Y-68966441D01*
X105672690Y-72339282D02*
X105992481Y-72019491D01*
X105673840Y-69562732D02*
X105934540Y-69302041D01*
X105674609Y-75996641D02*
X105805750Y-75865491D01*
X105676090Y-75005200D02*
X105807181Y-74874119D01*
X105676831Y-70549691D02*
X105869100Y-70357419D01*
X105676890Y-73006832D02*
X105939340Y-72744382D01*
X105677568Y-74013769D02*
X105808600Y-73882750D01*
X105679131Y-71130750D02*
X105871400Y-70938491D01*
X105681209Y-68848260D02*
X105967831Y-68561641D01*
X105681590Y-68176132D02*
X105821490Y-68036219D01*
X105683490Y-71532982D02*
X105887190Y-71329282D01*
X105684868Y-77488982D02*
X105991259Y-77182582D01*
X105684881Y-69569369D02*
X105952209Y-69302041D01*
X105685440Y-76003482D02*
X105816268Y-75872650D01*
X105686768Y-68966441D02*
X105704440Y-68966441D01*
X105686850Y-75012119D02*
X105817659Y-74881310D01*
X105687231Y-76655760D02*
X105968640Y-76374350D01*
X105687809Y-73013582D02*
X105957018Y-72744382D01*
X105688140Y-72341500D02*
X105990881Y-72038769D01*
X105688250Y-74020769D02*
X105819050Y-73889969D01*
X105689450Y-69158210D02*
X105671768Y-69158210D01*
X105689450Y-69158210D02*
X105881218Y-68966441D01*
X105689918Y-70236082D02*
X105963968Y-69962032D01*
X105690831Y-75662219D02*
X105967381Y-75385669D01*
X105692340Y-68183050D02*
X105831140Y-68044250D01*
X105694468Y-74668619D02*
X105966059Y-74397041D01*
X105694500Y-70549691D02*
X105886781Y-70357419D01*
X105694918Y-71238700D02*
X105707000Y-71226632D01*
X105694918Y-71256382D02*
X105724668Y-71226632D01*
X105694918Y-71274060D02*
X105742350Y-71226632D01*
X105694918Y-71291741D02*
X105760031Y-71226632D01*
X105694918Y-71309410D02*
X105777709Y-71226632D01*
X105694918Y-71327091D02*
X105795381Y-71226632D01*
X105695500Y-69576432D02*
X105969890Y-69302041D01*
X105695740Y-76010850D02*
X105826531Y-75880069D01*
X105696809Y-71130750D02*
X105889068Y-70938491D01*
X105697090Y-75019560D02*
X105827890Y-74888760D01*
X105697581Y-73675560D02*
X105960781Y-73412369D01*
X105698309Y-73020760D02*
X105974700Y-72744382D01*
X105698431Y-74028269D02*
X105829240Y-73897460D01*
X105701018Y-77490500D02*
X105989109Y-77202410D01*
X105701168Y-71532982D02*
X105893440Y-71340710D01*
X105702681Y-68190391D02*
X105840531Y-68052541D01*
X105704440Y-68966441D02*
X105722118Y-68966441D01*
X105704490Y-72342832D02*
X105988559Y-72058760D01*
X105705600Y-76018682D02*
X105836540Y-75887741D01*
X105705700Y-69583910D02*
X105987568Y-69302041D01*
X105706890Y-75027441D02*
X105837859Y-74896469D01*
X105707131Y-69158210D02*
X105689450Y-69158210D01*
X105707131Y-69158210D02*
X105887531Y-68977810D01*
X105708168Y-74036210D02*
X105839181Y-73905200D01*
X105708400Y-73028350D02*
X105992368Y-72744382D01*
X105709531Y-68837610D02*
X105955868Y-68591269D01*
X105712181Y-70549691D02*
X105904459Y-70357419D01*
X105712609Y-68198132D02*
X105849668Y-68061069D01*
X105714490Y-71130750D02*
X105906750Y-70938491D01*
X105715040Y-76026910D02*
X105846290Y-75895669D01*
X105715409Y-76645260D02*
X105957781Y-76402891D01*
X105715500Y-69591782D02*
X106005250Y-69302041D01*
X105716281Y-75035732D02*
X105847568Y-74904432D01*
X105717509Y-74044550D02*
X105848859Y-73913200D01*
X105718090Y-73036332D02*
X106010050Y-72744382D01*
X105718109Y-77491091D02*
X105986118Y-77223082D01*
X105718850Y-71532982D02*
X105911109Y-71340710D01*
X105719481Y-75651250D02*
X105956040Y-75414691D01*
X105719559Y-70224119D02*
X105950650Y-69993032D01*
X105721781Y-72343219D02*
X105985368Y-72079619D01*
X105722118Y-68966441D02*
X105739800Y-68966441D01*
X105722150Y-68206269D02*
X105858568Y-68069850D01*
X105723618Y-74657150D02*
X105954200Y-74426569D01*
X105724100Y-76035532D02*
X105855781Y-75903850D01*
X105724809Y-69158210D02*
X105707131Y-69158210D01*
X105724809Y-69158210D02*
X105887531Y-68995482D01*
X105724909Y-69600050D02*
X106022918Y-69302041D01*
X105725290Y-75044391D02*
X105857031Y-74912650D01*
X105726468Y-74053260D02*
X105858281Y-73921450D01*
X105727400Y-73044710D02*
X106027731Y-72744382D01*
X105728490Y-73662332D02*
X105946250Y-73444582D01*
X105729859Y-70549691D02*
X105922131Y-70357419D01*
X105731281Y-68214819D02*
X105867218Y-68078882D01*
X105732159Y-71130750D02*
X105924431Y-70938491D01*
X105732800Y-76044510D02*
X105865009Y-75912300D01*
X105733881Y-69608750D02*
X106040600Y-69302041D01*
X105733940Y-75053419D02*
X105866231Y-74921132D01*
X105735068Y-74062341D02*
X105867440Y-73929969D01*
X105736250Y-73053541D02*
X106045409Y-72744382D01*
X105736268Y-77490600D02*
X105982081Y-77244800D01*
X105736531Y-71532982D02*
X105928790Y-71340710D01*
X105739800Y-68966441D02*
X105757481Y-68966441D01*
X105739959Y-68223819D02*
X105875618Y-68088160D01*
X105740200Y-72342469D02*
X105981081Y-72101591D01*
X105741140Y-76053850D02*
X105873981Y-75921000D01*
X105741400Y-69972469D02*
X105988859Y-69725010D01*
X105742231Y-75062810D02*
X105875159Y-74929869D01*
X105742418Y-69617900D02*
X106058281Y-69302041D01*
X105742481Y-69158210D02*
X105724809Y-69158210D01*
X105742481Y-69158210D02*
X105887531Y-69013160D01*
X105742631Y-68822191D02*
X105939340Y-68625482D01*
X105743309Y-74071769D02*
X105876340Y-73938741D01*
X105744659Y-73062800D02*
X106063081Y-72744382D01*
X105747540Y-70549691D02*
X105939809Y-70357419D01*
X105748059Y-76630282D02*
X105942368Y-76435982D01*
X105748200Y-68233250D02*
X105883790Y-68097669D01*
X105749118Y-76063541D02*
X105882690Y-75929982D01*
X105749840Y-71130750D02*
X105942109Y-70938491D01*
X105750159Y-75072550D02*
X105883831Y-74938882D01*
X105750509Y-69627482D02*
X106075959Y-69302041D01*
X105751200Y-74081569D02*
X105884981Y-73947791D01*
X105752640Y-73072500D02*
X106080759Y-72744382D01*
X105752959Y-75635441D02*
X105939768Y-75448632D01*
X105754209Y-71532982D02*
X105946468Y-71340710D01*
X105754981Y-70206369D02*
X105931818Y-70029532D01*
X105755868Y-77488691D02*
X105976668Y-77267891D01*
X105756009Y-68243132D02*
X105891709Y-68107419D01*
X105756740Y-76073600D02*
X105891131Y-75939219D01*
X105757481Y-68966441D02*
X105775150Y-68966441D01*
X105757731Y-75082660D02*
X105892240Y-74948160D01*
X105758040Y-74640419D02*
X105937009Y-74461450D01*
X105758168Y-69637500D02*
X105893959Y-69501710D01*
X105758718Y-74091719D02*
X105893340Y-73957100D01*
X105760150Y-72340200D02*
X105975331Y-72125019D01*
X105760159Y-69158210D02*
X105742481Y-69158210D01*
X105760159Y-69158210D02*
X105887531Y-69030841D01*
X105760168Y-73082641D02*
X105896050Y-72946769D01*
X105762840Y-68554491D02*
X105988459Y-68328882D01*
X105763268Y-76880241D02*
X105778900Y-76864619D01*
X105763359Y-68253450D02*
X105899390Y-68117419D01*
X105763981Y-76084041D02*
X105899290Y-75948732D01*
X105764568Y-71734741D02*
X105784668Y-71714641D01*
X105764931Y-75093141D02*
X105900359Y-74957700D01*
X105765209Y-70549691D02*
X105957490Y-70357419D01*
X105765368Y-69647969D02*
X105901559Y-69511791D01*
X105765859Y-74102260D02*
X105901440Y-73966691D01*
X105766309Y-73642191D02*
X105925009Y-73483491D01*
X105767259Y-73093241D02*
X105903581Y-72956910D01*
X105767518Y-71130750D02*
X105959781Y-70938491D01*
X105769440Y-76891760D02*
X105806740Y-76854450D01*
X105770268Y-68264219D02*
X105906831Y-68127660D01*
X105770690Y-71746300D02*
X105812518Y-71704469D01*
X105770840Y-76094860D02*
X105907181Y-75958519D01*
X105771731Y-75104019D02*
X105908218Y-74967532D01*
X105771881Y-71532982D02*
X105964150Y-71340710D01*
X105772131Y-69658900D02*
X105908918Y-69522110D01*
X105772140Y-74361141D02*
X105985368Y-74147910D01*
X105772609Y-74113191D02*
X105909250Y-73976550D01*
X105773881Y-73104291D02*
X105910868Y-72967300D01*
X105773950Y-73369391D02*
X105987168Y-73156169D01*
X105775150Y-68966441D02*
X105792831Y-68966441D01*
X105775359Y-75347869D02*
X105984990Y-75138250D01*
X105775381Y-76903491D02*
X105834590Y-76844282D01*
X105776590Y-71758082D02*
X105840359Y-71694310D01*
X105776709Y-68275450D02*
X105914018Y-68138141D01*
X105777281Y-76106091D02*
X105914790Y-75968591D01*
X105777431Y-77484800D02*
X105969340Y-77292900D01*
X105777840Y-69158210D02*
X105760159Y-69158210D01*
X105777840Y-69158210D02*
X105887531Y-69048519D01*
X105778118Y-75115310D02*
X105915790Y-74977641D01*
X105778209Y-76334982D02*
X105984590Y-76128591D01*
X105778418Y-69670282D02*
X105916018Y-69532682D01*
X105778940Y-74124541D02*
X105916781Y-73986700D01*
X105779568Y-69916619D02*
X105986468Y-69709719D01*
X105780050Y-73115800D02*
X105917909Y-72977932D01*
X105781109Y-76915441D02*
X105862431Y-76834110D01*
X105782231Y-72335800D02*
X105967500Y-72150532D01*
X105782268Y-71770082D02*
X105868209Y-71684141D01*
X105782700Y-68287150D02*
X105920968Y-68148882D01*
X105782890Y-70549691D02*
X105975168Y-70357419D01*
X105783281Y-76117769D02*
X105922109Y-75978941D01*
X105784050Y-75127050D02*
X105923068Y-74988041D01*
X105784250Y-69682132D02*
X105922890Y-69543491D01*
X105784809Y-74136341D02*
X105924018Y-73997132D01*
X105785200Y-71130750D02*
X105977459Y-70938491D01*
X105785431Y-68514232D02*
X105985918Y-68313732D01*
X105785440Y-68797060D02*
X105913100Y-68669400D01*
X105785759Y-73127769D02*
X105924709Y-72988819D01*
X105786609Y-76927619D02*
X105890281Y-76823950D01*
X105787718Y-71782300D02*
X105896050Y-71673969D01*
X105788250Y-68299269D02*
X105927659Y-68159860D01*
X105788800Y-76129932D02*
X105929131Y-75989600D01*
X105789481Y-74326132D02*
X105982309Y-74133300D01*
X105789500Y-75139282D02*
X105930050Y-74998732D01*
X105789559Y-71532982D02*
X105981818Y-71340710D01*
X105789650Y-69694410D02*
X105929500Y-69554560D01*
X105790109Y-76605910D02*
X105917481Y-76478550D01*
X105790190Y-74148641D02*
X105930968Y-74007860D01*
X105790400Y-73335260D02*
X105984459Y-73141191D01*
X105791018Y-73140182D02*
X105931250Y-72999950D01*
X105791018Y-75314541D02*
X105981859Y-75123691D01*
X105791868Y-76940032D02*
X105916600Y-76815300D01*
X105792440Y-76303069D02*
X105981409Y-76114091D01*
X105792831Y-68966441D02*
X105810509Y-68966441D01*
X105792940Y-71794769D02*
X105918009Y-71669691D01*
X105793268Y-68311932D02*
X105934109Y-68171091D01*
X105793331Y-69885182D02*
X105983659Y-69694860D01*
X105793790Y-76142619D02*
X105935859Y-76000550D01*
X105794409Y-75152050D02*
X105936740Y-75009719D01*
X105794468Y-69707269D02*
X105935859Y-69565869D01*
X105795031Y-74161482D02*
X105937618Y-74018891D01*
X105795518Y-69158210D02*
X105777840Y-69158210D01*
X105795518Y-69158210D02*
X105887531Y-69066191D01*
X105795668Y-73153219D02*
X105937550Y-73011332D01*
X105796659Y-68485319D02*
X105982968Y-68299010D01*
X105796900Y-76952682D02*
X105923250Y-76826332D01*
X105797300Y-75608782D02*
X105912590Y-75493491D01*
X105797659Y-68325219D02*
X105940309Y-68182569D01*
X105797909Y-71807469D02*
X105924590Y-71680791D01*
X105798168Y-76155910D02*
X105942281Y-76011800D01*
X105798550Y-74299382D02*
X105978818Y-74119110D01*
X105798640Y-69720782D02*
X105941968Y-69577441D01*
X105798709Y-75165419D02*
X105943118Y-75021019D01*
X105799181Y-73308800D02*
X105981350Y-73126641D01*
X105799240Y-74174950D02*
X105943950Y-74030241D01*
X105799431Y-75288450D02*
X105978318Y-75109560D01*
X105799650Y-73166910D02*
X105943590Y-73022969D01*
X105800240Y-76277591D02*
X105977818Y-76100010D01*
X105800568Y-70549691D02*
X105991250Y-70359010D01*
X105800809Y-69860019D02*
X105980431Y-69680410D01*
X105801381Y-68339182D02*
X105946250Y-68194310D01*
X105801668Y-76965591D02*
X105929590Y-76837669D01*
X105801881Y-76169882D02*
X105948390Y-76023382D01*
X105802040Y-77477869D02*
X105959018Y-77320891D01*
X105802118Y-69734969D02*
X105947831Y-69589260D01*
X105802318Y-75179491D02*
X105949181Y-75032632D01*
X105802618Y-71820441D02*
X105930868Y-71692191D01*
X105802740Y-74189119D02*
X105949968Y-74041900D01*
X105802850Y-68461450D02*
X105979600Y-68284691D01*
X105802881Y-71130750D02*
X105991050Y-70942582D01*
X105802940Y-73181291D02*
X105949381Y-73034860D01*
X105803350Y-77246750D02*
X105991340Y-77058760D01*
X105803718Y-74276532D02*
X105974940Y-74105310D01*
X105804131Y-73286169D02*
X105977831Y-73112469D01*
X105804209Y-75265991D02*
X105974390Y-75095819D01*
X105804381Y-68353850D02*
X105951931Y-68206300D01*
X105804659Y-76255491D02*
X105973831Y-76086319D01*
X105804781Y-76184660D02*
X105954159Y-76035282D01*
X105804868Y-69749900D02*
X105953431Y-69601341D01*
X105804981Y-70174050D02*
X105898381Y-70080660D01*
X105805050Y-69838110D02*
X105976809Y-69666350D01*
X105805109Y-75194391D02*
X105954909Y-75044582D01*
X105805218Y-74610910D02*
X105906959Y-74509169D01*
X105805409Y-74204132D02*
X105955659Y-74053882D01*
X105805481Y-73196432D02*
X105954909Y-73047000D01*
X105806168Y-76978769D02*
X105935631Y-76849310D01*
X105806331Y-68440300D02*
X105975859Y-68270760D01*
X105806450Y-74256119D02*
X105970659Y-74091910D01*
X105806609Y-68369300D02*
X105957359Y-68218550D01*
X105806681Y-75245850D02*
X105970059Y-75082460D01*
X105806731Y-76200391D02*
X105959609Y-76047510D01*
X105806831Y-69765619D02*
X105958768Y-69613682D01*
X105806840Y-73265791D02*
X105973940Y-73098691D01*
X105806868Y-76235600D02*
X105969450Y-76073019D01*
X105806909Y-75210260D02*
X105960309Y-75056860D01*
X105807059Y-71833669D02*
X105936840Y-71703900D01*
X105807059Y-74220160D02*
X105961009Y-74066210D01*
X105807218Y-73212369D02*
X105960159Y-73059432D01*
X105807240Y-71532982D02*
X105999500Y-71340710D01*
X105807290Y-69818191D02*
X105972818Y-69652660D01*
X105807459Y-74237441D02*
X105966018Y-74078882D01*
X105807481Y-75227360D02*
X105965368Y-75069482D01*
X105807490Y-76217310D02*
X105964709Y-76060091D01*
X105807718Y-72327991D02*
X105956318Y-72179391D01*
X105807940Y-69782182D02*
X105963781Y-69626341D01*
X105808009Y-68385582D02*
X105962490Y-68231100D01*
X105808031Y-73246919D02*
X105969690Y-73085260D01*
X105808050Y-68420891D02*
X105971750Y-68257200D01*
X105808090Y-73229182D02*
X105965090Y-73072182D01*
X105808140Y-69799660D02*
X105968468Y-69639332D01*
X105808518Y-68402741D02*
X105967281Y-68243982D01*
X105810390Y-76992232D02*
X105941359Y-76861250D01*
X105810509Y-68966441D02*
X105828190Y-68966441D01*
X105811218Y-71847191D02*
X105942509Y-71715900D01*
X105813190Y-69158210D02*
X105795518Y-69158210D01*
X105813190Y-69158210D02*
X105887531Y-69083869D01*
X105814300Y-77005991D02*
X105946800Y-76873491D01*
X105815081Y-71861010D02*
X105947900Y-71728191D01*
X105816318Y-72071900D02*
X105990100Y-71898119D01*
X105817900Y-77020069D02*
X105951959Y-76886010D01*
X105818240Y-77214182D02*
X105989740Y-77042682D01*
X105818250Y-70549691D02*
X105984831Y-70383110D01*
X105818600Y-71875169D02*
X105952990Y-71740769D01*
X105820550Y-71130750D02*
X105984590Y-70966710D01*
X105821140Y-77034510D02*
X105956831Y-76898819D01*
X105821768Y-71889682D02*
X105957800Y-71753641D01*
X105823468Y-72047069D02*
X105988240Y-71882310D01*
X105824000Y-77049319D02*
X105961418Y-76911910D01*
X105824459Y-77190291D02*
X105987809Y-77026941D01*
X105824540Y-71904582D02*
X105962331Y-71766791D01*
X105824918Y-71532982D02*
X106017181Y-71340710D01*
X105826431Y-77064569D02*
X105965718Y-76925282D01*
X105826881Y-71919919D02*
X105966581Y-71780219D01*
X105827309Y-72025550D02*
X105986040Y-71866819D01*
X105827859Y-77169200D02*
X105985550Y-77011519D01*
X105828190Y-68966441D02*
X105845859Y-68966441D01*
X105828381Y-77080300D02*
X105969750Y-76938932D01*
X105828718Y-71935760D02*
X105970550Y-71793932D01*
X105828968Y-73597200D02*
X105878909Y-73547269D01*
X105829418Y-72005769D02*
X105983540Y-71851650D01*
X105829700Y-77149691D02*
X105982981Y-76996410D01*
X105829768Y-77096582D02*
X105973490Y-76952869D01*
X105829981Y-71952169D02*
X105974231Y-71807932D01*
X105830400Y-71987110D02*
X105980731Y-71836782D01*
X105830500Y-77131219D02*
X105980109Y-76981600D01*
X105830509Y-77113519D02*
X105976940Y-76967091D01*
X105830568Y-71969260D02*
X105977618Y-71822210D01*
X105830868Y-69158210D02*
X105813190Y-69158210D01*
X105830868Y-69158210D02*
X105887531Y-69101550D01*
X105832490Y-77465100D02*
X105942931Y-77354660D01*
X105835931Y-70549691D02*
X105978409Y-70407210D01*
X105838231Y-71130750D02*
X105978140Y-70990850D01*
X105840250Y-72313141D02*
X105938150Y-72215232D01*
X105842590Y-71532982D02*
X106034859Y-71340710D01*
X105845859Y-68966441D02*
X105863540Y-68966441D01*
X105848550Y-69158210D02*
X105830868Y-69158210D01*
X105848550Y-69158210D02*
X105887531Y-69119232D01*
X105853600Y-70549691D02*
X105971990Y-70431300D01*
X105855909Y-71130750D02*
X105971681Y-71014982D01*
X105860268Y-71532982D02*
X106052531Y-71340710D01*
X105863540Y-68966441D02*
X105881218Y-68966441D01*
X105866231Y-69158210D02*
X105848550Y-69158210D01*
X105866231Y-69158210D02*
X105887531Y-69136910D01*
X105871281Y-70549691D02*
X105965568Y-70455400D01*
X105873590Y-71130750D02*
X105965218Y-71039119D01*
X105877950Y-71532982D02*
X106070209Y-71340710D01*
X105881218Y-68966441D02*
X105887531Y-68966441D01*
X105883909Y-69158210D02*
X105866231Y-69158210D01*
X105883909Y-69158210D02*
X105887531Y-69154582D01*
X105887531Y-68966441D02*
X105887531Y-68977810D01*
X105887531Y-68977810D02*
X105887531Y-68995482D01*
X105887531Y-68995482D02*
X105887531Y-69013160D01*
X105887531Y-69013160D02*
X105887531Y-69030841D01*
X105887531Y-69030841D02*
X105887531Y-69048519D01*
X105887531Y-69048519D02*
X105887531Y-69066191D01*
X105887531Y-69066191D02*
X105887531Y-69083869D01*
X105887531Y-69083869D02*
X105887531Y-69101550D01*
X105887531Y-69101550D02*
X105887531Y-69119232D01*
X105887531Y-69119232D02*
X105887531Y-69136910D01*
X105887531Y-69136910D02*
X105887531Y-69154582D01*
X105887531Y-69154582D02*
X105887531Y-69158210D01*
X105887531Y-69158210D02*
X105883909Y-69158210D01*
X105888959Y-70549691D02*
X105959150Y-70479500D01*
X105891259Y-71130750D02*
X105958768Y-71063250D01*
X105895631Y-71532982D02*
X106087890Y-71340710D01*
X105899981Y-69495691D02*
X106093631Y-69302041D01*
X105904781Y-72938032D02*
X106098440Y-72744382D01*
X105906640Y-70549691D02*
X105952731Y-70503600D01*
X105908940Y-71130750D02*
X105952309Y-71087382D01*
X105913300Y-71532982D02*
X106095000Y-71351282D01*
X105917659Y-69495691D02*
X106111309Y-69302041D01*
X105922459Y-72938032D02*
X106116118Y-72744382D01*
X105924309Y-70549691D02*
X105946309Y-70527700D01*
X105926618Y-71130750D02*
X105945850Y-71111519D01*
X105930981Y-71532982D02*
X106088600Y-71375350D01*
X105935331Y-69495691D02*
X106128990Y-69302041D01*
X105940140Y-72938032D02*
X106133790Y-72744382D01*
X105948659Y-71532982D02*
X106082209Y-71399432D01*
X105953009Y-69495691D02*
X106146668Y-69302041D01*
X105957818Y-72938032D02*
X106151468Y-72744382D01*
X105966340Y-71532982D02*
X106075809Y-71423500D01*
X105970690Y-69495691D02*
X106147631Y-69318750D01*
X105975490Y-72938032D02*
X106146340Y-72767191D01*
X105984009Y-71532982D02*
X106069418Y-71447569D01*
X105988368Y-69495691D02*
X106141150Y-69342900D01*
X105993168Y-72938032D02*
X106139800Y-72791410D01*
X105993931Y-68966441D02*
X106004959Y-68966441D01*
X105993931Y-68977482D02*
X105993931Y-68966441D01*
X105993931Y-68977482D02*
X106004959Y-68966441D01*
X105993931Y-68995150D02*
X105993931Y-68977482D01*
X105993931Y-68995150D02*
X106022640Y-68966441D01*
X105993931Y-69012832D02*
X105993931Y-68995150D01*
X105993931Y-69012832D02*
X106040318Y-68966441D01*
X105993931Y-69030510D02*
X105993931Y-69012832D01*
X105993931Y-69030510D02*
X106058000Y-68966441D01*
X105993931Y-69048191D02*
X105993931Y-69030510D01*
X105993931Y-69048191D02*
X106075668Y-68966441D01*
X105993931Y-69065860D02*
X105993931Y-69048191D01*
X105993931Y-69065860D02*
X106093350Y-68966441D01*
X105993931Y-69083541D02*
X105993931Y-69065860D01*
X105993931Y-69083541D02*
X106111031Y-68966441D01*
X105993931Y-69101219D02*
X105993931Y-69083541D01*
X105993931Y-69101219D02*
X106128709Y-68966441D01*
X105993931Y-69118900D02*
X105993931Y-69101219D01*
X105993931Y-69118900D02*
X106146390Y-68966441D01*
X105993931Y-69136569D02*
X105993931Y-69118900D01*
X105993931Y-69136569D02*
X106153518Y-68976982D01*
X105993931Y-69154250D02*
X105993931Y-69136569D01*
X105993931Y-69154250D02*
X106153518Y-68994660D01*
X105993931Y-69158210D02*
X105993931Y-69154250D01*
X106001690Y-71532982D02*
X106063031Y-71471641D01*
X106004959Y-68966441D02*
X106022640Y-68966441D01*
X106006050Y-69495691D02*
X106134681Y-69367050D01*
X106007650Y-69158210D02*
X105993931Y-69158210D01*
X106007650Y-69158210D02*
X106153518Y-69012341D01*
X106010850Y-72938032D02*
X106133259Y-72815619D01*
X106019368Y-71532982D02*
X106056631Y-71495710D01*
X106022640Y-68966441D02*
X106040318Y-68966441D01*
X106023718Y-69495691D02*
X106128209Y-69391200D01*
X106025331Y-69158210D02*
X106007650Y-69158210D01*
X106025331Y-69158210D02*
X106153518Y-69030010D01*
X106028531Y-72938032D02*
X106126718Y-72839841D01*
X106037050Y-71532982D02*
X106050240Y-71519791D01*
X106040318Y-68966441D02*
X106058000Y-68966441D01*
X106041400Y-69495691D02*
X106121740Y-69415350D01*
X106043000Y-69158210D02*
X106025331Y-69158210D01*
X106043000Y-69158210D02*
X106153518Y-69047691D01*
X106046209Y-72938032D02*
X106120190Y-72864050D01*
X106058000Y-68966441D02*
X106075668Y-68966441D01*
X106059081Y-69495691D02*
X106115268Y-69439500D01*
X106060681Y-69158210D02*
X106043000Y-69158210D01*
X106060681Y-69158210D02*
X106153518Y-69065369D01*
X106063881Y-72938032D02*
X106113650Y-72888269D01*
X106075668Y-68966441D02*
X106093350Y-68966441D01*
X106076759Y-69495691D02*
X106108800Y-69463650D01*
X106078359Y-69158210D02*
X106060681Y-69158210D01*
X106078359Y-69158210D02*
X106153518Y-69083050D01*
X106081559Y-72938032D02*
X106107109Y-72912482D01*
X106093350Y-68966441D02*
X106111031Y-68966441D01*
X106094431Y-69495691D02*
X106102331Y-69487791D01*
X106096040Y-69158210D02*
X106078359Y-69158210D01*
X106096040Y-69158210D02*
X106153518Y-69100732D01*
X106099240Y-72938032D02*
X106100568Y-72936700D01*
X106111031Y-68966441D02*
X106128709Y-68966441D01*
X106113718Y-69158210D02*
X106096040Y-69158210D01*
X106113718Y-69158210D02*
X106153518Y-69118400D01*
X106128709Y-68966441D02*
X106146390Y-68966441D01*
X106131390Y-69158210D02*
X106113718Y-69158210D01*
X106131390Y-69158210D02*
X106153518Y-69136082D01*
X106146390Y-68966441D02*
X106153518Y-68966441D01*
X106149068Y-69158210D02*
X106131390Y-69158210D01*
X106149068Y-69158210D02*
X106153518Y-69153760D01*
X106153518Y-68966441D02*
X106153518Y-68976982D01*
X106153518Y-68976982D02*
X106153518Y-68994660D01*
X106153518Y-68994660D02*
X106153518Y-69012341D01*
X106153518Y-69012341D02*
X106153518Y-69030010D01*
X106153518Y-69030010D02*
X106153518Y-69047691D01*
X106153518Y-69047691D02*
X106153518Y-69065369D01*
X106153518Y-69065369D02*
X106153518Y-69083050D01*
X106153518Y-69083050D02*
X106153518Y-69100732D01*
X106153518Y-69100732D02*
X106153518Y-69118400D01*
X106153518Y-69118400D02*
X106153518Y-69136082D01*
X106153518Y-69136082D02*
X106153518Y-69153760D01*
X106153518Y-69153760D02*
X106153518Y-69158210D01*
X106153518Y-69158210D02*
X106149068Y-69158210D01*
%TD*%
D13*
X103708200Y-79095600D02*
G75*
G02*
X103454200Y-79349600I-254000J0D01*
G01*
X102438200Y-79095600D02*
G75*
G02*
X102692200Y-78841600I254000J0D01*
G01*
X102692200Y-66395600D02*
X103454200Y-66395600D01*
X102692200Y-79349600D02*
G75*
G02*
X102438200Y-79095600I0J254000D01*
G01*
X103454200Y-66395600D02*
G75*
G02*
X103708200Y-66649600I0J-254000D01*
G01*
X103454200Y-66903600D02*
X102692200Y-66903600D01*
X102438200Y-66649600D02*
G75*
G02*
X102692200Y-66395600I254000J0D01*
G01*
X102692200Y-78841600D02*
X103454200Y-78841600D01*
X103454200Y-78841600D02*
G75*
G02*
X103708200Y-79095600I0J-254000D01*
G01*
X103454200Y-79349600D02*
X102692200Y-79349600D01*
X103708200Y-66649600D02*
G75*
G02*
X103454200Y-66903600I-254000J0D01*
G01*
X102692200Y-66903600D02*
G75*
G02*
X102438200Y-66649600I0J254000D01*
G01*
D14*
%TO.C,U2*%
X97983700Y-65891000D02*
X97983700Y-79861000D01*
X99888700Y-63986000D02*
X117033700Y-63986000D01*
X99888700Y-81766000D02*
X117033700Y-81766000D01*
X118938700Y-79861000D02*
X118938700Y-65891000D01*
X97983700Y-65891000D02*
G75*
G02*
X99888700Y-63986000I1905001J-1D01*
G01*
X99888700Y-81766000D02*
G75*
G02*
X97983700Y-79861000I1J1905001D01*
G01*
X117033700Y-63986000D02*
G75*
G02*
X118938700Y-65891000I0J-1905000D01*
G01*
X118938700Y-79861000D02*
G75*
G02*
X117033700Y-81766000I-1905000J0D01*
G01*
%TD*%
M02*
