%TF.GenerationSoftware,KiCad,Pcbnew,8.0.0*%
%TF.CreationDate,2025-02-11T16:30:34+08:00*%
%TF.ProjectId,XIAO ESP32 C6,5849414f-2045-4535-9033-322043362e6b,rev?*%
%TF.SameCoordinates,Original*%
%TF.FileFunction,Copper,L3,Inr*%
%TF.FilePolarity,Positive*%
%FSLAX46Y46*%
G04 Gerber Fmt 4.6, Leading zero omitted, Abs format (unit mm)*
G04 Created by KiCad (PCBNEW 8.0.0) date 2025-02-11 16:30:34*
%MOMM*%
%LPD*%
G01*
G04 APERTURE LIST*
G04 Aperture macros list*
%AMOutline5P*
0 Free polygon, 5 corners , with rotation*
0 The origin of the aperture is its center*
0 number of corners: always 5*
0 $1 to $10 corner X, Y*
0 $11 Rotation angle, in degrees counterclockwise*
0 create outline with 5 corners*
4,1,5,$1,$2,$3,$4,$5,$6,$7,$8,$9,$10,$1,$2,$11*%
%AMOutline6P*
0 Free polygon, 6 corners , with rotation*
0 The origin of the aperture is its center*
0 number of corners: always 6*
0 $1 to $12 corner X, Y*
0 $13 Rotation angle, in degrees counterclockwise*
0 create outline with 6 corners*
4,1,6,$1,$2,$3,$4,$5,$6,$7,$8,$9,$10,$11,$12,$1,$2,$13*%
%AMOutline7P*
0 Free polygon, 7 corners , with rotation*
0 The origin of the aperture is its center*
0 number of corners: always 7*
0 $1 to $14 corner X, Y*
0 $15 Rotation angle, in degrees counterclockwise*
0 create outline with 7 corners*
4,1,7,$1,$2,$3,$4,$5,$6,$7,$8,$9,$10,$11,$12,$13,$14,$1,$2,$15*%
%AMOutline8P*
0 Free polygon, 8 corners , with rotation*
0 The origin of the aperture is its center*
0 number of corners: always 8*
0 $1 to $16 corner X, Y*
0 $17 Rotation angle, in degrees counterclockwise*
0 create outline with 8 corners*
4,1,8,$1,$2,$3,$4,$5,$6,$7,$8,$9,$10,$11,$12,$13,$14,$15,$16,$1,$2,$17*%
G04 Aperture macros list end*
%TA.AperFunction,ComponentPad*%
%ADD10O,2.000000X1.000000*%
%TD*%
%TA.AperFunction,ComponentPad*%
%ADD11O,2.200000X1.100000*%
%TD*%
%TA.AperFunction,ComponentPad*%
%ADD12C,1.270000*%
%TD*%
%TA.AperFunction,ComponentPad*%
%ADD13Outline8P,-0.750000X0.310660X-0.310660X0.750000X0.310660X0.750000X0.750000X0.310660X0.750000X-0.310660X0.310660X-0.750000X-0.310660X-0.750000X-0.750000X-0.310660X270.000000*%
%TD*%
%TA.AperFunction,ComponentPad*%
%ADD14C,1.400000*%
%TD*%
%TA.AperFunction,ComponentPad*%
%ADD15C,1.500000*%
%TD*%
%TA.AperFunction,ComponentPad*%
%ADD16C,1.524000*%
%TD*%
%TA.AperFunction,ViaPad*%
%ADD17C,0.406400*%
%TD*%
%TA.AperFunction,Conductor*%
%ADD18C,0.609600*%
%TD*%
%TA.AperFunction,Conductor*%
%ADD19C,0.254000*%
%TD*%
%TA.AperFunction,Conductor*%
%ADD20C,0.508000*%
%TD*%
%TA.AperFunction,Conductor*%
%ADD21C,0.355600*%
%TD*%
%TA.AperFunction,Conductor*%
%ADD22C,0.101600*%
%TD*%
%TA.AperFunction,Conductor*%
%ADD23C,0.141986*%
%TD*%
%TA.AperFunction,Profile*%
%ADD24C,0.076200*%
%TD*%
%TA.AperFunction,Profile*%
%ADD25C,0.025400*%
%TD*%
G04 APERTURE END LIST*
D10*
%TO.N,GND*%
%TO.C,USB1*%
X117881400Y-77180000D03*
X117881400Y-68580000D03*
D11*
X113681400Y-77180000D03*
X113681400Y-68580000D03*
%TD*%
D12*
%TO.N,GPIO0{slash}XTAL_32K_P{slash}ADC1_CH0*%
%TO.C,U2*%
X116017700Y-63986000D03*
D13*
X116017700Y-65256000D03*
D12*
%TO.N,GPIO1{slash}XTAL_32K_N{slash}ADC1_CH1*%
X113477700Y-63986000D03*
D14*
X113477700Y-65256000D03*
D12*
%TO.N,GPIO2{slash}ADC1_CH2*%
X110937700Y-63986000D03*
D15*
X110937700Y-65256000D03*
D12*
%TO.N,GPIO21{slash}SDIO_D1*%
X108397700Y-63986000D03*
D15*
X108397700Y-65256000D03*
D12*
%TO.N,GPIO22{slash}SDIO_D2*%
X105857700Y-63986000D03*
D15*
X105857700Y-65256000D03*
D12*
%TO.N,GPIO23{slash}SDIO_D3*%
X103317700Y-63986000D03*
D14*
X103317700Y-65256000D03*
D12*
%TO.N,D6{slash}TX*%
X100777700Y-63986000D03*
D15*
X100777700Y-65256000D03*
D16*
%TO.N,D7{slash}RX*%
X100777700Y-80496000D03*
D12*
X100777700Y-81766000D03*
D14*
%TO.N,GPIO19{slash}SDIO_CLK*%
X103317700Y-80496000D03*
D12*
X103317700Y-81766000D03*
D15*
%TO.N,GPIO20{slash}SDIO_D0*%
X105857700Y-80496000D03*
D12*
X105857700Y-81766000D03*
D15*
%TO.N,GPIO18{slash}SDIO_CMD*%
X108397700Y-80496000D03*
D12*
X108397700Y-81766000D03*
D15*
%TO.N,+3V3*%
X110937700Y-80496000D03*
D12*
X110937700Y-81766000D03*
D14*
%TO.N,GND*%
X113477700Y-80496000D03*
D12*
X113477700Y-81766000D03*
D15*
%TO.N,VBUS*%
X116017700Y-80496000D03*
D12*
X116017700Y-81766000D03*
%TD*%
D17*
%TO.N,GND*%
X110921800Y-71501000D03*
X117170200Y-75615800D03*
X102158800Y-66040000D03*
X101676200Y-67437000D03*
X103050000Y-68090000D03*
X101117400Y-67691000D03*
X99288600Y-66522600D03*
X117703600Y-72898000D03*
X112242600Y-80873600D03*
X102260000Y-78020000D03*
X102234238Y-69620000D03*
X101232919Y-70275946D03*
X112344200Y-78689200D03*
X98552000Y-65659000D03*
X108102400Y-70713600D03*
X101650800Y-76682600D03*
X114757200Y-81000600D03*
X106603800Y-76301600D03*
X107391200Y-75717400D03*
X102340000Y-70220000D03*
X101676200Y-71755000D03*
X112217200Y-68402200D03*
X99263200Y-65659000D03*
X111506000Y-76073000D03*
X102720000Y-75690000D03*
X110388400Y-72059800D03*
X101727000Y-79121000D03*
X107391200Y-76835000D03*
X101625400Y-67995800D03*
X103590000Y-68210000D03*
X114757200Y-80238600D03*
X115214400Y-68148200D03*
X98610000Y-71500000D03*
X111633000Y-69570600D03*
X112242600Y-80060800D03*
X99187000Y-70510400D03*
X101676200Y-74574400D03*
X101690000Y-69930000D03*
X106603800Y-75717400D03*
X109855000Y-68910200D03*
X113487200Y-67691000D03*
X115138200Y-69291200D03*
X103620000Y-69010000D03*
X102710000Y-75070000D03*
X104292400Y-66268600D03*
X116535200Y-67437000D03*
X109499400Y-69824600D03*
X98577400Y-70459600D03*
X102184200Y-72948800D03*
X107945300Y-68750000D03*
X111836200Y-75057000D03*
X99840000Y-70820000D03*
X102209600Y-67792600D03*
X101117400Y-67030600D03*
X102082600Y-80289400D03*
X108127800Y-76301600D03*
X110921800Y-71983600D03*
X117754400Y-69799200D03*
X101540000Y-70680000D03*
X118160800Y-67030600D03*
X107365800Y-76276200D03*
X101676200Y-75666600D03*
X101676200Y-73583800D03*
X101676200Y-77724000D03*
X100787200Y-66548000D03*
X117525800Y-78638400D03*
X101750000Y-69070000D03*
X100620000Y-70474332D03*
X102020000Y-72170000D03*
X106959400Y-72098237D03*
X98552000Y-66522600D03*
X107950000Y-69723000D03*
X106603800Y-76860400D03*
X103620000Y-69860000D03*
X100050600Y-66522600D03*
X102270000Y-69030000D03*
X118237000Y-79527400D03*
X108127800Y-76835000D03*
X105359200Y-71805800D03*
X112776000Y-78841600D03*
X101676200Y-72542400D03*
X102710000Y-76270000D03*
X101070000Y-69840000D03*
X117779800Y-75996800D03*
X116484400Y-69189600D03*
%TO.N,+5V*%
X106570000Y-70280000D03*
X105252500Y-69580000D03*
X108220000Y-67330000D03*
X104930000Y-69902500D03*
X108670000Y-67330000D03*
%TO.N,VBUS*%
X110896400Y-67259200D03*
X109448600Y-68173600D03*
%TO.N,+3V3*%
X104210000Y-71650000D03*
X105085000Y-72674600D03*
X103630000Y-75120000D03*
X109931200Y-76047600D03*
X102660000Y-74470000D03*
X103530000Y-75540000D03*
X110845600Y-68249800D03*
X104419400Y-67487800D03*
X109350000Y-73220000D03*
X104775000Y-67259200D03*
X103520000Y-75970000D03*
X106502200Y-72796400D03*
X110566200Y-78028800D03*
%TO.N,ESP_USB_DN*%
X108813600Y-78257400D03*
X110577335Y-72530822D03*
%TO.N,ESP_USB_DP*%
X110820300Y-73175000D03*
X109855000Y-77571600D03*
%TO.N,VBAT*%
X110591600Y-69240400D03*
X112547400Y-67665600D03*
X110109000Y-66040000D03*
%TO.N,GPIO14*%
X105003600Y-79654400D03*
X102480000Y-76910000D03*
X108762800Y-77063600D03*
X105220000Y-70795237D03*
%TO.N,EN*%
X104978200Y-75565000D03*
X117449600Y-65633600D03*
X111455200Y-69037200D03*
%TO.N,BOOT*%
X111150000Y-77150000D03*
X114833400Y-79425800D03*
X117500400Y-80187800D03*
%TO.N,Net-(CHG1--)*%
X114985800Y-67005200D03*
X110007400Y-70002400D03*
%TO.N,/03 Power/USB_DP*%
X113792000Y-72130000D03*
X113919000Y-73126600D03*
%TO.N,D6{slash}TX*%
X111429800Y-75514200D03*
X109499400Y-65760600D03*
%TO.N,GPIO19{slash}SDIO_CLK*%
X110251431Y-74587724D03*
X104607307Y-79971434D03*
%TO.N,GPIO3{slash}ADC1_CH3*%
X103780000Y-78400000D03*
X102230666Y-74903275D03*
%TO.N,GPIO4{slash}MTMS*%
X105740200Y-77622400D03*
%TO.N,GPIO5{slash}MTDI*%
X109474000Y-80162400D03*
%TO.N,GPIO6{slash}MTCK*%
X106578400Y-77673200D03*
%TO.N,GPIO7{slash}MTDO*%
X109728000Y-80695800D03*
%TO.N,GPIO0{slash}XTAL_32K_P{slash}ADC1_CH0*%
X104952800Y-76428600D03*
%TO.N,GPIO1{slash}XTAL_32K_N{slash}ADC1_CH1*%
X103832011Y-77142536D03*
%TO.N,GPIO2{slash}ADC1_CH2*%
X103784400Y-77647800D03*
%TO.N,GPIO23{slash}SDIO_D3*%
X107111800Y-72821800D03*
%TO.N,GPIO22{slash}SDIO_D2*%
X107594400Y-73939400D03*
%TO.N,GPIO21{slash}SDIO_D1*%
X108077000Y-72821800D03*
%TO.N,D7{slash}RX*%
X108737400Y-75057000D03*
%TO.N,GPIO20{slash}SDIO_D0*%
X108813600Y-73355200D03*
%TO.N,GPIO18{slash}SDIO_CMD*%
X110058200Y-75057000D03*
X109499400Y-78917800D03*
%TD*%
D18*
%TO.N,+3V3*%
X105029000Y-72618600D02*
X105085000Y-72674600D01*
X110425287Y-73964800D02*
X109300000Y-73964800D01*
X103174700Y-74510600D02*
X103364900Y-74320400D01*
X103968953Y-76308953D02*
X103577050Y-75917050D01*
X109118400Y-79527400D02*
X108724700Y-79133700D01*
X108762800Y-73964800D02*
X108178600Y-74549000D01*
X109969100Y-79527400D02*
X109118400Y-79527400D01*
X110985300Y-74993500D02*
X110985300Y-74307700D01*
D19*
X110845600Y-68249800D02*
X111278458Y-68249800D01*
D20*
X103650000Y-75990000D02*
X103650000Y-74985900D01*
D18*
X103744837Y-75907868D02*
X103744837Y-74375237D01*
X103364900Y-74320400D02*
X103690000Y-74320400D01*
D20*
X104142800Y-74470000D02*
X105029000Y-73583800D01*
D18*
X104292400Y-76630305D02*
X104292400Y-75057000D01*
X110652700Y-73975100D02*
X110435587Y-73975100D01*
X103657400Y-75995305D02*
X103657400Y-75580529D01*
X105029000Y-72730600D02*
X105029000Y-73583800D01*
D19*
X109350000Y-73220000D02*
X109350000Y-73914800D01*
D18*
X104292400Y-74676000D02*
X104292400Y-74320400D01*
X104292400Y-74320400D02*
X105029000Y-73583800D01*
X105920000Y-72796400D02*
X105356400Y-72796400D01*
X104556047Y-77946047D02*
X104556047Y-76893953D01*
D19*
X113817400Y-79425800D02*
X112007900Y-79425800D01*
D20*
X103650000Y-74985900D02*
X103577050Y-74912950D01*
D18*
X103690000Y-74320400D02*
X103550000Y-74460400D01*
X106984800Y-74549000D02*
X106502200Y-74066400D01*
D20*
X103650000Y-75582655D02*
X103654763Y-75577892D01*
D18*
X110937700Y-80496000D02*
X109969100Y-79527400D01*
X109931200Y-76530200D02*
X109931200Y-76047600D01*
X103971047Y-76308953D02*
X103657400Y-75995305D01*
X110540800Y-77139800D02*
X109931200Y-76530200D01*
D19*
X109350000Y-73914800D02*
X109300000Y-73964800D01*
D18*
X103657400Y-75995305D02*
X103744837Y-75907868D01*
X109300000Y-73964800D02*
X108762800Y-73964800D01*
X103968953Y-76308953D02*
X103650000Y-75990000D01*
X105085000Y-72674600D02*
X105029000Y-72730600D01*
X104260000Y-67774200D02*
X104260000Y-71700000D01*
X105085000Y-72674600D02*
X105206800Y-72796400D01*
X104292400Y-75057000D02*
X104292400Y-74676000D01*
X103971047Y-76308953D02*
X103968953Y-76308953D01*
D20*
X103577050Y-74912950D02*
X103174700Y-74510600D01*
D18*
X105206800Y-72796400D02*
X105920000Y-72796400D01*
X104556047Y-76893953D02*
X104292400Y-76630305D01*
X103577050Y-75917050D02*
X103577050Y-74912950D01*
X103744837Y-74375237D02*
X103690000Y-74320400D01*
X103690000Y-74320400D02*
X104292400Y-74320400D01*
D19*
X112007900Y-79425800D02*
X110937700Y-80496000D01*
D18*
X105356400Y-72796400D02*
X105029000Y-72469000D01*
X110435587Y-73975100D02*
X110425287Y-73964800D01*
X104775000Y-67259200D02*
X104260000Y-67774200D01*
D20*
X103650000Y-75990000D02*
X103650000Y-75582655D01*
D18*
X108178600Y-74549000D02*
X106984800Y-74549000D01*
X103657400Y-75580529D02*
X103654763Y-75577892D01*
X110985300Y-74307700D02*
X110652700Y-73975100D01*
X103550000Y-74460400D02*
X102660000Y-74460400D01*
X108724700Y-79133700D02*
X105743700Y-79133700D01*
X106502200Y-72796400D02*
X105920000Y-72796400D01*
D19*
X115468400Y-72439742D02*
X115468400Y-77774800D01*
D18*
X104260000Y-71700000D02*
X105029000Y-72469000D01*
X110937700Y-80496000D02*
X110937700Y-80254500D01*
X105743700Y-79133700D02*
X104556047Y-77946047D01*
X110540800Y-78003400D02*
X110540800Y-77139800D01*
X105029000Y-72469000D02*
X105029000Y-72618600D01*
X110566200Y-78028800D02*
X110540800Y-78003400D01*
D19*
X115468400Y-77774800D02*
X113817400Y-79425800D01*
D18*
X109931200Y-76047600D02*
X110985300Y-74993500D01*
X106502200Y-74066400D02*
X106502200Y-72796400D01*
D19*
X111278458Y-68249800D02*
X115468400Y-72439742D01*
D18*
X104556047Y-76893953D02*
X103971047Y-76308953D01*
D21*
%TO.N,VBAT*%
X112547400Y-67437000D02*
X111455200Y-66344800D01*
X110413800Y-66344800D02*
X110109000Y-66040000D01*
X111455200Y-66344800D02*
X110413800Y-66344800D01*
X112547400Y-67665600D02*
X112547400Y-67437000D01*
D22*
%TO.N,GPIO14*%
X105003600Y-79113600D02*
X103893400Y-78003400D01*
X103573400Y-78003400D02*
X102480000Y-76910000D01*
X105003600Y-79654400D02*
X105003600Y-79113600D01*
X103893400Y-78003400D02*
X103573400Y-78003400D01*
%TO.N,D6{slash}TX*%
X110619705Y-73530600D02*
X109956600Y-72867495D01*
X109321600Y-70231000D02*
X109143800Y-70053200D01*
X109143800Y-70053200D02*
X109143800Y-69118505D01*
X109143800Y-69118505D02*
X109855000Y-68407305D01*
X109956600Y-70459600D02*
X109728000Y-70231000D01*
X109728000Y-70231000D02*
X109321600Y-70231000D01*
X109956600Y-72867495D02*
X109956600Y-70459600D01*
X109855000Y-66344800D02*
X109499400Y-65989200D01*
X110919400Y-73530600D02*
X110619705Y-73530600D01*
X111429800Y-74041000D02*
X110919400Y-73530600D01*
X109855000Y-68407305D02*
X109855000Y-66344800D01*
X109499400Y-65989200D02*
X109499400Y-65760600D01*
X111429800Y-75514200D02*
X111429800Y-74041000D01*
%TO.N,GPIO19{slash}SDIO_CLK*%
X103842266Y-79971434D02*
X103317700Y-80496000D01*
X104607307Y-79971434D02*
X103842266Y-79971434D01*
D23*
%TO.N,GPIO3{slash}ADC1_CH3*%
X102230666Y-74903275D02*
X102060000Y-75073941D01*
X103240000Y-78400000D02*
X103780000Y-78400000D01*
X102060000Y-77220000D02*
X103240000Y-78400000D01*
X102060000Y-75073941D02*
X102060000Y-77220000D01*
D22*
%TO.N,GPIO23{slash}SDIO_D3*%
X108534200Y-68224400D02*
X108534200Y-71399400D01*
X107798346Y-72135251D02*
X107798347Y-72135252D01*
X106749800Y-66440000D02*
X108534200Y-68224400D01*
X106540000Y-66440000D02*
X106749800Y-66440000D01*
X108013873Y-71704200D02*
X107744465Y-71434792D01*
X107798347Y-72135252D02*
X107111800Y-72821800D01*
X107528939Y-71650318D02*
X107798346Y-71919725D01*
X103317700Y-65256000D02*
X104245000Y-65256000D01*
X104245000Y-65256000D02*
X105435400Y-66446400D01*
X108013872Y-71704200D02*
X108013873Y-71704200D01*
X106533600Y-66446400D02*
X106540000Y-66440000D01*
X108534200Y-71399400D02*
X108229400Y-71704200D01*
X105435400Y-66446400D02*
X106533600Y-66446400D01*
X107798346Y-71919725D02*
G75*
G02*
X107798358Y-72135263I-107746J-107775D01*
G01*
X107744464Y-71434793D02*
G75*
G03*
X107528940Y-71434793I-107762J-107762D01*
G01*
X108229400Y-71704200D02*
G75*
G02*
X108013872Y-71704200I-107764J107765D01*
G01*
X107528939Y-71434792D02*
G75*
G03*
X107528894Y-71650363I107761J-107808D01*
G01*
%TO.N,GPIO22{slash}SDIO_D2*%
X107594400Y-73744520D02*
X107594400Y-73939400D01*
X107746800Y-73202800D02*
X108153200Y-73202800D01*
X108724700Y-68054195D02*
X108724700Y-71671205D01*
X109397800Y-66573400D02*
X109397800Y-67381095D01*
X108724700Y-71671205D02*
X107594400Y-72801505D01*
X105857700Y-65256000D02*
X106819500Y-66217800D01*
X107594400Y-72801505D02*
X107594400Y-73050400D01*
X109042200Y-66217800D02*
X109397800Y-66573400D01*
X107594400Y-73660000D02*
X107594400Y-73744520D01*
X106819500Y-66217800D02*
X109042200Y-66217800D01*
X109397800Y-67381095D02*
X108724700Y-68054195D01*
X108153200Y-73507600D02*
X107746800Y-73507600D01*
X107594400Y-73050400D02*
G75*
G03*
X107746800Y-73202800I152400J0D01*
G01*
X108153200Y-73202800D02*
G75*
G02*
X108305600Y-73355200I0J-152400D01*
G01*
X108305600Y-73355200D02*
G75*
G02*
X108153200Y-73507600I-152400J0D01*
G01*
X107746800Y-73507600D02*
G75*
G03*
X107594400Y-73660000I0J-152400D01*
G01*
%TO.N,GPIO21{slash}SDIO_D1*%
X109093000Y-71221600D02*
X109499400Y-71221600D01*
X108940600Y-72694800D02*
X108813600Y-72821800D01*
X109601000Y-67447303D02*
X108940600Y-68107703D01*
X109499400Y-72136000D02*
X109093000Y-72136000D01*
X108940600Y-72593200D02*
X108940600Y-72694800D01*
X109601000Y-66459300D02*
X109601000Y-67447303D01*
X108397700Y-65256000D02*
X109601000Y-66459300D01*
X109093000Y-72136000D02*
X108631800Y-72136000D01*
X108813600Y-72821800D02*
X108077000Y-72821800D01*
X109499400Y-70916800D02*
X109093000Y-70916800D01*
X109093000Y-71831200D02*
X109499400Y-71831200D01*
X108940600Y-68107703D02*
X108940600Y-70459600D01*
X108631800Y-72440800D02*
X108788200Y-72440800D01*
X109499400Y-71526400D02*
X109093000Y-71526400D01*
X109093000Y-70612000D02*
X109499400Y-70612000D01*
X108631800Y-72136000D02*
G75*
G03*
X108479400Y-72288400I0J-152400D01*
G01*
X109651800Y-70764400D02*
G75*
G02*
X109499400Y-70916800I-152400J0D01*
G01*
X109499400Y-71831200D02*
G75*
G02*
X109651800Y-71983600I0J-152400D01*
G01*
X108940600Y-71069200D02*
G75*
G03*
X109093000Y-71221600I152400J0D01*
G01*
X109499400Y-70612000D02*
G75*
G02*
X109651800Y-70764400I0J-152400D01*
G01*
X109093000Y-70916800D02*
G75*
G03*
X108940600Y-71069200I0J-152400D01*
G01*
X109651800Y-71374000D02*
G75*
G02*
X109499400Y-71526400I-152400J0D01*
G01*
X109093000Y-71526400D02*
G75*
G03*
X108940600Y-71678800I0J-152400D01*
G01*
X108940600Y-70459600D02*
G75*
G03*
X109093000Y-70612000I152400J0D01*
G01*
X108788200Y-72440800D02*
G75*
G02*
X108940600Y-72593200I0J-152400D01*
G01*
X108479400Y-72288400D02*
G75*
G03*
X108631800Y-72440800I152400J0D01*
G01*
X109499400Y-71221600D02*
G75*
G02*
X109651800Y-71374000I0J-152400D01*
G01*
X109651800Y-71983600D02*
G75*
G02*
X109499400Y-72136000I-152400J0D01*
G01*
X108940600Y-71678800D02*
G75*
G03*
X109093000Y-71831200I152400J0D01*
G01*
%TO.N,GPIO20{slash}SDIO_D0*%
X106172000Y-80181700D02*
X105857700Y-80496000D01*
%TO.N,GPIO18{slash}SDIO_CMD*%
X109143800Y-77292200D02*
X108381800Y-78054200D01*
X110058200Y-75057000D02*
X109245400Y-75057000D01*
X108534200Y-78689200D02*
X109270800Y-78689200D01*
X108381800Y-78536800D02*
X108534200Y-78689200D01*
X109296200Y-75539600D02*
X109441400Y-75539600D01*
X109245400Y-75057000D02*
X109143800Y-75158600D01*
X109270800Y-78689200D02*
X109499400Y-78917800D01*
X109441400Y-75844400D02*
X109296200Y-75844400D01*
X108381800Y-78054200D02*
X108381800Y-78536800D01*
X109143800Y-75158600D02*
X109143800Y-75387200D01*
X109143800Y-75996800D02*
X109143800Y-77292200D01*
X109296200Y-75844400D02*
G75*
G03*
X109143800Y-75996800I0J-152400D01*
G01*
X109143800Y-75387200D02*
G75*
G03*
X109296200Y-75539600I152400J0D01*
G01*
X109593800Y-75692000D02*
G75*
G02*
X109441400Y-75844400I-152400J0D01*
G01*
X109441400Y-75539600D02*
G75*
G02*
X109593800Y-75692000I0J-152400D01*
G01*
%TD*%
%TA.AperFunction,Conductor*%
%TO.N,GND*%
G36*
X100022383Y-64281685D02*
G01*
X100059999Y-64324209D01*
X100061805Y-64323075D01*
X100153419Y-64468876D01*
X100172420Y-64536113D01*
X100152053Y-64602948D01*
X100140576Y-64617821D01*
X100045166Y-64723785D01*
X99950521Y-64887715D01*
X99950518Y-64887722D01*
X99902660Y-65035015D01*
X99892026Y-65067744D01*
X99872240Y-65256000D01*
X99892026Y-65444256D01*
X99892027Y-65444259D01*
X99950518Y-65624277D01*
X99950519Y-65624279D01*
X99950521Y-65624284D01*
X100045167Y-65788216D01*
X100138188Y-65891526D01*
X100171829Y-65928888D01*
X100324965Y-66040148D01*
X100324970Y-66040151D01*
X100497892Y-66117142D01*
X100497897Y-66117144D01*
X100683054Y-66156500D01*
X100683055Y-66156500D01*
X100872344Y-66156500D01*
X100872346Y-66156500D01*
X101057503Y-66117144D01*
X101230430Y-66040151D01*
X101383571Y-65928888D01*
X101510233Y-65788216D01*
X101604879Y-65624284D01*
X101663374Y-65444256D01*
X101683160Y-65256000D01*
X101663374Y-65067744D01*
X101604879Y-64887716D01*
X101510233Y-64723784D01*
X101419927Y-64623489D01*
X101414824Y-64617821D01*
X101384594Y-64554829D01*
X101393219Y-64485494D01*
X101401981Y-64468876D01*
X101493595Y-64323075D01*
X101495494Y-64324268D01*
X101535163Y-64280336D01*
X101600056Y-64262000D01*
X102495344Y-64262000D01*
X102562383Y-64281685D01*
X102600000Y-64324210D01*
X102601806Y-64323076D01*
X102699686Y-64478850D01*
X102707672Y-64486836D01*
X102741157Y-64548159D01*
X102736173Y-64617851D01*
X102712141Y-64657489D01*
X102625840Y-64753336D01*
X102536450Y-64908164D01*
X102536447Y-64908170D01*
X102481204Y-65078192D01*
X102481203Y-65078194D01*
X102462515Y-65256000D01*
X102481203Y-65433805D01*
X102481204Y-65433807D01*
X102536447Y-65603829D01*
X102536450Y-65603835D01*
X102625841Y-65758665D01*
X102652447Y-65788214D01*
X102745464Y-65891521D01*
X102745467Y-65891523D01*
X102745470Y-65891526D01*
X102890107Y-65996612D01*
X103053433Y-66069329D01*
X103228309Y-66106500D01*
X103228310Y-66106500D01*
X103407089Y-66106500D01*
X103407091Y-66106500D01*
X103581967Y-66069329D01*
X103745293Y-65996612D01*
X103889930Y-65891526D01*
X103901020Y-65879210D01*
X103932639Y-65844093D01*
X104009559Y-65758665D01*
X104094724Y-65611153D01*
X104145290Y-65562939D01*
X104213897Y-65549715D01*
X104278762Y-65575683D01*
X104289792Y-65585473D01*
X105264746Y-66560427D01*
X105321373Y-66617054D01*
X105395359Y-66647700D01*
X105395361Y-66647700D01*
X106573639Y-66647700D01*
X106573641Y-66647700D01*
X106573642Y-66647699D01*
X106585620Y-66645317D01*
X106585922Y-66646837D01*
X106613757Y-66641300D01*
X106615057Y-66641300D01*
X106682096Y-66660985D01*
X106702738Y-66677619D01*
X108296581Y-68271462D01*
X108330066Y-68332785D01*
X108332900Y-68359143D01*
X108332900Y-71264656D01*
X108313215Y-71331695D01*
X108296581Y-71352337D01*
X108209317Y-71439601D01*
X108147994Y-71473086D01*
X108078302Y-71468102D01*
X108033955Y-71439601D01*
X107903774Y-71309420D01*
X107903772Y-71309417D01*
X107903772Y-71309418D01*
X107886806Y-71292451D01*
X107869369Y-71275013D01*
X107869362Y-71275008D01*
X107853885Y-71259531D01*
X107853881Y-71259528D01*
X107853878Y-71259525D01*
X107773225Y-71212960D01*
X107683267Y-71188856D01*
X107590137Y-71188856D01*
X107500179Y-71212960D01*
X107500176Y-71212961D01*
X107419530Y-71259522D01*
X107419507Y-71259539D01*
X107385097Y-71293951D01*
X107385086Y-71293962D01*
X107354026Y-71325014D01*
X107353746Y-71325379D01*
X107307164Y-71406021D01*
X107307163Y-71406024D01*
X107283044Y-71495960D01*
X107283044Y-71495966D01*
X107283023Y-71589085D01*
X107283023Y-71589086D01*
X107307108Y-71679043D01*
X107353654Y-71759701D01*
X107353696Y-71759756D01*
X107386551Y-71792611D01*
X107386563Y-71792634D01*
X107386569Y-71792629D01*
X107386570Y-71792630D01*
X107414877Y-71820949D01*
X107423733Y-71829808D01*
X107423813Y-71829873D01*
X107533748Y-71939808D01*
X107567233Y-72001131D01*
X107562249Y-72070823D01*
X107533748Y-72115170D01*
X107219863Y-72429054D01*
X107158540Y-72462539D01*
X107121558Y-72463597D01*
X107121558Y-72463691D01*
X107118279Y-72463691D01*
X107112792Y-72463848D01*
X107111800Y-72463691D01*
X107111797Y-72463691D01*
X107001141Y-72481216D01*
X107001139Y-72481217D01*
X106968638Y-72497777D01*
X106899969Y-72510672D01*
X106835229Y-72484394D01*
X106824664Y-72474972D01*
X106781762Y-72432070D01*
X106781761Y-72432069D01*
X106677939Y-72372128D01*
X106562141Y-72341100D01*
X106562139Y-72341100D01*
X105596354Y-72341100D01*
X105529315Y-72321415D01*
X105508673Y-72304781D01*
X105393331Y-72189439D01*
X105308561Y-72104669D01*
X105308560Y-72104668D01*
X105304230Y-72100338D01*
X105304219Y-72100328D01*
X104751619Y-71547728D01*
X104718134Y-71486405D01*
X104715300Y-71460047D01*
X104715300Y-71090107D01*
X104734985Y-71023068D01*
X104787789Y-70977313D01*
X104856947Y-70967369D01*
X104920503Y-70996394D01*
X104926981Y-71002426D01*
X105009506Y-71084951D01*
X105009508Y-71084952D01*
X105009509Y-71084953D01*
X105109338Y-71135819D01*
X105109339Y-71135819D01*
X105109341Y-71135820D01*
X105219997Y-71153346D01*
X105220000Y-71153346D01*
X105220003Y-71153346D01*
X105330658Y-71135820D01*
X105330659Y-71135820D01*
X105330660Y-71135819D01*
X105330662Y-71135819D01*
X105430491Y-71084953D01*
X105509716Y-71005728D01*
X105560582Y-70905899D01*
X105560582Y-70905897D01*
X105560583Y-70905896D01*
X105560583Y-70905895D01*
X105578109Y-70795240D01*
X105578109Y-70795233D01*
X105560583Y-70684578D01*
X105560583Y-70684577D01*
X105527976Y-70620583D01*
X105509716Y-70584746D01*
X105509715Y-70584745D01*
X105509714Y-70584743D01*
X105430493Y-70505522D01*
X105330658Y-70454653D01*
X105220003Y-70437128D01*
X105220001Y-70437128D01*
X105220000Y-70437128D01*
X105180419Y-70443397D01*
X105111125Y-70434441D01*
X105057674Y-70389444D01*
X105037035Y-70322692D01*
X105048911Y-70280003D01*
X106211891Y-70280003D01*
X106229416Y-70390658D01*
X106229416Y-70390659D01*
X106280285Y-70490493D01*
X106359506Y-70569714D01*
X106359508Y-70569715D01*
X106359509Y-70569716D01*
X106459338Y-70620582D01*
X106459339Y-70620582D01*
X106459341Y-70620583D01*
X106569997Y-70638109D01*
X106570000Y-70638109D01*
X106570003Y-70638109D01*
X106680658Y-70620583D01*
X106680659Y-70620583D01*
X106680660Y-70620582D01*
X106680662Y-70620582D01*
X106780491Y-70569716D01*
X106859716Y-70490491D01*
X106910582Y-70390662D01*
X106910582Y-70390660D01*
X106910583Y-70390659D01*
X106910583Y-70390658D01*
X106928109Y-70280003D01*
X106928109Y-70279996D01*
X106910583Y-70169341D01*
X106910583Y-70169340D01*
X106910582Y-70169338D01*
X106859716Y-70069509D01*
X106859715Y-70069508D01*
X106859714Y-70069506D01*
X106780493Y-69990285D01*
X106680658Y-69939416D01*
X106570003Y-69921891D01*
X106569997Y-69921891D01*
X106459341Y-69939416D01*
X106459340Y-69939416D01*
X106359506Y-69990285D01*
X106280285Y-70069506D01*
X106229416Y-70169340D01*
X106229416Y-70169341D01*
X106211891Y-70279996D01*
X106211891Y-70280003D01*
X105048911Y-70280003D01*
X105055761Y-70255379D01*
X105104727Y-70210438D01*
X105140491Y-70192216D01*
X105219716Y-70112991D01*
X105270582Y-70013162D01*
X105270583Y-70013154D01*
X105273598Y-70003879D01*
X105277289Y-70005078D01*
X105299000Y-69959173D01*
X105354239Y-69924706D01*
X105353879Y-69923598D01*
X105363154Y-69920583D01*
X105363162Y-69920582D01*
X105462991Y-69869716D01*
X105542216Y-69790491D01*
X105593082Y-69690662D01*
X105593082Y-69690660D01*
X105593083Y-69690659D01*
X105593083Y-69690658D01*
X105610609Y-69580003D01*
X105610609Y-69579996D01*
X105593083Y-69469341D01*
X105593083Y-69469340D01*
X105550292Y-69385359D01*
X105542216Y-69369509D01*
X105542215Y-69369508D01*
X105542214Y-69369506D01*
X105462993Y-69290285D01*
X105363158Y-69239416D01*
X105252503Y-69221891D01*
X105252497Y-69221891D01*
X105141841Y-69239416D01*
X105141840Y-69239416D01*
X105042006Y-69290285D01*
X104962785Y-69369506D01*
X104949785Y-69395021D01*
X104901810Y-69445817D01*
X104833989Y-69462612D01*
X104767854Y-69440074D01*
X104724403Y-69385359D01*
X104715300Y-69338726D01*
X104715300Y-68014153D01*
X104734985Y-67947114D01*
X104751619Y-67926472D01*
X104901833Y-67776258D01*
X105139330Y-67538761D01*
X105199272Y-67434939D01*
X105230300Y-67319141D01*
X105230300Y-67199259D01*
X105199272Y-67083461D01*
X105139330Y-66979639D01*
X105054561Y-66894870D01*
X104950739Y-66834928D01*
X104834941Y-66803900D01*
X104715059Y-66803900D01*
X104599261Y-66834928D01*
X104599259Y-66834928D01*
X104599259Y-66834929D01*
X104495439Y-66894870D01*
X104495436Y-66894872D01*
X103980441Y-67409867D01*
X103895670Y-67494637D01*
X103895668Y-67494640D01*
X103835728Y-67598460D01*
X103835728Y-67598461D01*
X103804700Y-67714259D01*
X103804700Y-71759941D01*
X103826152Y-71840000D01*
X103835728Y-71875739D01*
X103895668Y-71979559D01*
X103895670Y-71979562D01*
X103987504Y-72071396D01*
X103987510Y-72071401D01*
X104537381Y-72621272D01*
X104570866Y-72682595D01*
X104573700Y-72708953D01*
X104573700Y-73343846D01*
X104554015Y-73410885D01*
X104537381Y-73431527D01*
X104140128Y-73828781D01*
X104078805Y-73862266D01*
X104052447Y-73865100D01*
X103749941Y-73865100D01*
X103424841Y-73865100D01*
X103304958Y-73865100D01*
X103189160Y-73896128D01*
X103174038Y-73904859D01*
X103135737Y-73926972D01*
X103085340Y-73956068D01*
X103085337Y-73956070D01*
X103072627Y-73968781D01*
X103011304Y-74002266D01*
X102984946Y-74005100D01*
X102600059Y-74005100D01*
X102522860Y-74025785D01*
X102484260Y-74036128D01*
X102380440Y-74096068D01*
X102380437Y-74096070D01*
X102295670Y-74180837D01*
X102295668Y-74180840D01*
X102235728Y-74284660D01*
X102235728Y-74284661D01*
X102204700Y-74400459D01*
X102204700Y-74400461D01*
X102204700Y-74445082D01*
X102185015Y-74512121D01*
X102132211Y-74557876D01*
X102120536Y-74562422D01*
X102020172Y-74613560D01*
X101940951Y-74692781D01*
X101890082Y-74792615D01*
X101890082Y-74792616D01*
X101872557Y-74903271D01*
X101872557Y-74913034D01*
X101870733Y-74913034D01*
X101864262Y-74967702D01*
X101855879Y-74987942D01*
X101855878Y-74987947D01*
X101838507Y-75029882D01*
X101838507Y-77264055D01*
X101838508Y-77264060D01*
X101872224Y-77345462D01*
X103114535Y-78587773D01*
X103114534Y-78587773D01*
X103123093Y-78591317D01*
X103142294Y-78599271D01*
X103151391Y-78603039D01*
X103205794Y-78646879D01*
X103227859Y-78713173D01*
X103210580Y-78780872D01*
X103159444Y-78828483D01*
X103103938Y-78841600D01*
X102692205Y-78841600D01*
X102692200Y-78841600D01*
X102642162Y-78844040D01*
X102642161Y-78844040D01*
X102549701Y-78882339D01*
X102478939Y-78953101D01*
X102443136Y-79039537D01*
X102440640Y-79045562D01*
X102438200Y-79095600D01*
X102440640Y-79145638D01*
X102478938Y-79238097D01*
X102549703Y-79308862D01*
X102642162Y-79347160D01*
X102692200Y-79349600D01*
X103454184Y-79349600D01*
X103454200Y-79349600D01*
X103504238Y-79347160D01*
X103596697Y-79308862D01*
X103667462Y-79238097D01*
X103705760Y-79145638D01*
X103708200Y-79095600D01*
X103705760Y-79045562D01*
X103667462Y-78953103D01*
X103667456Y-78953097D01*
X103665928Y-78950809D01*
X103664122Y-78945042D01*
X103662788Y-78941821D01*
X103663076Y-78941701D01*
X103645050Y-78884131D01*
X103663534Y-78816751D01*
X103715512Y-78770061D01*
X103770241Y-78761191D01*
X103770241Y-78758109D01*
X103780003Y-78758109D01*
X103890658Y-78740583D01*
X103890659Y-78740583D01*
X103890660Y-78740582D01*
X103890662Y-78740582D01*
X103990491Y-78689716D01*
X104055083Y-78625123D01*
X104116404Y-78591640D01*
X104186096Y-78596624D01*
X104230444Y-78625125D01*
X104765981Y-79160662D01*
X104799466Y-79221985D01*
X104802300Y-79248343D01*
X104802300Y-79304130D01*
X104782615Y-79371169D01*
X104765981Y-79391811D01*
X104713885Y-79443906D01*
X104686307Y-79498031D01*
X104666726Y-79536462D01*
X104658588Y-79552433D01*
X104655283Y-79550749D01*
X104626218Y-79593228D01*
X104567152Y-79619684D01*
X104496647Y-79630850D01*
X104396813Y-79681719D01*
X104344720Y-79733814D01*
X104283397Y-79767300D01*
X104257038Y-79770134D01*
X103804060Y-79770134D01*
X103752047Y-79756194D01*
X103751230Y-79758031D01*
X103670314Y-79722005D01*
X103581967Y-79682671D01*
X103581965Y-79682670D01*
X103448962Y-79654400D01*
X103407091Y-79645500D01*
X103228309Y-79645500D01*
X103197654Y-79652015D01*
X103053433Y-79682670D01*
X103053428Y-79682672D01*
X102890108Y-79755387D01*
X102745468Y-79860475D01*
X102625840Y-79993336D01*
X102536450Y-80148164D01*
X102536447Y-80148170D01*
X102481204Y-80318192D01*
X102481203Y-80318194D01*
X102462515Y-80496000D01*
X102481203Y-80673805D01*
X102481204Y-80673807D01*
X102536447Y-80843829D01*
X102536450Y-80843835D01*
X102625841Y-80998665D01*
X102652448Y-81028215D01*
X102712140Y-81094510D01*
X102742370Y-81157502D01*
X102733745Y-81226837D01*
X102707675Y-81265160D01*
X102699687Y-81273148D01*
X102605512Y-81423024D01*
X102602913Y-81430452D01*
X102595738Y-81450955D01*
X102555018Y-81507730D01*
X102490065Y-81533478D01*
X102478698Y-81534000D01*
X101981562Y-81534000D01*
X101914523Y-81514315D01*
X101893881Y-81497681D01*
X101554886Y-81158686D01*
X101521401Y-81097363D01*
X101526385Y-81027671D01*
X101535180Y-81009005D01*
X101541151Y-80998663D01*
X101615902Y-80869191D01*
X101675176Y-80686764D01*
X101695226Y-80496000D01*
X101675176Y-80305236D01*
X101628766Y-80162400D01*
X101615904Y-80122814D01*
X101615901Y-80122808D01*
X101611242Y-80114738D01*
X101519994Y-79956692D01*
X101453754Y-79883125D01*
X101423525Y-79820134D01*
X101421906Y-79800201D01*
X101420000Y-71840000D01*
X101420000Y-71839999D01*
X98423603Y-71830396D01*
X98356627Y-71810497D01*
X98311041Y-71757547D01*
X98300000Y-71706397D01*
X98300000Y-71600019D01*
X98299815Y-71002426D01*
X98298470Y-66649600D01*
X102438200Y-66649600D01*
X102440640Y-66699638D01*
X102478938Y-66792097D01*
X102549703Y-66862862D01*
X102642162Y-66901160D01*
X102692200Y-66903600D01*
X103454184Y-66903600D01*
X103454200Y-66903600D01*
X103504238Y-66901160D01*
X103596697Y-66862862D01*
X103667462Y-66792097D01*
X103705760Y-66699638D01*
X103708200Y-66649600D01*
X103705760Y-66599562D01*
X103667462Y-66507103D01*
X103596697Y-66436338D01*
X103504238Y-66398040D01*
X103454200Y-66395600D01*
X103454194Y-66395600D01*
X102692205Y-66395600D01*
X102692200Y-66395600D01*
X102642162Y-66398040D01*
X102642161Y-66398040D01*
X102549701Y-66436339D01*
X102478939Y-66507101D01*
X102453110Y-66569458D01*
X102440640Y-66599562D01*
X102438200Y-66649600D01*
X98298470Y-66649600D01*
X98298015Y-65176981D01*
X98317679Y-65109939D01*
X98334329Y-65089270D01*
X99125281Y-64298319D01*
X99186604Y-64264834D01*
X99212962Y-64262000D01*
X99955344Y-64262000D01*
X100022383Y-64281685D01*
G37*
%TD.AperFunction*%
%TA.AperFunction,Conductor*%
G36*
X112722383Y-64281685D02*
G01*
X112760000Y-64324210D01*
X112761806Y-64323076D01*
X112859686Y-64478850D01*
X112867672Y-64486836D01*
X112901157Y-64548159D01*
X112896173Y-64617851D01*
X112872141Y-64657489D01*
X112785840Y-64753336D01*
X112696450Y-64908164D01*
X112696447Y-64908170D01*
X112641204Y-65078192D01*
X112641203Y-65078194D01*
X112622515Y-65256000D01*
X112641203Y-65433805D01*
X112641204Y-65433807D01*
X112696447Y-65603829D01*
X112696450Y-65603835D01*
X112785841Y-65758665D01*
X112812447Y-65788214D01*
X112905464Y-65891521D01*
X112905467Y-65891523D01*
X112905470Y-65891526D01*
X113050107Y-65996612D01*
X113213433Y-66069329D01*
X113388309Y-66106500D01*
X113388310Y-66106500D01*
X113567089Y-66106500D01*
X113567091Y-66106500D01*
X113741967Y-66069329D01*
X113905293Y-65996612D01*
X114049930Y-65891526D01*
X114061020Y-65879210D01*
X114092639Y-65844093D01*
X114169559Y-65758665D01*
X114258950Y-65603835D01*
X114314197Y-65433803D01*
X114332885Y-65256000D01*
X114314197Y-65078197D01*
X114266213Y-64930517D01*
X114258952Y-64908170D01*
X114258949Y-64908164D01*
X114247147Y-64887722D01*
X114169559Y-64753335D01*
X114083259Y-64657489D01*
X114053029Y-64594498D01*
X114061654Y-64525162D01*
X114087729Y-64486834D01*
X114095714Y-64478850D01*
X114189889Y-64328972D01*
X114189888Y-64328972D01*
X114193594Y-64323076D01*
X114195493Y-64324269D01*
X114235163Y-64280336D01*
X114300056Y-64262000D01*
X115195344Y-64262000D01*
X115262383Y-64281685D01*
X115300000Y-64324210D01*
X115301806Y-64323076D01*
X115394022Y-64469837D01*
X115413022Y-64537074D01*
X115392654Y-64603909D01*
X115376709Y-64623490D01*
X115150801Y-64849398D01*
X115150800Y-64849400D01*
X115125933Y-64886617D01*
X115125931Y-64886622D01*
X115117199Y-64930517D01*
X115117199Y-65275491D01*
X115117199Y-65581487D01*
X115125931Y-65625383D01*
X115147920Y-65658292D01*
X115150800Y-65662601D01*
X115150802Y-65662603D01*
X115411514Y-65923314D01*
X115611100Y-66122900D01*
X115648318Y-66147767D01*
X115648320Y-66147767D01*
X115648322Y-66147768D01*
X115692217Y-66156500D01*
X115692220Y-66156500D01*
X116343187Y-66156501D01*
X116387083Y-66147769D01*
X116424297Y-66122903D01*
X116884600Y-65662600D01*
X116884609Y-65662585D01*
X116886722Y-65660012D01*
X116888184Y-65659015D01*
X116888908Y-65658292D01*
X116889045Y-65658429D01*
X116944463Y-65620671D01*
X117014307Y-65618791D01*
X117074080Y-65654971D01*
X117104804Y-65717723D01*
X117105058Y-65719265D01*
X117109017Y-65744259D01*
X117109017Y-65744260D01*
X117109018Y-65744262D01*
X117131414Y-65788216D01*
X117159885Y-65844093D01*
X117239106Y-65923314D01*
X117239108Y-65923315D01*
X117239109Y-65923316D01*
X117338938Y-65974182D01*
X117338939Y-65974182D01*
X117338941Y-65974183D01*
X117449597Y-65991709D01*
X117449600Y-65991709D01*
X117449603Y-65991709D01*
X117560258Y-65974183D01*
X117560259Y-65974183D01*
X117560260Y-65974182D01*
X117560262Y-65974182D01*
X117660091Y-65923316D01*
X117739316Y-65844091D01*
X117790182Y-65744262D01*
X117790182Y-65744260D01*
X117790183Y-65744259D01*
X117790183Y-65744258D01*
X117807709Y-65633603D01*
X117807709Y-65633596D01*
X117790183Y-65522941D01*
X117790183Y-65522940D01*
X117775738Y-65494591D01*
X117739316Y-65423109D01*
X117739315Y-65423108D01*
X117739314Y-65423106D01*
X117660093Y-65343885D01*
X117560258Y-65293016D01*
X117449603Y-65275491D01*
X117449597Y-65275491D01*
X117338941Y-65293016D01*
X117338940Y-65293016D01*
X117239106Y-65343885D01*
X117159884Y-65423107D01*
X117152684Y-65437239D01*
X117104708Y-65488034D01*
X117036887Y-65504828D01*
X116970752Y-65482289D01*
X116927302Y-65427573D01*
X116918200Y-65380942D01*
X116918200Y-65256000D01*
X116918201Y-64930513D01*
X116909469Y-64886617D01*
X116884603Y-64849403D01*
X116884600Y-64849400D01*
X116884599Y-64849398D01*
X116658690Y-64623489D01*
X116625205Y-64562166D01*
X116630189Y-64492474D01*
X116641377Y-64469837D01*
X116682455Y-64404461D01*
X116733595Y-64323075D01*
X116735494Y-64324268D01*
X116775163Y-64280336D01*
X116840056Y-64262000D01*
X117576038Y-64262000D01*
X117643077Y-64281685D01*
X117663719Y-64298319D01*
X118607081Y-65241681D01*
X118640566Y-65303004D01*
X118643400Y-65329362D01*
X118643400Y-80288838D01*
X118623715Y-80355877D01*
X118607081Y-80376519D01*
X117485919Y-81497681D01*
X117424596Y-81531166D01*
X117398238Y-81534000D01*
X116856702Y-81534000D01*
X116789663Y-81514315D01*
X116743908Y-81461511D01*
X116739665Y-81450966D01*
X116729889Y-81423028D01*
X116641979Y-81283121D01*
X116622979Y-81215886D01*
X116643346Y-81149051D01*
X116654817Y-81134184D01*
X116750233Y-81028216D01*
X116844879Y-80864284D01*
X116903374Y-80684256D01*
X116923160Y-80496000D01*
X116903374Y-80307744D01*
X116864403Y-80187803D01*
X117142291Y-80187803D01*
X117159816Y-80298458D01*
X117159816Y-80298459D01*
X117210685Y-80398293D01*
X117289906Y-80477514D01*
X117289908Y-80477515D01*
X117289909Y-80477516D01*
X117389738Y-80528382D01*
X117389739Y-80528382D01*
X117389741Y-80528383D01*
X117500397Y-80545909D01*
X117500400Y-80545909D01*
X117500403Y-80545909D01*
X117611058Y-80528383D01*
X117611059Y-80528383D01*
X117611060Y-80528382D01*
X117611062Y-80528382D01*
X117710891Y-80477516D01*
X117790116Y-80398291D01*
X117840982Y-80298462D01*
X117840982Y-80298460D01*
X117840983Y-80298459D01*
X117840983Y-80298458D01*
X117858509Y-80187803D01*
X117858509Y-80187796D01*
X117840983Y-80077141D01*
X117840983Y-80077140D01*
X117813819Y-80023829D01*
X117790116Y-79977309D01*
X117790115Y-79977308D01*
X117790114Y-79977306D01*
X117710893Y-79898085D01*
X117611058Y-79847216D01*
X117500403Y-79829691D01*
X117500397Y-79829691D01*
X117389741Y-79847216D01*
X117389740Y-79847216D01*
X117289906Y-79898085D01*
X117210685Y-79977306D01*
X117159816Y-80077140D01*
X117159816Y-80077141D01*
X117142291Y-80187796D01*
X117142291Y-80187803D01*
X116864403Y-80187803D01*
X116844879Y-80127716D01*
X116750233Y-79963784D01*
X116623571Y-79823112D01*
X116623570Y-79823111D01*
X116470434Y-79711851D01*
X116470429Y-79711848D01*
X116297507Y-79634857D01*
X116297502Y-79634855D01*
X116151701Y-79603865D01*
X116112346Y-79595500D01*
X115923054Y-79595500D01*
X115890597Y-79602398D01*
X115737897Y-79634855D01*
X115737892Y-79634857D01*
X115564970Y-79711848D01*
X115564965Y-79711851D01*
X115411829Y-79823111D01*
X115285166Y-79963785D01*
X115190521Y-80127715D01*
X115190518Y-80127722D01*
X115135043Y-80298458D01*
X115132026Y-80307744D01*
X115112240Y-80496000D01*
X115132026Y-80684256D01*
X115132027Y-80684259D01*
X115190518Y-80864277D01*
X115190521Y-80864284D01*
X115285167Y-81028216D01*
X115378188Y-81131526D01*
X115380576Y-81134178D01*
X115410806Y-81197169D01*
X115402181Y-81266504D01*
X115393420Y-81283122D01*
X115305512Y-81423024D01*
X115302913Y-81430452D01*
X115295738Y-81450955D01*
X115255018Y-81507730D01*
X115190065Y-81533478D01*
X115178698Y-81534000D01*
X114291806Y-81534000D01*
X114224767Y-81514315D01*
X114179012Y-81461511D01*
X114174764Y-81450952D01*
X114168584Y-81433290D01*
X114168581Y-81433285D01*
X114166801Y-81430451D01*
X114063252Y-81534000D01*
X113740675Y-81534000D01*
X113692605Y-81485930D01*
X113612795Y-81439852D01*
X113523778Y-81416000D01*
X113431622Y-81416000D01*
X113342605Y-81439852D01*
X113262795Y-81485930D01*
X113214725Y-81534000D01*
X112892146Y-81534000D01*
X112788598Y-81430452D01*
X112788597Y-81430452D01*
X112786817Y-81433287D01*
X112780636Y-81450954D01*
X112739914Y-81507730D01*
X112674962Y-81533478D01*
X112663594Y-81534000D01*
X111776702Y-81534000D01*
X111709663Y-81514315D01*
X111663908Y-81461511D01*
X111659665Y-81450966D01*
X111649889Y-81423028D01*
X111561979Y-81283121D01*
X111542979Y-81215886D01*
X111563346Y-81149051D01*
X111574817Y-81134184D01*
X111670233Y-81028216D01*
X111764879Y-80864284D01*
X111823374Y-80684256D01*
X111843160Y-80496000D01*
X111823374Y-80307744D01*
X111782493Y-80181925D01*
X111772064Y-80149828D01*
X111770069Y-80079987D01*
X111802312Y-80023831D01*
X112086525Y-79739619D01*
X112147848Y-79706134D01*
X112174206Y-79703300D01*
X112987191Y-79703300D01*
X113054230Y-79722985D01*
X113074872Y-79739619D01*
X113348290Y-80013037D01*
X113284707Y-80030075D01*
X113170693Y-80095901D01*
X113077601Y-80188993D01*
X113011775Y-80303007D01*
X112994737Y-80366591D01*
X112742883Y-80114737D01*
X112742883Y-80114738D01*
X112718038Y-80157773D01*
X112664316Y-80323108D01*
X112646145Y-80496000D01*
X112664317Y-80668893D01*
X112718037Y-80834225D01*
X112742883Y-80877260D01*
X112742884Y-80877261D01*
X112994737Y-80625408D01*
X113011775Y-80688993D01*
X113077601Y-80803007D01*
X113170693Y-80896099D01*
X113284707Y-80961925D01*
X113348289Y-80978962D01*
X113196253Y-81130998D01*
X113196253Y-81130999D01*
X113477700Y-81412446D01*
X113477701Y-81412446D01*
X113759146Y-81130999D01*
X113759146Y-81130998D01*
X113607110Y-80978962D01*
X113670693Y-80961925D01*
X113784707Y-80896099D01*
X113877799Y-80803007D01*
X113943625Y-80688993D01*
X113960662Y-80625409D01*
X114212514Y-80877261D01*
X114212515Y-80877261D01*
X114237363Y-80834224D01*
X114291082Y-80668893D01*
X114309254Y-80496000D01*
X114291082Y-80323106D01*
X114237365Y-80157782D01*
X114237362Y-80157775D01*
X114212514Y-80114738D01*
X113960662Y-80366589D01*
X113943625Y-80303007D01*
X113877799Y-80188993D01*
X113784707Y-80095901D01*
X113670693Y-80030075D01*
X113607108Y-80013037D01*
X113875870Y-79744276D01*
X113876067Y-79742363D01*
X113919648Y-79687751D01*
X113928843Y-79681887D01*
X113987789Y-79647856D01*
X114266916Y-79368727D01*
X114328234Y-79335246D01*
X114397926Y-79340230D01*
X114453860Y-79382101D01*
X114477066Y-79437014D01*
X114492816Y-79536458D01*
X114492816Y-79536459D01*
X114543685Y-79636293D01*
X114622906Y-79715514D01*
X114622908Y-79715515D01*
X114622909Y-79715516D01*
X114722738Y-79766382D01*
X114722739Y-79766382D01*
X114722741Y-79766383D01*
X114833397Y-79783909D01*
X114833400Y-79783909D01*
X114833403Y-79783909D01*
X114944058Y-79766383D01*
X114944059Y-79766383D01*
X114944060Y-79766382D01*
X114944062Y-79766382D01*
X115043891Y-79715516D01*
X115123116Y-79636291D01*
X115173982Y-79536462D01*
X115173982Y-79536460D01*
X115173983Y-79536459D01*
X115173983Y-79536458D01*
X115191509Y-79425803D01*
X115191509Y-79425796D01*
X115173983Y-79315141D01*
X115173983Y-79315140D01*
X115139691Y-79247839D01*
X115123116Y-79215309D01*
X115123115Y-79215308D01*
X115123114Y-79215306D01*
X115043893Y-79136085D01*
X114944059Y-79085216D01*
X114844614Y-79069466D01*
X114781479Y-79039537D01*
X114744548Y-78980225D01*
X114745546Y-78910362D01*
X114776329Y-78859314D01*
X115628579Y-78007063D01*
X115628584Y-78007060D01*
X115638787Y-77996856D01*
X115638789Y-77996856D01*
X115690456Y-77945189D01*
X115726989Y-77881911D01*
X115726989Y-77881908D01*
X115726991Y-77881906D01*
X115728331Y-77876904D01*
X115740124Y-77832893D01*
X115745901Y-77811334D01*
X115745901Y-77738266D01*
X115745901Y-77730671D01*
X115745900Y-77730653D01*
X115745900Y-72486278D01*
X115745901Y-72486265D01*
X115745901Y-72403209D01*
X115745900Y-72403205D01*
X115726991Y-72332637D01*
X115726989Y-72332634D01*
X115726989Y-72332631D01*
X115690456Y-72269353D01*
X114131484Y-70710381D01*
X114097999Y-70649058D01*
X114102983Y-70579366D01*
X114144855Y-70523433D01*
X114210319Y-70499016D01*
X114219165Y-70498700D01*
X114296394Y-70498700D01*
X114296397Y-70498700D01*
X114421961Y-70465055D01*
X114534539Y-70400058D01*
X114626458Y-70308139D01*
X114691455Y-70195561D01*
X114725100Y-70069997D01*
X114725100Y-69940003D01*
X114691455Y-69814439D01*
X114678447Y-69791909D01*
X114626460Y-69701864D01*
X114626455Y-69701858D01*
X114534541Y-69609944D01*
X114534535Y-69609939D01*
X114421964Y-69544946D01*
X114421965Y-69544946D01*
X114411668Y-69542187D01*
X114296397Y-69511300D01*
X114166403Y-69511300D01*
X114051131Y-69542187D01*
X114040835Y-69544946D01*
X113928264Y-69609939D01*
X113928258Y-69609944D01*
X113836344Y-69701858D01*
X113836339Y-69701864D01*
X113771346Y-69814435D01*
X113771345Y-69814439D01*
X113737700Y-69940003D01*
X113737700Y-69940005D01*
X113737700Y-70017235D01*
X113718015Y-70084274D01*
X113665211Y-70130029D01*
X113596053Y-70139973D01*
X113532497Y-70110948D01*
X113526019Y-70104916D01*
X112752155Y-69331052D01*
X112718670Y-69269729D01*
X112719580Y-69256999D01*
X113357953Y-69256999D01*
X113357954Y-69257000D01*
X114004846Y-69257000D01*
X114004846Y-69256999D01*
X113681401Y-68933553D01*
X113681399Y-68933553D01*
X113357953Y-69256999D01*
X112719580Y-69256999D01*
X112723654Y-69200037D01*
X112752155Y-69155690D01*
X113127846Y-68780000D01*
X113139786Y-68791940D01*
X113231672Y-68830000D01*
X114131128Y-68830000D01*
X114223014Y-68791940D01*
X114234953Y-68780001D01*
X114601726Y-69146774D01*
X114601727Y-69146774D01*
X114662967Y-69105856D01*
X114757260Y-69011563D01*
X114831351Y-68900678D01*
X114882382Y-68777476D01*
X114882385Y-68777466D01*
X114908399Y-68646683D01*
X114908400Y-68646680D01*
X114908400Y-68513320D01*
X114908399Y-68513316D01*
X114882385Y-68382533D01*
X114882382Y-68382523D01*
X114831351Y-68259321D01*
X114757260Y-68148436D01*
X114662966Y-68054142D01*
X114662962Y-68054139D01*
X114601728Y-68013224D01*
X114601727Y-68013224D01*
X114234952Y-68379998D01*
X114223014Y-68368060D01*
X114131128Y-68330000D01*
X113231672Y-68330000D01*
X113139786Y-68368060D01*
X113127846Y-68379999D01*
X112818208Y-68070361D01*
X112784723Y-68009038D01*
X112789707Y-67939346D01*
X112813065Y-67903000D01*
X113357953Y-67903000D01*
X113681400Y-68226446D01*
X114004846Y-67903000D01*
X113357953Y-67903000D01*
X112813065Y-67903000D01*
X112818207Y-67894999D01*
X112837116Y-67876091D01*
X112887982Y-67776262D01*
X112887982Y-67776260D01*
X112887983Y-67776259D01*
X112887983Y-67776258D01*
X112905509Y-67665603D01*
X112905509Y-67665596D01*
X112887983Y-67554940D01*
X112884968Y-67545662D01*
X112886301Y-67545228D01*
X112875700Y-67501064D01*
X112875700Y-67393780D01*
X112875700Y-67393778D01*
X112853327Y-67310281D01*
X112844456Y-67294916D01*
X112810106Y-67235419D01*
X112579890Y-67005203D01*
X114627691Y-67005203D01*
X114645216Y-67115858D01*
X114645216Y-67115859D01*
X114696085Y-67215693D01*
X114775306Y-67294914D01*
X114775308Y-67294915D01*
X114775309Y-67294916D01*
X114875138Y-67345782D01*
X114875139Y-67345782D01*
X114875141Y-67345783D01*
X114985797Y-67363309D01*
X114985800Y-67363309D01*
X114985803Y-67363309D01*
X115096458Y-67345783D01*
X115096459Y-67345783D01*
X115096460Y-67345782D01*
X115096462Y-67345782D01*
X115196291Y-67294916D01*
X115275516Y-67215691D01*
X115326382Y-67115862D01*
X115326382Y-67115860D01*
X115326383Y-67115859D01*
X115326383Y-67115858D01*
X115343909Y-67005203D01*
X115343909Y-67005196D01*
X115326383Y-66894541D01*
X115326383Y-66894540D01*
X115275514Y-66794706D01*
X115196293Y-66715485D01*
X115096458Y-66664616D01*
X114985803Y-66647091D01*
X114985797Y-66647091D01*
X114875141Y-66664616D01*
X114875140Y-66664616D01*
X114775306Y-66715485D01*
X114696085Y-66794706D01*
X114645216Y-66894540D01*
X114645216Y-66894541D01*
X114627691Y-67005196D01*
X114627691Y-67005203D01*
X112579890Y-67005203D01*
X111656781Y-66082094D01*
X111656780Y-66082093D01*
X111656777Y-66082091D01*
X111624141Y-66063249D01*
X111575926Y-66012682D01*
X111562702Y-65944075D01*
X111588670Y-65879210D01*
X111593979Y-65872903D01*
X111670233Y-65788216D01*
X111764879Y-65624284D01*
X111823374Y-65444256D01*
X111843160Y-65256000D01*
X111823374Y-65067744D01*
X111764879Y-64887716D01*
X111670233Y-64723784D01*
X111579927Y-64623489D01*
X111574824Y-64617821D01*
X111544594Y-64554829D01*
X111553219Y-64485494D01*
X111561981Y-64468876D01*
X111653595Y-64323075D01*
X111655494Y-64324268D01*
X111695163Y-64280336D01*
X111760056Y-64262000D01*
X112655344Y-64262000D01*
X112722383Y-64281685D01*
G37*
%TD.AperFunction*%
%TA.AperFunction,Conductor*%
G36*
X110242301Y-66624874D02*
G01*
X110251094Y-66629951D01*
X110251098Y-66629952D01*
X110251101Y-66629954D01*
X110287081Y-66650727D01*
X110370578Y-66673100D01*
X110370579Y-66673100D01*
X110457021Y-66673100D01*
X110760306Y-66673100D01*
X110827345Y-66692785D01*
X110873100Y-66745589D01*
X110883044Y-66814747D01*
X110854019Y-66878303D01*
X110795241Y-66916077D01*
X110789765Y-66917309D01*
X110785740Y-66918616D01*
X110685906Y-66969485D01*
X110606685Y-67048706D01*
X110555816Y-67148540D01*
X110555816Y-67148541D01*
X110538291Y-67259196D01*
X110538291Y-67259203D01*
X110555816Y-67369858D01*
X110555816Y-67369859D01*
X110606685Y-67469693D01*
X110685906Y-67548914D01*
X110685908Y-67548915D01*
X110685909Y-67548916D01*
X110785738Y-67599782D01*
X110785739Y-67599782D01*
X110785741Y-67599783D01*
X110896397Y-67617309D01*
X110896400Y-67617309D01*
X110896403Y-67617309D01*
X111007058Y-67599783D01*
X111007059Y-67599783D01*
X111007060Y-67599782D01*
X111007062Y-67599782D01*
X111106891Y-67548916D01*
X111186116Y-67469691D01*
X111236982Y-67369862D01*
X111236982Y-67369860D01*
X111236983Y-67369859D01*
X111236983Y-67369858D01*
X111254509Y-67259203D01*
X111254509Y-67259196D01*
X111236983Y-67148541D01*
X111236983Y-67148540D01*
X111222189Y-67119505D01*
X111186116Y-67048709D01*
X111186115Y-67048708D01*
X111186114Y-67048706D01*
X111106893Y-66969485D01*
X111007059Y-66918616D01*
X110997778Y-66915601D01*
X110998704Y-66912750D01*
X110949961Y-66889643D01*
X110913030Y-66830332D01*
X110914028Y-66760469D01*
X110952638Y-66702237D01*
X111016602Y-66674123D01*
X111032494Y-66673100D01*
X111267851Y-66673100D01*
X111334890Y-66692785D01*
X111355532Y-66709419D01*
X112161353Y-67515240D01*
X112194838Y-67576563D01*
X112196146Y-67622317D01*
X112189291Y-67665602D01*
X112189291Y-67665603D01*
X112206816Y-67776258D01*
X112206816Y-67776259D01*
X112257685Y-67876093D01*
X112336906Y-67955314D01*
X112336908Y-67955315D01*
X112336909Y-67955316D01*
X112436738Y-68006182D01*
X112484019Y-68013670D01*
X112547151Y-68043598D01*
X112584083Y-68102908D01*
X112583087Y-68172771D01*
X112567723Y-68205032D01*
X112531450Y-68259319D01*
X112531449Y-68259321D01*
X112480417Y-68382523D01*
X112480414Y-68382533D01*
X112454400Y-68513316D01*
X112454400Y-68646677D01*
X112470650Y-68728377D01*
X112464421Y-68797969D01*
X112421558Y-68853145D01*
X112355668Y-68876389D01*
X112287671Y-68860320D01*
X112261351Y-68840248D01*
X111448846Y-68027743D01*
X111385569Y-67991211D01*
X111385562Y-67991208D01*
X111314994Y-67972299D01*
X111314992Y-67972299D01*
X111241924Y-67972299D01*
X111234328Y-67972299D01*
X111234312Y-67972300D01*
X111109836Y-67972300D01*
X111053542Y-67958785D01*
X110956262Y-67909218D01*
X110956261Y-67909217D01*
X110956258Y-67909216D01*
X110845603Y-67891691D01*
X110845597Y-67891691D01*
X110734941Y-67909216D01*
X110734940Y-67909216D01*
X110635106Y-67960085D01*
X110555885Y-68039306D01*
X110505016Y-68139140D01*
X110505016Y-68139141D01*
X110487491Y-68249796D01*
X110487491Y-68249803D01*
X110505016Y-68360458D01*
X110505016Y-68360459D01*
X110555885Y-68460293D01*
X110635106Y-68539514D01*
X110635108Y-68539515D01*
X110635109Y-68539516D01*
X110734938Y-68590382D01*
X110734939Y-68590382D01*
X110734941Y-68590383D01*
X110845597Y-68607909D01*
X110845600Y-68607909D01*
X110845603Y-68607909D01*
X110956258Y-68590383D01*
X110956259Y-68590382D01*
X110956262Y-68590382D01*
X111053542Y-68540814D01*
X111109836Y-68527300D01*
X111112151Y-68527300D01*
X111179190Y-68546985D01*
X111199832Y-68563619D01*
X111226521Y-68590308D01*
X111260006Y-68651631D01*
X111255022Y-68721323D01*
X111226522Y-68765670D01*
X111165484Y-68826708D01*
X111114616Y-68926540D01*
X111106249Y-68979371D01*
X111076319Y-69042505D01*
X111017007Y-69079436D01*
X110947145Y-69078438D01*
X110888912Y-69039827D01*
X110883455Y-69032854D01*
X110881317Y-69029911D01*
X110881316Y-69029909D01*
X110881313Y-69029906D01*
X110881311Y-69029903D01*
X110802093Y-68950685D01*
X110702258Y-68899816D01*
X110591603Y-68882291D01*
X110591597Y-68882291D01*
X110480941Y-68899816D01*
X110480940Y-68899816D01*
X110381106Y-68950685D01*
X110301885Y-69029906D01*
X110251016Y-69129740D01*
X110251016Y-69129741D01*
X110233491Y-69240396D01*
X110233491Y-69240403D01*
X110251016Y-69351058D01*
X110251016Y-69351059D01*
X110301885Y-69450893D01*
X110369294Y-69518302D01*
X110373677Y-69526330D01*
X110373681Y-69526331D01*
X110381108Y-69530115D01*
X110381109Y-69530116D01*
X110480938Y-69580982D01*
X110480939Y-69580982D01*
X110480941Y-69580983D01*
X110591597Y-69598509D01*
X110591600Y-69598509D01*
X110591603Y-69598509D01*
X110702258Y-69580983D01*
X110702259Y-69580983D01*
X110702260Y-69580982D01*
X110702262Y-69580982D01*
X110802091Y-69530116D01*
X110881316Y-69450891D01*
X110932182Y-69351062D01*
X110940550Y-69298227D01*
X110970478Y-69235095D01*
X111029790Y-69198163D01*
X111099652Y-69199161D01*
X111157885Y-69237770D01*
X111163343Y-69244744D01*
X111165486Y-69247694D01*
X111244706Y-69326914D01*
X111244708Y-69326915D01*
X111244709Y-69326916D01*
X111344538Y-69377782D01*
X111344539Y-69377782D01*
X111344541Y-69377783D01*
X111455197Y-69395309D01*
X111455200Y-69395309D01*
X111455203Y-69395309D01*
X111565858Y-69377783D01*
X111565859Y-69377783D01*
X111565860Y-69377782D01*
X111565862Y-69377782D01*
X111665691Y-69326916D01*
X111726730Y-69265876D01*
X111788051Y-69232393D01*
X111857743Y-69237377D01*
X111902091Y-69265878D01*
X115154581Y-72518368D01*
X115188066Y-72579691D01*
X115190900Y-72606049D01*
X115190900Y-77608493D01*
X115171215Y-77675532D01*
X115154581Y-77696174D01*
X113738774Y-79111981D01*
X113677451Y-79145466D01*
X113651093Y-79148300D01*
X111971366Y-79148300D01*
X111900789Y-79167211D01*
X111900788Y-79167211D01*
X111837511Y-79203743D01*
X111837509Y-79203745D01*
X111785842Y-79255413D01*
X111408468Y-79632786D01*
X111347145Y-79666271D01*
X111277453Y-79661287D01*
X111270353Y-79658385D01*
X111217507Y-79634857D01*
X111217502Y-79634855D01*
X111071701Y-79603865D01*
X111032346Y-79595500D01*
X110843054Y-79595500D01*
X110775334Y-79609893D01*
X110705669Y-79604577D01*
X110661875Y-79576284D01*
X110340501Y-79254910D01*
X110340499Y-79254907D01*
X110248662Y-79163070D01*
X110248661Y-79163069D01*
X110144839Y-79103128D01*
X110029041Y-79072100D01*
X110029039Y-79072100D01*
X109978256Y-79072100D01*
X109911217Y-79052415D01*
X109865462Y-78999611D01*
X109855518Y-78930453D01*
X109855782Y-78928704D01*
X109857509Y-78917798D01*
X109857509Y-78917796D01*
X109839983Y-78807141D01*
X109839983Y-78807140D01*
X109821090Y-78770061D01*
X109789116Y-78707309D01*
X109789115Y-78707308D01*
X109789114Y-78707306D01*
X109709893Y-78628085D01*
X109610058Y-78577216D01*
X109499403Y-78559691D01*
X109499395Y-78559691D01*
X109498403Y-78559848D01*
X109497189Y-78559691D01*
X109489642Y-78559691D01*
X109489642Y-78558715D01*
X109429110Y-78550887D01*
X109391335Y-78525054D01*
X109384827Y-78518546D01*
X109310842Y-78487900D01*
X109310841Y-78487900D01*
X109280387Y-78487900D01*
X109213348Y-78468215D01*
X109167593Y-78415411D01*
X109157649Y-78346253D01*
X109157914Y-78344502D01*
X109171709Y-78257402D01*
X109171709Y-78257396D01*
X109154183Y-78146741D01*
X109154183Y-78146740D01*
X109139247Y-78117427D01*
X109103316Y-78046909D01*
X109103315Y-78046908D01*
X109103314Y-78046906D01*
X109024092Y-77967684D01*
X108996569Y-77953660D01*
X108945773Y-77905685D01*
X108928979Y-77837864D01*
X108951517Y-77771729D01*
X108965177Y-77755503D01*
X109292492Y-77428188D01*
X109353813Y-77394705D01*
X109423505Y-77399689D01*
X109479438Y-77441561D01*
X109503855Y-77507025D01*
X109502645Y-77535266D01*
X109496891Y-77571599D01*
X109496891Y-77571603D01*
X109514416Y-77682258D01*
X109514416Y-77682259D01*
X109565285Y-77782093D01*
X109644506Y-77861314D01*
X109644508Y-77861315D01*
X109644509Y-77861316D01*
X109744338Y-77912182D01*
X109744339Y-77912182D01*
X109744341Y-77912183D01*
X109854997Y-77929709D01*
X109855000Y-77929709D01*
X109855002Y-77929709D01*
X109942102Y-77915914D01*
X110011396Y-77924869D01*
X110064848Y-77969865D01*
X110085487Y-78036617D01*
X110085500Y-78038387D01*
X110085500Y-78063341D01*
X110116359Y-78178507D01*
X110116528Y-78179139D01*
X110176468Y-78282959D01*
X110176470Y-78282962D01*
X110268304Y-78374796D01*
X110268310Y-78374801D01*
X110286639Y-78393130D01*
X110390461Y-78453072D01*
X110506259Y-78484100D01*
X110506261Y-78484100D01*
X110626138Y-78484100D01*
X110626141Y-78484100D01*
X110741939Y-78453072D01*
X110845761Y-78393130D01*
X110930530Y-78308361D01*
X110990472Y-78204539D01*
X111021500Y-78088741D01*
X111021500Y-77968859D01*
X111000325Y-77889832D01*
X110996100Y-77857739D01*
X110996100Y-77856999D01*
X113357953Y-77856999D01*
X113357954Y-77857000D01*
X114004846Y-77857000D01*
X114004846Y-77856999D01*
X113681401Y-77533553D01*
X113681399Y-77533553D01*
X113357953Y-77856999D01*
X110996100Y-77856999D01*
X110996100Y-77628919D01*
X111015785Y-77561880D01*
X111068589Y-77516125D01*
X111137747Y-77506181D01*
X111139498Y-77506446D01*
X111149998Y-77508109D01*
X111150000Y-77508109D01*
X111150003Y-77508109D01*
X111260658Y-77490583D01*
X111260659Y-77490583D01*
X111260660Y-77490582D01*
X111260662Y-77490582D01*
X111360491Y-77439716D01*
X111439716Y-77360491D01*
X111490582Y-77260662D01*
X111490582Y-77260660D01*
X111490583Y-77260659D01*
X111490583Y-77260658D01*
X111492796Y-77246683D01*
X112454400Y-77246683D01*
X112480414Y-77377466D01*
X112480417Y-77377476D01*
X112531448Y-77500678D01*
X112605539Y-77611563D01*
X112699833Y-77705857D01*
X112699841Y-77705863D01*
X112761069Y-77746775D01*
X112761071Y-77746774D01*
X113127846Y-77380000D01*
X113139786Y-77391940D01*
X113231672Y-77430000D01*
X114131128Y-77430000D01*
X114223014Y-77391940D01*
X114234953Y-77380001D01*
X114601726Y-77746774D01*
X114601727Y-77746774D01*
X114662967Y-77705856D01*
X114757260Y-77611563D01*
X114831351Y-77500678D01*
X114882382Y-77377476D01*
X114882385Y-77377466D01*
X114908399Y-77246683D01*
X114908400Y-77246680D01*
X114908400Y-77113320D01*
X114908399Y-77113316D01*
X114882385Y-76982533D01*
X114882382Y-76982523D01*
X114831351Y-76859321D01*
X114757260Y-76748436D01*
X114662966Y-76654142D01*
X114662962Y-76654139D01*
X114601728Y-76613224D01*
X114601727Y-76613224D01*
X114234952Y-76979998D01*
X114223014Y-76968060D01*
X114131128Y-76930000D01*
X113231672Y-76930000D01*
X113139786Y-76968060D01*
X113127846Y-76979999D01*
X112761071Y-76613224D01*
X112761070Y-76613224D01*
X112699837Y-76654140D01*
X112699830Y-76654146D01*
X112605542Y-76748433D01*
X112605539Y-76748436D01*
X112531448Y-76859321D01*
X112480417Y-76982523D01*
X112480414Y-76982533D01*
X112454400Y-77113316D01*
X112454400Y-77246683D01*
X111492796Y-77246683D01*
X111508109Y-77150003D01*
X111508109Y-77149996D01*
X111490583Y-77039341D01*
X111490583Y-77039340D01*
X111456978Y-76973388D01*
X111439716Y-76939509D01*
X111439715Y-76939508D01*
X111439714Y-76939506D01*
X111360493Y-76860285D01*
X111260658Y-76809416D01*
X111150003Y-76791891D01*
X111149997Y-76791891D01*
X111039341Y-76809416D01*
X111039340Y-76809416D01*
X111020534Y-76818999D01*
X110997036Y-76830972D01*
X110928368Y-76843868D01*
X110863628Y-76817592D01*
X110853061Y-76808168D01*
X110547893Y-76503000D01*
X113357953Y-76503000D01*
X113681400Y-76826446D01*
X114004846Y-76503000D01*
X113357953Y-76503000D01*
X110547893Y-76503000D01*
X110422819Y-76377926D01*
X110389334Y-76316603D01*
X110386500Y-76290245D01*
X110386500Y-76287553D01*
X110406185Y-76220514D01*
X110422819Y-76199872D01*
X110677130Y-75945561D01*
X110937690Y-75685000D01*
X110999011Y-75651517D01*
X111068702Y-75656501D01*
X111124636Y-75698372D01*
X111135851Y-75716384D01*
X111139958Y-75724445D01*
X111140085Y-75724693D01*
X111219306Y-75803914D01*
X111219308Y-75803915D01*
X111219309Y-75803916D01*
X111319138Y-75854782D01*
X111319139Y-75854782D01*
X111319141Y-75854783D01*
X111429797Y-75872309D01*
X111429800Y-75872309D01*
X111429803Y-75872309D01*
X111540458Y-75854783D01*
X111540459Y-75854783D01*
X111540460Y-75854782D01*
X111540462Y-75854782D01*
X111608731Y-75819997D01*
X113737700Y-75819997D01*
X113757204Y-75892786D01*
X113771346Y-75945564D01*
X113836339Y-76058135D01*
X113836341Y-76058137D01*
X113836342Y-76058139D01*
X113928261Y-76150058D01*
X113928262Y-76150059D01*
X113928264Y-76150060D01*
X114040835Y-76215053D01*
X114040836Y-76215053D01*
X114040839Y-76215055D01*
X114166403Y-76248700D01*
X114166406Y-76248700D01*
X114296394Y-76248700D01*
X114296397Y-76248700D01*
X114421961Y-76215055D01*
X114534539Y-76150058D01*
X114626458Y-76058139D01*
X114691455Y-75945561D01*
X114725100Y-75819997D01*
X114725100Y-75690003D01*
X114691455Y-75564439D01*
X114680791Y-75545969D01*
X114626460Y-75451864D01*
X114626455Y-75451858D01*
X114534541Y-75359944D01*
X114534535Y-75359939D01*
X114421964Y-75294946D01*
X114421965Y-75294946D01*
X114411668Y-75292187D01*
X114296397Y-75261300D01*
X114166403Y-75261300D01*
X114051131Y-75292187D01*
X114040835Y-75294946D01*
X113928264Y-75359939D01*
X113928258Y-75359944D01*
X113836344Y-75451858D01*
X113836339Y-75451864D01*
X113771346Y-75564435D01*
X113771345Y-75564439D01*
X113737700Y-75690003D01*
X113737700Y-75819997D01*
X111608731Y-75819997D01*
X111640291Y-75803916D01*
X111719516Y-75724691D01*
X111770382Y-75624862D01*
X111770382Y-75624860D01*
X111770383Y-75624859D01*
X111770383Y-75624858D01*
X111787909Y-75514203D01*
X111787909Y-75514196D01*
X111770383Y-75403541D01*
X111770383Y-75403540D01*
X111745400Y-75354509D01*
X111719516Y-75303709D01*
X111719515Y-75303708D01*
X111719514Y-75303706D01*
X111667419Y-75251611D01*
X111633934Y-75190288D01*
X111631100Y-75163930D01*
X111631100Y-74000960D01*
X111631099Y-74000957D01*
X111600454Y-73926973D01*
X111543827Y-73870346D01*
X111156491Y-73483010D01*
X111123006Y-73421687D01*
X111127990Y-73351995D01*
X111133687Y-73339034D01*
X111134677Y-73337091D01*
X111160882Y-73285662D01*
X111160882Y-73285660D01*
X111160883Y-73285659D01*
X111160883Y-73285658D01*
X111178409Y-73175003D01*
X111178409Y-73174996D01*
X111170744Y-73126603D01*
X113560891Y-73126603D01*
X113578416Y-73237258D01*
X113578416Y-73237259D01*
X113629285Y-73337093D01*
X113708506Y-73416314D01*
X113708508Y-73416315D01*
X113708509Y-73416316D01*
X113808338Y-73467182D01*
X113808339Y-73467182D01*
X113808341Y-73467183D01*
X113918997Y-73484709D01*
X113919000Y-73484709D01*
X113919003Y-73484709D01*
X114029658Y-73467183D01*
X114029659Y-73467183D01*
X114029660Y-73467182D01*
X114029662Y-73467182D01*
X114129491Y-73416316D01*
X114208716Y-73337091D01*
X114259582Y-73237262D01*
X114259582Y-73237260D01*
X114259583Y-73237259D01*
X114259583Y-73237258D01*
X114277109Y-73126603D01*
X114277109Y-73126596D01*
X114259583Y-73015941D01*
X114259583Y-73015940D01*
X114217535Y-72933417D01*
X114208716Y-72916109D01*
X114208715Y-72916108D01*
X114208714Y-72916106D01*
X114129493Y-72836885D01*
X114029658Y-72786016D01*
X113919003Y-72768491D01*
X113918997Y-72768491D01*
X113808341Y-72786016D01*
X113808340Y-72786016D01*
X113708506Y-72836885D01*
X113629285Y-72916106D01*
X113578416Y-73015940D01*
X113578416Y-73015941D01*
X113560891Y-73126596D01*
X113560891Y-73126603D01*
X111170744Y-73126603D01*
X111160883Y-73064341D01*
X111160883Y-73064340D01*
X111136222Y-73015941D01*
X111110016Y-72964509D01*
X111110015Y-72964508D01*
X111110014Y-72964506D01*
X111030793Y-72885285D01*
X111019278Y-72879418D01*
X110953044Y-72845669D01*
X110902250Y-72797696D01*
X110885455Y-72729875D01*
X110898857Y-72678890D01*
X110903051Y-72670659D01*
X110917917Y-72641484D01*
X110917918Y-72641480D01*
X110935444Y-72530825D01*
X110935444Y-72530818D01*
X110917918Y-72420163D01*
X110917918Y-72420162D01*
X110893443Y-72372128D01*
X110867051Y-72320331D01*
X110867050Y-72320330D01*
X110867049Y-72320328D01*
X110787828Y-72241107D01*
X110687993Y-72190238D01*
X110577338Y-72172713D01*
X110577332Y-72172713D01*
X110466676Y-72190238D01*
X110466675Y-72190238D01*
X110366840Y-72241108D01*
X110358948Y-72246842D01*
X110357560Y-72244931D01*
X110308258Y-72271853D01*
X110238566Y-72266869D01*
X110182633Y-72224997D01*
X110158216Y-72159533D01*
X110157900Y-72150687D01*
X110157900Y-72130003D01*
X113433891Y-72130003D01*
X113451416Y-72240658D01*
X113451416Y-72240659D01*
X113502285Y-72340493D01*
X113581506Y-72419714D01*
X113581508Y-72419715D01*
X113581509Y-72419716D01*
X113681338Y-72470582D01*
X113681339Y-72470582D01*
X113681341Y-72470583D01*
X113791997Y-72488109D01*
X113792000Y-72488109D01*
X113792003Y-72488109D01*
X113902658Y-72470583D01*
X113902659Y-72470583D01*
X113902660Y-72470582D01*
X113902662Y-72470582D01*
X114002491Y-72419716D01*
X114081716Y-72340491D01*
X114132582Y-72240662D01*
X114132582Y-72240660D01*
X114132583Y-72240659D01*
X114132583Y-72240658D01*
X114150109Y-72130003D01*
X114150109Y-72129996D01*
X114132583Y-72019341D01*
X114132583Y-72019340D01*
X114081714Y-71919506D01*
X114002493Y-71840285D01*
X113908964Y-71792629D01*
X113902662Y-71789418D01*
X113902661Y-71789417D01*
X113902658Y-71789416D01*
X113792003Y-71771891D01*
X113791997Y-71771891D01*
X113681341Y-71789416D01*
X113681340Y-71789416D01*
X113581506Y-71840285D01*
X113502285Y-71919506D01*
X113451416Y-72019340D01*
X113451416Y-72019341D01*
X113433891Y-72129996D01*
X113433891Y-72130003D01*
X110157900Y-72130003D01*
X110157900Y-70407346D01*
X110160176Y-70407346D01*
X110164942Y-70354071D01*
X110207804Y-70298893D01*
X110212557Y-70295991D01*
X110217885Y-70292120D01*
X110217886Y-70292118D01*
X110217891Y-70292116D01*
X110297116Y-70212891D01*
X110347982Y-70113062D01*
X110347982Y-70113060D01*
X110347983Y-70113059D01*
X110347983Y-70113058D01*
X110365509Y-70002403D01*
X110365509Y-70002396D01*
X110347983Y-69891741D01*
X110347983Y-69891740D01*
X110336760Y-69869714D01*
X110297116Y-69791909D01*
X110297115Y-69791908D01*
X110297114Y-69791906D01*
X110229705Y-69724497D01*
X110225321Y-69716468D01*
X110225318Y-69716468D01*
X110118058Y-69661816D01*
X110007403Y-69644291D01*
X110007397Y-69644291D01*
X109896741Y-69661816D01*
X109896740Y-69661816D01*
X109796906Y-69712685D01*
X109717685Y-69791906D01*
X109706206Y-69814435D01*
X109666818Y-69891738D01*
X109661534Y-69925098D01*
X109631606Y-69988232D01*
X109572294Y-70025164D01*
X109539061Y-70029700D01*
X109469100Y-70029700D01*
X109402061Y-70010015D01*
X109356306Y-69957211D01*
X109345100Y-69905700D01*
X109345100Y-69253248D01*
X109364785Y-69186209D01*
X109381419Y-69165567D01*
X109693841Y-68853145D01*
X110025654Y-68521332D01*
X110056300Y-68447346D01*
X110056300Y-68367263D01*
X110056300Y-66732260D01*
X110075985Y-66665221D01*
X110128789Y-66619466D01*
X110197947Y-66609522D01*
X110242301Y-66624874D01*
G37*
%TD.AperFunction*%
%TA.AperFunction,Conductor*%
G36*
X105989939Y-73271385D02*
G01*
X106035694Y-73324189D01*
X106046900Y-73375700D01*
X106046900Y-74126341D01*
X106061503Y-74180839D01*
X106077928Y-74242139D01*
X106137868Y-74345959D01*
X106137870Y-74345962D01*
X106229704Y-74437796D01*
X106229710Y-74437801D01*
X106616128Y-74824219D01*
X106616138Y-74824230D01*
X106705240Y-74913332D01*
X106734685Y-74930331D01*
X106764131Y-74947332D01*
X106764132Y-74947333D01*
X106809054Y-74973269D01*
X106809055Y-74973270D01*
X106809057Y-74973270D01*
X106809060Y-74973272D01*
X106924858Y-75004300D01*
X106924859Y-75004300D01*
X106924860Y-75004300D01*
X108238539Y-75004300D01*
X108238541Y-75004300D01*
X108238542Y-75004299D01*
X108246597Y-75003239D01*
X108246994Y-75006256D01*
X108302365Y-75007568D01*
X108360232Y-75046724D01*
X108387096Y-75106286D01*
X108396817Y-75167659D01*
X108396816Y-75167659D01*
X108447685Y-75267493D01*
X108526906Y-75346714D01*
X108526908Y-75346715D01*
X108526909Y-75346716D01*
X108626738Y-75397582D01*
X108626739Y-75397582D01*
X108626741Y-75397583D01*
X108737397Y-75415109D01*
X108737400Y-75415109D01*
X108737401Y-75415109D01*
X108754962Y-75412327D01*
X108819080Y-75402172D01*
X108888372Y-75411126D01*
X108941824Y-75456122D01*
X108958250Y-75492548D01*
X108966604Y-75523723D01*
X109013170Y-75604377D01*
X109013173Y-75604380D01*
X109018117Y-75610823D01*
X109017092Y-75611609D01*
X109046597Y-75665642D01*
X109041613Y-75735334D01*
X109017564Y-75772753D01*
X109018117Y-75773177D01*
X109013170Y-75779623D01*
X108966604Y-75860276D01*
X108942500Y-75950235D01*
X108942500Y-76588767D01*
X108922815Y-76655806D01*
X108870011Y-76701561D01*
X108800853Y-76711505D01*
X108799103Y-76711240D01*
X108762804Y-76705491D01*
X108762797Y-76705491D01*
X108652141Y-76723016D01*
X108652140Y-76723016D01*
X108552306Y-76773885D01*
X108473085Y-76853106D01*
X108422216Y-76952940D01*
X108422216Y-76952941D01*
X108404691Y-77063596D01*
X108404691Y-77063603D01*
X108422216Y-77174258D01*
X108422216Y-77174259D01*
X108473085Y-77274093D01*
X108552307Y-77353315D01*
X108563001Y-77358764D01*
X108613797Y-77406738D01*
X108630593Y-77474559D01*
X108608056Y-77540694D01*
X108594388Y-77556930D01*
X108267773Y-77883546D01*
X108211147Y-77940171D01*
X108211146Y-77940172D01*
X108180500Y-78014157D01*
X108180500Y-78554400D01*
X108160815Y-78621439D01*
X108108011Y-78667194D01*
X108056500Y-78678400D01*
X105983653Y-78678400D01*
X105916614Y-78658715D01*
X105895972Y-78642081D01*
X105047666Y-77793775D01*
X105014181Y-77732452D01*
X105011347Y-77706094D01*
X105011347Y-77622403D01*
X105382091Y-77622403D01*
X105399616Y-77733058D01*
X105399616Y-77733059D01*
X105450485Y-77832893D01*
X105529706Y-77912114D01*
X105529708Y-77912115D01*
X105529709Y-77912116D01*
X105629538Y-77962982D01*
X105629539Y-77962982D01*
X105629541Y-77962983D01*
X105740197Y-77980509D01*
X105740200Y-77980509D01*
X105740203Y-77980509D01*
X105850858Y-77962983D01*
X105850859Y-77962983D01*
X105850860Y-77962982D01*
X105850862Y-77962982D01*
X105950691Y-77912116D01*
X106029916Y-77832891D01*
X106035871Y-77821201D01*
X106083842Y-77770406D01*
X106151662Y-77753608D01*
X106217798Y-77776142D01*
X106256841Y-77821198D01*
X106288684Y-77883692D01*
X106367906Y-77962914D01*
X106367908Y-77962915D01*
X106367909Y-77962916D01*
X106467738Y-78013782D01*
X106467739Y-78013782D01*
X106467741Y-78013783D01*
X106578397Y-78031309D01*
X106578400Y-78031309D01*
X106578403Y-78031309D01*
X106689058Y-78013783D01*
X106689059Y-78013783D01*
X106689060Y-78013782D01*
X106689062Y-78013782D01*
X106788891Y-77962916D01*
X106868116Y-77883691D01*
X106918982Y-77783862D01*
X106918982Y-77783860D01*
X106918983Y-77783859D01*
X106918983Y-77783858D01*
X106936509Y-77673203D01*
X106936509Y-77673196D01*
X106918983Y-77562541D01*
X106918983Y-77562540D01*
X106904213Y-77533553D01*
X106868116Y-77462709D01*
X106868115Y-77462708D01*
X106868114Y-77462706D01*
X106788893Y-77383485D01*
X106689193Y-77332685D01*
X106689062Y-77332618D01*
X106689061Y-77332617D01*
X106689058Y-77332616D01*
X106578403Y-77315091D01*
X106578397Y-77315091D01*
X106467741Y-77332616D01*
X106467740Y-77332616D01*
X106367906Y-77383485D01*
X106288684Y-77462707D01*
X106282726Y-77474401D01*
X106234751Y-77525197D01*
X106166930Y-77541991D01*
X106100795Y-77519453D01*
X106061757Y-77474400D01*
X106055799Y-77462707D01*
X106029916Y-77411909D01*
X106029915Y-77411908D01*
X106029914Y-77411906D01*
X105950693Y-77332685D01*
X105916163Y-77315091D01*
X105850862Y-77281818D01*
X105850861Y-77281817D01*
X105850858Y-77281816D01*
X105740203Y-77264291D01*
X105740197Y-77264291D01*
X105629541Y-77281816D01*
X105629540Y-77281816D01*
X105529706Y-77332685D01*
X105450485Y-77411906D01*
X105399616Y-77511740D01*
X105399616Y-77511741D01*
X105382091Y-77622396D01*
X105382091Y-77622403D01*
X105011347Y-77622403D01*
X105011347Y-76871722D01*
X105031032Y-76804683D01*
X105079050Y-76761239D01*
X105163291Y-76718316D01*
X105242516Y-76639091D01*
X105293382Y-76539262D01*
X105293382Y-76539260D01*
X105293383Y-76539259D01*
X105293383Y-76539258D01*
X105310909Y-76428603D01*
X105310909Y-76428596D01*
X105293383Y-76317941D01*
X105293383Y-76317940D01*
X105292702Y-76316603D01*
X105242516Y-76218109D01*
X105242515Y-76218108D01*
X105242514Y-76218106D01*
X105163293Y-76138885D01*
X105157900Y-76136137D01*
X105113972Y-76113754D01*
X105063178Y-76065782D01*
X105046383Y-75997961D01*
X105068920Y-75931826D01*
X105113972Y-75892787D01*
X105188691Y-75854716D01*
X105267916Y-75775491D01*
X105318782Y-75675662D01*
X105318782Y-75675660D01*
X105318783Y-75675659D01*
X105318783Y-75675658D01*
X105336309Y-75565003D01*
X105336309Y-75564996D01*
X105318783Y-75454341D01*
X105318783Y-75454340D01*
X105308299Y-75433765D01*
X105267916Y-75354509D01*
X105267915Y-75354508D01*
X105267914Y-75354506D01*
X105188693Y-75275285D01*
X105119141Y-75239846D01*
X105088862Y-75224418D01*
X105088861Y-75224417D01*
X105088858Y-75224416D01*
X104978203Y-75206891D01*
X104978201Y-75206891D01*
X104978200Y-75206891D01*
X104963938Y-75209149D01*
X104891096Y-75220686D01*
X104821803Y-75211730D01*
X104768352Y-75166733D01*
X104747713Y-75099981D01*
X104747700Y-75098212D01*
X104747700Y-74560353D01*
X104767385Y-74493314D01*
X104784019Y-74472672D01*
X105014552Y-74242139D01*
X105393331Y-73863361D01*
X105453272Y-73759539D01*
X105484301Y-73643741D01*
X105484301Y-73523858D01*
X105484301Y-73516263D01*
X105484300Y-73516245D01*
X105484300Y-73375700D01*
X105503985Y-73308661D01*
X105556789Y-73262906D01*
X105608300Y-73251700D01*
X105860059Y-73251700D01*
X105922900Y-73251700D01*
X105989939Y-73271385D01*
G37*
%TD.AperFunction*%
%TA.AperFunction,Conductor*%
G36*
X102994529Y-74932313D02*
G01*
X102998961Y-74934872D01*
X103002970Y-74935946D01*
X103005059Y-74936506D01*
X103060652Y-74968601D01*
X103085431Y-74993380D01*
X103118916Y-75054703D01*
X103121750Y-75081061D01*
X103121750Y-75976991D01*
X103146803Y-76070491D01*
X103152778Y-76092789D01*
X103212718Y-76196609D01*
X103212720Y-76196612D01*
X103664734Y-76648626D01*
X103698219Y-76709949D01*
X103693235Y-76779641D01*
X103651363Y-76835574D01*
X103633354Y-76846789D01*
X103621518Y-76852820D01*
X103542296Y-76932042D01*
X103491427Y-77031876D01*
X103491427Y-77031877D01*
X103473902Y-77142532D01*
X103473902Y-77142539D01*
X103491427Y-77253194D01*
X103491427Y-77253195D01*
X103513772Y-77297048D01*
X103526668Y-77365717D01*
X103500392Y-77430458D01*
X103496446Y-77434882D01*
X103494721Y-77437257D01*
X103493465Y-77438224D01*
X103490982Y-77441010D01*
X103487797Y-77444196D01*
X103486893Y-77443292D01*
X103439388Y-77479919D01*
X103369775Y-77485894D01*
X103307982Y-77453283D01*
X103306727Y-77452046D01*
X102872745Y-77018064D01*
X102839260Y-76956741D01*
X102838205Y-76919760D01*
X102838109Y-76919760D01*
X102838109Y-76916411D01*
X102837954Y-76910980D01*
X102838109Y-76910001D01*
X102838109Y-76909996D01*
X102820583Y-76799341D01*
X102820583Y-76799340D01*
X102817009Y-76792325D01*
X102769716Y-76699509D01*
X102769715Y-76699508D01*
X102769714Y-76699506D01*
X102690493Y-76620285D01*
X102590658Y-76569416D01*
X102480003Y-76551891D01*
X102480001Y-76551891D01*
X102480000Y-76551891D01*
X102469278Y-76553589D01*
X102424889Y-76560619D01*
X102355596Y-76551663D01*
X102302144Y-76506666D01*
X102281506Y-76439914D01*
X102281493Y-76438145D01*
X102281493Y-75350331D01*
X102301178Y-75283292D01*
X102349195Y-75239848D01*
X102441157Y-75192991D01*
X102520382Y-75113766D01*
X102571248Y-75013937D01*
X102571249Y-75013929D01*
X102574264Y-75004654D01*
X102577206Y-75005610D01*
X102600159Y-74957178D01*
X102659467Y-74920240D01*
X102692713Y-74915700D01*
X102932529Y-74915700D01*
X102994529Y-74932313D01*
G37*
%TD.AperFunction*%
%TD*%
D24*
X103708200Y-79095600D02*
G75*
G02*
X103454200Y-79349600I-254000J0D01*
G01*
X102438200Y-79095600D02*
G75*
G02*
X102692200Y-78841600I254000J0D01*
G01*
X102692200Y-66395600D02*
X103454200Y-66395600D01*
X102692200Y-79349600D02*
G75*
G02*
X102438200Y-79095600I0J254000D01*
G01*
X103454200Y-66395600D02*
G75*
G02*
X103708200Y-66649600I0J-254000D01*
G01*
X103454200Y-66903600D02*
X102692200Y-66903600D01*
X102438200Y-66649600D02*
G75*
G02*
X102692200Y-66395600I254000J0D01*
G01*
X102692200Y-78841600D02*
X103454200Y-78841600D01*
X103454200Y-78841600D02*
G75*
G02*
X103708200Y-79095600I0J-254000D01*
G01*
X103454200Y-79349600D02*
X102692200Y-79349600D01*
X103708200Y-66649600D02*
G75*
G02*
X103454200Y-66903600I-254000J0D01*
G01*
X102692200Y-66903600D02*
G75*
G02*
X102438200Y-66649600I0J254000D01*
G01*
D25*
%TO.C,U2*%
X97983700Y-65891000D02*
X97983700Y-79861000D01*
X99888700Y-63986000D02*
X117033700Y-63986000D01*
X99888700Y-81766000D02*
X117033700Y-81766000D01*
X118938700Y-79861000D02*
X118938700Y-65891000D01*
X97983700Y-65891000D02*
G75*
G02*
X99888700Y-63986000I1905001J-1D01*
G01*
X99888700Y-81766000D02*
G75*
G02*
X97983700Y-79861000I1J1905001D01*
G01*
X117033700Y-63986000D02*
G75*
G02*
X118938700Y-65891000I0J-1905000D01*
G01*
X118938700Y-79861000D02*
G75*
G02*
X117033700Y-81766000I-1905000J0D01*
G01*
%TD*%
M02*
