%TF.GenerationSoftware,KiCad,Pcbnew,8.0.0*%
%TF.CreationDate,2025-02-11T16:30:35+08:00*%
%TF.ProjectId,XIAO ESP32 C6,5849414f-2045-4535-9033-322043362e6b,rev?*%
%TF.SameCoordinates,Original*%
%TF.FileFunction,Soldermask,Top*%
%TF.FilePolarity,Negative*%
%FSLAX46Y46*%
G04 Gerber Fmt 4.6, Leading zero omitted, Abs format (unit mm)*
G04 Created by KiCad (PCBNEW 8.0.0) date 2025-02-11 16:30:35*
%MOMM*%
%LPD*%
G01*
G04 APERTURE LIST*
G04 Aperture macros list*
%AMRoundRect*
0 Rectangle with rounded corners*
0 $1 Rounding radius*
0 $2 $3 $4 $5 $6 $7 $8 $9 X,Y pos of 4 corners*
0 Add a 4 corners polygon primitive as box body*
4,1,4,$2,$3,$4,$5,$6,$7,$8,$9,$2,$3,0*
0 Add four circle primitives for the rounded corners*
1,1,$1+$1,$2,$3*
1,1,$1+$1,$4,$5*
1,1,$1+$1,$6,$7*
1,1,$1+$1,$8,$9*
0 Add four rect primitives between the rounded corners*
20,1,$1+$1,$2,$3,$4,$5,0*
20,1,$1+$1,$4,$5,$6,$7,0*
20,1,$1+$1,$6,$7,$8,$9,0*
20,1,$1+$1,$8,$9,$2,$3,0*%
%AMFreePoly0*
4,1,39,0.848355,0.697855,0.863000,0.662500,0.863000,-0.662500,0.862687,-0.663254,0.862686,-0.668598,0.842302,-0.849508,0.839810,-0.860424,0.779682,-1.032261,0.774824,-1.042349,0.677965,-1.196499,0.670984,-1.205252,0.542252,-1.333984,0.533499,-1.340965,0.379349,-1.437824,0.369261,-1.442682,0.197424,-1.502810,0.186508,-1.505302,0.005598,-1.525686,-0.005598,-1.525686,-0.186508,-1.505302,
-0.197424,-1.502810,-0.369261,-1.442682,-0.379349,-1.437824,-0.533499,-1.340965,-0.542252,-1.333984,-0.670984,-1.205252,-0.677965,-1.196499,-0.774824,-1.042349,-0.779682,-1.032261,-0.839810,-0.860424,-0.842302,-0.849508,-0.862686,-0.668598,-0.862687,-0.663254,-0.863000,-0.662500,-0.863000,0.662500,-0.848355,0.697855,-0.813000,0.712500,0.813000,0.712500,0.848355,0.697855,0.848355,0.697855,
$1*%
%AMFreePoly1*
4,1,17,0.328621,0.767961,0.767961,0.328621,0.775400,0.310660,0.775400,-0.310660,0.767961,-0.328621,0.328621,-0.767961,0.310660,-0.775400,-0.310660,-0.775400,-0.328621,-0.767961,-0.767961,-0.328621,-0.775400,-0.310660,-0.775400,0.310660,-0.767961,0.328621,-0.328621,0.767961,-0.310660,0.775400,0.310660,0.775400,0.328621,0.767961,0.328621,0.767961,$1*%
%AMFreePoly2*
4,1,39,0.848355,0.639355,0.863000,0.604000,0.863000,-0.604000,0.862687,-0.604754,0.862686,-0.610098,0.842302,-0.791008,0.839810,-0.801924,0.779682,-0.973761,0.774824,-0.983849,0.677965,-1.137999,0.670984,-1.146752,0.542252,-1.275484,0.533499,-1.282465,0.379349,-1.379324,0.369261,-1.384182,0.197424,-1.444310,0.186508,-1.446802,0.005598,-1.467186,-0.005598,-1.467186,-0.186508,-1.446802,
-0.197424,-1.444310,-0.369261,-1.384182,-0.379349,-1.379324,-0.533499,-1.282465,-0.542252,-1.275484,-0.670984,-1.146752,-0.677965,-1.137999,-0.774824,-0.983849,-0.779682,-0.973761,-0.839810,-0.801924,-0.842302,-0.791008,-0.862686,-0.610098,-0.862687,-0.604754,-0.863000,-0.604000,-0.863000,0.604000,-0.848355,0.639355,-0.813000,0.654000,0.813000,0.654000,0.848355,0.639355,0.848355,0.639355,
$1*%
G04 Aperture macros list end*
%ADD10C,0.508000*%
%ADD11RoundRect,0.055880X0.083820X0.102870X-0.083820X0.102870X-0.083820X-0.102870X0.083820X-0.102870X0*%
%ADD12RoundRect,0.250000X-0.750000X-0.250000X0.750000X-0.250000X0.750000X0.250000X-0.750000X0.250000X0*%
%ADD13RoundRect,0.065000X0.185000X-0.185000X0.185000X0.185000X-0.185000X0.185000X-0.185000X-0.185000X0*%
%ADD14RoundRect,0.068850X-0.206550X0.231550X-0.206550X-0.231550X0.206550X-0.231550X0.206550X0.231550X0*%
%ADD15RoundRect,0.055880X0.102870X-0.083820X0.102870X0.083820X-0.102870X0.083820X-0.102870X-0.083820X0*%
%ADD16RoundRect,0.055880X-0.083820X-0.102870X0.083820X-0.102870X0.083820X0.102870X-0.083820X0.102870X0*%
%ADD17RoundRect,0.068850X0.206550X-0.231550X0.206550X0.231550X-0.206550X0.231550X-0.206550X-0.231550X0*%
%ADD18RoundRect,0.055880X-0.102870X0.083820X-0.102870X-0.083820X0.102870X-0.083820X0.102870X0.083820X0*%
%ADD19RoundRect,0.042096X0.308704X-0.383704X0.308704X0.383704X-0.308704X0.383704X-0.308704X-0.383704X0*%
%ADD20RoundRect,0.150400X0.150400X-0.150400X0.150400X0.150400X-0.150400X0.150400X-0.150400X-0.150400X0*%
%ADD21RoundRect,0.065000X-0.185000X0.185000X-0.185000X-0.185000X0.185000X-0.185000X0.185000X0.185000X0*%
%ADD22RoundRect,0.030120X0.070280X-0.120280X0.070280X0.120280X-0.070280X0.120280X-0.070280X-0.120280X0*%
%ADD23RoundRect,0.045120X-0.230280X-0.105280X0.230280X-0.105280X0.230280X0.105280X-0.230280X0.105280X0*%
%ADD24RoundRect,0.021000X0.304000X0.129000X-0.304000X0.129000X-0.304000X-0.129000X0.304000X-0.129000X0*%
%ADD25RoundRect,0.030120X-0.120280X-0.070280X0.120280X-0.070280X0.120280X0.070280X-0.120280X0.070280X0*%
%ADD26RoundRect,0.045120X-0.105280X0.230280X-0.105280X-0.230280X0.105280X-0.230280X0.105280X0.230280X0*%
%ADD27RoundRect,0.135400X0.000000X0.000000X0.000000X0.000000X0.000000X0.000000X0.000000X0.000000X0*%
%ADD28RoundRect,0.065000X0.185000X0.185000X-0.185000X0.185000X-0.185000X-0.185000X0.185000X-0.185000X0*%
%ADD29RoundRect,0.150400X-0.150400X0.150400X-0.150400X-0.150400X0.150400X-0.150400X0.150400X0.150400X0*%
%ADD30RoundRect,0.062500X-0.106066X0.017678X0.017678X-0.106066X0.106066X-0.017678X-0.017678X0.106066X0*%
%ADD31C,0.580000*%
%ADD32RoundRect,0.105240X0.620560X0.245560X-0.620560X0.245560X-0.620560X-0.245560X0.620560X-0.245560X0*%
%ADD33RoundRect,0.060240X0.665560X0.140560X-0.665560X0.140560X-0.665560X-0.140560X0.665560X-0.140560X0*%
%ADD34O,2.101600X1.101600*%
%ADD35O,2.301600X1.201600*%
%ADD36RoundRect,0.315240X0.735560X0.735560X-0.735560X0.735560X-0.735560X-0.735560X0.735560X-0.735560X0*%
%ADD37RoundRect,0.222250X-0.247650X-0.222250X0.247650X-0.222250X0.247650X0.222250X-0.247650X0.222250X0*%
%ADD38RoundRect,0.222250X0.641350X0.222250X-0.641350X0.222250X-0.641350X-0.222250X0.641350X-0.222250X0*%
%ADD39RoundRect,0.062500X-0.287500X-0.062500X0.287500X-0.062500X0.287500X0.062500X-0.287500X0.062500X0*%
%ADD40RoundRect,0.062500X0.062500X-0.287500X0.062500X0.287500X-0.062500X0.287500X-0.062500X-0.287500X0*%
%ADD41RoundRect,0.062500X0.287500X0.062500X-0.287500X0.062500X-0.287500X-0.062500X0.287500X-0.062500X0*%
%ADD42RoundRect,0.062500X-0.062500X0.287500X-0.062500X-0.287500X0.062500X-0.287500X0.062500X0.287500X0*%
%ADD43RoundRect,0.750000X-0.750000X0.750000X-0.750000X-0.750000X0.750000X-0.750000X0.750000X0.750000X0*%
%ADD44C,1.320800*%
%ADD45FreePoly0,0.000000*%
%ADD46FreePoly1,270.000000*%
%ADD47FreePoly2,0.000000*%
%ADD48C,1.550800*%
%ADD49C,1.524000*%
%ADD50FreePoly0,180.000000*%
%ADD51FreePoly2,180.000000*%
%ADD52RoundRect,0.125400X0.000000X0.000000X0.000000X0.000000X0.000000X0.000000X0.000000X0.000000X0*%
%ADD53RoundRect,0.097790X0.346710X0.346710X-0.346710X0.346710X-0.346710X-0.346710X0.346710X-0.346710X0*%
%ADD54RoundRect,0.030120X-0.070280X0.120280X-0.070280X-0.120280X0.070280X-0.120280X0.070280X0.120280X0*%
%ADD55RoundRect,0.045120X0.230280X0.105280X-0.230280X0.105280X-0.230280X-0.105280X0.230280X-0.105280X0*%
%TA.AperFunction,Profile*%
%ADD56C,0.076200*%
%TD*%
%TA.AperFunction,Profile*%
%ADD57C,0.025400*%
%TD*%
G04 APERTURE END LIST*
D10*
X101676200Y-79095600D02*
X104571800Y-79095600D01*
X101676200Y-66649600D02*
X111963200Y-66649600D01*
X110083600Y-79095600D02*
X111429800Y-79095600D01*
D11*
%TO.C,C18*%
X102914763Y-72110000D03*
X102405237Y-72110000D03*
%TD*%
D12*
%TO.C,ANT1*%
X99136200Y-73300000D03*
X99136200Y-78700000D03*
%TD*%
D13*
%TO.C,C1*%
X104840000Y-69922500D03*
X104840000Y-68997500D03*
%TD*%
D14*
%TO.C,K2*%
X118231000Y-78151200D03*
X117481000Y-78151200D03*
X118231000Y-80751200D03*
X117481000Y-80751200D03*
%TD*%
D15*
%TO.C,R12*%
X106610000Y-71476300D03*
X106610000Y-70966900D03*
%TD*%
D16*
%TO.C,L5*%
X99625300Y-71380000D03*
X100134700Y-71380000D03*
%TD*%
D17*
%TO.C,K1*%
X117481000Y-67594000D03*
X118231000Y-67594000D03*
X117481000Y-64994000D03*
X118231000Y-64994000D03*
%TD*%
D11*
%TO.C,R7*%
X111304700Y-72525000D03*
X110795300Y-72525000D03*
%TD*%
D15*
%TO.C,C25*%
X104680000Y-72284763D03*
X104680000Y-71775237D03*
%TD*%
D16*
%TO.C,R18*%
X110060100Y-76580000D03*
X110569500Y-76580000D03*
%TD*%
D18*
%TO.C,L3*%
X103120000Y-68615300D03*
X103120000Y-69124700D03*
%TD*%
D11*
%TO.C,C21*%
X111434763Y-68800000D03*
X110925237Y-68800000D03*
%TD*%
D18*
%TO.C,C16*%
X103130000Y-74475237D03*
X103130000Y-74984763D03*
%TD*%
D19*
%TO.C,X1*%
X108236400Y-72102200D03*
X108236400Y-71052200D03*
X107436400Y-71052200D03*
X107436400Y-72102200D03*
%TD*%
D16*
%TO.C,R14*%
X110060100Y-75553400D03*
X110569500Y-75553400D03*
%TD*%
D11*
%TO.C,R25*%
X111455900Y-78560000D03*
X110946500Y-78560000D03*
%TD*%
%TO.C,R8*%
X111329700Y-73175000D03*
X110820300Y-73175000D03*
%TD*%
D20*
%TO.C,CHG1*%
X114066100Y-67005200D03*
X114991100Y-67005200D03*
%TD*%
D11*
%TO.C,R6*%
X111455900Y-71145400D03*
X110946500Y-71145400D03*
%TD*%
D16*
%TO.C,C20*%
X110060037Y-76061400D03*
X110569563Y-76061400D03*
%TD*%
D11*
%TO.C,C9*%
X110444763Y-68750000D03*
X109935237Y-68750000D03*
%TD*%
%TO.C,R10*%
X109444700Y-68750000D03*
X108935300Y-68750000D03*
%TD*%
%TO.C,R16*%
X111444700Y-68280000D03*
X110935300Y-68280000D03*
%TD*%
%TO.C,L4*%
X104084700Y-72230000D03*
X103575300Y-72230000D03*
%TD*%
D21*
%TO.C,C13*%
X103070000Y-77377500D03*
X103070000Y-78302500D03*
%TD*%
D20*
%TO.C,D4*%
X114066100Y-78689200D03*
X114991100Y-78689200D03*
%TD*%
D22*
%TO.C,Q3*%
X102735000Y-73335000D03*
X103085000Y-73335000D03*
D23*
X102910000Y-72685000D03*
%TD*%
D11*
%TO.C,C6*%
X110324763Y-72525000D03*
X109815237Y-72525000D03*
%TD*%
D15*
%TO.C,C12*%
X106594400Y-72607763D03*
X106594400Y-72098237D03*
%TD*%
D24*
%TO.C,D3*%
X109728000Y-71444600D03*
X109728000Y-70744600D03*
%TD*%
D18*
%TO.C,R23*%
X104200000Y-70795300D03*
X104200000Y-71304700D03*
%TD*%
D25*
%TO.C,Q2*%
X108209200Y-69217800D03*
X108209200Y-69567800D03*
D26*
X108859200Y-69392800D03*
%TD*%
D11*
%TO.C,C7*%
X110324763Y-73175000D03*
X109815237Y-73175000D03*
%TD*%
D27*
%TO.C,U1*%
X106195000Y-69230000D03*
X106545000Y-69230000D03*
X106195000Y-69580000D03*
X106545000Y-69580000D03*
X106195000Y-69930000D03*
X106545000Y-69930000D03*
%TD*%
D15*
%TO.C,L2*%
X103630000Y-74984700D03*
X103630000Y-74475300D03*
%TD*%
D11*
%TO.C,R11*%
X111424700Y-67270000D03*
X110915300Y-67270000D03*
%TD*%
D28*
%TO.C,C4*%
X104463300Y-67665600D03*
X103538300Y-67665600D03*
%TD*%
D29*
%TO.C,D2*%
X111201200Y-69590700D03*
X111201200Y-70515700D03*
%TD*%
D30*
%TO.C,U5*%
X103126066Y-70440381D03*
X102843223Y-70723223D03*
X102560381Y-71006066D03*
X102913934Y-71359619D03*
X103196777Y-71076777D03*
X103479619Y-70793934D03*
%TD*%
D11*
%TO.C,C24*%
X103124763Y-69620000D03*
X102615237Y-69620000D03*
%TD*%
D15*
%TO.C,C10*%
X107440000Y-70314763D03*
X107440000Y-69805237D03*
%TD*%
D11*
%TO.C,C17*%
X103514763Y-76610000D03*
X103005237Y-76610000D03*
%TD*%
%TO.C,C2*%
X108594763Y-68230000D03*
X108085237Y-68230000D03*
%TD*%
D16*
%TO.C,R19*%
X107955300Y-69980000D03*
X108464700Y-69980000D03*
%TD*%
D15*
%TO.C,C28*%
X100620000Y-71364763D03*
X100620000Y-70855237D03*
%TD*%
%TO.C,C27*%
X99140000Y-71374763D03*
X99140000Y-70865237D03*
%TD*%
%TO.C,R1*%
X105740000Y-71304700D03*
X105740000Y-70795300D03*
%TD*%
D31*
%TO.C,USB1*%
X114231400Y-75755000D03*
X114231400Y-70005000D03*
D32*
X113006400Y-76130000D03*
X113006400Y-75280000D03*
D33*
X113006400Y-74130000D03*
X113006400Y-73130000D03*
X113006400Y-72630000D03*
X113006400Y-71630000D03*
D32*
X113006400Y-69680000D03*
X113006400Y-70480000D03*
D33*
X113006400Y-71130000D03*
X113006400Y-72130000D03*
X113006400Y-73630000D03*
X113006400Y-74630000D03*
D34*
X117881400Y-77180000D03*
X117881400Y-68580000D03*
D35*
X113681400Y-77180000D03*
X113681400Y-68580000D03*
D36*
X117631400Y-74380000D03*
X117631400Y-71380000D03*
%TD*%
D37*
%TO.C,ANT2*%
X100787200Y-68580000D03*
D38*
X99390200Y-69850000D03*
X99390200Y-67310000D03*
%TD*%
D15*
%TO.C,R24*%
X104710000Y-71304700D03*
X104710000Y-70795300D03*
%TD*%
D39*
%TO.C,U4*%
X104385000Y-74057400D03*
X104385000Y-74557400D03*
X104385000Y-75057400D03*
X104385000Y-75557400D03*
X104385000Y-76057400D03*
X104385000Y-76557400D03*
X104385000Y-77057400D03*
X104385000Y-77557400D03*
D40*
X105085000Y-78257400D03*
X105585000Y-78257400D03*
X106085000Y-78257400D03*
X106585000Y-78257400D03*
X107085000Y-78257400D03*
X107585000Y-78257400D03*
X108085000Y-78257400D03*
X108585000Y-78257400D03*
D41*
X109285000Y-77557400D03*
X109285000Y-77057400D03*
X109285000Y-76557400D03*
X109285000Y-76057400D03*
X109285000Y-75557400D03*
X109285000Y-75057400D03*
X109285000Y-74557400D03*
D39*
X109285000Y-74057400D03*
D42*
X108585000Y-73357400D03*
X108085000Y-73357400D03*
X107585000Y-73357400D03*
X107085000Y-73357400D03*
X106585000Y-73357400D03*
X106085000Y-73357400D03*
X105585000Y-73357400D03*
X105085000Y-73357400D03*
D43*
X106835000Y-75807400D03*
%TD*%
D15*
%TO.C,R3*%
X111270000Y-74634700D03*
X111270000Y-74125300D03*
%TD*%
D11*
%TO.C,C14*%
X103514763Y-76080000D03*
X103005237Y-76080000D03*
%TD*%
D18*
%TO.C,C8*%
X110439200Y-71093837D03*
X110439200Y-71603363D03*
%TD*%
D24*
%TO.C,D1*%
X109321600Y-68168000D03*
X109321600Y-67468000D03*
%TD*%
D11*
%TO.C,R13*%
X110474700Y-78550000D03*
X109965300Y-78550000D03*
%TD*%
D15*
%TO.C,C19*%
X105220000Y-71304763D03*
X105220000Y-70795237D03*
%TD*%
D16*
%TO.C,C22*%
X110945237Y-77540000D03*
X111454763Y-77540000D03*
%TD*%
D11*
%TO.C,R17*%
X111454700Y-78050000D03*
X110945300Y-78050000D03*
%TD*%
D44*
%TO.C,U2*%
X116017700Y-63986000D03*
D45*
X116017700Y-64598000D03*
D46*
X116017700Y-65256000D03*
D44*
X113477700Y-63986000D03*
D47*
X113477700Y-64539000D03*
D44*
X110937700Y-63986000D03*
D45*
X110937700Y-64598000D03*
D48*
X110937700Y-65256000D03*
D44*
X108397700Y-63986000D03*
D45*
X108397700Y-64598000D03*
D48*
X108397700Y-65256000D03*
D44*
X105857700Y-63986000D03*
D45*
X105857700Y-64598000D03*
D48*
X105857700Y-65256000D03*
D44*
X103317700Y-63986000D03*
D47*
X103317700Y-64539000D03*
D44*
X100777700Y-63986000D03*
D45*
X100777700Y-64598000D03*
D48*
X100777700Y-65256000D03*
D49*
X100777700Y-80496000D03*
D50*
X100777700Y-81154000D03*
D44*
X100777700Y-81766000D03*
D51*
X103317700Y-81213000D03*
D44*
X103317700Y-81766000D03*
D48*
X105857700Y-80496000D03*
D50*
X105857700Y-81154000D03*
D44*
X105857700Y-81766000D03*
D48*
X108397700Y-80496000D03*
D50*
X108397700Y-81154000D03*
D44*
X108397700Y-81766000D03*
D48*
X110937700Y-80496000D03*
D50*
X110937700Y-81154000D03*
D44*
X110937700Y-81766000D03*
D51*
X113477700Y-81213000D03*
D44*
X113477700Y-81766000D03*
D48*
X116017700Y-80496000D03*
D50*
X116017700Y-81154000D03*
D44*
X116017700Y-81766000D03*
%TD*%
D52*
%TO.C,U3*%
X110407400Y-69370600D03*
X110407400Y-69770600D03*
X110007400Y-69370600D03*
X110007400Y-69770600D03*
X109607400Y-69370600D03*
X109607400Y-69770600D03*
%TD*%
D18*
%TO.C,C11*%
X109010000Y-71906637D03*
X109010000Y-72416163D03*
%TD*%
D15*
%TO.C,C23*%
X102570000Y-68624763D03*
X102570000Y-68115237D03*
%TD*%
D16*
%TO.C,R21*%
X102665300Y-73880000D03*
X103174700Y-73880000D03*
%TD*%
D11*
%TO.C,R20*%
X111444700Y-67780000D03*
X110935300Y-67780000D03*
%TD*%
D16*
%TO.C,R9*%
X107945300Y-68750000D03*
X108454700Y-68750000D03*
%TD*%
D53*
%TO.C,L1*%
X107232000Y-67780000D03*
X105708000Y-67780000D03*
%TD*%
D54*
%TO.C,Q1*%
X110385600Y-67493000D03*
X110035600Y-67493000D03*
D55*
X110210600Y-68143000D03*
%TD*%
D16*
%TO.C,R15*%
X110145300Y-74054800D03*
X110654700Y-74054800D03*
%TD*%
D15*
%TO.C,C5*%
X105349800Y-72607763D03*
X105349800Y-72098237D03*
%TD*%
D11*
%TO.C,C15*%
X103504763Y-75550000D03*
X102995237Y-75550000D03*
%TD*%
D18*
%TO.C,R22*%
X102210000Y-73445300D03*
X102210000Y-73954700D03*
%TD*%
D56*
X103708200Y-79095600D02*
G75*
G02*
X103454200Y-79349600I-254000J0D01*
G01*
X102438200Y-79095600D02*
G75*
G02*
X102692200Y-78841600I254000J0D01*
G01*
X102692200Y-66395600D02*
X103454200Y-66395600D01*
X102692200Y-79349600D02*
G75*
G02*
X102438200Y-79095600I0J254000D01*
G01*
X103454200Y-66395600D02*
G75*
G02*
X103708200Y-66649600I0J-254000D01*
G01*
X103454200Y-66903600D02*
X102692200Y-66903600D01*
X102438200Y-66649600D02*
G75*
G02*
X102692200Y-66395600I254000J0D01*
G01*
X102692200Y-78841600D02*
X103454200Y-78841600D01*
X103454200Y-78841600D02*
G75*
G02*
X103708200Y-79095600I0J-254000D01*
G01*
X103454200Y-79349600D02*
X102692200Y-79349600D01*
X103708200Y-66649600D02*
G75*
G02*
X103454200Y-66903600I-254000J0D01*
G01*
X102692200Y-66903600D02*
G75*
G02*
X102438200Y-66649600I0J254000D01*
G01*
D57*
%TO.C,U2*%
X97983700Y-65891000D02*
X97983700Y-79861000D01*
X99888700Y-63986000D02*
X117033700Y-63986000D01*
X99888700Y-81766000D02*
X117033700Y-81766000D01*
X118938700Y-79861000D02*
X118938700Y-65891000D01*
X97983700Y-65891000D02*
G75*
G02*
X99888700Y-63986000I1905001J-1D01*
G01*
X99888700Y-81766000D02*
G75*
G02*
X97983700Y-79861000I1J1905001D01*
G01*
X117033700Y-63986000D02*
G75*
G02*
X118938700Y-65891000I0J-1905000D01*
G01*
X118938700Y-79861000D02*
G75*
G02*
X117033700Y-81766000I-1905000J0D01*
G01*
%TD*%
M02*
