%TF.GenerationSoftware,KiCad,Pcbnew,8.0.0*%
%TF.CreationDate,2025-02-11T16:30:35+08:00*%
%TF.ProjectId,XIAO ESP32 C6,5849414f-2045-4535-9033-322043362e6b,rev?*%
%TF.SameCoordinates,Original*%
%TF.FileFunction,Soldermask,Bot*%
%TF.FilePolarity,Negative*%
%FSLAX46Y46*%
G04 Gerber Fmt 4.6, Leading zero omitted, Abs format (unit mm)*
G04 Created by KiCad (PCBNEW 8.0.0) date 2025-02-11 16:30:35*
%MOMM*%
%LPD*%
G01*
G04 APERTURE LIST*
G04 Aperture macros list*
%AMRoundRect*
0 Rectangle with rounded corners*
0 $1 Rounding radius*
0 $2 $3 $4 $5 $6 $7 $8 $9 X,Y pos of 4 corners*
0 Add a 4 corners polygon primitive as box body*
4,1,4,$2,$3,$4,$5,$6,$7,$8,$9,$2,$3,0*
0 Add four circle primitives for the rounded corners*
1,1,$1+$1,$2,$3*
1,1,$1+$1,$4,$5*
1,1,$1+$1,$6,$7*
1,1,$1+$1,$8,$9*
0 Add four rect primitives between the rounded corners*
20,1,$1+$1,$2,$3,$4,$5,0*
20,1,$1+$1,$4,$5,$6,$7,0*
20,1,$1+$1,$6,$7,$8,$9,0*
20,1,$1+$1,$8,$9,$2,$3,0*%
%AMFreePoly0*
4,1,39,0.848355,0.697855,0.863000,0.662500,0.863000,-0.662500,0.862687,-0.663254,0.862686,-0.668598,0.842302,-0.849508,0.839810,-0.860424,0.779682,-1.032261,0.774824,-1.042349,0.677965,-1.196499,0.670984,-1.205252,0.542252,-1.333984,0.533499,-1.340965,0.379349,-1.437824,0.369261,-1.442682,0.197424,-1.502810,0.186508,-1.505302,0.005598,-1.525686,-0.005598,-1.525686,-0.186508,-1.505302,
-0.197424,-1.502810,-0.369261,-1.442682,-0.379349,-1.437824,-0.533499,-1.340965,-0.542252,-1.333984,-0.670984,-1.205252,-0.677965,-1.196499,-0.774824,-1.042349,-0.779682,-1.032261,-0.839810,-0.860424,-0.842302,-0.849508,-0.862686,-0.668598,-0.862687,-0.663254,-0.863000,-0.662500,-0.863000,0.662500,-0.848355,0.697855,-0.813000,0.712500,0.813000,0.712500,0.848355,0.697855,0.848355,0.697855,
$1*%
%AMFreePoly1*
4,1,17,0.328621,0.767961,0.767961,0.328621,0.775400,0.310660,0.775400,-0.310660,0.767961,-0.328621,0.328621,-0.767961,0.310660,-0.775400,-0.310660,-0.775400,-0.328621,-0.767961,-0.767961,-0.328621,-0.775400,-0.310660,-0.775400,0.310660,-0.767961,0.328621,-0.328621,0.767961,-0.310660,0.775400,0.310660,0.775400,0.328621,0.767961,0.328621,0.767961,$1*%
%AMFreePoly2*
4,1,39,0.848355,0.639355,0.863000,0.604000,0.863000,-0.604000,0.862687,-0.604754,0.862686,-0.610098,0.842302,-0.791008,0.839810,-0.801924,0.779682,-0.973761,0.774824,-0.983849,0.677965,-1.137999,0.670984,-1.146752,0.542252,-1.275484,0.533499,-1.282465,0.379349,-1.379324,0.369261,-1.384182,0.197424,-1.444310,0.186508,-1.446802,0.005598,-1.467186,-0.005598,-1.467186,-0.186508,-1.446802,
-0.197424,-1.444310,-0.369261,-1.384182,-0.379349,-1.379324,-0.533499,-1.282465,-0.542252,-1.275484,-0.670984,-1.146752,-0.677965,-1.137999,-0.774824,-0.983849,-0.779682,-0.973761,-0.839810,-0.801924,-0.842302,-0.791008,-0.862686,-0.610098,-0.862687,-0.604754,-0.863000,-0.604000,-0.863000,0.604000,-0.848355,0.639355,-0.813000,0.654000,0.813000,0.654000,0.848355,0.639355,0.848355,0.639355,
$1*%
G04 Aperture macros list end*
%ADD10C,0.580000*%
%ADD11O,2.101600X1.101600*%
%ADD12O,2.301600X1.201600*%
%ADD13C,1.320800*%
%ADD14FreePoly0,0.000000*%
%ADD15FreePoly1,270.000000*%
%ADD16FreePoly2,0.000000*%
%ADD17C,1.550800*%
%ADD18C,1.524000*%
%ADD19FreePoly0,180.000000*%
%ADD20FreePoly2,180.000000*%
%ADD21RoundRect,0.571500X0.000000X0.000000X0.000000X0.000000X0.000000X0.000000X0.000000X0.000000X0*%
%ADD22RoundRect,0.266700X-0.774700X-0.266700X0.774700X-0.266700X0.774700X0.266700X-0.774700X0.266700X0*%
%ADD23RoundRect,0.266700X0.774700X0.266700X-0.774700X0.266700X-0.774700X-0.266700X0.774700X-0.266700X0*%
%TA.AperFunction,Profile*%
%ADD24C,0.076200*%
%TD*%
%TA.AperFunction,Profile*%
%ADD25C,0.025400*%
%TD*%
G04 APERTURE END LIST*
D10*
%TO.C,USB1*%
X114231400Y-75755000D03*
X114231400Y-70005000D03*
D11*
X117881400Y-77180000D03*
X117881400Y-68580000D03*
D12*
X113681400Y-77180000D03*
X113681400Y-68580000D03*
%TD*%
D13*
%TO.C,U2*%
X116017700Y-63986000D03*
D14*
X116017700Y-64598000D03*
D15*
X116017700Y-65256000D03*
D13*
X113477700Y-63986000D03*
D16*
X113477700Y-64539000D03*
D13*
X110937700Y-63986000D03*
D14*
X110937700Y-64598000D03*
D17*
X110937700Y-65256000D03*
D13*
X108397700Y-63986000D03*
D14*
X108397700Y-64598000D03*
D17*
X108397700Y-65256000D03*
D13*
X105857700Y-63986000D03*
D14*
X105857700Y-64598000D03*
D17*
X105857700Y-65256000D03*
D13*
X103317700Y-63986000D03*
D16*
X103317700Y-64539000D03*
D13*
X100777700Y-63986000D03*
D14*
X100777700Y-64598000D03*
D17*
X100777700Y-65256000D03*
D18*
X100777700Y-80496000D03*
D19*
X100777700Y-81154000D03*
D13*
X100777700Y-81766000D03*
D20*
X103317700Y-81213000D03*
D13*
X103317700Y-81766000D03*
D17*
X105857700Y-80496000D03*
D19*
X105857700Y-81154000D03*
D13*
X105857700Y-81766000D03*
D17*
X108397700Y-80496000D03*
D19*
X108397700Y-81154000D03*
D13*
X108397700Y-81766000D03*
D17*
X110937700Y-80496000D03*
D19*
X110937700Y-81154000D03*
D13*
X110937700Y-81766000D03*
D20*
X113477700Y-81213000D03*
D13*
X113477700Y-81766000D03*
D17*
X116017700Y-80496000D03*
D19*
X116017700Y-81154000D03*
D13*
X116017700Y-81766000D03*
%TD*%
D21*
%TO.C,TP4*%
X111963200Y-71602600D03*
%TD*%
%TO.C,TP6*%
X111963200Y-74142600D03*
%TD*%
D22*
%TO.C,TP9*%
X102870000Y-71094600D03*
%TD*%
D21*
%TO.C,TP1*%
X109480000Y-74050000D03*
%TD*%
%TO.C,TP7*%
X117043200Y-74142600D03*
%TD*%
D23*
%TO.C,TP10*%
X102870000Y-73634600D03*
%TD*%
D21*
%TO.C,TP2*%
X109423200Y-71602600D03*
%TD*%
%TO.C,TP5*%
X117043200Y-71602600D03*
%TD*%
%TO.C,TP8*%
X114503200Y-71602600D03*
%TD*%
%TO.C,TP3*%
X114503200Y-74142600D03*
%TD*%
G36*
X107639039Y-75660885D02*
G01*
X107684794Y-75713689D01*
X107696000Y-75765200D01*
X107696000Y-76939600D01*
X107676315Y-77006639D01*
X107623511Y-77052394D01*
X107572000Y-77063600D01*
X106499200Y-77063600D01*
X106432161Y-77043915D01*
X106386406Y-76991111D01*
X106375200Y-76939600D01*
X106375200Y-75765200D01*
X106394885Y-75698161D01*
X106447689Y-75652406D01*
X106499200Y-75641200D01*
X107572000Y-75641200D01*
X107639039Y-75660885D01*
G37*
D24*
X103708200Y-79095600D02*
G75*
G02*
X103454200Y-79349600I-254000J0D01*
G01*
X102438200Y-79095600D02*
G75*
G02*
X102692200Y-78841600I254000J0D01*
G01*
X102692200Y-66395600D02*
X103454200Y-66395600D01*
X102692200Y-79349600D02*
G75*
G02*
X102438200Y-79095600I0J254000D01*
G01*
X103454200Y-66395600D02*
G75*
G02*
X103708200Y-66649600I0J-254000D01*
G01*
X103454200Y-66903600D02*
X102692200Y-66903600D01*
X102438200Y-66649600D02*
G75*
G02*
X102692200Y-66395600I254000J0D01*
G01*
X102692200Y-78841600D02*
X103454200Y-78841600D01*
X103454200Y-78841600D02*
G75*
G02*
X103708200Y-79095600I0J-254000D01*
G01*
X103454200Y-79349600D02*
X102692200Y-79349600D01*
X103708200Y-66649600D02*
G75*
G02*
X103454200Y-66903600I-254000J0D01*
G01*
X102692200Y-66903600D02*
G75*
G02*
X102438200Y-66649600I0J254000D01*
G01*
D25*
%TO.C,U2*%
X97983700Y-65891000D02*
X97983700Y-79861000D01*
X99888700Y-63986000D02*
X117033700Y-63986000D01*
X99888700Y-81766000D02*
X117033700Y-81766000D01*
X118938700Y-79861000D02*
X118938700Y-65891000D01*
X97983700Y-65891000D02*
G75*
G02*
X99888700Y-63986000I1905001J-1D01*
G01*
X99888700Y-81766000D02*
G75*
G02*
X97983700Y-79861000I1J1905001D01*
G01*
X117033700Y-63986000D02*
G75*
G02*
X118938700Y-65891000I0J-1905000D01*
G01*
X118938700Y-79861000D02*
G75*
G02*
X117033700Y-81766000I-1905000J0D01*
G01*
%TD*%
M02*
