%TF.GenerationSoftware,KiCad,Pcbnew,8.0.0*%
%TF.CreationDate,2025-02-11T16:30:35+08:00*%
%TF.ProjectId,XIAO ESP32 C6,5849414f-2045-4535-9033-322043362e6b,rev?*%
%TF.SameCoordinates,Original*%
%TF.FileFunction,Profile,NP*%
%FSLAX46Y46*%
G04 Gerber Fmt 4.6, Leading zero omitted, Abs format (unit mm)*
G04 Created by KiCad (PCBNEW 8.0.0) date 2025-02-11 16:30:35*
%MOMM*%
%LPD*%
G01*
G04 APERTURE LIST*
%TA.AperFunction,Profile*%
%ADD10C,0.076200*%
%TD*%
%TA.AperFunction,Profile*%
%ADD11C,0.025400*%
%TD*%
G04 APERTURE END LIST*
D10*
X103708200Y-79095600D02*
G75*
G02*
X103454200Y-79349600I-254000J0D01*
G01*
X102438200Y-79095600D02*
G75*
G02*
X102692200Y-78841600I254000J0D01*
G01*
X102692200Y-66395600D02*
X103454200Y-66395600D01*
X102692200Y-79349600D02*
G75*
G02*
X102438200Y-79095600I0J254000D01*
G01*
X103454200Y-66395600D02*
G75*
G02*
X103708200Y-66649600I0J-254000D01*
G01*
X103454200Y-66903600D02*
X102692200Y-66903600D01*
X102438200Y-66649600D02*
G75*
G02*
X102692200Y-66395600I254000J0D01*
G01*
X102692200Y-78841600D02*
X103454200Y-78841600D01*
X103454200Y-78841600D02*
G75*
G02*
X103708200Y-79095600I0J-254000D01*
G01*
X103454200Y-79349600D02*
X102692200Y-79349600D01*
X103708200Y-66649600D02*
G75*
G02*
X103454200Y-66903600I-254000J0D01*
G01*
X102692200Y-66903600D02*
G75*
G02*
X102438200Y-66649600I0J254000D01*
G01*
D11*
%TO.C,U2*%
X97983700Y-65891000D02*
X97983700Y-79861000D01*
X99888700Y-63986000D02*
X117033700Y-63986000D01*
X99888700Y-81766000D02*
X117033700Y-81766000D01*
X118938700Y-79861000D02*
X118938700Y-65891000D01*
X97983700Y-65891000D02*
G75*
G02*
X99888700Y-63986000I1905001J-1D01*
G01*
X99888700Y-81766000D02*
G75*
G02*
X97983700Y-79861000I1J1905001D01*
G01*
X117033700Y-63986000D02*
G75*
G02*
X118938700Y-65891000I0J-1905000D01*
G01*
X118938700Y-79861000D02*
G75*
G02*
X117033700Y-81766000I-1905000J0D01*
G01*
%TD*%
M02*
