<?xml version="1.0" standalone="no"?>
 <!DOCTYPE svg PUBLIC "-//W3C//DTD SVG 1.1//EN" 
 "http://www.w3.org/Graphics/SVG/1.1/DTD/svg11.dtd"> 
<svg
  xmlns:svg="http://www.w3.org/2000/svg"
  xmlns="http://www.w3.org/2000/svg"
  xmlns:xlink="http://www.w3.org/1999/xlink"
  version="1.1"
  width="297.0022mm" height="210.0072mm" viewBox="0.0000 0.0000 297.0022 210.0072">
<title>SVG Image created as RelaySwitch_C6-B_Cu.svg date 2026/03/09 13:05:11 </title>
  <desc>Image generated by PCBNEW </desc>
<g style="fill:#000000; fill-opacity:1.0000;stroke:#000000; stroke-opacity:1.0000;
stroke-linecap:round; stroke-linejoin:round;"
 transform="translate(0 0) scale(1 1)">
</g>
<g style="fill:#000000; fill-opacity:1.0000; stroke:none;">
<circle cx="191.5000" cy="57.5000" r="0.7540" /> 
</g>
<g style="fill:#000000; fill-opacity:1.0000; stroke:none;">
<circle cx="189.0000" cy="57.5000" r="0.7540" /> 
</g>
<g style="fill:#000000; fill-opacity:1.0000; stroke:none;">
<circle cx="172.5000" cy="57.5000" r="0.7540" /> 
</g>
<g style="fill:#000000; fill-opacity:1.0000; stroke:none;">
<circle cx="167.5000" cy="57.5000" r="0.7540" /> 
<path style="fill:#000000; fill-opacity:1.0000; stroke:none;fill-rule:evenodd;"
d="M 192.7000,79.8300
192.7107,79.7764
192.7410,79.7310
192.7864,79.7007
192.8400,79.6900
193.1200,79.6900
193.1736,79.7007
193.2190,79.7310
193.2493,79.7764
193.2600,79.8300
193.2600,80.1700
193.2493,80.2236
193.2190,80.2690
193.1736,80.2993
193.1200,80.3100
192.8400,80.3100
192.7864,80.2993
192.7410,80.2690
192.7107,80.2236
192.7000,80.1700
Z" /> 
<path style="fill:#000000; fill-opacity:1.0000; stroke:none;fill-rule:evenodd;"
d="M 191.7400,79.8300
191.7507,79.7764
191.7810,79.7310
191.8264,79.7007
191.8800,79.6900
192.1600,79.6900
192.2136,79.7007
192.2590,79.7310
192.2893,79.7764
192.3000,79.8300
192.3000,80.1700
192.2893,80.2236
192.2590,80.2690
192.2136,80.2993
192.1600,80.3100
191.8800,80.3100
191.8264,80.2993
191.7810,80.2690
191.7507,80.2236
191.7400,80.1700
Z" /> 
<path style="fill:#000000; fill-opacity:1.0000; stroke:none;fill-rule:evenodd;"
d="M 190.9500,79.4750
190.9310,79.5707
190.8768,79.6518
190.7957,79.7060
190.7000,79.7250
190.2000,79.7250
190.1043,79.7060
190.0232,79.6518
189.9690,79.5707
189.9500,79.4750
189.9500,78.5250
189.9690,78.4293
190.0232,78.3482
190.1043,78.2940
190.2000,78.2750
190.7000,78.2750
190.7957,78.2940
190.8768,78.3482
190.9310,78.4293
190.9500,78.5250
Z" /> 
<path style="fill:#000000; fill-opacity:1.0000; stroke:none;fill-rule:evenodd;"
d="M 189.0500,79.4750
189.0310,79.5707
188.9768,79.6518
188.8957,79.7060
188.8000,79.7250
188.3000,79.7250
188.2043,79.7060
188.1232,79.6518
188.0690,79.5707
188.0500,79.4750
188.0500,78.5250
188.0690,78.4293
188.1232,78.3482
188.2043,78.2940
188.3000,78.2750
188.8000,78.2750
188.8957,78.2940
188.9768,78.3482
189.0310,78.4293
189.0500,78.5250
Z" /> 
</g>
<g style="fill:#000000; fill-opacity:1.0000; stroke:none;">
<circle cx="147.5000" cy="76.0000" r="1.0000" /> 
</g>
<g style="fill:#000000; fill-opacity:1.0000; stroke:none;">
<circle cx="147.5000" cy="81.0000" r="1.0000" /> 
</g>
<g style="fill:#000000; fill-opacity:1.0000; stroke:none;">
<circle cx="158.5000" cy="53.3500" r="0.8000" /> 
</g>
<g style="fill:#000000; fill-opacity:1.0000; stroke:none;">
<circle cx="163.5000" cy="54.6500" r="0.8000" /> 
</g>
<g style="fill:#000000; fill-opacity:1.0000; stroke:none;">
<circle cx="147.5000" cy="94.2500" r="1.0000" /> 
</g>
<g style="fill:#000000; fill-opacity:1.0000; stroke:none;">
<circle cx="147.5000" cy="99.2500" r="1.0000" /> 
<path style="fill:#000000; fill-opacity:1.0000; stroke:none;fill-rule:evenodd;"
d="M 155.7750,75.1500
155.7750,77.4500
153.4750,77.4500
153.4750,75.1500
Z" /> 
</g>
<g style="fill:#000000; fill-opacity:1.0000; stroke:none;">
<circle cx="164.7850" cy="76.3000" r="1.1500" /> 
</g>
<g style="fill:#000000; fill-opacity:1.0000; stroke:none;">
<circle cx="172.4050" cy="76.3000" r="1.1500" /> 
</g>
<g style="fill:#000000; fill-opacity:1.0000; stroke:none;">
<circle cx="169.8650" cy="68.6800" r="1.1500" /> 
</g>
<g style="fill:#000000; fill-opacity:1.0000; stroke:none;">
<circle cx="154.6250" cy="68.6800" r="1.1500" /> 
<path style="fill:#000000; fill-opacity:1.0000; stroke:none;fill-rule:evenodd;"
d="M 156.0300,81.7750
153.7300,81.7750
153.7300,79.4750
156.0300,79.4750
Z" /> 
</g>
<g style="fill:#000000; fill-opacity:1.0000; stroke:none;">
<circle cx="154.8800" cy="90.7850" r="1.1500" /> 
</g>
<g style="fill:#000000; fill-opacity:1.0000; stroke:none;">
<circle cx="154.8800" cy="98.4050" r="1.1500" /> 
</g>
<g style="fill:#000000; fill-opacity:1.0000; stroke:none;">
<circle cx="162.5000" cy="95.8650" r="1.1500" /> 
</g>
<g style="fill:#000000; fill-opacity:1.0000; stroke:none;">
<circle cx="162.5000" cy="80.6250" r="1.1500" /> 
</g>
<g style="fill:#000000; fill-opacity:1.0000; stroke:none;">
<circle cx="147.5000" cy="66.0000" r="1.0000" /> 
</g>
<g style="fill:#000000; fill-opacity:1.0000; stroke:none;">
<circle cx="147.5000" cy="71.0000" r="1.0000" /> 
</g>
<g style="fill:#000000; fill-opacity:1.0000; stroke:none;">
<circle cx="147.5000" cy="86.0000" r="1.0000" /> 
</g>
<g style="fill:#000000; fill-opacity:1.0000; stroke:none;">
<circle cx="147.5000" cy="91.0000" r="1.0000" /> 
</g>
<g style="fill:#000000; fill-opacity:1.0000; stroke:none;">
<circle cx="147.5000" cy="51.0000" r="1.1500" /> 
</g>
<g style="fill:#000000; fill-opacity:1.0000; stroke:none;">
<circle cx="147.5000" cy="56.0000" r="1.1500" /> 
</g>
<g style="fill:#000000; fill-opacity:1.0000; stroke:none;">
<circle cx="147.5000" cy="61.0000" r="1.1500" /> 
</g>
<g style="fill:#000000; fill-opacity:1.0000; stroke:none;">
<circle cx="191.5000" cy="98.0000" r="0.7620" /> 
<path style="fill:#000000; fill-opacity:1.0000; stroke:none;fill-rule:evenodd;"
d="M 192.1096,97.6190
192.1679,97.6306
192.2174,97.6636
192.2504,97.7131
192.2620,97.7714
192.2620,99.8986
192.2504,99.9569
192.2174,100.0064
192.1679,100.0394
192.1096,100.0510
190.8904,100.0510
190.8321,100.0394
190.7826,100.0064
190.7496,99.9569
190.7380,99.8986
190.7380,97.7714
190.7496,97.7131
190.7826,97.6636
190.8321,97.6306
190.8904,97.6190
Z" /> 
</g>
<g style="fill:#000000; fill-opacity:1.0000; stroke:none;">
<circle cx="188.9600" cy="98.0000" r="0.7620" /> 
<path style="fill:#000000; fill-opacity:1.0000; stroke:none;fill-rule:evenodd;"
d="M 189.5696,97.6190
189.6279,97.6306
189.6774,97.6636
189.7104,97.7131
189.7220,97.7714
189.7220,99.8986
189.7104,99.9569
189.6774,100.0064
189.6279,100.0394
189.5696,100.0510
188.3504,100.0510
188.2921,100.0394
188.2426,100.0064
188.2096,99.9569
188.1980,99.8986
188.1980,97.7714
188.2096,97.7131
188.2426,97.6636
188.2921,97.6306
188.3504,97.6190
Z" /> 
</g>
<g style="fill:#000000; fill-opacity:1.0000; stroke:none;">
<circle cx="186.4200" cy="98.0000" r="0.7620" /> 
<path style="fill:#000000; fill-opacity:1.0000; stroke:none;fill-rule:evenodd;"
d="M 187.0296,97.6190
187.0879,97.6306
187.1374,97.6636
187.1704,97.7131
187.1820,97.7714
187.1820,99.8986
187.1704,99.9569
187.1374,100.0064
187.0879,100.0394
187.0296,100.0510
185.8104,100.0510
185.7521,100.0394
185.7026,100.0064
185.6696,99.9569
185.6580,99.8986
185.6580,97.7714
185.6696,97.7131
185.7026,97.6636
185.7521,97.6306
185.8104,97.6190
Z" /> 
</g>
<g style="fill:#000000; fill-opacity:1.0000; stroke:none;">
<circle cx="183.8800" cy="98.0000" r="0.7620" /> 
<path style="fill:#000000; fill-opacity:1.0000; stroke:none;fill-rule:evenodd;"
d="M 184.4896,97.6190
184.5479,97.6306
184.5974,97.6636
184.6304,97.7131
184.6420,97.7714
184.6420,99.8986
184.6304,99.9569
184.5974,100.0064
184.5479,100.0394
184.4896,100.0510
183.2704,100.0510
183.2121,100.0394
183.1626,100.0064
183.1296,99.9569
183.1180,99.8986
183.1180,97.7714
183.1296,97.7131
183.1626,97.6636
183.2121,97.6306
183.2704,97.6190
Z" /> 
</g>
<g style="fill:#000000; fill-opacity:1.0000; stroke:none;">
<circle cx="181.3400" cy="98.0000" r="0.7620" /> 
<path style="fill:#000000; fill-opacity:1.0000; stroke:none;fill-rule:evenodd;"
d="M 181.9496,97.6190
182.0079,97.6306
182.0574,97.6636
182.0904,97.7131
182.1020,97.7714
182.1020,99.8986
182.0904,99.9569
182.0574,100.0064
182.0079,100.0394
181.9496,100.0510
180.7304,100.0510
180.6721,100.0394
180.6226,100.0064
180.5896,99.9569
180.5780,99.8986
180.5780,97.7714
180.5896,97.7131
180.6226,97.6636
180.6721,97.6306
180.7304,97.6190
Z" /> 
</g>
<g style="fill:#000000; fill-opacity:1.0000; stroke:none;">
<circle cx="178.8000" cy="98.0000" r="0.7620" /> 
<path style="fill:#000000; fill-opacity:1.0000; stroke:none;fill-rule:evenodd;"
d="M 179.4096,97.6190
179.4679,97.6306
179.5174,97.6636
179.5504,97.7131
179.5620,97.7714
179.5620,99.8986
179.5504,99.9569
179.5174,100.0064
179.4679,100.0394
179.4096,100.0510
178.1904,100.0510
178.1321,100.0394
178.0826,100.0064
178.0496,99.9569
178.0380,99.8986
178.0380,97.7714
178.0496,97.7131
178.0826,97.6636
178.1321,97.6306
178.1904,97.6190
Z" /> 
</g>
<g style="fill:#000000; fill-opacity:1.0000; stroke:none;">
<circle cx="176.2600" cy="98.0000" r="0.7620" /> 
<path style="fill:#000000; fill-opacity:1.0000; stroke:none;fill-rule:evenodd;"
d="M 176.8696,97.6190
176.9279,97.6306
176.9774,97.6636
177.0104,97.7131
177.0220,97.7714
177.0220,99.8986
177.0104,99.9569
176.9774,100.0064
176.9279,100.0394
176.8696,100.0510
175.6504,100.0510
175.5921,100.0394
175.5426,100.0064
175.5096,99.9569
175.4980,99.8986
175.4980,97.7714
175.5096,97.7131
175.5426,97.6636
175.5921,97.6306
175.6504,97.6190
Z" /> 
<path style="fill:#000000; fill-opacity:1.0000; stroke:none;fill-rule:evenodd;"
d="M 175.6504,83.1410
175.5921,83.1294
175.5426,83.0964
175.5096,83.0469
175.4980,82.9886
175.4980,80.8614
175.5096,80.8031
175.5426,80.7536
175.5921,80.7206
175.6504,80.7090
176.8696,80.7090
176.9279,80.7206
176.9774,80.7536
177.0104,80.8031
177.0220,80.8614
177.0220,82.9886
177.0104,83.0469
176.9774,83.0964
176.9279,83.1294
176.8696,83.1410
Z" /> 
</g>
<g style="fill:#000000; fill-opacity:1.0000; stroke:none;">
<circle cx="176.2600" cy="82.7600" r="0.7620" /> 
<path style="fill:#000000; fill-opacity:1.0000; stroke:none;fill-rule:evenodd;"
d="M 178.1904,83.1410
178.1321,83.1294
178.0826,83.0964
178.0496,83.0469
178.0380,82.9886
178.0380,80.8614
178.0496,80.8031
178.0826,80.7536
178.1321,80.7206
178.1904,80.7090
179.4096,80.7090
179.4679,80.7206
179.5174,80.7536
179.5504,80.8031
179.5620,80.8614
179.5620,82.9886
179.5504,83.0469
179.5174,83.0964
179.4679,83.1294
179.4096,83.1410
Z" /> 
</g>
<g style="fill:#000000; fill-opacity:1.0000; stroke:none;">
<circle cx="178.8000" cy="82.7600" r="0.7620" /> 
<path style="fill:#000000; fill-opacity:1.0000; stroke:none;fill-rule:evenodd;"
d="M 180.7304,83.1410
180.6721,83.1294
180.6226,83.0964
180.5896,83.0469
180.5780,82.9886
180.5780,80.8614
180.5896,80.8031
180.6226,80.7536
180.6721,80.7206
180.7304,80.7090
181.9496,80.7090
182.0079,80.7206
182.0574,80.7536
182.0904,80.8031
182.1020,80.8614
182.1020,82.9886
182.0904,83.0469
182.0574,83.0964
182.0079,83.1294
181.9496,83.1410
Z" /> 
</g>
<g style="fill:#000000; fill-opacity:1.0000; stroke:none;">
<circle cx="181.3400" cy="82.7600" r="0.7620" /> 
<path style="fill:#000000; fill-opacity:1.0000; stroke:none;fill-rule:evenodd;"
d="M 183.2704,83.1410
183.2121,83.1294
183.1626,83.0964
183.1296,83.0469
183.1180,82.9886
183.1180,80.8614
183.1296,80.8031
183.1626,80.7536
183.2121,80.7206
183.2704,80.7090
184.4896,80.7090
184.5479,80.7206
184.5974,80.7536
184.6304,80.8031
184.6420,80.8614
184.6420,82.9886
184.6304,83.0469
184.5974,83.0964
184.5479,83.1294
184.4896,83.1410
Z" /> 
</g>
<g style="fill:#000000; fill-opacity:1.0000; stroke:none;">
<circle cx="183.8800" cy="82.7600" r="0.7620" /> 
<path style="fill:#000000; fill-opacity:1.0000; stroke:none;fill-rule:evenodd;"
d="M 185.8104,83.1410
185.7521,83.1294
185.7026,83.0964
185.6696,83.0469
185.6580,82.9886
185.6580,80.8614
185.6696,80.8031
185.7026,80.7536
185.7521,80.7206
185.8104,80.7090
187.0296,80.7090
187.0879,80.7206
187.1374,80.7536
187.1704,80.8031
187.1820,80.8614
187.1820,82.9886
187.1704,83.0469
187.1374,83.0964
187.0879,83.1294
187.0296,83.1410
Z" /> 
</g>
<g style="fill:#000000; fill-opacity:1.0000; stroke:none;">
<circle cx="186.4200" cy="82.7600" r="0.7620" /> 
<path style="fill:#000000; fill-opacity:1.0000; stroke:none;fill-rule:evenodd;"
d="M 188.3504,83.1410
188.2921,83.1294
188.2426,83.0964
188.2096,83.0469
188.1980,82.9886
188.1980,80.8614
188.2096,80.8031
188.2426,80.7536
188.2921,80.7206
188.3504,80.7090
189.5696,80.7090
189.6279,80.7206
189.6774,80.7536
189.7104,80.8031
189.7220,80.8614
189.7220,82.9886
189.7104,83.0469
189.6774,83.0964
189.6279,83.1294
189.5696,83.1410
Z" /> 
</g>
<g style="fill:#000000; fill-opacity:1.0000; stroke:none;">
<circle cx="188.9600" cy="82.7600" r="0.7620" /> 
<path style="fill:#000000; fill-opacity:1.0000; stroke:none;fill-rule:evenodd;"
d="M 190.8904,83.1410
190.8321,83.1294
190.7826,83.0964
190.7496,83.0469
190.7380,82.9886
190.7380,80.8614
190.7496,80.8031
190.7826,80.7536
190.8321,80.7206
190.8904,80.7090
192.1096,80.7090
192.1679,80.7206
192.2174,80.7536
192.2504,80.8031
192.2620,80.8614
192.2620,82.9886
192.2504,83.0469
192.2174,83.0964
192.1679,83.1294
192.1096,83.1410
Z" /> 
</g>
<g style="fill:#000000; fill-opacity:1.0000; stroke:none;">
<circle cx="191.5000" cy="82.7600" r="0.7620" /> 
<path style="fill:#000000; fill-opacity:1.0000; stroke:none;fill-rule:evenodd;"
d="M 190.6250,72.8250
190.6824,72.8364
190.7311,72.8689
190.7636,72.9176
190.7750,72.9750
190.7750,74.1500
190.7636,74.2074
190.7311,74.2561
190.6824,74.2886
190.6250,74.3000
190.3250,74.3000
190.2676,74.2886
190.2189,74.2561
190.1864,74.2074
190.1750,74.1500
190.1750,72.9750
190.1864,72.9176
190.2189,72.8689
190.2676,72.8364
190.3250,72.8250
Z" /> 
<path style="fill:#000000; fill-opacity:1.0000; stroke:none;fill-rule:evenodd;"
d="M 192.5250,72.8250
192.5824,72.8364
192.6311,72.8689
192.6636,72.9176
192.6750,72.9750
192.6750,74.1500
192.6636,74.2074
192.6311,74.2561
192.5824,74.2886
192.5250,74.3000
192.2250,74.3000
192.1676,74.2886
192.1189,74.2561
192.0864,74.2074
192.0750,74.1500
192.0750,72.9750
192.0864,72.9176
192.1189,72.8689
192.1676,72.8364
192.2250,72.8250
Z" /> 
<path style="fill:#000000; fill-opacity:1.0000; stroke:none;fill-rule:evenodd;"
d="M 191.5750,74.7000
191.6324,74.7114
191.6811,74.7439
191.7136,74.7926
191.7250,74.8500
191.7250,76.0250
191.7136,76.0824
191.6811,76.1311
191.6324,76.1636
191.5750,76.1750
191.2750,76.1750
191.2176,76.1636
191.1689,76.1311
191.1364,76.0824
191.1250,76.0250
191.1250,74.8500
191.1364,74.7926
191.1689,74.7439
191.2176,74.7114
191.2750,74.7000
Z" /> 
<path style="fill:#000000; fill-opacity:1.0000; stroke:none;fill-rule:evenodd;"
d="M 186.2000,79.3300
186.2107,79.2764
186.2410,79.2310
186.2864,79.2007
186.3400,79.1900
186.6200,79.1900
186.6736,79.2007
186.7190,79.2310
186.7493,79.2764
186.7600,79.3300
186.7600,79.6700
186.7493,79.7236
186.7190,79.7690
186.6736,79.7993
186.6200,79.8100
186.3400,79.8100
186.2864,79.7993
186.2410,79.7690
186.2107,79.7236
186.2000,79.6700
Z" /> 
<path style="fill:#000000; fill-opacity:1.0000; stroke:none;fill-rule:evenodd;"
d="M 185.2400,79.3300
185.2507,79.2764
185.2810,79.2310
185.3264,79.2007
185.3800,79.1900
185.6600,79.1900
185.7136,79.2007
185.7590,79.2310
185.7893,79.2764
185.8000,79.3300
185.8000,79.6700
185.7893,79.7236
185.7590,79.7690
185.7136,79.7993
185.6600,79.8100
185.3800,79.8100
185.3264,79.7993
185.2810,79.7690
185.2507,79.7236
185.2400,79.6700
Z" /> 
<path style="fill:#000000; fill-opacity:1.0000; stroke:none;fill-rule:evenodd;"
d="M 186.6700,69.8150
186.6803,69.7633
186.7095,69.7195
186.7533,69.6903
186.8050,69.6800
187.0750,69.6800
187.1267,69.6903
187.1705,69.7195
187.1997,69.7633
187.2100,69.8150
187.2100,70.1850
187.1997,70.2367
187.1705,70.2805
187.1267,70.3097
187.0750,70.3200
186.8050,70.3200
186.7533,70.3097
186.7095,70.2805
186.6803,70.2367
186.6700,70.1850
Z" /> 
<path style="fill:#000000; fill-opacity:1.0000; stroke:none;fill-rule:evenodd;"
d="M 187.6900,69.8150
187.7003,69.7633
187.7295,69.7195
187.7733,69.6903
187.8250,69.6800
188.0950,69.6800
188.1467,69.6903
188.1905,69.7195
188.2197,69.7633
188.2300,69.8150
188.2300,70.1850
188.2197,70.2367
188.1905,70.2805
188.1467,70.3097
188.0950,70.3200
187.8250,70.3200
187.7733,70.3097
187.7295,70.2805
187.7003,70.2367
187.6900,70.1850
Z" /> 
<path style="fill:#000000; fill-opacity:1.0000; stroke:none;fill-rule:evenodd;"
d="M 170.2450,91.2400
170.2986,91.2507
170.3440,91.2810
170.3743,91.3264
170.3850,91.3800
170.3850,91.6600
170.3743,91.7136
170.3440,91.7590
170.2986,91.7893
170.2450,91.8000
169.9050,91.8000
169.8514,91.7893
169.8060,91.7590
169.7757,91.7136
169.7650,91.6600
169.7650,91.3800
169.7757,91.3264
169.8060,91.2810
169.8514,91.2507
169.9050,91.2400
Z" /> 
<path style="fill:#000000; fill-opacity:1.0000; stroke:none;fill-rule:evenodd;"
d="M 170.2450,92.2000
170.2986,92.2107
170.3440,92.2410
170.3743,92.2864
170.3850,92.3400
170.3850,92.6200
170.3743,92.6736
170.3440,92.7190
170.2986,92.7493
170.2450,92.7600
169.9050,92.7600
169.8514,92.7493
169.8060,92.7190
169.7757,92.6736
169.7650,92.6200
169.7650,92.3400
169.7757,92.2864
169.8060,92.2410
169.8514,92.2107
169.9050,92.2000
Z" /> 
<path style="fill:#000000; fill-opacity:1.0000; stroke:none;fill-rule:evenodd;"
d="M 165.2375,99.7300
165.2375,99.0800
166.7625,99.0800
166.7625,99.7300
Z" /> 
<path style="fill:#000000; fill-opacity:1.0000; stroke:none;fill-rule:evenodd;"
d="M 165.2375,98.4600
165.2375,97.8100
166.7625,97.8100
166.7625,98.4600
Z" /> 
<path style="fill:#000000; fill-opacity:1.0000; stroke:none;fill-rule:evenodd;"
d="M 165.2375,97.1900
165.2375,96.5400
166.7625,96.5400
166.7625,97.1900
Z" /> 
<path style="fill:#000000; fill-opacity:1.0000; stroke:none;fill-rule:evenodd;"
d="M 165.2375,95.9200
165.2375,95.2700
166.7625,95.2700
166.7625,95.9200
Z" /> 
<path style="fill:#000000; fill-opacity:1.0000; stroke:none;fill-rule:evenodd;"
d="M 170.6615,95.9200
170.6615,95.2700
172.1865,95.2700
172.1865,95.9200
Z" /> 
<path style="fill:#000000; fill-opacity:1.0000; stroke:none;fill-rule:evenodd;"
d="M 170.6615,97.1900
170.6615,96.5400
172.1865,96.5400
172.1865,97.1900
Z" /> 
<path style="fill:#000000; fill-opacity:1.0000; stroke:none;fill-rule:evenodd;"
d="M 170.6615,98.4600
170.6615,97.8100
172.1865,97.8100
172.1865,98.4600
Z" /> 
<path style="fill:#000000; fill-opacity:1.0000; stroke:none;fill-rule:evenodd;"
d="M 170.6615,99.7300
170.6615,99.0800
172.1865,99.0800
172.1865,99.7300
Z" /> 
<path style="fill:#000000; fill-opacity:1.0000; stroke:none;fill-rule:evenodd;"
d="M 170.7800,86.6850
170.7697,86.7367
170.7405,86.7805
170.6967,86.8097
170.6450,86.8200
170.3750,86.8200
170.3233,86.8097
170.2795,86.7805
170.2503,86.7367
170.2400,86.6850
170.2400,86.3150
170.2503,86.2633
170.2795,86.2195
170.3233,86.1903
170.3750,86.1800
170.6450,86.1800
170.6967,86.1903
170.7405,86.2195
170.7697,86.2633
170.7800,86.3150
Z" /> 
<path style="fill:#000000; fill-opacity:1.0000; stroke:none;fill-rule:evenodd;"
d="M 169.7600,86.6850
169.7497,86.7367
169.7205,86.7805
169.6767,86.8097
169.6250,86.8200
169.3550,86.8200
169.3033,86.8097
169.2595,86.7805
169.2303,86.7367
169.2200,86.6850
169.2200,86.3150
169.2303,86.2633
169.2595,86.2195
169.3033,86.1903
169.3550,86.1800
169.6250,86.1800
169.6767,86.1903
169.7205,86.2195
169.7497,86.2633
169.7600,86.3150
Z" /> 
<path style="fill:#000000; fill-opacity:1.0000; stroke:none;fill-rule:evenodd;"
d="M 188.4250,71.7750
188.4098,71.8515
188.3664,71.9164
188.3015,71.9598
188.2250,71.9750
187.8250,71.9750
187.7485,71.9598
187.6836,71.9164
187.6402,71.8515
187.6250,71.7750
187.6250,71.2250
187.6402,71.1485
187.6836,71.0836
187.7485,71.0402
187.8250,71.0250
188.2250,71.0250
188.3015,71.0402
188.3664,71.0836
188.4098,71.1485
188.4250,71.2250
Z" /> 
<path style="fill:#000000; fill-opacity:1.0000; stroke:none;fill-rule:evenodd;"
d="M 186.7750,71.7750
186.7598,71.8515
186.7164,71.9164
186.6515,71.9598
186.5750,71.9750
186.1750,71.9750
186.0985,71.9598
186.0336,71.9164
185.9902,71.8515
185.9750,71.7750
185.9750,71.2250
185.9902,71.1485
186.0336,71.0836
186.0985,71.0402
186.1750,71.0250
186.5750,71.0250
186.6515,71.0402
186.7164,71.0836
186.7598,71.1485
186.7750,71.2250
Z" /> 
<path style="fill:#000000; fill-opacity:1.0000; stroke:none;fill-rule:evenodd;"
d="M 169.7700,84.1850
169.7597,84.2367
169.7305,84.2805
169.6867,84.3097
169.6350,84.3200
169.3650,84.3200
169.3133,84.3097
169.2695,84.2805
169.2403,84.2367
169.2300,84.1850
169.2300,83.8150
169.2403,83.7633
169.2695,83.7195
169.3133,83.6903
169.3650,83.6800
169.6350,83.6800
169.6867,83.6903
169.7305,83.7195
169.7597,83.7633
169.7700,83.8150
Z" /> 
<path style="fill:#000000; fill-opacity:1.0000; stroke:none;fill-rule:evenodd;"
d="M 168.7500,84.1850
168.7397,84.2367
168.7105,84.2805
168.6667,84.3097
168.6150,84.3200
168.3450,84.3200
168.2933,84.3097
168.2495,84.2805
168.2203,84.2367
168.2100,84.1850
168.2100,83.8150
168.2203,83.7633
168.2495,83.7195
168.2933,83.6903
168.3450,83.6800
168.6150,83.6800
168.6667,83.6903
168.7105,83.7195
168.7397,83.7633
168.7500,83.8150
Z" /> 
<path style="fill:#000000; fill-opacity:1.0000; stroke:none;fill-rule:evenodd;"
d="M 169.7800,82.1850
169.7697,82.2367
169.7405,82.2805
169.6967,82.3097
169.6450,82.3200
169.3750,82.3200
169.3233,82.3097
169.2795,82.2805
169.2503,82.2367
169.2400,82.1850
169.2400,81.8150
169.2503,81.7633
169.2795,81.7195
169.3233,81.6903
169.3750,81.6800
169.6450,81.6800
169.6967,81.6903
169.7405,81.7195
169.7697,81.7633
169.7800,81.8150
Z" /> 
<path style="fill:#000000; fill-opacity:1.0000; stroke:none;fill-rule:evenodd;"
d="M 168.7600,82.1850
168.7497,82.2367
168.7205,82.2805
168.6767,82.3097
168.6250,82.3200
168.3550,82.3200
168.3033,82.3097
168.2595,82.2805
168.2303,82.2367
168.2200,82.1850
168.2200,81.8150
168.2303,81.7633
168.2595,81.7195
168.3033,81.6903
168.3550,81.6800
168.6250,81.6800
168.6767,81.6903
168.7205,81.7195
168.7497,81.7633
168.7600,81.8150
Z" /> 
<path style="fill:#000000; fill-opacity:1.0000; stroke:none;fill-rule:evenodd;"
d="M 170.7800,89.1850
170.7697,89.2367
170.7405,89.2805
170.6967,89.3097
170.6450,89.3200
170.3750,89.3200
170.3233,89.3097
170.2795,89.2805
170.2503,89.2367
170.2400,89.1850
170.2400,88.8150
170.2503,88.7633
170.2795,88.7195
170.3233,88.6903
170.3750,88.6800
170.6450,88.6800
170.6967,88.6903
170.7405,88.7195
170.7697,88.7633
170.7800,88.8150
Z" /> 
<path style="fill:#000000; fill-opacity:1.0000; stroke:none;fill-rule:evenodd;"
d="M 169.7600,89.1850
169.7497,89.2367
169.7205,89.2805
169.6767,89.3097
169.6250,89.3200
169.3550,89.3200
169.3033,89.3097
169.2595,89.2805
169.2303,89.2367
169.2200,89.1850
169.2200,88.8150
169.2303,88.7633
169.2595,88.7195
169.3033,88.6903
169.3550,88.6800
169.6250,88.6800
169.6767,88.6903
169.7205,88.7195
169.7497,88.7633
169.7600,88.8150
Z" /> 
<path style="fill:#000000; fill-opacity:1.0000; stroke:none;fill-rule:evenodd;"
d="M 186.2000,72.7625
186.2574,72.7739
186.3061,72.8064
186.3386,72.8551
186.3500,72.9125
186.3500,74.0875
186.3386,74.1449
186.3061,74.1936
186.2574,74.2261
186.2000,74.2375
185.9000,74.2375
185.8426,74.2261
185.7939,74.1936
185.7614,74.1449
185.7500,74.0875
185.7500,72.9125
185.7614,72.8551
185.7939,72.8064
185.8426,72.7739
185.9000,72.7625
Z" /> 
<path style="fill:#000000; fill-opacity:1.0000; stroke:none;fill-rule:evenodd;"
d="M 188.1000,72.7625
188.1574,72.7739
188.2061,72.8064
188.2386,72.8551
188.2500,72.9125
188.2500,74.0875
188.2386,74.1449
188.2061,74.1936
188.1574,74.2261
188.1000,74.2375
187.8000,74.2375
187.7426,74.2261
187.6939,74.1936
187.6614,74.1449
187.6500,74.0875
187.6500,72.9125
187.6614,72.8551
187.6939,72.8064
187.7426,72.7739
187.8000,72.7625
Z" /> 
<path style="fill:#000000; fill-opacity:1.0000; stroke:none;fill-rule:evenodd;"
d="M 187.1500,74.6375
187.2074,74.6489
187.2561,74.6814
187.2886,74.7301
187.3000,74.7875
187.3000,75.9625
187.2886,76.0199
187.2561,76.0686
187.2074,76.1011
187.1500,76.1125
186.8500,76.1125
186.7926,76.1011
186.7439,76.0686
186.7114,76.0199
186.7000,75.9625
186.7000,74.7875
186.7114,74.7301
186.7439,74.6814
186.7926,74.6489
186.8500,74.6375
Z" /> 
<path style="fill:#000000; fill-opacity:1.0000; stroke:none;fill-rule:evenodd;"
d="M 172.7800,82.6850
172.7697,82.7367
172.7405,82.7805
172.6967,82.8097
172.6450,82.8200
172.3750,82.8200
172.3233,82.8097
172.2795,82.7805
172.2503,82.7367
172.2400,82.6850
172.2400,82.3150
172.2503,82.2633
172.2795,82.2195
172.3233,82.1903
172.3750,82.1800
172.6450,82.1800
172.6967,82.1903
172.7405,82.2195
172.7697,82.2633
172.7800,82.3150
Z" /> 
<path style="fill:#000000; fill-opacity:1.0000; stroke:none;fill-rule:evenodd;"
d="M 171.7600,82.6850
171.7497,82.7367
171.7205,82.7805
171.6767,82.8097
171.6250,82.8200
171.3550,82.8200
171.3033,82.8097
171.2595,82.7805
171.2303,82.7367
171.2200,82.6850
171.2200,82.3150
171.2303,82.2633
171.2595,82.2195
171.3033,82.1903
171.3550,82.1800
171.6250,82.1800
171.6767,82.1903
171.7205,82.2195
171.7497,82.2633
171.7600,82.3150
Z" /> 
<path style="fill:#000000; fill-opacity:1.0000; stroke:none;fill-rule:evenodd;"
d="M 177.8500,76.7500
177.7543,76.7310
177.6732,76.6768
177.6190,76.5957
177.6000,76.5000
177.6000,74.5000
177.6190,74.4043
177.6732,74.3232
177.7543,74.2690
177.8500,74.2500
179.1500,74.2500
179.2457,74.2690
179.3268,74.3232
179.3810,74.4043
179.4000,74.5000
179.4000,76.5000
179.3810,76.5957
179.3268,76.6768
179.2457,76.7310
179.1500,76.7500
Z" /> 
<path style="fill:#000000; fill-opacity:1.0000; stroke:none;fill-rule:evenodd;"
d="M 177.8500,72.7500
177.7543,72.7310
177.6732,72.6768
177.6190,72.5957
177.6000,72.5000
177.6000,70.5000
177.6190,70.4043
177.6732,70.3232
177.7543,70.2690
177.8500,70.2500
179.1500,70.2500
179.2457,70.2690
179.3268,70.3232
179.3810,70.4043
179.4000,70.5000
179.4000,72.5000
179.3810,72.5957
179.3268,72.6768
179.2457,72.7310
179.1500,72.7500
Z" /> 
<path style="fill:#000000; fill-opacity:1.0000; stroke:none;fill-rule:evenodd;"
d="M 190.6450,69.8150
190.6553,69.7633
190.6845,69.7195
190.7283,69.6903
190.7800,69.6800
191.0500,69.6800
191.1017,69.6903
191.1455,69.7195
191.1747,69.7633
191.1850,69.8150
191.1850,70.1850
191.1747,70.2367
191.1455,70.2805
191.1017,70.3097
191.0500,70.3200
190.7800,70.3200
190.7283,70.3097
190.6845,70.2805
190.6553,70.2367
190.6450,70.1850
Z" /> 
<path style="fill:#000000; fill-opacity:1.0000; stroke:none;fill-rule:evenodd;"
d="M 191.6650,69.8150
191.6753,69.7633
191.7045,69.7195
191.7483,69.6903
191.8000,69.6800
192.0700,69.6800
192.1217,69.6903
192.1655,69.7195
192.1947,69.7633
192.2050,69.8150
192.2050,70.1850
192.1947,70.2367
192.1655,70.2805
192.1217,70.3097
192.0700,70.3200
191.8000,70.3200
191.7483,70.3097
191.7045,70.2805
191.6753,70.2367
191.6650,70.1850
Z" /> 
<path style="fill:#000000; fill-opacity:1.0000; stroke:none;fill-rule:evenodd;"
d="M 183.1500,70.2500
183.2457,70.2690
183.3268,70.3232
183.3810,70.4043
183.4000,70.5000
183.4000,72.5000
183.3810,72.5957
183.3268,72.6768
183.2457,72.7310
183.1500,72.7500
181.8500,72.7500
181.7543,72.7310
181.6732,72.6768
181.6190,72.5957
181.6000,72.5000
181.6000,70.5000
181.6190,70.4043
181.6732,70.3232
181.7543,70.2690
181.8500,70.2500
Z" /> 
<path style="fill:#000000; fill-opacity:1.0000; stroke:none;fill-rule:evenodd;"
d="M 183.1500,74.2500
183.2457,74.2690
183.3268,74.3232
183.3810,74.4043
183.4000,74.5000
183.4000,76.5000
183.3810,76.5957
183.3268,76.6768
183.2457,76.7310
183.1500,76.7500
181.8500,76.7500
181.7543,76.7310
181.6732,76.6768
181.6190,76.5957
181.6000,76.5000
181.6000,74.5000
181.6190,74.4043
181.6732,74.3232
181.7543,74.2690
181.8500,74.2500
Z" /> 
<path style="fill:#000000; fill-opacity:1.0000; stroke:none;fill-rule:evenodd;"
d="M 168.7150,91.2400
168.7686,91.2507
168.8140,91.2810
168.8443,91.3264
168.8550,91.3800
168.8550,91.6600
168.8443,91.7136
168.8140,91.7590
168.7686,91.7893
168.7150,91.8000
168.3750,91.8000
168.3214,91.7893
168.2760,91.7590
168.2457,91.7136
168.2350,91.6600
168.2350,91.3800
168.2457,91.3264
168.2760,91.2810
168.3214,91.2507
168.3750,91.2400
Z" /> 
<path style="fill:#000000; fill-opacity:1.0000; stroke:none;fill-rule:evenodd;"
d="M 168.7150,92.2000
168.7686,92.2107
168.8140,92.2410
168.8443,92.2864
168.8550,92.3400
168.8550,92.6200
168.8443,92.6736
168.8140,92.7190
168.7686,92.7493
168.7150,92.7600
168.3750,92.7600
168.3214,92.7493
168.2760,92.7190
168.2457,92.6736
168.2350,92.6200
168.2350,92.3400
168.2457,92.2864
168.2760,92.2410
168.3214,92.2107
168.3750,92.2000
Z" /> 
<path style="fill:#000000; fill-opacity:1.0000; stroke:none;fill-rule:evenodd;"
d="M 192.6500,71.7750
192.6348,71.8515
192.5914,71.9164
192.5265,71.9598
192.4500,71.9750
192.0500,71.9750
191.9735,71.9598
191.9086,71.9164
191.8652,71.8515
191.8500,71.7750
191.8500,71.2250
191.8652,71.1485
191.9086,71.0836
191.9735,71.0402
192.0500,71.0250
192.4500,71.0250
192.5265,71.0402
192.5914,71.0836
192.6348,71.1485
192.6500,71.2250
Z" /> 
<path style="fill:#000000; fill-opacity:1.0000; stroke:none;fill-rule:evenodd;"
d="M 191.0000,71.7750
190.9848,71.8515
190.9414,71.9164
190.8765,71.9598
190.8000,71.9750
190.4000,71.9750
190.3235,71.9598
190.2586,71.9164
190.2152,71.8515
190.2000,71.7750
190.2000,71.2250
190.2152,71.1485
190.2586,71.0836
190.3235,71.0402
190.4000,71.0250
190.8000,71.0250
190.8765,71.0402
190.9414,71.0836
190.9848,71.1485
191.0000,71.2250
Z" /> 
<path style="fill:#000000; fill-opacity:1.0000; stroke:none;fill-rule:evenodd;"
d="M 166.1700,90.7600
166.2236,90.7707
166.2690,90.8010
166.2993,90.8464
166.3100,90.9000
166.3100,91.1800
166.2993,91.2336
166.2690,91.2790
166.2236,91.3093
166.1700,91.3200
165.8300,91.3200
165.7764,91.3093
165.7310,91.2790
165.7007,91.2336
165.6900,91.1800
165.6900,90.9000
165.7007,90.8464
165.7310,90.8010
165.7764,90.7707
165.8300,90.7600
Z" /> 
<path style="fill:#000000; fill-opacity:1.0000; stroke:none;fill-rule:evenodd;"
d="M 166.1700,91.7200
166.2236,91.7307
166.2690,91.7610
166.2993,91.8064
166.3100,91.8600
166.3100,92.1400
166.2993,92.1936
166.2690,92.2390
166.2236,92.2693
166.1700,92.2800
165.8300,92.2800
165.7764,92.2693
165.7310,92.2390
165.7007,92.1936
165.6900,92.1400
165.6900,91.8600
165.7007,91.8064
165.7310,91.7610
165.7764,91.7307
165.8300,91.7200
Z" /> 
<path style="fill:#000000; fill-opacity:1.0000; stroke:none;fill-rule:evenodd;"
d="M 170.2000,84.3150
170.2103,84.2633
170.2395,84.2195
170.2833,84.1903
170.3350,84.1800
170.6050,84.1800
170.6567,84.1903
170.7005,84.2195
170.7297,84.2633
170.7400,84.3150
170.7400,84.6850
170.7297,84.7367
170.7005,84.7805
170.6567,84.8097
170.6050,84.8200
170.3350,84.8200
170.2833,84.8097
170.2395,84.7805
170.2103,84.7367
170.2000,84.6850
Z" /> 
<path style="fill:#000000; fill-opacity:1.0000; stroke:none;fill-rule:evenodd;"
d="M 171.2200,84.3150
171.2303,84.2633
171.2595,84.2195
171.3033,84.1903
171.3550,84.1800
171.6250,84.1800
171.6767,84.1903
171.7205,84.2195
171.7497,84.2633
171.7600,84.3150
171.7600,84.6850
171.7497,84.7367
171.7205,84.7805
171.6767,84.8097
171.6250,84.8200
171.3550,84.8200
171.3033,84.8097
171.2595,84.7805
171.2303,84.7367
171.2200,84.6850
Z" /> 
<path style="fill:#000000; fill-opacity:1.0000; stroke:none;fill-rule:evenodd;"
d="M 167.8400,88.7600
167.7864,88.7493
167.7410,88.7190
167.7107,88.6736
167.7000,88.6200
167.7000,88.3400
167.7107,88.2864
167.7410,88.2410
167.7864,88.2107
167.8400,88.2000
168.1800,88.2000
168.2336,88.2107
168.2790,88.2410
168.3093,88.2864
168.3200,88.3400
168.3200,88.6200
168.3093,88.6736
168.2790,88.7190
168.2336,88.7493
168.1800,88.7600
Z" /> 
<path style="fill:#000000; fill-opacity:1.0000; stroke:none;fill-rule:evenodd;"
d="M 167.8400,87.8000
167.7864,87.7893
167.7410,87.7590
167.7107,87.7136
167.7000,87.6600
167.7000,87.3800
167.7107,87.3264
167.7410,87.2810
167.7864,87.2507
167.8400,87.2400
168.1800,87.2400
168.2336,87.2507
168.2790,87.2810
168.3093,87.3264
168.3200,87.3800
168.3200,87.6600
168.3093,87.7136
168.2790,87.7590
168.2336,87.7893
168.1800,87.8000
Z" /> 
</g>
<g style="fill:#000000; fill-opacity:1.0000; stroke:none;">
<circle cx="171.0000" cy="80.0000" r="0.3000" /> 
</g>
<g style="fill:#000000; fill-opacity:1.0000; stroke:none;">
<circle cx="170.5000" cy="81.5000" r="0.3000" /> 
</g>
<g style="fill:#000000; fill-opacity:1.0000; stroke:none;">
<circle cx="165.6425" cy="87.6425" r="0.3000" /> 
</g>
<g style="fill:#000000; fill-opacity:1.0000; stroke:none;">
<circle cx="168.3497" cy="80.3497" r="0.3000" /> 
</g>
<g style="fill:#000000; fill-opacity:1.0000; stroke:none;">
<circle cx="170.0000" cy="96.0000" r="0.3000" /> 
</g>
<g style="fill:#000000; fill-opacity:1.0000; stroke:none;">
<circle cx="191.5000" cy="77.5000" r="0.3000" /> 
</g>
<g style="fill:#000000; fill-opacity:1.0000; stroke:none;">
<circle cx="169.0000" cy="99.0000" r="0.3000" /> 
</g>
<g style="fill:#000000; fill-opacity:1.0000; stroke:none;">
<circle cx="179.0000" cy="92.0000" r="0.3000" /> 
</g>
<g style="fill:#000000; fill-opacity:1.0000; stroke:none;">
<circle cx="189.5000" cy="75.0000" r="0.3000" /> 
</g>
<g style="fill:#000000; fill-opacity:1.0000; stroke:none;">
<circle cx="170.0000" cy="93.5000" r="0.3000" /> 
</g>
<g style="fill:#000000; fill-opacity:1.0000; stroke:none;">
<circle cx="165.0000" cy="92.5000" r="0.3000" /> 
</g>
<g style="fill:#000000; fill-opacity:1.0000; stroke:none;">
<circle cx="168.1510" cy="96.0000" r="0.3000" /> 
</g>
<g style="fill:#000000; fill-opacity:1.0000; stroke:none;">
<circle cx="168.0000" cy="94.5000" r="0.3000" /> 
</g>
<g style="fill:#000000; fill-opacity:1.0000; stroke:none;">
<circle cx="172.5000" cy="94.0000" r="0.3000" /> 
</g>
<g style="fill:#000000; fill-opacity:1.0000; stroke:none;">
<circle cx="192.5000" cy="77.5000" r="0.3000" /> 
</g>
<g style="fill:#000000; fill-opacity:1.0000; stroke:none;">
<circle cx="188.5000" cy="76.0000" r="0.3000" /> 
</g>
<g style="fill:#000000; fill-opacity:1.0000; stroke:none;">
<circle cx="167.5321" cy="98.3010" r="0.3000" /> 
</g>
<g style="fill:#000000; fill-opacity:1.0000; stroke:none;">
<circle cx="174.0000" cy="96.5000" r="0.3000" /> 
</g>
<g style="fill:#000000; fill-opacity:1.0000; stroke:none;">
<circle cx="171.9980" cy="91.3000" r="0.3000" /> 
</g>
<g style="fill:#000000; fill-opacity:1.0000; stroke:none;">
<circle cx="176.0000" cy="96.0000" r="0.3000" /> 
</g>
<g style="fill:#000000; fill-opacity:1.0000; stroke:none;">
<circle cx="170.5100" cy="88.0100" r="0.3000" /> 
</g>
<g style="fill:#000000; fill-opacity:1.0000; stroke:none;">
<circle cx="181.0000" cy="69.5000" r="0.3000" /> 
</g>
<g style="fill:#000000; fill-opacity:1.0000; stroke:none;">
<circle cx="185.5000" cy="76.5000" r="0.3000" /> 
</g>
<g style="fill:#000000; fill-opacity:1.0000; stroke:none;">
<circle cx="167.5000" cy="97.0000" r="0.3000" /> 
</g>
<g style="fill:#000000; fill-opacity:1.0000; stroke:none;">
<circle cx="169.5000" cy="85.5000" r="0.3000" /> 
</g>
<g style="fill:#000000; fill-opacity:1.0000; stroke:none;">
<circle cx="167.6500" cy="90.0849" r="0.3000" /> 
</g>
<g style="fill:#000000; fill-opacity:1.0000; stroke:none;">
<circle cx="165.5000" cy="90.0000" r="0.3000" /> 
</g>
<g style="fill:#000000; fill-opacity:1.0000; stroke:none;">
<circle cx="170.5000" cy="83.0000" r="0.3000" /> 
</g>
<g style="fill:none; 
stroke:#000000; stroke-width:0.4000; stroke-opacity:1; 
stroke-linecap:round; stroke-linejoin:round;">
<path d="M189.5000 55.5000
L191.5000 57.5000
" />
<path d="M188.5000 55.5000
L189.5000 55.5000
" />
<path d="M188.5216 55.5216
L188.5000 55.5000
" />
<path d="M183.7010 60.2990
L188.4784 55.5216
" />
<path d="M183.7010 70.2990
L183.7010 60.2990
" />
<path d="M188.4784 55.5216
L188.5216 55.5216
" />
<path d="M182.5000 71.5000
L183.7010 70.2990
" />
<path d="M192.0200 80.0000
L192.0200 81.4050
" />
<path d="M192.0200 81.4050
L191.5000 81.9250
" />
</g>
<g style="fill:none; 
stroke:#000000; stroke-width:0.2000; stroke-opacity:1; 
stroke-linecap:round; stroke-linejoin:round;">
<path d="M185.5200 81.0250
L186.4200 81.9250
" />
<path d="M185.5200 79.5000
L185.5200 81.0250
" />
<path d="M171.6880 79.5000
L185.5200 79.5000
" />
<path d="M171.5940 79.4060
L171.6880 79.5000
" />
<path d="M188.0500 79.5000
L188.5500 79.0000
" />
<path d="M186.4800 79.5000
L188.0500 79.5000
" />
<path d="M171.5940 79.4060
L171.0000 80.0000
" />
</g>
<g style="fill:none; 
stroke:#000000; stroke-width:0.3000; stroke-opacity:1; 
stroke-linecap:round; stroke-linejoin:round;">
<path d="M188.5500 81.5150
L188.9600 81.9250
" />
<path d="M188.5500 79.0000
L188.5500 81.5150
" />
</g>
<g style="fill:none; 
stroke:#000000; stroke-width:0.4000; stroke-opacity:1; 
stroke-linecap:round; stroke-linejoin:round;">
<path d="M191.0200 79.0000
L192.0200 80.0000
" />
<path d="M190.4500 79.0000
L191.0200 79.0000
" />
</g>
<g style="fill:none; 
stroke:#000000; stroke-width:0.3000; stroke-opacity:1; 
stroke-linecap:round; stroke-linejoin:round;">
<path d="M188.5500 79.0500
L188.9600 79.4600
" />
<path d="M188.5500 79.0000
L188.5500 79.0500
" />
<path d="M188.5000 78.0000
L188.5500 78.0500
" />
<path d="M188.9490 77.5510
L188.5000 78.0000
" />
<path d="M191.4490 77.5510
L188.9490 77.5510
" />
<path d="M188.5500 78.0500
L188.5500 79.0000
" />
<path d="M191.5000 77.5000
L191.4490 77.5510
" />
<path d="M192.9800 78.9800
L192.9800 80.0000
" />
<path d="M191.5000 77.5000
L192.9800 78.9800
" />
</g>
<g style="fill:none; 
stroke:#000000; stroke-width:0.4000; stroke-opacity:1; 
stroke-linecap:round; stroke-linejoin:round;">
<path d="M190.0000 76.8625
L191.4250 75.4375
" />
<path d="M190.0000 77.0000
L190.0000 76.8625
" />
<path d="M185.7904 77.2010
L185.9404 77.0510
" />
<path d="M186.1032 77.0510
L186.1542 77.0000
" />
<path d="M185.2096 77.2010
L185.7904 77.2010
" />
<path d="M185.0086 77.0000
L185.2096 77.2010
" />
<path d="M184.0000 77.0000
L185.0086 77.0000
" />
<path d="M185.9404 77.0510
L186.1032 77.0510
" />
<path d="M186.1542 77.0000
L190.0000 77.0000
" />
<path d="M182.5000 75.5000
L184.0000 77.0000
" />
</g>
<g style="fill:none; 
stroke:#000000; stroke-width:0.3000; stroke-opacity:1; 
stroke-linecap:round; stroke-linejoin:round;">
<path d="M169.9700 84.0000
L170.4700 84.5000
" />
<path d="M170.4700 84.5000
L170.4700 86.4600
" />
<path d="M169.5100 82.0000
L170.0000 82.0000
" />
<path d="M169.5000 84.0000
L169.9700 84.0000
" />
<path d="M170.0000 82.0000
L170.5000 81.5000
" />
<path d="M169.5100 83.9900
L169.5000 84.0000
" />
<path d="M170.4700 86.4600
L170.5100 86.5000
" />
<path d="M169.5100 82.0000
L169.5100 83.9900
" />
</g>
<g style="fill:none; 
stroke:#000000; stroke-width:0.4000; stroke-opacity:1; 
stroke-linecap:round; stroke-linejoin:round;">
<path d="M168.0100 88.4800
L166.4800 88.4800
" />
<path d="M168.3497 80.3497
L168.6503 80.3497
" />
<path d="M166.4800 88.4800
L165.6425 87.6425
" />
<path d="M177.7000 76.3000
L178.5000 75.5000
" />
<path d="M166.0000 99.4050
L155.8800 99.4050
" />
<path d="M192.2620 81.9250
L191.5000 81.9250
" />
<path d="M155.8800 99.4050
L154.8800 98.4050
" />
<path d="M194.0000 60.0000
L194.0000 80.1870
" />
<path d="M168.6503 80.3497
L172.4050 76.5950
" />
<path d="M172.4050 76.3000
L177.7000 76.3000
" />
<path d="M191.5000 57.5000
L194.0000 60.0000
" />
<path d="M194.0000 80.1870
L192.2620 81.9250
" />
<path d="M168.0100 89.4550
L170.0750 91.5200
" />
<path d="M168.0100 88.4800
L168.0100 89.4550
" />
<path d="M172.4050 76.5950
L172.4050 76.3000
" />
<path d="M178.5000 75.5000
L182.5000 71.5000
" />
<path d="M144.5000 94.0000
L147.5000 91.0000
" />
</g>
<g style="fill:none; 
stroke:#000000; stroke-width:0.3000; stroke-opacity:1; 
stroke-linecap:round; stroke-linejoin:round;">
<path d="M168.0000 93.0250
L168.5450 92.4800
" />
</g>
<g style="fill:none; 
stroke:#000000; stroke-width:0.4000; stroke-opacity:1; 
stroke-linecap:round; stroke-linejoin:round;">
<path d="M186.3750 71.5000
L186.3750 73.1750
" />
</g>
<g style="fill:none; 
stroke:#000000; stroke-width:0.2000; stroke-opacity:1; 
stroke-linecap:round; stroke-linejoin:round;">
<path d="M189.0000 79.5000
L188.9600 79.5400
" />
</g>
<g style="fill:none; 
stroke:#000000; stroke-width:0.4000; stroke-opacity:1; 
stroke-linecap:round; stroke-linejoin:round;">
<path d="M166.9050 95.5950
L168.0000 94.5000
" />
</g>
<g style="fill:none; 
stroke:#000000; stroke-width:0.3000; stroke-opacity:1; 
stroke-linecap:round; stroke-linejoin:round;">
<path d="M168.1510 96.0000
L168.1510 97.3595
" />
<path d="M168.1510 97.3595
L169.0000 98.2085
" />
</g>
<g style="fill:none; 
stroke:#000000; stroke-width:0.4000; stroke-opacity:1; 
stroke-linecap:round; stroke-linejoin:round;">
<path d="M164.7190 94.3140
L166.0000 95.5950
" />
<path d="M186.9400 70.9350
L186.3750 71.5000
" />
</g>
<g style="fill:none; 
stroke:#000000; stroke-width:0.3000; stroke-opacity:1; 
stroke-linecap:round; stroke-linejoin:round;">
<path d="M170.0750 93.4250
L170.0000 93.5000
" />
</g>
<g style="fill:none; 
stroke:#000000; stroke-width:0.2000; stroke-opacity:1; 
stroke-linecap:round; stroke-linejoin:round;">
<path d="M188.9600 81.9250
L188.9600 82.0400
" />
</g>
<g style="fill:none; 
stroke:#000000; stroke-width:0.4000; stroke-opacity:1; 
stroke-linecap:round; stroke-linejoin:round;">
<path d="M187.0000 72.5500
L186.0500 73.5000
" />
<path d="M147.5000 99.2500
L144.5000 96.2500
" />
</g>
<g style="fill:none; 
stroke:#000000; stroke-width:0.3000; stroke-opacity:1; 
stroke-linecap:round; stroke-linejoin:round;">
<path d="M190.9150 70.0000
L190.9150 71.1850
" />
</g>
<g style="fill:none; 
stroke:#000000; stroke-width:0.2000; stroke-opacity:1; 
stroke-linecap:round; stroke-linejoin:round;">
<path d="M190.5200 79.0000
L190.0200 79.5000
" />
<path d="M172.5000 94.0000
L172.5000 94.5190
" />
</g>
<g style="fill:none; 
stroke:#000000; stroke-width:0.3000; stroke-opacity:1; 
stroke-linecap:round; stroke-linejoin:round;">
<path d="M168.0100 87.5200
L167.0200 87.5200
" />
</g>
<g style="fill:none; 
stroke:#000000; stroke-width:0.2000; stroke-opacity:1; 
stroke-linecap:round; stroke-linejoin:round;">
<path d="M170.4050 95.5950
L170.0000 96.0000
" />
</g>
<g style="fill:none; 
stroke:#000000; stroke-width:0.3000; stroke-opacity:1; 
stroke-linecap:round; stroke-linejoin:round;">
<path d="M190.6000 71.5000
L190.6000 73.4375
" />
</g>
<g style="fill:none; 
stroke:#000000; stroke-width:0.4000; stroke-opacity:1; 
stroke-linecap:round; stroke-linejoin:round;">
<path d="M186.9400 59.5600
L186.9400 70.0000
" />
</g>
<g style="fill:none; 
stroke:#000000; stroke-width:0.3000; stroke-opacity:1; 
stroke-linecap:round; stroke-linejoin:round;">
<path d="M164.8490 92.3490
L164.8490 87.5153
" />
</g>
<g style="fill:none; 
stroke:#000000; stroke-width:0.2000; stroke-opacity:1; 
stroke-linecap:round; stroke-linejoin:round;">
<path d="M192.9800 80.0000
L192.9800 79.4600
" />
</g>
<g style="fill:none; 
stroke:#000000; stroke-width:0.3000; stroke-opacity:1; 
stroke-linecap:round; stroke-linejoin:round;">
<path d="M167.0200 87.5200
L166.5000 87.0000
" />
</g>
<g style="fill:none; 
stroke:#000000; stroke-width:0.4000; stroke-opacity:1; 
stroke-linecap:round; stroke-linejoin:round;">
<path d="M186.3750 71.8750
L187.0000 72.5000
" />
</g>
<g style="fill:none; 
stroke:#000000; stroke-width:0.2000; stroke-opacity:1; 
stroke-linecap:round; stroke-linejoin:round;">
<path d="M188.9600 82.0400
L179.0000 92.0000
" />
</g>
<g style="fill:none; 
stroke:#000000; stroke-width:0.4000; stroke-opacity:1; 
stroke-linecap:round; stroke-linejoin:round;">
<path d="M166.0000 95.5950
L166.9050 95.5950
" />
</g>
<g style="fill:none; 
stroke:#000000; stroke-width:0.3000; stroke-opacity:1; 
stroke-linecap:round; stroke-linejoin:round;">
<path d="M166.0000 92.0000
L165.5000 92.0000
" />
<path d="M165.3728 86.9915
L166.4915 86.9915
" />
<path d="M166.4915 86.9915
L166.5000 87.0000
" />
</g>
<g style="fill:none; 
stroke:#000000; stroke-width:0.4000; stroke-opacity:1; 
stroke-linecap:round; stroke-linejoin:round;">
<path d="M186.9400 70.0000
L186.9400 70.9350
" />
</g>
<g style="fill:none; 
stroke:#000000; stroke-width:0.3000; stroke-opacity:1; 
stroke-linecap:round; stroke-linejoin:round;">
<path d="M169.0000 98.2085
L169.0000 99.0000
" />
</g>
<g style="fill:none; 
stroke:#000000; stroke-width:0.2000; stroke-opacity:1; 
stroke-linecap:round; stroke-linejoin:round;">
<path d="M172.5000 94.5190
L171.4240 95.5950
" />
</g>
<g style="fill:none; 
stroke:#000000; stroke-width:0.4000; stroke-opacity:1; 
stroke-linecap:round; stroke-linejoin:round;">
<path d="M187.0000 72.5000
L187.0000 72.5500
" />
<path d="M186.3750 73.1750
L186.0500 73.5000
" />
<path d="M147.5000 91.0000
L150.8140 94.3140
" />
</g>
<g style="fill:none; 
stroke:#000000; stroke-width:0.2000; stroke-opacity:1; 
stroke-linecap:round; stroke-linejoin:round;">
<path d="M189.5000 81.3850
L188.9600 81.9250
" />
</g>
<g style="fill:none; 
stroke:#000000; stroke-width:0.4000; stroke-opacity:1; 
stroke-linecap:round; stroke-linejoin:round;">
<path d="M144.5000 96.2500
L144.5000 94.0000
" />
</g>
<g style="fill:none; 
stroke:#000000; stroke-width:0.2000; stroke-opacity:1; 
stroke-linecap:round; stroke-linejoin:round;">
<path d="M171.4240 95.5950
L170.4050 95.5950
" />
</g>
<g style="fill:none; 
stroke:#000000; stroke-width:0.4000; stroke-opacity:1; 
stroke-linecap:round; stroke-linejoin:round;">
<path d="M186.3750 71.5000
L186.3750 71.8750
" />
</g>
<g style="fill:none; 
stroke:#000000; stroke-width:0.3000; stroke-opacity:1; 
stroke-linecap:round; stroke-linejoin:round;">
<path d="M165.0000 92.5000
L164.8490 92.3490
" />
<path d="M168.0000 94.5000
L168.0000 93.0250
" />
</g>
<g style="fill:none; 
stroke:#000000; stroke-width:0.4000; stroke-opacity:1; 
stroke-linecap:round; stroke-linejoin:round;">
<path d="M189.0000 57.5000
L186.9400 59.5600
" />
</g>
<g style="fill:none; 
stroke:#000000; stroke-width:0.3000; stroke-opacity:1; 
stroke-linecap:round; stroke-linejoin:round;">
<path d="M164.8490 87.5153
L165.3728 86.9915
" />
<path d="M165.5000 92.0000
L165.0000 92.5000
" />
<path d="M170.0750 92.4800
L170.0750 93.4250
" />
</g>
<g style="fill:none; 
stroke:#000000; stroke-width:0.4000; stroke-opacity:1; 
stroke-linecap:round; stroke-linejoin:round;">
<path d="M150.8140 94.3140
L164.7190 94.3140
" />
</g>
<g style="fill:none; 
stroke:#000000; stroke-width:0.3000; stroke-opacity:1; 
stroke-linecap:round; stroke-linejoin:round;">
<path d="M190.6000 73.4375
L190.4750 73.5625
" />
<path d="M190.9150 71.1850
L190.6000 71.5000
" />
</g>
<g style="fill:none; 
stroke:#000000; stroke-width:2.0000; stroke-opacity:1; 
stroke-linecap:round; stroke-linejoin:round;">
<path d="M158.5000 58.5000
L166.5000 58.5000
" />
<path d="M158.5000 53.3500
L158.5000 58.5000
" />
<path d="M166.5000 58.5000
L167.5000 57.5000
" />
</g>
<g style="fill:none; 
stroke:#000000; stroke-width:0.3000; stroke-opacity:1; 
stroke-linecap:round; stroke-linejoin:round;">
<path d="M192.3750 73.5625
L192.3750 77.3750
" />
<path d="M192.2500 71.5000
L192.2500 73.4375
" />
<path d="M191.9350 71.1850
L192.2500 71.5000
" />
<path d="M192.3750 77.3750
L192.5000 77.5000
" />
<path d="M191.9350 70.0000
L191.9350 71.1850
" />
<path d="M192.2500 73.4375
L192.3750 73.5625
" />
<path d="M187.9600 70.0000
L187.9600 71.4350
" />
<path d="M188.0250 73.4250
L187.9500 73.5000
" />
<path d="M187.9600 71.4350
L188.0250 71.5000
" />
<path d="M188.0250 71.5000
L188.0250 73.4250
" />
<path d="M187.9500 73.5000
L187.9500 75.4500
" />
<path d="M187.9500 75.4500
L188.5000 76.0000
" />
<path d="M167.3661 98.1350
L166.0000 98.1350
" />
<path d="M167.5321 98.3010
L167.3661 98.1350
" />
<path d="M171.4240 98.1350
L172.3650 98.1350
" />
<path d="M170.1700 87.1710
L170.0000 87.0010
" />
<path d="M169.8300 87.1710
L169.1499 87.1710
" />
<path d="M168.9789 87.0000
L168.5000 87.0000
" />
<path d="M168.0000 84.0000
L167.0000 85.0000
" />
<path d="M170.2075 95.0010
L171.3480 93.8605
" />
<path d="M169.5000 95.0000
L169.5010 95.0010
" />
<path d="M168.5000 87.0000
L167.0000 85.5000
" />
<path d="M169.1499 87.1710
L168.9789 87.0000
" />
<path d="M169.0000 95.5000
L169.5000 95.0000
" />
<path d="M168.4800 84.0000
L168.0000 84.0000
" />
<path d="M171.0211 87.0000
L170.8500 87.1710
" />
<path d="M171.4240 98.1350
L169.6350 98.1350
" />
<path d="M170.0000 87.0010
L169.8300 87.1710
" />
<path d="M169.5010 95.0010
L170.2075 95.0010
" />
<path d="M172.3650 98.1350
L174.0000 96.5000
" />
<path d="M167.0000 85.5000
L167.0000 85.0000
" />
<path d="M170.8500 87.1710
L170.1700 87.1710
" />
<path d="M171.3480 87.0000
L171.0211 87.0000
" />
<path d="M171.3480 93.8605
L171.3480 87.0000
" />
<path d="M169.0000 97.5000
L169.0000 95.5000
" />
<path d="M169.6350 98.1350
L169.0000 97.5000
" />
<path d="M171.9980 91.3000
L171.8490 91.1510
" />
<path d="M172.1350 96.8650
L171.4240 96.8650
" />
<path d="M171.4900 84.5000
L171.8490 84.8590
" />
<path d="M174.0000 93.3020
L174.0000 95.0000
" />
<path d="M171.8490 84.8590
L171.8490 91.0000
" />
<path d="M171.8490 91.0000
L171.8490 91.0625
" />
<path d="M171.9980 91.3000
L174.0000 93.3020
" />
<path d="M174.0000 95.0000
L172.1350 96.8650
" />
<path d="M171.8490 91.1510
L171.8490 91.0000
" />
<path d="M172.5950 99.4050
L176.0000 96.0000
" />
<path d="M171.4240 99.4050
L172.5950 99.4050
" />
<path d="M170.5100 89.0000
L170.5100 88.0100
" />
<path d="M170.5000 88.0000
L170.5100 88.0100
" />
<path d="M177.0823 80.3580
L177.6870 80.9627
" />
<path d="M172.5100 82.5000
L174.6520 80.3580
" />
<path d="M177.6870 80.9627
L177.6870 96.8870
" />
<path d="M174.6520 80.3580
L177.0823 80.3580
" />
<path d="M177.6870 96.8870
L178.8000 98.0000
" />
</g>
<g style="fill:none; 
stroke:#000000; stroke-width:0.4000; stroke-opacity:1; 
stroke-linecap:round; stroke-linejoin:round;">
<path d="M167.8190 81.5892
L168.1292 81.2790
" />
<path d="M168.1292 81.2790
L168.7210 81.2790
" />
<path d="M156.4310 81.9310
L162.1104 87.6104
" />
<path d="M171.5000 78.5000
L179.5000 78.5000
" />
<path d="M156.4310 79.0740
L156.4310 81.9310
" />
<path d="M162.1104 87.6104
L167.8190 81.9018
" />
<path d="M167.8190 81.9018
L167.8190 81.5892
" />
<path d="M154.6250 79.0740
L156.4310 79.0740
" />
<path d="M179.5000 78.5000
L182.5000 75.5000
" />
<path d="M154.6250 76.3000
L154.6250 79.0740
" />
<path d="M168.7210 81.2790
L171.5000 78.5000
" />
</g>
<g style="fill:none; 
stroke:#000000; stroke-width:0.3000; stroke-opacity:1; 
stroke-linecap:round; stroke-linejoin:round;">
<path d="M178.5000 71.5000
L180.5000 69.5000
" />
<path d="M167.6987 80.3013
L167.6987 80.0801
" />
<path d="M153.1240 74.7990
L156.1260 74.7990
" />
<path d="M173.0267 74.7990
L173.3639 75.1361
" />
<path d="M162.1104 86.8312
L167.0000 81.9415
" />
<path d="M187.0000 75.3750
L185.8750 76.5000
" />
<path d="M167.0000 81.9415
L167.0000 81.0000
" />
<path d="M185.8750 76.5000
L185.5000 76.5000
" />
<path d="M156.1260 74.7990
L156.1260 78.5230
" />
<path d="M177.0000 71.5000
L178.5000 71.5000
" />
<path d="M170.9911 77.0089
L170.9040 76.9217
" />
<path d="M168.0801 79.6987
L168.3013 79.6987
" />
<path d="M180.5000 69.5000
L181.0000 69.5000
" />
<path d="M154.8800 80.6250
L153.1240 78.8690
" />
<path d="M167.0000 81.0000
L167.6987 80.3013
" />
<path d="M156.9820 78.8458
L156.9820 81.7028
" />
<path d="M170.9040 75.6783
L171.7833 74.7990
" />
<path d="M168.3013 79.6987
L170.9911 77.0089
" />
<path d="M156.9820 81.7028
L162.1104 86.8312
" />
<path d="M156.1260 78.5230
L156.6592 78.5230
" />
<path d="M156.6592 78.5230
L156.9820 78.8458
" />
<path d="M170.9040 76.9217
L170.9040 75.6783
" />
<path d="M173.3639 75.1361
L177.0000 71.5000
" />
<path d="M167.6987 80.0801
L168.0801 79.6987
" />
<path d="M153.1240 78.8690
L153.1240 74.7990
" />
<path d="M171.7833 74.7990
L173.0267 74.7990
" />
</g>
<g style="fill:none; 
stroke:#000000; stroke-width:2.0000; stroke-opacity:1; 
stroke-linecap:round; stroke-linejoin:round;">
<path d="M159.0000 77.3398
L162.2852 80.6250
" />
<path d="M162.2852 80.6250
L162.5000 80.6250
" />
<path d="M154.6250 69.4648
L159.0000 73.8398
" />
<path d="M154.6250 68.6800
L154.6250 69.4648
" />
<path d="M159.0000 73.8398
L159.0000 77.3398
" />
</g>
<g style="fill:none; 
stroke:#000000; stroke-width:0.3000; stroke-opacity:1; 
stroke-linecap:round; stroke-linejoin:round;">
<path d="M166.1350 97.0000
L166.0000 96.8650
" />
<path d="M167.5000 97.0000
L166.1350 97.0000
" />
<path d="M169.0000 93.4885
L169.0000 94.5000
" />
<path d="M168.6225 93.1110
L169.0000 93.4885
" />
<path d="M150.5000 89.0000
L150.5000 93.2208
" />
<path d="M168.4967 91.5200
L168.5450 91.5200
" />
<path d="M168.5450 91.5200
L168.5000 91.5650
" />
<path d="M158.0000 92.5000
L158.0000 93.7630
" />
<path d="M168.4900 82.0100
L167.0000 83.5000
" />
<path d="M168.5000 91.8490
L168.9223 91.8490
" />
<path d="M166.2537 93.7630
L168.4967 91.5200
" />
<path d="M169.2060 92.1327
L169.2060 92.8273
" />
<path d="M170.0000 94.5000
L170.8470 93.6530
" />
<path d="M168.5000 91.5650
L168.5000 91.8490
" />
<path d="M150.5000 93.2208
L151.0422 93.7630
" />
<path d="M170.8470 90.3570
L169.4900 89.0000
" />
<path d="M151.0422 93.7630
L158.0000 93.7630
" />
<path d="M170.8470 93.6530
L170.8470 90.3570
" />
<path d="M169.2060 92.8273
L168.9223 93.1110
" />
<path d="M168.9223 93.1110
L168.6225 93.1110
" />
<path d="M169.0000 94.5000
L170.0000 94.5000
" />
<path d="M167.0000 83.5000
L158.0000 92.5000
" />
<path d="M158.0000 93.7630
L166.2537 93.7630
" />
<path d="M168.9223 91.8490
L169.2060 92.1327
" />
<path d="M168.4900 82.0000
L168.4900 82.0100
" />
<path d="M147.5000 86.0000
L150.5000 89.0000
" />
<path d="M166.0000 91.0400
L166.0000 90.5000
" />
<path d="M171.4900 82.5000
L171.0000 82.5000
" />
<path d="M171.0000 82.5000
L170.5000 83.0000
" />
<path d="M167.6500 90.8500
L167.4600 91.0400
" />
<path d="M169.4900 86.5000
L169.4900 85.5100
" />
<path d="M167.4600 91.0400
L166.0000 91.0400
" />
<path d="M169.4900 85.5100
L169.5000 85.5000
" />
<path d="M167.6500 90.0849
L167.6500 90.8500
" />
<path d="M166.0000 90.5000
L165.5000 90.0000
" />
<path style="fill:#000000; fill-opacity:1.0000; stroke:none;fill-rule:evenodd;"
d="M 168.4496,97.8881
168.4982,97.9181
169.2203,98.6403
169.2203,98.6403
169.3269,98.7115
169.3269,98.7115
169.3269,98.7115
169.3750,98.7314
169.4453,98.7605
169.4453,98.7605
169.4453,98.7605
169.5709,98.7855
169.5709,98.7855
169.6991,98.7855
170.0586,98.7855
170.1256,98.8052
170.1714,98.8580
170.1813,98.9271
170.1748,98.9528
170.1727,98.9585
170.1674,98.9725
170.1610,99.0321
170.1610,99.0321
170.1610,99.0321
170.1610,99.7779
170.1610,99.7779
170.1674,99.8375
170.2177,99.9723
170.2177,99.9723
170.3040,100.0875
170.3040,100.0875
170.4192,100.1738
170.4192,100.1738
170.5540,100.2241
170.5540,100.2241
170.5609,100.2248
170.6136,100.2305
172.2344,100.2305
172.2940,100.2241
172.4288,100.1738
172.4473,100.1600
172.5511,100.0822
172.5529,100.0846
172.6011,100.0583
172.6275,100.0555
172.6591,100.0555
172.7436,100.0387
172.7847,100.0305
172.9031,99.9815
172.9515,99.9491
172.9515,99.9491
172.9515,99.9491
172.9806,99.9297
173.0097,99.9103
174.7858,98.1341
174.8471,98.1006
174.9168,98.1056
174.9728,98.1475
174.9972,98.2130
174.9975,98.2218
174.9975,99.9645
175.0004,100.0015
175.0004,100.0016
175.0464,100.1600
175.0464,100.1600
175.0464,100.1600
175.0546,100.1738
175.1344,100.3087
175.1325,100.3098
175.1540,100.3645
175.1404,100.4331
175.0918,100.4833
175.0305,100.4995
164.6240,100.4995
164.5570,100.4798
164.5112,100.4270
164.5000,100.3755
164.5000,100.2295
164.5025,100.2208
164.5013,100.2119
164.5122,100.1878
164.5197,100.1625
164.5265,100.1565
164.5303,100.1483
164.5525,100.1340
164.5725,100.1167
164.5830,100.1144
164.5891,100.1105
164.6240,100.1055
164.8627,100.1055
164.9297,100.1252
164.9370,100.1302
164.9540,100.1430
164.9800,100.1625
164.9952,100.1738
164.9952,100.1738
165.1300,100.2241
165.1300,100.2241
165.1369,100.2248
165.1896,100.2305
166.8104,100.2305
166.8700,100.2241
167.0048,100.1738
167.1200,100.0875
167.2063,99.9723
167.2566,99.8375
167.2630,99.7779
167.2630,99.2147
167.2827,99.1477
167.3355,99.1020
167.4046,99.0920
167.4112,99.0931
167.4532,99.1015
167.6109,99.1015
167.6109,99.1015
167.7656,99.0707
167.9113,99.0104
168.0424,98.9228
168.1539,98.8113
168.2415,98.6802
168.3018,98.5345
168.3326,98.3798
168.3326,98.2222
168.3326,98.2222
168.3326,98.2222
168.3094,98.1056
168.3018,98.0675
168.2959,98.0532
168.2884,97.9838
168.3197,97.9213
168.3798,97.8856
Z" /> 
<path style="fill:#000000; fill-opacity:1.0000; stroke:none;fill-rule:evenodd;"
d="M 194.4188,80.8613
194.4748,80.9032
194.4992,80.9687
194.4995,80.9775
194.4995,100.3755
194.4798,100.4425
194.4270,100.4883
194.3755,100.4995
192.7295,100.4995
192.6624,100.4798
192.6167,100.4270
192.6067,100.3579
192.6272,100.3096
192.6256,100.3087
192.6417,100.2814
192.7136,100.1600
192.7596,100.0015
192.7625,99.9645
192.7625,97.7055
192.7596,97.6685
192.7477,97.6277
192.7136,97.5100
192.7136,97.5100
192.7136,97.5100
192.6453,97.3946
192.6296,97.3681
192.6296,97.3681
192.5929,97.3314
192.5334,97.2719
192.5208,97.2571
192.4630,97.1775
192.3225,97.0370
192.3225,97.0370
192.1617,96.9202
192.1007,96.8892
191.9846,96.8300
191.9846,96.8300
191.7956,96.7686
191.6975,96.7530
191.5994,96.7375
191.4006,96.7375
191.3561,96.7446
191.2044,96.7686
191.0154,96.8300
191.0154,96.8300
190.8383,96.9202
190.6775,97.0370
190.5370,97.1775
190.4792,97.2571
190.4740,97.2638
190.4704,97.2680
190.3704,97.3681
190.3316,97.4337
190.3250,97.4415
190.3041,97.4555
190.2857,97.4727
190.2755,97.4745
190.2669,97.4803
190.2417,97.4807
190.2169,97.4852
190.2074,97.4812
190.1970,97.4814
190.1756,97.4681
190.1523,97.4585
190.1433,97.4481
190.1376,97.4446
190.1344,97.4379
190.1233,97.4250
190.1166,97.4138
190.0896,97.3681
189.9934,97.2719
189.9808,97.2571
189.9230,97.1775
189.7825,97.0370
189.7825,97.0370
189.6217,96.9202
189.5607,96.8892
189.4446,96.8300
189.4446,96.8300
189.2556,96.7686
189.1575,96.7530
189.0594,96.7375
188.8606,96.7375
188.8161,96.7446
188.6644,96.7686
188.4754,96.8300
188.4754,96.8300
188.2983,96.9202
188.1375,97.0370
187.9970,97.1775
187.9392,97.2571
187.9340,97.2638
187.9304,97.2680
187.8304,97.3681
187.7916,97.4337
187.7850,97.4415
187.7641,97.4555
187.7457,97.4727
187.7355,97.4745
187.7269,97.4803
187.7017,97.4807
187.6769,97.4852
187.6674,97.4812
187.6570,97.4814
187.6356,97.4681
187.6123,97.4585
187.6033,97.4481
187.5976,97.4446
187.5944,97.4379
187.5833,97.4250
187.5766,97.4138
187.5496,97.3681
187.4534,97.2719
187.4408,97.2571
187.3830,97.1775
187.2425,97.0370
187.2425,97.0370
187.0817,96.9202
187.0207,96.8892
186.9046,96.8300
186.9046,96.8300
186.7156,96.7686
186.6175,96.7530
186.5194,96.7375
186.3206,96.7375
186.2761,96.7446
186.1244,96.7686
185.9354,96.8300
185.9354,96.8300
185.7583,96.9202
185.5975,97.0370
185.4570,97.1775
185.3992,97.2571
185.3940,97.2638
185.3904,97.2680
185.2904,97.3681
185.2516,97.4337
185.2450,97.4415
185.2241,97.4555
185.2057,97.4727
185.1955,97.4745
185.1869,97.4803
185.1617,97.4807
185.1369,97.4852
185.1274,97.4812
185.1170,97.4814
185.0956,97.4681
185.0723,97.4585
185.0633,97.4481
185.0576,97.4446
185.0544,97.4379
185.0433,97.4250
185.0366,97.4138
185.0096,97.3681
184.9134,97.2719
184.9008,97.2571
184.8430,97.1775
184.7025,97.0370
184.7025,97.0370
184.5417,96.9202
184.4807,96.8892
184.3646,96.8300
184.3646,96.8300
184.1756,96.7686
184.0775,96.7530
183.9794,96.7375
183.7806,96.7375
183.7361,96.7446
183.5844,96.7686
183.3954,96.8300
183.3954,96.8300
183.2183,96.9202
183.0575,97.0370
182.9170,97.1775
182.8592,97.2571
182.8540,97.2638
182.8504,97.2680
182.7504,97.3681
182.7116,97.4337
182.7050,97.4415
182.6841,97.4555
182.6657,97.4727
182.6555,97.4745
182.6469,97.4803
182.6217,97.4807
182.5969,97.4852
182.5874,97.4812
182.5770,97.4814
182.5556,97.4681
182.5323,97.4585
182.5233,97.4481
182.5176,97.4446
182.5144,97.4379
182.5033,97.4250
182.4966,97.4138
182.4696,97.3681
182.3734,97.2719
182.3608,97.2571
182.3030,97.1775
182.1625,97.0370
182.1625,97.0370
182.0017,96.9202
181.9407,96.8892
181.8246,96.8300
181.8246,96.8300
181.6356,96.7686
181.5375,96.7530
181.4394,96.7375
181.2406,96.7375
181.1961,96.7446
181.0444,96.7686
180.8554,96.8300
180.8554,96.8300
180.6783,96.9202
180.5175,97.0370
180.3770,97.1775
180.3192,97.2571
180.3140,97.2638
180.3104,97.2680
180.2104,97.3681
180.1716,97.4337
180.1650,97.4415
180.1441,97.4555
180.1257,97.4727
180.1155,97.4745
180.1069,97.4803
180.0817,97.4807
180.0569,97.4852
180.0474,97.4812
180.0370,97.4814
180.0156,97.4681
179.9923,97.4585
179.9833,97.4481
179.9776,97.4446
179.9744,97.4379
179.9633,97.4250
179.9566,97.4138
179.9296,97.3681
179.8334,97.2719
179.8208,97.2571
179.7630,97.1775
179.6225,97.0370
179.6225,97.0370
179.4617,96.9202
179.4007,96.8892
179.2846,96.8300
179.2846,96.8300
179.0956,96.7686
178.9975,96.7530
178.8994,96.7375
178.7006,96.7375
178.5531,96.7609
178.5477,96.7602
178.5425,96.7621
178.5134,96.7557
178.4838,96.7519
178.4782,96.7481
178.4743,96.7472
178.4460,96.7261
178.3738,96.6539
178.3403,96.5925
178.3375,96.5662
178.3375,84.1079
178.3572,84.0408
178.4100,83.9951
178.4791,83.9851
178.4998,83.9899
178.5044,83.9914
178.5382,83.9968
178.7006,84.0225
178.7006,84.0225
178.8994,84.0225
178.8994,84.0225
179.0956,83.9914
179.2846,83.9300
179.4617,83.8398
179.6225,83.7230
179.7630,83.5825
179.8208,83.5029
179.8260,83.4962
179.8295,83.4920
179.9296,83.3919
179.9684,83.3263
179.9750,83.3185
179.9959,83.3045
180.0143,83.2873
180.0245,83.2855
180.0331,83.2797
180.0583,83.2793
180.0831,83.2748
180.0926,83.2788
180.1030,83.2786
180.1244,83.2919
180.1477,83.3015
180.1567,83.3119
180.1624,83.3154
180.1656,83.3221
180.1767,83.3350
180.2104,83.3919
180.2104,83.3919
180.3066,83.4881
180.3192,83.5029
180.3770,83.5825
180.5175,83.7230
180.6783,83.8398
180.7438,83.8732
180.8554,83.9300
180.8554,83.9300
180.9499,83.9607
181.0444,83.9914
181.2406,84.0225
181.2406,84.0225
181.4394,84.0225
181.4394,84.0225
181.6356,83.9914
181.8246,83.9300
182.0017,83.8398
182.1625,83.7230
182.3030,83.5825
182.3608,83.5029
182.3660,83.4962
182.3695,83.4920
182.4696,83.3919
182.5084,83.3263
182.5150,83.3185
182.5359,83.3045
182.5543,83.2873
182.5645,83.2855
182.5731,83.2797
182.5983,83.2793
182.6231,83.2748
182.6326,83.2788
182.6430,83.2786
182.6644,83.2919
182.6877,83.3015
182.6967,83.3119
182.7024,83.3154
182.7056,83.3221
182.7167,83.3350
182.7504,83.3919
182.7504,83.3919
182.8466,83.4881
182.8592,83.5029
182.9170,83.5825
183.0575,83.7230
183.2183,83.8398
183.2838,83.8732
183.3954,83.9300
183.3954,83.9300
183.4899,83.9607
183.5844,83.9914
183.7806,84.0225
183.7806,84.0225
183.9794,84.0225
183.9794,84.0225
184.1756,83.9914
184.3646,83.9300
184.5417,83.8398
184.7025,83.7230
184.8430,83.5825
184.9008,83.5029
184.9060,83.4962
184.9095,83.4920
185.0096,83.3919
185.0484,83.3263
185.0550,83.3185
185.0759,83.3045
185.0943,83.2873
185.1045,83.2855
185.1131,83.2797
185.1383,83.2793
185.1631,83.2748
185.1726,83.2788
185.1830,83.2786
185.2044,83.2919
185.2277,83.3015
185.2367,83.3119
185.2424,83.3154
185.2456,83.3221
185.2567,83.3350
185.2904,83.3919
185.2904,83.3919
185.3866,83.4881
185.3992,83.5029
185.4570,83.5825
185.5975,83.7230
185.7583,83.8398
185.8238,83.8732
185.9354,83.9300
185.9354,83.9300
186.0299,83.9607
186.1244,83.9914
186.3206,84.0225
186.3206,84.0225
186.5194,84.0225
186.5194,84.0225
186.7156,83.9914
186.9046,83.9300
187.0817,83.8398
187.2425,83.7230
187.3830,83.5825
187.4408,83.5029
187.4460,83.4962
187.4495,83.4920
187.5496,83.3919
187.5887,83.3258
187.5952,83.3180
187.6162,83.3040
187.6346,83.2868
187.6448,83.2850
187.6534,83.2793
187.6786,83.2788
187.7034,83.2743
187.7129,83.2783
187.7232,83.2781
187.7446,83.2914
187.7680,83.3010
187.7770,83.3114
187.7826,83.3149
187.7858,83.3216
187.7970,83.3345
187.8308,83.3916
187.8308,83.3916
187.9028,83.4636
188.5224,82.8441
188.5458,82.9316
188.6043,83.0329
188.6871,83.1157
188.7884,83.1742
188.8759,83.1976
188.2613,83.8123
188.2613,83.8123
188.2986,83.8394
188.4756,83.9295
188.6645,83.9909
188.8607,84.0220
189.0593,84.0220
189.2555,83.9909
189.2555,83.9909
189.4444,83.9295
189.6214,83.8394
189.6587,83.8123
189.0441,83.1976
189.1316,83.1742
189.2329,83.1157
189.3157,83.0329
189.3742,82.9316
189.3976,82.8441
190.0172,83.4636
190.0892,83.3916
190.1230,83.3345
190.1740,83.2868
190.2428,83.2743
190.3074,83.3010
190.3248,83.3180
190.3313,83.3258
190.3704,83.3919
190.4705,83.4920
190.4740,83.4962
190.4745,83.4974
190.4792,83.5029
190.5370,83.5825
190.6775,83.7230
190.8383,83.8398
190.9038,83.8732
191.0154,83.9300
191.0154,83.9300
191.1099,83.9607
191.2044,83.9914
191.4006,84.0225
191.4006,84.0225
191.5994,84.0225
191.5994,84.0225
191.7956,83.9914
191.9846,83.9300
192.1617,83.8398
192.3225,83.7230
192.4630,83.5825
192.5208,83.5029
192.5334,83.4881
192.6296,83.3919
192.7136,83.2500
192.7596,83.0915
192.7625,83.0545
192.7625,82.4665
192.7822,82.3995
192.7988,82.3788
194.2878,80.8898
194.3491,80.8564
Z" /> 
<path style="fill:#000000; fill-opacity:1.0000; stroke:none;fill-rule:evenodd;"
d="M 170.1045,95.6712
170.1503,95.7240
170.1615,95.7755
170.1615,95.9678
170.1679,96.0274
170.1679,96.0274
170.2181,96.1621
170.2224,96.1699
170.2192,96.1716
170.2375,96.2210
170.2225,96.2892
170.2213,96.2910
170.2177,96.2977
170.1674,96.4325
170.1674,96.4325
170.1610,96.4921
170.1610,96.4921
170.1610,96.4921
170.1610,97.2379
170.1610,97.2379
170.1674,97.2975
170.1748,97.3172
170.1769,97.3478
170.1813,97.3781
170.1794,97.3823
170.1797,97.3869
170.1650,97.4138
170.1523,97.4417
170.1484,97.4442
170.1462,97.4482
170.1193,97.4629
170.0935,97.4795
170.0873,97.4804
170.0849,97.4817
170.0586,97.4845
169.9558,97.4845
169.8888,97.4648
169.8681,97.4482
169.6868,97.2669
169.6533,97.2056
169.6505,97.1792
169.6505,95.8208
169.6702,95.7538
169.6868,95.7331
169.7321,95.6878
169.7934,95.6543
169.8198,95.6515
170.0375,95.6515
Z" /> 
<path style="fill:#000000; fill-opacity:1.0000; stroke:none;fill-rule:evenodd;"
d="M 167.9041,93.1351
167.9600,93.1770
167.9824,93.2271
167.9845,93.2379
167.9846,93.2383
167.9846,93.2383
167.9970,93.3007
167.9970,93.3007
168.0062,93.3229
168.0461,93.4191
168.1172,93.5257
168.1172,93.5257
168.1172,93.5257
168.3132,93.7216
168.3467,93.7829
168.3495,93.8093
168.3495,94.4359
168.3495,94.5641
168.3495,94.5641
168.3495,94.5641
168.3745,94.6897
168.3745,94.6897
168.4235,94.8081
168.4235,94.8081
168.4947,94.9147
168.4986,94.9194
168.4970,94.9207
168.5259,94.9736
168.5209,95.0433
168.4975,95.0797
168.4986,95.0806
168.4947,95.0853
168.4250,95.1897
168.4235,95.1919
168.4235,95.1919
168.3745,95.3103
168.3745,95.3103
168.3495,95.4359
168.3495,96.4217
168.3298,96.4888
168.2770,96.5345
168.2079,96.5445
168.1443,96.5154
168.1257,96.4944
168.1257,96.4944
168.1244,96.4929
168.1224,96.4906
168.1218,96.4897
168.1218,96.4897
168.0103,96.3782
168.0103,96.3782
167.8792,96.2906
167.8792,96.2906
167.7335,96.2303
167.7335,96.2303
167.5788,96.1995
167.5788,96.1995
167.4212,96.1995
167.3916,96.2054
167.3220,96.1991
167.2668,96.1563
167.2436,96.0904
167.2512,96.0404
167.2561,96.0274
167.2561,96.0274
167.2625,95.9678
167.2625,95.9678
167.2625,95.8450
166.1240,95.8450
166.0570,95.8253
166.0112,95.7725
166.0000,95.7210
166.0000,95.5950
165.8740,95.5950
165.8070,95.5753
165.7612,95.5225
165.7500,95.4710
165.7500,95.3450
166.2500,95.3450
167.2625,95.3450
167.2625,95.2222
167.2625,95.2222
167.2561,95.1626
167.2561,95.1626
167.2059,95.0279
167.2058,95.0279
167.1197,94.9128
167.1197,94.9128
167.0046,94.8266
167.0046,94.8266
166.8699,94.7764
166.8699,94.7764
166.8103,94.7700
166.2500,94.7700
166.2500,95.3450
165.7500,95.3450
165.7500,94.7700
165.1897,94.7700
165.1301,94.7764
165.1301,94.7764
164.9954,94.8266
164.9954,94.8266
164.8803,94.9128
164.8803,94.9128
164.7941,95.0279
164.7941,95.0279
164.7412,95.1699
164.7391,95.1691
164.7101,95.2201
164.6482,95.2524
164.5786,95.2462
164.5234,95.2034
164.5002,95.1375
164.5000,95.1308
164.5000,94.5375
164.5197,94.4705
164.5725,94.4247
164.6240,94.4135
166.3178,94.4135
166.4024,94.3967
166.4435,94.3885
166.5619,94.3395
166.5679,94.3354
166.6684,94.2683
167.7731,93.1636
167.8344,93.1301
Z" /> 
<path style="fill:#000000; fill-opacity:1.0000; stroke:none;fill-rule:evenodd;"
d="M 172.2037,92.4261
172.2102,92.4321
173.3132,93.5351
173.3467,93.5964
173.3495,93.6228
173.3495,94.6792
173.3298,94.7462
173.3132,94.7669
172.8810,95.1990
172.8197,95.2325
172.7500,95.2275
172.6941,95.1857
172.6771,95.1547
172.6299,95.0279
172.6299,95.0279
172.5437,94.9128
172.5437,94.9128
172.4286,94.8266
172.4286,94.8266
172.2939,94.7764
172.2939,94.7764
172.2343,94.7700
171.6578,94.7700
171.5908,94.7503
171.5450,94.6975
171.5351,94.6284
171.5641,94.5648
171.5701,94.5583
171.8533,94.2752
171.8533,94.2752
171.8533,94.2752
171.9245,94.1686
171.9649,94.0711
171.9735,94.0503
171.9735,94.0503
171.9985,93.9246
171.9985,92.5198
172.0182,92.4528
172.0710,92.4070
172.1401,92.3971
Z" /> 
<path style="fill:#000000; fill-opacity:1.0000; stroke:none;fill-rule:evenodd;"
d="M 169.9987,92.4384
169.9994,92.4383
170.0331,92.4486
170.1251,92.4917
170.1775,92.5380
170.1965,92.6040
170.1965,93.3322
170.1768,93.3992
170.1602,93.4199
169.8622,93.7179
169.8009,93.7514
169.7312,93.7464
169.6752,93.7045
169.6508,93.6390
169.6505,93.6302
169.6505,93.4244
169.6494,93.4191
169.6456,93.3997
169.6518,93.3302
169.6947,93.2750
169.7606,93.2517
169.7978,93.2560
169.7979,93.2560
169.7982,93.2561
169.8018,93.2565
169.8041,93.2571
169.8250,93.2588
169.8250,93.0568
169.8279,93.0303
169.8300,93.0207
169.8315,93.0170
169.8382,92.9832
169.8565,92.8913
169.8565,92.5609
169.8567,92.5602
169.8565,92.5596
169.8665,92.5267
169.8762,92.4938
169.8767,92.4934
169.8769,92.4928
169.9031,92.4705
169.9290,92.4481
169.9296,92.4480
169.9301,92.4476
169.9642,92.4430
169.9981,92.4381
Z" /> 
<path style="fill:#000000; fill-opacity:1.0000; stroke:none;fill-rule:evenodd;"
d="M 164.7052,90.2073
164.7386,90.2535
164.7906,90.3792
164.7906,90.3792
164.8782,90.5103
164.8782,90.5103
164.9897,90.6218
165.0332,90.6508
165.1208,90.7094
165.1208,90.7094
165.1208,90.7094
165.1247,90.7115
165.1746,90.7604
165.1900,90.8286
165.1899,90.8305
165.1895,90.8353
165.1895,90.8353
165.1895,91.2447
165.1924,91.2810
165.1924,91.2810
165.2375,91.4364
165.2375,91.4364
165.2499,91.4574
165.2671,91.5251
165.2499,91.5836
165.2380,91.6038
165.1955,91.7500
165.5016,91.7500
165.5648,91.7673
165.5736,91.7725
165.5736,91.7725
165.5736,91.7725
165.7290,91.8176
165.7290,91.8176
165.7290,91.8176
165.7653,91.8205
165.7653,91.8205
166.2347,91.8205
166.2347,91.8205
166.2710,91.8176
166.2710,91.8176
166.2710,91.8176
166.4264,91.7725
166.4264,91.7725
166.4264,91.7725
166.4352,91.7673
166.4984,91.7500
166.8045,91.7500
166.8120,91.7400
166.8156,91.7374
166.8174,91.7333
166.8433,91.7167
166.8680,91.6983
166.8735,91.6973
166.8762,91.6955
166.9111,91.6905
167.1069,91.6905
167.1740,91.7102
167.2197,91.7630
167.2297,91.8321
167.2006,91.8957
167.1946,91.9022
166.8831,92.2137
166.8218,92.2472
166.7954,92.2500
166.2500,92.2500
166.2500,92.7954
166.2303,92.8625
166.2137,92.8831
166.0206,93.0762
165.9593,93.1097
165.9329,93.1125
164.6240,93.1125
164.5570,93.0928
164.5112,93.0400
164.5000,92.9885
164.5000,92.2500
165.1955,92.2500
165.2380,92.3962
165.3203,92.5354
165.3203,92.5354
165.4346,92.6497
165.4346,92.6497
165.5738,92.7320
165.7291,92.7771
165.7500,92.7788
165.7500,92.2500
165.1955,92.2500
164.5000,92.2500
164.5000,90.3010
164.5197,90.2339
164.5725,90.1882
164.6416,90.1782
Z" /> 
<path style="fill:#000000; fill-opacity:1.0000; stroke:none;fill-rule:evenodd;"
d="M 166.2554,85.2527
166.2688,85.2536
166.2866,85.2669
166.3067,85.2761
166.3140,85.2874
166.3248,85.2955
166.3325,85.3162
166.3445,85.3349
166.3476,85.3568
166.3492,85.3610
166.3495,85.3698
166.3495,85.5641
166.3495,85.5641
166.3495,85.5641
166.3730,85.6823
166.3745,85.6897
166.3745,85.6897
166.4235,85.8081
166.4947,85.9147
166.4947,85.9147
167.3598,86.7797
167.3933,86.8411
167.3883,86.9108
167.3598,86.9551
167.3303,86.9846
167.3303,86.9846
167.2480,87.1238
167.2055,87.2700
167.7987,87.2700
167.8281,87.2786
167.8581,87.2852
167.8631,87.2889
167.8657,87.2897
167.8864,87.3063
167.9737,87.3936
168.0072,87.4549
168.0100,87.4813
168.0100,87.5755
167.9903,87.6425
167.9375,87.6883
167.8860,87.6995
167.7753,87.6995
167.7390,87.7024
167.7390,87.7024
167.5836,87.7475
167.5836,87.7475
167.5748,87.7527
167.5116,87.7700
167.1819,87.7700
167.1796,87.7717
167.1364,87.7795
166.8215,87.7795
166.7545,87.7598
166.7338,87.7432
166.4386,87.4479
166.4117,87.4077
166.3519,87.2633
166.3519,87.2633
166.2643,87.1322
166.2643,87.1322
166.1528,87.0207
166.1528,87.0207
166.0217,86.9331
166.0217,86.9331
165.8760,86.8728
165.8760,86.8728
165.7213,86.8420
165.7213,86.8420
165.5637,86.8420
165.5637,86.8420
165.4090,86.8728
165.4090,86.8728
165.2633,86.9331
165.2633,86.9331
165.1322,87.0207
165.1322,87.0207
165.0207,87.1322
165.0207,87.1322
164.9331,87.2633
164.9331,87.2633
164.8728,87.4090
164.8728,87.4090
164.8420,87.5637
164.8420,87.7213
164.8728,87.8760
164.8728,87.8760
164.9331,88.0217
164.9331,88.0217
165.0207,88.1528
165.0207,88.1528
165.1322,88.2643
165.1322,88.2643
165.2633,88.3519
165.2633,88.3519
165.4077,88.4117
165.4479,88.4386
166.0335,89.0241
166.0335,89.0241
166.1482,89.1008
166.2757,89.1536
166.2757,89.1536
166.2757,89.1536
166.2757,89.1536
166.4110,89.1805
166.4110,89.1805
166.4110,89.1805
167.1540,89.1805
167.2210,89.2002
167.2668,89.2530
167.2767,89.3221
167.2477,89.3857
167.2229,89.4076
167.1397,89.4632
167.1397,89.4632
167.0282,89.5747
167.0282,89.5747
166.9406,89.7058
166.9406,89.7058
166.8803,89.8514
166.8803,89.8515
166.8495,90.0061
166.8495,90.0061
166.8495,90.1638
166.8495,90.1638
166.8495,90.1638
166.8649,90.2413
166.8630,90.2623
166.8660,90.2831
166.8600,90.2964
166.8587,90.3109
166.8458,90.3275
166.8370,90.3467
166.8248,90.3546
166.8158,90.3661
166.7960,90.3731
166.7782,90.3845
166.7537,90.3880
166.7499,90.3893
166.7433,90.3895
166.7412,90.3895
166.6741,90.3698
166.6284,90.3170
166.6266,90.3130
166.6143,90.2831
166.5765,90.1919
166.5600,90.1673
166.5053,90.0853
166.5053,90.0853
166.5053,90.0853
166.5053,90.0853
166.3170,89.8971
166.2835,89.8357
166.2831,89.8337
166.2697,89.7665
166.2418,89.6990
166.2094,89.6208
166.2094,89.6208
166.1218,89.4897
166.1218,89.4897
166.0103,89.3782
166.0103,89.3782
165.8792,89.2906
165.8792,89.2906
165.7335,89.2303
165.7335,89.2303
165.5788,89.1995
165.5788,89.1995
165.4212,89.1995
165.4212,89.1995
165.2665,89.2303
165.2665,89.2303
165.1208,89.2906
165.1208,89.2906
164.9897,89.3782
164.9897,89.3782
164.8782,89.4897
164.8782,89.4897
164.7906,89.6208
164.7906,89.6208
164.7386,89.7465
164.6947,89.8009
164.6284,89.8229
164.5607,89.8057
164.5131,89.7545
164.5000,89.6990
164.5000,86.9713
164.5197,86.9043
164.5363,86.8836
166.1378,85.2821
166.1573,85.2715
166.1740,85.2570
166.1873,85.2551
166.1991,85.2486
166.2212,85.2502
166.2431,85.2471
Z" /> 
<path style="fill:#000000; fill-opacity:1.0000; stroke:none;fill-rule:evenodd;"
d="M 183.2023,77.2505
183.2032,77.2505
183.2032,77.2507
183.2347,77.2582
183.2677,77.2654
183.2690,77.2664
183.2699,77.2666
183.2959,77.2866
183.4559,77.4465
183.5093,77.5000
183.5535,77.5441
183.6682,77.6208
183.6682,77.6208
183.6973,77.6329
183.7328,77.6475
183.7957,77.6736
183.8226,77.6789
183.9180,77.6979
183.9310,77.7005
183.9310,77.7005
184.6671,77.7005
184.7342,77.7202
184.7548,77.7368
184.7631,77.7451
184.8778,77.8218
184.9757,77.8623
185.0053,77.8746
185.0053,77.8746
185.0053,77.8746
185.1406,77.9015
185.1406,77.9015
185.8594,77.9015
185.9715,77.8792
185.9947,77.8746
186.0797,77.8394
186.1222,77.8218
186.1222,77.8218
186.1411,77.8091
186.1929,77.7745
186.2302,77.7496
186.2305,77.7495
186.2306,77.7493
186.2318,77.7488
186.2625,77.7342
186.2686,77.7323
186.3076,77.7246
186.3482,77.7077
186.3538,77.7060
186.3633,77.7059
186.3904,77.7005
187.7708,77.7005
187.8379,77.7202
187.8836,77.7730
187.8936,77.8421
187.8646,77.9057
187.8359,77.9300
187.8317,77.9327
187.7077,78.0567
187.6156,78.2059
187.6156,78.2059
187.5605,78.3723
187.5605,78.3723
187.5500,78.4750
187.5500,78.7500
188.4260,78.7500
188.4930,78.7697
188.5388,78.8225
188.5500,78.8740
188.5500,79.1260
188.5303,79.1930
188.4775,79.2388
188.4260,79.2500
187.5500,79.2500
187.5500,79.5250
187.5605,79.6277
187.6156,79.7941
187.6156,79.7941
187.7077,79.9433
187.8317,80.0673
187.9410,80.1348
187.9877,80.1867
187.9989,80.2557
187.9711,80.3198
187.9519,80.3383
187.9474,80.3418
187.8308,80.4584
187.8308,80.4584
187.7970,80.5155
187.7460,80.5632
187.6772,80.5757
187.6126,80.5490
187.5836,80.5155
187.5496,80.4581
187.5496,80.4580
187.4330,80.3414
187.4329,80.3414
187.2910,80.2574
187.2910,80.2574
187.2099,80.2339
187.1511,80.1963
187.1219,80.1328
187.1316,80.0636
187.1378,80.0517
187.2120,79.9262
187.2120,79.9262
187.2571,79.7709
187.2571,79.7709
187.2588,79.7500
186.6040,79.7500
186.5370,79.7303
186.4912,79.6775
186.4800,79.6260
186.4800,79.5000
186.4245,79.5000
186.3575,79.4803
186.3117,79.4275
186.3005,79.3760
186.3005,79.2653
186.3005,79.2653
186.2976,79.2290
186.2976,79.2290
186.2525,79.0736
186.2525,79.0736
186.2473,79.0648
186.2300,79.0016
186.2300,78.6955
186.7300,78.6955
186.7300,79.2500
187.2588,79.2500
187.2571,79.2291
187.2120,79.0738
187.1297,78.9346
187.1297,78.9346
187.0154,78.8203
187.0154,78.8203
186.8762,78.7380
186.8762,78.7380
186.7300,78.6955
186.7300,78.6955
186.2300,78.6955
186.2300,78.6955
186.0838,78.7380
186.0838,78.7380
186.0636,78.7499
185.9959,78.7671
185.9374,78.7499
185.9164,78.7375
185.9164,78.7375
185.7610,78.6924
185.7610,78.6924
185.7247,78.6895
185.7247,78.6895
185.3153,78.6895
185.3153,78.6895
185.2790,78.6924
185.2790,78.6924
185.1236,78.7375
185.1236,78.7375
184.9843,78.8199
184.9843,78.8199
184.9410,78.8632
184.8797,78.8967
184.8533,78.8995
180.3905,78.8995
180.3235,78.8798
180.2777,78.8270
180.2678,78.7579
180.2968,78.6943
180.3028,78.6878
180.6185,78.3722
181.7041,77.2866
181.7654,77.2531
181.7968,77.2505
181.7968,77.2505
181.7969,77.2505
181.7981,77.2504
181.8000,77.2505
181.8000,77.2505
183.2000,77.2505
183.2000,77.2505
183.2019,77.2504
Z" /> 
<path style="fill:#000000; fill-opacity:1.0000; stroke:none;fill-rule:evenodd;"
d="M 191.6675,76.6952
191.7133,76.7480
191.7245,76.7995
191.7245,77.2833
191.7221,77.3075
191.6995,77.4212
191.6995,77.5788
191.7303,77.7335
191.7303,77.7335
191.7906,77.8792
191.7906,77.8792
191.8782,78.0103
191.8782,78.0103
191.9897,78.1218
191.9897,78.1218
192.1208,78.2094
192.1208,78.2094
192.2665,78.2697
192.2665,78.2697
192.4212,78.3005
192.4212,78.3005
192.4212,78.3005
192.5788,78.3005
192.5788,78.3005
192.7335,78.2697
192.8792,78.2094
193.0103,78.1218
193.0214,78.1107
193.0878,78.0443
193.1491,78.0108
193.2188,78.0158
193.2748,78.0576
193.2992,78.1231
193.2995,78.1319
193.2995,79.0814
193.2798,79.1484
193.2500,79.1805
193.2300,79.1955
193.2300,79.8760
193.2274,79.8847
193.2287,79.8936
193.2178,79.9177
193.2103,79.9430
193.2035,79.9490
193.1997,79.9572
193.1775,79.9715
193.1575,79.9888
193.1470,79.9911
193.1409,79.9950
193.1060,80.0000
192.9245,80.0000
192.8575,79.9803
192.8117,79.9275
192.8005,79.8760
192.8005,79.7653
192.8005,79.7653
192.7976,79.7290
192.7976,79.7290
192.7525,79.5736
192.7525,79.5736
192.7473,79.5648
192.7300,79.5016
192.7300,79.1955
192.7300,79.1955
192.5838,79.2380
192.5838,79.2380
192.5636,79.2499
192.4959,79.2671
192.4374,79.2499
192.4164,79.2375
192.4164,79.2375
192.2610,79.1924
192.2610,79.1924
192.2437,79.1910
192.1784,79.1661
192.1657,79.1551
191.4777,78.4670
191.4442,78.4057
191.4420,78.3920
191.4400,78.3722
191.4162,78.3005
191.3848,78.2057
191.2927,78.0563
191.1687,77.9323
191.0552,77.8623
191.0193,77.8402
191.0193,77.8402
190.9638,77.8218
190.8528,77.7850
190.8528,77.7850
190.7500,77.7745
190.5105,77.7745
190.4435,77.7548
190.3977,77.7020
190.3878,77.6329
190.4168,77.5693
190.4416,77.5474
190.4465,77.5441
190.5441,77.4465
190.6208,77.3318
190.6736,77.2043
190.6736,77.2043
190.6753,77.1985
190.7063,77.1468
191.1413,76.7118
191.2027,76.6783
191.2290,76.6755
191.6005,76.6755
Z" /> 
<path style="fill:#000000; fill-opacity:1.0000; stroke:none;fill-rule:evenodd;"
d="M 189.6912,77.7067
189.7133,77.7083
189.7240,77.7164
189.7369,77.7202
189.7514,77.7369
189.7692,77.7502
189.7739,77.7628
189.7827,77.7730
189.7858,77.7949
189.7936,77.8157
189.7907,77.8288
189.7926,77.8421
189.7834,77.8623
189.7787,77.8840
189.7655,77.9016
189.7636,77.9057
189.7603,77.9085
189.7575,77.9122
189.7473,77.9224
189.7313,77.9323
189.6073,78.0563
189.5976,78.0720
189.5874,78.0823
189.5260,78.1157
189.4563,78.1107
189.4004,78.0688
189.3942,78.0597
189.3923,78.0567
189.3923,78.0567
189.2683,77.9327
189.2641,77.9300
189.2173,77.8781
189.2061,77.8091
189.2340,77.7450
189.2920,77.7062
189.3292,77.7005
189.6699,77.7005
Z" /> 
<path style="fill:#000000; fill-opacity:1.0000; stroke:none;fill-rule:evenodd;"
d="M 193.2400,68.6114
193.2870,68.6631
193.2995,68.7173
193.2995,70.8314
193.2798,70.8984
193.2270,70.9442
193.1579,70.9541
193.0943,70.9251
193.0694,70.8955
193.0306,70.8314
193.0055,70.7898
193.0055,70.7898
193.0055,70.7898
192.8852,70.6695
192.8852,70.6695
192.7396,70.5815
192.7396,70.5815
192.7396,70.5815
192.7328,70.5784
192.7337,70.5764
192.6847,70.5438
192.6568,70.4798
192.6607,70.4296
192.7027,70.2852
192.7027,70.2852
192.7055,70.2492
192.7055,69.7508
192.7027,69.7148
192.6579,69.5606
192.5761,69.4224
192.5761,69.4224
192.5761,69.4224
192.4626,69.3089
192.4626,69.3089
192.3244,69.2271
192.3244,69.2271
192.1702,69.1823
192.1702,69.1823
192.1342,69.1795
191.7358,69.1795
191.7358,69.1795
191.6998,69.1823
191.5456,69.2271
191.5456,69.2271
191.4876,69.2614
191.4199,69.2786
191.3614,69.2614
191.3042,69.2276
191.3042,69.2276
191.1650,69.1872
191.1650,69.1872
191.1650,69.7396
191.1650,69.7400
191.1650,69.7447
191.1645,69.7508
191.1645,69.8764
191.1645,69.8765
191.1546,69.9098
191.1448,69.9430
191.1446,69.9432
191.1446,69.9434
191.1182,69.9661
191.0920,69.9888
191.0918,69.9888
191.0916,69.9890
191.0903,69.9892
191.0405,70.0000
190.9150,70.0000
190.9150,70.1260
190.8953,70.1930
190.8425,70.2388
190.7910,70.2500
190.1451,70.2500
190.1478,70.2851
190.1899,70.4299
190.1897,70.4998
190.1518,70.5584
190.1169,70.5778
190.1174,70.5789
190.1106,70.5820
189.9651,70.6699
189.8449,70.7901
189.7570,70.9356
189.7064,71.0979
189.7000,71.1684
189.7000,71.2500
190.4760,71.2500
190.5430,71.2697
190.5888,71.3225
190.6000,71.3740
190.6000,71.5000
190.7260,71.5000
190.7930,71.5197
190.8388,71.5725
190.8500,71.6240
190.8500,72.4810
190.8303,72.5480
190.7775,72.5938
190.7260,72.6050
190.7250,72.6050
190.7250,73.3125
191.2750,73.3125
191.2750,72.9094
191.2750,72.9094
191.2721,72.8725
191.2721,72.8725
191.2263,72.7148
191.2263,72.7148
191.1427,72.5734
191.1427,72.5734
191.1377,72.5684
191.1042,72.5071
191.1092,72.4374
191.1510,72.3815
191.1612,72.3746
191.2349,72.3301
191.2349,72.3301
191.3370,72.2280
191.3449,72.2236
191.3503,72.2164
191.3751,72.2072
191.3983,72.1945
191.4073,72.1951
191.4158,72.1920
191.4416,72.1976
191.4680,72.1995
191.4770,72.2053
191.4841,72.2068
191.5123,72.2280
191.5632,72.2788
191.5967,72.3402
191.5995,72.3665
191.5995,72.7787
191.5946,72.8133
191.5774,72.8724
191.5774,72.8724
191.5745,72.9093
191.5745,74.0755
191.5719,74.0842
191.5732,74.0931
191.5623,74.1172
191.5548,74.1425
191.5480,74.1485
191.5442,74.1567
191.5220,74.1710
191.5020,74.1883
191.4915,74.1906
191.4854,74.1945
191.4505,74.1995
191.3990,74.1995
191.3320,74.1798
191.2862,74.1270
191.2750,74.0755
191.2750,73.8125
190.7250,73.8125
190.7250,74.4682
190.7077,74.5313
190.6733,74.5896
190.6733,74.5896
190.6274,74.7474
190.6274,74.7474
190.6245,74.7843
190.6245,75.1960
190.6048,75.2630
190.5882,75.2837
189.6087,76.2632
189.5817,76.2779
189.5559,76.2945
189.5497,76.2954
189.5473,76.2967
189.5210,76.2995
189.4077,76.2995
189.3407,76.2798
189.2949,76.2270
189.2850,76.1579
189.2861,76.1513
189.3005,76.0788
189.3005,76.0788
189.3005,75.9212
189.3005,75.9212
189.2745,75.7906
189.2697,75.7665
189.2697,75.7665
189.2094,75.6208
189.2094,75.6208
189.1218,75.4897
189.1218,75.4897
189.0103,75.3782
189.0103,75.3782
188.8792,75.2906
188.8792,75.2906
188.7335,75.2303
188.7335,75.2303
188.7003,75.2237
188.6384,75.1913
188.6038,75.1306
188.6005,75.1020
188.6005,74.5530
188.6178,74.4899
188.6183,74.4891
188.7017,74.3479
188.7402,74.2156
189.6750,74.2156
189.6779,74.2525
189.6779,74.2525
189.7237,74.4102
189.7237,74.4102
189.8073,74.5516
189.8073,74.5516
189.9234,74.6677
189.9234,74.6677
190.0648,74.7513
190.2225,74.7971
190.2225,74.7971
190.2250,74.7973
190.2250,74.7973
190.2250,73.8125
189.6750,73.8125
189.6750,74.2156
188.7402,74.2156
188.7476,74.1901
188.7505,74.1532
188.7505,72.9094
189.6750,72.9094
189.6750,73.3125
190.2250,73.3125
190.2250,72.3190
190.2447,72.2520
190.2975,72.2062
190.3490,72.1950
190.3500,72.1950
190.3500,71.7500
189.7000,71.7500
189.7000,71.8316
189.7064,71.9021
189.7064,71.9021
189.7570,72.0644
189.8449,72.2099
189.9202,72.2852
189.9537,72.3465
189.9487,72.4162
189.9202,72.4605
189.8073,72.5734
189.8073,72.5734
189.7237,72.7148
189.7237,72.7148
189.6779,72.8725
189.6779,72.8725
189.6750,72.9094
188.7505,72.9094
188.7505,72.8468
188.7476,72.8099
188.7200,72.7148
188.7017,72.6521
188.7017,72.6521
188.6928,72.6369
188.6884,72.6210
188.6805,72.6087
188.6755,72.5738
188.6755,72.3665
188.6952,72.2995
188.7118,72.2788
188.7805,72.2102
188.8685,72.0646
188.9191,71.9022
188.9255,71.8316
188.9255,71.1684
188.9191,71.0978
188.8685,70.9354
188.7805,70.7898
188.7805,70.7898
188.7805,70.7898
188.6569,70.6663
188.6234,70.6049
188.6284,70.5353
188.6379,70.5155
188.6829,70.4394
188.7277,70.2852
188.7305,70.2492
188.7305,69.7508
188.7304,69.7500
190.1451,69.7500
190.6650,69.7500
190.6650,69.1872
190.6650,69.1872
190.5258,69.2276
190.5258,69.2276
190.3877,69.3093
190.3877,69.3093
190.2743,69.4227
190.2743,69.4227
190.1926,69.5608
190.1926,69.5608
190.1478,69.7149
190.1478,69.7149
190.1451,69.7500
188.7304,69.7500
188.7277,69.7148
188.6829,69.5606
188.6011,69.4224
188.6011,69.4224
188.6011,69.4224
188.4876,69.3089
188.4876,69.3089
188.3494,69.2271
188.3494,69.2271
188.1952,69.1823
188.1952,69.1823
188.1592,69.1795
187.7608,69.1795
187.7608,69.1795
187.7248,69.1823
187.5706,69.2271
187.5706,69.2271
187.5126,69.2614
187.4449,69.2786
187.3864,69.2614
187.3292,69.2276
187.3292,69.2276
187.1900,69.1872
187.1900,69.1872
187.1900,69.7396
187.1900,69.7400
187.1900,69.7447
187.1895,69.7508
187.1895,69.8764
187.1895,69.8765
187.1796,69.9098
187.1698,69.9430
187.1696,69.9432
187.1696,69.9434
187.1432,69.9661
187.1170,69.9888
187.1168,69.9888
187.1166,69.9890
187.1153,69.9892
187.0655,70.0000
186.9400,70.0000
186.9400,70.1260
186.9203,70.1930
186.8675,70.2388
186.8160,70.2500
186.1701,70.2500
186.1728,70.2851
186.1974,70.3695
186.1972,70.4394
186.1592,70.4981
186.0956,70.5269
186.0895,70.5276
186.0479,70.5314
186.0479,70.5314
185.8856,70.5820
185.7401,70.6699
185.6199,70.7901
185.5320,70.9356
185.4814,71.0979
185.4750,71.1684
185.4750,71.2500
186.2510,71.2500
186.3180,71.2697
186.3638,71.3225
186.3750,71.3740
186.3750,71.6260
186.3553,71.6930
186.3025,71.7388
186.2510,71.7500
185.4750,71.7500
185.4750,71.8316
185.4814,71.9021
185.4814,71.9021
185.5320,72.0644
185.6055,72.1860
185.6234,72.2536
185.6018,72.3201
185.5625,72.3569
185.4984,72.3948
185.4984,72.3948
185.3823,72.5109
185.3823,72.5109
185.2987,72.6523
185.2987,72.6523
185.2529,72.8100
185.2529,72.8100
185.2500,72.8469
185.2500,73.2500
186.8500,73.2500
186.8500,72.8469
186.8500,72.8469
186.8471,72.8100
186.8471,72.8100
186.8013,72.6523
186.7739,72.6060
186.7567,72.5382
186.7789,72.4720
186.8333,72.4282
186.8437,72.4245
186.8644,72.4180
187.0099,72.3301
187.0099,72.3301
187.1120,72.2280
187.1199,72.2236
187.1253,72.2164
187.1501,72.2072
187.1733,72.1945
187.1823,72.1951
187.1908,72.1920
187.2166,72.1976
187.2430,72.1995
187.2520,72.2053
187.2591,72.2068
187.2873,72.2280
187.3382,72.2788
187.3717,72.3402
187.3745,72.3665
187.3745,72.3667
187.3682,72.3880
187.3667,72.4099
187.3587,72.4205
187.3548,72.4337
187.3382,72.4544
187.2819,72.5106
187.2819,72.5106
187.1983,72.6521
187.1983,72.6521
187.1524,72.8099
187.1524,72.8099
187.1495,72.8468
187.1495,74.0130
187.1469,74.0217
187.1482,74.0306
187.1373,74.0547
187.1298,74.0800
187.1230,74.0860
187.1192,74.0942
187.0970,74.1085
187.0770,74.1258
187.0665,74.1281
187.0604,74.1320
187.0255,74.1370
186.9740,74.1370
186.9070,74.1173
186.8612,74.0645
186.8500,74.0130
186.8500,73.7500
186.3000,73.7500
186.3000,74.4057
186.2827,74.4688
186.2483,74.5271
186.2483,74.5271
186.2024,74.6849
186.2024,74.6849
186.1995,74.7218
186.1995,75.2042
186.1798,75.2712
186.1632,75.2919
185.7731,75.6820
185.7118,75.7154
185.6612,75.7159
185.5788,75.6995
185.5788,75.6995
185.4212,75.6995
185.4212,75.6995
185.2665,75.7303
185.2665,75.7303
185.1208,75.7906
185.1208,75.7906
184.9897,75.8782
184.9897,75.8782
184.8782,75.9897
184.8782,75.9897
184.7906,76.1208
184.7906,76.1208
184.7483,76.2230
184.7045,76.2774
184.6382,76.2994
184.6337,76.2995
184.3415,76.2995
184.2745,76.2798
184.2538,76.2632
183.9368,75.9462
183.9033,75.8848
183.9005,75.8585
183.9005,74.4500
183.9005,74.4500
183.8900,74.3472
183.8900,74.3472
183.8586,74.2526
183.8348,74.1807
183.8178,74.1531
185.2500,74.1531
185.2529,74.1900
185.2529,74.1900
185.2987,74.3477
185.2987,74.3477
185.3823,74.4891
185.3823,74.4891
185.4984,74.6052
185.4984,74.6052
185.6398,74.6888
185.7975,74.7346
185.7975,74.7346
185.8000,74.7348
185.8000,74.7348
185.8000,73.7500
185.2500,73.7500
185.2500,74.1531
183.8178,74.1531
183.7427,74.0313
183.6187,73.9073
183.4933,73.8300
183.4693,73.8152
183.4693,73.8152
183.4612,73.8125
183.3028,73.7600
183.3028,73.7600
183.2000,73.7495
181.8000,73.7495
181.8000,73.7495
181.6972,73.7600
181.6972,73.7600
181.5307,73.8152
181.5307,73.8152
181.5067,73.8300
181.4393,73.8484
181.3726,73.8275
181.3278,73.7739
181.3192,73.7045
181.3494,73.6415
181.3539,73.6368
181.7041,73.2866
181.7654,73.2531
181.7968,73.2505
181.7968,73.2505
181.7969,73.2505
181.7981,73.2504
181.8000,73.2505
181.8000,73.2505
183.2000,73.2505
183.3028,73.2400
183.4693,73.1848
183.6187,73.0927
183.7427,72.9687
183.8348,72.8193
183.8900,72.6528
183.9005,72.5500
183.9005,71.1415
183.9202,71.0745
183.9368,71.0538
184.0671,70.9235
184.2451,70.7455
184.2815,70.6911
184.3218,70.6308
184.3632,70.5309
184.3746,70.5033
184.3867,70.4423
184.3916,70.4175
184.4015,70.3680
184.4015,69.7500
186.1701,69.7500
186.6900,69.7500
186.6900,69.1872
186.6900,69.1872
186.5508,69.2276
186.5508,69.2276
186.4127,69.3093
186.4127,69.3093
186.2993,69.4227
186.2993,69.4227
186.2176,69.5608
186.2176,69.5608
186.1728,69.7149
186.1728,69.7149
186.1701,69.7500
184.4015,69.7500
184.4015,68.9283
184.4212,68.8613
184.4740,68.8155
184.5225,68.8043
193.1725,68.5934
Z" /> 
</g> 
</svg>
