<?xml version="1.0" standalone="no"?>
 <!DOCTYPE svg PUBLIC "-//W3C//DTD SVG 1.1//EN" 
 "http://www.w3.org/Graphics/SVG/1.1/DTD/svg11.dtd"> 
<svg
  xmlns:svg="http://www.w3.org/2000/svg"
  xmlns="http://www.w3.org/2000/svg"
  xmlns:xlink="http://www.w3.org/1999/xlink"
  version="1.1"
  width="297.0022mm" height="210.0072mm" viewBox="0.0000 0.0000 297.0022 210.0072">
<title>SVG Image created as RelaySwitch_C6-B_Mask.svg date 2026/03/09 13:05:11 </title>
  <desc>Image generated by PCBNEW </desc>
<g style="fill:#000000; fill-opacity:1.0000;stroke:#000000; stroke-opacity:1.0000;
stroke-linecap:round; stroke-linejoin:round;"
 transform="translate(0 0) scale(1 1)">
</g>
<g style="fill:#000000; fill-opacity:1.0000; stroke:none;">
<circle cx="191.5000" cy="57.5000" r="0.8560" /> 
</g>
<g style="fill:#000000; fill-opacity:1.0000; stroke:none;">
<circle cx="189.0000" cy="57.5000" r="0.8560" /> 
</g>
<g style="fill:#000000; fill-opacity:1.0000; stroke:none;">
<circle cx="172.5000" cy="57.5000" r="0.8560" /> 
</g>
<g style="fill:#000000; fill-opacity:1.0000; stroke:none;">
<circle cx="167.5000" cy="57.5000" r="0.8560" /> 
<path style="fill:#000000; fill-opacity:1.0000; stroke:none;fill-rule:evenodd;"
d="M 192.7000,79.8300
192.7107,79.7764
192.7410,79.7310
192.7864,79.7007
192.8400,79.6900
193.1200,79.6900
193.1736,79.7007
193.2190,79.7310
193.2493,79.7764
193.2600,79.8300
193.2600,80.1700
193.2493,80.2236
193.2190,80.2690
193.1736,80.2993
193.1200,80.3100
192.8400,80.3100
192.7864,80.2993
192.7410,80.2690
192.7107,80.2236
192.7000,80.1700
Z" /> 
<path style="fill:#000000; fill-opacity:1.0000; stroke:none;fill-rule:evenodd;"
d="M 191.7400,79.8300
191.7507,79.7764
191.7810,79.7310
191.8264,79.7007
191.8800,79.6900
192.1600,79.6900
192.2136,79.7007
192.2590,79.7310
192.2893,79.7764
192.3000,79.8300
192.3000,80.1700
192.2893,80.2236
192.2590,80.2690
192.2136,80.2993
192.1600,80.3100
191.8800,80.3100
191.8264,80.2993
191.7810,80.2690
191.7507,80.2236
191.7400,80.1700
Z" /> 
<path style="fill:#000000; fill-opacity:1.0000; stroke:none;fill-rule:evenodd;"
d="M 190.9500,79.4750
190.9310,79.5707
190.8768,79.6518
190.7957,79.7060
190.7000,79.7250
190.2000,79.7250
190.1043,79.7060
190.0232,79.6518
189.9690,79.5707
189.9500,79.4750
189.9500,78.5250
189.9690,78.4293
190.0232,78.3482
190.1043,78.2940
190.2000,78.2750
190.7000,78.2750
190.7957,78.2940
190.8768,78.3482
190.9310,78.4293
190.9500,78.5250
Z" /> 
<path style="fill:#000000; fill-opacity:1.0000; stroke:none;fill-rule:evenodd;"
d="M 189.0500,79.4750
189.0310,79.5707
188.9768,79.6518
188.8957,79.7060
188.8000,79.7250
188.3000,79.7250
188.2043,79.7060
188.1232,79.6518
188.0690,79.5707
188.0500,79.4750
188.0500,78.5250
188.0690,78.4293
188.1232,78.3482
188.2043,78.2940
188.3000,78.2750
188.8000,78.2750
188.8957,78.2940
188.9768,78.3482
189.0310,78.4293
189.0500,78.5250
Z" /> 
</g>
<g style="fill:#000000; fill-opacity:1.0000; stroke:none;">
<circle cx="147.5000" cy="76.0000" r="1.0000" /> 
</g>
<g style="fill:#000000; fill-opacity:1.0000; stroke:none;">
<circle cx="147.5000" cy="81.0000" r="1.0000" /> 
</g>
<g style="fill:#000000; fill-opacity:1.0000; stroke:none;">
<circle cx="158.5000" cy="53.3500" r="0.8000" /> 
</g>
<g style="fill:#000000; fill-opacity:1.0000; stroke:none;">
<circle cx="163.5000" cy="54.6500" r="0.8000" /> 
</g>
<g style="fill:#000000; fill-opacity:1.0000; stroke:none;">
<circle cx="147.5000" cy="94.2500" r="1.0000" /> 
</g>
<g style="fill:#000000; fill-opacity:1.0000; stroke:none;">
<circle cx="147.5000" cy="99.2500" r="1.0000" /> 
<path style="fill:#000000; fill-opacity:1.0000; stroke:none;fill-rule:evenodd;"
d="M 155.7750,75.1500
155.7750,77.4500
153.4750,77.4500
153.4750,75.1500
Z" /> 
</g>
<g style="fill:#000000; fill-opacity:1.0000; stroke:none;">
<circle cx="164.7850" cy="76.3000" r="1.1500" /> 
</g>
<g style="fill:#000000; fill-opacity:1.0000; stroke:none;">
<circle cx="172.4050" cy="76.3000" r="1.1500" /> 
</g>
<g style="fill:#000000; fill-opacity:1.0000; stroke:none;">
<circle cx="169.8650" cy="68.6800" r="1.1500" /> 
</g>
<g style="fill:#000000; fill-opacity:1.0000; stroke:none;">
<circle cx="154.6250" cy="68.6800" r="1.1500" /> 
<path style="fill:#000000; fill-opacity:1.0000; stroke:none;fill-rule:evenodd;"
d="M 156.0300,81.7750
153.7300,81.7750
153.7300,79.4750
156.0300,79.4750
Z" /> 
</g>
<g style="fill:#000000; fill-opacity:1.0000; stroke:none;">
<circle cx="154.8800" cy="90.7850" r="1.1500" /> 
</g>
<g style="fill:#000000; fill-opacity:1.0000; stroke:none;">
<circle cx="154.8800" cy="98.4050" r="1.1500" /> 
</g>
<g style="fill:#000000; fill-opacity:1.0000; stroke:none;">
<circle cx="162.5000" cy="95.8650" r="1.1500" /> 
</g>
<g style="fill:#000000; fill-opacity:1.0000; stroke:none;">
<circle cx="162.5000" cy="80.6250" r="1.1500" /> 
</g>
<g style="fill:#000000; fill-opacity:1.0000; stroke:none;">
<circle cx="147.5000" cy="66.0000" r="1.0000" /> 
</g>
<g style="fill:#000000; fill-opacity:1.0000; stroke:none;">
<circle cx="147.5000" cy="71.0000" r="1.0000" /> 
</g>
<g style="fill:#000000; fill-opacity:1.0000; stroke:none;">
<circle cx="147.5000" cy="86.0000" r="1.0000" /> 
</g>
<g style="fill:#000000; fill-opacity:1.0000; stroke:none;">
<circle cx="147.5000" cy="91.0000" r="1.0000" /> 
</g>
<g style="fill:#000000; fill-opacity:1.0000; stroke:none;">
<circle cx="147.5000" cy="51.0000" r="1.1500" /> 
</g>
<g style="fill:#000000; fill-opacity:1.0000; stroke:none;">
<circle cx="147.5000" cy="56.0000" r="1.1500" /> 
</g>
<g style="fill:#000000; fill-opacity:1.0000; stroke:none;">
<circle cx="147.5000" cy="61.0000" r="1.1500" /> 
</g>
<g style="fill:#000000; fill-opacity:1.0000; stroke:none;">
<circle cx="191.5000" cy="98.0000" r="0.7620" /> 
<path style="fill:#000000; fill-opacity:1.0000; stroke:none;fill-rule:evenodd;"
d="M 192.1096,97.6190
192.1679,97.6306
192.2174,97.6636
192.2504,97.7131
192.2620,97.7714
192.2620,99.8986
192.2504,99.9569
192.2174,100.0064
192.1679,100.0394
192.1096,100.0510
190.8904,100.0510
190.8321,100.0394
190.7826,100.0064
190.7496,99.9569
190.7380,99.8986
190.7380,97.7714
190.7496,97.7131
190.7826,97.6636
190.8321,97.6306
190.8904,97.6190
Z" /> 
</g>
<g style="fill:#000000; fill-opacity:1.0000; stroke:none;">
<circle cx="188.9600" cy="98.0000" r="0.7620" /> 
<path style="fill:#000000; fill-opacity:1.0000; stroke:none;fill-rule:evenodd;"
d="M 189.5696,97.6190
189.6279,97.6306
189.6774,97.6636
189.7104,97.7131
189.7220,97.7714
189.7220,99.8986
189.7104,99.9569
189.6774,100.0064
189.6279,100.0394
189.5696,100.0510
188.3504,100.0510
188.2921,100.0394
188.2426,100.0064
188.2096,99.9569
188.1980,99.8986
188.1980,97.7714
188.2096,97.7131
188.2426,97.6636
188.2921,97.6306
188.3504,97.6190
Z" /> 
</g>
<g style="fill:#000000; fill-opacity:1.0000; stroke:none;">
<circle cx="186.4200" cy="98.0000" r="0.7620" /> 
<path style="fill:#000000; fill-opacity:1.0000; stroke:none;fill-rule:evenodd;"
d="M 187.0296,97.6190
187.0879,97.6306
187.1374,97.6636
187.1704,97.7131
187.1820,97.7714
187.1820,99.8986
187.1704,99.9569
187.1374,100.0064
187.0879,100.0394
187.0296,100.0510
185.8104,100.0510
185.7521,100.0394
185.7026,100.0064
185.6696,99.9569
185.6580,99.8986
185.6580,97.7714
185.6696,97.7131
185.7026,97.6636
185.7521,97.6306
185.8104,97.6190
Z" /> 
</g>
<g style="fill:#000000; fill-opacity:1.0000; stroke:none;">
<circle cx="183.8800" cy="98.0000" r="0.7620" /> 
<path style="fill:#000000; fill-opacity:1.0000; stroke:none;fill-rule:evenodd;"
d="M 184.4896,97.6190
184.5479,97.6306
184.5974,97.6636
184.6304,97.7131
184.6420,97.7714
184.6420,99.8986
184.6304,99.9569
184.5974,100.0064
184.5479,100.0394
184.4896,100.0510
183.2704,100.0510
183.2121,100.0394
183.1626,100.0064
183.1296,99.9569
183.1180,99.8986
183.1180,97.7714
183.1296,97.7131
183.1626,97.6636
183.2121,97.6306
183.2704,97.6190
Z" /> 
</g>
<g style="fill:#000000; fill-opacity:1.0000; stroke:none;">
<circle cx="181.3400" cy="98.0000" r="0.7620" /> 
<path style="fill:#000000; fill-opacity:1.0000; stroke:none;fill-rule:evenodd;"
d="M 181.9496,97.6190
182.0079,97.6306
182.0574,97.6636
182.0904,97.7131
182.1020,97.7714
182.1020,99.8986
182.0904,99.9569
182.0574,100.0064
182.0079,100.0394
181.9496,100.0510
180.7304,100.0510
180.6721,100.0394
180.6226,100.0064
180.5896,99.9569
180.5780,99.8986
180.5780,97.7714
180.5896,97.7131
180.6226,97.6636
180.6721,97.6306
180.7304,97.6190
Z" /> 
</g>
<g style="fill:#000000; fill-opacity:1.0000; stroke:none;">
<circle cx="178.8000" cy="98.0000" r="0.7620" /> 
<path style="fill:#000000; fill-opacity:1.0000; stroke:none;fill-rule:evenodd;"
d="M 179.4096,97.6190
179.4679,97.6306
179.5174,97.6636
179.5504,97.7131
179.5620,97.7714
179.5620,99.8986
179.5504,99.9569
179.5174,100.0064
179.4679,100.0394
179.4096,100.0510
178.1904,100.0510
178.1321,100.0394
178.0826,100.0064
178.0496,99.9569
178.0380,99.8986
178.0380,97.7714
178.0496,97.7131
178.0826,97.6636
178.1321,97.6306
178.1904,97.6190
Z" /> 
</g>
<g style="fill:#000000; fill-opacity:1.0000; stroke:none;">
<circle cx="176.2600" cy="98.0000" r="0.7620" /> 
<path style="fill:#000000; fill-opacity:1.0000; stroke:none;fill-rule:evenodd;"
d="M 176.8696,97.6190
176.9279,97.6306
176.9774,97.6636
177.0104,97.7131
177.0220,97.7714
177.0220,99.8986
177.0104,99.9569
176.9774,100.0064
176.9279,100.0394
176.8696,100.0510
175.6504,100.0510
175.5921,100.0394
175.5426,100.0064
175.5096,99.9569
175.4980,99.8986
175.4980,97.7714
175.5096,97.7131
175.5426,97.6636
175.5921,97.6306
175.6504,97.6190
Z" /> 
<path style="fill:#000000; fill-opacity:1.0000; stroke:none;fill-rule:evenodd;"
d="M 175.6504,83.1410
175.5921,83.1294
175.5426,83.0964
175.5096,83.0469
175.4980,82.9886
175.4980,80.8614
175.5096,80.8031
175.5426,80.7536
175.5921,80.7206
175.6504,80.7090
176.8696,80.7090
176.9279,80.7206
176.9774,80.7536
177.0104,80.8031
177.0220,80.8614
177.0220,82.9886
177.0104,83.0469
176.9774,83.0964
176.9279,83.1294
176.8696,83.1410
Z" /> 
</g>
<g style="fill:#000000; fill-opacity:1.0000; stroke:none;">
<circle cx="176.2600" cy="82.7600" r="0.7620" /> 
<path style="fill:#000000; fill-opacity:1.0000; stroke:none;fill-rule:evenodd;"
d="M 178.1904,83.1410
178.1321,83.1294
178.0826,83.0964
178.0496,83.0469
178.0380,82.9886
178.0380,80.8614
178.0496,80.8031
178.0826,80.7536
178.1321,80.7206
178.1904,80.7090
179.4096,80.7090
179.4679,80.7206
179.5174,80.7536
179.5504,80.8031
179.5620,80.8614
179.5620,82.9886
179.5504,83.0469
179.5174,83.0964
179.4679,83.1294
179.4096,83.1410
Z" /> 
</g>
<g style="fill:#000000; fill-opacity:1.0000; stroke:none;">
<circle cx="178.8000" cy="82.7600" r="0.7620" /> 
<path style="fill:#000000; fill-opacity:1.0000; stroke:none;fill-rule:evenodd;"
d="M 180.7304,83.1410
180.6721,83.1294
180.6226,83.0964
180.5896,83.0469
180.5780,82.9886
180.5780,80.8614
180.5896,80.8031
180.6226,80.7536
180.6721,80.7206
180.7304,80.7090
181.9496,80.7090
182.0079,80.7206
182.0574,80.7536
182.0904,80.8031
182.1020,80.8614
182.1020,82.9886
182.0904,83.0469
182.0574,83.0964
182.0079,83.1294
181.9496,83.1410
Z" /> 
</g>
<g style="fill:#000000; fill-opacity:1.0000; stroke:none;">
<circle cx="181.3400" cy="82.7600" r="0.7620" /> 
<path style="fill:#000000; fill-opacity:1.0000; stroke:none;fill-rule:evenodd;"
d="M 183.2704,83.1410
183.2121,83.1294
183.1626,83.0964
183.1296,83.0469
183.1180,82.9886
183.1180,80.8614
183.1296,80.8031
183.1626,80.7536
183.2121,80.7206
183.2704,80.7090
184.4896,80.7090
184.5479,80.7206
184.5974,80.7536
184.6304,80.8031
184.6420,80.8614
184.6420,82.9886
184.6304,83.0469
184.5974,83.0964
184.5479,83.1294
184.4896,83.1410
Z" /> 
</g>
<g style="fill:#000000; fill-opacity:1.0000; stroke:none;">
<circle cx="183.8800" cy="82.7600" r="0.7620" /> 
<path style="fill:#000000; fill-opacity:1.0000; stroke:none;fill-rule:evenodd;"
d="M 185.8104,83.1410
185.7521,83.1294
185.7026,83.0964
185.6696,83.0469
185.6580,82.9886
185.6580,80.8614
185.6696,80.8031
185.7026,80.7536
185.7521,80.7206
185.8104,80.7090
187.0296,80.7090
187.0879,80.7206
187.1374,80.7536
187.1704,80.8031
187.1820,80.8614
187.1820,82.9886
187.1704,83.0469
187.1374,83.0964
187.0879,83.1294
187.0296,83.1410
Z" /> 
</g>
<g style="fill:#000000; fill-opacity:1.0000; stroke:none;">
<circle cx="186.4200" cy="82.7600" r="0.7620" /> 
<path style="fill:#000000; fill-opacity:1.0000; stroke:none;fill-rule:evenodd;"
d="M 188.3504,83.1410
188.2921,83.1294
188.2426,83.0964
188.2096,83.0469
188.1980,82.9886
188.1980,80.8614
188.2096,80.8031
188.2426,80.7536
188.2921,80.7206
188.3504,80.7090
189.5696,80.7090
189.6279,80.7206
189.6774,80.7536
189.7104,80.8031
189.7220,80.8614
189.7220,82.9886
189.7104,83.0469
189.6774,83.0964
189.6279,83.1294
189.5696,83.1410
Z" /> 
</g>
<g style="fill:#000000; fill-opacity:1.0000; stroke:none;">
<circle cx="188.9600" cy="82.7600" r="0.7620" /> 
<path style="fill:#000000; fill-opacity:1.0000; stroke:none;fill-rule:evenodd;"
d="M 190.8904,83.1410
190.8321,83.1294
190.7826,83.0964
190.7496,83.0469
190.7380,82.9886
190.7380,80.8614
190.7496,80.8031
190.7826,80.7536
190.8321,80.7206
190.8904,80.7090
192.1096,80.7090
192.1679,80.7206
192.2174,80.7536
192.2504,80.8031
192.2620,80.8614
192.2620,82.9886
192.2504,83.0469
192.2174,83.0964
192.1679,83.1294
192.1096,83.1410
Z" /> 
</g>
<g style="fill:#000000; fill-opacity:1.0000; stroke:none;">
<circle cx="191.5000" cy="82.7600" r="0.7620" /> 
<path style="fill:#000000; fill-opacity:1.0000; stroke:none;fill-rule:evenodd;"
d="M 190.6250,72.8250
190.6824,72.8364
190.7311,72.8689
190.7636,72.9176
190.7750,72.9750
190.7750,74.1500
190.7636,74.2074
190.7311,74.2561
190.6824,74.2886
190.6250,74.3000
190.3250,74.3000
190.2676,74.2886
190.2189,74.2561
190.1864,74.2074
190.1750,74.1500
190.1750,72.9750
190.1864,72.9176
190.2189,72.8689
190.2676,72.8364
190.3250,72.8250
Z" /> 
<path style="fill:#000000; fill-opacity:1.0000; stroke:none;fill-rule:evenodd;"
d="M 192.5250,72.8250
192.5824,72.8364
192.6311,72.8689
192.6636,72.9176
192.6750,72.9750
192.6750,74.1500
192.6636,74.2074
192.6311,74.2561
192.5824,74.2886
192.5250,74.3000
192.2250,74.3000
192.1676,74.2886
192.1189,74.2561
192.0864,74.2074
192.0750,74.1500
192.0750,72.9750
192.0864,72.9176
192.1189,72.8689
192.1676,72.8364
192.2250,72.8250
Z" /> 
<path style="fill:#000000; fill-opacity:1.0000; stroke:none;fill-rule:evenodd;"
d="M 191.5750,74.7000
191.6324,74.7114
191.6811,74.7439
191.7136,74.7926
191.7250,74.8500
191.7250,76.0250
191.7136,76.0824
191.6811,76.1311
191.6324,76.1636
191.5750,76.1750
191.2750,76.1750
191.2176,76.1636
191.1689,76.1311
191.1364,76.0824
191.1250,76.0250
191.1250,74.8500
191.1364,74.7926
191.1689,74.7439
191.2176,74.7114
191.2750,74.7000
Z" /> 
<path style="fill:#000000; fill-opacity:1.0000; stroke:none;fill-rule:evenodd;"
d="M 186.2000,79.3300
186.2107,79.2764
186.2410,79.2310
186.2864,79.2007
186.3400,79.1900
186.6200,79.1900
186.6736,79.2007
186.7190,79.2310
186.7493,79.2764
186.7600,79.3300
186.7600,79.6700
186.7493,79.7236
186.7190,79.7690
186.6736,79.7993
186.6200,79.8100
186.3400,79.8100
186.2864,79.7993
186.2410,79.7690
186.2107,79.7236
186.2000,79.6700
Z" /> 
<path style="fill:#000000; fill-opacity:1.0000; stroke:none;fill-rule:evenodd;"
d="M 185.2400,79.3300
185.2507,79.2764
185.2810,79.2310
185.3264,79.2007
185.3800,79.1900
185.6600,79.1900
185.7136,79.2007
185.7590,79.2310
185.7893,79.2764
185.8000,79.3300
185.8000,79.6700
185.7893,79.7236
185.7590,79.7690
185.7136,79.7993
185.6600,79.8100
185.3800,79.8100
185.3264,79.7993
185.2810,79.7690
185.2507,79.7236
185.2400,79.6700
Z" /> 
<path style="fill:#000000; fill-opacity:1.0000; stroke:none;fill-rule:evenodd;"
d="M 186.6700,69.8150
186.6803,69.7633
186.7095,69.7195
186.7533,69.6903
186.8050,69.6800
187.0750,69.6800
187.1267,69.6903
187.1705,69.7195
187.1997,69.7633
187.2100,69.8150
187.2100,70.1850
187.1997,70.2367
187.1705,70.2805
187.1267,70.3097
187.0750,70.3200
186.8050,70.3200
186.7533,70.3097
186.7095,70.2805
186.6803,70.2367
186.6700,70.1850
Z" /> 
<path style="fill:#000000; fill-opacity:1.0000; stroke:none;fill-rule:evenodd;"
d="M 187.6900,69.8150
187.7003,69.7633
187.7295,69.7195
187.7733,69.6903
187.8250,69.6800
188.0950,69.6800
188.1467,69.6903
188.1905,69.7195
188.2197,69.7633
188.2300,69.8150
188.2300,70.1850
188.2197,70.2367
188.1905,70.2805
188.1467,70.3097
188.0950,70.3200
187.8250,70.3200
187.7733,70.3097
187.7295,70.2805
187.7003,70.2367
187.6900,70.1850
Z" /> 
<path style="fill:#000000; fill-opacity:1.0000; stroke:none;fill-rule:evenodd;"
d="M 170.2450,91.2400
170.2986,91.2507
170.3440,91.2810
170.3743,91.3264
170.3850,91.3800
170.3850,91.6600
170.3743,91.7136
170.3440,91.7590
170.2986,91.7893
170.2450,91.8000
169.9050,91.8000
169.8514,91.7893
169.8060,91.7590
169.7757,91.7136
169.7650,91.6600
169.7650,91.3800
169.7757,91.3264
169.8060,91.2810
169.8514,91.2507
169.9050,91.2400
Z" /> 
<path style="fill:#000000; fill-opacity:1.0000; stroke:none;fill-rule:evenodd;"
d="M 170.2450,92.2000
170.2986,92.2107
170.3440,92.2410
170.3743,92.2864
170.3850,92.3400
170.3850,92.6200
170.3743,92.6736
170.3440,92.7190
170.2986,92.7493
170.2450,92.7600
169.9050,92.7600
169.8514,92.7493
169.8060,92.7190
169.7757,92.6736
169.7650,92.6200
169.7650,92.3400
169.7757,92.2864
169.8060,92.2410
169.8514,92.2107
169.9050,92.2000
Z" /> 
<path style="fill:#000000; fill-opacity:1.0000; stroke:none;fill-rule:evenodd;"
d="M 165.1355,99.0800
165.1433,99.0410
165.1654,99.0079
165.1985,98.9858
165.2375,98.9780
166.7625,98.9780
166.8015,98.9858
166.8346,99.0079
166.8567,99.0410
166.8645,99.0800
166.8645,99.7300
166.8567,99.7690
166.8346,99.8021
166.8015,99.8242
166.7625,99.8320
165.2375,99.8320
165.1985,99.8242
165.1654,99.8021
165.1433,99.7690
165.1355,99.7300
Z" /> 
<path style="fill:#000000; fill-opacity:1.0000; stroke:none;fill-rule:evenodd;"
d="M 165.1355,97.8100
165.1433,97.7710
165.1654,97.7379
165.1985,97.7158
165.2375,97.7080
166.7625,97.7080
166.8015,97.7158
166.8346,97.7379
166.8567,97.7710
166.8645,97.8100
166.8645,98.4600
166.8567,98.4990
166.8346,98.5321
166.8015,98.5542
166.7625,98.5620
165.2375,98.5620
165.1985,98.5542
165.1654,98.5321
165.1433,98.4990
165.1355,98.4600
Z" /> 
<path style="fill:#000000; fill-opacity:1.0000; stroke:none;fill-rule:evenodd;"
d="M 165.1355,96.5400
165.1433,96.5010
165.1654,96.4679
165.1985,96.4458
165.2375,96.4380
166.7625,96.4380
166.8015,96.4458
166.8346,96.4679
166.8567,96.5010
166.8645,96.5400
166.8645,97.1900
166.8567,97.2290
166.8346,97.2621
166.8015,97.2842
166.7625,97.2920
165.2375,97.2920
165.1985,97.2842
165.1654,97.2621
165.1433,97.2290
165.1355,97.1900
Z" /> 
<path style="fill:#000000; fill-opacity:1.0000; stroke:none;fill-rule:evenodd;"
d="M 165.1355,95.2700
165.1433,95.2310
165.1654,95.1979
165.1985,95.1758
165.2375,95.1680
166.7625,95.1680
166.8015,95.1758
166.8346,95.1979
166.8567,95.2310
166.8645,95.2700
166.8645,95.9200
166.8567,95.9590
166.8346,95.9921
166.8015,96.0142
166.7625,96.0220
165.2375,96.0220
165.1985,96.0142
165.1654,95.9921
165.1433,95.9590
165.1355,95.9200
Z" /> 
<path style="fill:#000000; fill-opacity:1.0000; stroke:none;fill-rule:evenodd;"
d="M 170.5595,95.2700
170.5673,95.2310
170.5894,95.1979
170.6225,95.1758
170.6615,95.1680
172.1865,95.1680
172.2255,95.1758
172.2586,95.1979
172.2807,95.2310
172.2885,95.2700
172.2885,95.9200
172.2807,95.9590
172.2586,95.9921
172.2255,96.0142
172.1865,96.0220
170.6615,96.0220
170.6225,96.0142
170.5894,95.9921
170.5673,95.9590
170.5595,95.9200
Z" /> 
<path style="fill:#000000; fill-opacity:1.0000; stroke:none;fill-rule:evenodd;"
d="M 170.5595,96.5400
170.5673,96.5010
170.5894,96.4679
170.6225,96.4458
170.6615,96.4380
172.1865,96.4380
172.2255,96.4458
172.2586,96.4679
172.2807,96.5010
172.2885,96.5400
172.2885,97.1900
172.2807,97.2290
172.2586,97.2621
172.2255,97.2842
172.1865,97.2920
170.6615,97.2920
170.6225,97.2842
170.5894,97.2621
170.5673,97.2290
170.5595,97.1900
Z" /> 
<path style="fill:#000000; fill-opacity:1.0000; stroke:none;fill-rule:evenodd;"
d="M 170.5595,97.8100
170.5673,97.7710
170.5894,97.7379
170.6225,97.7158
170.6615,97.7080
172.1865,97.7080
172.2255,97.7158
172.2586,97.7379
172.2807,97.7710
172.2885,97.8100
172.2885,98.4600
172.2807,98.4990
172.2586,98.5321
172.2255,98.5542
172.1865,98.5620
170.6615,98.5620
170.6225,98.5542
170.5894,98.5321
170.5673,98.4990
170.5595,98.4600
Z" /> 
<path style="fill:#000000; fill-opacity:1.0000; stroke:none;fill-rule:evenodd;"
d="M 170.5595,99.0800
170.5673,99.0410
170.5894,99.0079
170.6225,98.9858
170.6615,98.9780
172.1865,98.9780
172.2255,98.9858
172.2586,99.0079
172.2807,99.0410
172.2885,99.0800
172.2885,99.7300
172.2807,99.7690
172.2586,99.8021
172.2255,99.8242
172.1865,99.8320
170.6615,99.8320
170.6225,99.8242
170.5894,99.8021
170.5673,99.7690
170.5595,99.7300
Z" /> 
<path style="fill:#000000; fill-opacity:1.0000; stroke:none;fill-rule:evenodd;"
d="M 170.7800,86.6850
170.7697,86.7367
170.7405,86.7805
170.6967,86.8097
170.6450,86.8200
170.3750,86.8200
170.3233,86.8097
170.2795,86.7805
170.2503,86.7367
170.2400,86.6850
170.2400,86.3150
170.2503,86.2633
170.2795,86.2195
170.3233,86.1903
170.3750,86.1800
170.6450,86.1800
170.6967,86.1903
170.7405,86.2195
170.7697,86.2633
170.7800,86.3150
Z" /> 
<path style="fill:#000000; fill-opacity:1.0000; stroke:none;fill-rule:evenodd;"
d="M 169.7600,86.6850
169.7497,86.7367
169.7205,86.7805
169.6767,86.8097
169.6250,86.8200
169.3550,86.8200
169.3033,86.8097
169.2595,86.7805
169.2303,86.7367
169.2200,86.6850
169.2200,86.3150
169.2303,86.2633
169.2595,86.2195
169.3033,86.1903
169.3550,86.1800
169.6250,86.1800
169.6767,86.1903
169.7205,86.2195
169.7497,86.2633
169.7600,86.3150
Z" /> 
<path style="fill:#000000; fill-opacity:1.0000; stroke:none;fill-rule:evenodd;"
d="M 188.4250,71.7750
188.4098,71.8515
188.3664,71.9164
188.3015,71.9598
188.2250,71.9750
187.8250,71.9750
187.7485,71.9598
187.6836,71.9164
187.6402,71.8515
187.6250,71.7750
187.6250,71.2250
187.6402,71.1485
187.6836,71.0836
187.7485,71.0402
187.8250,71.0250
188.2250,71.0250
188.3015,71.0402
188.3664,71.0836
188.4098,71.1485
188.4250,71.2250
Z" /> 
<path style="fill:#000000; fill-opacity:1.0000; stroke:none;fill-rule:evenodd;"
d="M 186.7750,71.7750
186.7598,71.8515
186.7164,71.9164
186.6515,71.9598
186.5750,71.9750
186.1750,71.9750
186.0985,71.9598
186.0336,71.9164
185.9902,71.8515
185.9750,71.7750
185.9750,71.2250
185.9902,71.1485
186.0336,71.0836
186.0985,71.0402
186.1750,71.0250
186.5750,71.0250
186.6515,71.0402
186.7164,71.0836
186.7598,71.1485
186.7750,71.2250
Z" /> 
<path style="fill:#000000; fill-opacity:1.0000; stroke:none;fill-rule:evenodd;"
d="M 169.7700,84.1850
169.7597,84.2367
169.7305,84.2805
169.6867,84.3097
169.6350,84.3200
169.3650,84.3200
169.3133,84.3097
169.2695,84.2805
169.2403,84.2367
169.2300,84.1850
169.2300,83.8150
169.2403,83.7633
169.2695,83.7195
169.3133,83.6903
169.3650,83.6800
169.6350,83.6800
169.6867,83.6903
169.7305,83.7195
169.7597,83.7633
169.7700,83.8150
Z" /> 
<path style="fill:#000000; fill-opacity:1.0000; stroke:none;fill-rule:evenodd;"
d="M 168.7500,84.1850
168.7397,84.2367
168.7105,84.2805
168.6667,84.3097
168.6150,84.3200
168.3450,84.3200
168.2933,84.3097
168.2495,84.2805
168.2203,84.2367
168.2100,84.1850
168.2100,83.8150
168.2203,83.7633
168.2495,83.7195
168.2933,83.6903
168.3450,83.6800
168.6150,83.6800
168.6667,83.6903
168.7105,83.7195
168.7397,83.7633
168.7500,83.8150
Z" /> 
<path style="fill:#000000; fill-opacity:1.0000; stroke:none;fill-rule:evenodd;"
d="M 169.7800,82.1850
169.7697,82.2367
169.7405,82.2805
169.6967,82.3097
169.6450,82.3200
169.3750,82.3200
169.3233,82.3097
169.2795,82.2805
169.2503,82.2367
169.2400,82.1850
169.2400,81.8150
169.2503,81.7633
169.2795,81.7195
169.3233,81.6903
169.3750,81.6800
169.6450,81.6800
169.6967,81.6903
169.7405,81.7195
169.7697,81.7633
169.7800,81.8150
Z" /> 
<path style="fill:#000000; fill-opacity:1.0000; stroke:none;fill-rule:evenodd;"
d="M 168.7600,82.1850
168.7497,82.2367
168.7205,82.2805
168.6767,82.3097
168.6250,82.3200
168.3550,82.3200
168.3033,82.3097
168.2595,82.2805
168.2303,82.2367
168.2200,82.1850
168.2200,81.8150
168.2303,81.7633
168.2595,81.7195
168.3033,81.6903
168.3550,81.6800
168.6250,81.6800
168.6767,81.6903
168.7205,81.7195
168.7497,81.7633
168.7600,81.8150
Z" /> 
<path style="fill:#000000; fill-opacity:1.0000; stroke:none;fill-rule:evenodd;"
d="M 170.7800,89.1850
170.7697,89.2367
170.7405,89.2805
170.6967,89.3097
170.6450,89.3200
170.3750,89.3200
170.3233,89.3097
170.2795,89.2805
170.2503,89.2367
170.2400,89.1850
170.2400,88.8150
170.2503,88.7633
170.2795,88.7195
170.3233,88.6903
170.3750,88.6800
170.6450,88.6800
170.6967,88.6903
170.7405,88.7195
170.7697,88.7633
170.7800,88.8150
Z" /> 
<path style="fill:#000000; fill-opacity:1.0000; stroke:none;fill-rule:evenodd;"
d="M 169.7600,89.1850
169.7497,89.2367
169.7205,89.2805
169.6767,89.3097
169.6250,89.3200
169.3550,89.3200
169.3033,89.3097
169.2595,89.2805
169.2303,89.2367
169.2200,89.1850
169.2200,88.8150
169.2303,88.7633
169.2595,88.7195
169.3033,88.6903
169.3550,88.6800
169.6250,88.6800
169.6767,88.6903
169.7205,88.7195
169.7497,88.7633
169.7600,88.8150
Z" /> 
<path style="fill:#000000; fill-opacity:1.0000; stroke:none;fill-rule:evenodd;"
d="M 186.2000,72.7625
186.2574,72.7739
186.3061,72.8064
186.3386,72.8551
186.3500,72.9125
186.3500,74.0875
186.3386,74.1449
186.3061,74.1936
186.2574,74.2261
186.2000,74.2375
185.9000,74.2375
185.8426,74.2261
185.7939,74.1936
185.7614,74.1449
185.7500,74.0875
185.7500,72.9125
185.7614,72.8551
185.7939,72.8064
185.8426,72.7739
185.9000,72.7625
Z" /> 
<path style="fill:#000000; fill-opacity:1.0000; stroke:none;fill-rule:evenodd;"
d="M 188.1000,72.7625
188.1574,72.7739
188.2061,72.8064
188.2386,72.8551
188.2500,72.9125
188.2500,74.0875
188.2386,74.1449
188.2061,74.1936
188.1574,74.2261
188.1000,74.2375
187.8000,74.2375
187.7426,74.2261
187.6939,74.1936
187.6614,74.1449
187.6500,74.0875
187.6500,72.9125
187.6614,72.8551
187.6939,72.8064
187.7426,72.7739
187.8000,72.7625
Z" /> 
<path style="fill:#000000; fill-opacity:1.0000; stroke:none;fill-rule:evenodd;"
d="M 187.1500,74.6375
187.2074,74.6489
187.2561,74.6814
187.2886,74.7301
187.3000,74.7875
187.3000,75.9625
187.2886,76.0199
187.2561,76.0686
187.2074,76.1011
187.1500,76.1125
186.8500,76.1125
186.7926,76.1011
186.7439,76.0686
186.7114,76.0199
186.7000,75.9625
186.7000,74.7875
186.7114,74.7301
186.7439,74.6814
186.7926,74.6489
186.8500,74.6375
Z" /> 
<path style="fill:#000000; fill-opacity:1.0000; stroke:none;fill-rule:evenodd;"
d="M 172.7800,82.6850
172.7697,82.7367
172.7405,82.7805
172.6967,82.8097
172.6450,82.8200
172.3750,82.8200
172.3233,82.8097
172.2795,82.7805
172.2503,82.7367
172.2400,82.6850
172.2400,82.3150
172.2503,82.2633
172.2795,82.2195
172.3233,82.1903
172.3750,82.1800
172.6450,82.1800
172.6967,82.1903
172.7405,82.2195
172.7697,82.2633
172.7800,82.3150
Z" /> 
<path style="fill:#000000; fill-opacity:1.0000; stroke:none;fill-rule:evenodd;"
d="M 171.7600,82.6850
171.7497,82.7367
171.7205,82.7805
171.6767,82.8097
171.6250,82.8200
171.3550,82.8200
171.3033,82.8097
171.2595,82.7805
171.2303,82.7367
171.2200,82.6850
171.2200,82.3150
171.2303,82.2633
171.2595,82.2195
171.3033,82.1903
171.3550,82.1800
171.6250,82.1800
171.6767,82.1903
171.7205,82.2195
171.7497,82.2633
171.7600,82.3150
Z" /> 
<path style="fill:#000000; fill-opacity:1.0000; stroke:none;fill-rule:evenodd;"
d="M 177.8500,76.7500
177.7543,76.7310
177.6732,76.6768
177.6190,76.5957
177.6000,76.5000
177.6000,74.5000
177.6190,74.4043
177.6732,74.3232
177.7543,74.2690
177.8500,74.2500
179.1500,74.2500
179.2457,74.2690
179.3268,74.3232
179.3810,74.4043
179.4000,74.5000
179.4000,76.5000
179.3810,76.5957
179.3268,76.6768
179.2457,76.7310
179.1500,76.7500
Z" /> 
<path style="fill:#000000; fill-opacity:1.0000; stroke:none;fill-rule:evenodd;"
d="M 177.8500,72.7500
177.7543,72.7310
177.6732,72.6768
177.6190,72.5957
177.6000,72.5000
177.6000,70.5000
177.6190,70.4043
177.6732,70.3232
177.7543,70.2690
177.8500,70.2500
179.1500,70.2500
179.2457,70.2690
179.3268,70.3232
179.3810,70.4043
179.4000,70.5000
179.4000,72.5000
179.3810,72.5957
179.3268,72.6768
179.2457,72.7310
179.1500,72.7500
Z" /> 
<path style="fill:#000000; fill-opacity:1.0000; stroke:none;fill-rule:evenodd;"
d="M 190.6450,69.8150
190.6553,69.7633
190.6845,69.7195
190.7283,69.6903
190.7800,69.6800
191.0500,69.6800
191.1017,69.6903
191.1455,69.7195
191.1747,69.7633
191.1850,69.8150
191.1850,70.1850
191.1747,70.2367
191.1455,70.2805
191.1017,70.3097
191.0500,70.3200
190.7800,70.3200
190.7283,70.3097
190.6845,70.2805
190.6553,70.2367
190.6450,70.1850
Z" /> 
<path style="fill:#000000; fill-opacity:1.0000; stroke:none;fill-rule:evenodd;"
d="M 191.6650,69.8150
191.6753,69.7633
191.7045,69.7195
191.7483,69.6903
191.8000,69.6800
192.0700,69.6800
192.1217,69.6903
192.1655,69.7195
192.1947,69.7633
192.2050,69.8150
192.2050,70.1850
192.1947,70.2367
192.1655,70.2805
192.1217,70.3097
192.0700,70.3200
191.8000,70.3200
191.7483,70.3097
191.7045,70.2805
191.6753,70.2367
191.6650,70.1850
Z" /> 
<path style="fill:#000000; fill-opacity:1.0000; stroke:none;fill-rule:evenodd;"
d="M 183.1500,70.2500
183.2457,70.2690
183.3268,70.3232
183.3810,70.4043
183.4000,70.5000
183.4000,72.5000
183.3810,72.5957
183.3268,72.6768
183.2457,72.7310
183.1500,72.7500
181.8500,72.7500
181.7543,72.7310
181.6732,72.6768
181.6190,72.5957
181.6000,72.5000
181.6000,70.5000
181.6190,70.4043
181.6732,70.3232
181.7543,70.2690
181.8500,70.2500
Z" /> 
<path style="fill:#000000; fill-opacity:1.0000; stroke:none;fill-rule:evenodd;"
d="M 183.1500,74.2500
183.2457,74.2690
183.3268,74.3232
183.3810,74.4043
183.4000,74.5000
183.4000,76.5000
183.3810,76.5957
183.3268,76.6768
183.2457,76.7310
183.1500,76.7500
181.8500,76.7500
181.7543,76.7310
181.6732,76.6768
181.6190,76.5957
181.6000,76.5000
181.6000,74.5000
181.6190,74.4043
181.6732,74.3232
181.7543,74.2690
181.8500,74.2500
Z" /> 
<path style="fill:#000000; fill-opacity:1.0000; stroke:none;fill-rule:evenodd;"
d="M 168.7150,91.2400
168.7686,91.2507
168.8140,91.2810
168.8443,91.3264
168.8550,91.3800
168.8550,91.6600
168.8443,91.7136
168.8140,91.7590
168.7686,91.7893
168.7150,91.8000
168.3750,91.8000
168.3214,91.7893
168.2760,91.7590
168.2457,91.7136
168.2350,91.6600
168.2350,91.3800
168.2457,91.3264
168.2760,91.2810
168.3214,91.2507
168.3750,91.2400
Z" /> 
<path style="fill:#000000; fill-opacity:1.0000; stroke:none;fill-rule:evenodd;"
d="M 168.7150,92.2000
168.7686,92.2107
168.8140,92.2410
168.8443,92.2864
168.8550,92.3400
168.8550,92.6200
168.8443,92.6736
168.8140,92.7190
168.7686,92.7493
168.7150,92.7600
168.3750,92.7600
168.3214,92.7493
168.2760,92.7190
168.2457,92.6736
168.2350,92.6200
168.2350,92.3400
168.2457,92.2864
168.2760,92.2410
168.3214,92.2107
168.3750,92.2000
Z" /> 
<path style="fill:#000000; fill-opacity:1.0000; stroke:none;fill-rule:evenodd;"
d="M 192.6500,71.7750
192.6348,71.8515
192.5914,71.9164
192.5265,71.9598
192.4500,71.9750
192.0500,71.9750
191.9735,71.9598
191.9086,71.9164
191.8652,71.8515
191.8500,71.7750
191.8500,71.2250
191.8652,71.1485
191.9086,71.0836
191.9735,71.0402
192.0500,71.0250
192.4500,71.0250
192.5265,71.0402
192.5914,71.0836
192.6348,71.1485
192.6500,71.2250
Z" /> 
<path style="fill:#000000; fill-opacity:1.0000; stroke:none;fill-rule:evenodd;"
d="M 191.0000,71.7750
190.9848,71.8515
190.9414,71.9164
190.8765,71.9598
190.8000,71.9750
190.4000,71.9750
190.3235,71.9598
190.2586,71.9164
190.2152,71.8515
190.2000,71.7750
190.2000,71.2250
190.2152,71.1485
190.2586,71.0836
190.3235,71.0402
190.4000,71.0250
190.8000,71.0250
190.8765,71.0402
190.9414,71.0836
190.9848,71.1485
191.0000,71.2250
Z" /> 
<path style="fill:#000000; fill-opacity:1.0000; stroke:none;fill-rule:evenodd;"
d="M 166.1700,90.7600
166.2236,90.7707
166.2690,90.8010
166.2993,90.8464
166.3100,90.9000
166.3100,91.1800
166.2993,91.2336
166.2690,91.2790
166.2236,91.3093
166.1700,91.3200
165.8300,91.3200
165.7764,91.3093
165.7310,91.2790
165.7007,91.2336
165.6900,91.1800
165.6900,90.9000
165.7007,90.8464
165.7310,90.8010
165.7764,90.7707
165.8300,90.7600
Z" /> 
<path style="fill:#000000; fill-opacity:1.0000; stroke:none;fill-rule:evenodd;"
d="M 166.1700,91.7200
166.2236,91.7307
166.2690,91.7610
166.2993,91.8064
166.3100,91.8600
166.3100,92.1400
166.2993,92.1936
166.2690,92.2390
166.2236,92.2693
166.1700,92.2800
165.8300,92.2800
165.7764,92.2693
165.7310,92.2390
165.7007,92.1936
165.6900,92.1400
165.6900,91.8600
165.7007,91.8064
165.7310,91.7610
165.7764,91.7307
165.8300,91.7200
Z" /> 
<path style="fill:#000000; fill-opacity:1.0000; stroke:none;fill-rule:evenodd;"
d="M 170.2000,84.3150
170.2103,84.2633
170.2395,84.2195
170.2833,84.1903
170.3350,84.1800
170.6050,84.1800
170.6567,84.1903
170.7005,84.2195
170.7297,84.2633
170.7400,84.3150
170.7400,84.6850
170.7297,84.7367
170.7005,84.7805
170.6567,84.8097
170.6050,84.8200
170.3350,84.8200
170.2833,84.8097
170.2395,84.7805
170.2103,84.7367
170.2000,84.6850
Z" /> 
<path style="fill:#000000; fill-opacity:1.0000; stroke:none;fill-rule:evenodd;"
d="M 171.2200,84.3150
171.2303,84.2633
171.2595,84.2195
171.3033,84.1903
171.3550,84.1800
171.6250,84.1800
171.6767,84.1903
171.7205,84.2195
171.7497,84.2633
171.7600,84.3150
171.7600,84.6850
171.7497,84.7367
171.7205,84.7805
171.6767,84.8097
171.6250,84.8200
171.3550,84.8200
171.3033,84.8097
171.2595,84.7805
171.2303,84.7367
171.2200,84.6850
Z" /> 
<path style="fill:#000000; fill-opacity:1.0000; stroke:none;fill-rule:evenodd;"
d="M 167.8400,88.7600
167.7864,88.7493
167.7410,88.7190
167.7107,88.6736
167.7000,88.6200
167.7000,88.3400
167.7107,88.2864
167.7410,88.2410
167.7864,88.2107
167.8400,88.2000
168.1800,88.2000
168.2336,88.2107
168.2790,88.2410
168.3093,88.2864
168.3200,88.3400
168.3200,88.6200
168.3093,88.6736
168.2790,88.7190
168.2336,88.7493
168.1800,88.7600
Z" /> 
<path style="fill:#000000; fill-opacity:1.0000; stroke:none;fill-rule:evenodd;"
d="M 167.8400,87.8000
167.7864,87.7893
167.7410,87.7590
167.7107,87.7136
167.7000,87.6600
167.7000,87.3800
167.7107,87.3264
167.7410,87.2810
167.7864,87.2507
167.8400,87.2400
168.1800,87.2400
168.2336,87.2507
168.2790,87.2810
168.3093,87.3264
168.3200,87.3800
168.3200,87.6600
168.3093,87.7136
168.2790,87.7590
168.2336,87.7893
168.1800,87.8000
Z" /> 
</g> 
</svg>
