<?xml version="1.0" standalone="no"?>
 <!DOCTYPE svg PUBLIC "-//W3C//DTD SVG 1.1//EN" 
 "http://www.w3.org/Graphics/SVG/1.1/DTD/svg11.dtd"> 
<svg
  xmlns:svg="http://www.w3.org/2000/svg"
  xmlns="http://www.w3.org/2000/svg"
  xmlns:xlink="http://www.w3.org/1999/xlink"
  version="1.1"
  width="297.0022mm" height="210.0072mm" viewBox="0.0000 0.0000 297.0022 210.0072">
<title>SVG Image created as RelaySwitch_C6-B_Silkscreen.svg date 2026/03/09 13:05:11 </title>
  <desc>Image generated by PCBNEW </desc>
<g style="fill:#000000; fill-opacity:1.0000;stroke:#000000; stroke-opacity:1.0000;
stroke-linecap:round; stroke-linejoin:round;"
 transform="translate(0 0) scale(1 1)">
<path style="fill:#000000; fill-opacity:1.0000; stroke:none;fill-rule:evenodd;"
d="M 161.7621,61.6288
161.7704,61.6708
161.7924,61.7015
161.8252,61.7194
161.8636,61.7250
161.9784,61.7250
162.0404,61.7179
162.0653,61.7081
162.0886,61.6923
162.1311,61.6418
162.1772,61.5579
162.5071,60.9416
162.5656,60.8229
162.6188,60.6992
162.6209,60.6992
162.6148,60.8456
162.6127,60.9961
162.6127,61.6870
162.6183,61.7054
162.6378,61.7191
162.6752,61.7277
162.7357,61.7309
162.7951,61.7277
162.8320,61.7191
162.8504,61.7053
162.8556,61.6868
162.8556,60.4964
162.8480,60.4531
162.8274,60.4243
162.7965,60.4064
162.7582,60.4002
162.6137,60.4002
162.5482,60.4069
162.5006,60.4289
162.4611,60.4714
162.4231,60.5379
162.1649,61.0202
162.1204,61.1064
162.0778,61.1910
162.0378,61.2742
161.9999,61.3557
161.9989,61.3557
162.0035,61.2066
162.0050,61.0584
162.0050,60.4383
161.9989,60.4199
161.9784,60.4056
161.9405,60.3969
161.8800,60.3944
161.8216,60.3969
161.7852,60.4056
161.7673,60.4200
161.7621,60.4384
Z" /> 
<path style="fill:#000000; fill-opacity:1.0000; stroke:none;fill-rule:evenodd;"
d="M 161.2313,60.7267
161.3362,60.7524
161.4203,60.7864
161.4705,60.8193
161.4899,60.8522
161.4951,60.9018
161.4920,60.9443
161.4833,60.9767
161.4690,60.9969
161.4490,61.0040
161.4319,61.0009
161.4065,60.9894
161.3414,60.9571
161.2517,60.9249
161.1990,60.9141
161.1365,60.9102
161.0894,60.9130
161.0540,60.9206
161.0234,60.9341
161.0007,60.9526
160.9837,60.9766
160.9720,61.0069
160.9633,61.0829
160.9633,61.1388
161.0524,61.1388
161.1706,61.1438
161.2666,61.1573
161.3538,61.1817
161.4209,61.2143
161.4757,61.2584
161.5141,61.3117
161.5372,61.3744
161.5453,61.4508
161.5389,61.5217
161.5208,61.5801
161.4910,61.6313
161.4517,61.6730
161.4035,61.7055
161.3460,61.7294
161.2832,61.7435
161.2123,61.7484
161.1272,61.7398
161.0519,61.7146
160.9839,61.6742
160.9234,61.6202
160.9234,61.6929
160.9147,61.7156
160.8850,61.7273
160.8178,61.7309
160.7528,61.7273
160.7205,61.7156
160.7102,61.6929
160.7102,61.4584
160.9633,61.4584
161.0118,61.5066
161.0561,61.5392
161.1037,61.5598
161.1560,61.5667
161.2153,61.5580
161.2569,61.5340
161.2838,61.4961
161.2933,61.4440
161.2900,61.4117
161.2805,61.3843
161.2643,61.3605
161.2400,61.3398
161.2096,61.3242
161.1683,61.3122
161.1219,61.3055
161.0617,61.3029
160.9633,61.3029
160.9633,61.4584
160.7102,61.4584
160.7102,61.0777
160.7163,60.9870
160.7328,60.9147
160.7624,60.8516
160.8045,60.8024
160.8590,60.7652
160.9300,60.7378
161.0104,60.7225
161.1140,60.7168
Z" /> 
<path style="fill:#000000; fill-opacity:1.0000; stroke:none;fill-rule:evenodd;"
d="M 159.6409,60.7744
159.6414,60.7866
159.6435,60.8026
159.6476,60.8226
159.6542,60.8481
159.9289,61.6755
159.9427,61.7037
159.9714,61.7206
160.0257,61.7288
160.1153,61.7309
160.2040,61.7283
160.2579,61.7196
160.2860,61.7027
160.2998,61.6755
160.5744,60.8481
160.5842,60.8113
160.5883,60.7877
160.5888,60.7744
160.5832,60.7564
160.5632,60.7436
160.5237,60.7365
160.4607,60.7344
160.3930,60.7369
160.3526,60.7442
160.3316,60.7574
160.3213,60.7784
160.1133,61.4500
160.1072,61.4756
160.1011,61.4500
159.8961,60.7784
159.8864,60.7574
159.8654,60.7442
159.8269,60.7369
159.7639,60.7344
159.7019,60.7365
159.6645,60.7436
159.6460,60.7564
Z" /> 
<path style="fill:#000000; fill-opacity:1.0000; stroke:none;fill-rule:evenodd;"
d="M 159.2304,61.6898
159.2365,61.7078
159.2576,61.7206
159.2971,61.7283
159.3594,61.7309
159.4220,61.7283
159.4615,61.7206
159.4824,61.7078
159.4886,61.6898
159.4886,60.7774
159.4824,60.7594
159.4615,60.7462
159.4220,60.7375
159.3594,60.7344
159.2971,60.7375
159.2576,60.7462
159.2365,60.7594
159.2304,60.7774
Z" /> 
<path style="fill:#000000; fill-opacity:1.0000; stroke:none;fill-rule:evenodd;"
d="M 159.2110,60.4686
159.2153,60.5194
159.2265,60.5536
159.2428,60.5758
159.2828,60.5966
159.3605,60.6054
159.4392,60.5967
159.4779,60.5768
159.4993,60.5407
159.5081,60.4736
159.4990,60.4037
159.4769,60.3659
159.4537,60.3508
159.4163,60.3400
159.3585,60.3357
159.2808,60.3445
159.2417,60.3649
159.2199,60.4014
Z" /> 
<path style="fill:#000000; fill-opacity:1.0000; stroke:none;fill-rule:evenodd;"
d="M 157.4506,61.6879
157.4573,61.7063
157.4793,61.7196
157.5203,61.7277
157.5848,61.7309
157.6509,61.7277
157.6919,61.7196
157.7135,61.7062
157.7200,61.6877
157.7200,61.1505
158.2160,61.1505
158.2160,61.6877
158.2222,61.7062
158.2437,61.7196
158.2847,61.7277
158.3503,61.7309
158.4154,61.7277
158.4569,61.7196
158.4790,61.7063
158.4856,61.6879
158.4856,60.4373
158.4790,60.4190
158.4569,60.4056
158.4154,60.3975
158.3503,60.3944
158.2847,60.3975
158.2437,60.4056
158.2222,60.4189
158.2160,60.4372
158.2160,60.9219
157.7200,60.9219
157.7200,60.4372
157.7135,60.4189
157.6919,60.4056
157.6509,60.3975
157.5848,60.3944
157.5203,60.3975
157.4793,60.4056
157.4573,60.4190
157.4506,60.4373
Z" /> 
<path style="fill:#000000; fill-opacity:1.0000; stroke:none;fill-rule:evenodd;"
d="M 156.8513,60.7268
156.9501,60.7548
157.0369,60.8011
157.1065,60.8619
157.1606,60.9371
157.2002,61.0280
157.2233,61.1281
157.2314,61.2419
157.2239,61.3590
157.2027,61.4572
157.1658,61.5452
157.1146,61.6162
157.0484,61.6725
156.9651,61.7146
156.8701,61.7395
156.7529,61.7484
156.6318,61.7384
156.5327,61.7105
156.4455,61.6640
156.3759,61.6028
156.3217,61.5272
156.2826,61.4368
156.2598,61.3371
156.2526,61.2346
156.5173,61.2346
156.5208,61.3053
156.5306,61.3644
156.5480,61.4182
156.5716,61.4613
156.6032,61.4966
156.6423,61.5223
156.6879,61.5378
156.7437,61.5433
156.8039,61.5371
156.8503,61.5202
156.8888,61.4924
156.9184,61.4551
156.9397,61.4104
156.9548,61.3562
156.9631,61.2978
156.9661,61.2316
156.9624,61.1609
156.9522,61.1019
156.9345,61.0480
156.9108,61.0045
156.8791,60.9688
156.8400,60.9430
156.7945,60.9274
156.7397,60.9219
156.6787,60.9283
156.6326,60.9456
156.5943,60.9737
156.5644,61.0111
156.5429,61.0559
156.5281,61.1101
156.5201,61.1685
156.5173,61.2346
156.2526,61.2346
156.2518,61.2234
156.2594,61.1053
156.2805,61.0070
156.3174,60.9189
156.3682,60.8481
156.4340,60.7918
156.5173,60.7501
156.6122,60.7256
156.7303,60.7168
Z" /> 
<path style="fill:#000000; fill-opacity:1.0000; stroke:none;fill-rule:evenodd;"
d="M 154.5937,61.6898
154.5998,61.7078
154.6203,61.7206
154.6593,61.7283
154.7217,61.7309
154.7854,61.7283
154.8248,61.7206
154.8453,61.7078
154.8509,61.6897
154.8509,61.1461
154.8596,61.0618
154.8709,61.0257
154.8862,60.9966
154.9066,60.9723
154.9314,60.9544
154.9604,60.9434
154.9964,60.9395
155.0412,60.9479
155.0896,60.9755
155.1362,61.0169
155.1921,61.0803
155.1921,61.6897
155.1983,61.7078
155.2193,61.7206
155.2588,61.7283
155.3202,61.7309
155.3827,61.7283
155.4222,61.7206
155.4432,61.7078
155.4493,61.6897
155.4493,61.1461
155.4580,61.0618
155.4692,61.0257
155.4842,60.9966
155.5043,60.9723
155.5293,60.9544
155.5586,60.9434
155.5938,60.9395
155.6395,60.9480
155.6881,60.9755
155.7344,61.0170
155.7895,61.0803
155.7895,61.6897
155.7956,61.7078
155.8167,61.7206
155.8562,61.7283
155.9185,61.7309
155.9811,61.7283
156.0206,61.7206
156.0416,61.7078
156.0477,61.6898
156.0477,60.7754
156.0426,60.7574
156.0241,60.7446
155.9898,60.7369
155.9370,60.7344
155.8827,60.7369
155.8495,60.7446
155.8325,60.7574
155.8274,60.7754
155.8274,60.8810
155.7491,60.8070
155.6763,60.7578
155.5988,60.7269
155.5189,60.7168
155.4642,60.7199
155.4175,60.7286
155.3744,60.7432
155.3371,60.7625
155.3041,60.7868
155.2761,60.8153
155.2331,60.8840
155.1527,60.8081
155.0748,60.7563
154.9980,60.7266
154.9196,60.7168
154.8329,60.7250
154.7659,60.7475
154.7090,60.7842
154.6649,60.8312
154.6324,60.8876
154.6101,60.9547
154.5979,61.0267
154.5937,61.1044
Z" /> 
<path style="fill:#000000; fill-opacity:1.0000; stroke:none;fill-rule:evenodd;"
d="M 154.0324,60.7261
154.1227,60.7527
154.2030,60.7968
154.2697,60.8568
154.3223,60.9312
154.3620,61.0230
154.3854,61.1245
154.3937,61.2429
154.3857,61.3665
154.3635,61.4664
154.3247,61.5549
154.2718,61.6243
154.2037,61.6784
154.1187,61.7177
154.0225,61.7403
153.9050,61.7484
153.7780,61.7398
153.6725,61.7198
153.5966,61.6961
153.5603,61.6767
153.5494,61.6617
153.5433,61.6426
153.5402,61.6152
153.5392,61.5763
153.5407,61.5335
153.5464,61.5071
153.5566,61.4942
153.5720,61.4905
153.6120,61.5006
153.6739,61.5228
153.7626,61.5450
153.8158,61.5523
153.8814,61.5550
153.9453,61.5503
153.9957,61.5374
154.0395,61.5154
154.0735,61.4861
154.0994,61.4493
154.1176,61.4043
154.1278,61.3545
154.1314,61.2971
153.5750,61.2971
153.5415,61.2912
153.5172,61.2746
153.5020,61.2478
153.4961,61.2049
153.4961,61.1640
153.4982,61.1330
153.7462,61.1330
154.1314,61.1330
154.1266,61.0854
154.1166,61.0415
154.1007,61.0010
154.0797,60.9672
154.0526,60.9390
154.0192,60.9171
153.9806,60.9033
153.9337,60.8985
153.8718,60.9061
153.8251,60.9272
153.7897,60.9610
153.7653,61.0051
153.7502,61.0613
153.7462,61.1330
153.4982,61.1330
153.5025,61.0701
153.5208,60.9860
153.5526,60.9090
153.5976,60.8443
153.6563,60.7915
153.7313,60.7506
153.8178,60.7258
153.9275,60.7168
Z" /> 
<path style="fill:#000000; fill-opacity:1.0000; stroke:none;fill-rule:evenodd;"
d="M 153.0256,61.6899
153.0318,61.7079
153.0528,61.7206
153.0923,61.7283
153.1547,61.7309
153.2172,61.7283
153.2567,61.7206
153.2777,61.7079
153.2838,61.6899
153.2838,60.3445
153.2777,60.3262
153.2567,60.3124
153.2172,60.3037
153.1547,60.3006
153.0923,60.3037
153.0528,60.3124
153.0318,60.3262
153.0256,60.3445
Z" /> 
<path style="fill:#000000; fill-opacity:1.0000; stroke:none;fill-rule:evenodd;"
d="M 152.5118,60.7267
152.6168,60.7524
152.7009,60.7864
152.7511,60.8193
152.7705,60.8522
152.7756,60.9018
152.7726,60.9443
152.7639,60.9767
152.7495,60.9969
152.7295,61.0040
152.7124,61.0009
152.6870,60.9894
152.6219,60.9571
152.5322,60.9249
152.4795,60.9141
152.4170,60.9102
152.3699,60.9130
152.3345,60.9206
152.3039,60.9341
152.2812,60.9526
152.2643,60.9766
152.2525,61.0069
152.2438,61.0829
152.2438,61.1388
152.3329,61.1388
152.4512,61.1438
152.5472,61.1573
152.6344,61.1817
152.7014,61.2143
152.7562,61.2584
152.7946,61.3117
152.8177,61.3744
152.8259,61.4508
152.8194,61.5217
152.8013,61.5801
152.7716,61.6313
152.7322,61.6730
152.6841,61.7055
152.6266,61.7294
152.5637,61.7435
152.4929,61.7484
152.4077,61.7398
152.3325,61.7146
152.2645,61.6742
152.2039,61.6202
152.2039,61.6929
152.1952,61.7156
152.1655,61.7273
152.0984,61.7309
152.0333,61.7273
152.0010,61.7156
151.9908,61.6929
151.9908,61.4584
152.2438,61.4584
152.2923,61.5066
152.3366,61.5392
152.3843,61.5598
152.4365,61.5667
152.4959,61.5580
152.5375,61.5340
152.5643,61.4961
152.5738,61.4440
152.5705,61.4117
152.5610,61.3843
152.5448,61.3605
152.5205,61.3398
152.4902,61.3242
152.4488,61.3122
152.4024,61.3055
152.3422,61.3029
152.2438,61.3029
152.2438,61.4584
151.9908,61.4584
151.9908,61.0777
151.9968,60.9870
152.0133,60.9147
152.0429,60.8516
152.0850,60.8024
152.1395,60.7652
152.2106,60.7378
152.2910,60.7225
152.3945,60.7168
Z" /> 
<path style="fill:#000000; fill-opacity:1.0000; stroke:none;fill-rule:evenodd;"
d="M 151.6668,60.3037
151.7063,60.3124
151.7272,60.3262
151.7334,60.3445
151.7334,61.6899
151.7283,61.7089
151.7103,61.7217
151.6765,61.7288
151.6237,61.7309
151.5715,61.7288
151.5372,61.7216
151.5188,61.7089
151.5131,61.6899
151.5131,61.5905
151.4408,61.6624
151.3691,61.7115
151.2928,61.7397
151.2067,61.7484
151.1172,61.7389
151.0402,61.7115
150.9730,61.6669
150.9168,61.6059
150.8733,61.5318
150.8399,61.4398
150.8202,61.3388
150.8145,61.2412
151.0807,61.2412
151.0910,61.3459
151.1047,61.3961
151.1243,61.4392
151.1506,61.4768
151.1822,61.5059
151.2200,61.5249
151.2672,61.5316
151.3195,61.5226
151.3712,61.4946
151.4195,61.4516
151.4752,61.3865
151.4752,61.0829
151.4168,61.0153
151.3630,60.9708
151.3123,60.9466
151.2621,60.9395
151.2132,60.9461
151.1755,60.9647
151.1447,60.9936
151.1196,61.0319
151.1016,61.0761
151.0894,61.1284
151.0807,61.2412
150.8145,61.2412
150.8133,61.2203
150.8185,61.1203
150.8338,61.0270
150.8608,60.9396
150.8988,60.8665
150.9500,60.8048
151.0141,60.7573
151.0628,60.7354
151.1196,60.7216
151.1862,60.7168
151.2642,60.7240
151.3359,60.7471
151.4056,60.7876
151.4752,60.8470
151.4752,60.3444
151.4813,60.3260
151.5024,60.3123
151.5419,60.3037
151.6042,60.3006
Z" /> 
<path style="fill:#000000; fill-opacity:1.0000; stroke:none;fill-rule:evenodd;"
d="M 162.0296,63.2944
162.0301,63.3066
162.0322,63.3226
162.0363,63.3426
162.0429,63.3681
162.3176,64.1955
162.3314,64.2237
162.3601,64.2406
162.4144,64.2488
162.5040,64.2509
162.5927,64.2483
162.6465,64.2396
162.6747,64.2227
162.6885,64.1955
162.9631,63.3681
162.9729,63.3313
162.9770,63.3077
162.9775,63.2944
162.9719,63.2764
162.9519,63.2636
162.9124,63.2565
162.8494,63.2544
162.7817,63.2569
162.7413,63.2642
162.7203,63.2774
162.7100,63.2984
162.5020,63.9700
162.4959,63.9956
162.4897,63.9700
162.2848,63.2984
162.2751,63.2774
162.2541,63.2642
162.2156,63.2569
162.1526,63.2544
162.0906,63.2565
162.0532,63.2636
162.0347,63.2764
Z" /> 
<path style="fill:#000000; fill-opacity:1.0000; stroke:none;fill-rule:evenodd;"
d="M 161.0391,64.1440
161.0422,64.1920
161.0509,64.2233
161.0638,64.2400
161.0802,64.2450
161.8118,64.2450
161.8272,64.2400
161.8400,64.2233
161.8487,64.1920
161.8517,64.1440
161.8492,64.0950
161.8410,64.0631
161.8282,64.0454
161.8118,64.0398
161.5648,64.0398
161.5648,63.1723
161.7779,63.2895
161.8164,63.3034
161.8300,63.3030
161.8399,63.2972
161.8517,63.2671
161.8547,63.2068
161.8537,63.1664
161.8486,63.1394
161.8373,63.1210
161.8178,63.1056
161.5330,62.9218
161.5202,62.9152
161.5002,62.9111
161.4680,62.9091
161.4162,62.9085
161.3532,62.9101
161.3168,62.9152
161.3004,62.9250
161.2963,62.9404
161.2963,64.0398
161.0801,64.0398
161.0632,64.0454
161.0499,64.0631
161.0417,64.0950
Z" /> 
<path style="fill:#000000; fill-opacity:1.0000; stroke:none;fill-rule:evenodd;"
d="M 160.5101,64.0959
160.5149,64.1590
160.5268,64.1994
160.5434,64.2239
160.5680,64.2406
160.6060,64.2522
160.6628,64.2567
160.7196,64.2522
160.7574,64.2408
160.7817,64.2245
160.7982,64.2004
160.8098,64.1616
160.8145,64.1020
160.8097,64.0382
160.7977,63.9975
160.7811,63.9730
160.7565,63.9563
160.7181,63.9447
160.6607,63.9402
160.6046,63.9447
160.5671,63.9561
160.5429,63.9725
160.5264,63.9966
160.5147,64.0356
Z" /> 
<path style="fill:#000000; fill-opacity:1.0000; stroke:none;fill-rule:evenodd;"
d="M 159.9253,62.9026
159.9999,62.9190
160.0635,62.9450
160.1213,62.9816
160.1713,63.0274
160.2141,63.0832
160.2629,63.1800
160.2982,63.3017
160.3174,63.4340
160.3243,63.5877
160.3187,63.7432
160.3033,63.8739
160.2734,63.9937
160.2300,64.0878
160.1908,64.1418
160.1439,64.1863
160.0886,64.2219
160.0274,64.2467
159.9532,64.2627
159.8632,64.2684
159.7747,64.2626
159.6998,64.2462
159.6362,64.2204
159.5783,64.1837
159.5283,64.1378
159.4856,64.0822
159.4368,63.9853
159.4021,63.8641
159.3832,63.7321
159.3769,63.5884
159.6480,63.5884
159.6516,63.7305
159.6650,63.8460
159.6901,63.9361
159.7078,63.9724
159.7285,64.0005
159.7536,64.0229
159.7823,64.0388
159.8145,64.0482
159.8529,64.0516
159.9035,64.0458
159.9442,64.0296
159.9774,64.0009
160.0062,63.9529
160.0260,63.8930
160.0415,63.8056
160.0497,63.7070
160.0528,63.5720
160.0436,63.3696
160.0302,63.2866
160.0113,63.2244
159.9831,63.1720
159.9488,63.1369
159.9054,63.1155
159.8489,63.1078
159.7853,63.1171
159.7583,63.1293
159.7341,63.1482
159.7139,63.1730
159.6958,63.2070
159.6691,63.2970
159.6532,63.4222
159.6480,63.5884
159.3769,63.5884
159.3765,63.5775
159.3819,63.4220
159.3970,63.2914
159.4265,63.1716
159.4697,63.0775
159.5089,63.0235
159.5560,62.9790
159.6117,62.9434
159.6731,62.9185
159.7476,62.9025
159.8375,62.8968
Z" /> 
</g>
<g style="fill:none; 
stroke:#000000; stroke-width:0.1000; stroke-opacity:1; 
stroke-linecap:round; stroke-linejoin:round;">
<text x="191.0000" y="80.3200"
transform="scale(-1 1) translate(-382.000000 0)"
textLength="1.3514" font-size="0.8000" lengthAdjust="spacingAndGlyphs"
text-anchor="middle" opacity="0" stroke-opacity="0">C5</text>
<g class="stroked-text"><desc>C5</desc>
<path d="M191.1000 80.2352
L191.1286 80.2638
" />
<path d="M191.1286 80.2638
L191.2143 80.2924
" />
<path d="M191.2143 80.2924
L191.2714 80.2924
" />
<path d="M191.2714 80.2924
L191.3571 80.2638
" />
<path d="M191.3571 80.2638
L191.4143 80.2067
" />
<path d="M191.4143 80.2067
L191.4429 80.1495
" />
<path d="M191.4429 80.1495
L191.4714 80.0352
" />
<path d="M191.4714 80.0352
L191.4714 79.9495
" />
<path d="M191.4714 79.9495
L191.4429 79.8352
" />
<path d="M191.4429 79.8352
L191.4143 79.7781
" />
<path d="M191.4143 79.7781
L191.3571 79.7209
" />
<path d="M191.3571 79.7209
L191.2714 79.6924
" />
<path d="M191.2714 79.6924
L191.2143 79.6924
" />
<path d="M191.2143 79.6924
L191.1286 79.7209
" />
<path d="M191.1286 79.7209
L191.1000 79.7495
" />
<path d="M190.5571 79.6924
L190.8429 79.6924
" />
<path d="M190.8429 79.6924
L190.8714 79.9781
" />
<path d="M190.8714 79.9781
L190.8429 79.9495
" />
<path d="M190.8429 79.9495
L190.7857 79.9209
" />
<path d="M190.7857 79.9209
L190.6429 79.9209
" />
<path d="M190.6429 79.9209
L190.5857 79.9495
" />
<path d="M190.5857 79.9495
L190.5571 79.9781
" />
<path d="M190.5571 79.9781
L190.5286 80.0352
" />
<path d="M190.5286 80.0352
L190.5286 80.1781
" />
<path d="M190.5286 80.1781
L190.5571 80.2352
" />
<path d="M190.5571 80.2352
L190.5857 80.2638
" />
<path d="M190.5857 80.2638
L190.6429 80.2924
" />
<path d="M190.6429 80.2924
L190.7857 80.2924
" />
<path d="M190.7857 80.2924
L190.8429 80.2638
" />
<path d="M190.8429 80.2638
L190.8714 80.2352
" />
</g></g>
<g style="fill:none; 
stroke:#000000; stroke-width:0.1500; stroke-opacity:1; 
stroke-linecap:round; stroke-linejoin:round;">
<text x="189.5000" y="77.8200"
transform="scale(-1 1) translate(-379.000000 0)"
textLength="2.2024" font-size="1.3333" lengthAdjust="spacingAndGlyphs"
text-anchor="middle" opacity="0" stroke-opacity="0">C2</text>
<g class="stroked-text"><desc>C2</desc>
<path d="M189.6667 77.6796
L189.7143 77.7272
" />
<path d="M189.7143 77.7272
L189.8571 77.7748
" />
<path d="M189.8571 77.7748
L189.9524 77.7748
" />
<path d="M189.9524 77.7748
L190.0952 77.7272
" />
<path d="M190.0952 77.7272
L190.1905 77.6320
" />
<path d="M190.1905 77.6320
L190.2381 77.5367
" />
<path d="M190.2381 77.5367
L190.2857 77.3462
" />
<path d="M190.2857 77.3462
L190.2857 77.2034
" />
<path d="M190.2857 77.2034
L190.2381 77.0129
" />
<path d="M190.2381 77.0129
L190.1905 76.9177
" />
<path d="M190.1905 76.9177
L190.0952 76.8224
" />
<path d="M190.0952 76.8224
L189.9524 76.7748
" />
<path d="M189.9524 76.7748
L189.8571 76.7748
" />
<path d="M189.8571 76.7748
L189.7143 76.8224
" />
<path d="M189.7143 76.8224
L189.6667 76.8701
" />
<path d="M189.2857 76.8701
L189.2381 76.8224
" />
<path d="M189.2381 76.8224
L189.1429 76.7748
" />
<path d="M189.1429 76.7748
L188.9048 76.7748
" />
<path d="M188.9048 76.7748
L188.8095 76.8224
" />
<path d="M188.8095 76.8224
L188.7619 76.8701
" />
<path d="M188.7619 76.8701
L188.7143 76.9653
" />
<path d="M188.7143 76.9653
L188.7143 77.0605
" />
<path d="M188.7143 77.0605
L188.7619 77.2034
" />
<path d="M188.7619 77.2034
L189.3333 77.7748
" />
<path d="M189.3333 77.7748
L188.7143 77.7748
" />
</g></g>
<g style="fill:none; 
stroke:#000000; stroke-width:0.1016; stroke-opacity:1; 
stroke-linecap:round; stroke-linejoin:round;">
<g transform="rotate(-180.000000 183.7550 100.6300)">
<text x="183.7550" y="100.9475"
transform="scale(-1 1) translate(-367.510000 0)"
textLength="1.4478" font-size="0.8467" lengthAdjust="spacingAndGlyphs"
text-anchor="middle" opacity="0" stroke-opacity="0">U2</text>
</g>
<g class="stroked-text"><desc>U2</desc>
<path d="M183.2712 100.9765
L183.2712 100.4625
" />
<path d="M183.2712 100.4625
L183.3014 100.4020
" />
<path d="M183.3014 100.4020
L183.3317 100.3718
" />
<path d="M183.3317 100.3718
L183.3921 100.3415
" />
<path d="M183.3921 100.3415
L183.5131 100.3415
" />
<path d="M183.5131 100.3415
L183.5736 100.3718
" />
<path d="M183.5736 100.3718
L183.6038 100.4020
" />
<path d="M183.6038 100.4020
L183.6340 100.4625
" />
<path d="M183.6340 100.4625
L183.6340 100.9765
" />
<path d="M183.9062 100.9160
L183.9364 100.9463
" />
<path d="M183.9364 100.9463
L183.9969 100.9765
" />
<path d="M183.9969 100.9765
L184.1481 100.9765
" />
<path d="M184.1481 100.9765
L184.2086 100.9463
" />
<path d="M184.2086 100.9463
L184.2388 100.9160
" />
<path d="M184.2388 100.9160
L184.2690 100.8556
" />
<path d="M184.2690 100.8556
L184.2690 100.7951
" />
<path d="M184.2690 100.7951
L184.2388 100.7044
" />
<path d="M184.2388 100.7044
L183.8760 100.3415
" />
<path d="M183.8760 100.3415
L184.2690 100.3415
" />
</g></g>
<g style="fill:none; 
stroke:#000000; stroke-width:0.1000; stroke-opacity:1; 
stroke-linecap:round; stroke-linejoin:round;">
<text x="191.4250" y="76.3000"
transform="scale(-1 1) translate(-382.850000 0)"
textLength="1.3800" font-size="0.8000" lengthAdjust="spacingAndGlyphs"
text-anchor="middle" opacity="0" stroke-opacity="0">Q1</text>
<g class="stroked-text"><desc>Q1</desc>
<path d="M191.4821 76.3295
L191.5393 76.3009
" />
<path d="M191.5393 76.3009
L191.5964 76.2438
" />
<path d="M191.5964 76.2438
L191.6821 76.1581
" />
<path d="M191.6821 76.1581
L191.7393 76.1295
" />
<path d="M191.7393 76.1295
L191.7964 76.1295
" />
<path d="M191.7679 76.2724
L191.8250 76.2438
" />
<path d="M191.8250 76.2438
L191.8821 76.1867
" />
<path d="M191.8821 76.1867
L191.9107 76.0724
" />
<path d="M191.9107 76.0724
L191.9107 75.8724
" />
<path d="M191.9107 75.8724
L191.8821 75.7581
" />
<path d="M191.8821 75.7581
L191.8250 75.7009
" />
<path d="M191.8250 75.7009
L191.7679 75.6724
" />
<path d="M191.7679 75.6724
L191.6536 75.6724
" />
<path d="M191.6536 75.6724
L191.5964 75.7009
" />
<path d="M191.5964 75.7009
L191.5393 75.7581
" />
<path d="M191.5393 75.7581
L191.5107 75.8724
" />
<path d="M191.5107 75.8724
L191.5107 76.0724
" />
<path d="M191.5107 76.0724
L191.5393 76.1867
" />
<path d="M191.5393 76.1867
L191.5964 76.2438
" />
<path d="M191.5964 76.2438
L191.6536 76.2724
" />
<path d="M191.6536 76.2724
L191.7679 76.2724
" />
<path d="M190.9393 76.2724
L191.2821 76.2724
" />
<path d="M191.1107 76.2724
L191.1107 75.6724
" />
<path d="M191.1107 75.6724
L191.1679 75.7581
" />
<path d="M191.1679 75.7581
L191.2250 75.8152
" />
<path d="M191.2250 75.8152
L191.2821 75.8438
" />
</g></g>
<g style="fill:none; 
stroke:#000000; stroke-width:0.1500; stroke-opacity:1; 
stroke-linecap:round; stroke-linejoin:round;">
<text x="186.0000" y="81.1600"
transform="scale(-1 1) translate(-372.000000 0)"
textLength="2.2024" font-size="1.3333" lengthAdjust="spacingAndGlyphs"
text-anchor="middle" opacity="0" stroke-opacity="0">C3</text>
<g class="stroked-text"><desc>C3</desc>
<path d="M186.1667 81.0196
L186.2143 81.0672
" />
<path d="M186.2143 81.0672
L186.3571 81.1148
" />
<path d="M186.3571 81.1148
L186.4524 81.1148
" />
<path d="M186.4524 81.1148
L186.5952 81.0672
" />
<path d="M186.5952 81.0672
L186.6905 80.9720
" />
<path d="M186.6905 80.9720
L186.7381 80.8767
" />
<path d="M186.7381 80.8767
L186.7857 80.6862
" />
<path d="M186.7857 80.6862
L186.7857 80.5434
" />
<path d="M186.7857 80.5434
L186.7381 80.3529
" />
<path d="M186.7381 80.3529
L186.6905 80.2577
" />
<path d="M186.6905 80.2577
L186.5952 80.1624
" />
<path d="M186.5952 80.1624
L186.4524 80.1148
" />
<path d="M186.4524 80.1148
L186.3571 80.1148
" />
<path d="M186.3571 80.1148
L186.2143 80.1624
" />
<path d="M186.2143 80.1624
L186.1667 80.2101
" />
<path d="M185.8333 80.1148
L185.2143 80.1148
" />
<path d="M185.2143 80.1148
L185.5476 80.4958
" />
<path d="M185.5476 80.4958
L185.4048 80.4958
" />
<path d="M185.4048 80.4958
L185.3095 80.5434
" />
<path d="M185.3095 80.5434
L185.2619 80.5910
" />
<path d="M185.2619 80.5910
L185.2143 80.6862
" />
<path d="M185.2143 80.6862
L185.2143 80.9243
" />
<path d="M185.2143 80.9243
L185.2619 81.0196
" />
<path d="M185.2619 81.0196
L185.3095 81.0672
" />
<path d="M185.3095 81.0672
L185.4048 81.1148
" />
<path d="M185.4048 81.1148
L185.6905 81.1148
" />
<path d="M185.6905 81.1148
L185.7857 81.0672
" />
<path d="M185.7857 81.0672
L185.8333 81.0196
" />
</g></g>
<g style="fill:none; 
stroke:#000000; stroke-width:0.1000; stroke-opacity:1; 
stroke-linecap:round; stroke-linejoin:round;">
<text x="187.4500" y="71.4700"
transform="scale(-1 1) translate(-374.900000 0)"
textLength="1.3514" font-size="0.8000" lengthAdjust="spacingAndGlyphs"
text-anchor="middle" opacity="0" stroke-opacity="0">R5</text>
<g class="stroked-text"><desc>R5</desc>
<path d="M187.5500 71.4424
L187.7500 71.1567
" />
<path d="M187.8929 71.4424
L187.8929 70.8424
" />
<path d="M187.8929 70.8424
L187.6643 70.8424
" />
<path d="M187.6643 70.8424
L187.6071 70.8709
" />
<path d="M187.6071 70.8709
L187.5786 70.8995
" />
<path d="M187.5786 70.8995
L187.5500 70.9567
" />
<path d="M187.5500 70.9567
L187.5500 71.0424
" />
<path d="M187.5500 71.0424
L187.5786 71.0995
" />
<path d="M187.5786 71.0995
L187.6071 71.1281
" />
<path d="M187.6071 71.1281
L187.6643 71.1567
" />
<path d="M187.6643 71.1567
L187.8929 71.1567
" />
<path d="M187.0071 70.8424
L187.2929 70.8424
" />
<path d="M187.2929 70.8424
L187.3214 71.1281
" />
<path d="M187.3214 71.1281
L187.2929 71.0995
" />
<path d="M187.2929 71.0995
L187.2357 71.0709
" />
<path d="M187.2357 71.0709
L187.0929 71.0709
" />
<path d="M187.0929 71.0709
L187.0357 71.0995
" />
<path d="M187.0357 71.0995
L187.0071 71.1281
" />
<path d="M187.0071 71.1281
L186.9786 71.1852
" />
<path d="M186.9786 71.1852
L186.9786 71.3281
" />
<path d="M186.9786 71.3281
L187.0071 71.3852
" />
<path d="M187.0071 71.3852
L187.0357 71.4138
" />
<path d="M187.0357 71.4138
L187.0929 71.4424
" />
<path d="M187.0929 71.4424
L187.2357 71.4424
" />
<path d="M187.2357 71.4424
L187.2929 71.4138
" />
<path d="M187.2929 71.4138
L187.3214 71.3852
" />
</g></g>
<g style="fill:none; 
stroke:#000000; stroke-width:0.1500; stroke-opacity:1; 
stroke-linecap:round; stroke-linejoin:round;">
<text x="168.7120" y="101.8100"
transform="scale(-1 1) translate(-337.424000 0)"
textLength="2.2500" font-size="1.3333" lengthAdjust="spacingAndGlyphs"
text-anchor="middle" opacity="0" stroke-opacity="0">U5</text>
<g class="stroked-text"><desc>U5</desc>
<path d="M169.4739 100.7648
L169.4739 101.5743
" />
<path d="M169.4739 101.5743
L169.4263 101.6696
" />
<path d="M169.4263 101.6696
L169.3787 101.7172
" />
<path d="M169.3787 101.7172
L169.2834 101.7648
" />
<path d="M169.2834 101.7648
L169.0930 101.7648
" />
<path d="M169.0930 101.7648
L168.9977 101.7172
" />
<path d="M168.9977 101.7172
L168.9501 101.6696
" />
<path d="M168.9501 101.6696
L168.9025 101.5743
" />
<path d="M168.9025 101.5743
L168.9025 100.7648
" />
<path d="M167.9501 100.7648
L168.4263 100.7648
" />
<path d="M168.4263 100.7648
L168.4739 101.2410
" />
<path d="M168.4739 101.2410
L168.4263 101.1934
" />
<path d="M168.4263 101.1934
L168.3310 101.1458
" />
<path d="M168.3310 101.1458
L168.0930 101.1458
" />
<path d="M168.0930 101.1458
L167.9977 101.1934
" />
<path d="M167.9977 101.1934
L167.9501 101.2410
" />
<path d="M167.9501 101.2410
L167.9025 101.3362
" />
<path d="M167.9025 101.3362
L167.9025 101.5743
" />
<path d="M167.9025 101.5743
L167.9501 101.6696
" />
<path d="M167.9501 101.6696
L167.9977 101.7172
" />
<path d="M167.9977 101.7172
L168.0930 101.7648
" />
<path d="M168.0930 101.7648
L168.3310 101.7648
" />
<path d="M168.3310 101.7648
L168.4263 101.7172
" />
<path d="M168.4263 101.7172
L168.4739 101.6696
" />
</g></g>
<g style="fill:none; 
stroke:#000000; stroke-width:0.1000; stroke-opacity:1; 
stroke-linecap:round; stroke-linejoin:round;">
<g transform="rotate(-90.000000 169.0000 86.5000)">
<text x="169.0000" y="86.8000"
transform="scale(-1 1) translate(-338.000000 0)"
textLength="1.9229" font-size="0.8000" lengthAdjust="spacingAndGlyphs"
text-anchor="middle" opacity="0" stroke-opacity="0">R15</text>
</g>
<g class="stroked-text"><desc>R15</desc>
<path d="M169.2724 86.1143
L168.9867 85.9143
" />
<path d="M169.2724 85.7714
L168.6724 85.7714
" />
<path d="M168.6724 85.7714
L168.6724 86.0000
" />
<path d="M168.6724 86.0000
L168.7009 86.0571
" />
<path d="M168.7009 86.0571
L168.7295 86.0857
" />
<path d="M168.7295 86.0857
L168.7867 86.1143
" />
<path d="M168.7867 86.1143
L168.8724 86.1143
" />
<path d="M168.8724 86.1143
L168.9295 86.0857
" />
<path d="M168.9295 86.0857
L168.9581 86.0571
" />
<path d="M168.9581 86.0571
L168.9867 86.0000
" />
<path d="M168.9867 86.0000
L168.9867 85.7714
" />
<path d="M169.2724 86.6857
L169.2724 86.3429
" />
<path d="M169.2724 86.5143
L168.6724 86.5143
" />
<path d="M168.6724 86.5143
L168.7581 86.4571
" />
<path d="M168.7581 86.4571
L168.8152 86.4000
" />
<path d="M168.8152 86.4000
L168.8438 86.3429
" />
<path d="M168.6724 87.2286
L168.6724 86.9429
" />
<path d="M168.6724 86.9429
L168.9581 86.9143
" />
<path d="M168.9581 86.9143
L168.9295 86.9429
" />
<path d="M168.9295 86.9429
L168.9009 87.0000
" />
<path d="M168.9009 87.0000
L168.9009 87.1429
" />
<path d="M168.9009 87.1429
L168.9295 87.2000
" />
<path d="M168.9295 87.2000
L168.9581 87.2286
" />
<path d="M168.9581 87.2286
L169.0152 87.2571
" />
<path d="M169.0152 87.2571
L169.1581 87.2571
" />
<path d="M169.1581 87.2571
L169.2152 87.2286
" />
<path d="M169.2152 87.2286
L169.2438 87.2000
" />
<path d="M169.2438 87.2000
L169.2724 87.1429
" />
<path d="M169.2724 87.1429
L169.2724 87.0000
" />
<path d="M169.2724 87.0000
L169.2438 86.9429
" />
<path d="M169.2438 86.9429
L169.2152 86.9143
" />
</g><text x="185.4500" y="71.8000"
transform="scale(-1 1) translate(-370.900000 0)"
textLength="1.3514" font-size="0.8000" lengthAdjust="spacingAndGlyphs"
text-anchor="middle" opacity="0" stroke-opacity="0">R3</text>
<g class="stroked-text"><desc>R3</desc>
<path d="M185.5500 71.7724
L185.7500 71.4867
" />
<path d="M185.8929 71.7724
L185.8929 71.1724
" />
<path d="M185.8929 71.1724
L185.6643 71.1724
" />
<path d="M185.6643 71.1724
L185.6071 71.2009
" />
<path d="M185.6071 71.2009
L185.5786 71.2295
" />
<path d="M185.5786 71.2295
L185.5500 71.2867
" />
<path d="M185.5500 71.2867
L185.5500 71.3724
" />
<path d="M185.5500 71.3724
L185.5786 71.4295
" />
<path d="M185.5786 71.4295
L185.6071 71.4581
" />
<path d="M185.6071 71.4581
L185.6643 71.4867
" />
<path d="M185.6643 71.4867
L185.8929 71.4867
" />
<path d="M185.3500 71.1724
L184.9786 71.1724
" />
<path d="M184.9786 71.1724
L185.1786 71.4009
" />
<path d="M185.1786 71.4009
L185.0929 71.4009
" />
<path d="M185.0929 71.4009
L185.0357 71.4295
" />
<path d="M185.0357 71.4295
L185.0071 71.4581
" />
<path d="M185.0071 71.4581
L184.9786 71.5152
" />
<path d="M184.9786 71.5152
L184.9786 71.6581
" />
<path d="M184.9786 71.6581
L185.0071 71.7152
" />
<path d="M185.0071 71.7152
L185.0357 71.7438
" />
<path d="M185.0357 71.7438
L185.0929 71.7724
" />
<path d="M185.0929 71.7724
L185.2643 71.7724
" />
<path d="M185.2643 71.7724
L185.3214 71.7438
" />
<path d="M185.3214 71.7438
L185.3500 71.7152
" />
</g><text x="167.9850" y="85.3000"
transform="scale(-1 1) translate(-335.970000 0)"
textLength="1.9229" font-size="0.8000" lengthAdjust="spacingAndGlyphs"
text-anchor="middle" opacity="0" stroke-opacity="0">R11</text>
<g class="stroked-text"><desc>R11</desc>
<path d="M168.3707 85.2724
L168.5707 84.9867
" />
<path d="M168.7136 85.2724
L168.7136 84.6724
" />
<path d="M168.7136 84.6724
L168.4850 84.6724
" />
<path d="M168.4850 84.6724
L168.4279 84.7009
" />
<path d="M168.4279 84.7009
L168.3993 84.7295
" />
<path d="M168.3993 84.7295
L168.3707 84.7867
" />
<path d="M168.3707 84.7867
L168.3707 84.8724
" />
<path d="M168.3707 84.8724
L168.3993 84.9295
" />
<path d="M168.3993 84.9295
L168.4279 84.9581
" />
<path d="M168.4279 84.9581
L168.4850 84.9867
" />
<path d="M168.4850 84.9867
L168.7136 84.9867
" />
<path d="M167.7993 85.2724
L168.1421 85.2724
" />
<path d="M167.9707 85.2724
L167.9707 84.6724
" />
<path d="M167.9707 84.6724
L168.0279 84.7581
" />
<path d="M168.0279 84.7581
L168.0850 84.8152
" />
<path d="M168.0850 84.8152
L168.1421 84.8438
" />
<path d="M167.2279 85.2724
L167.5707 85.2724
" />
<path d="M167.3993 85.2724
L167.3993 84.6724
" />
<path d="M167.3993 84.6724
L167.4564 84.7581
" />
<path d="M167.4564 84.7581
L167.5136 84.8152
" />
<path d="M167.5136 84.8152
L167.5707 84.8438
" />
</g><text x="170.4900" y="82.3000"
transform="scale(-1 1) translate(-340.980000 0)"
textLength="1.9229" font-size="0.8000" lengthAdjust="spacingAndGlyphs"
text-anchor="middle" opacity="0" stroke-opacity="0">R14</text>
<g class="stroked-text"><desc>R14</desc>
<path d="M170.8757 82.2724
L171.0757 81.9867
" />
<path d="M171.2186 82.2724
L171.2186 81.6724
" />
<path d="M171.2186 81.6724
L170.9900 81.6724
" />
<path d="M170.9900 81.6724
L170.9329 81.7009
" />
<path d="M170.9329 81.7009
L170.9043 81.7295
" />
<path d="M170.9043 81.7295
L170.8757 81.7867
" />
<path d="M170.8757 81.7867
L170.8757 81.8724
" />
<path d="M170.8757 81.8724
L170.9043 81.9295
" />
<path d="M170.9043 81.9295
L170.9329 81.9581
" />
<path d="M170.9329 81.9581
L170.9900 81.9867
" />
<path d="M170.9900 81.9867
L171.2186 81.9867
" />
<path d="M170.3043 82.2724
L170.6471 82.2724
" />
<path d="M170.4757 82.2724
L170.4757 81.6724
" />
<path d="M170.4757 81.6724
L170.5329 81.7581
" />
<path d="M170.5329 81.7581
L170.5900 81.8152
" />
<path d="M170.5900 81.8152
L170.6471 81.8438
" />
<path d="M169.7900 81.8724
L169.7900 82.2724
" />
<path d="M169.9329 81.6438
L170.0757 82.0724
" />
<path d="M170.0757 82.0724
L169.7043 82.0724
" />
</g><g transform="rotate(-90.000000 168.5000 89.0000)">
<text x="168.5000" y="89.3000"
transform="scale(-1 1) translate(-337.000000 0)"
textLength="1.9229" font-size="0.8000" lengthAdjust="spacingAndGlyphs"
text-anchor="middle" opacity="0" stroke-opacity="0">R16</text>
</g>
<g class="stroked-text"><desc>R16</desc>
<path d="M168.7724 88.6143
L168.4867 88.4143
" />
<path d="M168.7724 88.2714
L168.1724 88.2714
" />
<path d="M168.1724 88.2714
L168.1724 88.5000
" />
<path d="M168.1724 88.5000
L168.2009 88.5571
" />
<path d="M168.2009 88.5571
L168.2295 88.5857
" />
<path d="M168.2295 88.5857
L168.2867 88.6143
" />
<path d="M168.2867 88.6143
L168.3724 88.6143
" />
<path d="M168.3724 88.6143
L168.4295 88.5857
" />
<path d="M168.4295 88.5857
L168.4581 88.5571
" />
<path d="M168.4581 88.5571
L168.4867 88.5000
" />
<path d="M168.4867 88.5000
L168.4867 88.2714
" />
<path d="M168.7724 89.1857
L168.7724 88.8429
" />
<path d="M168.7724 89.0143
L168.1724 89.0143
" />
<path d="M168.1724 89.0143
L168.2581 88.9571
" />
<path d="M168.2581 88.9571
L168.3152 88.9000
" />
<path d="M168.3152 88.9000
L168.3438 88.8429
" />
<path d="M168.1724 89.7000
L168.1724 89.5857
" />
<path d="M168.1724 89.5857
L168.2009 89.5286
" />
<path d="M168.2009 89.5286
L168.2295 89.5000
" />
<path d="M168.2295 89.5000
L168.3152 89.4429
" />
<path d="M168.3152 89.4429
L168.4295 89.4143
" />
<path d="M168.4295 89.4143
L168.6581 89.4143
" />
<path d="M168.6581 89.4143
L168.7152 89.4429
" />
<path d="M168.7152 89.4429
L168.7438 89.4714
" />
<path d="M168.7438 89.4714
L168.7724 89.5286
" />
<path d="M168.7724 89.5286
L168.7724 89.6429
" />
<path d="M168.7724 89.6429
L168.7438 89.7000
" />
<path d="M168.7438 89.7000
L168.7152 89.7286
" />
<path d="M168.7152 89.7286
L168.6581 89.7571
" />
<path d="M168.6581 89.7571
L168.5152 89.7571
" />
<path d="M168.5152 89.7571
L168.4581 89.7286
" />
<path d="M168.4581 89.7286
L168.4295 89.7000
" />
<path d="M168.4295 89.7000
L168.4009 89.6429
" />
<path d="M168.4009 89.6429
L168.4009 89.5286
" />
<path d="M168.4009 89.5286
L168.4295 89.4714
" />
<path d="M168.4295 89.4714
L168.4581 89.4429
" />
<path d="M168.4581 89.4429
L168.5152 89.4143
" />
</g><text x="186.9500" y="76.3000"
transform="scale(-1 1) translate(-373.900000 0)"
textLength="1.3800" font-size="0.8000" lengthAdjust="spacingAndGlyphs"
text-anchor="middle" opacity="0" stroke-opacity="0">Q2</text>
<g class="stroked-text"><desc>Q2</desc>
<path d="M187.0071 76.3295
L187.0643 76.3009
" />
<path d="M187.0643 76.3009
L187.1214 76.2438
" />
<path d="M187.1214 76.2438
L187.2071 76.1581
" />
<path d="M187.2071 76.1581
L187.2643 76.1295
" />
<path d="M187.2643 76.1295
L187.3214 76.1295
" />
<path d="M187.2929 76.2724
L187.3500 76.2438
" />
<path d="M187.3500 76.2438
L187.4071 76.1867
" />
<path d="M187.4071 76.1867
L187.4357 76.0724
" />
<path d="M187.4357 76.0724
L187.4357 75.8724
" />
<path d="M187.4357 75.8724
L187.4071 75.7581
" />
<path d="M187.4071 75.7581
L187.3500 75.7009
" />
<path d="M187.3500 75.7009
L187.2929 75.6724
" />
<path d="M187.2929 75.6724
L187.1786 75.6724
" />
<path d="M187.1786 75.6724
L187.1214 75.7009
" />
<path d="M187.1214 75.7009
L187.0643 75.7581
" />
<path d="M187.0643 75.7581
L187.0357 75.8724
" />
<path d="M187.0357 75.8724
L187.0357 76.0724
" />
<path d="M187.0357 76.0724
L187.0643 76.1867
" />
<path d="M187.0643 76.1867
L187.1214 76.2438
" />
<path d="M187.1214 76.2438
L187.1786 76.2724
" />
<path d="M187.1786 76.2724
L187.2929 76.2724
" />
<path d="M186.8071 75.7295
L186.7786 75.7009
" />
<path d="M186.7786 75.7009
L186.7214 75.6724
" />
<path d="M186.7214 75.6724
L186.5786 75.6724
" />
<path d="M186.5786 75.6724
L186.5214 75.7009
" />
<path d="M186.5214 75.7009
L186.4929 75.7295
" />
<path d="M186.4929 75.7295
L186.4643 75.7867
" />
<path d="M186.4643 75.7867
L186.4643 75.8438
" />
<path d="M186.4643 75.8438
L186.4929 75.9295
" />
<path d="M186.4929 75.9295
L186.8357 76.2724
" />
<path d="M186.8357 76.2724
L186.4643 76.2724
" />
</g><text x="172.0000" y="81.8000"
transform="scale(-1 1) translate(-344.000000 0)"
textLength="1.9229" font-size="0.8000" lengthAdjust="spacingAndGlyphs"
text-anchor="middle" opacity="0" stroke-opacity="0">R17</text>
<g class="stroked-text"><desc>R17</desc>
<path d="M172.3857 81.7724
L172.5857 81.4867
" />
<path d="M172.7286 81.7724
L172.7286 81.1724
" />
<path d="M172.7286 81.1724
L172.5000 81.1724
" />
<path d="M172.5000 81.1724
L172.4429 81.2009
" />
<path d="M172.4429 81.2009
L172.4143 81.2295
" />
<path d="M172.4143 81.2295
L172.3857 81.2867
" />
<path d="M172.3857 81.2867
L172.3857 81.3724
" />
<path d="M172.3857 81.3724
L172.4143 81.4295
" />
<path d="M172.4143 81.4295
L172.4429 81.4581
" />
<path d="M172.4429 81.4581
L172.5000 81.4867
" />
<path d="M172.5000 81.4867
L172.7286 81.4867
" />
<path d="M171.8143 81.7724
L172.1571 81.7724
" />
<path d="M171.9857 81.7724
L171.9857 81.1724
" />
<path d="M171.9857 81.1724
L172.0429 81.2581
" />
<path d="M172.0429 81.2581
L172.1000 81.3152
" />
<path d="M172.1000 81.3152
L172.1571 81.3438
" />
<path d="M171.6143 81.1724
L171.2143 81.1724
" />
<path d="M171.2143 81.1724
L171.4714 81.7724
" />
</g></g>
<g style="fill:none; 
stroke:#000000; stroke-width:0.1500; stroke-opacity:1; 
stroke-linecap:round; stroke-linejoin:round;">
<g transform="rotate(-90.000000 181.0000 73.5000)">
<text x="181.0000" y="74.0000"
transform="scale(-1 1) translate(-362.000000 0)"
textLength="2.2024" font-size="1.3333" lengthAdjust="spacingAndGlyphs"
text-anchor="middle" opacity="0" stroke-opacity="0">D2</text>
</g>
<g class="stroked-text"><desc>D2</desc>
<path d="M181.4548 72.7619
L180.4548 72.7619
" />
<path d="M180.4548 72.7619
L180.4548 73.0000
" />
<path d="M180.4548 73.0000
L180.5024 73.1429
" />
<path d="M180.5024 73.1429
L180.5977 73.2381
" />
<path d="M180.5977 73.2381
L180.6929 73.2857
" />
<path d="M180.6929 73.2857
L180.8834 73.3333
" />
<path d="M180.8834 73.3333
L181.0262 73.3333
" />
<path d="M181.0262 73.3333
L181.2167 73.2857
" />
<path d="M181.2167 73.2857
L181.3120 73.2381
" />
<path d="M181.3120 73.2381
L181.4072 73.1429
" />
<path d="M181.4072 73.1429
L181.4548 73.0000
" />
<path d="M181.4548 73.0000
L181.4548 72.7619
" />
<path d="M180.5501 73.7143
L180.5024 73.7619
" />
<path d="M180.5024 73.7619
L180.4548 73.8571
" />
<path d="M180.4548 73.8571
L180.4548 74.0952
" />
<path d="M180.4548 74.0952
L180.5024 74.1905
" />
<path d="M180.5024 74.1905
L180.5501 74.2381
" />
<path d="M180.5501 74.2381
L180.6453 74.2857
" />
<path d="M180.6453 74.2857
L180.7405 74.2857
" />
<path d="M180.7405 74.2857
L180.8834 74.2381
" />
<path d="M180.8834 74.2381
L181.4548 73.6667
" />
<path d="M181.4548 73.6667
L181.4548 74.2857
" />
</g></g>
<g style="fill:none; 
stroke:#000000; stroke-width:0.1000; stroke-opacity:1; 
stroke-linecap:round; stroke-linejoin:round;">
<g transform="rotate(-90.000000 192.4250 70.0000)">
<text x="192.4250" y="70.3000"
transform="scale(-1 1) translate(-384.850000 0)"
textLength="1.3514" font-size="0.8000" lengthAdjust="spacingAndGlyphs"
text-anchor="middle" opacity="0" stroke-opacity="0">R2</text>
</g>
<g class="stroked-text"><desc>R2</desc>
<path d="M192.6974 69.9000
L192.4117 69.7000
" />
<path d="M192.6974 69.5571
L192.0974 69.5571
" />
<path d="M192.0974 69.5571
L192.0974 69.7857
" />
<path d="M192.0974 69.7857
L192.1259 69.8429
" />
<path d="M192.1259 69.8429
L192.1545 69.8714
" />
<path d="M192.1545 69.8714
L192.2117 69.9000
" />
<path d="M192.2117 69.9000
L192.2974 69.9000
" />
<path d="M192.2974 69.9000
L192.3545 69.8714
" />
<path d="M192.3545 69.8714
L192.3831 69.8429
" />
<path d="M192.3831 69.8429
L192.4117 69.7857
" />
<path d="M192.4117 69.7857
L192.4117 69.5571
" />
<path d="M192.1545 70.1286
L192.1259 70.1571
" />
<path d="M192.1259 70.1571
L192.0974 70.2143
" />
<path d="M192.0974 70.2143
L192.0974 70.3571
" />
<path d="M192.0974 70.3571
L192.1259 70.4143
" />
<path d="M192.1259 70.4143
L192.1545 70.4429
" />
<path d="M192.1545 70.4429
L192.2117 70.4714
" />
<path d="M192.2117 70.4714
L192.2688 70.4714
" />
<path d="M192.2688 70.4714
L192.3545 70.4429
" />
<path d="M192.3545 70.4429
L192.6974 70.1000
" />
<path d="M192.6974 70.1000
L192.6974 70.4714
" />
</g></g>
<g style="fill:none; 
stroke:#000000; stroke-width:0.1500; stroke-opacity:1; 
stroke-linecap:round; stroke-linejoin:round;">
<g transform="rotate(-90.000000 180.0000 73.5000)">
<text x="180.0000" y="74.0000"
transform="scale(-1 1) translate(-360.000000 0)"
textLength="2.2024" font-size="1.3333" lengthAdjust="spacingAndGlyphs"
text-anchor="middle" opacity="0" stroke-opacity="0">D1</text>
</g>
<g class="stroked-text"><desc>D1</desc>
<path d="M180.4548 72.7619
L179.4548 72.7619
" />
<path d="M179.4548 72.7619
L179.4548 73.0000
" />
<path d="M179.4548 73.0000
L179.5024 73.1429
" />
<path d="M179.5024 73.1429
L179.5977 73.2381
" />
<path d="M179.5977 73.2381
L179.6929 73.2857
" />
<path d="M179.6929 73.2857
L179.8834 73.3333
" />
<path d="M179.8834 73.3333
L180.0262 73.3333
" />
<path d="M180.0262 73.3333
L180.2167 73.2857
" />
<path d="M180.2167 73.2857
L180.3120 73.2381
" />
<path d="M180.3120 73.2381
L180.4072 73.1429
" />
<path d="M180.4072 73.1429
L180.4548 73.0000
" />
<path d="M180.4548 73.0000
L180.4548 72.7619
" />
<path d="M180.4548 74.2857
L180.4548 73.7143
" />
<path d="M180.4548 74.0000
L179.4548 74.0000
" />
<path d="M179.4548 74.0000
L179.5977 73.9048
" />
<path d="M179.5977 73.9048
L179.6929 73.8095
" />
<path d="M179.6929 73.8095
L179.7405 73.7143
" />
</g></g>
<g style="fill:none; 
stroke:#000000; stroke-width:0.1000; stroke-opacity:1; 
stroke-linecap:round; stroke-linejoin:round;">
<text x="191.4250" y="70.8000"
transform="scale(-1 1) translate(-382.850000 0)"
textLength="1.3514" font-size="0.8000" lengthAdjust="spacingAndGlyphs"
text-anchor="middle" opacity="0" stroke-opacity="0">R1</text>
<g class="stroked-text"><desc>R1</desc>
<path d="M191.5250 70.7724
L191.7250 70.4867
" />
<path d="M191.8679 70.7724
L191.8679 70.1724
" />
<path d="M191.8679 70.1724
L191.6393 70.1724
" />
<path d="M191.6393 70.1724
L191.5821 70.2009
" />
<path d="M191.5821 70.2009
L191.5536 70.2295
" />
<path d="M191.5536 70.2295
L191.5250 70.2867
" />
<path d="M191.5250 70.2867
L191.5250 70.3724
" />
<path d="M191.5250 70.3724
L191.5536 70.4295
" />
<path d="M191.5536 70.4295
L191.5821 70.4581
" />
<path d="M191.5821 70.4581
L191.6393 70.4867
" />
<path d="M191.6393 70.4867
L191.8679 70.4867
" />
<path d="M190.9536 70.7724
L191.2964 70.7724
" />
<path d="M191.1250 70.7724
L191.1250 70.1724
" />
<path d="M191.1250 70.1724
L191.1821 70.2581
" />
<path d="M191.1821 70.2581
L191.2393 70.3152
" />
<path d="M191.2393 70.3152
L191.2964 70.3438
" />
</g><g transform="rotate(-90.000000 168.0000 91.5000)">
<text x="168.0000" y="91.8000"
transform="scale(-1 1) translate(-336.000000 0)"
textLength="1.3514" font-size="0.8000" lengthAdjust="spacingAndGlyphs"
text-anchor="middle" opacity="0" stroke-opacity="0">C8</text>
</g>
<g class="stroked-text"><desc>C8</desc>
<path d="M168.2152 91.4000
L168.2438 91.3714
" />
<path d="M168.2438 91.3714
L168.2724 91.2857
" />
<path d="M168.2724 91.2857
L168.2724 91.2286
" />
<path d="M168.2724 91.2286
L168.2438 91.1429
" />
<path d="M168.2438 91.1429
L168.1867 91.0857
" />
<path d="M168.1867 91.0857
L168.1295 91.0571
" />
<path d="M168.1295 91.0571
L168.0152 91.0286
" />
<path d="M168.0152 91.0286
L167.9295 91.0286
" />
<path d="M167.9295 91.0286
L167.8152 91.0571
" />
<path d="M167.8152 91.0571
L167.7581 91.0857
" />
<path d="M167.7581 91.0857
L167.7009 91.1429
" />
<path d="M167.7009 91.1429
L167.6724 91.2286
" />
<path d="M167.6724 91.2286
L167.6724 91.2857
" />
<path d="M167.6724 91.2857
L167.7009 91.3714
" />
<path d="M167.7009 91.3714
L167.7295 91.4000
" />
<path d="M167.9295 91.7429
L167.9009 91.6857
" />
<path d="M167.9009 91.6857
L167.8724 91.6571
" />
<path d="M167.8724 91.6571
L167.8152 91.6286
" />
<path d="M167.8152 91.6286
L167.7867 91.6286
" />
<path d="M167.7867 91.6286
L167.7295 91.6571
" />
<path d="M167.7295 91.6571
L167.7009 91.6857
" />
<path d="M167.7009 91.6857
L167.6724 91.7429
" />
<path d="M167.6724 91.7429
L167.6724 91.8571
" />
<path d="M167.6724 91.8571
L167.7009 91.9143
" />
<path d="M167.7009 91.9143
L167.7295 91.9429
" />
<path d="M167.7295 91.9429
L167.7867 91.9714
" />
<path d="M167.7867 91.9714
L167.8152 91.9714
" />
<path d="M167.8152 91.9714
L167.8724 91.9429
" />
<path d="M167.8724 91.9429
L167.9009 91.9143
" />
<path d="M167.9009 91.9143
L167.9295 91.8571
" />
<path d="M167.9295 91.8571
L167.9295 91.7429
" />
<path d="M167.9295 91.7429
L167.9581 91.6857
" />
<path d="M167.9581 91.6857
L167.9867 91.6571
" />
<path d="M167.9867 91.6571
L168.0438 91.6286
" />
<path d="M168.0438 91.6286
L168.1581 91.6286
" />
<path d="M168.1581 91.6286
L168.2152 91.6571
" />
<path d="M168.2152 91.6571
L168.2438 91.6857
" />
<path d="M168.2438 91.6857
L168.2724 91.7429
" />
<path d="M168.2724 91.7429
L168.2724 91.8571
" />
<path d="M168.2724 91.8571
L168.2438 91.9143
" />
<path d="M168.2438 91.9143
L168.2152 91.9429
" />
<path d="M168.2152 91.9429
L168.1581 91.9714
" />
<path d="M168.1581 91.9714
L168.0438 91.9714
" />
<path d="M168.0438 91.9714
L167.9867 91.9429
" />
<path d="M167.9867 91.9429
L167.9581 91.9143
" />
<path d="M167.9581 91.9143
L167.9295 91.8571
" />
</g><text x="170.9800" y="85.9700"
transform="scale(-1 1) translate(-341.960000 0)"
textLength="1.9229" font-size="0.8000" lengthAdjust="spacingAndGlyphs"
text-anchor="middle" opacity="0" stroke-opacity="0">R12</text>
<g class="stroked-text"><desc>R12</desc>
<path d="M171.3657 85.9424
L171.5657 85.6567
" />
<path d="M171.7086 85.9424
L171.7086 85.3424
" />
<path d="M171.7086 85.3424
L171.4800 85.3424
" />
<path d="M171.4800 85.3424
L171.4229 85.3709
" />
<path d="M171.4229 85.3709
L171.3943 85.3995
" />
<path d="M171.3943 85.3995
L171.3657 85.4567
" />
<path d="M171.3657 85.4567
L171.3657 85.5424
" />
<path d="M171.3657 85.5424
L171.3943 85.5995
" />
<path d="M171.3943 85.5995
L171.4229 85.6281
" />
<path d="M171.4229 85.6281
L171.4800 85.6567
" />
<path d="M171.4800 85.6567
L171.7086 85.6567
" />
<path d="M170.7943 85.9424
L171.1371 85.9424
" />
<path d="M170.9657 85.9424
L170.9657 85.3424
" />
<path d="M170.9657 85.3424
L171.0229 85.4281
" />
<path d="M171.0229 85.4281
L171.0800 85.4852
" />
<path d="M171.0800 85.4852
L171.1371 85.5138
" />
<path d="M170.5657 85.3995
L170.5371 85.3709
" />
<path d="M170.5371 85.3709
L170.4800 85.3424
" />
<path d="M170.4800 85.3424
L170.3371 85.3424
" />
<path d="M170.3371 85.3424
L170.2800 85.3709
" />
<path d="M170.2800 85.3709
L170.2514 85.3995
" />
<path d="M170.2514 85.3995
L170.2229 85.4567
" />
<path d="M170.2229 85.4567
L170.2229 85.5138
" />
<path d="M170.2229 85.5138
L170.2514 85.5995
" />
<path d="M170.2514 85.5995
L170.5943 85.9424
" />
<path d="M170.5943 85.9424
L170.2229 85.9424
" />
</g><g transform="rotate(-90.000000 168.0100 89.5000)">
<text x="168.0100" y="89.8000"
transform="scale(-1 1) translate(-336.020000 0)"
textLength="1.3514" font-size="0.8000" lengthAdjust="spacingAndGlyphs"
text-anchor="middle" opacity="0" stroke-opacity="0">C1</text>
</g>
<g class="stroked-text"><desc>C1</desc>
<path d="M168.2252 89.4000
L168.2538 89.3714
" />
<path d="M168.2538 89.3714
L168.2824 89.2857
" />
<path d="M168.2824 89.2857
L168.2824 89.2286
" />
<path d="M168.2824 89.2286
L168.2538 89.1429
" />
<path d="M168.2538 89.1429
L168.1967 89.0857
" />
<path d="M168.1967 89.0857
L168.1395 89.0571
" />
<path d="M168.1395 89.0571
L168.0252 89.0286
" />
<path d="M168.0252 89.0286
L167.9395 89.0286
" />
<path d="M167.9395 89.0286
L167.8252 89.0571
" />
<path d="M167.8252 89.0571
L167.7681 89.0857
" />
<path d="M167.7681 89.0857
L167.7109 89.1429
" />
<path d="M167.7109 89.1429
L167.6824 89.2286
" />
<path d="M167.6824 89.2286
L167.6824 89.2857
" />
<path d="M167.6824 89.2857
L167.7109 89.3714
" />
<path d="M167.7109 89.3714
L167.7395 89.4000
" />
<path d="M168.2824 89.9714
L168.2824 89.6286
" />
<path d="M168.2824 89.8000
L167.6824 89.8000
" />
<path d="M167.6824 89.8000
L167.7681 89.7429
" />
<path d="M167.7681 89.7429
L167.8252 89.6857
" />
<path d="M167.8252 89.6857
L167.8538 89.6286
" />
</g></g>
<g style="fill:none; 
stroke:#000000; stroke-width:0.1200; stroke-opacity:1; 
stroke-linecap:round; stroke-linejoin:round;">
<path d="M192.3922 80.3600
L192.6078 80.3600
" />
<path d="M192.3922 79.6400
L192.6078 79.6400
" />
<path d="M189.7613 78.2650
L189.2387 78.2650
" />
<path d="M189.7613 79.7350
L189.2387 79.7350
" />
</g>
<g style="fill:none; 
stroke:#000000; stroke-width:0.1270; stroke-opacity:1; 
stroke-linecap:round; stroke-linejoin:round;">
<path d="M173.4660 97.3650
L173.4660 83.3950
" />
<path d="M175.3710 81.4900
L192.5160 81.4900
" />
<path d="M175.3710 99.2700
L192.5160 99.2700
" />
</g>
<g style="fill:none; 
stroke:#000000; stroke-width:0.1000; stroke-opacity:1; 
stroke-linecap:round; stroke-linejoin:round;">
<path d="M194.4210 83.3950
L194.4210 97.3650
" />
</g>
<g style="fill:none; 
stroke:#000000; stroke-width:0.1270; stroke-opacity:1; 
stroke-linecap:round; stroke-linejoin:round;">
<path d="M194.4210 83.3950
L194.4210 97.3650
" />
<path d="M194.4210 94.8750
L195.4313 94.8713
" />
<path d="M195.4310 85.8760
L194.4210 85.8760
" />
<path d="M195.9310 94.3713
L195.9310 86.3760
" />
<path d="M175.3710 81.4900 A1.9050 1.9050 0.0 0 0 173.4660 83.3950" />
<path d="M173.4660 97.3650 A1.9050 1.9050 0.0 0 0 175.3710 99.2700" />
<path d="M194.4210 83.3950 A1.9050 1.9050 0.0 0 0 192.5160 81.4900" />
<path d="M192.5160 99.2700 A1.9050 1.9050 0.0 0 0 194.4210 97.3650" />
<path d="M195.9310 86.3760 A0.5000 0.5000 0.0 0 0 195.4310 85.8760" />
<path d="M195.4313 94.8713 A0.5000 0.5000 0.0 0 0 195.9310 94.3713" />
</g>
<g style="fill:#000000; fill-opacity:1.0000; stroke:none;">
<circle cx="193.3000" cy="98.1870" r="0.5040" /> 
<circle cx="194.1800" cy="99.3300" r="0.5040" /> 
</g>
<g style="fill:none; 
stroke:#000000; stroke-width:0.1200; stroke-opacity:1; 
stroke-linecap:round; stroke-linejoin:round;">
<path d="M189.8650 73.7400
L189.8650 75.2600
" />
<path d="M189.8650 75.2600
L190.8650 75.2600
" />
<path d="M189.9150 73.7400
L189.8650 73.7400
" />
<path d="M191.8150 73.7400
L191.0350 73.7400
" />
<path d="M191.9850 75.2600
L192.9850 75.2600
" />
<path d="M192.9850 73.7400
L192.9350 73.7400
" />
<path d="M192.9850 75.2600
L192.9850 73.7400
" />
<path style="fill:#000000; fill-opacity:1.0000; 
stroke:#000000; stroke-width:0.1200; stroke-opacity:1; 
stroke-linecap:round; stroke-linejoin:round;fill-rule:evenodd;"
d="M 191.3750,73.4400
191.0450,73.2000
191.3750,72.9600
Z" /> 
</g>
<g style="fill:none; 
stroke:#000000; stroke-width:0.1200; stroke-opacity:1; 
stroke-linecap:round; stroke-linejoin:round;">
<path d="M185.8922 79.8600
L186.1078 79.8600
" />
<path d="M185.8922 79.1400
L186.1078 79.1400
" />
<path d="M187.2964 69.6200
L187.6036 69.6200
" />
<path d="M187.2964 70.3800
L187.6036 70.3800
" />
<path d="M169.7150 91.8922
L169.7150 92.1078
" />
<path d="M170.4350 91.8922
L170.4350 92.1078
" />
</g>
<g style="fill:none; 
stroke:#000000; stroke-width:0.2000; stroke-opacity:1; 
stroke-linecap:round; stroke-linejoin:round;">
<path d="M165.2370 100.0800
L166.7620 100.0800
" />
<path d="M167.1120 95.0500
L167.1120 99.9500
" />
<path d="M167.1120 99.9500
L170.3120 99.9500
" />
<path d="M170.3120 95.0500
L167.1120 95.0500
" />
<path d="M170.3120 99.9500
L170.3120 95.0500
" />
</g>
<g style="fill:none; 
stroke:#000000; stroke-width:0.1200; stroke-opacity:1; 
stroke-linecap:round; stroke-linejoin:round;">
<path d="M170.1536 86.1200
L169.8464 86.1200
" />
<path d="M170.1536 86.8800
L169.8464 86.8800
" />
<path d="M187.4373 70.9775
L186.9627 70.9775
" />
<path d="M187.4373 72.0225
L186.9627 72.0225
" />
<path d="M169.1436 83.6200
L168.8364 83.6200
" />
<path d="M169.1436 84.3800
L168.8364 84.3800
" />
<path d="M169.1536 81.6200
L168.8464 81.6200
" />
<path d="M169.1536 82.3800
L168.8464 82.3800
" />
<path d="M170.1536 88.6200
L169.8464 88.6200
" />
<path d="M170.1536 89.3800
L169.8464 89.3800
" />
<path d="M185.4400 73.6775
L185.4400 75.1975
" />
<path d="M185.4400 75.1975
L186.4400 75.1975
" />
<path d="M185.4900 73.6775
L185.4400 73.6775
" />
<path d="M187.3900 73.6775
L186.6100 73.6775
" />
<path d="M187.5600 75.1975
L188.5600 75.1975
" />
<path d="M188.5600 73.6775
L188.5100 73.6775
" />
<path d="M188.5600 75.1975
L188.5600 73.6775
" />
<path style="fill:#000000; fill-opacity:1.0000; 
stroke:#000000; stroke-width:0.1200; stroke-opacity:1; 
stroke-linecap:round; stroke-linejoin:round;fill-rule:evenodd;"
d="M 186.9500,73.3775
186.6200,73.1375
186.9500,72.8975
Z" /> 
</g>
<g style="fill:none; 
stroke:#000000; stroke-width:0.1200; stroke-opacity:1; 
stroke-linecap:round; stroke-linejoin:round;">
<path d="M172.1536 82.1200
L171.8464 82.1200
" />
<path d="M172.1536 82.8800
L171.8464 82.8800
" />
<path d="M176.8500 77.0100
L176.8500 71.5000
" />
<path d="M180.1500 77.0100
L176.8500 77.0100
" />
<path d="M180.1500 77.0100
L180.1500 71.5000
" />
<path d="M191.2714 69.6200
L191.5786 69.6200
" />
<path d="M191.2714 70.3800
L191.5786 70.3800
" />
<path d="M180.8500 69.9900
L180.8500 75.5000
" />
<path d="M180.8500 69.9900
L184.1500 69.9900
" />
<path d="M184.1500 69.9900
L184.1500 75.5000
" />
<path d="M168.1850 91.8922
L168.1850 92.1078
" />
<path d="M168.9050 91.8922
L168.9050 92.1078
" />
<path d="M191.6623 70.9775
L191.1877 70.9775
" />
<path d="M191.6623 72.0225
L191.1877 72.0225
" />
<path d="M165.6400 91.4122
L165.6400 91.6278
" />
<path d="M166.3600 91.4122
L166.3600 91.6278
" />
<path d="M170.8264 84.1200
L171.1336 84.1200
" />
<path d="M170.8264 84.8800
L171.1336 84.8800
" />
<path d="M167.6500 88.1078
L167.6500 87.8922
" />
<path d="M168.3700 88.1078
L168.3700 87.8922
" />
</g> 
</svg>
