<?xml version="1.0" standalone="no"?>
 <!DOCTYPE svg PUBLIC "-//W3C//DTD SVG 1.1//EN" 
 "http://www.w3.org/Graphics/SVG/1.1/DTD/svg11.dtd"> 
<svg
  xmlns:svg="http://www.w3.org/2000/svg"
  xmlns="http://www.w3.org/2000/svg"
  xmlns:xlink="http://www.w3.org/1999/xlink"
  version="1.1"
  width="297.0022mm" height="210.0072mm" viewBox="0.0000 0.0000 297.0022 210.0072">
<title>SVG Image created as RelaySwitch_C6-F_Silkscreen.svg date 2026/03/09 13:05:11 </title>
  <desc>Image generated by PCBNEW </desc>
<g style="fill:#000000; fill-opacity:1.0000;stroke:#000000; stroke-opacity:1.0000;
stroke-linecap:round; stroke-linejoin:round;"
 transform="translate(0 0) scale(1 1)">
</g>
<g style="fill:none; 
stroke:#000000; stroke-width:0.1000; stroke-opacity:1; 
stroke-linecap:round; stroke-linejoin:round;">
<g transform="rotate(-90.000000 152.0000 55.5000)">
<text x="152.0000" y="55.5000"
textLength="0.8086" font-size="0.8000" lengthAdjust="spacingAndGlyphs"
text-anchor="start" opacity="0" stroke-opacity="0">N</text>
</g>
<g class="stroked-text"><desc>N</desc>
<path d="M151.9214 55.2914
L151.3214 55.2914
" />
<path d="M151.3214 55.2914
L151.9214 54.9485
" />
<path d="M151.9214 54.9485
L151.3214 54.9485
" />
</g><path style="fill:#000000; fill-opacity:1.0000; stroke:none;fill-rule:evenodd;"
d="M 178.7379,69.6288
178.7296,69.6708
178.7076,69.7015
178.6748,69.7194
178.6364,69.7250
178.5216,69.7250
178.4596,69.7179
178.4347,69.7081
178.4114,69.6923
178.3689,69.6418
178.3228,69.5579
177.9929,68.9416
177.9344,68.8229
177.8812,68.6992
177.8791,68.6992
177.8852,68.8456
177.8873,68.9961
177.8873,69.6870
177.8817,69.7054
177.8622,69.7191
177.8248,69.7277
177.7643,69.7309
177.7049,69.7277
177.6680,69.7191
177.6496,69.7053
177.6444,69.6868
177.6444,68.4964
177.6520,68.4531
177.6726,68.4243
177.7035,68.4064
177.7418,68.4002
177.8863,68.4002
177.9518,68.4069
177.9994,68.4289
178.0389,68.4714
178.0769,68.5379
178.3351,69.0202
178.3796,69.1064
178.4222,69.1910
178.4622,69.2742
178.5001,69.3557
178.5011,69.3557
178.4965,69.2066
178.4950,69.0584
178.4950,68.4383
178.5011,68.4199
178.5216,68.4056
178.5595,68.3969
178.6200,68.3944
178.6784,68.3969
178.7148,68.4056
178.7327,68.4200
178.7379,68.4384
Z" /> 
<path style="fill:#000000; fill-opacity:1.0000; stroke:none;fill-rule:evenodd;"
d="M 179.4895,68.7225
179.5700,68.7378
179.6410,68.7652
179.6955,68.8024
179.7376,68.8516
179.7672,68.9147
179.7837,68.9870
179.7898,69.0777
179.7898,69.6929
179.7795,69.7156
179.7472,69.7273
179.6822,69.7309
179.6150,69.7273
179.5853,69.7156
179.5766,69.6929
179.5766,69.6202
179.5161,69.6742
179.4480,69.7146
179.3728,69.7398
179.2877,69.7484
179.2168,69.7435
179.1540,69.7294
179.0965,69.7055
179.0483,69.6730
179.0090,69.6313
178.9792,69.5801
178.9611,69.5217
178.9546,69.4508
178.9554,69.4440
179.2067,69.4440
179.2162,69.4961
179.2431,69.5340
179.2847,69.5580
179.3440,69.5667
179.3963,69.5598
179.4439,69.5392
179.4882,69.5066
179.5367,69.4584
179.5367,69.3029
179.4383,69.3029
179.3781,69.3055
179.3317,69.3122
179.2904,69.3242
179.2600,69.3398
179.2357,69.3605
179.2195,69.3843
179.2100,69.4117
179.2067,69.4440
178.9554,69.4440
178.9628,69.3744
178.9859,69.3117
179.0243,69.2584
179.0791,69.2143
179.1462,69.1817
179.2334,69.1573
179.3294,69.1438
179.4476,69.1388
179.5367,69.1388
179.5367,69.0829
179.5280,69.0069
179.5163,68.9766
179.4993,68.9526
179.4766,68.9341
179.4460,68.9206
179.4106,68.9130
179.3635,68.9102
179.3010,68.9141
179.2483,68.9249
179.1586,68.9571
179.0935,68.9894
179.0681,69.0009
179.0510,69.0040
179.0310,68.9969
179.0167,68.9767
179.0080,68.9443
179.0049,68.9018
179.0101,68.8522
179.0295,68.8193
179.0797,68.7864
179.1638,68.7524
179.2687,68.7267
179.3860,68.7168
Z" /> 
<path style="fill:#000000; fill-opacity:1.0000; stroke:none;fill-rule:evenodd;"
d="M 180.8591,68.7744
180.8586,68.7866
180.8565,68.8026
180.8524,68.8226
180.8458,68.8481
180.5711,69.6755
180.5573,69.7037
180.5286,69.7206
180.4743,69.7288
180.3847,69.7309
180.2960,69.7283
180.2421,69.7196
180.2140,69.7027
180.2002,69.6755
179.9256,68.8481
179.9158,68.8113
179.9117,68.7877
179.9112,68.7744
179.9168,68.7564
179.9368,68.7436
179.9763,68.7365
180.0393,68.7344
180.1070,68.7369
180.1474,68.7442
180.1684,68.7574
180.1787,68.7784
180.3867,69.4500
180.3928,69.4756
180.3989,69.4500
180.6039,68.7784
180.6136,68.7574
180.6346,68.7442
180.6731,68.7369
180.7361,68.7344
180.7981,68.7365
180.8355,68.7436
180.8540,68.7564
Z" /> 
<path style="fill:#000000; fill-opacity:1.0000; stroke:none;fill-rule:evenodd;"
d="M 181.2696,69.6898
181.2635,69.7078
181.2424,69.7206
181.2029,69.7283
181.1406,69.7309
181.0780,69.7283
181.0385,69.7206
181.0176,69.7078
181.0114,69.6898
181.0114,68.7774
181.0176,68.7594
181.0385,68.7462
181.0780,68.7375
181.1406,68.7344
181.2029,68.7375
181.2424,68.7462
181.2635,68.7594
181.2696,68.7774
Z" /> 
<path style="fill:#000000; fill-opacity:1.0000; stroke:none;fill-rule:evenodd;"
d="M 181.2890,68.4686
181.2847,68.5194
181.2735,68.5536
181.2572,68.5758
181.2172,68.5966
181.1395,68.6054
181.0608,68.5967
181.0221,68.5768
181.0007,68.5407
180.9919,68.4736
181.0010,68.4037
181.0231,68.3659
181.0463,68.3508
181.0837,68.3400
181.1415,68.3357
181.2192,68.3445
181.2583,68.3649
181.2801,68.4014
Z" /> 
<path style="fill:#000000; fill-opacity:1.0000; stroke:none;fill-rule:evenodd;"
d="M 183.0494,69.6879
183.0427,69.7063
183.0207,69.7196
182.9797,69.7277
182.9152,69.7309
182.8491,69.7277
182.8081,69.7196
182.7865,69.7062
182.7799,69.6877
182.7799,69.1505
182.2840,69.1505
182.2840,69.6877
182.2778,69.7062
182.2563,69.7196
182.2153,69.7277
182.1497,69.7309
182.0846,69.7277
182.0431,69.7196
182.0210,69.7063
182.0144,69.6879
182.0144,68.4373
182.0210,68.4190
182.0431,68.4056
182.0846,68.3975
182.1497,68.3944
182.2153,68.3975
182.2563,68.4056
182.2778,68.4189
182.2840,68.4372
182.2840,68.9219
182.7799,68.9219
182.7799,68.4372
182.7865,68.4189
182.8081,68.4056
182.8491,68.3975
182.9152,68.3944
182.9797,68.3975
183.0207,68.4056
183.0427,68.4190
183.0494,68.4373
Z" /> 
<path style="fill:#000000; fill-opacity:1.0000; stroke:none;fill-rule:evenodd;"
d="M 183.8878,68.7256
183.9827,68.7501
184.0660,68.7918
184.1318,68.8481
184.1826,68.9189
184.2195,69.0070
184.2406,69.1053
184.2482,69.2234
184.2402,69.3371
184.2174,69.4368
184.1783,69.5272
184.1241,69.6028
184.0545,69.6640
183.9673,69.7105
183.8682,69.7384
183.7471,69.7484
183.6299,69.7395
183.5349,69.7146
183.4516,69.6725
183.3854,69.6162
183.3342,69.5452
183.2973,69.4572
183.2761,69.3590
183.2686,69.2419
183.2693,69.2316
183.5339,69.2316
183.5369,69.2978
183.5452,69.3562
183.5603,69.4104
183.5816,69.4551
183.6111,69.4924
183.6497,69.5202
183.6961,69.5371
183.7563,69.5433
183.8121,69.5378
183.8577,69.5223
183.8968,69.4966
183.9284,69.4613
183.9520,69.4182
183.9694,69.3644
183.9792,69.3053
183.9827,69.2346
183.9799,69.1685
183.9719,69.1101
183.9571,69.0559
183.9356,69.0111
183.9057,68.9737
183.8674,68.9456
183.8213,68.9283
183.7603,68.9219
183.7054,68.9274
183.6600,68.9430
183.6209,68.9688
183.5892,69.0045
183.5655,69.0480
183.5478,69.1019
183.5376,69.1609
183.5339,69.2316
183.2693,69.2316
183.2767,69.1281
183.2998,69.0280
183.3394,68.9371
183.3935,68.8619
183.4631,68.8011
183.5499,68.7548
183.6487,68.7268
183.7697,68.7168
Z" /> 
<path style="fill:#000000; fill-opacity:1.0000; stroke:none;fill-rule:evenodd;"
d="M 185.9063,69.6898
185.9002,69.7078
185.8797,69.7206
185.8407,69.7283
185.7783,69.7309
185.7146,69.7283
185.6752,69.7206
185.6547,69.7078
185.6491,69.6897
185.6491,69.1461
185.6404,69.0618
185.6291,69.0257
185.6138,68.9966
185.5934,68.9723
185.5686,68.9544
185.5396,68.9434
185.5036,68.9395
185.4588,68.9479
185.4104,68.9755
185.3638,69.0169
185.3079,69.0803
185.3079,69.6897
185.3017,69.7078
185.2807,69.7206
185.2412,69.7283
185.1798,69.7309
185.1173,69.7283
185.0778,69.7206
185.0568,69.7078
185.0507,69.6897
185.0507,69.1461
185.0420,69.0618
185.0308,69.0257
185.0158,68.9966
184.9957,68.9723
184.9707,68.9544
184.9414,68.9434
184.9062,68.9395
184.8605,68.9480
184.8119,68.9755
184.7656,69.0170
184.7105,69.0803
184.7105,69.6897
184.7044,69.7078
184.6833,69.7206
184.6438,69.7283
184.5815,69.7309
184.5189,69.7283
184.4794,69.7206
184.4584,69.7078
184.4523,69.6898
184.4523,68.7754
184.4574,68.7574
184.4758,68.7446
184.5102,68.7369
184.5630,68.7344
184.6173,68.7369
184.6505,68.7446
184.6675,68.7574
184.6726,68.7754
184.6726,68.8810
184.7509,68.8070
184.8237,68.7578
184.9012,68.7269
184.9811,68.7168
185.0358,68.7199
185.0825,68.7286
185.1256,68.7432
185.1629,68.7625
185.1959,68.7868
185.2239,68.8153
185.2669,68.8840
185.3473,68.8081
185.4252,68.7563
185.5020,68.7266
185.5804,68.7168
185.6671,68.7250
185.7341,68.7475
185.7910,68.7842
185.8351,68.8312
185.8676,68.8876
185.8899,68.9547
185.9021,69.0267
185.9063,69.1044
Z" /> 
<path style="fill:#000000; fill-opacity:1.0000; stroke:none;fill-rule:evenodd;"
d="M 186.6822,68.7258
186.7686,68.7506
186.8437,68.7915
186.9024,68.8443
186.9474,68.9090
186.9792,68.9860
186.9975,69.0701
187.0039,69.1640
187.0039,69.2049
186.9980,69.2478
186.9828,69.2746
186.9585,69.2912
186.9250,69.2971
186.3686,69.2971
186.3722,69.3546
186.3824,69.4043
186.4006,69.4493
186.4265,69.4861
186.4605,69.5154
186.5043,69.5374
186.5547,69.5503
186.6186,69.5550
186.6842,69.5523
186.7374,69.5450
186.8261,69.5228
186.8880,69.5006
186.9280,69.4905
186.9434,69.4942
186.9536,69.5071
186.9592,69.5335
186.9608,69.5763
186.9598,69.6152
186.9567,69.6426
186.9505,69.6617
186.9397,69.6767
186.9034,69.6961
186.8275,69.7198
186.7220,69.7398
186.5950,69.7484
186.4775,69.7403
186.3813,69.7177
186.2963,69.6784
186.2282,69.6243
186.1753,69.5549
186.1365,69.4664
186.1143,69.3665
186.1063,69.2429
186.1140,69.1330
186.3686,69.1330
186.7538,69.1330
186.7498,69.0613
186.7347,69.0051
186.7103,68.9610
186.6749,68.9272
186.6281,68.9061
186.5663,68.8985
186.5193,68.9034
186.4808,68.9171
186.4474,68.9390
186.4203,68.9672
186.3993,69.0010
186.3834,69.0415
186.3734,69.0854
186.3686,69.1330
186.1140,69.1330
186.1146,69.1245
186.1380,69.0230
186.1777,68.9312
186.2303,68.8568
186.2970,68.7968
186.3773,68.7527
186.4676,68.7261
186.5725,68.7168
Z" /> 
<path style="fill:#000000; fill-opacity:1.0000; stroke:none;fill-rule:evenodd;"
d="M 187.4744,69.6899
187.4682,69.7079
187.4472,69.7206
187.4077,69.7283
187.3453,69.7309
187.2827,69.7283
187.2433,69.7206
187.2223,69.7079
187.2162,69.6899
187.2162,68.3445
187.2223,68.3262
187.2433,68.3124
187.2827,68.3037
187.3453,68.3006
187.4077,68.3037
187.4472,68.3124
187.4682,68.3262
187.4744,68.3445
Z" /> 
<path style="fill:#000000; fill-opacity:1.0000; stroke:none;fill-rule:evenodd;"
d="M 188.2090,68.7225
188.2894,68.7378
188.3605,68.7652
188.4150,68.8024
188.4571,68.8516
188.4867,68.9147
188.5032,68.9870
188.5092,69.0777
188.5092,69.6929
188.4990,69.7156
188.4667,69.7273
188.4016,69.7309
188.3345,69.7273
188.3048,69.7156
188.2961,69.6929
188.2961,69.6202
188.2355,69.6742
188.1675,69.7146
188.0923,69.7398
188.0071,69.7484
187.9363,69.7435
187.8734,69.7294
187.8159,69.7055
187.7678,69.6730
187.7284,69.6313
187.6987,69.5801
187.6806,69.5217
187.6741,69.4508
187.6748,69.4440
187.9262,69.4440
187.9357,69.4961
187.9625,69.5340
188.0041,69.5580
188.0635,69.5667
188.1157,69.5598
188.1634,69.5392
188.2077,69.5066
188.2562,69.4584
188.2562,69.3029
188.1578,69.3029
188.0976,69.3055
188.0512,69.3122
188.0098,69.3242
187.9795,69.3398
187.9552,69.3605
187.9390,69.3843
187.9295,69.4117
187.9262,69.4440
187.6748,69.4440
187.6823,69.3744
187.7054,69.3117
187.7438,69.2584
187.7986,69.2143
187.8656,69.1817
187.9528,69.1573
188.0488,69.1438
188.1671,69.1388
188.2562,69.1388
188.2562,69.0829
188.2475,69.0069
188.2357,68.9766
188.2188,68.9526
188.1961,68.9341
188.1655,68.9206
188.1301,68.9130
188.0830,68.9102
188.0205,68.9141
187.9678,68.9249
187.8781,68.9571
187.8130,68.9894
187.7876,69.0009
187.7705,69.0040
187.7505,68.9969
187.7361,68.9767
187.7274,68.9443
187.7244,68.9018
187.7295,68.8522
187.7489,68.8193
187.7991,68.7864
187.8832,68.7524
187.9882,68.7267
188.1055,68.7168
Z" /> 
<path style="fill:#000000; fill-opacity:1.0000; stroke:none;fill-rule:evenodd;"
d="M 188.9581,68.3037
188.9976,68.3123
189.0187,68.3260
189.0248,68.3444
189.0248,68.8470
189.0944,68.7876
189.1641,68.7471
189.2358,68.7240
189.3138,68.7168
189.3804,68.7216
189.4372,68.7354
189.4859,68.7573
189.5500,68.8048
189.6012,68.8665
189.6392,68.9396
189.6662,69.0270
189.6815,69.1203
189.6867,69.2203
189.6798,69.3388
189.6601,69.4398
189.6267,69.5318
189.5832,69.6059
189.5270,69.6669
189.4598,69.7115
189.3828,69.7389
189.2933,69.7484
189.2072,69.7397
189.1309,69.7115
189.0592,69.6624
188.9869,69.5905
188.9869,69.6899
188.9812,69.7089
188.9628,69.7216
188.9285,69.7288
188.8763,69.7309
188.8235,69.7288
188.7897,69.7217
188.7717,69.7089
188.7666,69.6899
188.7666,69.0829
189.0248,69.0829
189.0248,69.3865
189.0805,69.4516
189.1288,69.4946
189.1805,69.5226
189.2328,69.5316
189.2800,69.5249
189.3178,69.5059
189.3494,69.4768
189.3757,69.4392
189.3953,69.3961
189.4090,69.3459
189.4193,69.2412
189.4106,69.1284
189.3984,69.0761
189.3804,69.0319
189.3553,68.9936
189.3245,68.9647
189.2868,68.9461
189.2379,68.9395
189.1877,68.9466
189.1370,68.9708
189.0832,69.0153
189.0248,69.0829
188.7666,69.0829
188.7666,68.3445
188.7728,68.3262
188.7937,68.3124
188.8332,68.3037
188.8958,68.3006
Z" /> 
<path style="fill:#000000; fill-opacity:1.0000; stroke:none;fill-rule:evenodd;"
d="M 178.4704,71.2944
178.4699,71.3066
178.4678,71.3226
178.4637,71.3426
178.4571,71.3681
178.1824,72.1955
178.1686,72.2237
178.1399,72.2406
178.0856,72.2488
177.9960,72.2509
177.9073,72.2483
177.8534,72.2396
177.8253,72.2227
177.8115,72.1955
177.5369,71.3681
177.5271,71.3313
177.5230,71.3077
177.5225,71.2944
177.5281,71.2764
177.5481,71.2636
177.5876,71.2565
177.6506,71.2544
177.7183,71.2569
177.7587,71.2642
177.7797,71.2774
177.7900,71.2984
177.9980,71.9700
178.0041,71.9956
178.0103,71.9700
178.2152,71.2984
178.2249,71.2774
178.2459,71.2642
178.2844,71.2569
178.3474,71.2544
178.4094,71.2565
178.4468,71.2636
178.4653,71.2764
Z" /> 
<path style="fill:#000000; fill-opacity:1.0000; stroke:none;fill-rule:evenodd;"
d="M 179.4609,72.1440
179.4578,72.1920
179.4491,72.2233
179.4362,72.2400
179.4198,72.2450
178.6882,72.2450
178.6728,72.2400
178.6600,72.2233
178.6513,72.1920
178.6483,72.1440
178.6508,72.0950
178.6590,72.0631
178.6718,72.0454
178.6882,72.0398
178.9352,72.0398
178.9352,71.1723
178.7221,71.2895
178.6836,71.3034
178.6700,71.3030
178.6601,71.2972
178.6483,71.2671
178.6453,71.2068
178.6463,71.1664
178.6514,71.1394
178.6627,71.1210
178.6822,71.1056
178.9670,70.9218
178.9798,70.9152
178.9998,70.9111
179.0320,70.9091
179.0838,70.9085
179.1468,70.9101
179.1832,70.9152
179.1996,70.9250
179.2037,70.9404
179.2037,72.0398
179.4199,72.0398
179.4368,72.0454
179.4501,72.0631
179.4583,72.0950
Z" /> 
<path style="fill:#000000; fill-opacity:1.0000; stroke:none;fill-rule:evenodd;"
d="M 179.9899,72.0959
179.9851,72.1590
179.9732,72.1994
179.9566,72.2239
179.9320,72.2406
179.8940,72.2522
179.8372,72.2567
179.7804,72.2522
179.7426,72.2408
179.7183,72.2245
179.7018,72.2004
179.6902,72.1616
179.6855,72.1020
179.6903,72.0382
179.7023,71.9975
179.7189,71.9730
179.7435,71.9563
179.7819,71.9447
179.8393,71.9402
179.8954,71.9447
179.9329,71.9561
179.9571,71.9725
179.9736,71.9966
179.9853,72.0356
Z" /> 
<path style="fill:#000000; fill-opacity:1.0000; stroke:none;fill-rule:evenodd;"
d="M 180.7524,70.9025
180.8269,70.9185
180.8883,70.9434
180.9440,70.9790
180.9911,71.0235
181.0303,71.0775
181.0735,71.1716
181.1030,71.2914
181.1181,71.4220
181.1235,71.5775
181.1168,71.7321
181.0979,71.8641
181.0632,71.9853
181.0144,72.0822
180.9717,72.1378
180.9217,72.1837
180.8638,72.2204
180.8002,72.2462
180.7253,72.2626
180.6368,72.2684
180.5468,72.2627
180.4726,72.2467
180.4114,72.2219
180.3561,72.1863
180.3092,72.1418
180.2700,72.0878
180.2266,71.9937
180.1967,71.8739
180.1813,71.7432
180.1757,71.5877
180.1764,71.5720
180.4472,71.5720
180.4503,71.7070
180.4585,71.8056
180.4740,71.8930
180.4938,71.9529
180.5226,72.0009
180.5558,72.0296
180.5965,72.0458
180.6471,72.0516
180.6855,72.0482
180.7177,72.0388
180.7464,72.0229
180.7715,72.0005
180.7922,71.9724
180.8099,71.9361
180.8350,71.8460
180.8484,71.7305
180.8520,71.5884
180.8468,71.4222
180.8309,71.2970
180.8042,71.2070
180.7861,71.1730
180.7659,71.1482
180.7417,71.1293
180.7147,71.1171
180.6511,71.1078
180.5946,71.1155
180.5512,71.1369
180.5169,71.1720
180.4887,71.2244
180.4698,71.2866
180.4564,71.3696
180.4472,71.5720
180.1764,71.5720
180.1826,71.4340
180.2018,71.3017
180.2370,71.1800
180.2859,71.0832
180.3287,71.0274
180.3787,70.9816
180.4365,70.9450
180.5001,70.9190
180.5747,70.9026
180.6625,70.8968
Z" /> 
</g>
<g style="fill:none; 
stroke:#000000; stroke-width:0.1000; stroke-opacity:1; 
stroke-linecap:round; stroke-linejoin:round;">
<g transform="rotate(-90.000000 152.0000 62.5000)">
<text x="152.0000" y="62.5000"
textLength="1.2371" font-size="0.8000" lengthAdjust="spacingAndGlyphs"
text-anchor="start" opacity="0" stroke-opacity="0">L1</text>
</g>
<g class="stroked-text"><desc>L1</desc>
<path d="M151.9214 62.0056
L151.9214 62.2914
" />
<path d="M151.9214 62.2914
L151.3214 62.2914
" />
<path d="M151.9214 61.4914
L151.9214 61.8342
" />
<path d="M151.9214 61.6628
L151.3214 61.6628
" />
<path d="M151.3214 61.6628
L151.4071 61.7199
" />
<path d="M151.4071 61.7199
L151.4642 61.7771
" />
<path d="M151.4642 61.7771
L151.4928 61.8342
" />
</g><g transform="rotate(-90.000000 152.0000 51.5000)">
<text x="152.0000" y="51.5000"
textLength="0.7229" font-size="0.8000" lengthAdjust="spacingAndGlyphs"
text-anchor="start" opacity="0" stroke-opacity="0">E</text>
</g>
<g class="stroked-text"><desc>E</desc>
<path d="M151.6071 51.2914
L151.6071 51.0914
" />
<path d="M151.9214 51.0056
L151.9214 51.2914
" />
<path d="M151.9214 51.2914
L151.3214 51.2914
" />
<path d="M151.3214 51.2914
L151.3214 51.0056
" />
</g><g transform="rotate(-90.000000 152.0000 69.5000)">
<text x="152.0000" y="69.5000"
textLength="1.2371" font-size="0.8000" lengthAdjust="spacingAndGlyphs"
text-anchor="start" opacity="0" stroke-opacity="0">L2</text>
</g>
<g class="stroked-text"><desc>L2</desc>
<path d="M151.9214 69.0056
L151.9214 69.2914
" />
<path d="M151.9214 69.2914
L151.3214 69.2914
" />
<path d="M151.3785 68.8342
L151.3499 68.8056
" />
<path d="M151.3499 68.8056
L151.3214 68.7485
" />
<path d="M151.3214 68.7485
L151.3214 68.6056
" />
<path d="M151.3214 68.6056
L151.3499 68.5485
" />
<path d="M151.3499 68.5485
L151.3785 68.5199
" />
<path d="M151.3785 68.5199
L151.4357 68.4914
" />
<path d="M151.4357 68.4914
L151.4928 68.4914
" />
<path d="M151.4928 68.4914
L151.5785 68.5199
" />
<path d="M151.5785 68.5199
L151.9214 68.8628
" />
<path d="M151.9214 68.8628
L151.9214 68.4914
" />
</g><g transform="rotate(-90.000000 152.0000 66.0000)">
<text x="152.0000" y="66.0000"
textLength="0.8086" font-size="0.8000" lengthAdjust="spacingAndGlyphs"
text-anchor="start" opacity="0" stroke-opacity="0">N</text>
</g>
<g class="stroked-text"><desc>N</desc>
<path d="M151.9214 65.7914
L151.3214 65.7914
" />
<path d="M151.3214 65.7914
L151.9214 65.4485
" />
<path d="M151.9214 65.4485
L151.3214 65.4485
" />
</g><g transform="rotate(-90.000000 152.0000 73.0000)">
<text x="152.0000" y="73.0000"
textLength="0.8086" font-size="0.8000" lengthAdjust="spacingAndGlyphs"
text-anchor="start" opacity="0" stroke-opacity="0">N</text>
</g>
<g class="stroked-text"><desc>N</desc>
<path d="M151.9214 72.7914
L151.3214 72.7914
" />
<path d="M151.3214 72.7914
L151.9214 72.4485
" />
<path d="M151.9214 72.4485
L151.3214 72.4485
" />
</g></g>
<g style="fill:none; 
stroke:#000000; stroke-width:0.1500; stroke-opacity:1; 
stroke-linecap:round; stroke-linejoin:round;">
<g transform="rotate(-90.000000 152.0000 59.5000)">
<text x="152.0000" y="59.5000"
textLength="0.8157" font-size="0.8000" lengthAdjust="spacingAndGlyphs"
text-anchor="start" opacity="0" stroke-opacity="0">L</text>
</g>
<g class="stroked-text"><desc>L</desc>
<path d="M151.9188 58.9727
L151.9188 59.2585
" />
<path d="M151.9188 59.2585
L151.3188 59.2585
" />
</g><text x="179.5000" y="56.8937"
textLength="1.8673" font-size="1.0499" lengthAdjust="spacingAndGlyphs"
text-anchor="middle" opacity="0" stroke-opacity="0">U1</text>
<g class="stroked-text"><desc>U1</desc>
<path d="M178.9001 56.0691
L178.9001 56.7065
" />
<path d="M178.9001 56.7065
L178.9376 56.7815
" />
<path d="M178.9376 56.7815
L178.9751 56.8190
" />
<path d="M178.9751 56.8190
L179.0501 56.8565
" />
<path d="M179.0501 56.8565
L179.2000 56.8565
" />
<path d="M179.2000 56.8565
L179.2750 56.8190
" />
<path d="M179.2750 56.8190
L179.3125 56.7815
" />
<path d="M179.3125 56.7815
L179.3500 56.7065
" />
<path d="M179.3500 56.7065
L179.3500 56.0691
" />
<path d="M180.1374 56.8565
L179.6875 56.8565
" />
<path d="M179.9124 56.8565
L179.9124 56.0691
" />
<path d="M179.9124 56.0691
L179.8375 56.1816
" />
<path d="M179.8375 56.1816
L179.7625 56.2565
" />
<path d="M179.7625 56.2565
L179.6875 56.2940
" />
</g><text x="181.2000" y="59.2937"
textLength="6.6667" font-size="1.0499" lengthAdjust="spacingAndGlyphs"
text-anchor="middle" opacity="0" stroke-opacity="0">HLK-2M05</text>
<g class="stroked-text"><desc>HLK-2M05</desc>
<path d="M178.2004 59.2565
L178.2004 58.4691
" />
<path d="M178.2004 58.8440
L178.6503 58.8440
" />
<path d="M178.6503 59.2565
L178.6503 58.4691
" />
<path d="M179.4002 59.2565
L179.0253 59.2565
" />
<path d="M179.0253 59.2565
L179.0253 58.4691
" />
<path d="M179.6627 59.2565
L179.6627 58.4691
" />
<path d="M180.1126 59.2565
L179.7752 58.8065
" />
<path d="M180.1126 58.4691
L179.6627 58.9190
" />
<path d="M180.4501 58.9565
L181.0500 58.9565
" />
<path d="M181.3875 58.5441
L181.4250 58.5066
" />
<path d="M181.4250 58.5066
L181.5000 58.4691
" />
<path d="M181.5000 58.4691
L181.6874 58.4691
" />
<path d="M181.6874 58.4691
L181.7624 58.5066
" />
<path d="M181.7624 58.5066
L181.7999 58.5441
" />
<path d="M181.7999 58.5441
L181.8374 58.6190
" />
<path d="M181.8374 58.6190
L181.8374 58.6940
" />
<path d="M181.8374 58.6940
L181.7999 58.8065
" />
<path d="M181.7999 58.8065
L181.3500 59.2565
" />
<path d="M181.3500 59.2565
L181.8374 59.2565
" />
<path d="M182.1749 59.2565
L182.1749 58.4691
" />
<path d="M182.1749 58.4691
L182.4373 59.0315
" />
<path d="M182.4373 59.0315
L182.6998 58.4691
" />
<path d="M182.6998 58.4691
L182.6998 59.2565
" />
<path d="M183.2247 58.4691
L183.2997 58.4691
" />
<path d="M183.2997 58.4691
L183.3747 58.5066
" />
<path d="M183.3747 58.5066
L183.4122 58.5441
" />
<path d="M183.4122 58.5441
L183.4497 58.6190
" />
<path d="M183.4497 58.6190
L183.4872 58.7690
" />
<path d="M183.4872 58.7690
L183.4872 58.9565
" />
<path d="M183.4872 58.9565
L183.4497 59.1065
" />
<path d="M183.4497 59.1065
L183.4122 59.1815
" />
<path d="M183.4122 59.1815
L183.3747 59.2190
" />
<path d="M183.3747 59.2190
L183.2997 59.2565
" />
<path d="M183.2997 59.2565
L183.2247 59.2565
" />
<path d="M183.2247 59.2565
L183.1498 59.2190
" />
<path d="M183.1498 59.2190
L183.1123 59.1815
" />
<path d="M183.1123 59.1815
L183.0748 59.1065
" />
<path d="M183.0748 59.1065
L183.0373 58.9565
" />
<path d="M183.0373 58.9565
L183.0373 58.7690
" />
<path d="M183.0373 58.7690
L183.0748 58.6190
" />
<path d="M183.0748 58.6190
L183.1123 58.5441
" />
<path d="M183.1123 58.5441
L183.1498 58.5066
" />
<path d="M183.1498 58.5066
L183.2247 58.4691
" />
<path d="M184.1996 58.4691
L183.8247 58.4691
" />
<path d="M183.8247 58.4691
L183.7872 58.8440
" />
<path d="M183.7872 58.8440
L183.8247 58.8065
" />
<path d="M183.8247 58.8065
L183.8997 58.7690
" />
<path d="M183.8997 58.7690
L184.0871 58.7690
" />
<path d="M184.0871 58.7690
L184.1621 58.8065
" />
<path d="M184.1621 58.8065
L184.1996 58.8440
" />
<path d="M184.1996 58.8440
L184.2371 58.9190
" />
<path d="M184.2371 58.9190
L184.2371 59.1065
" />
<path d="M184.2371 59.1065
L184.1996 59.1815
" />
<path d="M184.1996 59.1815
L184.1621 59.2190
" />
<path d="M184.1621 59.2190
L184.0871 59.2565
" />
<path d="M184.0871 59.2565
L183.8997 59.2565
" />
<path d="M183.8997 59.2565
L183.8247 59.2190
" />
<path d="M183.8247 59.2190
L183.7872 59.1815
" />
</g><g transform="rotate(-90.000000 151.5000 78.5000)">
<text x="151.5000" y="79.0000"
textLength="1.9643" font-size="1.3333" lengthAdjust="spacingAndGlyphs"
text-anchor="middle" opacity="0" stroke-opacity="0">J4</text>
</g>
<g class="stroked-text"><desc>J4</desc>
<path d="M150.9548 78.8333
L151.6691 78.8333
" />
<path d="M151.6691 78.8333
L151.8120 78.8810
" />
<path d="M151.8120 78.8810
L151.9072 78.9762
" />
<path d="M151.9072 78.9762
L151.9548 79.1190
" />
<path d="M151.9548 79.1190
L151.9548 79.2143
" />
<path d="M151.2882 77.9286
L151.9548 77.9286
" />
<path d="M150.9072 78.1667
L151.6215 78.4048
" />
<path d="M151.6215 78.4048
L151.6215 77.7857
" />
</g><g transform="rotate(-90.000000 151.5000 96.7500)">
<text x="151.5000" y="97.2500"
textLength="1.9643" font-size="1.3333" lengthAdjust="spacingAndGlyphs"
text-anchor="middle" opacity="0" stroke-opacity="0">J6</text>
</g>
<g class="stroked-text"><desc>J6</desc>
<path d="M150.9548 97.0833
L151.6691 97.0833
" />
<path d="M151.6691 97.0833
L151.8120 97.1310
" />
<path d="M151.8120 97.1310
L151.9072 97.2262
" />
<path d="M151.9072 97.2262
L151.9548 97.3690
" />
<path d="M151.9548 97.3690
L151.9548 97.4643
" />
<path d="M150.9548 96.1786
L150.9548 96.3690
" />
<path d="M150.9548 96.3690
L151.0024 96.4643
" />
<path d="M151.0024 96.4643
L151.0501 96.5119
" />
<path d="M151.0501 96.5119
L151.1929 96.6071
" />
<path d="M151.1929 96.6071
L151.3834 96.6548
" />
<path d="M151.3834 96.6548
L151.7643 96.6548
" />
<path d="M151.7643 96.6548
L151.8596 96.6071
" />
<path d="M151.8596 96.6071
L151.9072 96.5595
" />
<path d="M151.9072 96.5595
L151.9548 96.4643
" />
<path d="M151.9548 96.4643
L151.9548 96.2738
" />
<path d="M151.9548 96.2738
L151.9072 96.1786
" />
<path d="M151.9072 96.1786
L151.8596 96.1310
" />
<path d="M151.8596 96.1310
L151.7643 96.0833
" />
<path d="M151.7643 96.0833
L151.5262 96.0833
" />
<path d="M151.5262 96.0833
L151.4310 96.1310
" />
<path d="M151.4310 96.1310
L151.3834 96.1786
" />
<path d="M151.3834 96.1786
L151.3358 96.2738
" />
<path d="M151.3358 96.2738
L151.3358 96.4643
" />
<path d="M151.3358 96.4643
L151.3834 96.5595
" />
<path d="M151.3834 96.5595
L151.4310 96.6071
" />
<path d="M151.4310 96.6071
L151.5262 96.6548
" />
</g><text x="164.0000" y="79.5000"
textLength="2.2024" font-size="1.3333" lengthAdjust="spacingAndGlyphs"
text-anchor="middle" opacity="0" stroke-opacity="0">K1</text>
<g class="stroked-text"><desc>K1</desc>
<path d="M163.2619 79.4548
L163.2619 78.4548
" />
<path d="M163.8333 79.4548
L163.4048 78.8834
" />
<path d="M163.8333 78.4548
L163.2619 79.0262
" />
<path d="M164.7857 79.4548
L164.2143 79.4548
" />
<path d="M164.5000 79.4548
L164.5000 78.4548
" />
<path d="M164.5000 78.4548
L164.4048 78.5977
" />
<path d="M164.4048 78.5977
L164.3095 78.6929
" />
<path d="M164.3095 78.6929
L164.2143 78.7405
" />
</g><text x="158.6800" y="101.5000"
textLength="2.2024" font-size="1.3333" lengthAdjust="spacingAndGlyphs"
text-anchor="middle" opacity="0" stroke-opacity="0">K2</text>
<g class="stroked-text"><desc>K2</desc>
<path d="M157.9419 101.4548
L157.9419 100.4548
" />
<path d="M158.5133 101.4548
L158.0848 100.8834
" />
<path d="M158.5133 100.4548
L157.9419 101.0262
" />
<path d="M158.8943 100.5501
L158.9419 100.5024
" />
<path d="M158.9419 100.5024
L159.0371 100.4548
" />
<path d="M159.0371 100.4548
L159.2752 100.4548
" />
<path d="M159.2752 100.4548
L159.3705 100.5024
" />
<path d="M159.3705 100.5024
L159.4181 100.5501
" />
<path d="M159.4181 100.5501
L159.4657 100.6453
" />
<path d="M159.4657 100.6453
L159.4657 100.7405
" />
<path d="M159.4657 100.7405
L159.4181 100.8834
" />
<path d="M159.4181 100.8834
L158.8467 101.4548
" />
<path d="M158.8467 101.4548
L159.4657 101.4548
" />
</g><g transform="rotate(-90.000000 151.5000 68.5000)">
<text x="151.5000" y="69.0000"
textLength="1.9643" font-size="1.3333" lengthAdjust="spacingAndGlyphs"
text-anchor="middle" opacity="0" stroke-opacity="0">J3</text>
</g>
<g class="stroked-text"><desc>J3</desc>
<path d="M150.9548 68.8333
L151.6691 68.8333
" />
<path d="M151.6691 68.8333
L151.8120 68.8810
" />
<path d="M151.8120 68.8810
L151.9072 68.9762
" />
<path d="M151.9072 68.9762
L151.9548 69.1190
" />
<path d="M151.9548 69.1190
L151.9548 69.2143
" />
<path d="M150.9548 68.4524
L150.9548 67.8333
" />
<path d="M150.9548 67.8333
L151.3358 68.1667
" />
<path d="M151.3358 68.1667
L151.3358 68.0238
" />
<path d="M151.3358 68.0238
L151.3834 67.9286
" />
<path d="M151.3834 67.9286
L151.4310 67.8810
" />
<path d="M151.4310 67.8810
L151.5262 67.8333
" />
<path d="M151.5262 67.8333
L151.7643 67.8333
" />
<path d="M151.7643 67.8333
L151.8596 67.8810
" />
<path d="M151.8596 67.8810
L151.9072 67.9286
" />
<path d="M151.9072 67.9286
L151.9548 68.0238
" />
<path d="M151.9548 68.0238
L151.9548 68.3095
" />
<path d="M151.9548 68.3095
L151.9072 68.4048
" />
<path d="M151.9072 68.4048
L151.8596 68.4524
" />
</g><g transform="rotate(-90.000000 151.5000 88.5000)">
<text x="151.5000" y="89.0000"
textLength="1.9643" font-size="1.3333" lengthAdjust="spacingAndGlyphs"
text-anchor="middle" opacity="0" stroke-opacity="0">J5</text>
</g>
<g class="stroked-text"><desc>J5</desc>
<path d="M150.9548 88.8333
L151.6691 88.8333
" />
<path d="M151.6691 88.8333
L151.8120 88.8810
" />
<path d="M151.8120 88.8810
L151.9072 88.9762
" />
<path d="M151.9072 88.9762
L151.9548 89.1190
" />
<path d="M151.9548 89.1190
L151.9548 89.2143
" />
<path d="M150.9548 87.8810
L150.9548 88.3571
" />
<path d="M150.9548 88.3571
L151.4310 88.4048
" />
<path d="M151.4310 88.4048
L151.3834 88.3571
" />
<path d="M151.3834 88.3571
L151.3358 88.2619
" />
<path d="M151.3358 88.2619
L151.3358 88.0238
" />
<path d="M151.3358 88.0238
L151.3834 87.9286
" />
<path d="M151.3834 87.9286
L151.4310 87.8810
" />
<path d="M151.4310 87.8810
L151.5262 87.8333
" />
<path d="M151.5262 87.8333
L151.7643 87.8333
" />
<path d="M151.7643 87.8333
L151.8596 87.8810
" />
<path d="M151.8596 87.8810
L151.9072 87.9286
" />
<path d="M151.9072 87.9286
L151.9548 88.0238
" />
<path d="M151.9548 88.0238
L151.9548 88.2619
" />
<path d="M151.9548 88.2619
L151.9072 88.3571
" />
<path d="M151.9072 88.3571
L151.8596 88.4048
" />
</g><g transform="rotate(-90.000000 151.5000 56.0000)">
<text x="151.5000" y="56.5000"
textLength="1.9643" font-size="1.3333" lengthAdjust="spacingAndGlyphs"
text-anchor="middle" opacity="0" stroke-opacity="0">J1</text>
</g>
<g class="stroked-text"><desc>J1</desc>
<path d="M150.9548 56.3333
L151.6691 56.3333
" />
<path d="M151.6691 56.3333
L151.8120 56.3810
" />
<path d="M151.8120 56.3810
L151.9072 56.4762
" />
<path d="M151.9072 56.4762
L151.9548 56.6190
" />
<path d="M151.9548 56.6190
L151.9548 56.7143
" />
<path d="M151.9548 55.3333
L151.9548 55.9048
" />
<path d="M151.9548 55.6190
L150.9548 55.6190
" />
<path d="M150.9548 55.6190
L151.0977 55.7143
" />
<path d="M151.0977 55.7143
L151.1929 55.8095
" />
<path d="M151.1929 55.8095
L151.2405 55.9048
" />
</g></g>
<g style="fill:none; 
stroke:#000000; stroke-width:0.2000; stroke-opacity:1; 
stroke-linecap:round; stroke-linejoin:round;">
<path d="M194.5000 65.5000
L164.5000 65.5000
" />
<path d="M194.5000 49.5000
L194.5000 65.5000
" />
<path d="M164.5000 65.5000
L164.5000 49.5000
" />
<path d="M164.5000 49.5000
L194.5000 49.5000
" />
</g>
<g style="fill:none; 
stroke:#000000; stroke-width:0.2500; stroke-opacity:1; 
stroke-linecap:round; stroke-linejoin:round;">
<path d="M142.2000 73.5500
L152.5000 73.5500
" />
<path d="M142.2000 74.9800
L144.1400 74.9800
" />
<path d="M142.2000 79.9800
L144.1400 79.9800
" />
<path d="M142.2000 83.5500
L142.2000 73.5600
" />
<path d="M143.4500 72.9500
L143.4500 73.5500
" />
<path d="M144.1400 74.9800
L144.5700 75.4000
" />
<path d="M144.1400 79.9800
L144.5700 80.4100
" />
<path d="M144.1600 72.9500
L143.4500 72.9500
" />
<path d="M144.1600 73.5500
L144.1600 72.9500
" />
<path d="M144.1700 77.0000
L142.2000 77.0000
" />
<path d="M144.1700 82.0100
L142.2000 82.0100
" />
<path d="M144.5700 75.4000
L144.5700 76.6000
" />
<path d="M144.5700 76.6000
L144.1700 77.0000
" />
</g>
<g style="fill:#000000; fill-opacity:1.0000; stroke:none;">
<circle cx="144.5700" cy="76.6000" r="0.1250" /> 
</g>
<g style="fill:none; 
stroke:#000000; stroke-width:0.2500; stroke-opacity:1; 
stroke-linecap:round; stroke-linejoin:round;">
<path d="M144.5700 80.4100
L144.5700 81.6100
" />
<path d="M144.5700 81.6100
L144.1700 82.0100
" />
</g>
<g style="fill:#000000; fill-opacity:1.0000; stroke:none;">
<circle cx="144.5700" cy="81.6100" r="0.1250" /> 
</g>
<g style="fill:none; 
stroke:#000000; stroke-width:0.2500; stroke-opacity:1; 
stroke-linecap:round; stroke-linejoin:round;">
<path d="M145.0100 73.5500
L145.0100 83.5500
" />
<path d="M149.3900 73.5500
L149.3900 83.5500
" />
<path d="M150.3100 72.9500
L150.3100 73.5500
" />
<path d="M151.0200 72.9500
L150.3100 72.9500
" />
<path d="M151.0200 73.5500
L151.0200 72.9500
" />
<path d="M151.0400 73.5500
L151.0400 83.5500
" />
<path d="M152.5000 73.5500
L152.5000 83.5500
" />
<path d="M152.5000 83.5500
L142.2000 83.5500
" />
</g>
<g style="fill:none; 
stroke:#000000; stroke-width:0.1200; stroke-opacity:1; 
stroke-linecap:round; stroke-linejoin:round;">
<path d="M168.3464 65.6200
L168.6536 65.6200
" />
<path d="M168.3464 66.3800
L168.6536 66.3800
" />
</g>
<g style="fill:none; 
stroke:#000000; stroke-width:0.1500; stroke-opacity:1; 
stroke-linecap:round; stroke-linejoin:round;">
<path d="M157.5000 52.3000
L157.5000 55.7000
" />
<path d="M157.5000 52.3000
L164.5000 52.3000
" />
<path d="M157.5000 55.7000
L164.5000 55.7000
" />
<path d="M164.5000 52.3000
L164.5000 55.7000
" />
</g>
<g style="fill:none; 
stroke:#000000; stroke-width:0.1200; stroke-opacity:1; 
stroke-linecap:round; stroke-linejoin:round;">
<path d="M170.8364 65.6200
L171.1436 65.6200
" />
<path d="M170.8364 66.3800
L171.1436 66.3800
" />
</g>
<g style="fill:none; 
stroke:#000000; stroke-width:0.1270; stroke-opacity:1; 
stroke-linecap:round; stroke-linejoin:round;">
<path d="M158.4735 61.9100
L162.1165 61.9100
" />
<path d="M161.5265 65.0900
L157.8835 65.0900
" />
</g>
<g style="fill:none; 
stroke:#000000; stroke-width:0.1200; stroke-opacity:1; 
stroke-linecap:round; stroke-linejoin:round;">
<path d="M165.8264 65.6200
L166.1336 65.6200
" />
<path d="M165.8264 66.3800
L166.1336 66.3800
" />
<path d="M175.8664 65.6200
L176.1736 65.6200
" />
<path d="M175.8664 66.3800
L176.1736 66.3800
" />
<path d="M173.3664 65.6200
L173.6736 65.6200
" />
<path d="M173.3664 66.3800
L173.6736 66.3800
" />
</g>
<g style="fill:none; 
stroke:#000000; stroke-width:0.2500; stroke-opacity:1; 
stroke-linecap:round; stroke-linejoin:round;">
<path d="M142.2000 91.8000
L152.5000 91.8000
" />
<path d="M142.2000 93.2300
L144.1400 93.2300
" />
<path d="M142.2000 98.2300
L144.1400 98.2300
" />
<path d="M142.2000 101.8000
L142.2000 91.8100
" />
<path d="M143.4500 91.2000
L143.4500 91.8000
" />
<path d="M144.1400 93.2300
L144.5700 93.6500
" />
<path d="M144.1400 98.2300
L144.5700 98.6600
" />
<path d="M144.1600 91.2000
L143.4500 91.2000
" />
<path d="M144.1600 91.8000
L144.1600 91.2000
" />
<path d="M144.1700 95.2500
L142.2000 95.2500
" />
<path d="M144.1700 100.2600
L142.2000 100.2600
" />
<path d="M144.5700 93.6500
L144.5700 94.8500
" />
<path d="M144.5700 94.8500
L144.1700 95.2500
" />
</g>
<g style="fill:#000000; fill-opacity:1.0000; stroke:none;">
<circle cx="144.5700" cy="94.8500" r="0.1250" /> 
</g>
<g style="fill:none; 
stroke:#000000; stroke-width:0.2500; stroke-opacity:1; 
stroke-linecap:round; stroke-linejoin:round;">
<path d="M144.5700 98.6600
L144.5700 99.8600
" />
<path d="M144.5700 99.8600
L144.1700 100.2600
" />
</g>
<g style="fill:#000000; fill-opacity:1.0000; stroke:none;">
<circle cx="144.5700" cy="99.8600" r="0.1250" /> 
</g>
<g style="fill:none; 
stroke:#000000; stroke-width:0.2500; stroke-opacity:1; 
stroke-linecap:round; stroke-linejoin:round;">
<path d="M145.0100 91.8000
L145.0100 101.8000
" />
<path d="M149.3900 91.8000
L149.3900 101.8000
" />
<path d="M150.3100 91.2000
L150.3100 91.8000
" />
<path d="M151.0200 91.2000
L150.3100 91.2000
" />
<path d="M151.0200 91.8000
L151.0200 91.2000
" />
<path d="M151.0400 91.8000
L151.0400 101.8000
" />
<path d="M152.5000 91.8000
L152.5000 101.8000
" />
<path d="M152.5000 101.8000
L142.2000 101.8000
" />
</g>
<g style="fill:none; 
stroke:#000000; stroke-width:0.1200; stroke-opacity:1; 
stroke-linecap:round; stroke-linejoin:round;">
<path d="M153.0900 58.1021
L153.0900 56.8979
" />
<path d="M154.9100 58.1021
L154.9100 56.8979
" />
<path d="M152.9450 66.9900
L174.0850 66.9900
" />
<path d="M152.9450 77.9900
L152.9450 66.9900
" />
<path d="M152.9450 77.9900
L174.0850 77.9900
" />
<path d="M155.8950 76.3000
L157.1650 76.3000
" />
<path d="M156.6550 71.4700
L157.1650 71.4700
" />
<path d="M156.6550 73.2500
L157.6750 72.2400
" />
<path d="M156.6550 74.0100
L156.6550 71.4700
" />
<path d="M157.1650 68.6800
L155.8950 68.6800
" />
<path d="M157.1650 71.4700
L157.1650 68.6800
" />
<path d="M157.1650 71.4700
L157.6750 71.4700
" />
<path d="M157.1650 74.0100
L156.6550 74.0100
" />
<path d="M157.1650 76.3000
L157.1650 74.0100
" />
<path d="M157.6750 71.4700
L157.6750 74.0100
" />
<path d="M157.6750 74.0100
L157.1650 74.0100
" />
<path d="M164.7850 72.4900
L167.9600 72.4900
" />
<path d="M164.7850 75.0300
L164.7850 72.4900
" />
<path d="M167.9600 72.4900
L171.7700 69.9500
" />
<path d="M169.8650 69.9500
L169.8650 71.2200
" />
<path d="M172.4050 75.0300
L172.4050 72.4900
" />
<path d="M174.0850 77.9900
L174.0850 66.9900
" />
<circle cx="167.9600" cy="72.4900" r="0.1270" /> 
<path d="M153.1900 78.9450
L153.1900 100.0850
" />
<path d="M153.1900 78.9450
L164.1900 78.9450
" />
<path d="M153.1900 100.0850
L164.1900 100.0850
" />
<path d="M154.8800 81.8950
L154.8800 83.1650
" />
<path d="M154.8800 83.1650
L157.1700 83.1650
" />
<path d="M156.1500 90.7850
L158.6900 90.7850
" />
<path d="M156.1500 98.4050
L158.6900 98.4050
" />
<path d="M157.1700 82.6550
L159.7100 82.6550
" />
<path d="M157.1700 83.1650
L157.1700 82.6550
" />
<path d="M157.1700 83.6750
L157.1700 83.1650
" />
<path d="M157.9300 82.6550
L158.9400 83.6750
" />
<path d="M158.6900 90.7850
L158.6900 93.9600
" />
<path d="M158.6900 93.9600
L161.2300 97.7700
" />
<path d="M159.7100 82.6550
L159.7100 83.1650
" />
<path d="M159.7100 83.1650
L159.7100 83.6750
" />
<path d="M159.7100 83.1650
L162.5000 83.1650
" />
<path d="M159.7100 83.6750
L157.1700 83.6750
" />
<path d="M161.2300 95.8650
L159.9600 95.8650
" />
<path d="M162.5000 83.1650
L162.5000 81.8950
" />
<path d="M164.1900 78.9450
L164.1900 100.0850
" />
<circle cx="158.6900" cy="93.9600" r="0.1270" /> 
<path d="M163.3164 65.6200
L163.6236 65.6200
" />
<path d="M163.3164 66.3800
L163.6236 66.3800
" />
</g>
<g style="fill:none; 
stroke:#000000; stroke-width:0.2500; stroke-opacity:1; 
stroke-linecap:round; stroke-linejoin:round;">
<path d="M142.2000 63.5500
L152.5000 63.5500
" />
<path d="M142.2000 64.9800
L144.1400 64.9800
" />
<path d="M142.2000 69.9800
L144.1400 69.9800
" />
<path d="M142.2000 73.5500
L142.2000 63.5600
" />
<path d="M143.4500 62.9500
L143.4500 63.5500
" />
<path d="M144.1400 64.9800
L144.5700 65.4000
" />
<path d="M144.1400 69.9800
L144.5700 70.4100
" />
<path d="M144.1600 62.9500
L143.4500 62.9500
" />
<path d="M144.1600 63.5500
L144.1600 62.9500
" />
<path d="M144.1700 67.0000
L142.2000 67.0000
" />
<path d="M144.1700 72.0100
L142.2000 72.0100
" />
<path d="M144.5700 65.4000
L144.5700 66.6000
" />
<path d="M144.5700 66.6000
L144.1700 67.0000
" />
</g>
<g style="fill:#000000; fill-opacity:1.0000; stroke:none;">
<circle cx="144.5700" cy="66.6000" r="0.1250" /> 
</g>
<g style="fill:none; 
stroke:#000000; stroke-width:0.2500; stroke-opacity:1; 
stroke-linecap:round; stroke-linejoin:round;">
<path d="M144.5700 70.4100
L144.5700 71.6100
" />
<path d="M144.5700 71.6100
L144.1700 72.0100
" />
</g>
<g style="fill:#000000; fill-opacity:1.0000; stroke:none;">
<circle cx="144.5700" cy="71.6100" r="0.1250" /> 
</g>
<g style="fill:none; 
stroke:#000000; stroke-width:0.2500; stroke-opacity:1; 
stroke-linecap:round; stroke-linejoin:round;">
<path d="M145.0100 63.5500
L145.0100 73.5500
" />
<path d="M149.3900 63.5500
L149.3900 73.5500
" />
<path d="M150.3100 62.9500
L150.3100 63.5500
" />
<path d="M151.0200 62.9500
L150.3100 62.9500
" />
<path d="M151.0200 63.5500
L151.0200 62.9500
" />
<path d="M151.0400 63.5500
L151.0400 73.5500
" />
<path d="M152.5000 63.5500
L152.5000 73.5500
" />
<path d="M152.5000 73.5500
L142.2000 73.5500
" />
<path d="M142.2000 83.5500
L152.5000 83.5500
" />
<path d="M142.2000 84.9800
L144.1400 84.9800
" />
<path d="M142.2000 89.9800
L144.1400 89.9800
" />
<path d="M142.2000 93.5500
L142.2000 83.5600
" />
<path d="M143.4500 82.9500
L143.4500 83.5500
" />
<path d="M144.1400 84.9800
L144.5700 85.4000
" />
<path d="M144.1400 89.9800
L144.5700 90.4100
" />
<path d="M144.1600 82.9500
L143.4500 82.9500
" />
<path d="M144.1600 83.5500
L144.1600 82.9500
" />
<path d="M144.1700 87.0000
L142.2000 87.0000
" />
<path d="M144.1700 92.0100
L142.2000 92.0100
" />
<path d="M144.5700 85.4000
L144.5700 86.6000
" />
<path d="M144.5700 86.6000
L144.1700 87.0000
" />
</g>
<g style="fill:#000000; fill-opacity:1.0000; stroke:none;">
<circle cx="144.5700" cy="86.6000" r="0.1250" /> 
</g>
<g style="fill:none; 
stroke:#000000; stroke-width:0.2500; stroke-opacity:1; 
stroke-linecap:round; stroke-linejoin:round;">
<path d="M144.5700 90.4100
L144.5700 91.6100
" />
<path d="M144.5700 91.6100
L144.1700 92.0100
" />
</g>
<g style="fill:#000000; fill-opacity:1.0000; stroke:none;">
<circle cx="144.5700" cy="91.6100" r="0.1250" /> 
</g>
<g style="fill:none; 
stroke:#000000; stroke-width:0.2500; stroke-opacity:1; 
stroke-linecap:round; stroke-linejoin:round;">
<path d="M145.0100 83.5500
L145.0100 93.5500
" />
<path d="M149.3900 83.5500
L149.3900 93.5500
" />
<path d="M150.3100 82.9500
L150.3100 83.5500
" />
<path d="M151.0200 82.9500
L150.3100 82.9500
" />
<path d="M151.0200 83.5500
L151.0200 82.9500
" />
<path d="M151.0400 83.5500
L151.0400 93.5500
" />
<path d="M152.5000 83.5500
L152.5000 93.5500
" />
<path d="M152.5000 93.5500
L142.2000 93.5500
" />
<path d="M142.2000 48.5000
L142.2000 63.5000
" />
<path d="M142.2000 50.0000
L144.2600 50.0000
" />
<path d="M142.2000 54.9800
L144.2600 54.9800
" />
<path d="M142.2000 59.9300
L144.2600 59.9300
" />
<path d="M142.9600 47.9000
L143.1700 48.5000
" />
<path d="M143.7100 48.5000
L143.9500 47.9000
" />
<path d="M143.9500 47.9000
L142.9600 47.9000
" />
<path d="M144.2600 50.0000
L144.2600 52.0000
" />
<path d="M144.2600 52.0000
L142.2000 52.0000
" />
<path d="M144.2600 54.9800
L144.2600 56.9800
" />
<path d="M144.2600 56.9800
L142.2000 56.9800
" />
<path d="M144.2600 59.9300
L144.2600 61.9300
" />
<path d="M144.2600 61.9300
L142.2000 61.9300
" />
<path d="M144.8300 48.5000
L144.8300 63.5000
" />
<path d="M150.1700 48.5000
L150.1700 63.5000
" />
<path d="M150.4700 47.9000
L150.6800 48.5000
" />
<path d="M151.2200 48.5000
L151.4600 47.9000
" />
<path d="M151.4600 47.9000
L150.4700 47.9000
" />
<path d="M151.9600 50.2400
L152.5000 50.2400
" />
<path d="M151.9600 51.7700
L151.9600 50.2400
" />
<path d="M151.9600 55.2400
L152.5000 55.2400
" />
<path d="M151.9600 56.7700
L151.9600 55.2400
" />
<path d="M151.9600 60.2400
L152.5000 60.2400
" />
<path d="M151.9600 61.7700
L151.9600 60.2400
" />
<path d="M152.4900 48.5000
L142.1900 48.5000
" />
<path d="M152.5000 48.5000
L152.5000 63.5000
" />
<path d="M152.5000 51.7700
L151.9600 51.7700
" />
<path d="M152.5000 56.7700
L151.9600 56.7700
" />
<path d="M152.5000 61.7700
L151.9600 61.7700
" />
<path d="M152.5000 63.5000
L142.2000 63.5000
" />
</g> 
</svg>
