<?xml version="1.0" standalone="no"?>
 <!DOCTYPE svg PUBLIC "-//W3C//DTD SVG 1.1//EN" 
 "http://www.w3.org/Graphics/SVG/1.1/DTD/svg11.dtd"> 
<svg
  xmlns:svg="http://www.w3.org/2000/svg"
  xmlns="http://www.w3.org/2000/svg"
  xmlns:xlink="http://www.w3.org/1999/xlink"
  version="1.1"
  width="297.0022mm" height="210.0072mm" viewBox="0.0000 0.0000 297.0022 210.0072">
<title>SVG Image created as RelaySwitch_C6-F_Cu.svg date 2026/03/09 13:05:11 </title>
  <desc>Image generated by PCBNEW </desc>
<g style="fill:#000000; fill-opacity:1.0000;stroke:#000000; stroke-opacity:1.0000;
stroke-linecap:round; stroke-linejoin:round;"
 transform="translate(0 0) scale(1 1)">
</g>
<g style="fill:#000000; fill-opacity:1.0000; stroke:none;">
<circle cx="191.5000" cy="57.5000" r="0.7540" /> 
</g>
<g style="fill:#000000; fill-opacity:1.0000; stroke:none;">
<circle cx="189.0000" cy="57.5000" r="0.7540" /> 
</g>
<g style="fill:#000000; fill-opacity:1.0000; stroke:none;">
<circle cx="172.5000" cy="57.5000" r="0.7540" /> 
</g>
<g style="fill:#000000; fill-opacity:1.0000; stroke:none;">
<circle cx="167.5000" cy="57.5000" r="0.7540" /> 
</g>
<g style="fill:#000000; fill-opacity:1.0000; stroke:none;">
<circle cx="147.5000" cy="76.0000" r="1.0000" /> 
</g>
<g style="fill:#000000; fill-opacity:1.0000; stroke:none;">
<circle cx="147.5000" cy="81.0000" r="1.0000" /> 
<path style="fill:#000000; fill-opacity:1.0000; stroke:none;fill-rule:evenodd;"
d="M 167.7200,65.8150
167.7303,65.7633
167.7595,65.7195
167.8033,65.6903
167.8550,65.6800
168.1250,65.6800
168.1767,65.6903
168.2205,65.7195
168.2497,65.7633
168.2600,65.8150
168.2600,66.1850
168.2497,66.2367
168.2205,66.2805
168.1767,66.3097
168.1250,66.3200
167.8550,66.3200
167.8033,66.3097
167.7595,66.2805
167.7303,66.2367
167.7200,66.1850
Z" /> 
<path style="fill:#000000; fill-opacity:1.0000; stroke:none;fill-rule:evenodd;"
d="M 168.7400,65.8150
168.7503,65.7633
168.7795,65.7195
168.8233,65.6903
168.8750,65.6800
169.1450,65.6800
169.1967,65.6903
169.2405,65.7195
169.2697,65.7633
169.2800,65.8150
169.2800,66.1850
169.2697,66.2367
169.2405,66.2805
169.1967,66.3097
169.1450,66.3200
168.8750,66.3200
168.8233,66.3097
168.7795,66.2805
168.7503,66.2367
168.7400,66.1850
Z" /> 
</g>
<g style="fill:#000000; fill-opacity:1.0000; stroke:none;">
<circle cx="158.5000" cy="53.3500" r="0.8000" /> 
</g>
<g style="fill:#000000; fill-opacity:1.0000; stroke:none;">
<circle cx="163.5000" cy="54.6500" r="0.8000" /> 
<path style="fill:#000000; fill-opacity:1.0000; stroke:none;fill-rule:evenodd;"
d="M 170.2100,65.8150
170.2203,65.7633
170.2495,65.7195
170.2933,65.6903
170.3450,65.6800
170.6150,65.6800
170.6667,65.6903
170.7105,65.7195
170.7397,65.7633
170.7500,65.8150
170.7500,66.1850
170.7397,66.2367
170.7105,66.2805
170.6667,66.3097
170.6150,66.3200
170.3450,66.3200
170.2933,66.3097
170.2495,66.2805
170.2203,66.2367
170.2100,66.1850
Z" /> 
<path style="fill:#000000; fill-opacity:1.0000; stroke:none;fill-rule:evenodd;"
d="M 171.2300,65.8150
171.2403,65.7633
171.2695,65.7195
171.3133,65.6903
171.3650,65.6800
171.6350,65.6800
171.6867,65.6903
171.7305,65.7195
171.7597,65.7633
171.7700,65.8150
171.7700,66.1850
171.7597,66.2367
171.7305,66.2805
171.6867,66.3097
171.6350,66.3200
171.3650,66.3200
171.3133,66.3097
171.2695,66.2805
171.2403,66.2367
171.2300,66.1850
Z" /> 
<path style="fill:#000000; fill-opacity:1.0000; stroke:none;fill-rule:evenodd;"
d="M 164.1300,61.8500
164.1300,62.6100
162.4300,62.6100
162.4300,61.8500
Z" /> 
<path style="fill:#000000; fill-opacity:1.0000; stroke:none;fill-rule:evenodd;"
d="M 157.5700,64.3900
157.5700,65.1500
155.8700,65.1500
155.8700,64.3900
Z" /> 
<path style="fill:#000000; fill-opacity:1.0000; stroke:none;fill-rule:evenodd;"
d="M 164.1300,63.1200
164.1300,65.1500
161.8400,65.1500
161.8400,63.1200
Z" /> 
<path style="fill:#000000; fill-opacity:1.0000; stroke:none;fill-rule:evenodd;"
d="M 158.1600,61.8500
158.1600,63.8800
155.8700,63.8800
155.8700,61.8500
Z" /> 
<path style="fill:#000000; fill-opacity:1.0000; stroke:none;fill-rule:evenodd;"
d="M 165.2000,65.8150
165.2103,65.7633
165.2395,65.7195
165.2833,65.6903
165.3350,65.6800
165.6050,65.6800
165.6567,65.6903
165.7005,65.7195
165.7297,65.7633
165.7400,65.8150
165.7400,66.1850
165.7297,66.2367
165.7005,66.2805
165.6567,66.3097
165.6050,66.3200
165.3350,66.3200
165.2833,66.3097
165.2395,66.2805
165.2103,66.2367
165.2000,66.1850
Z" /> 
<path style="fill:#000000; fill-opacity:1.0000; stroke:none;fill-rule:evenodd;"
d="M 166.2200,65.8150
166.2303,65.7633
166.2595,65.7195
166.3033,65.6903
166.3550,65.6800
166.6250,65.6800
166.6767,65.6903
166.7205,65.7195
166.7497,65.7633
166.7600,65.8150
166.7600,66.1850
166.7497,66.2367
166.7205,66.2805
166.6767,66.3097
166.6250,66.3200
166.3550,66.3200
166.3033,66.3097
166.2595,66.2805
166.2303,66.2367
166.2200,66.1850
Z" /> 
<path style="fill:#000000; fill-opacity:1.0000; stroke:none;fill-rule:evenodd;"
d="M 175.2400,65.8150
175.2503,65.7633
175.2795,65.7195
175.3233,65.6903
175.3750,65.6800
175.6450,65.6800
175.6967,65.6903
175.7405,65.7195
175.7697,65.7633
175.7800,65.8150
175.7800,66.1850
175.7697,66.2367
175.7405,66.2805
175.6967,66.3097
175.6450,66.3200
175.3750,66.3200
175.3233,66.3097
175.2795,66.2805
175.2503,66.2367
175.2400,66.1850
Z" /> 
<path style="fill:#000000; fill-opacity:1.0000; stroke:none;fill-rule:evenodd;"
d="M 176.2600,65.8150
176.2703,65.7633
176.2995,65.7195
176.3433,65.6903
176.3950,65.6800
176.6650,65.6800
176.7167,65.6903
176.7605,65.7195
176.7897,65.7633
176.8000,65.8150
176.8000,66.1850
176.7897,66.2367
176.7605,66.2805
176.7167,66.3097
176.6650,66.3200
176.3950,66.3200
176.3433,66.3097
176.2995,66.2805
176.2703,66.2367
176.2600,66.1850
Z" /> 
<path style="fill:#000000; fill-opacity:1.0000; stroke:none;fill-rule:evenodd;"
d="M 172.7400,65.8150
172.7503,65.7633
172.7795,65.7195
172.8233,65.6903
172.8750,65.6800
173.1450,65.6800
173.1967,65.6903
173.2405,65.7195
173.2697,65.7633
173.2800,65.8150
173.2800,66.1850
173.2697,66.2367
173.2405,66.2805
173.1967,66.3097
173.1450,66.3200
172.8750,66.3200
172.8233,66.3097
172.7795,66.2805
172.7503,66.2367
172.7400,66.1850
Z" /> 
<path style="fill:#000000; fill-opacity:1.0000; stroke:none;fill-rule:evenodd;"
d="M 173.7600,65.8150
173.7703,65.7633
173.7995,65.7195
173.8433,65.6903
173.8950,65.6800
174.1650,65.6800
174.2167,65.6903
174.2605,65.7195
174.2897,65.7633
174.3000,65.8150
174.3000,66.1850
174.2897,66.2367
174.2605,66.2805
174.2167,66.3097
174.1650,66.3200
173.8950,66.3200
173.8433,66.3097
173.7995,66.2805
173.7703,66.2367
173.7600,66.1850
Z" /> 
</g>
<g style="fill:#000000; fill-opacity:1.0000; stroke:none;">
<circle cx="147.5000" cy="94.2500" r="1.0000" /> 
</g>
<g style="fill:#000000; fill-opacity:1.0000; stroke:none;">
<circle cx="147.5000" cy="99.2500" r="1.0000" /> 
<path style="fill:#000000; fill-opacity:1.0000; stroke:none;fill-rule:evenodd;"
d="M 153.3750,59.5250
153.2793,59.5060
153.1982,59.4518
153.1440,59.3707
153.1250,59.2750
153.1250,58.5250
153.1440,58.4293
153.1982,58.3482
153.2793,58.2940
153.3750,58.2750
154.6250,58.2750
154.7207,58.2940
154.8018,58.3482
154.8560,58.4293
154.8750,58.5250
154.8750,59.2750
154.8560,59.3707
154.8018,59.4518
154.7207,59.5060
154.6250,59.5250
Z" /> 
<path style="fill:#000000; fill-opacity:1.0000; stroke:none;fill-rule:evenodd;"
d="M 153.3750,56.7250
153.2793,56.7060
153.1982,56.6518
153.1440,56.5707
153.1250,56.4750
153.1250,55.7250
153.1440,55.6293
153.1982,55.5482
153.2793,55.4940
153.3750,55.4750
154.6250,55.4750
154.7207,55.4940
154.8018,55.5482
154.8560,55.6293
154.8750,55.7250
154.8750,56.4750
154.8560,56.5707
154.8018,56.6518
154.7207,56.7060
154.6250,56.7250
Z" /> 
<path style="fill:#000000; fill-opacity:1.0000; stroke:none;fill-rule:evenodd;"
d="M 155.7750,75.1500
155.7750,77.4500
153.4750,77.4500
153.4750,75.1500
Z" /> 
</g>
<g style="fill:#000000; fill-opacity:1.0000; stroke:none;">
<circle cx="164.7850" cy="76.3000" r="1.1500" /> 
</g>
<g style="fill:#000000; fill-opacity:1.0000; stroke:none;">
<circle cx="172.4050" cy="76.3000" r="1.1500" /> 
</g>
<g style="fill:#000000; fill-opacity:1.0000; stroke:none;">
<circle cx="169.8650" cy="68.6800" r="1.1500" /> 
</g>
<g style="fill:#000000; fill-opacity:1.0000; stroke:none;">
<circle cx="154.6250" cy="68.6800" r="1.1500" /> 
<path style="fill:#000000; fill-opacity:1.0000; stroke:none;fill-rule:evenodd;"
d="M 156.0300,81.7750
153.7300,81.7750
153.7300,79.4750
156.0300,79.4750
Z" /> 
</g>
<g style="fill:#000000; fill-opacity:1.0000; stroke:none;">
<circle cx="154.8800" cy="90.7850" r="1.1500" /> 
</g>
<g style="fill:#000000; fill-opacity:1.0000; stroke:none;">
<circle cx="154.8800" cy="98.4050" r="1.1500" /> 
</g>
<g style="fill:#000000; fill-opacity:1.0000; stroke:none;">
<circle cx="162.5000" cy="95.8650" r="1.1500" /> 
</g>
<g style="fill:#000000; fill-opacity:1.0000; stroke:none;">
<circle cx="162.5000" cy="80.6250" r="1.1500" /> 
<path style="fill:#000000; fill-opacity:1.0000; stroke:none;fill-rule:evenodd;"
d="M 162.6900,65.8150
162.7003,65.7633
162.7295,65.7195
162.7733,65.6903
162.8250,65.6800
163.0950,65.6800
163.1467,65.6903
163.1905,65.7195
163.2197,65.7633
163.2300,65.8150
163.2300,66.1850
163.2197,66.2367
163.1905,66.2805
163.1467,66.3097
163.0950,66.3200
162.8250,66.3200
162.7733,66.3097
162.7295,66.2805
162.7003,66.2367
162.6900,66.1850
Z" /> 
<path style="fill:#000000; fill-opacity:1.0000; stroke:none;fill-rule:evenodd;"
d="M 163.7100,65.8150
163.7203,65.7633
163.7495,65.7195
163.7933,65.6903
163.8450,65.6800
164.1150,65.6800
164.1667,65.6903
164.2105,65.7195
164.2397,65.7633
164.2500,65.8150
164.2500,66.1850
164.2397,66.2367
164.2105,66.2805
164.1667,66.3097
164.1150,66.3200
163.8450,66.3200
163.7933,66.3097
163.7495,66.2805
163.7203,66.2367
163.7100,66.1850
Z" /> 
</g>
<g style="fill:#000000; fill-opacity:1.0000; stroke:none;">
<circle cx="147.5000" cy="66.0000" r="1.0000" /> 
</g>
<g style="fill:#000000; fill-opacity:1.0000; stroke:none;">
<circle cx="147.5000" cy="71.0000" r="1.0000" /> 
</g>
<g style="fill:#000000; fill-opacity:1.0000; stroke:none;">
<circle cx="147.5000" cy="86.0000" r="1.0000" /> 
</g>
<g style="fill:#000000; fill-opacity:1.0000; stroke:none;">
<circle cx="147.5000" cy="91.0000" r="1.0000" /> 
</g>
<g style="fill:#000000; fill-opacity:1.0000; stroke:none;">
<circle cx="147.5000" cy="51.0000" r="1.1500" /> 
</g>
<g style="fill:#000000; fill-opacity:1.0000; stroke:none;">
<circle cx="147.5000" cy="56.0000" r="1.1500" /> 
</g>
<g style="fill:#000000; fill-opacity:1.0000; stroke:none;">
<circle cx="147.5000" cy="61.0000" r="1.1500" /> 
</g>
<g style="fill:#000000; fill-opacity:1.0000; stroke:none;">
<circle cx="191.5000" cy="98.0000" r="0.7620" /> 
</g>
<g style="fill:#000000; fill-opacity:1.0000; stroke:none;">
<circle cx="188.9600" cy="98.0000" r="0.7620" /> 
</g>
<g style="fill:#000000; fill-opacity:1.0000; stroke:none;">
<circle cx="186.4200" cy="98.0000" r="0.7620" /> 
</g>
<g style="fill:#000000; fill-opacity:1.0000; stroke:none;">
<circle cx="183.8800" cy="98.0000" r="0.7620" /> 
</g>
<g style="fill:#000000; fill-opacity:1.0000; stroke:none;">
<circle cx="181.3400" cy="98.0000" r="0.7620" /> 
</g>
<g style="fill:#000000; fill-opacity:1.0000; stroke:none;">
<circle cx="178.8000" cy="98.0000" r="0.7620" /> 
</g>
<g style="fill:#000000; fill-opacity:1.0000; stroke:none;">
<circle cx="176.2600" cy="98.0000" r="0.7620" /> 
</g>
<g style="fill:#000000; fill-opacity:1.0000; stroke:none;">
<circle cx="176.2600" cy="82.7600" r="0.7620" /> 
</g>
<g style="fill:#000000; fill-opacity:1.0000; stroke:none;">
<circle cx="178.8000" cy="82.7600" r="0.7620" /> 
</g>
<g style="fill:#000000; fill-opacity:1.0000; stroke:none;">
<circle cx="181.3400" cy="82.7600" r="0.7620" /> 
</g>
<g style="fill:#000000; fill-opacity:1.0000; stroke:none;">
<circle cx="183.8800" cy="82.7600" r="0.7620" /> 
</g>
<g style="fill:#000000; fill-opacity:1.0000; stroke:none;">
<circle cx="186.4200" cy="82.7600" r="0.7620" /> 
</g>
<g style="fill:#000000; fill-opacity:1.0000; stroke:none;">
<circle cx="188.9600" cy="82.7600" r="0.7620" /> 
</g>
<g style="fill:#000000; fill-opacity:1.0000; stroke:none;">
<circle cx="191.5000" cy="82.7600" r="0.7620" /> 
</g>
<g style="fill:#000000; fill-opacity:1.0000; stroke:none;">
<circle cx="171.0000" cy="80.0000" r="0.3000" /> 
</g>
<g style="fill:#000000; fill-opacity:1.0000; stroke:none;">
<circle cx="170.5000" cy="81.5000" r="0.3000" /> 
</g>
<g style="fill:#000000; fill-opacity:1.0000; stroke:none;">
<circle cx="165.6425" cy="87.6425" r="0.3000" /> 
</g>
<g style="fill:#000000; fill-opacity:1.0000; stroke:none;">
<circle cx="168.3497" cy="80.3497" r="0.3000" /> 
</g>
<g style="fill:#000000; fill-opacity:1.0000; stroke:none;">
<circle cx="170.0000" cy="96.0000" r="0.3000" /> 
</g>
<g style="fill:#000000; fill-opacity:1.0000; stroke:none;">
<circle cx="191.5000" cy="77.5000" r="0.3000" /> 
</g>
<g style="fill:#000000; fill-opacity:1.0000; stroke:none;">
<circle cx="169.0000" cy="99.0000" r="0.3000" /> 
</g>
<g style="fill:#000000; fill-opacity:1.0000; stroke:none;">
<circle cx="179.0000" cy="92.0000" r="0.3000" /> 
</g>
<g style="fill:#000000; fill-opacity:1.0000; stroke:none;">
<circle cx="189.5000" cy="75.0000" r="0.3000" /> 
</g>
<g style="fill:#000000; fill-opacity:1.0000; stroke:none;">
<circle cx="170.0000" cy="93.5000" r="0.3000" /> 
</g>
<g style="fill:#000000; fill-opacity:1.0000; stroke:none;">
<circle cx="165.0000" cy="92.5000" r="0.3000" /> 
</g>
<g style="fill:#000000; fill-opacity:1.0000; stroke:none;">
<circle cx="168.1510" cy="96.0000" r="0.3000" /> 
</g>
<g style="fill:#000000; fill-opacity:1.0000; stroke:none;">
<circle cx="168.0000" cy="94.5000" r="0.3000" /> 
</g>
<g style="fill:#000000; fill-opacity:1.0000; stroke:none;">
<circle cx="172.5000" cy="94.0000" r="0.3000" /> 
</g>
<g style="fill:#000000; fill-opacity:1.0000; stroke:none;">
<circle cx="192.5000" cy="77.5000" r="0.3000" /> 
</g>
<g style="fill:#000000; fill-opacity:1.0000; stroke:none;">
<circle cx="188.5000" cy="76.0000" r="0.3000" /> 
</g>
<g style="fill:#000000; fill-opacity:1.0000; stroke:none;">
<circle cx="167.5321" cy="98.3010" r="0.3000" /> 
</g>
<g style="fill:#000000; fill-opacity:1.0000; stroke:none;">
<circle cx="174.0000" cy="96.5000" r="0.3000" /> 
</g>
<g style="fill:#000000; fill-opacity:1.0000; stroke:none;">
<circle cx="171.9980" cy="91.3000" r="0.3000" /> 
</g>
<g style="fill:#000000; fill-opacity:1.0000; stroke:none;">
<circle cx="176.0000" cy="96.0000" r="0.3000" /> 
</g>
<g style="fill:#000000; fill-opacity:1.0000; stroke:none;">
<circle cx="170.5100" cy="88.0100" r="0.3000" /> 
</g>
<g style="fill:#000000; fill-opacity:1.0000; stroke:none;">
<circle cx="181.0000" cy="69.5000" r="0.3000" /> 
</g>
<g style="fill:#000000; fill-opacity:1.0000; stroke:none;">
<circle cx="185.5000" cy="76.5000" r="0.3000" /> 
</g>
<g style="fill:#000000; fill-opacity:1.0000; stroke:none;">
<circle cx="167.5000" cy="97.0000" r="0.3000" /> 
</g>
<g style="fill:#000000; fill-opacity:1.0000; stroke:none;">
<circle cx="169.5000" cy="85.5000" r="0.3000" /> 
</g>
<g style="fill:#000000; fill-opacity:1.0000; stroke:none;">
<circle cx="167.6500" cy="90.0849" r="0.3000" /> 
</g>
<g style="fill:#000000; fill-opacity:1.0000; stroke:none;">
<circle cx="165.5000" cy="90.0000" r="0.3000" /> 
</g>
<g style="fill:#000000; fill-opacity:1.0000; stroke:none;">
<circle cx="170.5000" cy="83.0000" r="0.3000" /> 
</g>
<g style="fill:none; 
stroke:#000000; stroke-width:2.0000; stroke-opacity:1; 
stroke-linecap:round; stroke-linejoin:round;">
<path d="M149.4265 55.6510
L152.1510 52.9265
" />
<path d="M163.5000 50.5010
L163.5000 54.6500
" />
<path d="M149.3490 55.6510
L149.4265 55.6510
" />
<path d="M152.1510 52.9265
L152.1510 52.8490
" />
<path d="M149.0000 56.0000
L149.3490 55.6510
" />
<path d="M147.5000 56.0000
L149.0000 56.0000
" />
<path d="M152.1510 52.8490
L154.4990 50.5010
" />
<path d="M154.4990 50.5010
L163.5000 50.5010
" />
</g>
<g style="fill:none; 
stroke:#000000; stroke-width:0.2000; stroke-opacity:1; 
stroke-linecap:round; stroke-linejoin:round;">
<path d="M170.5000 80.5000
L170.5000 81.5000
" />
<path d="M171.0000 80.0000
L170.5000 80.5000
" />
</g>
<g style="fill:none; 
stroke:#000000; stroke-width:0.4000; stroke-opacity:1; 
stroke-linecap:round; stroke-linejoin:round;">
<path d="M166.9490 86.2718
L166.9490 86.3360
" />
<path d="M168.3497 80.4897
L167.4490 81.3904
" />
<path d="M165.6425 87.6425
L154.8800 98.4050
" />
<path d="M168.3497 80.3497
L168.3497 80.4897
" />
<path d="M167.4490 81.3904
L167.4490 85.7718
" />
<path d="M167.4490 85.7718
L166.9490 86.2718
" />
<path d="M166.9490 86.3360
L165.6425 87.6425
" />
</g>
<g style="fill:none; 
stroke:#000000; stroke-width:0.3000; stroke-opacity:1; 
stroke-linecap:round; stroke-linejoin:round;">
<path d="M167.7697 97.6510
L168.1510 97.2697
" />
<path d="M191.5000 77.0000
L191.5000 77.5000
" />
<path d="M183.5503 66.0000
L189.0000 60.5503
" />
<path d="M189.0000 60.5503
L189.0000 57.5000
" />
</g>
<g style="fill:none; 
stroke:#000000; stroke-width:0.2000; stroke-opacity:1; 
stroke-linecap:round; stroke-linejoin:round;">
<path d="M170.0000 96.0000
L170.0000 98.0000
" />
<path d="M179.0000 92.0000
L174.5000 92.0000
" />
</g>
<g style="fill:none; 
stroke:#000000; stroke-width:0.3000; stroke-opacity:1; 
stroke-linecap:round; stroke-linejoin:round;">
<path d="M165.0000 92.5000
L165.0000 95.4207
" />
<path d="M167.2303 97.6510
L167.7697 97.6510
" />
<path d="M168.1510 94.6510
L168.0000 94.5000
" />
<path d="M170.0000 93.5000
L170.0000 96.0000
" />
</g>
<g style="fill:none; 
stroke:#000000; stroke-width:0.2000; stroke-opacity:1; 
stroke-linecap:round; stroke-linejoin:round;">
<path d="M174.5000 92.0000
L172.5000 94.0000
" />
</g>
<g style="fill:none; 
stroke:#000000; stroke-width:0.3000; stroke-opacity:1; 
stroke-linecap:round; stroke-linejoin:round;">
<path d="M165.0000 95.4207
L167.2303 97.6510
" />
<path d="M168.1510 97.2697
L168.1510 96.0000
" />
<path d="M176.5300 66.0000
L183.5503 66.0000
" />
<path d="M189.5000 75.0000
L191.5000 77.0000
" />
<path d="M168.1510 96.0000
L168.1510 94.6510
" />
</g>
<g style="fill:none; 
stroke:#000000; stroke-width:0.2000; stroke-opacity:1; 
stroke-linecap:round; stroke-linejoin:round;">
<path d="M170.0000 98.0000
L169.0000 99.0000
" />
</g>
<g style="fill:none; 
stroke:#000000; stroke-width:2.0000; stroke-opacity:1; 
stroke-linecap:round; stroke-linejoin:round;">
<path d="M154.0000 58.9000
L157.7500 58.9000
" />
</g>
<g style="fill:none; 
stroke:#000000; stroke-width:0.7000; stroke-opacity:1; 
stroke-linecap:round; stroke-linejoin:round;">
<path d="M162.9850 65.9750
L162.9600 66.0000
" />
</g>
<g style="fill:none; 
stroke:#000000; stroke-width:2.0000; stroke-opacity:1; 
stroke-linecap:round; stroke-linejoin:round;">
<path d="M147.5000 61.0000
L149.6000 58.9000
" />
</g>
<g style="fill:none; 
stroke:#000000; stroke-width:0.7000; stroke-opacity:1; 
stroke-linecap:round; stroke-linejoin:round;">
<path d="M162.9850 64.1350
L162.9850 65.9750
" />
</g>
<g style="fill:none; 
stroke:#000000; stroke-width:2.0000; stroke-opacity:1; 
stroke-linecap:round; stroke-linejoin:round;">
<path d="M161.2290 63.8110
L161.5530 64.1350
" />
<path d="M149.6000 58.9000
L154.0000 58.9000
" />
<path d="M157.7500 58.9000
L161.2290 62.3790
" />
<path d="M161.2290 62.3790
L161.2290 63.8110
" />
<path d="M161.5530 64.1350
L162.9850 64.1350
" />
<path d="M154.0000 56.1000
L155.7500 56.1000
" />
<path d="M155.7500 56.1000
L158.5000 53.3500
" />
<path d="M145.5000 56.0000
L144.0000 57.5000
" />
<path d="M169.6500 54.6500
L172.5000 57.5000
" />
<path d="M145.5000 71.0000
L144.0000 72.5000
" />
<path d="M144.0000 72.5000
L144.0000 79.5000
" />
<path d="M147.5000 71.0000
L145.5000 71.0000
" />
<path d="M145.5000 81.0000
L147.5000 81.0000
" />
<path d="M144.0000 57.5000
L144.0000 68.5000
" />
<path d="M163.5000 54.6500
L169.6500 54.6500
" />
<path d="M144.0000 68.5000
L146.5000 71.0000
" />
<path d="M146.5000 71.0000
L147.5000 71.0000
" />
<path d="M144.0000 79.5000
L145.5000 81.0000
" />
<path d="M147.5000 56.0000
L145.5000 56.0000
" />
<path d="M147.5000 66.0000
L154.5000 73.0000
" />
<path d="M154.5000 73.0000
L164.0000 73.0000
" />
<path d="M164.7850 73.7850
L164.7850 76.3000
" />
<path d="M164.0000 73.0000
L164.7850 73.7850
" />
<path d="M147.5000 77.4760
L154.8800 84.8560
" />
<path d="M154.8800 84.8560
L154.8800 90.7850
" />
<path d="M147.5000 76.0000
L147.5000 77.4760
" />
</g>
<g style="fill:none; 
stroke:#000000; stroke-width:0.3000; stroke-opacity:1; 
stroke-linecap:round; stroke-linejoin:round;">
<path d="M192.6130 96.8870
L191.5000 98.0000
" />
<path d="M192.5000 77.5000
L192.6130 77.6130
" />
<path d="M192.6130 77.6130
L192.6130 96.8870
" />
<path d="M190.0730 77.5730
L190.0730 96.8870
" />
<path d="M190.0730 96.8870
L188.9600 98.0000
" />
<path d="M188.5000 76.0000
L190.0730 77.5730
" />
</g>
<g style="fill:none; 
stroke:#000000; stroke-width:0.7000; stroke-opacity:1; 
stroke-linecap:round; stroke-linejoin:round;">
<path d="M163.9800 66.0000
L165.4700 66.0000
" />
<path d="M166.4900 66.0000
L167.9900 66.0000
" />
<path d="M169.0100 66.0000
L170.4800 66.0000
" />
</g>
<g style="fill:none; 
stroke:#000000; stroke-width:0.3000; stroke-opacity:1; 
stroke-linecap:round; stroke-linejoin:round;">
<path d="M171.9375 82.0625
L174.0300 79.9700
" />
</g>
<g style="fill:none; 
stroke:#000000; stroke-width:0.7000; stroke-opacity:1; 
stroke-linecap:round; stroke-linejoin:round;">
<path d="M168.5000 63.5000
L171.8500 63.5000
" />
<path d="M171.8500 63.5000
L174.0300 65.6800
" />
</g>
<g style="fill:none; 
stroke:#000000; stroke-width:0.3000; stroke-opacity:1; 
stroke-linecap:round; stroke-linejoin:round;">
<path d="M167.5321 98.3010
L168.1990 98.3010
" />
<path d="M169.5000 87.5000
L171.8490 85.1510
" />
</g>
<g style="fill:none; 
stroke:#000000; stroke-width:0.7000; stroke-opacity:1; 
stroke-linecap:round; stroke-linejoin:round;">
<path d="M163.2800 62.2300
L167.2300 62.2300
" />
</g>
<g style="fill:none; 
stroke:#000000; stroke-width:0.3000; stroke-opacity:1; 
stroke-linecap:round; stroke-linejoin:round;">
<path d="M169.0000 97.5000
L169.0000 94.1187
" />
<path d="M171.8490 85.1510
L171.8490 83.9375
" />
<path d="M169.3490 93.7697
L169.3490 93.2303
" />
</g>
<g style="fill:none; 
stroke:#000000; stroke-width:0.7000; stroke-opacity:1; 
stroke-linecap:round; stroke-linejoin:round;">
<path d="M167.2300 62.2300
L168.5000 63.5000
" />
</g>
<g style="fill:none; 
stroke:#000000; stroke-width:0.3000; stroke-opacity:1; 
stroke-linecap:round; stroke-linejoin:round;">
<path d="M169.0000 94.1187
L169.3490 93.7697
" />
<path d="M169.3490 93.2303
L169.5000 93.0793
" />
<path d="M171.9375 83.8490
L171.9375 82.0625
" />
</g>
<g style="fill:none; 
stroke:#000000; stroke-width:0.7000; stroke-opacity:1; 
stroke-linecap:round; stroke-linejoin:round;">
<path d="M174.0300 66.0000
L175.5100 66.0000
" />
</g>
<g style="fill:none; 
stroke:#000000; stroke-width:0.3000; stroke-opacity:1; 
stroke-linecap:round; stroke-linejoin:round;">
<path d="M171.8490 83.9375
L171.9375 83.8490
" />
<path d="M168.1990 98.3010
L169.0000 97.5000
" />
</g>
<g style="fill:none; 
stroke:#000000; stroke-width:0.7000; stroke-opacity:1; 
stroke-linecap:round; stroke-linejoin:round;">
<path d="M174.0300 65.6800
L174.0300 66.0000
" />
</g>
<g style="fill:none; 
stroke:#000000; stroke-width:0.3000; stroke-opacity:1; 
stroke-linecap:round; stroke-linejoin:round;">
<path d="M174.0300 79.9700
L174.0300 66.0000
" />
<path d="M169.5000 93.0793
L169.5000 87.5000
" />
<path d="M174.0000 96.5000
L176.0000 94.5000
" />
<path d="M176.0000 94.5000
L180.3800 94.5000
" />
<path d="M180.3800 94.5000
L183.8800 98.0000
" />
<path d="M181.3400 86.6600
L181.3400 82.7600
" />
<path d="M171.9980 91.3000
L176.7000 91.3000
" />
<path d="M176.7000 91.3000
L181.3400 86.6600
" />
<path d="M179.3400 96.0000
L181.3400 98.0000
" />
<path d="M176.0000 96.0000
L179.3400 96.0000
" />
</g>
<g style="fill:none; 
stroke:#000000; stroke-width:0.7000; stroke-opacity:1; 
stroke-linecap:round; stroke-linejoin:round;">
<path d="M171.5000 66.0000
L173.0100 66.0000
" />
</g>
<g style="fill:none; 
stroke:#000000; stroke-width:0.3000; stroke-opacity:1; 
stroke-linecap:round; stroke-linejoin:round;">
<path d="M171.0000 88.5000
L171.0000 94.0000
" />
<path d="M171.0000 94.0000
L172.0000 95.0000
" />
<path d="M170.5100 88.0100
L171.0000 88.5000
" />
<path d="M173.3813 95.0000
L173.7303 94.6510
" />
<path d="M174.9217 93.9990
L182.4190 93.9990
" />
<path d="M174.2697 94.6510
L174.9217 93.9990
" />
<path d="M173.7303 94.6510
L174.2697 94.6510
" />
<path d="M172.0000 95.0000
L173.3813 95.0000
" />
<path d="M182.4190 93.9990
L186.4200 98.0000
" />
<path d="M181.0000 72.0000
L185.5000 76.5000
" />
<path d="M181.0000 69.5000
L181.0000 72.0000
" />
</g>
<g style="fill:none; 
stroke:#000000; stroke-width:2.0000; stroke-opacity:1; 
stroke-linecap:round; stroke-linejoin:round;">
<path d="M154.6250 63.2330
L154.6250 67.6800
" />
<path d="M154.9930 62.8650
L154.6250 63.2330
" />
<path d="M157.0150 62.8650
L154.9930 62.8650
" />
</g>
<g style="fill:none; 
stroke:#000000; stroke-width:0.3000; stroke-opacity:1; 
stroke-linecap:round; stroke-linejoin:round;">
<path d="M167.4990 86.7925
L167.5000 86.7915
" />
<path d="M167.3490 94.7697
L167.3490 94.2303
" />
<path d="M168.0000 81.6187
L169.5000 80.1187
" />
<path d="M169.5000 80.1187
L169.5000 70.1810
" />
<path d="M167.5000 86.5000
L168.0000 86.0000
" />
<path d="M168.0000 86.0000
L168.0000 81.6187
" />
<path d="M167.3803 90.7359
L166.9990 90.3546
" />
<path d="M167.4990 89.4339
L167.4990 86.7925
" />
<path d="M167.5000 94.0793
L167.5000 90.7359
" />
<path d="M166.9990 89.8153
L167.3803 89.4339
" />
<path d="M167.3490 94.2303
L167.5000 94.0793
" />
<path d="M166.9990 90.3546
L166.9990 89.8153
" />
<path d="M161.4500 69.5000
L156.7200 64.7700
" />
<path d="M167.5000 86.7915
L167.5000 86.5000
" />
<path d="M167.5000 94.9207
L167.3490 94.7697
" />
<path d="M167.5000 97.0000
L167.5000 94.9207
" />
<path d="M168.5623 69.5000
L161.4500 69.5000
" />
<path d="M169.2433 70.1810
L168.5623 69.5000
" />
<path d="M169.5000 70.1810
L169.2433 70.1810
" />
<path d="M167.5000 90.7359
L167.3803 90.7359
" />
<path d="M167.3803 89.4339
L167.4990 89.4339
" />
<path d="M168.0000 87.0000
L169.5000 85.5000
" />
<path d="M153.1560 99.9060
L155.5940 99.9060
" />
<path d="M170.5000 84.5000
L169.5000 85.5000
" />
<path d="M170.5000 83.0000
L170.5000 84.5000
" />
<path d="M147.5000 94.2500
L153.1560 99.9060
" />
<path d="M155.5940 99.9060
L165.5000 90.0000
" />
<path d="M168.0000 89.7349
L168.0000 87.0000
" />
<path d="M167.6500 90.0849
L168.0000 89.7349
" />
</g> 
</svg>
