<?xml version="1.0" standalone="no"?>
 <!DOCTYPE svg PUBLIC "-//W3C//DTD SVG 1.1//EN" 
 "http://www.w3.org/Graphics/SVG/1.1/DTD/svg11.dtd"> 
<svg
  xmlns:svg="http://www.w3.org/2000/svg"
  xmlns="http://www.w3.org/2000/svg"
  xmlns:xlink="http://www.w3.org/1999/xlink"
  version="1.1"
  width="297.0022mm" height="210.0072mm" viewBox="0.0000 0.0000 297.0022 210.0072">
<title>SVG Image created as RelaySwitch_C6-F_Mask.svg date 2026/03/09 13:05:11 </title>
  <desc>Image generated by PCBNEW </desc>
<g style="fill:#000000; fill-opacity:1.0000;stroke:#000000; stroke-opacity:1.0000;
stroke-linecap:round; stroke-linejoin:round;"
 transform="translate(0 0) scale(1 1)">
</g>
<g style="fill:#000000; fill-opacity:1.0000; stroke:none;">
<circle cx="191.5000" cy="57.5000" r="0.8560" /> 
</g>
<g style="fill:#000000; fill-opacity:1.0000; stroke:none;">
<circle cx="189.0000" cy="57.5000" r="0.8560" /> 
</g>
<g style="fill:#000000; fill-opacity:1.0000; stroke:none;">
<circle cx="172.5000" cy="57.5000" r="0.8560" /> 
</g>
<g style="fill:#000000; fill-opacity:1.0000; stroke:none;">
<circle cx="167.5000" cy="57.5000" r="0.8560" /> 
</g>
<g style="fill:#000000; fill-opacity:1.0000; stroke:none;">
<circle cx="147.5000" cy="76.0000" r="1.0000" /> 
</g>
<g style="fill:#000000; fill-opacity:1.0000; stroke:none;">
<circle cx="147.5000" cy="81.0000" r="1.0000" /> 
<path style="fill:#000000; fill-opacity:1.0000; stroke:none;fill-rule:evenodd;"
d="M 167.7200,65.8150
167.7303,65.7633
167.7595,65.7195
167.8033,65.6903
167.8550,65.6800
168.1250,65.6800
168.1767,65.6903
168.2205,65.7195
168.2497,65.7633
168.2600,65.8150
168.2600,66.1850
168.2497,66.2367
168.2205,66.2805
168.1767,66.3097
168.1250,66.3200
167.8550,66.3200
167.8033,66.3097
167.7595,66.2805
167.7303,66.2367
167.7200,66.1850
Z" /> 
<path style="fill:#000000; fill-opacity:1.0000; stroke:none;fill-rule:evenodd;"
d="M 168.7400,65.8150
168.7503,65.7633
168.7795,65.7195
168.8233,65.6903
168.8750,65.6800
169.1450,65.6800
169.1967,65.6903
169.2405,65.7195
169.2697,65.7633
169.2800,65.8150
169.2800,66.1850
169.2697,66.2367
169.2405,66.2805
169.1967,66.3097
169.1450,66.3200
168.8750,66.3200
168.8233,66.3097
168.7795,66.2805
168.7503,66.2367
168.7400,66.1850
Z" /> 
</g>
<g style="fill:#000000; fill-opacity:1.0000; stroke:none;">
<circle cx="158.5000" cy="53.3500" r="0.8000" /> 
</g>
<g style="fill:#000000; fill-opacity:1.0000; stroke:none;">
<circle cx="163.5000" cy="54.6500" r="0.8000" /> 
<path style="fill:#000000; fill-opacity:1.0000; stroke:none;fill-rule:evenodd;"
d="M 170.2100,65.8150
170.2203,65.7633
170.2495,65.7195
170.2933,65.6903
170.3450,65.6800
170.6150,65.6800
170.6667,65.6903
170.7105,65.7195
170.7397,65.7633
170.7500,65.8150
170.7500,66.1850
170.7397,66.2367
170.7105,66.2805
170.6667,66.3097
170.6150,66.3200
170.3450,66.3200
170.2933,66.3097
170.2495,66.2805
170.2203,66.2367
170.2100,66.1850
Z" /> 
<path style="fill:#000000; fill-opacity:1.0000; stroke:none;fill-rule:evenodd;"
d="M 171.2300,65.8150
171.2403,65.7633
171.2695,65.7195
171.3133,65.6903
171.3650,65.6800
171.6350,65.6800
171.6867,65.6903
171.7305,65.7195
171.7597,65.7633
171.7700,65.8150
171.7700,66.1850
171.7597,66.2367
171.7305,66.2805
171.6867,66.3097
171.6350,66.3200
171.3650,66.3200
171.3133,66.3097
171.2695,66.2805
171.2403,66.2367
171.2300,66.1850
Z" /> 
<path style="fill:#000000; fill-opacity:1.0000; stroke:none;fill-rule:evenodd;"
d="M 164.2320,62.6100
164.2242,62.6490
164.2021,62.6821
164.1690,62.7042
164.1300,62.7120
162.4300,62.7120
162.3910,62.7042
162.3579,62.6821
162.3358,62.6490
162.3280,62.6100
162.3280,61.8500
162.3358,61.8110
162.3579,61.7779
162.3910,61.7558
162.4300,61.7480
164.1300,61.7480
164.1690,61.7558
164.2021,61.7779
164.2242,61.8110
164.2320,61.8500
Z" /> 
<path style="fill:#000000; fill-opacity:1.0000; stroke:none;fill-rule:evenodd;"
d="M 157.6720,65.1500
157.6642,65.1890
157.6421,65.2221
157.6090,65.2442
157.5700,65.2520
155.8700,65.2520
155.8310,65.2442
155.7979,65.2221
155.7758,65.1890
155.7680,65.1500
155.7680,64.3900
155.7758,64.3510
155.7979,64.3179
155.8310,64.2958
155.8700,64.2880
157.5700,64.2880
157.6090,64.2958
157.6421,64.3179
157.6642,64.3510
157.6720,64.3900
Z" /> 
<path style="fill:#000000; fill-opacity:1.0000; stroke:none;fill-rule:evenodd;"
d="M 164.2320,65.1500
164.2242,65.1890
164.2021,65.2221
164.1690,65.2442
164.1300,65.2520
161.8400,65.2520
161.8010,65.2442
161.7679,65.2221
161.7458,65.1890
161.7380,65.1500
161.7380,63.1200
161.7458,63.0810
161.7679,63.0479
161.8010,63.0258
161.8400,63.0180
164.1300,63.0180
164.1690,63.0258
164.2021,63.0479
164.2242,63.0810
164.2320,63.1200
Z" /> 
<path style="fill:#000000; fill-opacity:1.0000; stroke:none;fill-rule:evenodd;"
d="M 158.2620,63.8800
158.2542,63.9190
158.2321,63.9521
158.1990,63.9742
158.1600,63.9820
155.8700,63.9820
155.8310,63.9742
155.7979,63.9521
155.7758,63.9190
155.7680,63.8800
155.7680,61.8500
155.7758,61.8110
155.7979,61.7779
155.8310,61.7558
155.8700,61.7480
158.1600,61.7480
158.1990,61.7558
158.2321,61.7779
158.2542,61.8110
158.2620,61.8500
Z" /> 
<path style="fill:#000000; fill-opacity:1.0000; stroke:none;fill-rule:evenodd;"
d="M 165.2000,65.8150
165.2103,65.7633
165.2395,65.7195
165.2833,65.6903
165.3350,65.6800
165.6050,65.6800
165.6567,65.6903
165.7005,65.7195
165.7297,65.7633
165.7400,65.8150
165.7400,66.1850
165.7297,66.2367
165.7005,66.2805
165.6567,66.3097
165.6050,66.3200
165.3350,66.3200
165.2833,66.3097
165.2395,66.2805
165.2103,66.2367
165.2000,66.1850
Z" /> 
<path style="fill:#000000; fill-opacity:1.0000; stroke:none;fill-rule:evenodd;"
d="M 166.2200,65.8150
166.2303,65.7633
166.2595,65.7195
166.3033,65.6903
166.3550,65.6800
166.6250,65.6800
166.6767,65.6903
166.7205,65.7195
166.7497,65.7633
166.7600,65.8150
166.7600,66.1850
166.7497,66.2367
166.7205,66.2805
166.6767,66.3097
166.6250,66.3200
166.3550,66.3200
166.3033,66.3097
166.2595,66.2805
166.2303,66.2367
166.2200,66.1850
Z" /> 
<path style="fill:#000000; fill-opacity:1.0000; stroke:none;fill-rule:evenodd;"
d="M 175.2400,65.8150
175.2503,65.7633
175.2795,65.7195
175.3233,65.6903
175.3750,65.6800
175.6450,65.6800
175.6967,65.6903
175.7405,65.7195
175.7697,65.7633
175.7800,65.8150
175.7800,66.1850
175.7697,66.2367
175.7405,66.2805
175.6967,66.3097
175.6450,66.3200
175.3750,66.3200
175.3233,66.3097
175.2795,66.2805
175.2503,66.2367
175.2400,66.1850
Z" /> 
<path style="fill:#000000; fill-opacity:1.0000; stroke:none;fill-rule:evenodd;"
d="M 176.2600,65.8150
176.2703,65.7633
176.2995,65.7195
176.3433,65.6903
176.3950,65.6800
176.6650,65.6800
176.7167,65.6903
176.7605,65.7195
176.7897,65.7633
176.8000,65.8150
176.8000,66.1850
176.7897,66.2367
176.7605,66.2805
176.7167,66.3097
176.6650,66.3200
176.3950,66.3200
176.3433,66.3097
176.2995,66.2805
176.2703,66.2367
176.2600,66.1850
Z" /> 
<path style="fill:#000000; fill-opacity:1.0000; stroke:none;fill-rule:evenodd;"
d="M 172.7400,65.8150
172.7503,65.7633
172.7795,65.7195
172.8233,65.6903
172.8750,65.6800
173.1450,65.6800
173.1967,65.6903
173.2405,65.7195
173.2697,65.7633
173.2800,65.8150
173.2800,66.1850
173.2697,66.2367
173.2405,66.2805
173.1967,66.3097
173.1450,66.3200
172.8750,66.3200
172.8233,66.3097
172.7795,66.2805
172.7503,66.2367
172.7400,66.1850
Z" /> 
<path style="fill:#000000; fill-opacity:1.0000; stroke:none;fill-rule:evenodd;"
d="M 173.7600,65.8150
173.7703,65.7633
173.7995,65.7195
173.8433,65.6903
173.8950,65.6800
174.1650,65.6800
174.2167,65.6903
174.2605,65.7195
174.2897,65.7633
174.3000,65.8150
174.3000,66.1850
174.2897,66.2367
174.2605,66.2805
174.2167,66.3097
174.1650,66.3200
173.8950,66.3200
173.8433,66.3097
173.7995,66.2805
173.7703,66.2367
173.7600,66.1850
Z" /> 
</g>
<g style="fill:#000000; fill-opacity:1.0000; stroke:none;">
<circle cx="147.5000" cy="94.2500" r="1.0000" /> 
</g>
<g style="fill:#000000; fill-opacity:1.0000; stroke:none;">
<circle cx="147.5000" cy="99.2500" r="1.0000" /> 
<path style="fill:#000000; fill-opacity:1.0000; stroke:none;fill-rule:evenodd;"
d="M 153.3750,59.5250
153.2793,59.5060
153.1982,59.4518
153.1440,59.3707
153.1250,59.2750
153.1250,58.5250
153.1440,58.4293
153.1982,58.3482
153.2793,58.2940
153.3750,58.2750
154.6250,58.2750
154.7207,58.2940
154.8018,58.3482
154.8560,58.4293
154.8750,58.5250
154.8750,59.2750
154.8560,59.3707
154.8018,59.4518
154.7207,59.5060
154.6250,59.5250
Z" /> 
<path style="fill:#000000; fill-opacity:1.0000; stroke:none;fill-rule:evenodd;"
d="M 153.3750,56.7250
153.2793,56.7060
153.1982,56.6518
153.1440,56.5707
153.1250,56.4750
153.1250,55.7250
153.1440,55.6293
153.1982,55.5482
153.2793,55.4940
153.3750,55.4750
154.6250,55.4750
154.7207,55.4940
154.8018,55.5482
154.8560,55.6293
154.8750,55.7250
154.8750,56.4750
154.8560,56.5707
154.8018,56.6518
154.7207,56.7060
154.6250,56.7250
Z" /> 
<path style="fill:#000000; fill-opacity:1.0000; stroke:none;fill-rule:evenodd;"
d="M 155.7750,75.1500
155.7750,77.4500
153.4750,77.4500
153.4750,75.1500
Z" /> 
</g>
<g style="fill:#000000; fill-opacity:1.0000; stroke:none;">
<circle cx="164.7850" cy="76.3000" r="1.1500" /> 
</g>
<g style="fill:#000000; fill-opacity:1.0000; stroke:none;">
<circle cx="172.4050" cy="76.3000" r="1.1500" /> 
</g>
<g style="fill:#000000; fill-opacity:1.0000; stroke:none;">
<circle cx="169.8650" cy="68.6800" r="1.1500" /> 
</g>
<g style="fill:#000000; fill-opacity:1.0000; stroke:none;">
<circle cx="154.6250" cy="68.6800" r="1.1500" /> 
<path style="fill:#000000; fill-opacity:1.0000; stroke:none;fill-rule:evenodd;"
d="M 156.0300,81.7750
153.7300,81.7750
153.7300,79.4750
156.0300,79.4750
Z" /> 
</g>
<g style="fill:#000000; fill-opacity:1.0000; stroke:none;">
<circle cx="154.8800" cy="90.7850" r="1.1500" /> 
</g>
<g style="fill:#000000; fill-opacity:1.0000; stroke:none;">
<circle cx="154.8800" cy="98.4050" r="1.1500" /> 
</g>
<g style="fill:#000000; fill-opacity:1.0000; stroke:none;">
<circle cx="162.5000" cy="95.8650" r="1.1500" /> 
</g>
<g style="fill:#000000; fill-opacity:1.0000; stroke:none;">
<circle cx="162.5000" cy="80.6250" r="1.1500" /> 
<path style="fill:#000000; fill-opacity:1.0000; stroke:none;fill-rule:evenodd;"
d="M 162.6900,65.8150
162.7003,65.7633
162.7295,65.7195
162.7733,65.6903
162.8250,65.6800
163.0950,65.6800
163.1467,65.6903
163.1905,65.7195
163.2197,65.7633
163.2300,65.8150
163.2300,66.1850
163.2197,66.2367
163.1905,66.2805
163.1467,66.3097
163.0950,66.3200
162.8250,66.3200
162.7733,66.3097
162.7295,66.2805
162.7003,66.2367
162.6900,66.1850
Z" /> 
<path style="fill:#000000; fill-opacity:1.0000; stroke:none;fill-rule:evenodd;"
d="M 163.7100,65.8150
163.7203,65.7633
163.7495,65.7195
163.7933,65.6903
163.8450,65.6800
164.1150,65.6800
164.1667,65.6903
164.2105,65.7195
164.2397,65.7633
164.2500,65.8150
164.2500,66.1850
164.2397,66.2367
164.2105,66.2805
164.1667,66.3097
164.1150,66.3200
163.8450,66.3200
163.7933,66.3097
163.7495,66.2805
163.7203,66.2367
163.7100,66.1850
Z" /> 
</g>
<g style="fill:#000000; fill-opacity:1.0000; stroke:none;">
<circle cx="147.5000" cy="66.0000" r="1.0000" /> 
</g>
<g style="fill:#000000; fill-opacity:1.0000; stroke:none;">
<circle cx="147.5000" cy="71.0000" r="1.0000" /> 
</g>
<g style="fill:#000000; fill-opacity:1.0000; stroke:none;">
<circle cx="147.5000" cy="86.0000" r="1.0000" /> 
</g>
<g style="fill:#000000; fill-opacity:1.0000; stroke:none;">
<circle cx="147.5000" cy="91.0000" r="1.0000" /> 
</g>
<g style="fill:#000000; fill-opacity:1.0000; stroke:none;">
<circle cx="147.5000" cy="51.0000" r="1.1500" /> 
</g>
<g style="fill:#000000; fill-opacity:1.0000; stroke:none;">
<circle cx="147.5000" cy="56.0000" r="1.1500" /> 
</g>
<g style="fill:#000000; fill-opacity:1.0000; stroke:none;">
<circle cx="147.5000" cy="61.0000" r="1.1500" /> 
</g>
<g style="fill:#000000; fill-opacity:1.0000; stroke:none;">
<circle cx="191.5000" cy="98.0000" r="0.7620" /> 
</g>
<g style="fill:#000000; fill-opacity:1.0000; stroke:none;">
<circle cx="188.9600" cy="98.0000" r="0.7620" /> 
</g>
<g style="fill:#000000; fill-opacity:1.0000; stroke:none;">
<circle cx="186.4200" cy="98.0000" r="0.7620" /> 
</g>
<g style="fill:#000000; fill-opacity:1.0000; stroke:none;">
<circle cx="183.8800" cy="98.0000" r="0.7620" /> 
</g>
<g style="fill:#000000; fill-opacity:1.0000; stroke:none;">
<circle cx="181.3400" cy="98.0000" r="0.7620" /> 
</g>
<g style="fill:#000000; fill-opacity:1.0000; stroke:none;">
<circle cx="178.8000" cy="98.0000" r="0.7620" /> 
</g>
<g style="fill:#000000; fill-opacity:1.0000; stroke:none;">
<circle cx="176.2600" cy="98.0000" r="0.7620" /> 
</g>
<g style="fill:#000000; fill-opacity:1.0000; stroke:none;">
<circle cx="176.2600" cy="82.7600" r="0.7620" /> 
</g>
<g style="fill:#000000; fill-opacity:1.0000; stroke:none;">
<circle cx="178.8000" cy="82.7600" r="0.7620" /> 
</g>
<g style="fill:#000000; fill-opacity:1.0000; stroke:none;">
<circle cx="181.3400" cy="82.7600" r="0.7620" /> 
</g>
<g style="fill:#000000; fill-opacity:1.0000; stroke:none;">
<circle cx="183.8800" cy="82.7600" r="0.7620" /> 
</g>
<g style="fill:#000000; fill-opacity:1.0000; stroke:none;">
<circle cx="186.4200" cy="82.7600" r="0.7620" /> 
</g>
<g style="fill:#000000; fill-opacity:1.0000; stroke:none;">
<circle cx="188.9600" cy="82.7600" r="0.7620" /> 
</g>
<g style="fill:#000000; fill-opacity:1.0000; stroke:none;">
<circle cx="191.5000" cy="82.7600" r="0.7620" /> 
</g> 
</svg>
