%TF.GenerationSoftware,KiCad,Pcbnew,9.0.7*%
%TF.CreationDate,2026-02-24T19:06:29+01:00*%
%TF.ProjectId,CM5_MINIMA_3,434d355f-4d49-44e4-994d-415f332e6b69,2*%
%TF.SameCoordinates,PX4a87970PY6ef8408*%
%TF.FileFunction,AssemblyDrawing,Bot*%
%FSLAX46Y46*%
G04 Gerber Fmt 4.6, Leading zero omitted, Abs format (unit mm)*
G04 Created by KiCad (PCBNEW 9.0.7) date 2026-02-24 19:06:29*
%MOMM*%
%LPD*%
G01*
G04 APERTURE LIST*
%ADD10C,0.040000*%
%ADD11C,0.100000*%
%ADD12C,0.110000*%
%ADD13C,0.150000*%
%ADD14C,0.060000*%
%TA.AperFunction,Profile*%
%ADD15C,0.050000*%
%TD*%
G04 APERTURE END LIST*
D10*
X46530951Y17351800D02*
X46617618Y17475609D01*
X46679523Y17351800D02*
X46679523Y17611800D01*
X46679523Y17611800D02*
X46580475Y17611800D01*
X46580475Y17611800D02*
X46555713Y17599419D01*
X46555713Y17599419D02*
X46543332Y17587038D01*
X46543332Y17587038D02*
X46530951Y17562276D01*
X46530951Y17562276D02*
X46530951Y17525133D01*
X46530951Y17525133D02*
X46543332Y17500371D01*
X46543332Y17500371D02*
X46555713Y17487990D01*
X46555713Y17487990D02*
X46580475Y17475609D01*
X46580475Y17475609D02*
X46679523Y17475609D01*
X46283332Y17351800D02*
X46431904Y17351800D01*
X46357618Y17351800D02*
X46357618Y17611800D01*
X46357618Y17611800D02*
X46382380Y17574657D01*
X46382380Y17574657D02*
X46407142Y17549895D01*
X46407142Y17549895D02*
X46431904Y17537514D01*
X46122380Y17611800D02*
X46097618Y17611800D01*
X46097618Y17611800D02*
X46072856Y17599419D01*
X46072856Y17599419D02*
X46060475Y17587038D01*
X46060475Y17587038D02*
X46048094Y17562276D01*
X46048094Y17562276D02*
X46035713Y17512752D01*
X46035713Y17512752D02*
X46035713Y17450847D01*
X46035713Y17450847D02*
X46048094Y17401323D01*
X46048094Y17401323D02*
X46060475Y17376561D01*
X46060475Y17376561D02*
X46072856Y17364180D01*
X46072856Y17364180D02*
X46097618Y17351800D01*
X46097618Y17351800D02*
X46122380Y17351800D01*
X46122380Y17351800D02*
X46147142Y17364180D01*
X46147142Y17364180D02*
X46159523Y17376561D01*
X46159523Y17376561D02*
X46171904Y17401323D01*
X46171904Y17401323D02*
X46184285Y17450847D01*
X46184285Y17450847D02*
X46184285Y17512752D01*
X46184285Y17512752D02*
X46171904Y17562276D01*
X46171904Y17562276D02*
X46159523Y17587038D01*
X46159523Y17587038D02*
X46147142Y17599419D01*
X46147142Y17599419D02*
X46122380Y17611800D01*
X45949047Y17611800D02*
X45788094Y17611800D01*
X45788094Y17611800D02*
X45874761Y17512752D01*
X45874761Y17512752D02*
X45837618Y17512752D01*
X45837618Y17512752D02*
X45812856Y17500371D01*
X45812856Y17500371D02*
X45800475Y17487990D01*
X45800475Y17487990D02*
X45788094Y17463228D01*
X45788094Y17463228D02*
X45788094Y17401323D01*
X45788094Y17401323D02*
X45800475Y17376561D01*
X45800475Y17376561D02*
X45812856Y17364180D01*
X45812856Y17364180D02*
X45837618Y17351800D01*
X45837618Y17351800D02*
X45911904Y17351800D01*
X45911904Y17351800D02*
X45936666Y17364180D01*
X45936666Y17364180D02*
X45949047Y17376561D01*
X5010951Y3041800D02*
X5097618Y3165609D01*
X5159523Y3041800D02*
X5159523Y3301800D01*
X5159523Y3301800D02*
X5060475Y3301800D01*
X5060475Y3301800D02*
X5035713Y3289419D01*
X5035713Y3289419D02*
X5023332Y3277038D01*
X5023332Y3277038D02*
X5010951Y3252276D01*
X5010951Y3252276D02*
X5010951Y3215133D01*
X5010951Y3215133D02*
X5023332Y3190371D01*
X5023332Y3190371D02*
X5035713Y3177990D01*
X5035713Y3177990D02*
X5060475Y3165609D01*
X5060475Y3165609D02*
X5159523Y3165609D01*
X4763332Y3041800D02*
X4911904Y3041800D01*
X4837618Y3041800D02*
X4837618Y3301800D01*
X4837618Y3301800D02*
X4862380Y3264657D01*
X4862380Y3264657D02*
X4887142Y3239895D01*
X4887142Y3239895D02*
X4911904Y3227514D01*
X4602380Y3301800D02*
X4577618Y3301800D01*
X4577618Y3301800D02*
X4552856Y3289419D01*
X4552856Y3289419D02*
X4540475Y3277038D01*
X4540475Y3277038D02*
X4528094Y3252276D01*
X4528094Y3252276D02*
X4515713Y3202752D01*
X4515713Y3202752D02*
X4515713Y3140847D01*
X4515713Y3140847D02*
X4528094Y3091323D01*
X4528094Y3091323D02*
X4540475Y3066561D01*
X4540475Y3066561D02*
X4552856Y3054180D01*
X4552856Y3054180D02*
X4577618Y3041800D01*
X4577618Y3041800D02*
X4602380Y3041800D01*
X4602380Y3041800D02*
X4627142Y3054180D01*
X4627142Y3054180D02*
X4639523Y3066561D01*
X4639523Y3066561D02*
X4651904Y3091323D01*
X4651904Y3091323D02*
X4664285Y3140847D01*
X4664285Y3140847D02*
X4664285Y3202752D01*
X4664285Y3202752D02*
X4651904Y3252276D01*
X4651904Y3252276D02*
X4639523Y3277038D01*
X4639523Y3277038D02*
X4627142Y3289419D01*
X4627142Y3289419D02*
X4602380Y3301800D01*
X4367142Y3190371D02*
X4391904Y3202752D01*
X4391904Y3202752D02*
X4404285Y3215133D01*
X4404285Y3215133D02*
X4416666Y3239895D01*
X4416666Y3239895D02*
X4416666Y3252276D01*
X4416666Y3252276D02*
X4404285Y3277038D01*
X4404285Y3277038D02*
X4391904Y3289419D01*
X4391904Y3289419D02*
X4367142Y3301800D01*
X4367142Y3301800D02*
X4317618Y3301800D01*
X4317618Y3301800D02*
X4292856Y3289419D01*
X4292856Y3289419D02*
X4280475Y3277038D01*
X4280475Y3277038D02*
X4268094Y3252276D01*
X4268094Y3252276D02*
X4268094Y3239895D01*
X4268094Y3239895D02*
X4280475Y3215133D01*
X4280475Y3215133D02*
X4292856Y3202752D01*
X4292856Y3202752D02*
X4317618Y3190371D01*
X4317618Y3190371D02*
X4367142Y3190371D01*
X4367142Y3190371D02*
X4391904Y3177990D01*
X4391904Y3177990D02*
X4404285Y3165609D01*
X4404285Y3165609D02*
X4416666Y3140847D01*
X4416666Y3140847D02*
X4416666Y3091323D01*
X4416666Y3091323D02*
X4404285Y3066561D01*
X4404285Y3066561D02*
X4391904Y3054180D01*
X4391904Y3054180D02*
X4367142Y3041800D01*
X4367142Y3041800D02*
X4317618Y3041800D01*
X4317618Y3041800D02*
X4292856Y3054180D01*
X4292856Y3054180D02*
X4280475Y3066561D01*
X4280475Y3066561D02*
X4268094Y3091323D01*
X4268094Y3091323D02*
X4268094Y3140847D01*
X4268094Y3140847D02*
X4280475Y3165609D01*
X4280475Y3165609D02*
X4292856Y3177990D01*
X4292856Y3177990D02*
X4317618Y3190371D01*
D11*
X23099240Y44094878D02*
X23544478Y44094878D01*
X23544478Y44094878D02*
X23596859Y44068688D01*
X23596859Y44068688D02*
X23623050Y44042497D01*
X23623050Y44042497D02*
X23649240Y43990116D01*
X23649240Y43990116D02*
X23649240Y43885354D01*
X23649240Y43885354D02*
X23623050Y43832973D01*
X23623050Y43832973D02*
X23596859Y43806783D01*
X23596859Y43806783D02*
X23544478Y43780592D01*
X23544478Y43780592D02*
X23099240Y43780592D01*
X23282573Y43282974D02*
X23649240Y43282974D01*
X23073050Y43413926D02*
X23465907Y43544879D01*
X23465907Y43544879D02*
X23465907Y43204402D01*
X23099240Y42890116D02*
X23099240Y42837735D01*
X23099240Y42837735D02*
X23125430Y42785354D01*
X23125430Y42785354D02*
X23151621Y42759164D01*
X23151621Y42759164D02*
X23204002Y42732973D01*
X23204002Y42732973D02*
X23308764Y42706783D01*
X23308764Y42706783D02*
X23439716Y42706783D01*
X23439716Y42706783D02*
X23544478Y42732973D01*
X23544478Y42732973D02*
X23596859Y42759164D01*
X23596859Y42759164D02*
X23623050Y42785354D01*
X23623050Y42785354D02*
X23649240Y42837735D01*
X23649240Y42837735D02*
X23649240Y42890116D01*
X23649240Y42890116D02*
X23623050Y42942497D01*
X23623050Y42942497D02*
X23596859Y42968688D01*
X23596859Y42968688D02*
X23544478Y42994878D01*
X23544478Y42994878D02*
X23439716Y43021069D01*
X23439716Y43021069D02*
X23308764Y43021069D01*
X23308764Y43021069D02*
X23204002Y42994878D01*
X23204002Y42994878D02*
X23151621Y42968688D01*
X23151621Y42968688D02*
X23125430Y42942497D01*
X23125430Y42942497D02*
X23099240Y42890116D01*
X23649240Y42182973D02*
X23649240Y42497259D01*
X23649240Y42340116D02*
X23099240Y42340116D01*
X23099240Y42340116D02*
X23177811Y42392497D01*
X23177811Y42392497D02*
X23230192Y42444878D01*
X23230192Y42444878D02*
X23256383Y42497259D01*
D10*
X45898200Y19170952D02*
X45774391Y19257619D01*
X45898200Y19319524D02*
X45638200Y19319524D01*
X45638200Y19319524D02*
X45638200Y19220476D01*
X45638200Y19220476D02*
X45650581Y19195714D01*
X45650581Y19195714D02*
X45662962Y19183333D01*
X45662962Y19183333D02*
X45687724Y19170952D01*
X45687724Y19170952D02*
X45724867Y19170952D01*
X45724867Y19170952D02*
X45749629Y19183333D01*
X45749629Y19183333D02*
X45762010Y19195714D01*
X45762010Y19195714D02*
X45774391Y19220476D01*
X45774391Y19220476D02*
X45774391Y19319524D01*
X45898200Y18923333D02*
X45898200Y19071905D01*
X45898200Y18997619D02*
X45638200Y18997619D01*
X45638200Y18997619D02*
X45675343Y19022381D01*
X45675343Y19022381D02*
X45700105Y19047143D01*
X45700105Y19047143D02*
X45712486Y19071905D01*
X45638200Y18762381D02*
X45638200Y18737619D01*
X45638200Y18737619D02*
X45650581Y18712857D01*
X45650581Y18712857D02*
X45662962Y18700476D01*
X45662962Y18700476D02*
X45687724Y18688095D01*
X45687724Y18688095D02*
X45737248Y18675714D01*
X45737248Y18675714D02*
X45799153Y18675714D01*
X45799153Y18675714D02*
X45848677Y18688095D01*
X45848677Y18688095D02*
X45873439Y18700476D01*
X45873439Y18700476D02*
X45885820Y18712857D01*
X45885820Y18712857D02*
X45898200Y18737619D01*
X45898200Y18737619D02*
X45898200Y18762381D01*
X45898200Y18762381D02*
X45885820Y18787143D01*
X45885820Y18787143D02*
X45873439Y18799524D01*
X45873439Y18799524D02*
X45848677Y18811905D01*
X45848677Y18811905D02*
X45799153Y18824286D01*
X45799153Y18824286D02*
X45737248Y18824286D01*
X45737248Y18824286D02*
X45687724Y18811905D01*
X45687724Y18811905D02*
X45662962Y18799524D01*
X45662962Y18799524D02*
X45650581Y18787143D01*
X45650581Y18787143D02*
X45638200Y18762381D01*
X45662962Y18576667D02*
X45650581Y18564286D01*
X45650581Y18564286D02*
X45638200Y18539524D01*
X45638200Y18539524D02*
X45638200Y18477619D01*
X45638200Y18477619D02*
X45650581Y18452857D01*
X45650581Y18452857D02*
X45662962Y18440476D01*
X45662962Y18440476D02*
X45687724Y18428095D01*
X45687724Y18428095D02*
X45712486Y18428095D01*
X45712486Y18428095D02*
X45749629Y18440476D01*
X45749629Y18440476D02*
X45898200Y18589048D01*
X45898200Y18589048D02*
X45898200Y18428095D01*
D12*
X4806428Y5788756D02*
X4806428Y5181613D01*
X4806428Y5181613D02*
X4770714Y5110185D01*
X4770714Y5110185D02*
X4735000Y5074470D01*
X4735000Y5074470D02*
X4663571Y5038756D01*
X4663571Y5038756D02*
X4520714Y5038756D01*
X4520714Y5038756D02*
X4449285Y5074470D01*
X4449285Y5074470D02*
X4413571Y5110185D01*
X4413571Y5110185D02*
X4377857Y5181613D01*
X4377857Y5181613D02*
X4377857Y5788756D01*
X3627857Y5038756D02*
X4056428Y5038756D01*
X3842143Y5038756D02*
X3842143Y5788756D01*
X3842143Y5788756D02*
X3913571Y5681613D01*
X3913571Y5681613D02*
X3985000Y5610185D01*
X3985000Y5610185D02*
X4056428Y5574470D01*
D10*
X9565951Y54181800D02*
X9652618Y54305609D01*
X9714523Y54181800D02*
X9714523Y54441800D01*
X9714523Y54441800D02*
X9615475Y54441800D01*
X9615475Y54441800D02*
X9590713Y54429419D01*
X9590713Y54429419D02*
X9578332Y54417038D01*
X9578332Y54417038D02*
X9565951Y54392276D01*
X9565951Y54392276D02*
X9565951Y54355133D01*
X9565951Y54355133D02*
X9578332Y54330371D01*
X9578332Y54330371D02*
X9590713Y54317990D01*
X9590713Y54317990D02*
X9615475Y54305609D01*
X9615475Y54305609D02*
X9714523Y54305609D01*
X9343094Y54355133D02*
X9343094Y54181800D01*
X9404999Y54454180D02*
X9466904Y54268466D01*
X9466904Y54268466D02*
X9305951Y54268466D01*
X9157380Y54441800D02*
X9132618Y54441800D01*
X9132618Y54441800D02*
X9107856Y54429419D01*
X9107856Y54429419D02*
X9095475Y54417038D01*
X9095475Y54417038D02*
X9083094Y54392276D01*
X9083094Y54392276D02*
X9070713Y54342752D01*
X9070713Y54342752D02*
X9070713Y54280847D01*
X9070713Y54280847D02*
X9083094Y54231323D01*
X9083094Y54231323D02*
X9095475Y54206561D01*
X9095475Y54206561D02*
X9107856Y54194180D01*
X9107856Y54194180D02*
X9132618Y54181800D01*
X9132618Y54181800D02*
X9157380Y54181800D01*
X9157380Y54181800D02*
X9182142Y54194180D01*
X9182142Y54194180D02*
X9194523Y54206561D01*
X9194523Y54206561D02*
X9206904Y54231323D01*
X9206904Y54231323D02*
X9219285Y54280847D01*
X9219285Y54280847D02*
X9219285Y54342752D01*
X9219285Y54342752D02*
X9206904Y54392276D01*
X9206904Y54392276D02*
X9194523Y54417038D01*
X9194523Y54417038D02*
X9182142Y54429419D01*
X9182142Y54429419D02*
X9157380Y54441800D01*
X8984047Y54441800D02*
X8823094Y54441800D01*
X8823094Y54441800D02*
X8909761Y54342752D01*
X8909761Y54342752D02*
X8872618Y54342752D01*
X8872618Y54342752D02*
X8847856Y54330371D01*
X8847856Y54330371D02*
X8835475Y54317990D01*
X8835475Y54317990D02*
X8823094Y54293228D01*
X8823094Y54293228D02*
X8823094Y54231323D01*
X8823094Y54231323D02*
X8835475Y54206561D01*
X8835475Y54206561D02*
X8847856Y54194180D01*
X8847856Y54194180D02*
X8872618Y54181800D01*
X8872618Y54181800D02*
X8946904Y54181800D01*
X8946904Y54181800D02*
X8971666Y54194180D01*
X8971666Y54194180D02*
X8984047Y54206561D01*
D13*
X5790476Y11500420D02*
X5838095Y11452800D01*
X5838095Y11452800D02*
X5980952Y11405181D01*
X5980952Y11405181D02*
X6076190Y11405181D01*
X6076190Y11405181D02*
X6219047Y11452800D01*
X6219047Y11452800D02*
X6314285Y11548039D01*
X6314285Y11548039D02*
X6361904Y11643277D01*
X6361904Y11643277D02*
X6409523Y11833753D01*
X6409523Y11833753D02*
X6409523Y11976610D01*
X6409523Y11976610D02*
X6361904Y12167086D01*
X6361904Y12167086D02*
X6314285Y12262324D01*
X6314285Y12262324D02*
X6219047Y12357562D01*
X6219047Y12357562D02*
X6076190Y12405181D01*
X6076190Y12405181D02*
X5980952Y12405181D01*
X5980952Y12405181D02*
X5838095Y12357562D01*
X5838095Y12357562D02*
X5790476Y12309943D01*
X5361904Y11405181D02*
X5361904Y12405181D01*
X5361904Y12405181D02*
X4790476Y11405181D01*
X4790476Y11405181D02*
X4790476Y12405181D01*
X3790476Y11405181D02*
X4361904Y11405181D01*
X4076190Y11405181D02*
X4076190Y12405181D01*
X4076190Y12405181D02*
X4171428Y12262324D01*
X4171428Y12262324D02*
X4266666Y12167086D01*
X4266666Y12167086D02*
X4361904Y12119467D01*
X19510475Y5655181D02*
X19510475Y6655181D01*
X19510475Y6655181D02*
X19272380Y6655181D01*
X19272380Y6655181D02*
X19129523Y6607562D01*
X19129523Y6607562D02*
X19034285Y6512324D01*
X19034285Y6512324D02*
X18986666Y6417086D01*
X18986666Y6417086D02*
X18939047Y6226610D01*
X18939047Y6226610D02*
X18939047Y6083753D01*
X18939047Y6083753D02*
X18986666Y5893277D01*
X18986666Y5893277D02*
X19034285Y5798039D01*
X19034285Y5798039D02*
X19129523Y5702800D01*
X19129523Y5702800D02*
X19272380Y5655181D01*
X19272380Y5655181D02*
X19510475Y5655181D01*
X18081904Y6321848D02*
X18081904Y5655181D01*
X18319999Y6702800D02*
X18558094Y5988515D01*
X18558094Y5988515D02*
X17939047Y5988515D01*
X17367618Y6655181D02*
X17272380Y6655181D01*
X17272380Y6655181D02*
X17177142Y6607562D01*
X17177142Y6607562D02*
X17129523Y6559943D01*
X17129523Y6559943D02*
X17081904Y6464705D01*
X17081904Y6464705D02*
X17034285Y6274229D01*
X17034285Y6274229D02*
X17034285Y6036134D01*
X17034285Y6036134D02*
X17081904Y5845658D01*
X17081904Y5845658D02*
X17129523Y5750420D01*
X17129523Y5750420D02*
X17177142Y5702800D01*
X17177142Y5702800D02*
X17272380Y5655181D01*
X17272380Y5655181D02*
X17367618Y5655181D01*
X17367618Y5655181D02*
X17462856Y5702800D01*
X17462856Y5702800D02*
X17510475Y5750420D01*
X17510475Y5750420D02*
X17558094Y5845658D01*
X17558094Y5845658D02*
X17605713Y6036134D01*
X17605713Y6036134D02*
X17605713Y6274229D01*
X17605713Y6274229D02*
X17558094Y6464705D01*
X17558094Y6464705D02*
X17510475Y6559943D01*
X17510475Y6559943D02*
X17462856Y6607562D01*
X17462856Y6607562D02*
X17367618Y6655181D01*
X16700951Y6655181D02*
X16081904Y6655181D01*
X16081904Y6655181D02*
X16415237Y6274229D01*
X16415237Y6274229D02*
X16272380Y6274229D01*
X16272380Y6274229D02*
X16177142Y6226610D01*
X16177142Y6226610D02*
X16129523Y6178991D01*
X16129523Y6178991D02*
X16081904Y6083753D01*
X16081904Y6083753D02*
X16081904Y5845658D01*
X16081904Y5845658D02*
X16129523Y5750420D01*
X16129523Y5750420D02*
X16177142Y5702800D01*
X16177142Y5702800D02*
X16272380Y5655181D01*
X16272380Y5655181D02*
X16558094Y5655181D01*
X16558094Y5655181D02*
X16653332Y5702800D01*
X16653332Y5702800D02*
X16700951Y5750420D01*
X52437200Y10755714D02*
X52484819Y10612857D01*
X52484819Y10612857D02*
X52484819Y10374762D01*
X52484819Y10374762D02*
X52437200Y10279524D01*
X52437200Y10279524D02*
X52389580Y10231905D01*
X52389580Y10231905D02*
X52294342Y10184286D01*
X52294342Y10184286D02*
X52199104Y10184286D01*
X52199104Y10184286D02*
X52103866Y10231905D01*
X52103866Y10231905D02*
X52056247Y10279524D01*
X52056247Y10279524D02*
X52008628Y10374762D01*
X52008628Y10374762D02*
X51961009Y10565238D01*
X51961009Y10565238D02*
X51913390Y10660476D01*
X51913390Y10660476D02*
X51865771Y10708095D01*
X51865771Y10708095D02*
X51770533Y10755714D01*
X51770533Y10755714D02*
X51675295Y10755714D01*
X51675295Y10755714D02*
X51580057Y10708095D01*
X51580057Y10708095D02*
X51532438Y10660476D01*
X51532438Y10660476D02*
X51484819Y10565238D01*
X51484819Y10565238D02*
X51484819Y10327143D01*
X51484819Y10327143D02*
X51532438Y10184286D01*
X51484819Y9850952D02*
X52484819Y9612857D01*
X52484819Y9612857D02*
X51770533Y9422381D01*
X51770533Y9422381D02*
X52484819Y9231905D01*
X52484819Y9231905D02*
X51484819Y8993809D01*
X52484819Y8089048D02*
X52484819Y8660476D01*
X52484819Y8374762D02*
X51484819Y8374762D01*
X51484819Y8374762D02*
X51627676Y8470000D01*
X51627676Y8470000D02*
X51722914Y8565238D01*
X51722914Y8565238D02*
X51770533Y8660476D01*
X51484819Y7470000D02*
X51484819Y7374762D01*
X51484819Y7374762D02*
X51532438Y7279524D01*
X51532438Y7279524D02*
X51580057Y7231905D01*
X51580057Y7231905D02*
X51675295Y7184286D01*
X51675295Y7184286D02*
X51865771Y7136667D01*
X51865771Y7136667D02*
X52103866Y7136667D01*
X52103866Y7136667D02*
X52294342Y7184286D01*
X52294342Y7184286D02*
X52389580Y7231905D01*
X52389580Y7231905D02*
X52437200Y7279524D01*
X52437200Y7279524D02*
X52484819Y7374762D01*
X52484819Y7374762D02*
X52484819Y7470000D01*
X52484819Y7470000D02*
X52437200Y7565238D01*
X52437200Y7565238D02*
X52389580Y7612857D01*
X52389580Y7612857D02*
X52294342Y7660476D01*
X52294342Y7660476D02*
X52103866Y7708095D01*
X52103866Y7708095D02*
X51865771Y7708095D01*
X51865771Y7708095D02*
X51675295Y7660476D01*
X51675295Y7660476D02*
X51580057Y7612857D01*
X51580057Y7612857D02*
X51532438Y7565238D01*
X51532438Y7565238D02*
X51484819Y7470000D01*
X52484819Y6184286D02*
X52484819Y6755714D01*
X52484819Y6470000D02*
X51484819Y6470000D01*
X51484819Y6470000D02*
X51627676Y6565238D01*
X51627676Y6565238D02*
X51722914Y6660476D01*
X51722914Y6660476D02*
X51770533Y6755714D01*
D10*
X3710951Y7491800D02*
X3797618Y7615609D01*
X3859523Y7491800D02*
X3859523Y7751800D01*
X3859523Y7751800D02*
X3760475Y7751800D01*
X3760475Y7751800D02*
X3735713Y7739419D01*
X3735713Y7739419D02*
X3723332Y7727038D01*
X3723332Y7727038D02*
X3710951Y7702276D01*
X3710951Y7702276D02*
X3710951Y7665133D01*
X3710951Y7665133D02*
X3723332Y7640371D01*
X3723332Y7640371D02*
X3735713Y7627990D01*
X3735713Y7627990D02*
X3760475Y7615609D01*
X3760475Y7615609D02*
X3859523Y7615609D01*
X3463332Y7491800D02*
X3611904Y7491800D01*
X3537618Y7491800D02*
X3537618Y7751800D01*
X3537618Y7751800D02*
X3562380Y7714657D01*
X3562380Y7714657D02*
X3587142Y7689895D01*
X3587142Y7689895D02*
X3611904Y7677514D01*
X3302380Y7751800D02*
X3277618Y7751800D01*
X3277618Y7751800D02*
X3252856Y7739419D01*
X3252856Y7739419D02*
X3240475Y7727038D01*
X3240475Y7727038D02*
X3228094Y7702276D01*
X3228094Y7702276D02*
X3215713Y7652752D01*
X3215713Y7652752D02*
X3215713Y7590847D01*
X3215713Y7590847D02*
X3228094Y7541323D01*
X3228094Y7541323D02*
X3240475Y7516561D01*
X3240475Y7516561D02*
X3252856Y7504180D01*
X3252856Y7504180D02*
X3277618Y7491800D01*
X3277618Y7491800D02*
X3302380Y7491800D01*
X3302380Y7491800D02*
X3327142Y7504180D01*
X3327142Y7504180D02*
X3339523Y7516561D01*
X3339523Y7516561D02*
X3351904Y7541323D01*
X3351904Y7541323D02*
X3364285Y7590847D01*
X3364285Y7590847D02*
X3364285Y7652752D01*
X3364285Y7652752D02*
X3351904Y7702276D01*
X3351904Y7702276D02*
X3339523Y7727038D01*
X3339523Y7727038D02*
X3327142Y7739419D01*
X3327142Y7739419D02*
X3302380Y7751800D01*
X3129047Y7751800D02*
X2955713Y7751800D01*
X2955713Y7751800D02*
X3067142Y7491800D01*
D11*
X23086740Y48169878D02*
X23531978Y48169878D01*
X23531978Y48169878D02*
X23584359Y48143688D01*
X23584359Y48143688D02*
X23610550Y48117497D01*
X23610550Y48117497D02*
X23636740Y48065116D01*
X23636740Y48065116D02*
X23636740Y47960354D01*
X23636740Y47960354D02*
X23610550Y47907973D01*
X23610550Y47907973D02*
X23584359Y47881783D01*
X23584359Y47881783D02*
X23531978Y47855592D01*
X23531978Y47855592D02*
X23086740Y47855592D01*
X23270073Y47357974D02*
X23636740Y47357974D01*
X23060550Y47488926D02*
X23453407Y47619879D01*
X23453407Y47619879D02*
X23453407Y47279402D01*
X23086740Y46965116D02*
X23086740Y46912735D01*
X23086740Y46912735D02*
X23112930Y46860354D01*
X23112930Y46860354D02*
X23139121Y46834164D01*
X23139121Y46834164D02*
X23191502Y46807973D01*
X23191502Y46807973D02*
X23296264Y46781783D01*
X23296264Y46781783D02*
X23427216Y46781783D01*
X23427216Y46781783D02*
X23531978Y46807973D01*
X23531978Y46807973D02*
X23584359Y46834164D01*
X23584359Y46834164D02*
X23610550Y46860354D01*
X23610550Y46860354D02*
X23636740Y46912735D01*
X23636740Y46912735D02*
X23636740Y46965116D01*
X23636740Y46965116D02*
X23610550Y47017497D01*
X23610550Y47017497D02*
X23584359Y47043688D01*
X23584359Y47043688D02*
X23531978Y47069878D01*
X23531978Y47069878D02*
X23427216Y47096069D01*
X23427216Y47096069D02*
X23296264Y47096069D01*
X23296264Y47096069D02*
X23191502Y47069878D01*
X23191502Y47069878D02*
X23139121Y47043688D01*
X23139121Y47043688D02*
X23112930Y47017497D01*
X23112930Y47017497D02*
X23086740Y46965116D01*
X23139121Y46572259D02*
X23112930Y46546068D01*
X23112930Y46546068D02*
X23086740Y46493687D01*
X23086740Y46493687D02*
X23086740Y46362735D01*
X23086740Y46362735D02*
X23112930Y46310354D01*
X23112930Y46310354D02*
X23139121Y46284163D01*
X23139121Y46284163D02*
X23191502Y46257973D01*
X23191502Y46257973D02*
X23243883Y46257973D01*
X23243883Y46257973D02*
X23322454Y46284163D01*
X23322454Y46284163D02*
X23636740Y46598449D01*
X23636740Y46598449D02*
X23636740Y46257973D01*
D10*
X6549765Y7159762D02*
X6561670Y7171666D01*
X6561670Y7171666D02*
X6573574Y7207381D01*
X6573574Y7207381D02*
X6573574Y7231190D01*
X6573574Y7231190D02*
X6561670Y7266904D01*
X6561670Y7266904D02*
X6537860Y7290714D01*
X6537860Y7290714D02*
X6514050Y7302619D01*
X6514050Y7302619D02*
X6466431Y7314523D01*
X6466431Y7314523D02*
X6430717Y7314523D01*
X6430717Y7314523D02*
X6383098Y7302619D01*
X6383098Y7302619D02*
X6359289Y7290714D01*
X6359289Y7290714D02*
X6335479Y7266904D01*
X6335479Y7266904D02*
X6323574Y7231190D01*
X6323574Y7231190D02*
X6323574Y7207381D01*
X6323574Y7207381D02*
X6335479Y7171666D01*
X6335479Y7171666D02*
X6347384Y7159762D01*
X6323574Y6933571D02*
X6323574Y7052619D01*
X6323574Y7052619D02*
X6442622Y7064523D01*
X6442622Y7064523D02*
X6430717Y7052619D01*
X6430717Y7052619D02*
X6418812Y7028809D01*
X6418812Y7028809D02*
X6418812Y6969285D01*
X6418812Y6969285D02*
X6430717Y6945476D01*
X6430717Y6945476D02*
X6442622Y6933571D01*
X6442622Y6933571D02*
X6466431Y6921666D01*
X6466431Y6921666D02*
X6525955Y6921666D01*
X6525955Y6921666D02*
X6549765Y6933571D01*
X6549765Y6933571D02*
X6561670Y6945476D01*
X6561670Y6945476D02*
X6573574Y6969285D01*
X6573574Y6969285D02*
X6573574Y7028809D01*
X6573574Y7028809D02*
X6561670Y7052619D01*
X6561670Y7052619D02*
X6549765Y7064523D01*
X6323574Y6766905D02*
X6323574Y6743095D01*
X6323574Y6743095D02*
X6335479Y6719286D01*
X6335479Y6719286D02*
X6347384Y6707381D01*
X6347384Y6707381D02*
X6371193Y6695476D01*
X6371193Y6695476D02*
X6418812Y6683571D01*
X6418812Y6683571D02*
X6478336Y6683571D01*
X6478336Y6683571D02*
X6525955Y6695476D01*
X6525955Y6695476D02*
X6549765Y6707381D01*
X6549765Y6707381D02*
X6561670Y6719286D01*
X6561670Y6719286D02*
X6573574Y6743095D01*
X6573574Y6743095D02*
X6573574Y6766905D01*
X6573574Y6766905D02*
X6561670Y6790714D01*
X6561670Y6790714D02*
X6549765Y6802619D01*
X6549765Y6802619D02*
X6525955Y6814524D01*
X6525955Y6814524D02*
X6478336Y6826428D01*
X6478336Y6826428D02*
X6418812Y6826428D01*
X6418812Y6826428D02*
X6371193Y6814524D01*
X6371193Y6814524D02*
X6347384Y6802619D01*
X6347384Y6802619D02*
X6335479Y6790714D01*
X6335479Y6790714D02*
X6323574Y6766905D01*
X6323574Y6600238D02*
X6323574Y6445476D01*
X6323574Y6445476D02*
X6418812Y6528810D01*
X6418812Y6528810D02*
X6418812Y6493095D01*
X6418812Y6493095D02*
X6430717Y6469286D01*
X6430717Y6469286D02*
X6442622Y6457381D01*
X6442622Y6457381D02*
X6466431Y6445476D01*
X6466431Y6445476D02*
X6525955Y6445476D01*
X6525955Y6445476D02*
X6549765Y6457381D01*
X6549765Y6457381D02*
X6561670Y6469286D01*
X6561670Y6469286D02*
X6573574Y6493095D01*
X6573574Y6493095D02*
X6573574Y6564524D01*
X6573574Y6564524D02*
X6561670Y6588333D01*
X6561670Y6588333D02*
X6549765Y6600238D01*
X53658200Y33100952D02*
X53534391Y33187619D01*
X53658200Y33249524D02*
X53398200Y33249524D01*
X53398200Y33249524D02*
X53398200Y33150476D01*
X53398200Y33150476D02*
X53410581Y33125714D01*
X53410581Y33125714D02*
X53422962Y33113333D01*
X53422962Y33113333D02*
X53447724Y33100952D01*
X53447724Y33100952D02*
X53484867Y33100952D01*
X53484867Y33100952D02*
X53509629Y33113333D01*
X53509629Y33113333D02*
X53522010Y33125714D01*
X53522010Y33125714D02*
X53534391Y33150476D01*
X53534391Y33150476D02*
X53534391Y33249524D01*
X53658200Y32853333D02*
X53658200Y33001905D01*
X53658200Y32927619D02*
X53398200Y32927619D01*
X53398200Y32927619D02*
X53435343Y32952381D01*
X53435343Y32952381D02*
X53460105Y32977143D01*
X53460105Y32977143D02*
X53472486Y33001905D01*
X53398200Y32692381D02*
X53398200Y32667619D01*
X53398200Y32667619D02*
X53410581Y32642857D01*
X53410581Y32642857D02*
X53422962Y32630476D01*
X53422962Y32630476D02*
X53447724Y32618095D01*
X53447724Y32618095D02*
X53497248Y32605714D01*
X53497248Y32605714D02*
X53559153Y32605714D01*
X53559153Y32605714D02*
X53608677Y32618095D01*
X53608677Y32618095D02*
X53633439Y32630476D01*
X53633439Y32630476D02*
X53645820Y32642857D01*
X53645820Y32642857D02*
X53658200Y32667619D01*
X53658200Y32667619D02*
X53658200Y32692381D01*
X53658200Y32692381D02*
X53645820Y32717143D01*
X53645820Y32717143D02*
X53633439Y32729524D01*
X53633439Y32729524D02*
X53608677Y32741905D01*
X53608677Y32741905D02*
X53559153Y32754286D01*
X53559153Y32754286D02*
X53497248Y32754286D01*
X53497248Y32754286D02*
X53447724Y32741905D01*
X53447724Y32741905D02*
X53422962Y32729524D01*
X53422962Y32729524D02*
X53410581Y32717143D01*
X53410581Y32717143D02*
X53398200Y32692381D01*
X53484867Y32382857D02*
X53658200Y32382857D01*
X53385820Y32444762D02*
X53571534Y32506667D01*
X53571534Y32506667D02*
X53571534Y32345714D01*
D11*
%TO.C,R103*%
X45715000Y17740000D02*
X45715000Y17200000D01*
X45715000Y17200000D02*
X46765000Y17200000D01*
X46765000Y17740000D02*
X45715000Y17740000D01*
X46765000Y17200000D02*
X46765000Y17740000D01*
%TO.C,R108*%
X4195000Y3430000D02*
X4195000Y2890000D01*
X4195000Y2890000D02*
X5245000Y2890000D01*
X5245000Y3430000D02*
X4195000Y3430000D01*
X5245000Y2890000D02*
X5245000Y3430000D01*
%TO.C,U401*%
X22900000Y44402020D02*
X23900000Y44402020D01*
X22900000Y42152020D02*
X22900000Y44402020D01*
X23150000Y41902020D02*
X22900000Y42152020D01*
X23900000Y41902020D02*
X23150000Y41902020D01*
X23900000Y41902020D02*
X23900000Y44402020D01*
%TO.C,R102*%
X45510000Y19405000D02*
X45510000Y18355000D01*
X45510000Y18355000D02*
X46050000Y18355000D01*
X46050000Y19405000D02*
X45510000Y19405000D01*
X46050000Y18355000D02*
X46050000Y19405000D01*
%TO.C,U1*%
X2735000Y6880000D02*
X2735000Y3880000D01*
X2735000Y3880000D02*
X5735000Y3880000D01*
X4985000Y6880000D02*
X2735000Y6880000D01*
X5735000Y6130000D02*
X4985000Y6880000D01*
X5735000Y3880000D02*
X5735000Y6130000D01*
%TO.C,R403*%
X8750000Y54570000D02*
X8750000Y54030000D01*
X8750000Y54030000D02*
X9800000Y54030000D01*
X9800000Y54570000D02*
X8750000Y54570000D01*
X9800000Y54030000D02*
X9800000Y54570000D01*
D14*
%TO.C,CN1*%
X3130000Y9520000D02*
G75*
G02*
X3070000Y9520000I-30000J0D01*
G01*
X3070000Y9520000D02*
G75*
G02*
X3130000Y9520000I30000J0D01*
G01*
%TO.C,D403*%
X16600000Y6610000D02*
G75*
G02*
X16540000Y6610000I-30000J0D01*
G01*
X16540000Y6610000D02*
G75*
G02*
X16600000Y6610000I30000J0D01*
G01*
%TO.C,SW101*%
X51300000Y11720000D02*
G75*
G02*
X51240000Y11720000I-30000J0D01*
G01*
X51240000Y11720000D02*
G75*
G02*
X51300000Y11720000I30000J0D01*
G01*
D11*
%TO.C,R107*%
X2895000Y7880000D02*
X2895000Y7340000D01*
X2895000Y7340000D02*
X3945000Y7340000D01*
X3945000Y7880000D02*
X2895000Y7880000D01*
X3945000Y7340000D02*
X3945000Y7880000D01*
%TO.C,U402*%
X22887500Y48477020D02*
X23887500Y48477020D01*
X22887500Y46227020D02*
X22887500Y48477020D01*
X23137500Y45977020D02*
X22887500Y46227020D01*
X23887500Y45977020D02*
X23137500Y45977020D01*
X23887500Y45977020D02*
X23887500Y48477020D01*
%TO.C,C503*%
X6210000Y7380000D02*
X6210000Y6380000D01*
X6210000Y6380000D02*
X6710000Y6380000D01*
X6710000Y7380000D02*
X6210000Y7380000D01*
X6710000Y6380000D02*
X6710000Y7380000D01*
%TO.C,R104*%
X53270000Y33335000D02*
X53810000Y33335000D01*
X53270000Y32285000D02*
X53270000Y33335000D01*
X53810000Y33335000D02*
X53810000Y32285000D01*
X53810000Y32285000D02*
X53270000Y32285000D01*
%TD*%
D15*
X-1439339Y56818020D02*
G75*
G02*
X-2939299Y61318000I1500039J2999980D01*
G01*
X56198280Y3200469D02*
X57223718Y2159880D01*
X53138956Y60479214D02*
G75*
G02*
X57260012Y55878129I1861044J-2479214D01*
G01*
X1311293Y62930283D02*
G75*
G02*
X3104813Y59328758I-1493293J-2990983D01*
G01*
X48274817Y280000D02*
X6758008Y280000D01*
X2211856Y-2172024D02*
G75*
G02*
X-2057640Y2318645I-2211856J2172024D01*
G01*
X11329269Y52501271D02*
X11333578Y38200000D01*
X56239162Y54870297D02*
X57260012Y55878129D01*
X6991566Y57420000D02*
G75*
G02*
X3194614Y59166756I34J5000200D01*
G01*
X220544Y52500000D02*
X210472Y53228879D01*
X51827331Y-1201528D02*
X52828053Y-2211932D01*
X-2057639Y2318644D02*
X-1282455Y3081424D01*
X19000000Y57500000D02*
X19000000Y76000000D01*
X54751934Y51311284D02*
X54759646Y6709117D01*
X48000000Y76000000D02*
X48000000Y57500000D01*
X51433325Y58913077D02*
G75*
G02*
X48000000Y57500000I-3450825J3506923D01*
G01*
X54751934Y51311284D02*
G75*
G02*
X56239180Y54870279I5000266J716D01*
G01*
X-2939339Y61318020D02*
G75*
G02*
X1311200Y62930321I3000039J-1500020D01*
G01*
X11129276Y52701269D02*
X220544Y52500000D01*
X-1439339Y56818021D02*
X64581Y53555271D01*
X57223718Y2159880D02*
G75*
G02*
X52828052Y-2211933I-2223718J-2159880D01*
G01*
X210637Y6643833D02*
G75*
G02*
X-1282449Y3081418I-5000137J1567D01*
G01*
X56198280Y3200469D02*
G75*
G02*
X54759673Y6709117I3561020J3509331D01*
G01*
X19000000Y76000000D02*
X48000000Y76000000D01*
X220000Y38000000D02*
X11133579Y38000000D01*
X11333578Y38199999D02*
G75*
G02*
X11133579Y38000022I-199978J1D01*
G01*
X3262699Y-1144693D02*
G75*
G02*
X6758008Y279995I3495301J-3575307D01*
G01*
X3194614Y59166756D02*
X3104814Y59328764D01*
X2211856Y-2172024D02*
X3262699Y-1144693D01*
X11129276Y52701270D02*
G75*
G02*
X11329270Y52501271I24J-199970D01*
G01*
X210637Y6643833D02*
X219967Y38000000D01*
X51433325Y58913077D02*
X53138956Y60479214D01*
X6991566Y57420000D02*
X19000000Y57500000D01*
X64581Y53555271D02*
G75*
G02*
X210446Y53228878I-353281J-353671D01*
G01*
X48274817Y280000D02*
G75*
G02*
X51827343Y-1201516I-17J-5000100D01*
G01*
M02*
