M48
; DRILL file {KiCad 9.0.7} date 2026-02-24T19:07:47+0100
; FORMAT={-:-/ absolute / metric / decimal}
; #@! TF.CreationDate,2026-02-24T19:07:47+01:00
; #@! TF.GenerationSoftware,Kicad,Pcbnew,9.0.7
; #@! TF.FileFunction,Plated,1,6,PTH
FMAT,2
METRIC
; #@! TA.AperFunction,Plated,PTH,ViaDrill
T1C0.300
; #@! TA.AperFunction,Plated,PTH,ComponentDrill
T2C0.500
; #@! TA.AperFunction,Plated,PTH,ComponentDrill
T3C0.500
; #@! TA.AperFunction,Plated,PTH,ComponentDrill
T4C0.650
; #@! TA.AperFunction,Plated,PTH,ComponentDrill
T5C0.800
; #@! TA.AperFunction,Plated,PTH,ComponentDrill
T6C0.900
; #@! TA.AperFunction,Plated,PTH,ComponentDrill
T7C0.900
; #@! TA.AperFunction,Plated,PTH,ComponentDrill
T8C2.200
; #@! TA.AperFunction,Plated,PTH,ComponentDrill
T9C2.700
; #@! TA.AperFunction,Plated,PTH,ComponentDrill
T10C2.950
%
G90
G05
T1
X1.15Y36.35
X1.15Y34.72
X1.15Y33.09
X1.15Y31.46
X1.15Y29.83
X1.15Y28.2
X1.15Y26.57
X1.15Y21.68
X1.15Y20.05
X1.15Y18.42
X1.15Y16.79
X1.15Y15.16
X1.15Y13.53
X1.15Y11.9
X1.15Y10.27
X1.15Y8.64
X1.15Y7.01
X1.15Y5.38
X1.15Y3.75
X2.7Y2.45
X2.8Y10.95
X3.66Y5.9
X3.66Y4.89
X3.825Y36.3
X3.9Y8.85
X3.92Y56.5
X4.1Y1.15
X4.4Y12.0
X4.66Y33.89
X4.75Y31.6
X4.75Y29.7
X4.8Y20.05
X4.8Y18.15
X5.55Y56.5
X5.73Y1.15
X6.17Y4.34
X6.25Y32.725
X6.325Y28.825
X6.33Y33.3
X6.33Y27.925
X6.36Y24.38
X6.68Y5.47
X6.81Y7.99
X6.87Y3.19
X6.91Y4.84
X6.914Y32.372
X6.96Y3.79
X6.99Y21.78
X7.18Y56.5
X7.24Y33.38
X7.36Y1.15
X7.65Y28.95
X7.65Y17.45
X7.698Y21.65
X7.97Y25.62
X7.975Y54.275
X8.0Y24.46
X8.3Y14.975
X8.302Y32.83
X8.302Y21.65
X8.71Y33.43
X8.81Y56.5
X8.99Y1.15
X9.025Y6.775
X9.05Y29.0
X9.05Y16.95
X9.07Y21.84
X9.25Y9.95
X9.35Y11.95
X9.64Y22.21
X9.675Y32.525
X9.675Y27.975
X10.07Y9.96
X10.21Y23.88
X10.32Y14.07
X10.44Y56.5
X10.62Y1.15
X11.11Y15.93
X11.25Y31.6
X11.25Y20.05
X11.25Y18.15
X11.275Y6.775
X11.3Y2.5
X11.35Y34.05
X12.02Y25.73
X12.07Y56.5
X12.25Y1.15
X12.43Y13.16
X12.57Y32.43
X13.0Y52.61
X13.0Y49.38
X13.0Y46.12
X13.0Y42.86
X13.0Y39.6
X13.022Y14.35
X13.022Y13.8
X13.21Y29.15
X13.22Y30.01
X13.22Y26.66
X13.23Y25.44
X13.28Y17.05
X13.31Y18.24
X13.35Y23.05
X13.4Y55.0
X13.7Y56.5
X13.88Y1.15
X14.3Y14.1
X14.84Y15.98
X14.864Y33.226
X14.921Y18.0
X14.921Y17.3
X14.96Y21.955
X15.025Y37.275
X15.112Y20.4
X15.112Y19.7
X15.33Y56.5
X15.49Y16.87
X15.503Y34.086
X15.51Y1.15
X15.52Y34.75
X15.557Y33.438
X15.736Y31.794
X15.946Y21.6
X15.946Y20.9
X15.984Y33.011
X16.0Y23.345
X16.0Y19.2
X16.0Y18.5
X16.06Y26.58
X16.13Y30.57
X16.164Y31.366
X16.28Y7.71
X16.325Y52.525
X16.37Y16.94
X16.4Y22.08
X16.42Y15.83
X16.96Y56.5
X16.97Y14.63
X16.99Y8.24
X17.14Y1.15
X17.225Y55.025
X17.334Y7.324
X17.4Y36.632
X17.4Y36.028
X17.46Y12.08
X17.88Y16.61
X17.9Y38.05
X17.9Y7.15
X17.95Y7.75
X18.46Y56.45
X18.484Y33.062
X18.5Y54.5
X18.5Y18.1
X18.77Y1.15
X18.79Y7.35
X19.04Y56.45
X19.41Y7.69
X19.45Y8.35
X19.775Y37.775
X19.877Y71.275
X20.0Y75.0
X20.0Y73.0
X20.0Y69.5
X20.0Y68.0
X20.0Y66.5
X20.0Y65.0
X20.0Y64.0
X20.0Y62.5
X20.0Y60.5
X20.0Y33.0
X20.02Y24.13
X20.25Y22.66
X20.4Y1.15
X20.45Y12.2
X20.85Y54.475
X20.98Y21.94
X21.2Y13.04
X21.475Y47.25
X21.499Y41.232
X21.5Y66.5
X21.5Y60.0
X21.5Y45.225
X21.805Y46.57
X21.805Y45.87
X21.824Y43.18
X21.832Y42.49
X21.832Y41.79
X21.847Y44.53
X21.847Y43.83
X21.852Y48.61
X21.852Y47.91
X21.95Y12.18
X21.95Y8.35
X22.0Y75.0
X22.03Y1.15
X22.3Y47.25
X22.375Y45.5
X22.403Y44.867
X22.45Y41.475
X22.46Y55.86
X22.475Y48.95
X22.5Y66.5
X22.5Y39.85
X22.84Y56.34
X23.44Y70.989
X23.45Y12.2
X23.45Y8.35
X23.66Y1.15
X23.77Y66.608
X24.0Y75.0
X24.0Y64.0
X24.0Y49.0
X24.05Y22.75
X24.2Y13.02
X24.3Y20.7
X24.95Y12.19
X24.95Y8.25
X25.29Y1.15
X25.39Y35.76
X25.5Y69.5
X25.5Y68.0
X25.5Y64.0
X25.5Y63.0
X25.5Y45.857
X25.5Y45.0
X25.609Y71.372
X25.75Y13.55
X25.8Y23.1
X25.8Y19.18
X25.89Y34.06
X25.94Y7.24
X26.0Y75.0
X26.0Y65.5
X26.0Y60.5
X26.063Y35.937
X26.13Y36.6
X26.4Y54.64
X26.53Y50.8
X26.557Y35.443
X26.563Y34.147
X26.63Y40.0
X26.67Y34.8
X26.83Y32.92
X26.88Y23.36
X26.9Y19.8
X26.92Y1.15
X27.0Y16.65
X27.057Y33.653
X27.136Y50.255
X27.16Y17.911
X27.24Y35.59
X27.55Y15.8
X27.65Y21.23
X27.65Y13.1
X27.74Y33.81
X28.0Y75.0
X28.0Y61.5
X28.0Y60.0
X28.0Y18.8
X28.19Y54.61
X28.45Y23.8
X28.5Y15.8
X28.55Y1.15
X28.578Y33.604
X28.6Y17.72
X28.74Y34.31
X28.95Y32.4
X28.95Y24.4
X29.0Y60.5
X29.073Y33.109
X29.08Y31.44
X29.21Y50.255
X29.34Y18.78
X29.55Y23.8
X29.65Y51.07
X29.762Y31.61
X29.79Y33.27
X29.91Y32.29
X30.0Y75.0
X30.0Y61.0
X30.12Y30.46
X30.18Y1.15
X30.19Y50.255
X30.257Y31.115
X30.285Y40.845
X30.5Y67.0
X30.5Y27.4
X31.0Y72.0
X31.0Y58.0
X31.01Y31.26
X31.2Y5.4
X31.2Y3.3
X31.2Y1.15
X31.3Y40.875
X31.38Y30.76
X31.49Y17.72
X31.84Y16.68
X32.0Y66.0
X32.0Y60.0
X32.0Y45.5
X32.063Y30.897
X32.16Y31.59
X32.3Y21.1
X32.35Y40.875
X32.41Y6.91
X32.42Y22.24
X32.5Y75.0
X32.557Y30.403
X32.69Y54.67
X32.79Y61.21
X32.999Y29.924
X33.0Y72.5
X33.27Y30.6
X33.3Y19.95
X33.3Y18.76
X33.5Y70.0
X34.0Y68.0
X34.0Y60.5
X34.325Y29.675
X34.43Y17.72
X35.0Y75.0
X35.0Y65.5
X35.16Y18.74
X35.4Y16.67
X35.47Y6.945
X35.5Y60.5
X36.0Y58.0
X36.18Y17.72
X36.5Y67.0
X36.67Y18.78
X36.8Y26.1
X37.0Y75.0
X37.0Y70.0
X37.07Y16.68
X37.24Y54.77
X37.5Y60.5
X37.5Y58.0
X37.63Y49.61
X37.69Y17.71
X37.7Y25.3
X37.9Y24.6
X38.01Y18.78
X38.03Y50.82
X38.1Y20.9
X38.19Y51.45
X38.2Y29.7
X38.2Y14.9
X38.38Y49.56
X38.45Y13.11
X38.5Y72.0
X38.5Y67.5
X38.69Y6.9
X39.0Y66.5
X39.0Y65.0
X39.46Y49.96
X39.5Y75.0
X39.55Y16.75
X39.69Y12.47
X39.92Y29.61
X40.0Y61.5
X40.01Y11.93
X40.09Y49.65
X40.25Y9.93
X40.31Y12.48
X40.4Y10.7
X40.7Y29.61
X40.71Y55.88
X41.2Y54.372
X41.2Y53.768
X41.43Y29.62
X41.5Y58.0
X41.66Y6.88
X42.5Y57.5
X43.104Y22.196
X43.15Y23.7
X43.15Y20.15
X43.27Y29.67
X43.32Y49.65
X43.36Y12.25
X43.5Y61.5
X43.5Y59.5
X43.5Y58.0
X43.64Y50.39
X43.95Y54.67
X43.95Y49.59
X44.0Y63.0
X44.05Y31.65
X44.32Y6.86
X44.5Y67.5
X44.5Y66.5
X44.5Y65.5
X44.52Y54.67
X44.93Y68.57
X45.0Y75.0
X45.0Y70.5
X45.07Y48.63
X45.2Y31.895
X45.35Y32.545
X45.375Y47.975
X45.45Y22.4
X45.7Y15.6
X45.991Y29.947
X46.2Y14.7
X46.2Y13.85
X46.2Y13.295
X46.2Y12.717
X46.24Y47.33
X46.4Y6.25
X46.43Y46.67
X46.45Y15.55
X46.5Y26.0
X46.51Y36.99
X46.61Y35.48
X46.7Y18.4
X46.75Y22.68
X46.75Y22.09
X46.82Y24.64
X46.962Y30.919
X47.0Y75.0
X47.0Y73.5
X47.0Y71.5
X47.0Y69.5
X47.0Y67.5
X47.0Y64.5
X47.0Y62.5
X47.0Y61.0
X47.0Y59.5
X47.0Y57.5
X47.01Y40.04
X47.09Y13.3
X47.09Y12.717
X47.09Y12.15
X47.1Y47.425
X47.1Y46.825
X47.1Y13.85
X47.11Y16.1
X47.11Y14.4
X47.3Y18.4
X47.33Y16.75
X47.4Y45.45
X47.69Y56.5
X48.741Y7.354
X48.8Y18.05
X49.0Y16.2
X49.07Y37.24
X49.07Y31.54
X49.073Y20.173
X49.075Y19.425
X49.08Y29.15
X49.1Y24.3
X49.1Y18.7
X49.11Y38.28
X49.16Y22.24
X49.17Y32.26
X49.22Y33.94
X49.32Y56.5
X49.475Y32.9
X49.5Y30.0
X49.7Y24.25
X49.85Y25.15
X50.08Y30.36
X50.1Y16.9
X50.15Y7.04
X50.42Y31.41
X50.45Y19.925
X50.45Y19.35
X50.46Y25.45
X50.51Y29.85
X50.73Y11.36
X50.95Y56.5
X51.0Y12.5
X51.3Y45.55
X51.3Y0.65
X51.325Y38.425
X51.85Y19.7
X51.85Y19.15
X51.85Y18.6
X51.85Y18.05
X51.91Y25.84
X52.0Y12.5
X52.06Y28.88
X52.08Y32.62
X52.1Y33.27
X52.125Y30.25
X52.13Y31.85
X52.16Y8.38
X52.27Y26.32
X52.28Y23.58
X52.45Y55.2
X52.55Y29.66
X52.65Y18.85
X52.75Y3.05
X52.79Y31.6
X52.98Y19.69
X53.22Y23.52
X53.658Y19.643
X53.78Y20.21
X53.85Y54.3
X53.85Y52.67
X53.85Y51.04
X53.85Y49.41
X53.85Y47.78
X53.85Y46.15
X53.85Y44.52
X53.85Y42.89
X53.85Y41.26
X53.85Y39.63
X53.85Y38.0
X53.85Y36.37
X53.85Y34.74
X53.85Y31.48
X53.85Y29.85
X53.88Y28.09
X53.9Y10.86
X53.9Y9.23
X53.9Y7.6
X53.9Y5.97
X53.9Y4.34
T2
X11.28Y22.78
X28.41Y20.5
X51.46Y48.37
T4
X20.96Y59.0
X22.23Y59.0
X23.5Y59.0
X24.77Y59.0
X26.04Y59.0
T5
X4.42Y30.65
X4.42Y19.1
X11.58Y30.65
X11.58Y19.1
X52.59Y9.97
X52.59Y6.97
T7
X52.92Y17.23
X52.92Y12.93
T8
X2.6Y24.35
T9
X0.0Y60.0
X0.0Y0.0
X55.0Y58.0
X55.0Y0.0
T10
X35.45Y22.375
X35.45Y10.5
T3
G00X5.4Y32.68
M15
G01X4.5Y32.68
M16
G05
G00X5.4Y28.62
M15
G01X4.5Y28.62
M16
G05
G00X5.4Y21.13
M15
G01X4.5Y21.13
M16
G05
G00X5.4Y17.07
M15
G01X4.5Y17.07
M16
G05
G00X11.5Y32.68
M15
G01X10.6Y32.68
M16
G05
G00X11.5Y28.62
M15
G01X10.6Y28.62
M16
G05
G00X11.5Y21.13
M15
G01X10.6Y21.13
M16
G05
G00X11.5Y17.07
M15
G01X10.6Y17.07
M16
G05
T6
G00X13.69Y10.18
M15
G01X13.69Y8.38
M16
G05
G00X13.69Y3.72
M15
G01X13.69Y2.92
M16
G05
G00X28.19Y10.18
M15
G01X28.19Y8.38
M16
G05
G00X28.19Y3.72
M15
G01X28.19Y2.92
M16
G05
M30
