%TF.GenerationSoftware,KiCad,Pcbnew,9.0.7*%
%TF.CreationDate,2026-02-24T19:06:29+01:00*%
%TF.ProjectId,CM5_MINIMA_3,434d355f-4d49-44e4-994d-415f332e6b69,2*%
%TF.SameCoordinates,PX4a87970PY6ef8408*%
%TF.FileFunction,Glue,Bot*%
%TF.FilePolarity,Positive*%
%FSLAX46Y46*%
G04 Gerber Fmt 4.6, Leading zero omitted, Abs format (unit mm)*
G04 Created by KiCad (PCBNEW 9.0.7) date 2026-02-24 19:06:29*
%MOMM*%
%LPD*%
G01*
G04 APERTURE LIST*
%TA.AperFunction,Profile*%
%ADD10C,0.050000*%
%TD*%
G04 APERTURE END LIST*
D10*
X-1439339Y56818020D02*
G75*
G02*
X-2939299Y61318000I1500039J2999980D01*
G01*
X56198280Y3200469D02*
X57223718Y2159880D01*
X53138956Y60479214D02*
G75*
G02*
X57260012Y55878129I1861044J-2479214D01*
G01*
X1311293Y62930283D02*
G75*
G02*
X3104813Y59328758I-1493293J-2990983D01*
G01*
X48274817Y280000D02*
X6758008Y280000D01*
X2211856Y-2172024D02*
G75*
G02*
X-2057640Y2318645I-2211856J2172024D01*
G01*
X11329269Y52501271D02*
X11333578Y38200000D01*
X56239162Y54870297D02*
X57260012Y55878129D01*
X6991566Y57420000D02*
G75*
G02*
X3194614Y59166756I34J5000200D01*
G01*
X220544Y52500000D02*
X210472Y53228879D01*
X51827331Y-1201528D02*
X52828053Y-2211932D01*
X-2057639Y2318644D02*
X-1282455Y3081424D01*
X19000000Y57500000D02*
X19000000Y76000000D01*
X54751934Y51311284D02*
X54759646Y6709117D01*
X48000000Y76000000D02*
X48000000Y57500000D01*
X51433325Y58913077D02*
G75*
G02*
X48000000Y57500000I-3450825J3506923D01*
G01*
X54751934Y51311284D02*
G75*
G02*
X56239180Y54870279I5000266J716D01*
G01*
X-2939339Y61318020D02*
G75*
G02*
X1311200Y62930321I3000039J-1500020D01*
G01*
X11129276Y52701269D02*
X220544Y52500000D01*
X-1439339Y56818021D02*
X64581Y53555271D01*
X57223718Y2159880D02*
G75*
G02*
X52828052Y-2211933I-2223718J-2159880D01*
G01*
X210637Y6643833D02*
G75*
G02*
X-1282449Y3081418I-5000137J1567D01*
G01*
X56198280Y3200469D02*
G75*
G02*
X54759673Y6709117I3561020J3509331D01*
G01*
X19000000Y76000000D02*
X48000000Y76000000D01*
X220000Y38000000D02*
X11133579Y38000000D01*
X11333578Y38199999D02*
G75*
G02*
X11133579Y38000022I-199978J1D01*
G01*
X3262699Y-1144693D02*
G75*
G02*
X6758008Y279995I3495301J-3575307D01*
G01*
X3194614Y59166756D02*
X3104814Y59328764D01*
X2211856Y-2172024D02*
X3262699Y-1144693D01*
X11129276Y52701270D02*
G75*
G02*
X11329270Y52501271I24J-199970D01*
G01*
X210637Y6643833D02*
X219967Y38000000D01*
X51433325Y58913077D02*
X53138956Y60479214D01*
X6991566Y57420000D02*
X19000000Y57500000D01*
X64581Y53555271D02*
G75*
G02*
X210446Y53228878I-353281J-353671D01*
G01*
X48274817Y280000D02*
G75*
G02*
X51827343Y-1201516I-17J-5000100D01*
G01*
M02*
