%TF.GenerationSoftware,KiCad,Pcbnew,9.0.7*%
%TF.CreationDate,2026-02-24T19:06:29+01:00*%
%TF.ProjectId,CM5_MINIMA_3,434d355f-4d49-44e4-994d-415f332e6b69,2*%
%TF.SameCoordinates,PX4a87970PY6ef8408*%
%TF.FileFunction,Paste,Bot*%
%TF.FilePolarity,Positive*%
%FSLAX46Y46*%
G04 Gerber Fmt 4.6, Leading zero omitted, Abs format (unit mm)*
G04 Created by KiCad (PCBNEW 9.0.7) date 2026-02-24 19:06:29*
%MOMM*%
%LPD*%
G01*
G04 APERTURE LIST*
G04 Aperture macros list*
%AMRoundRect*
0 Rectangle with rounded corners*
0 $1 Rounding radius*
0 $2 $3 $4 $5 $6 $7 $8 $9 X,Y pos of 4 corners*
0 Add a 4 corners polygon primitive as box body*
4,1,4,$2,$3,$4,$5,$6,$7,$8,$9,$2,$3,0*
0 Add four circle primitives for the rounded corners*
1,1,$1+$1,$2,$3*
1,1,$1+$1,$4,$5*
1,1,$1+$1,$6,$7*
1,1,$1+$1,$8,$9*
0 Add four rect primitives between the rounded corners*
20,1,$1+$1,$2,$3,$4,$5,0*
20,1,$1+$1,$4,$5,$6,$7,0*
20,1,$1+$1,$6,$7,$8,$9,0*
20,1,$1+$1,$8,$9,$2,$3,0*%
G04 Aperture macros list end*
%ADD10R,0.700000X0.200000*%
%ADD11RoundRect,0.135000X0.135000X0.185000X-0.135000X0.185000X-0.135000X-0.185000X0.135000X-0.185000X0*%
%ADD12RoundRect,0.075000X0.200000X-0.075000X0.200000X0.075000X-0.200000X0.075000X-0.200000X-0.075000X0*%
%ADD13RoundRect,0.135000X0.185000X-0.135000X0.185000X0.135000X-0.185000X0.135000X-0.185000X-0.135000X0*%
%ADD14RoundRect,0.087500X0.187500X0.087500X-0.187500X0.087500X-0.187500X-0.087500X0.187500X-0.087500X0*%
%ADD15RoundRect,0.087500X0.087500X0.187500X-0.087500X0.187500X-0.087500X-0.187500X0.087500X-0.187500X0*%
%ADD16RoundRect,0.135000X-0.135000X-0.185000X0.135000X-0.185000X0.135000X0.185000X-0.135000X0.185000X0*%
%ADD17R,0.600000X1.550000*%
%ADD18R,1.200000X1.800000*%
%ADD19R,0.250000X0.680000*%
%ADD20R,0.700000X0.600000*%
%ADD21R,0.700000X0.900000*%
%ADD22RoundRect,0.140000X0.170000X-0.140000X0.170000X0.140000X-0.170000X0.140000X-0.170000X-0.140000X0*%
%TA.AperFunction,Profile*%
%ADD23C,0.050000*%
%TD*%
G04 APERTURE END LIST*
D10*
%TO.C,Module301*%
X51140000Y35050000D03*
X48060000Y35050000D03*
X51140000Y34650000D03*
X48060000Y34650000D03*
X51140000Y34250000D03*
X48060000Y34250000D03*
X51140000Y33850000D03*
X48060000Y33850000D03*
X51140000Y33450000D03*
X48060000Y33450000D03*
X51140000Y33050000D03*
X48060000Y33050000D03*
X51140000Y32650000D03*
X48060000Y32650000D03*
X51140000Y32250000D03*
X48060000Y32250000D03*
X51140000Y31850000D03*
X48060000Y31850000D03*
X51140000Y31450000D03*
X48060000Y31450000D03*
X51140000Y31050000D03*
X48060000Y31050000D03*
X51140000Y30650000D03*
X48060000Y30650000D03*
X51140000Y30250000D03*
X48060000Y30250000D03*
X51140000Y29850000D03*
X48060000Y29850000D03*
X51140000Y29450000D03*
X48060000Y29450000D03*
X51140000Y29050000D03*
X48060000Y29050000D03*
X51140000Y28650000D03*
X48060000Y28650000D03*
X51140000Y28250000D03*
X48060000Y28250000D03*
X51140000Y27850000D03*
X48060000Y27850000D03*
X51140000Y27450000D03*
X48060000Y27450000D03*
X51140000Y27050000D03*
X48060000Y27050000D03*
X51140000Y26650000D03*
X48060000Y26650000D03*
X51140000Y26250000D03*
X48060000Y26250000D03*
X51140000Y25850000D03*
X48060000Y25850000D03*
X51140000Y25450000D03*
X48060000Y25450000D03*
X51140000Y25050000D03*
X48060000Y25050000D03*
X51140000Y24650000D03*
X48060000Y24650000D03*
X51140000Y24250000D03*
X48060000Y24250000D03*
X51140000Y23850000D03*
X48060000Y23850000D03*
X51140000Y23450000D03*
X48060000Y23450000D03*
X51140000Y23050000D03*
X48060000Y23050000D03*
X51140000Y22650000D03*
X48060000Y22650000D03*
X51140000Y22250000D03*
X48060000Y22250000D03*
X51140000Y21850000D03*
X48060000Y21850000D03*
X51140000Y21450000D03*
X48060000Y21450000D03*
X51140000Y21050000D03*
X48060000Y21050000D03*
X51140000Y20650000D03*
X48060000Y20650000D03*
X51140000Y20250000D03*
X48060000Y20250000D03*
X51140000Y19850000D03*
X48060000Y19850000D03*
X51140000Y19450000D03*
X48060000Y19450000D03*
X51140000Y19050000D03*
X48060000Y19050000D03*
X51140000Y18650000D03*
X48060000Y18650000D03*
X51140000Y18250000D03*
X48060000Y18250000D03*
X51140000Y17850000D03*
X48060000Y17850000D03*
X51140000Y17450000D03*
X48060000Y17450000D03*
X51140000Y17050000D03*
X48060000Y17050000D03*
X51140000Y16650000D03*
X48060000Y16650000D03*
X51140000Y16250000D03*
X48060000Y16250000D03*
X51140000Y15850000D03*
X48060000Y15850000D03*
X51140000Y15450000D03*
X48060000Y15450000D03*
%TD*%
D11*
%TO.C,R103*%
X46750000Y17470000D03*
X45730000Y17470000D03*
%TD*%
%TO.C,R108*%
X5230000Y3160000D03*
X4210000Y3160000D03*
%TD*%
D12*
%TO.C,U401*%
X23015000Y42152020D03*
X23015000Y42652020D03*
X23015000Y43152020D03*
X23015000Y43652020D03*
X23015000Y44152020D03*
X23785000Y44152020D03*
X23785000Y43652020D03*
X23785000Y43152020D03*
X23785000Y42652020D03*
X23785000Y42152020D03*
%TD*%
D13*
%TO.C,R102*%
X45780000Y18370000D03*
X45780000Y19390000D03*
%TD*%
D14*
%TO.C,U1*%
X5460000Y6380000D03*
X5460000Y5880000D03*
X5460000Y5380000D03*
X5460000Y4880000D03*
X5460000Y4380000D03*
D15*
X4735000Y4155000D03*
X4235000Y4155000D03*
X3735000Y4155000D03*
D14*
X3010000Y4380000D03*
X3010000Y4880000D03*
X3010000Y5380000D03*
X3010000Y5880000D03*
X3010000Y6380000D03*
D15*
X3735000Y6605000D03*
X4235000Y6605000D03*
X4735000Y6605000D03*
%TD*%
D16*
%TO.C,R403*%
X8765000Y54300000D03*
X9785000Y54300000D03*
%TD*%
D17*
%TO.C,CN1*%
X4600000Y9920000D03*
X5600000Y9920000D03*
D18*
X6900000Y13800000D03*
X3300000Y13800000D03*
%TD*%
D19*
%TO.C,D403*%
X16820000Y6540000D03*
X17320000Y6540000D03*
X17820000Y6540000D03*
X18320000Y6540000D03*
X18820000Y6540000D03*
X18820000Y5680000D03*
X18320000Y5680000D03*
X17820000Y5680000D03*
X17320000Y5680000D03*
X16820000Y5680000D03*
%TD*%
D20*
%TO.C,SW101*%
X51400000Y9470000D03*
X51400000Y7470000D03*
D21*
X52660000Y5470000D03*
X52660000Y11470000D03*
D20*
X51400000Y8470000D03*
%TD*%
D16*
%TO.C,R107*%
X2910000Y7610000D03*
X3930000Y7610000D03*
%TD*%
D12*
%TO.C,U402*%
X23002500Y46227020D03*
X23002500Y46727020D03*
X23002500Y47227020D03*
X23002500Y47727020D03*
X23002500Y48227020D03*
X23772500Y48227020D03*
X23772500Y47727020D03*
X23772500Y47227020D03*
X23772500Y46727020D03*
X23772500Y46227020D03*
%TD*%
D22*
%TO.C,C503*%
X6460000Y6400000D03*
X6460000Y7360000D03*
%TD*%
D13*
%TO.C,R104*%
X53540000Y32300000D03*
X53540000Y33320000D03*
%TD*%
D10*
%TO.C,Module302*%
X17140000Y35050000D03*
X14060000Y35050000D03*
X17140000Y34650000D03*
X14060000Y34650000D03*
X17140000Y34250000D03*
X14060000Y34250000D03*
X17140000Y33850000D03*
X14060000Y33850000D03*
X17140000Y33450000D03*
X14060000Y33450000D03*
X17140000Y33050000D03*
X14060000Y33050000D03*
X17140000Y32650000D03*
X14060000Y32650000D03*
X17140000Y32250000D03*
X14060000Y32250000D03*
X17140000Y31850000D03*
X14060000Y31850000D03*
X17140000Y31450000D03*
X14060000Y31450000D03*
X17140000Y31050000D03*
X14060000Y31050000D03*
X17140000Y30650000D03*
X14060000Y30650000D03*
X17140000Y30250000D03*
X14060000Y30250000D03*
X17140000Y29850000D03*
X14060000Y29850000D03*
X17140000Y29450000D03*
X14060000Y29450000D03*
X17140000Y29050000D03*
X14060000Y29050000D03*
X17140000Y28650000D03*
X14060000Y28650000D03*
X17140000Y28250000D03*
X14060000Y28250000D03*
X17140000Y27850000D03*
X14060000Y27850000D03*
X17140000Y27450000D03*
X14060000Y27450000D03*
X17140000Y27050000D03*
X14060000Y27050000D03*
X17140000Y26650000D03*
X14060000Y26650000D03*
X17140000Y26250000D03*
X14060000Y26250000D03*
X17140000Y25850000D03*
X14060000Y25850000D03*
X17140000Y25450000D03*
X14060000Y25450000D03*
X17140000Y25050000D03*
X14060000Y25050000D03*
X17140000Y24650000D03*
X14060000Y24650000D03*
X17140000Y24250000D03*
X14060000Y24250000D03*
X17140000Y23850000D03*
X14060000Y23850000D03*
X17140000Y23450000D03*
X14060000Y23450000D03*
X17140000Y23050000D03*
X14060000Y23050000D03*
X17140000Y22650000D03*
X14060000Y22650000D03*
X17140000Y22250000D03*
X14060000Y22250000D03*
X17140000Y21850000D03*
X14060000Y21850000D03*
X17140000Y21450000D03*
X14060000Y21450000D03*
X17140000Y21050000D03*
X14060000Y21050000D03*
X17140000Y20650000D03*
X14060000Y20650000D03*
X17140000Y20250000D03*
X14060000Y20250000D03*
X17140000Y19850000D03*
X14060000Y19850000D03*
X17140000Y19450000D03*
X14060000Y19450000D03*
X17140000Y19050000D03*
X14060000Y19050000D03*
X17140000Y18650000D03*
X14060000Y18650000D03*
X17140000Y18250000D03*
X14060000Y18250000D03*
X17140000Y17850000D03*
X14060000Y17850000D03*
X17140000Y17450000D03*
X14060000Y17450000D03*
X17140000Y17050000D03*
X14060000Y17050000D03*
X17140000Y16650000D03*
X14060000Y16650000D03*
X17140000Y16250000D03*
X14060000Y16250000D03*
X17140000Y15850000D03*
X14060000Y15850000D03*
X17140000Y15450000D03*
X14060000Y15450000D03*
%TD*%
D23*
X-1439339Y56818020D02*
G75*
G02*
X-2939299Y61318000I1500039J2999980D01*
G01*
X56198280Y3200469D02*
X57223718Y2159880D01*
X53138956Y60479214D02*
G75*
G02*
X57260012Y55878129I1861044J-2479214D01*
G01*
X1311293Y62930283D02*
G75*
G02*
X3104813Y59328758I-1493293J-2990983D01*
G01*
X48274817Y280000D02*
X6758008Y280000D01*
X2211856Y-2172024D02*
G75*
G02*
X-2057640Y2318645I-2211856J2172024D01*
G01*
X11329269Y52501271D02*
X11333578Y38200000D01*
X56239162Y54870297D02*
X57260012Y55878129D01*
X6991566Y57420000D02*
G75*
G02*
X3194614Y59166756I34J5000200D01*
G01*
X220544Y52500000D02*
X210472Y53228879D01*
X51827331Y-1201528D02*
X52828053Y-2211932D01*
X-2057639Y2318644D02*
X-1282455Y3081424D01*
X19000000Y57500000D02*
X19000000Y76000000D01*
X54751934Y51311284D02*
X54759646Y6709117D01*
X48000000Y76000000D02*
X48000000Y57500000D01*
X51433325Y58913077D02*
G75*
G02*
X48000000Y57500000I-3450825J3506923D01*
G01*
X54751934Y51311284D02*
G75*
G02*
X56239180Y54870279I5000266J716D01*
G01*
X-2939339Y61318020D02*
G75*
G02*
X1311200Y62930321I3000039J-1500020D01*
G01*
X11129276Y52701269D02*
X220544Y52500000D01*
X-1439339Y56818021D02*
X64581Y53555271D01*
X57223718Y2159880D02*
G75*
G02*
X52828052Y-2211933I-2223718J-2159880D01*
G01*
X210637Y6643833D02*
G75*
G02*
X-1282449Y3081418I-5000137J1567D01*
G01*
X56198280Y3200469D02*
G75*
G02*
X54759673Y6709117I3561020J3509331D01*
G01*
X19000000Y76000000D02*
X48000000Y76000000D01*
X220000Y38000000D02*
X11133579Y38000000D01*
X11333578Y38199999D02*
G75*
G02*
X11133579Y38000022I-199978J1D01*
G01*
X3262699Y-1144693D02*
G75*
G02*
X6758008Y279995I3495301J-3575307D01*
G01*
X3194614Y59166756D02*
X3104814Y59328764D01*
X2211856Y-2172024D02*
X3262699Y-1144693D01*
X11129276Y52701270D02*
G75*
G02*
X11329270Y52501271I24J-199970D01*
G01*
X210637Y6643833D02*
X219967Y38000000D01*
X51433325Y58913077D02*
X53138956Y60479214D01*
X6991566Y57420000D02*
X19000000Y57500000D01*
X64581Y53555271D02*
G75*
G02*
X210446Y53228878I-353281J-353671D01*
G01*
X48274817Y280000D02*
G75*
G02*
X51827343Y-1201516I-17J-5000100D01*
G01*
M02*
